G04*
G04 #@! TF.GenerationSoftware,Altium Limited,Altium Designer,21.9.2 (33)*
G04*
G04 Layer_Color=39423*
%FSLAX25Y25*%
%MOIN*%
G70*
G04*
G04 #@! TF.SameCoordinates,38B2C1F3-0FCD-4184-AA18-E5AB633A714F*
G04*
G04*
G04 #@! TF.FilePolarity,Positive*
G04*
G01*
G75*
%ADD11C,0.01181*%
%ADD12C,0.00394*%
%ADD14C,0.00787*%
%ADD163C,0.00197*%
%ADD164C,0.00098*%
D11*
X847740Y629277D02*
G03*
X847740Y629277I-197J0D01*
G01*
X842819Y781171D02*
G03*
X842819Y781171I-197J0D01*
G01*
X924851D02*
G03*
X924851Y781171I-197J0D01*
G01*
X919929Y694670D02*
G03*
X919929Y694670I-197J0D01*
G01*
X851819Y793876D02*
G03*
X851819Y793876I-197J0D01*
G01*
X899851Y777876D02*
G03*
X899851Y777876I-197J0D01*
G01*
X875835Y798651D02*
G03*
X875835Y798651I-197J0D01*
G01*
Y749564D02*
G03*
X875835Y749564I-197J0D01*
G01*
X831740Y727366D02*
G03*
X831740Y727366I-197J0D01*
G01*
X875835Y721012D02*
G03*
X875835Y721012I-197J0D01*
G01*
Y688315D02*
G03*
X875835Y688315I-197J0D01*
G01*
X831740Y677973D02*
G03*
X831740Y677973I-197J0D01*
G01*
X919929Y727366D02*
G03*
X919929Y727366I-197J0D01*
G01*
X847740Y694670D02*
G03*
X847740Y694670I-197J0D01*
G01*
X919929Y629277D02*
G03*
X919929Y629277I-197J0D01*
G01*
X935929Y661973D02*
G03*
X935929Y661973I-197J0D01*
G01*
X875835Y655619D02*
G03*
X875835Y655619I-197J0D01*
G01*
Y622923D02*
G03*
X875835Y622923I-197J0D01*
G01*
D12*
X872661Y996390D02*
G03*
X872661Y996390I-440J0D01*
G01*
X900220Y998752D02*
G03*
X900220Y998752I-440J0D01*
G01*
X892004Y1014796D02*
Y1018142D01*
X885508Y1014796D02*
Y1018142D01*
Y1014796D02*
X892004D01*
X885508Y1018142D02*
X892004D01*
X884756Y1014796D02*
Y1018142D01*
X875272Y1014796D02*
Y1018142D01*
X881768Y1014796D02*
Y1018142D01*
X875272D02*
X881768D01*
X875272Y1014796D02*
X881768D01*
X882520D02*
Y1018142D01*
X902044Y915780D02*
X906177D01*
X902044Y917945D02*
X906177D01*
Y915780D02*
Y917945D01*
X902044Y915780D02*
Y917945D01*
X888067Y932709D02*
X890232D01*
X888067Y928575D02*
X890232D01*
Y932709D01*
X888067Y928575D02*
Y932709D01*
X858637Y912826D02*
X861787D01*
Y910819D02*
Y912826D01*
Y910819D02*
X905488D01*
Y912826D01*
X908637D01*
X858638Y900426D02*
Y912827D01*
X908638Y900426D02*
Y912827D01*
X858638Y900426D02*
X860172D01*
X860173Y898653D02*
Y900425D01*
Y898654D02*
X907101D01*
X907102Y898653D02*
Y900425D01*
X907103Y900426D02*
X908638D01*
X860173Y899638D02*
X907102D01*
X903421Y987433D02*
X905587D01*
X903421Y983300D02*
X905587D01*
Y987433D01*
X903421Y983300D02*
Y987433D01*
X887477Y1008496D02*
Y1012630D01*
X885311Y1008496D02*
Y1012630D01*
X887477D01*
X885311Y1008496D02*
X887477D01*
X881768Y1019126D02*
Y1022473D01*
X875272Y1019126D02*
Y1022473D01*
Y1019126D02*
X881768D01*
X875272Y1022473D02*
X881768D01*
X874520Y1019126D02*
Y1022473D01*
X885508Y1019126D02*
Y1022473D01*
X892004Y1019126D02*
Y1022473D01*
X885508D02*
X892004D01*
X885508Y1019126D02*
X892004D01*
X892756D02*
Y1022473D01*
X891020Y1007906D02*
X895154D01*
X891020Y1010071D02*
X895154D01*
Y1007906D02*
Y1010071D01*
X891020Y1007906D02*
Y1010071D01*
Y1011055D02*
X895154D01*
X891020Y1013221D02*
X895154D01*
Y1011055D02*
Y1013221D01*
X891020Y1011055D02*
Y1013221D01*
X892398Y928575D02*
X894563D01*
X892398Y932709D02*
X894563D01*
X892398Y928575D02*
Y932709D01*
X894563Y928575D02*
Y932709D01*
X897122Y983300D02*
X899288D01*
X897122Y987433D02*
X899288D01*
X897122Y983300D02*
Y987433D01*
X899288Y983300D02*
Y987433D01*
X892398Y983300D02*
X894563D01*
X892398Y987433D02*
X894563D01*
X892398Y983300D02*
Y987433D01*
X894563Y983300D02*
Y987433D01*
X883343Y985859D02*
Y988024D01*
X879209Y985859D02*
Y988024D01*
Y985859D02*
X883343D01*
X879209Y988024D02*
X883343D01*
X900272Y987433D02*
X902437D01*
X900272Y983300D02*
X902437D01*
Y987433D01*
X900272Y983300D02*
Y987433D01*
X889248Y983300D02*
X891414D01*
X889248Y987433D02*
X891414D01*
X889248Y983300D02*
Y987433D01*
X891414Y983300D02*
Y987433D01*
X873106Y983300D02*
X875272D01*
X873106Y987433D02*
X875272D01*
X873106Y983300D02*
Y987433D01*
X875272Y983300D02*
Y987433D01*
X895744Y915780D02*
X899878D01*
X895744Y917945D02*
X899878D01*
Y915780D02*
Y917945D01*
X895744Y915780D02*
Y917945D01*
X889445D02*
X893579D01*
X889445Y915780D02*
X893579D01*
X889445D02*
Y917945D01*
X893579Y915780D02*
Y917945D01*
X910025Y904166D02*
Y908300D01*
X912190Y904166D02*
Y908300D01*
X910025Y904166D02*
X912190D01*
X910025Y908300D02*
X912190D01*
X869957Y983300D02*
X872122D01*
X869957Y987433D02*
X872122D01*
X869957Y983300D02*
Y987433D01*
X872122Y983300D02*
Y987433D01*
X871040Y995406D02*
X881276D01*
X871040Y999736D02*
X881276D01*
X871040Y995406D02*
Y999736D01*
X881276Y995406D02*
Y999736D01*
X890725Y999736D02*
X900961D01*
X890725Y995406D02*
X900961D01*
Y999736D01*
X890725Y995406D02*
Y999736D01*
X896729Y928575D02*
Y932709D01*
X898894Y928575D02*
Y932709D01*
X896729Y928575D02*
X898894D01*
X896729Y932709D02*
X898894D01*
X830102Y1056721D02*
X832726D01*
X831414D01*
Y1052785D01*
X836006Y1056721D02*
X834694D01*
X834038Y1056065D01*
Y1053441D01*
X834694Y1052785D01*
X836006D01*
X836662Y1053441D01*
Y1056065D01*
X836006Y1056721D01*
X837974Y1052785D02*
Y1056721D01*
X839942D01*
X840598Y1056065D01*
Y1054753D01*
X839942Y1054097D01*
X837974D01*
X845845Y1052785D02*
Y1055409D01*
X847157Y1056721D01*
X848469Y1055409D01*
Y1052785D01*
Y1054753D01*
X845845D01*
X852405Y1056065D02*
X851749Y1056721D01*
X850437D01*
X849781Y1056065D01*
Y1055409D01*
X850437Y1054753D01*
X851749D01*
X852405Y1054097D01*
Y1053441D01*
X851749Y1052785D01*
X850437D01*
X849781Y1053441D01*
X856341Y1056065D02*
X855685Y1056721D01*
X854373D01*
X853717Y1056065D01*
Y1055409D01*
X854373Y1054753D01*
X855685D01*
X856341Y1054097D01*
Y1053441D01*
X855685Y1052785D01*
X854373D01*
X853717Y1053441D01*
X860276Y1056721D02*
X857653D01*
Y1052785D01*
X860276D01*
X857653Y1054753D02*
X858965D01*
X861588Y1052785D02*
Y1056721D01*
X862900Y1055409D01*
X864212Y1056721D01*
Y1052785D01*
X865524Y1056721D02*
Y1052785D01*
X867492D01*
X868148Y1053441D01*
Y1054097D01*
X867492Y1054753D01*
X865524D01*
X867492D01*
X868148Y1055409D01*
Y1056065D01*
X867492Y1056721D01*
X865524D01*
X869460D02*
Y1052785D01*
X872084D01*
X873396Y1056721D02*
Y1056065D01*
X874708Y1054753D01*
X876019Y1056065D01*
Y1056721D01*
X874708Y1054753D02*
Y1052785D01*
D14*
X829603Y627434D02*
X849485D01*
X829603D02*
Y647119D01*
X849485D01*
Y627434D02*
Y647119D01*
X824681Y779328D02*
X844563D01*
X824681D02*
Y799014D01*
X844563D01*
Y779328D02*
Y799014D01*
X922811Y779230D02*
Y799112D01*
X942496D01*
Y779230D02*
Y799112D01*
X922811Y779230D02*
X942496D01*
X917890Y692729D02*
Y712610D01*
X937575D01*
Y692729D02*
Y712610D01*
X917890Y692729D02*
X937575D01*
X849681Y776033D02*
Y795718D01*
Y776033D02*
X869563D01*
Y795718D01*
X849681D02*
X869563D01*
X897811Y775935D02*
X917496D01*
Y795817D01*
X897811D02*
X917496D01*
X897811Y775935D02*
Y795817D01*
X873796Y796710D02*
X893480D01*
Y816592D01*
X873796D02*
X893480D01*
X873796Y796710D02*
Y816592D01*
Y747623D02*
X893480D01*
Y767505D01*
X873796D02*
X893480D01*
X873796Y747623D02*
Y767505D01*
X829701Y725425D02*
X849386D01*
Y745307D01*
X829701D02*
X849386D01*
X829701Y725425D02*
Y745307D01*
X873796Y719071D02*
X893480D01*
Y738953D01*
X873796D02*
X893480D01*
X873796Y719071D02*
Y738953D01*
Y686375D02*
X893480D01*
Y706256D01*
X873796D02*
X893480D01*
X873796Y686375D02*
Y706256D01*
X829603Y660131D02*
Y679816D01*
Y660131D02*
X849485D01*
Y679816D01*
X829603D02*
X849485D01*
X917890Y725425D02*
X937575D01*
Y745307D01*
X917890D02*
X937575D01*
X917890Y725425D02*
Y745307D01*
X849485Y692827D02*
Y712512D01*
X829603D02*
X849485D01*
X829603Y692827D02*
Y712512D01*
Y692827D02*
X849485D01*
X917890Y627336D02*
X937575D01*
Y647218D01*
X917890D02*
X937575D01*
X917890Y627336D02*
Y647218D01*
X937673Y660131D02*
Y679816D01*
X917792D02*
X937673D01*
X917792Y660131D02*
Y679816D01*
Y660131D02*
X937673D01*
X873796Y653678D02*
X893480D01*
Y673560D01*
X873796D02*
X893480D01*
X873796Y653678D02*
Y673560D01*
Y620982D02*
X893480D01*
Y640864D01*
X873796D02*
X893480D01*
X873796Y620982D02*
Y640864D01*
D163*
X915925Y918831D02*
G03*
X915925Y918831I-1578J0D01*
G01*
D164*
X891639Y1015738D02*
Y1015344D01*
X891442Y1015147D01*
X891246Y1015344D01*
Y1015738D01*
Y1015443D01*
X891639D01*
X885873Y1015235D02*
X885971Y1015137D01*
X886168D01*
X886266Y1015235D01*
Y1015629D01*
X886168Y1015727D01*
X885971D01*
X885873Y1015629D01*
X875637Y1017200D02*
Y1017593D01*
X875834Y1017790D01*
X876031Y1017593D01*
Y1017200D01*
Y1017495D01*
X875637D01*
X881403Y1017702D02*
X881305Y1017801D01*
X881108D01*
X881010Y1017702D01*
Y1017309D01*
X881108Y1017210D01*
X881305D01*
X881403Y1017309D01*
X881403Y1020068D02*
Y1019675D01*
X881206Y1019478D01*
X881009Y1019675D01*
Y1020068D01*
Y1019773D01*
X881403D01*
X875637Y1019566D02*
X875735Y1019468D01*
X875932D01*
X876030Y1019566D01*
Y1019960D01*
X875932Y1020058D01*
X875735D01*
X875637Y1019960D01*
X885873Y1021531D02*
Y1021924D01*
X886070Y1022121D01*
X886267Y1021924D01*
Y1021531D01*
Y1021826D01*
X885873D01*
X891640Y1022033D02*
X891541Y1022132D01*
X891344D01*
X891246Y1022033D01*
Y1021640D01*
X891344Y1021541D01*
X891541D01*
X891640Y1021640D01*
M02*
