G04*
G04 #@! TF.GenerationSoftware,Altium Limited,Altium Designer,21.9.2 (33)*
G04*
G04 Layer_Color=8388736*
%FSLAX25Y25*%
%MOIN*%
G70*
G04*
G04 #@! TF.SameCoordinates,38B2C1F3-0FCD-4184-AA18-E5AB633A714F*
G04*
G04*
G04 #@! TF.FilePolarity,Positive*
G04*
G01*
G75*
%ADD12C,0.00394*%
D12*
X830102Y1056721D02*
Y1052785D01*
X832070D01*
X832726Y1053441D01*
Y1054097D01*
X832070Y1054753D01*
X830102D01*
X832070D01*
X832726Y1055409D01*
Y1056065D01*
X832070Y1056721D01*
X830102D01*
X836006D02*
X834694D01*
X834038Y1056065D01*
Y1053441D01*
X834694Y1052785D01*
X836006D01*
X836662Y1053441D01*
Y1056065D01*
X836006Y1056721D01*
X837974Y1052785D02*
Y1055409D01*
X839286Y1056721D01*
X840598Y1055409D01*
Y1052785D01*
Y1054753D01*
X837974D01*
X841910Y1052785D02*
Y1056721D01*
X843878D01*
X844533Y1056065D01*
Y1054753D01*
X843878Y1054097D01*
X841910D01*
X843221D02*
X844533Y1052785D01*
X845845Y1056721D02*
Y1052785D01*
X847813D01*
X848469Y1053441D01*
Y1056065D01*
X847813Y1056721D01*
X845845D01*
X853717Y1052785D02*
Y1056721D01*
X855685D01*
X856341Y1056065D01*
Y1054753D01*
X855685Y1054097D01*
X853717D01*
X855029D02*
X856341Y1052785D01*
X859620Y1056721D02*
X858309D01*
X857653Y1056065D01*
Y1053441D01*
X858309Y1052785D01*
X859620D01*
X860276Y1053441D01*
Y1056065D01*
X859620Y1056721D01*
X861588D02*
Y1053441D01*
X862244Y1052785D01*
X863556D01*
X864212Y1053441D01*
Y1056721D01*
X865524D02*
X868148D01*
X866836D01*
Y1052785D01*
X872084Y1056721D02*
X869460D01*
Y1052785D01*
X872084D01*
X869460Y1054753D02*
X870772D01*
M02*
