G04*
G04 #@! TF.GenerationSoftware,Altium Limited,Altium Designer,21.9.2 (33)*
G04*
G04 Layer_Color=6750054*
%FSLAX25Y25*%
%MOIN*%
G70*
G04*
G04 #@! TF.SameCoordinates,38B2C1F3-0FCD-4184-AA18-E5AB633A714F*
G04*
G04*
G04 #@! TF.FilePolarity,Positive*
G04*
G01*
G75*
%ADD12C,0.00394*%
%ADD163C,0.00197*%
D12*
X830102Y1056721D02*
Y1052785D01*
X832070D01*
X832726Y1053441D01*
Y1056065D01*
X832070Y1056721D01*
X830102D01*
X834038D02*
X835350D01*
X834694D01*
Y1052785D01*
X834038D01*
X835350D01*
X837318D02*
Y1056721D01*
X838630Y1055409D01*
X839942Y1056721D01*
Y1052785D01*
X843878Y1056721D02*
X841254D01*
Y1052785D01*
X843878D01*
X841254Y1054753D02*
X842566D01*
X845189Y1052785D02*
Y1056721D01*
X847813Y1052785D01*
Y1056721D01*
X851749Y1056065D02*
X851093Y1056721D01*
X849781D01*
X849125Y1056065D01*
Y1055409D01*
X849781Y1054753D01*
X851093D01*
X851749Y1054097D01*
Y1053441D01*
X851093Y1052785D01*
X849781D01*
X849125Y1053441D01*
X853061Y1056721D02*
X854373D01*
X853717D01*
Y1052785D01*
X853061D01*
X854373D01*
X858309Y1056721D02*
X856997D01*
X856341Y1056065D01*
Y1053441D01*
X856997Y1052785D01*
X858309D01*
X858965Y1053441D01*
Y1056065D01*
X858309Y1056721D01*
X860276Y1052785D02*
Y1056721D01*
X862900Y1052785D01*
Y1056721D01*
X866836Y1056065D02*
X866180Y1056721D01*
X864868D01*
X864212Y1056065D01*
Y1055409D01*
X864868Y1054753D01*
X866180D01*
X866836Y1054097D01*
Y1053441D01*
X866180Y1052785D01*
X864868D01*
X864212Y1053441D01*
D163*
X813166Y621193D02*
X813822Y619225D01*
X812509D02*
X813166Y621193D01*
X812509Y608239D02*
X813166Y606270D01*
X813822Y608239D01*
X813166Y613732D02*
Y621193D01*
Y606270D02*
Y613732D01*
X812772Y621193D02*
X835705D01*
X812772Y606270D02*
X883047D01*
X837575Y596915D02*
X839544Y597571D01*
X837575Y598227D02*
X839544Y597571D01*
X819465D02*
X821433Y598227D01*
X819465Y597571D02*
X821433Y596915D01*
X834752Y597571D02*
X839544D01*
X819465D02*
X823075D01*
X839544Y597178D02*
Y617355D01*
X819465Y597178D02*
Y622493D01*
X860016Y594028D02*
X861985Y594684D01*
X860016Y594028D02*
X861985Y593372D01*
X905292D02*
X907260Y594028D01*
X905292Y594684D02*
X907260Y594028D01*
X860016D02*
X876225D01*
X889870D02*
X907260D01*
X860016Y593634D02*
Y737335D01*
X907260Y593634D02*
Y737335D01*
X839544Y594028D02*
X841512Y594684D01*
X839544Y594028D02*
X841512Y593372D01*
X858047D02*
X860016Y594028D01*
X858047Y594684D02*
X860016Y594028D01*
X839544D02*
X843187D01*
X855191D02*
X860016D01*
X839544Y593634D02*
Y617355D01*
X860016Y593634D02*
Y737335D01*
X839544Y597571D02*
X841512Y598227D01*
X839544Y597571D02*
X841512Y596915D01*
X925764D02*
X927732Y597571D01*
X925764Y598227D02*
X927732Y597571D01*
X839544D02*
X876061D01*
X890034D02*
X927732D01*
X839544Y597178D02*
Y617355D01*
X927732Y597178D02*
Y617355D01*
X808572Y623162D02*
X809229Y621193D01*
X809885Y623162D01*
X809229Y747965D02*
X809885Y745996D01*
X808572D02*
X809229Y747965D01*
Y621193D02*
Y677002D01*
Y690975D02*
Y747965D01*
X808835Y621193D02*
X835705D01*
X808835Y747965D02*
X849386D01*
X812509Y623162D02*
X813166Y621193D01*
X813822Y623162D01*
X813166Y1008201D02*
X813822Y1006233D01*
X812509D02*
X813166Y1008201D01*
Y621193D02*
Y807121D01*
Y821093D02*
Y1008201D01*
X812772Y621193D02*
X835705D01*
X812772Y1008201D02*
X835705D01*
X819465Y600721D02*
X821433Y601377D01*
X819465Y600721D02*
X821433Y600065D01*
X945843D02*
X947811Y600721D01*
X945843Y601377D02*
X947811Y600721D01*
X819465D02*
X876061D01*
X890034D02*
X947811D01*
X819465Y600327D02*
Y622493D01*
X947811Y600327D02*
Y622493D01*
X816315Y1023342D02*
X816971Y1021373D01*
X815659D02*
X816315Y1023342D01*
X815659Y608239D02*
X816315Y606270D01*
X816971Y608239D01*
X816315Y822022D02*
Y1023342D01*
Y606270D02*
Y806409D01*
X815921Y1023342D02*
X883047D01*
X815921Y606270D02*
X883047D01*
X812510Y593831D02*
X812182Y594159D01*
Y594815D01*
X812510Y595143D01*
X812838D01*
X813166Y594815D01*
Y594487D01*
Y594815D01*
X813494Y595143D01*
X813822D01*
X814150Y594815D01*
Y594159D01*
X813822Y593831D01*
X814150Y595799D02*
X813822D01*
Y596127D01*
X814150D01*
Y595799D01*
X812182Y597439D02*
Y598751D01*
X812510D01*
X813822Y597439D01*
X814150D01*
X813822Y599407D02*
X814150Y599735D01*
Y600390D01*
X813822Y600718D01*
X812510D01*
X812182Y600390D01*
Y599735D01*
X812510Y599407D01*
X812838D01*
X813166Y599735D01*
Y600718D01*
X814150Y601374D02*
X812838D01*
Y601702D01*
X813166Y602030D01*
X814150D01*
X813166D01*
X812838Y602358D01*
X813166Y602686D01*
X814150D01*
Y603342D02*
X812838D01*
Y603670D01*
X813166Y603998D01*
X814150D01*
X813166D01*
X812838Y604326D01*
X813166Y604654D01*
X814150D01*
X824978Y598358D02*
X823666D01*
Y597374D01*
X824322Y597702D01*
X824650D01*
X824978Y597374D01*
Y596718D01*
X824650Y596390D01*
X823994D01*
X823666Y596718D01*
X825634Y596390D02*
Y596718D01*
X825962D01*
Y596390D01*
X825634D01*
X827274D02*
X827930D01*
X827602D01*
Y598358D01*
X827274Y598030D01*
X828914D02*
X829242Y598358D01*
X829898D01*
X830225Y598030D01*
Y596718D01*
X829898Y596390D01*
X829242D01*
X828914Y596718D01*
Y598030D01*
X830882Y596390D02*
Y597702D01*
X831209D01*
X831537Y597374D01*
Y596390D01*
Y597374D01*
X831865Y597702D01*
X832193Y597374D01*
Y596390D01*
X832849D02*
Y597702D01*
X833177D01*
X833505Y597374D01*
Y596390D01*
Y597374D01*
X833833Y597702D01*
X834161Y597374D01*
Y596390D01*
X876816Y592847D02*
X877472D01*
X877144D01*
Y594815D01*
X876816Y594487D01*
X879768Y592847D02*
X878456D01*
X879768Y594159D01*
Y594487D01*
X879440Y594815D01*
X878784D01*
X878456Y594487D01*
X880424Y592847D02*
Y593175D01*
X880752D01*
Y592847D01*
X880424D01*
X882064Y594487D02*
X882391Y594815D01*
X883047D01*
X883375Y594487D01*
Y593175D01*
X883047Y592847D01*
X882391D01*
X882064Y593175D01*
Y594487D01*
X884031D02*
X884359Y594815D01*
X885015D01*
X885343Y594487D01*
Y593175D01*
X885015Y592847D01*
X884359D01*
X884031Y593175D01*
Y594487D01*
X885999Y592847D02*
Y594159D01*
X886327D01*
X886655Y593831D01*
Y592847D01*
Y593831D01*
X886983Y594159D01*
X887311Y593831D01*
Y592847D01*
X887967D02*
Y594159D01*
X888295D01*
X888623Y593831D01*
Y592847D01*
Y593831D01*
X888951Y594159D01*
X889279Y593831D01*
Y592847D01*
X845090Y594815D02*
X843778D01*
Y593831D01*
X844433Y594159D01*
X844761D01*
X845090Y593831D01*
Y593175D01*
X844761Y592847D01*
X844106D01*
X843778Y593175D01*
X845745Y592847D02*
Y593175D01*
X846073D01*
Y592847D01*
X845745D01*
X848697D02*
X847385D01*
X848697Y594159D01*
Y594487D01*
X848369Y594815D01*
X847713D01*
X847385Y594487D01*
X849353D02*
X849681Y594815D01*
X850337D01*
X850665Y594487D01*
Y593175D01*
X850337Y592847D01*
X849681D01*
X849353Y593175D01*
Y594487D01*
X851321Y592847D02*
Y594159D01*
X851649D01*
X851977Y593831D01*
Y592847D01*
Y593831D01*
X852305Y594159D01*
X852633Y593831D01*
Y592847D01*
X853289D02*
Y594159D01*
X853617D01*
X853945Y593831D01*
Y592847D01*
Y593831D01*
X854273Y594159D01*
X854601Y593831D01*
Y592847D01*
X877964Y596390D02*
X876652D01*
X877964Y597702D01*
Y598030D01*
X877636Y598358D01*
X876980D01*
X876652Y598030D01*
X879932Y596390D02*
X878620D01*
X879932Y597702D01*
Y598030D01*
X879604Y598358D01*
X878948D01*
X878620Y598030D01*
X880588Y596390D02*
Y596718D01*
X880916D01*
Y596390D01*
X880588D01*
X883212D02*
Y598358D01*
X882228Y597374D01*
X883539D01*
X884195Y598030D02*
X884523Y598358D01*
X885179D01*
X885507Y598030D01*
Y596718D01*
X885179Y596390D01*
X884523D01*
X884195Y596718D01*
Y598030D01*
X886163Y596390D02*
Y597702D01*
X886491D01*
X886819Y597374D01*
Y596390D01*
Y597374D01*
X887147Y597702D01*
X887475Y597374D01*
Y596390D01*
X888131D02*
Y597702D01*
X888459D01*
X888787Y597374D01*
Y596390D01*
Y597374D01*
X889115Y597702D01*
X889443Y597374D01*
Y596390D01*
X808769Y677593D02*
X808442Y677921D01*
Y678577D01*
X808769Y678905D01*
X809097D01*
X809425Y678577D01*
Y678249D01*
Y678577D01*
X809753Y678905D01*
X810081D01*
X810409Y678577D01*
Y677921D01*
X810081Y677593D01*
X810409Y680873D02*
Y679561D01*
X809097Y680873D01*
X808769D01*
X808442Y680545D01*
Y679889D01*
X808769Y679561D01*
X810409Y681529D02*
X810081D01*
Y681857D01*
X810409D01*
Y681529D01*
Y684480D02*
Y683169D01*
X809097Y684480D01*
X808769D01*
X808442Y684153D01*
Y683497D01*
X808769Y683169D01*
Y685136D02*
X808442Y685464D01*
Y686120D01*
X808769Y686448D01*
X810081D01*
X810409Y686120D01*
Y685464D01*
X810081Y685136D01*
X808769D01*
X810409Y687104D02*
X809097D01*
Y687432D01*
X809425Y687760D01*
X810409D01*
X809425D01*
X809097Y688088D01*
X809425Y688416D01*
X810409D01*
Y689072D02*
X809097D01*
Y689400D01*
X809425Y689728D01*
X810409D01*
X809425D01*
X809097Y690056D01*
X809425Y690384D01*
X810409D01*
X814018Y807711D02*
X814346Y808039D01*
Y808695D01*
X814018Y809023D01*
X812706D01*
X812379Y808695D01*
Y808039D01*
X812706Y807711D01*
X813034D01*
X813362Y808039D01*
Y809023D01*
X812706Y809679D02*
X812379Y810007D01*
Y810663D01*
X812706Y810991D01*
X813034D01*
X813362Y810663D01*
X813690Y810991D01*
X814018D01*
X814346Y810663D01*
Y810007D01*
X814018Y809679D01*
X813690D01*
X813362Y810007D01*
X813034Y809679D01*
X812706D01*
X813362Y810007D02*
Y810663D01*
X814346Y811647D02*
X814018D01*
Y811975D01*
X814346D01*
Y811647D01*
X812706Y813287D02*
X812379Y813615D01*
Y814271D01*
X812706Y814599D01*
X813034D01*
X813362Y814271D01*
Y813943D01*
Y814271D01*
X813690Y814599D01*
X814018D01*
X814346Y814271D01*
Y813615D01*
X814018Y813287D01*
X812706Y815254D02*
X812379Y815582D01*
Y816238D01*
X812706Y816566D01*
X814018D01*
X814346Y816238D01*
Y815582D01*
X814018Y815254D01*
X812706D01*
X814346Y817222D02*
X813034D01*
Y817550D01*
X813362Y817878D01*
X814346D01*
X813362D01*
X813034Y818206D01*
X813362Y818534D01*
X814346D01*
Y819190D02*
X813034D01*
Y819518D01*
X813362Y819846D01*
X814346D01*
X813362D01*
X813034Y820174D01*
X813362Y820502D01*
X814346D01*
X876652Y601180D02*
X876980Y601508D01*
X877636D01*
X877964Y601180D01*
Y600852D01*
X877636Y600524D01*
X877308D01*
X877636D01*
X877964Y600196D01*
Y599868D01*
X877636Y599540D01*
X876980D01*
X876652Y599868D01*
X879932Y599540D02*
X878620D01*
X879932Y600852D01*
Y601180D01*
X879604Y601508D01*
X878948D01*
X878620Y601180D01*
X880588Y599540D02*
Y599868D01*
X880916D01*
Y599540D01*
X880588D01*
X883539Y601508D02*
X882883Y601180D01*
X882228Y600524D01*
Y599868D01*
X882555Y599540D01*
X883212D01*
X883539Y599868D01*
Y600196D01*
X883212Y600524D01*
X882228D01*
X884195Y601180D02*
X884523Y601508D01*
X885179D01*
X885507Y601180D01*
Y599868D01*
X885179Y599540D01*
X884523D01*
X884195Y599868D01*
Y601180D01*
X886163Y599540D02*
Y600852D01*
X886491D01*
X886819Y600524D01*
Y599540D01*
Y600524D01*
X887147Y600852D01*
X887475Y600524D01*
Y599540D01*
X888131D02*
Y600852D01*
X888459D01*
X888787Y600524D01*
Y599540D01*
Y600524D01*
X889115Y600852D01*
X889443Y600524D01*
Y599540D01*
X817496Y807000D02*
Y807656D01*
Y807328D01*
X815528D01*
X815856Y807000D01*
Y808640D02*
X815528Y808968D01*
Y809624D01*
X815856Y809952D01*
X817168D01*
X817496Y809624D01*
Y808968D01*
X817168Y808640D01*
X815856D01*
X815528Y811920D02*
Y810608D01*
X816512D01*
X816184Y811264D01*
Y811592D01*
X816512Y811920D01*
X817168D01*
X817496Y811592D01*
Y810936D01*
X817168Y810608D01*
X817496Y812576D02*
X817168D01*
Y812904D01*
X817496D01*
Y812576D01*
X817168Y814215D02*
X817496Y814544D01*
Y815199D01*
X817168Y815528D01*
X815856D01*
X815528Y815199D01*
Y814544D01*
X815856Y814215D01*
X816184D01*
X816512Y814544D01*
Y815528D01*
X817496Y817167D02*
X815528D01*
X816512Y816183D01*
Y817495D01*
X817496Y818151D02*
X816184D01*
Y818479D01*
X816512Y818807D01*
X817496D01*
X816512D01*
X816184Y819135D01*
X816512Y819463D01*
X817496D01*
Y820119D02*
X816184D01*
Y820447D01*
X816512Y820775D01*
X817496D01*
X816512D01*
X816184Y821103D01*
X816512Y821431D01*
X817496D01*
M02*
