G04*
G04 #@! TF.GenerationSoftware,Altium Limited,Altium Designer,21.9.2 (33)*
G04*
G04 Layer_Physical_Order=3*
G04 Layer_Color=16440176*
%FSLAX25Y25*%
%MOIN*%
G70*
G04*
G04 #@! TF.SameCoordinates,38B2C1F3-0FCD-4184-AA18-E5AB633A714F*
G04*
G04*
G04 #@! TF.FilePolarity,Positive*
G04*
G01*
G75*
%ADD12C,0.00394*%
%ADD40C,0.01772*%
G36*
X893958Y1022372D02*
X900832Y1022038D01*
X907695Y1021538D01*
X910394Y1021275D01*
X910394Y1020202D01*
X910395Y1020199D01*
X910394Y1020195D01*
X910395Y1020136D01*
X910397Y1020127D01*
X910395Y1020118D01*
X910398Y1020040D01*
X910400Y1020029D01*
X910399Y1020017D01*
X910405Y1019920D01*
X910408Y1019910D01*
X910406Y1019900D01*
X910411Y1019849D01*
X910413Y1019842D01*
X910412Y1019835D01*
X910417Y1019783D01*
X910430Y1019744D01*
X910430Y1019703D01*
X910540Y1019173D01*
X910582Y1019075D01*
X910611Y1018972D01*
X911078Y1018058D01*
X911164Y1017949D01*
X911246Y1017836D01*
X911997Y1017137D01*
X912116Y1017064D01*
X912231Y1016985D01*
X913176Y1016585D01*
X913279Y1016564D01*
X913378Y1016529D01*
X913888Y1016458D01*
X913928Y1016461D01*
X913966Y1016451D01*
X914023Y1016449D01*
X914032Y1016450D01*
X914040Y1016448D01*
X914116Y1016447D01*
X914124Y1016448D01*
X914133Y1016447D01*
X914183Y1016447D01*
X914191Y1016448D01*
X914198Y1016447D01*
X914262Y1016448D01*
X914270Y1016450D01*
X914279Y1016449D01*
X914342Y1016452D01*
X914351Y1016454D01*
X914359Y1016453D01*
X914422Y1016457D01*
X914460Y1016467D01*
X914499Y1016465D01*
X914995Y1016545D01*
X915087Y1016580D01*
X915183Y1016600D01*
X916045Y1016969D01*
X916150Y1017041D01*
X916260Y1017105D01*
X916324Y1017162D01*
X916444Y1017182D01*
X917298Y1017548D01*
X917997Y1018161D01*
X918279Y1018637D01*
X918365Y1018627D01*
X918503Y1018610D01*
X918663Y1018591D01*
X918863Y1018567D01*
X919058Y1018544D01*
X919245Y1018521D01*
X919429Y1018499D01*
X919607Y1018477D01*
X919781Y1018456D01*
X919781Y1018456D01*
X919951Y1018434D01*
X920117Y1018414D01*
X920278Y1018394D01*
X920436Y1018374D01*
X920589Y1018354D01*
X920738Y1018335D01*
X920883Y1018317D01*
X921028Y1018298D01*
X921028D01*
X921168Y1018280D01*
X921168Y1018280D01*
X921305Y1018262D01*
X921305D01*
X921441Y1018245D01*
X921441Y1018245D01*
X921573Y1018228D01*
X921701Y1018211D01*
X921829Y1018194D01*
X921953Y1018178D01*
X922079Y1018161D01*
X922319Y1018129D01*
X922521Y1018102D01*
X922521Y1018102D01*
X922714Y1018075D01*
X922898Y1018050D01*
X923073Y1018026D01*
X923243Y1018003D01*
X923243D01*
X923403Y1017980D01*
X923561Y1017958D01*
X923710Y1017937D01*
X923856Y1017917D01*
X923998Y1017897D01*
X924136Y1017877D01*
X924269Y1017858D01*
X924400Y1017839D01*
X924400D01*
X924526Y1017821D01*
X924648Y1017803D01*
X924767Y1017786D01*
X924767Y1017786D01*
X924882Y1017769D01*
X924994Y1017752D01*
X925105Y1017736D01*
X925211Y1017720D01*
X925318Y1017704D01*
X925519Y1017674D01*
X925675Y1017651D01*
X925829Y1017627D01*
X925987Y1017603D01*
X926142Y1017579D01*
X926142Y1017579D01*
X926297Y1017555D01*
X926454Y1017531D01*
X926608Y1017506D01*
X926763Y1017482D01*
X926763D01*
X926918Y1017457D01*
X926918Y1017457D01*
X927072Y1017433D01*
X927226Y1017408D01*
X927226D01*
X927380Y1017383D01*
X927380Y1017383D01*
X927535Y1017358D01*
X927535D01*
X927690Y1017333D01*
X927843Y1017307D01*
X927999Y1017282D01*
X928158Y1017255D01*
X928158Y1017255D01*
X928304Y1017231D01*
X928304D01*
X928405Y1017214D01*
X928405Y1017214D01*
X928510Y1017196D01*
X928612Y1017178D01*
X928613Y1017178D01*
X928719Y1017160D01*
X928823Y1017142D01*
X928930Y1017124D01*
X929038Y1017105D01*
X929149Y1017086D01*
X929260Y1017066D01*
X929371Y1017047D01*
X929485Y1017027D01*
X929600Y1017006D01*
X929600Y1017006D01*
X929716Y1016985D01*
X929717Y1016985D01*
X929838Y1016963D01*
X929961Y1016941D01*
X929961D01*
X930087Y1016918D01*
X930215Y1016895D01*
X930215Y1016895D01*
X930348Y1016870D01*
X930348D01*
X930486Y1016845D01*
X930630Y1016818D01*
X930757Y1016794D01*
X930851Y1016777D01*
X930944Y1016759D01*
X931040Y1016741D01*
X931135Y1016723D01*
X931231Y1016704D01*
X931330Y1016685D01*
X931330D01*
X931428Y1016666D01*
X931527Y1016647D01*
X931626Y1016628D01*
X931727Y1016608D01*
X931829Y1016588D01*
X931829Y1016588D01*
X931933Y1016567D01*
X932037Y1016546D01*
X932141Y1016525D01*
X932248Y1016504D01*
X932248D01*
X932355Y1016482D01*
X932466Y1016459D01*
X932466D01*
X932579Y1016436D01*
X932692Y1016413D01*
X932813Y1016387D01*
X932954Y1016358D01*
X933048Y1016338D01*
X933142Y1016318D01*
X933234Y1016299D01*
X933327Y1016279D01*
X933419Y1016259D01*
X933511Y1016239D01*
X933602Y1016220D01*
X933692Y1016200D01*
X933782Y1016180D01*
X933782Y1016180D01*
X933872Y1016160D01*
X933963Y1016140D01*
X934054Y1016120D01*
X934145Y1016100D01*
X934235Y1016079D01*
X934235D01*
X934323Y1016059D01*
X934412Y1016039D01*
X934501Y1016019D01*
X934589Y1015999D01*
X934676Y1015979D01*
X934676Y1015979D01*
X934765Y1015958D01*
X934883Y1015930D01*
X934981Y1015907D01*
X934981D01*
X935076Y1015885D01*
X935172Y1015862D01*
X935266Y1015840D01*
X935358Y1015818D01*
X935452Y1015795D01*
X935452D01*
X935542Y1015773D01*
X935635Y1015750D01*
X935724Y1015728D01*
X935724Y1015728D01*
X935815Y1015706D01*
X935904Y1015683D01*
X935994Y1015661D01*
X936082Y1015639D01*
X936171Y1015616D01*
X936257Y1015594D01*
X936341Y1015573D01*
X936341Y1015573D01*
X936427Y1015551D01*
X936513Y1015528D01*
X936513D01*
X936638Y1015496D01*
X936735Y1015471D01*
X936831Y1015445D01*
X936924Y1015420D01*
X937018Y1015395D01*
X937111Y1015370D01*
X937111D01*
X937201Y1015346D01*
X937293Y1015320D01*
X937383Y1015296D01*
X937471Y1015271D01*
X937559Y1015247D01*
X937645Y1015223D01*
X937730Y1015199D01*
X937817Y1015174D01*
X937900Y1015151D01*
X937981Y1015127D01*
X937981Y1015127D01*
X938066Y1015103D01*
X938171Y1015072D01*
X938245Y1015051D01*
X938319Y1015029D01*
X938393Y1015007D01*
X938468Y1014985D01*
X938540Y1014963D01*
X938612Y1014942D01*
X938685Y1014919D01*
X938756Y1014898D01*
X938826Y1014876D01*
X938897Y1014855D01*
X938965Y1014834D01*
X939034Y1014812D01*
X939100Y1014791D01*
X939169Y1014770D01*
X939236Y1014749D01*
X939302Y1014728D01*
X939302Y1014728D01*
X939367Y1014707D01*
X939367Y1014707D01*
X939433Y1014686D01*
X939518Y1014659D01*
X939570Y1014642D01*
X939624Y1014624D01*
X939679Y1014606D01*
X939732Y1014588D01*
X939788Y1014570D01*
X939842Y1014552D01*
X939842Y1014552D01*
X939899Y1014533D01*
X939955Y1014514D01*
X939955D01*
X940012Y1014495D01*
X940068Y1014476D01*
X940127Y1014456D01*
X940186Y1014436D01*
X940246Y1014415D01*
X940307Y1014394D01*
X940371Y1014372D01*
X940371D01*
X940433Y1014350D01*
X940498Y1014327D01*
X940565Y1014303D01*
X940633Y1014279D01*
X940704Y1014253D01*
X940782Y1014225D01*
X940861Y1014196D01*
X940941Y1014167D01*
X941024Y1014136D01*
X941107Y1014105D01*
X941189Y1014074D01*
X941277Y1014041D01*
X941364Y1014007D01*
X941455Y1013972D01*
X941547Y1013936D01*
X941644Y1013898D01*
X941695Y1013877D01*
X941763Y1013850D01*
X941810Y1013831D01*
X941859Y1013811D01*
X941909Y1013791D01*
X941961Y1013769D01*
X942015Y1013747D01*
X942068Y1013725D01*
X942122Y1013702D01*
X942181Y1013677D01*
X942238Y1013653D01*
X942298Y1013627D01*
X942362Y1013599D01*
X942427Y1013571D01*
X942496Y1013541D01*
X942570Y1013508D01*
X942648Y1013473D01*
X942700Y1013449D01*
X942776Y1013415D01*
X942853Y1013380D01*
X942927Y1013346D01*
X942927Y1013346D01*
X943382Y1013133D01*
X944223Y1012584D01*
X944978Y1011922D01*
X945632Y1011160D01*
X946171Y1010313D01*
X946585Y1009398D01*
X946867Y1008434D01*
X947009Y1007439D01*
X947009Y1006937D01*
X947009Y623084D01*
X947009Y622581D01*
X946867Y621587D01*
X946585Y620622D01*
X946171Y619707D01*
X945631Y618860D01*
X944977Y618098D01*
X944221Y617436D01*
X943380Y616887D01*
X942925Y616675D01*
X942925Y616675D01*
X942865Y616647D01*
X942770Y616603D01*
X942682Y616563D01*
X942590Y616522D01*
X942500Y616482D01*
X942409Y616443D01*
X942319Y616404D01*
X942231Y616366D01*
X942142Y616329D01*
X942047Y616289D01*
X941958Y616252D01*
X941875Y616218D01*
X941800Y616188D01*
X941730Y616160D01*
X941663Y616134D01*
X941663Y616134D01*
X941600Y616109D01*
X941540Y616085D01*
X941484Y616063D01*
X941428Y616042D01*
X941376Y616021D01*
X941325Y616002D01*
X941277Y615984D01*
X941277D01*
X941191Y615951D01*
X941122Y615925D01*
X941059Y615902D01*
X941001Y615880D01*
X940945Y615860D01*
X940945D01*
X940892Y615841D01*
X940842Y615822D01*
X940746Y615788D01*
X940659Y615757D01*
X940575Y615727D01*
X940498Y615699D01*
X940421Y615672D01*
X940348Y615647D01*
X940348D01*
X940273Y615621D01*
X940181Y615590D01*
X940102Y615562D01*
X940102D01*
X940029Y615538D01*
X939964Y615516D01*
X939901Y615495D01*
X939843Y615476D01*
X939787Y615457D01*
X939733Y615439D01*
X939683Y615423D01*
X939633Y615407D01*
X939633D01*
X939536Y615375D01*
X939444Y615345D01*
X939355Y615317D01*
X939281Y615294D01*
X939188Y615264D01*
X939097Y615236D01*
X939010Y615208D01*
X938924Y615182D01*
X938924D01*
X938838Y615155D01*
X938757Y615131D01*
X938675Y615106D01*
X938593Y615081D01*
X938513Y615057D01*
X938433Y615033D01*
X938356Y615010D01*
X938278Y614988D01*
X938200Y614965D01*
X938122Y614942D01*
X938069Y614927D01*
X938008Y614909D01*
X937944Y614891D01*
X937943Y614891D01*
X937877Y614872D01*
X937877D01*
X937803Y614851D01*
X937726Y614829D01*
X937641Y614805D01*
X937548Y614779D01*
X937446Y614751D01*
X937327Y614718D01*
X937189Y614680D01*
X937016Y614634D01*
X936762Y614566D01*
X936684Y614545D01*
X936621Y614529D01*
X936558Y614512D01*
X936492Y614495D01*
X936426Y614478D01*
X936356Y614460D01*
X936285Y614442D01*
X936210Y614423D01*
X936133Y614403D01*
X936054Y614383D01*
X935973Y614363D01*
X935888Y614342D01*
X935797Y614319D01*
X935703Y614296D01*
X935606Y614272D01*
X935501Y614246D01*
X935391Y614220D01*
X935272Y614191D01*
X935148Y614162D01*
X935064Y614142D01*
X934980Y614122D01*
X934895Y614102D01*
X934895Y614102D01*
X934812Y614082D01*
X934812D01*
X934726Y614063D01*
X934641Y614043D01*
X934641Y614043D01*
X934557Y614024D01*
X934557D01*
X934471Y614004D01*
X934386Y613984D01*
X934299Y613965D01*
X934213Y613945D01*
X934127Y613926D01*
X934040Y613907D01*
X933953Y613887D01*
X933865Y613868D01*
X933778Y613849D01*
X933689Y613829D01*
X933580Y613806D01*
X933580Y613806D01*
X933484Y613785D01*
X933388Y613764D01*
X933388D01*
X933290Y613743D01*
X933192Y613722D01*
X933094Y613701D01*
X933094Y613701D01*
X932998Y613681D01*
X932902Y613661D01*
X932902D01*
X932805Y613641D01*
X932707Y613620D01*
X932707Y613620D01*
X932610Y613600D01*
X932512Y613580D01*
X932413Y613560D01*
X932315Y613540D01*
X932215Y613520D01*
X932117Y613500D01*
X932015Y613480D01*
X932015Y613480D01*
X931890Y613455D01*
X931776Y613432D01*
X931664Y613410D01*
X931555Y613389D01*
X931446Y613368D01*
X931446Y613368D01*
X931340Y613347D01*
X931340D01*
X931235Y613327D01*
X931131Y613307D01*
X931027Y613287D01*
X930926Y613268D01*
X930926Y613268D01*
X930827Y613249D01*
X930827D01*
X930728Y613231D01*
X930631Y613212D01*
X930534Y613194D01*
X930438Y613176D01*
X930344Y613159D01*
X930247Y613141D01*
X930074Y613110D01*
X929949Y613087D01*
X929825Y613064D01*
X929704Y613043D01*
X929585Y613022D01*
X929467Y613001D01*
X929352Y612980D01*
X929236Y612960D01*
X929123Y612940D01*
X929010Y612921D01*
X928900Y612901D01*
X928791Y612883D01*
X928791D01*
X928683Y612864D01*
X928683Y612864D01*
X928577Y612846D01*
X928577D01*
X928470Y612828D01*
X928362Y612810D01*
X928166Y612777D01*
X928008Y612750D01*
X927855Y612725D01*
X927705Y612700D01*
X927557Y612676D01*
X927412Y612652D01*
X927270Y612629D01*
X927132Y612607D01*
X927132D01*
X926993Y612585D01*
X926858Y612563D01*
X926858D01*
X926724Y612542D01*
X926724Y612542D01*
X926594Y612521D01*
X926464Y612501D01*
X926332Y612480D01*
X926236Y612465D01*
X926088Y612443D01*
X926088Y612443D01*
X925943Y612420D01*
X925943D01*
X925798Y612398D01*
X925655Y612377D01*
X925655Y612376D01*
X925515Y612355D01*
X925372Y612334D01*
X925231Y612313D01*
X925092Y612292D01*
X925092D01*
X924951Y612271D01*
X924813Y612251D01*
X924676Y612231D01*
X924537Y612211D01*
X924537Y612211D01*
X924401Y612191D01*
X924401D01*
X924264Y612171D01*
X924126Y612151D01*
X924126Y612151D01*
X924011Y612135D01*
X923829Y612109D01*
X923657Y612085D01*
X923657D01*
X923487Y612061D01*
X923323Y612038D01*
X923164Y612016D01*
X923164D01*
X923008Y611994D01*
X922855Y611973D01*
X922855Y611973D01*
X922705Y611953D01*
X922705D01*
X922558Y611933D01*
X922413Y611913D01*
X922270Y611894D01*
X922128Y611875D01*
X921989Y611857D01*
X921989D01*
X921850Y611838D01*
X921711Y611820D01*
X921648Y611812D01*
X921533Y611797D01*
X921415Y611781D01*
X921292Y611765D01*
X921292D01*
X921163Y611748D01*
X921028Y611731D01*
X921028Y611731D01*
X920888Y611713D01*
X920741Y611694D01*
X920585Y611674D01*
X920419Y611653D01*
X920419D01*
X920240Y611631D01*
X920050Y611607D01*
X919844Y611582D01*
X919844D01*
X919616Y611553D01*
X919616Y611553D01*
X919361Y611522D01*
X919062Y611486D01*
X918949Y611472D01*
X918816Y611456D01*
X918678Y611440D01*
X918534Y611422D01*
X918380Y611404D01*
X918221Y611385D01*
X918051Y611365D01*
X918051D01*
X917868Y611344D01*
X917674Y611321D01*
X917461Y611297D01*
X917227Y611270D01*
X916959Y611239D01*
X916959Y611239D01*
X916646Y611204D01*
X916646D01*
X916244Y611159D01*
X916244Y611159D01*
X916159Y611149D01*
X916053Y611137D01*
X915943Y611125D01*
X915829Y611113D01*
X915829D01*
X915710Y611100D01*
X915587Y611086D01*
X915460Y611072D01*
X915325Y611058D01*
X915184Y611043D01*
X915035Y611026D01*
X914876Y611009D01*
X914876Y611009D01*
X914707Y610991D01*
X914520Y610971D01*
X914314Y610950D01*
X914076Y610925D01*
X914076Y610925D01*
X913789Y610895D01*
X913789D01*
X913379Y610852D01*
X913283Y610842D01*
X913049Y610818D01*
X912838Y610797D01*
X912643Y610777D01*
X912460Y610759D01*
X912289Y610742D01*
X912128Y610726D01*
X911977Y610710D01*
X911832Y610696D01*
X911727Y610686D01*
X911621Y610950D01*
X911563Y611040D01*
X911517Y611136D01*
X910899Y611955D01*
X910795Y612048D01*
X910695Y612145D01*
X909834Y612704D01*
X909705Y612756D01*
X909578Y612813D01*
X908578Y613043D01*
X908473Y613047D01*
X908369Y613063D01*
X908112Y613311D01*
X908112Y624116D01*
X908490Y624272D01*
X908905Y624688D01*
X909130Y625230D01*
Y625818D01*
X908905Y626360D01*
X908490Y626776D01*
X908112Y626932D01*
X908112Y630184D01*
X907260Y631036D01*
X903426D01*
Y632217D01*
X903331Y632936D01*
X903053Y633607D01*
X902611Y634182D01*
X902036Y634624D01*
X901365Y634902D01*
X900646Y634997D01*
X899926Y634902D01*
X899256Y634624D01*
X898680Y634182D01*
X898239Y633607D01*
X897961Y632936D01*
X897866Y632217D01*
Y631036D01*
X896105D01*
X894894Y632247D01*
X895085Y632763D01*
X895498Y632934D01*
X895913Y633349D01*
X896138Y633892D01*
Y634479D01*
X895913Y635022D01*
X895498Y635437D01*
X894955Y635662D01*
X894368D01*
X893825Y635437D01*
X893410Y635022D01*
X893239Y634609D01*
X892846Y634463D01*
X892685Y634456D01*
X890270Y636871D01*
X888553Y638588D01*
X888827Y638861D01*
X889051Y639403D01*
Y639991D01*
X888827Y640533D01*
X888686Y640674D01*
X888853Y641174D01*
X889396Y641398D01*
X889811Y641814D01*
X890036Y642356D01*
Y642944D01*
X889811Y643486D01*
X889396Y643901D01*
X888853Y644126D01*
X888266D01*
X887723Y643901D01*
X887308Y643486D01*
X887083Y642944D01*
Y642356D01*
X887308Y641814D01*
X887448Y641674D01*
X887281Y641174D01*
X886739Y640949D01*
X886465Y640675D01*
X878126Y649015D01*
Y652770D01*
X878618Y652789D01*
X878843Y652247D01*
X879258Y651831D01*
X879801Y651607D01*
X880388D01*
X880931Y651831D01*
X881346Y652247D01*
X881571Y652789D01*
Y653377D01*
X881346Y653919D01*
X880931Y654335D01*
X880388Y654559D01*
X879801D01*
X879258Y654335D01*
X878843Y653919D01*
X878618Y653377D01*
X878126Y653396D01*
Y658282D01*
X878618Y658301D01*
X878843Y657759D01*
X879258Y657343D01*
X879801Y657118D01*
X880388D01*
X880931Y657343D01*
X881346Y657759D01*
X881571Y658301D01*
Y658888D01*
X881346Y659431D01*
X880931Y659846D01*
X880388Y660071D01*
X879801D01*
X879258Y659846D01*
X878843Y659431D01*
X878618Y658888D01*
X878126Y658907D01*
Y660201D01*
X878226Y660268D01*
X878814D01*
X879356Y660493D01*
X879772Y660908D01*
X879996Y661451D01*
Y662038D01*
X879772Y662581D01*
X879356Y662996D01*
X878814Y663221D01*
X878226D01*
X878126Y663288D01*
Y680647D01*
X867107Y691666D01*
X841118Y691666D01*
X836000Y696784D01*
Y711491D01*
X836443Y711674D01*
X836858Y712089D01*
X837083Y712632D01*
Y713219D01*
X836858Y713762D01*
X836443Y714177D01*
X836000Y714360D01*
Y781704D01*
X836071Y781774D01*
X836296Y782317D01*
Y782904D01*
X836071Y783447D01*
X836000Y783517D01*
Y798752D01*
X827732D01*
Y816075D01*
X820268D01*
Y1006937D01*
X820268Y1007439D01*
X820409Y1008434D01*
X820690Y1009398D01*
X821105Y1010312D01*
X821644Y1011159D01*
X822298Y1011922D01*
X823053Y1012584D01*
X823894Y1013133D01*
X824349Y1013345D01*
X824415Y1013376D01*
X824500Y1013415D01*
X824585Y1013454D01*
X824674Y1013494D01*
X824760Y1013532D01*
X824852Y1013573D01*
X824913Y1013599D01*
X824971Y1013624D01*
X825029Y1013649D01*
X825084Y1013672D01*
X825141Y1013697D01*
X825194Y1013719D01*
X825249Y1013742D01*
X825300Y1013763D01*
X825352Y1013784D01*
X825404Y1013806D01*
X825453Y1013826D01*
X825506Y1013847D01*
X825555Y1013867D01*
X825603Y1013886D01*
X825703Y1013926D01*
X825799Y1013964D01*
X825861Y1013987D01*
X825955Y1014024D01*
X826047Y1014059D01*
X826136Y1014093D01*
X826226Y1014126D01*
X826316Y1014160D01*
X826402Y1014192D01*
X826489Y1014223D01*
X826575Y1014255D01*
X826661Y1014285D01*
X826746Y1014316D01*
X826829Y1014345D01*
X826915Y1014375D01*
X827018Y1014411D01*
X827080Y1014432D01*
X827143Y1014454D01*
X827204Y1014475D01*
X827266Y1014496D01*
X827266D01*
X827329Y1014517D01*
X827390Y1014537D01*
X827450Y1014557D01*
X827512Y1014578D01*
X827572Y1014598D01*
X827633Y1014618D01*
X827694Y1014638D01*
X827755Y1014657D01*
X827755Y1014657D01*
X827814Y1014677D01*
X827814D01*
X827874Y1014696D01*
X827936Y1014716D01*
X827995Y1014734D01*
X828055Y1014753D01*
X828115Y1014773D01*
X828177Y1014792D01*
X828276Y1014823D01*
X828345Y1014844D01*
X828413Y1014865D01*
X828481Y1014886D01*
X828552Y1014908D01*
X828552Y1014908D01*
X828620Y1014928D01*
X828693Y1014950D01*
X828764Y1014972D01*
X828836Y1014993D01*
X828837D01*
X828909Y1015015D01*
X828983Y1015036D01*
X829058Y1015059D01*
X829134Y1015081D01*
X829211Y1015103D01*
X829288Y1015125D01*
X829365Y1015148D01*
X829445Y1015170D01*
X829525Y1015193D01*
X829607Y1015216D01*
X829706Y1015244D01*
X829795Y1015269D01*
X829882Y1015293D01*
X829972Y1015317D01*
X830061Y1015342D01*
X830153Y1015367D01*
X830245Y1015392D01*
X830245D01*
X830338Y1015417D01*
X830431Y1015441D01*
X830524Y1015466D01*
X830621Y1015491D01*
X830621Y1015491D01*
X830717Y1015516D01*
X830717D01*
X830814Y1015542D01*
X830814D01*
X830913Y1015567D01*
X831012Y1015593D01*
X831111Y1015618D01*
X831111Y1015618D01*
X831214Y1015644D01*
X831344Y1015677D01*
X831425Y1015697D01*
X831425D01*
X831508Y1015717D01*
X831591Y1015738D01*
X831591D01*
X831676Y1015759D01*
X831759Y1015779D01*
X831844Y1015800D01*
X831929Y1015820D01*
X832014Y1015841D01*
X832100Y1015861D01*
X832188Y1015882D01*
X832277Y1015903D01*
X832366Y1015924D01*
X832366Y1015924D01*
X832455Y1015945D01*
X832545Y1015966D01*
X832636Y1015987D01*
X832726Y1016008D01*
X832817Y1016029D01*
X832910Y1016050D01*
X833006Y1016072D01*
X833102Y1016093D01*
X833196Y1016114D01*
X833289Y1016135D01*
X833384Y1016156D01*
X833478Y1016177D01*
X833571Y1016197D01*
X833571D01*
X833665Y1016218D01*
X833759Y1016238D01*
X833853Y1016258D01*
X833948Y1016279D01*
X834042Y1016299D01*
X834137Y1016319D01*
X834230Y1016339D01*
X834326Y1016359D01*
X834326Y1016359D01*
X834421Y1016379D01*
X834517Y1016399D01*
X834611Y1016418D01*
X834611D01*
X834706Y1016438D01*
X834706Y1016438D01*
X834801Y1016457D01*
X834897Y1016477D01*
X834994Y1016497D01*
X835141Y1016526D01*
X835249Y1016548D01*
X835358Y1016570D01*
X835466Y1016591D01*
X835466Y1016591D01*
X835573Y1016612D01*
X835678Y1016633D01*
X835783Y1016653D01*
X835888Y1016674D01*
X835990Y1016694D01*
X836094Y1016714D01*
X836094D01*
X836196Y1016733D01*
X836299Y1016753D01*
X836400Y1016772D01*
X836501Y1016791D01*
X836501D01*
X836603Y1016810D01*
X836603Y1016810D01*
X836702Y1016829D01*
X836804Y1016847D01*
X836905Y1016866D01*
X837003Y1016884D01*
X837003D01*
X837103Y1016903D01*
X837103Y1016903D01*
X837205Y1016921D01*
X837205D01*
X837267Y1016932D01*
X837403Y1016957D01*
X837537Y1016981D01*
X837668Y1017005D01*
X837797Y1017028D01*
X837926Y1017050D01*
X838051Y1017072D01*
X838051D01*
X838175Y1017094D01*
X838298Y1017115D01*
X838298D01*
X838420Y1017136D01*
X838538Y1017157D01*
X838656Y1017177D01*
X838656Y1017177D01*
X838774Y1017197D01*
X838890Y1017217D01*
X839004Y1017236D01*
X839120Y1017255D01*
X839233Y1017274D01*
X839346Y1017293D01*
X839458Y1017311D01*
X839570Y1017330D01*
X839683Y1017348D01*
X839683Y1017349D01*
X839854Y1017376D01*
X839854D01*
X839996Y1017399D01*
X840138Y1017422D01*
X840138Y1017422D01*
X840284Y1017445D01*
X840430Y1017469D01*
X840577Y1017492D01*
X840726Y1017516D01*
X840878Y1017539D01*
X841032Y1017563D01*
X841185Y1017587D01*
X841342Y1017611D01*
X841498Y1017635D01*
X841658Y1017659D01*
X841658D01*
X841820Y1017683D01*
X841820Y1017683D01*
X841981Y1017708D01*
X841981D01*
X842146Y1017732D01*
X842309Y1017756D01*
X842481Y1017782D01*
X842601Y1017799D01*
X842714Y1017816D01*
X842828Y1017832D01*
X842946Y1017849D01*
X842946Y1017849D01*
X843067Y1017867D01*
X843188Y1017884D01*
X843313Y1017902D01*
X843443Y1017920D01*
X843443Y1017920D01*
X843572Y1017938D01*
X843705Y1017957D01*
X843705D01*
X843842Y1017976D01*
X843842Y1017976D01*
X843983Y1017996D01*
X844127Y1018016D01*
X844276Y1018036D01*
X844276Y1018036D01*
X844427Y1018057D01*
X844584Y1018078D01*
X844743Y1018100D01*
X844908Y1018122D01*
X844908Y1018122D01*
X845075Y1018145D01*
X845248Y1018167D01*
X845427Y1018191D01*
X845427D01*
X845614Y1018216D01*
X845670Y1018223D01*
X845805Y1018241D01*
X845805Y1018241D01*
X845941Y1018259D01*
X845941D01*
X846081Y1018277D01*
X846221Y1018295D01*
X846365Y1018313D01*
X846509Y1018332D01*
X846657Y1018351D01*
X846806Y1018369D01*
X846959Y1018389D01*
X847116Y1018408D01*
X847116D01*
X847273Y1018428D01*
X847435Y1018448D01*
X847600Y1018468D01*
X847600Y1018468D01*
X847766Y1018489D01*
X847936Y1018510D01*
X848110Y1018531D01*
X848289Y1018552D01*
X848472Y1018574D01*
X848659Y1018597D01*
X848659Y1018597D01*
X848846Y1018619D01*
X848963Y1018633D01*
X848982Y1018590D01*
X849636Y1017799D01*
X850521Y1017279D01*
X850904Y1017208D01*
X851658Y1016756D01*
X851789Y1016709D01*
X851918Y1016657D01*
X852925Y1016462D01*
X853031Y1016462D01*
X853135Y1016449D01*
X853648Y1016486D01*
X853687Y1016496D01*
X853726Y1016495D01*
X853782Y1016504D01*
X853790Y1016508D01*
X853799Y1016508D01*
X853874Y1016522D01*
X853885Y1016527D01*
X853898Y1016527D01*
X854009Y1016552D01*
X854020Y1016557D01*
X854032Y1016558D01*
X854094Y1016574D01*
X854102Y1016577D01*
X854110Y1016578D01*
X854171Y1016595D01*
X854206Y1016613D01*
X854245Y1016619D01*
X854712Y1016801D01*
X854795Y1016853D01*
X854885Y1016893D01*
X855652Y1017433D01*
X855740Y1017526D01*
X855834Y1017612D01*
X856392Y1018365D01*
X856447Y1018480D01*
X856510Y1018591D01*
X856804Y1019482D01*
X856816Y1019577D01*
X856842Y1019670D01*
X856879Y1020138D01*
X856875Y1020171D01*
X856882Y1020202D01*
X856882Y1021275D01*
X859581Y1021538D01*
X866444Y1022038D01*
X873318Y1022372D01*
X880197Y1022539D01*
X887079D01*
X893958Y1022372D01*
D02*
G37*
G36*
X826930Y798752D02*
X826991Y798445D01*
X827165Y798185D01*
X827425Y798011D01*
X827732Y797950D01*
X835197D01*
Y784143D01*
X835113Y784087D01*
X834525D01*
X833983Y783862D01*
X833568Y783447D01*
X833343Y782904D01*
Y782317D01*
X833568Y781774D01*
X833983Y781359D01*
X834525Y781134D01*
X835113D01*
X835197Y781078D01*
Y714360D01*
X835199Y714355D01*
X834770Y714177D01*
X834355Y713762D01*
X834130Y713219D01*
Y712632D01*
X834355Y712089D01*
X834770Y711674D01*
X835199Y711496D01*
X835197Y711491D01*
Y696784D01*
X835197Y696784D01*
X835258Y696477D01*
X835433Y696216D01*
X835433Y696216D01*
X840551Y691098D01*
X840811Y690924D01*
X841118Y690863D01*
X866775Y690863D01*
X877323Y680314D01*
Y663288D01*
X877339Y663210D01*
Y663131D01*
X877369Y663058D01*
X877384Y662980D01*
X877428Y662915D01*
X877459Y662842D01*
Y662771D01*
X877268Y662581D01*
X877044Y662038D01*
Y661451D01*
X877268Y660908D01*
X877459Y660718D01*
Y660647D01*
X877428Y660574D01*
X877384Y660508D01*
X877369Y660431D01*
X877339Y660358D01*
Y660279D01*
X877323Y660201D01*
Y658907D01*
X877351Y658769D01*
X877373Y658629D01*
X877381Y658616D01*
X877384Y658600D01*
X877388Y658595D01*
X877384Y658589D01*
X877381Y658574D01*
X877373Y658561D01*
X877351Y658421D01*
X877323Y658282D01*
Y654265D01*
X876823Y654012D01*
X876451Y654166D01*
X875864D01*
X875321Y653941D01*
X874906Y653526D01*
X874681Y652983D01*
Y652396D01*
X874906Y651853D01*
X875321Y651438D01*
X875864Y651213D01*
X876451D01*
X876823Y651367D01*
X877323Y651114D01*
Y649015D01*
X877384Y648707D01*
X877559Y648447D01*
X877559Y648447D01*
X885898Y640108D01*
X886099Y639974D01*
Y639403D01*
X886323Y638861D01*
X886739Y638446D01*
X887281Y638221D01*
X887851D01*
X887986Y638020D01*
X889703Y636303D01*
X889703Y636303D01*
X892118Y633888D01*
X892133Y633878D01*
X892145Y633862D01*
X892263Y633791D01*
X892378Y633714D01*
X892397Y633710D01*
X892413Y633701D01*
X892550Y633680D01*
X892685Y633653D01*
X892704Y633657D01*
X892723Y633654D01*
X892884Y633661D01*
X893003Y633691D01*
X893125Y633710D01*
X893242Y633754D01*
X893410Y633349D01*
X893825Y632934D01*
X894230Y632766D01*
X894141Y632526D01*
X894119Y632386D01*
X894091Y632247D01*
X894094Y632232D01*
X894092Y632217D01*
X894125Y632079D01*
X894152Y631940D01*
X894161Y631927D01*
X894164Y631912D01*
X894247Y631797D01*
X894326Y631679D01*
X895537Y630468D01*
X895798Y630294D01*
X896105Y630233D01*
X897866D01*
Y629461D01*
X897961Y628742D01*
X898239Y628071D01*
X898680Y627495D01*
X899256Y627054D01*
X899926Y626776D01*
X900646Y626681D01*
X901365Y626776D01*
X902036Y627054D01*
X902611Y627495D01*
X903053Y628071D01*
X903331Y628742D01*
X903426Y629461D01*
Y630233D01*
X906927D01*
X907309Y629851D01*
X907309Y626979D01*
X906818Y626776D01*
X906402Y626360D01*
X906177Y625818D01*
Y625230D01*
X906402Y624688D01*
X906818Y624272D01*
X907309Y624069D01*
X907309Y613311D01*
X907279Y612966D01*
X906936Y612822D01*
X906790Y612772D01*
X906702Y612722D01*
X906609Y612684D01*
X905800Y612152D01*
X905706Y612060D01*
X905606Y611973D01*
X905013Y611209D01*
X904954Y611091D01*
X904887Y610977D01*
X904573Y610062D01*
X904560Y609963D01*
X904532Y609868D01*
X904492Y609384D01*
X904495Y609350D01*
X904489Y609317D01*
Y607837D01*
X902537Y607689D01*
X897142Y607381D01*
X891743Y607176D01*
X886339Y607073D01*
X880937D01*
X875533Y607176D01*
X870134Y607381D01*
X864740Y607689D01*
X862787Y607837D01*
Y609312D01*
X862786Y609316D01*
X862787Y609320D01*
X862787Y609379D01*
X862785Y609388D01*
X862786Y609397D01*
X862784Y609475D01*
X862781Y609486D01*
X862783Y609498D01*
X862777Y609595D01*
X862774Y609605D01*
X862775Y609615D01*
X862771Y609666D01*
X862769Y609673D01*
X862769Y609680D01*
X862764Y609731D01*
X862752Y609771D01*
X862751Y609812D01*
X862641Y610341D01*
X862599Y610440D01*
X862570Y610542D01*
X862104Y611456D01*
X862017Y611566D01*
X861936Y611679D01*
X861184Y612378D01*
X861066Y612451D01*
X860950Y612530D01*
X860005Y612930D01*
X859902Y612951D01*
X859803Y612985D01*
X859293Y613057D01*
X859254Y613054D01*
X859215Y613063D01*
X859159Y613066D01*
X859150Y613064D01*
X859141Y613066D01*
X859066Y613068D01*
X859054Y613066D01*
X859041Y613068D01*
X858936Y613067D01*
X858925Y613064D01*
X858914Y613066D01*
X858857Y613064D01*
X858849Y613062D01*
X858841Y613063D01*
X858784Y613060D01*
X858745Y613050D01*
X858706Y613051D01*
X858197Y612972D01*
X858103Y612937D01*
X858004Y612916D01*
X857115Y612532D01*
X857006Y612457D01*
X856894Y612390D01*
X856177Y611739D01*
X856098Y611633D01*
X856013Y611532D01*
X855546Y610686D01*
X855483Y610692D01*
X855332Y610707D01*
X855173Y610723D01*
X855173D01*
X855010Y610739D01*
X854839Y610756D01*
X854659Y610775D01*
X854470Y610794D01*
X854470D01*
X854270Y610814D01*
X854057Y610836D01*
X853830Y610859D01*
X853656Y610877D01*
X853656D01*
X853376Y610906D01*
X853376Y610906D01*
X853129Y610932D01*
X852909Y610955D01*
X852705Y610977D01*
X852516Y610997D01*
X852516D01*
X852339Y611016D01*
X852339Y611016D01*
X852169Y611034D01*
X852009Y611052D01*
X851858Y611068D01*
X851712Y611084D01*
X851569Y611099D01*
X851433Y611114D01*
X851301Y611129D01*
X851173Y611143D01*
X851048Y611157D01*
X851048Y611157D01*
X850923Y611171D01*
X850923D01*
X850587Y611209D01*
X850587Y611209D01*
X850309Y611240D01*
X850055Y611269D01*
X849822Y611296D01*
X849603Y611321D01*
X849399Y611345D01*
X849399D01*
X849204Y611368D01*
X849018Y611390D01*
X848842Y611410D01*
X848842Y611410D01*
X848674Y611431D01*
X848512Y611450D01*
X848357Y611468D01*
X848357Y611468D01*
X848208Y611486D01*
X848058Y611505D01*
X848058D01*
X847823Y611533D01*
X847604Y611560D01*
X847398Y611586D01*
X847204Y611610D01*
X847021Y611633D01*
X847021D01*
X846848Y611655D01*
X846684Y611675D01*
X846525Y611695D01*
X846372Y611715D01*
X846226Y611734D01*
X846085Y611752D01*
X845948Y611770D01*
X845816Y611787D01*
X845688Y611804D01*
X845563Y611820D01*
X845444Y611836D01*
X845324Y611852D01*
X845324D01*
X845148Y611875D01*
X844977Y611898D01*
X844810Y611921D01*
X844646Y611943D01*
X844646D01*
X844487Y611964D01*
X844487Y611964D01*
X844329Y611986D01*
X844329D01*
X844176Y612007D01*
X844176Y612007D01*
X844026Y612028D01*
X844026D01*
X843879Y612048D01*
X843733Y612069D01*
X843733Y612069D01*
X843590Y612089D01*
X843450Y612109D01*
X843313Y612128D01*
X843178Y612147D01*
X843178Y612147D01*
X843044Y612166D01*
X842915Y612185D01*
X842786Y612204D01*
X842560Y612237D01*
X842388Y612262D01*
X842218Y612287D01*
X842053Y612312D01*
X841892Y612336D01*
X841736Y612359D01*
X841736Y612359D01*
X841582Y612383D01*
X841431Y612405D01*
X841284Y612428D01*
X841140Y612450D01*
X841000Y612472D01*
X840863Y612493D01*
X840863Y612493D01*
X840728Y612514D01*
X840596Y612535D01*
X840466Y612556D01*
X840409Y612565D01*
X840409Y612565D01*
X840292Y612583D01*
X840175Y612602D01*
X840175Y612602D01*
X840053Y612621D01*
X840053D01*
X839930Y612641D01*
X839803Y612662D01*
X839674Y612683D01*
X839537Y612706D01*
X839396Y612729D01*
X839250Y612753D01*
X839095Y612779D01*
X838933Y612806D01*
X838760Y612836D01*
X838573Y612867D01*
X838362Y612904D01*
X838362D01*
X838284Y612917D01*
X838284Y612917D01*
X838194Y612933D01*
X838102Y612949D01*
X838009Y612965D01*
X838009Y612965D01*
X837914Y612982D01*
X837914D01*
X837818Y612999D01*
X837719Y613017D01*
X837719Y613017D01*
X837619Y613034D01*
X837515Y613053D01*
X837411Y613072D01*
X837411Y613072D01*
X837302Y613092D01*
X837302D01*
X837191Y613112D01*
X837075Y613133D01*
X836957Y613155D01*
X836832Y613177D01*
X836704Y613201D01*
X836567Y613227D01*
X836423Y613254D01*
X836423Y613254D01*
X836314Y613275D01*
X836314Y613275D01*
X836218Y613293D01*
X836123Y613311D01*
X836123D01*
X836027Y613330D01*
X835930Y613348D01*
X835833Y613367D01*
X835735Y613386D01*
X835636Y613405D01*
X835537Y613425D01*
X835437Y613445D01*
X835334Y613465D01*
X835233Y613485D01*
X835129Y613506D01*
X835025Y613527D01*
X835025Y613527D01*
X834919Y613549D01*
X834813Y613570D01*
X834706Y613592D01*
X834594Y613615D01*
X834594D01*
X834544Y613626D01*
X834441Y613647D01*
X834441D01*
X834342Y613668D01*
X834244Y613688D01*
X834244Y613688D01*
X834145Y613709D01*
X834048Y613730D01*
X833953Y613750D01*
X833856Y613771D01*
X833856D01*
X833763Y613791D01*
X833668Y613812D01*
X833575Y613832D01*
X833484Y613852D01*
X833393Y613872D01*
X833302Y613892D01*
X833213Y613912D01*
X833213Y613912D01*
X833123Y613932D01*
X833035Y613952D01*
X832946Y613972D01*
X832859Y613991D01*
X832716Y614024D01*
X832619Y614047D01*
X832619D01*
X832526Y614068D01*
X832436Y614089D01*
X832347Y614110D01*
X832261Y614130D01*
X832177Y614150D01*
X832095Y614170D01*
X832095D01*
X832015Y614188D01*
X831936Y614208D01*
X831858Y614226D01*
X831858D01*
X831782Y614245D01*
X831708Y614263D01*
X831635Y614281D01*
X831563Y614298D01*
X831493Y614316D01*
X831423Y614333D01*
X831355Y614350D01*
X831289Y614366D01*
X831221Y614383D01*
X831078Y614420D01*
X830903Y614464D01*
X830758Y614502D01*
X830634Y614534D01*
X830526Y614563D01*
X830426Y614589D01*
X830333Y614614D01*
X830249Y614636D01*
X830169Y614658D01*
X830093Y614678D01*
X830023Y614698D01*
X829956Y614716D01*
X829893Y614733D01*
X829832Y614750D01*
X829774Y614766D01*
X829716Y614782D01*
X829716D01*
X829511Y614840D01*
X829374Y614879D01*
X829248Y614915D01*
X829134Y614948D01*
X829029Y614979D01*
X828932Y615007D01*
X828932Y615007D01*
X828841Y615034D01*
X828756Y615059D01*
X828675Y615084D01*
X828601Y615106D01*
X828601Y615106D01*
X828529Y615128D01*
X828461Y615148D01*
X828394Y615169D01*
X828329Y615189D01*
X828236Y615218D01*
X828140Y615248D01*
X828090Y615263D01*
X828038Y615280D01*
X827983Y615297D01*
X827926Y615315D01*
X827866Y615334D01*
X827803Y615355D01*
X827734Y615377D01*
X827659Y615401D01*
X827570Y615430D01*
X827461Y615466D01*
X827274Y615529D01*
X827216Y615548D01*
X827135Y615576D01*
X827052Y615604D01*
X826963Y615635D01*
X826869Y615667D01*
X826822Y615684D01*
X826770Y615702D01*
X826717Y615721D01*
X826661Y615741D01*
X826602Y615762D01*
X826538Y615785D01*
X826467Y615810D01*
X826391Y615838D01*
X826296Y615873D01*
X826244Y615892D01*
X826193Y615911D01*
X826142Y615930D01*
X826142Y615930D01*
X826086Y615951D01*
X826030Y615972D01*
X825969Y615995D01*
X825905Y616020D01*
X825833Y616047D01*
X825753Y616078D01*
X825665Y616113D01*
X825614Y616133D01*
X825557Y616156D01*
X825490Y616182D01*
X825404Y616217D01*
X825348Y616240D01*
X825277Y616269D01*
X825206Y616298D01*
X825135Y616328D01*
X825059Y616360D01*
X824984Y616392D01*
X824907Y616426D01*
X824829Y616459D01*
X824750Y616494D01*
X824670Y616529D01*
X824590Y616565D01*
X824475Y616617D01*
X824413Y616646D01*
X824351Y616675D01*
X823896Y616887D01*
X823054Y617436D01*
X822299Y618098D01*
X821645Y618860D01*
X821105Y619708D01*
X820691Y620623D01*
X820409Y621587D01*
X820268Y622581D01*
Y623084D01*
Y815272D01*
X826930D01*
Y798752D01*
D02*
G37*
%LPC*%
G36*
X901254Y1019126D02*
X900667D01*
X900125Y1018902D01*
X899709Y1018486D01*
X899485Y1017944D01*
Y1017356D01*
X899709Y1016814D01*
X900125Y1016398D01*
X900667Y1016174D01*
X901254D01*
X901797Y1016398D01*
X902212Y1016814D01*
X902437Y1017356D01*
Y1017944D01*
X902212Y1018486D01*
X901797Y1018902D01*
X901254Y1019126D01*
D02*
G37*
G36*
X875664Y1014402D02*
X875077D01*
X874534Y1014177D01*
X874189Y1013832D01*
X873844Y1014177D01*
X873302Y1014402D01*
X872714D01*
X872172Y1014177D01*
X871756Y1013762D01*
X871532Y1013219D01*
Y1012632D01*
X871756Y1012089D01*
X872172Y1011674D01*
X872714Y1011449D01*
X873302D01*
X873844Y1011674D01*
X874189Y1012019D01*
X874534Y1011674D01*
X875077Y1011449D01*
X875664D01*
X876207Y1011674D01*
X876622Y1012089D01*
X876847Y1012632D01*
Y1013219D01*
X876622Y1013762D01*
X876207Y1014177D01*
X875664Y1014402D01*
D02*
G37*
G36*
X869759Y1016370D02*
X869171D01*
X868629Y1016146D01*
X868213Y1015730D01*
X867988Y1015188D01*
Y1014600D01*
X868213Y1014058D01*
X868629Y1013642D01*
X869171Y1013418D01*
X869759D01*
X870301Y1013642D01*
X870716Y1014058D01*
X870941Y1014600D01*
Y1015188D01*
X870716Y1015730D01*
X870301Y1016146D01*
X869759Y1016370D01*
D02*
G37*
G36*
X865821D02*
X865234D01*
X864692Y1016146D01*
X864276Y1015730D01*
X864051Y1015188D01*
Y1014600D01*
X864276Y1014058D01*
X864692Y1013642D01*
X865234Y1013418D01*
X865821D01*
X866364Y1013642D01*
X866779Y1014058D01*
X867004Y1014600D01*
Y1015188D01*
X866779Y1015730D01*
X866364Y1016146D01*
X865821Y1016370D01*
D02*
G37*
G36*
X861491D02*
X860903D01*
X860361Y1016146D01*
X859945Y1015730D01*
X859721Y1015188D01*
Y1014600D01*
X859945Y1014058D01*
X860361Y1013642D01*
X860903Y1013418D01*
X861491D01*
X862033Y1013642D01*
X862449Y1014058D01*
X862673Y1014600D01*
Y1015188D01*
X862449Y1015730D01*
X862033Y1016146D01*
X861491Y1016370D01*
D02*
G37*
G36*
X900073Y1015583D02*
X899486D01*
X898944Y1015358D01*
X898528Y1014943D01*
X898303Y1014400D01*
Y1013813D01*
X898528Y1013270D01*
X898944Y1012855D01*
X899486Y1012630D01*
X900073D01*
X900616Y1012855D01*
X901031Y1013270D01*
X901256Y1013813D01*
Y1014400D01*
X901031Y1014943D01*
X900616Y1015358D01*
X900073Y1015583D01*
D02*
G37*
G36*
X857947Y1014402D02*
X857360D01*
X856818Y1014177D01*
X856402Y1013762D01*
X856177Y1013219D01*
Y1012632D01*
X856402Y1012089D01*
X856818Y1011674D01*
X857360Y1011449D01*
X857947D01*
X858490Y1011674D01*
X858905Y1012089D01*
X859130Y1012632D01*
Y1013219D01*
X858905Y1013762D01*
X858490Y1014177D01*
X857947Y1014402D01*
D02*
G37*
G36*
X880782Y1014008D02*
X880195D01*
X879652Y1013783D01*
X879237Y1013368D01*
X879012Y1012825D01*
Y1012238D01*
X879050Y1012146D01*
X879014Y1011646D01*
X878471Y1011421D01*
X878056Y1011006D01*
X877831Y1010463D01*
Y1009876D01*
X878056Y1009333D01*
X878471Y1008918D01*
X879014Y1008693D01*
X879601D01*
X880144Y1008918D01*
X880559Y1009333D01*
X880784Y1009876D01*
Y1010463D01*
X880746Y1010555D01*
X880782Y1011055D01*
X881325Y1011280D01*
X881740Y1011695D01*
X881965Y1012238D01*
Y1012825D01*
X881740Y1013368D01*
X881325Y1013783D01*
X880782Y1014008D01*
D02*
G37*
G36*
X884719Y1008496D02*
X884132D01*
X883589Y1008272D01*
X883174Y1007856D01*
X882949Y1007314D01*
Y1006726D01*
X883174Y1006184D01*
X883589Y1005768D01*
X884132Y1005544D01*
X884719D01*
X885262Y1005768D01*
X885677Y1006184D01*
X885902Y1006726D01*
Y1007314D01*
X885677Y1007856D01*
X885262Y1008272D01*
X884719Y1008496D01*
D02*
G37*
G36*
X894168Y1004559D02*
X893581D01*
X893038Y1004335D01*
X892823Y1004120D01*
X892496Y1003975D01*
X892170Y1004120D01*
X891955Y1004335D01*
X891412Y1004559D01*
X890825D01*
X890282Y1004335D01*
X889867Y1003919D01*
X889642Y1003377D01*
Y1002789D01*
X889867Y1002247D01*
X890282Y1001831D01*
X890825Y1001607D01*
X891412D01*
X891955Y1001831D01*
X892170Y1002046D01*
X892496Y1002191D01*
X892823Y1002046D01*
X893038Y1001831D01*
X893581Y1001607D01*
X894168D01*
X894711Y1001831D01*
X895126Y1002247D01*
X895351Y1002789D01*
Y1003377D01*
X895126Y1003919D01*
X894711Y1004335D01*
X894168Y1004559D01*
D02*
G37*
G36*
X928290Y1012433D02*
X927175D01*
X926099Y1012145D01*
X925134Y1011588D01*
X924346Y1010800D01*
X923789Y1009835D01*
X923500Y1008758D01*
Y1007644D01*
X923789Y1006567D01*
X924346Y1005602D01*
X925134Y1004814D01*
X926099Y1004257D01*
X927175Y1003969D01*
X928290D01*
X929366Y1004257D01*
X930331Y1004814D01*
X931119Y1005602D01*
X931676Y1006567D01*
X931965Y1007644D01*
Y1008758D01*
X931676Y1009835D01*
X931119Y1010800D01*
X930331Y1011588D01*
X929366Y1012145D01*
X928290Y1012433D01*
D02*
G37*
G36*
X840101D02*
X838986D01*
X837910Y1012145D01*
X836945Y1011588D01*
X836157Y1010800D01*
X835600Y1009835D01*
X835311Y1008758D01*
Y1007644D01*
X835600Y1006567D01*
X836157Y1005602D01*
X836945Y1004814D01*
X837910Y1004257D01*
X838986Y1003969D01*
X840101D01*
X841177Y1004257D01*
X842142Y1004814D01*
X842930Y1005602D01*
X843487Y1006567D01*
X843776Y1007644D01*
Y1008758D01*
X843487Y1009835D01*
X842930Y1010800D01*
X842142Y1011588D01*
X841177Y1012145D01*
X840101Y1012433D01*
D02*
G37*
G36*
X874089Y1004559D02*
X873502D01*
X872959Y1004335D01*
X872544Y1003919D01*
X872491Y1003792D01*
X871950D01*
X871898Y1003919D01*
X871482Y1004335D01*
X870940Y1004559D01*
X870352D01*
X869810Y1004335D01*
X869394Y1003919D01*
X869170Y1003377D01*
Y1002789D01*
X869394Y1002247D01*
X869810Y1001831D01*
X870352Y1001607D01*
X870940D01*
X871482Y1001831D01*
X871898Y1002247D01*
X871950Y1002374D01*
X872491D01*
X872544Y1002247D01*
X872959Y1001831D01*
X873502Y1001607D01*
X874089D01*
X874632Y1001831D01*
X875047Y1002247D01*
X875272Y1002789D01*
Y1003377D01*
X875047Y1003919D01*
X874632Y1004335D01*
X874089Y1004559D01*
D02*
G37*
G36*
X854010Y1005741D02*
X853423D01*
X852880Y1005516D01*
X852465Y1005100D01*
X852240Y1004558D01*
Y1003970D01*
X852465Y1003428D01*
X852880Y1003012D01*
X853423Y1002788D01*
X854010D01*
X854553Y1003012D01*
X854968Y1003428D01*
X855193Y1003970D01*
Y1004558D01*
X854968Y1005100D01*
X854553Y1005516D01*
X854010Y1005741D01*
D02*
G37*
G36*
X898499Y1004559D02*
X897911D01*
X897369Y1004335D01*
X896953Y1003919D01*
X896729Y1003377D01*
Y1002789D01*
X896953Y1002247D01*
X897369Y1001831D01*
X897911Y1001607D01*
X898499D01*
X899041Y1001831D01*
X899457Y1002247D01*
X899681Y1002789D01*
Y1003377D01*
X899457Y1003919D01*
X899041Y1004335D01*
X898499Y1004559D01*
D02*
G37*
G36*
X878420D02*
X877833D01*
X877290Y1004335D01*
X876875Y1003919D01*
X876650Y1003377D01*
Y1002789D01*
X876875Y1002247D01*
X877290Y1001831D01*
X877833Y1001607D01*
X878420D01*
X878963Y1001831D01*
X879378Y1002247D01*
X879603Y1002789D01*
Y1003377D01*
X879378Y1003919D01*
X878963Y1004335D01*
X878420Y1004559D01*
D02*
G37*
G36*
X902436Y1001410D02*
X901848D01*
X901306Y1001185D01*
X900890Y1000770D01*
X900666Y1000227D01*
Y999640D01*
X900890Y999097D01*
X901306Y998682D01*
X901848Y998457D01*
X902436D01*
X902978Y998682D01*
X903394Y999097D01*
X903618Y999640D01*
Y1000227D01*
X903394Y1000770D01*
X902978Y1001185D01*
X902436Y1001410D01*
D02*
G37*
G36*
X908735Y996292D02*
X908148D01*
X907605Y996067D01*
X907190Y995652D01*
X906965Y995109D01*
Y994522D01*
X907190Y993979D01*
X907605Y993564D01*
X908148Y993339D01*
X908735D01*
X909278Y993564D01*
X909693Y993979D01*
X909918Y994522D01*
Y995109D01*
X909693Y995652D01*
X909278Y996067D01*
X908735Y996292D01*
D02*
G37*
G36*
X860310Y994717D02*
X859722D01*
X859180Y994492D01*
X858764Y994077D01*
X858540Y993534D01*
Y992947D01*
X858764Y992404D01*
X859180Y991989D01*
X859722Y991764D01*
X860310D01*
X860852Y991989D01*
X861268Y992404D01*
X861492Y992947D01*
Y993534D01*
X861268Y994077D01*
X860852Y994492D01*
X860310Y994717D01*
D02*
G37*
G36*
X854404D02*
X853817D01*
X853274Y994492D01*
X852859Y994077D01*
X852634Y993534D01*
Y992947D01*
X852859Y992404D01*
X853274Y991989D01*
X853817Y991764D01*
X854404D01*
X854947Y991989D01*
X855362Y992404D01*
X855587Y992947D01*
Y993534D01*
X855362Y994077D01*
X854947Y994492D01*
X854404Y994717D01*
D02*
G37*
G36*
X836688D02*
X836100D01*
X835558Y994492D01*
X835142Y994077D01*
X834918Y993534D01*
Y992947D01*
X835142Y992404D01*
X835558Y991989D01*
X836100Y991764D01*
X836688D01*
X837230Y991989D01*
X837646Y992404D01*
X837870Y992947D01*
Y993534D01*
X837646Y994077D01*
X837230Y994492D01*
X836688Y994717D01*
D02*
G37*
G36*
X874483Y990780D02*
X873895D01*
X873353Y990555D01*
X872938Y990140D01*
X872885Y990013D01*
X872344D01*
X872291Y990140D01*
X871876Y990555D01*
X871333Y990780D01*
X870746D01*
X870203Y990555D01*
X869788Y990140D01*
X869563Y989597D01*
Y989010D01*
X869788Y988467D01*
X870203Y988052D01*
X870746Y987827D01*
X871333D01*
X871876Y988052D01*
X872291Y988467D01*
X872344Y988594D01*
X872885D01*
X872938Y988467D01*
X873353Y988052D01*
X873895Y987827D01*
X874483D01*
X875025Y988052D01*
X875441Y988467D01*
X875666Y989010D01*
Y989597D01*
X875441Y990140D01*
X875025Y990555D01*
X874483Y990780D01*
D02*
G37*
G36*
X930782Y991961D02*
X930195D01*
X929652Y991736D01*
X929237Y991321D01*
X929012Y990778D01*
Y990191D01*
X929237Y989648D01*
X929652Y989233D01*
X930195Y989008D01*
X930782D01*
X931325Y989233D01*
X931740Y989648D01*
X931965Y990191D01*
Y990778D01*
X931740Y991321D01*
X931325Y991736D01*
X930782Y991961D01*
D02*
G37*
G36*
X904404D02*
X903817D01*
X903274Y991736D01*
X902859Y991321D01*
X902634Y990778D01*
Y990191D01*
X902859Y989648D01*
X903274Y989233D01*
X903817Y989008D01*
X904404D01*
X904947Y989233D01*
X905362Y989648D01*
X905587Y990191D01*
Y990778D01*
X905362Y991321D01*
X904947Y991736D01*
X904404Y991961D01*
D02*
G37*
G36*
X910703Y991173D02*
X910116D01*
X909573Y990949D01*
X909158Y990534D01*
X908933Y989991D01*
Y989404D01*
X909158Y988861D01*
X909573Y988446D01*
X910116Y988221D01*
X910703D01*
X911246Y988446D01*
X911661Y988861D01*
X911886Y989404D01*
Y989991D01*
X911661Y990534D01*
X911246Y990949D01*
X910703Y991173D01*
D02*
G37*
G36*
X898499Y990780D02*
X897911D01*
X897369Y990555D01*
X896953Y990140D01*
X896729Y989597D01*
Y989010D01*
X896953Y988467D01*
X897369Y988052D01*
X897911Y987827D01*
X898499D01*
X899041Y988052D01*
X899457Y988467D01*
X899681Y989010D01*
Y989597D01*
X899457Y990140D01*
X899041Y990555D01*
X898499Y990780D01*
D02*
G37*
G36*
X894168D02*
X893581D01*
X893038Y990555D01*
X892623Y990140D01*
X892398Y989597D01*
Y989010D01*
X892623Y988467D01*
X893038Y988052D01*
X893581Y987827D01*
X894168D01*
X894711Y988052D01*
X895126Y988467D01*
X895351Y989010D01*
Y989597D01*
X895126Y990140D01*
X894711Y990555D01*
X894168Y990780D01*
D02*
G37*
G36*
X890625D02*
X890037D01*
X889495Y990555D01*
X889079Y990140D01*
X888855Y989597D01*
Y989010D01*
X889079Y988467D01*
X889495Y988052D01*
X890037Y987827D01*
X890625D01*
X891167Y988052D01*
X891582Y988467D01*
X891807Y989010D01*
Y989597D01*
X891582Y990140D01*
X891167Y990555D01*
X890625Y990780D01*
D02*
G37*
G36*
X879601Y990405D02*
X879014D01*
X878471Y990181D01*
X878056Y989765D01*
X877831Y989223D01*
Y988635D01*
X878056Y988093D01*
X878471Y987677D01*
X879014Y987453D01*
X879601D01*
X880144Y987677D01*
X880559Y988093D01*
X880784Y988635D01*
Y989223D01*
X880559Y989765D01*
X880144Y990181D01*
X879601Y990405D01*
D02*
G37*
G36*
X930782Y988024D02*
X930195D01*
X929652Y987799D01*
X929237Y987384D01*
X929012Y986841D01*
Y986254D01*
X929237Y985711D01*
X929652Y985296D01*
X930195Y985071D01*
X930782D01*
X931325Y985296D01*
X931740Y985711D01*
X931965Y986254D01*
Y986841D01*
X931740Y987384D01*
X931325Y987799D01*
X930782Y988024D01*
D02*
G37*
G36*
X855192Y987630D02*
X854604D01*
X854062Y987405D01*
X853646Y986990D01*
X853421Y986448D01*
Y985860D01*
X853646Y985318D01*
X854062Y984902D01*
X854604Y984678D01*
X855192D01*
X855734Y984902D01*
X856149Y985318D01*
X856374Y985860D01*
Y986448D01*
X856149Y986990D01*
X855734Y987405D01*
X855192Y987630D01*
D02*
G37*
G36*
X911097Y986843D02*
X910510D01*
X909967Y986618D01*
X909552Y986203D01*
X909327Y985660D01*
Y985073D01*
X909552Y984530D01*
X909967Y984115D01*
X910510Y983890D01*
X911097D01*
X911640Y984115D01*
X912055Y984530D01*
X912280Y985073D01*
Y985660D01*
X912055Y986203D01*
X911640Y986618D01*
X911097Y986843D01*
D02*
G37*
G36*
X930782Y984087D02*
X930195D01*
X929652Y983862D01*
X929237Y983447D01*
X929012Y982904D01*
Y982317D01*
X929237Y981774D01*
X929652Y981359D01*
X930195Y981134D01*
X930782D01*
X931325Y981359D01*
X931740Y981774D01*
X931965Y982317D01*
Y982904D01*
X931740Y983447D01*
X931325Y983862D01*
X930782Y984087D01*
D02*
G37*
G36*
X855979Y983693D02*
X855392D01*
X854849Y983468D01*
X854434Y983053D01*
X854209Y982510D01*
Y981923D01*
X854434Y981381D01*
X854849Y980965D01*
X855392Y980741D01*
X855979D01*
X856522Y980965D01*
X856937Y981381D01*
X857162Y981923D01*
Y982510D01*
X856937Y983053D01*
X856522Y983468D01*
X855979Y983693D01*
D02*
G37*
G36*
X864247Y981331D02*
X863659D01*
X863117Y981106D01*
X862701Y980691D01*
X862477Y980148D01*
Y979561D01*
X862701Y979018D01*
X863117Y978603D01*
X863659Y978378D01*
X864247D01*
X864789Y978603D01*
X865205Y979018D01*
X865429Y979561D01*
Y980148D01*
X865205Y980691D01*
X864789Y981106D01*
X864247Y981331D01*
D02*
G37*
G36*
X928420Y980544D02*
X927833D01*
X927290Y980319D01*
X926875Y979904D01*
X926650Y979361D01*
Y978774D01*
X926875Y978231D01*
X927290Y977816D01*
X927833Y977591D01*
X928420D01*
X928963Y977816D01*
X929378Y978231D01*
X929603Y978774D01*
Y979361D01*
X929378Y979904D01*
X928963Y980319D01*
X928420Y980544D01*
D02*
G37*
G36*
X869759Y980150D02*
X869171D01*
X868629Y979925D01*
X868213Y979510D01*
X867988Y978967D01*
Y978380D01*
X868213Y977837D01*
X868629Y977422D01*
X869171Y977197D01*
X869759D01*
X870301Y977422D01*
X870716Y977837D01*
X870941Y978380D01*
Y978967D01*
X870716Y979510D01*
X870301Y979925D01*
X869759Y980150D01*
D02*
G37*
G36*
X852436Y977788D02*
X851848D01*
X851306Y977563D01*
X850890Y977148D01*
X850666Y976605D01*
Y976018D01*
X850890Y975475D01*
X851306Y975060D01*
X851848Y974835D01*
X852436D01*
X852978Y975060D01*
X853394Y975475D01*
X853618Y976018D01*
Y976605D01*
X853394Y977148D01*
X852978Y977563D01*
X852436Y977788D01*
D02*
G37*
G36*
X928420Y976607D02*
X927833D01*
X927290Y976382D01*
X926875Y975966D01*
X926650Y975424D01*
Y974837D01*
X926875Y974294D01*
X927290Y973879D01*
X927833Y973654D01*
X928420D01*
X928963Y973879D01*
X929378Y974294D01*
X929603Y974837D01*
Y975424D01*
X929378Y975966D01*
X928963Y976382D01*
X928420Y976607D01*
D02*
G37*
G36*
X826845Y973457D02*
X826258D01*
X825715Y973232D01*
X825300Y972817D01*
X825075Y972274D01*
Y971687D01*
X825300Y971144D01*
X825715Y970729D01*
X826258Y970504D01*
X826845D01*
X827388Y970729D01*
X827803Y971144D01*
X828028Y971687D01*
Y972274D01*
X827803Y972817D01*
X827388Y973232D01*
X826845Y973457D01*
D02*
G37*
G36*
X936688Y970701D02*
X936100D01*
X935558Y970476D01*
X935142Y970061D01*
X934918Y969518D01*
Y968931D01*
X935142Y968388D01*
X935558Y967973D01*
X936100Y967748D01*
X936688D01*
X937230Y967973D01*
X937646Y968388D01*
X937870Y968931D01*
Y969518D01*
X937646Y970061D01*
X937230Y970476D01*
X936688Y970701D01*
D02*
G37*
G36*
X917002Y970307D02*
X916415D01*
X915873Y970083D01*
X915457Y969667D01*
X915232Y969125D01*
Y968537D01*
X915457Y967995D01*
X915873Y967579D01*
X916415Y967355D01*
X917002D01*
X917545Y967579D01*
X917960Y967995D01*
X918185Y968537D01*
Y969125D01*
X917960Y969667D01*
X917545Y970083D01*
X917002Y970307D01*
D02*
G37*
G36*
X876451Y969914D02*
X875864D01*
X875321Y969689D01*
X874906Y969274D01*
X874681Y968731D01*
Y968144D01*
X874906Y967601D01*
X875321Y967186D01*
X875864Y966961D01*
X876451D01*
X876994Y967186D01*
X877409Y967601D01*
X877634Y968144D01*
Y968731D01*
X877409Y969274D01*
X876994Y969689D01*
X876451Y969914D01*
D02*
G37*
G36*
X904404Y969126D02*
X903817D01*
X903274Y968902D01*
X902859Y968486D01*
X902634Y967944D01*
Y967356D01*
X902859Y966814D01*
X903274Y966398D01*
X903817Y966174D01*
X904404D01*
X904947Y966398D01*
X905362Y966814D01*
X905587Y967356D01*
Y967944D01*
X905362Y968486D01*
X904947Y968902D01*
X904404Y969126D01*
D02*
G37*
G36*
X867790Y968733D02*
X867203D01*
X866660Y968508D01*
X866245Y968093D01*
X866020Y967550D01*
Y966963D01*
X866245Y966420D01*
X866660Y966005D01*
X867203Y965780D01*
X867790D01*
X868333Y966005D01*
X868748Y966420D01*
X868973Y966963D01*
Y967550D01*
X868748Y968093D01*
X868333Y968508D01*
X867790Y968733D01*
D02*
G37*
G36*
X857160Y968339D02*
X856573D01*
X856030Y968114D01*
X855615Y967699D01*
X855390Y967156D01*
Y966569D01*
X855615Y966026D01*
X856030Y965611D01*
X856573Y965386D01*
X857160D01*
X857703Y965611D01*
X858118Y966026D01*
X858343Y966569D01*
Y967156D01*
X858118Y967699D01*
X857703Y968114D01*
X857160Y968339D01*
D02*
G37*
G36*
X846530D02*
X845943D01*
X845400Y968114D01*
X844985Y967699D01*
X844760Y967156D01*
Y966569D01*
X844985Y966026D01*
X845400Y965611D01*
X845943Y965386D01*
X846530D01*
X847073Y965611D01*
X847488Y966026D01*
X847713Y966569D01*
Y967156D01*
X847488Y967699D01*
X847073Y968114D01*
X846530Y968339D01*
D02*
G37*
G36*
X936688Y966764D02*
X936100D01*
X935558Y966539D01*
X935142Y966124D01*
X934918Y965581D01*
Y964994D01*
X935142Y964451D01*
X935558Y964036D01*
X936100Y963811D01*
X936688D01*
X937230Y964036D01*
X937646Y964451D01*
X937870Y964994D01*
Y965581D01*
X937646Y966124D01*
X937230Y966539D01*
X936688Y966764D01*
D02*
G37*
G36*
X913459Y967945D02*
X912872D01*
X912329Y967720D01*
X911914Y967305D01*
X911689Y966763D01*
Y966436D01*
X911551Y966115D01*
X911230Y965977D01*
X910903D01*
X910361Y965752D01*
X909945Y965337D01*
X909721Y964794D01*
Y964207D01*
X909945Y963664D01*
X910361Y963249D01*
X910903Y963024D01*
X911491D01*
X912033Y963249D01*
X912449Y963664D01*
X912673Y964207D01*
Y964534D01*
X912812Y964854D01*
X913132Y964992D01*
X913459D01*
X914002Y965217D01*
X914417Y965633D01*
X914642Y966175D01*
Y966763D01*
X914417Y967305D01*
X914002Y967720D01*
X913459Y967945D01*
D02*
G37*
G36*
X826845Y964796D02*
X826258D01*
X825715Y964571D01*
X825300Y964155D01*
X825075Y963613D01*
Y963025D01*
X825300Y962483D01*
X825715Y962068D01*
X826258Y961843D01*
X826845D01*
X827388Y962068D01*
X827803Y962483D01*
X828028Y963025D01*
Y963613D01*
X827803Y964155D01*
X827388Y964571D01*
X826845Y964796D01*
D02*
G37*
G36*
X843381Y964008D02*
X842793D01*
X842251Y963783D01*
X841835Y963368D01*
X841611Y962825D01*
Y962238D01*
X841835Y961695D01*
X842251Y961280D01*
X842793Y961055D01*
X843381D01*
X843923Y961280D01*
X844338Y961695D01*
X844563Y962238D01*
Y962825D01*
X844338Y963368D01*
X843923Y963783D01*
X843381Y964008D01*
D02*
G37*
G36*
X905979Y963614D02*
X905392D01*
X904849Y963390D01*
X904434Y962974D01*
X904209Y962432D01*
Y961844D01*
X904434Y961302D01*
X904849Y960886D01*
X905392Y960662D01*
X905979D01*
X906522Y960886D01*
X906937Y961302D01*
X907162Y961844D01*
Y962432D01*
X906937Y962974D01*
X906522Y963390D01*
X905979Y963614D01*
D02*
G37*
G36*
X936688Y962827D02*
X936100D01*
X935558Y962602D01*
X935142Y962187D01*
X934918Y961644D01*
Y961057D01*
X935142Y960514D01*
X935558Y960099D01*
X936100Y959874D01*
X936688D01*
X937230Y960099D01*
X937646Y960514D01*
X937870Y961057D01*
Y961644D01*
X937646Y962187D01*
X937230Y962602D01*
X936688Y962827D01*
D02*
G37*
G36*
X871806Y961331D02*
X871218D01*
X870676Y961106D01*
X870260Y960691D01*
X870036Y960148D01*
Y959561D01*
X870260Y959018D01*
X870676Y958603D01*
X871218Y958378D01*
X871806D01*
X872348Y958603D01*
X872764Y959018D01*
X872988Y959561D01*
Y960148D01*
X872764Y960691D01*
X872348Y961106D01*
X871806Y961331D01*
D02*
G37*
G36*
X933244Y967665D02*
X919465D01*
X919158Y967604D01*
X918897Y967430D01*
X918723Y967170D01*
X918662Y966862D01*
Y958988D01*
X918723Y958681D01*
X918897Y958421D01*
X919158Y958247D01*
X919465Y958186D01*
X933244D01*
X933552Y958247D01*
X933812Y958421D01*
X933986Y958681D01*
X934047Y958988D01*
Y966862D01*
X933986Y967170D01*
X933812Y967430D01*
X933552Y967604D01*
X933244Y967665D01*
D02*
G37*
G36*
X893774Y960465D02*
X893187D01*
X892644Y960240D01*
X892229Y959825D01*
X892004Y959282D01*
Y958695D01*
X892229Y958152D01*
X892644Y957737D01*
X893187Y957512D01*
X893774D01*
X894317Y957737D01*
X894732Y958152D01*
X894957Y958695D01*
Y959282D01*
X894732Y959825D01*
X894317Y960240D01*
X893774Y960465D01*
D02*
G37*
G36*
X889443Y959678D02*
X888856D01*
X888313Y959453D01*
X887898Y959037D01*
X887673Y958495D01*
Y957907D01*
X887898Y957365D01*
X888313Y956950D01*
X888856Y956725D01*
X889443D01*
X889986Y956950D01*
X890401Y957365D01*
X890626Y957907D01*
Y958495D01*
X890401Y959037D01*
X889986Y959453D01*
X889443Y959678D01*
D02*
G37*
G36*
X848289Y958848D02*
X847701D01*
X847159Y958624D01*
X846743Y958208D01*
X846519Y957666D01*
Y957078D01*
X846743Y956536D01*
X847159Y956120D01*
X847701Y955896D01*
X848289D01*
X848831Y956120D01*
X849247Y956536D01*
X849471Y957078D01*
Y957666D01*
X849247Y958208D01*
X848831Y958624D01*
X848289Y958848D01*
D02*
G37*
G36*
X936688Y958496D02*
X936100D01*
X935558Y958272D01*
X935142Y957856D01*
X934918Y957314D01*
Y956726D01*
X935142Y956184D01*
X935558Y955768D01*
X936100Y955544D01*
X936688D01*
X937230Y955768D01*
X937646Y956184D01*
X937870Y956726D01*
Y957314D01*
X937646Y957856D01*
X937230Y958272D01*
X936688Y958496D01*
D02*
G37*
G36*
X912475Y957512D02*
X911888D01*
X911345Y957287D01*
X910930Y956872D01*
X910705Y956329D01*
Y955742D01*
X910930Y955200D01*
X911345Y954784D01*
X911888Y954559D01*
X912475D01*
X913018Y954784D01*
X913433Y955200D01*
X913658Y955742D01*
Y956329D01*
X913433Y956872D01*
X913018Y957287D01*
X912475Y957512D01*
D02*
G37*
G36*
X916609Y957315D02*
X916022D01*
X915479Y957090D01*
X915064Y956675D01*
X914839Y956133D01*
Y955545D01*
X915064Y955003D01*
X915479Y954587D01*
X916022Y954362D01*
X916609D01*
X917152Y954587D01*
X917567Y955003D01*
X917791Y955545D01*
Y956133D01*
X917567Y956675D01*
X917152Y957090D01*
X916609Y957315D01*
D02*
G37*
G36*
X891943Y957178D02*
X891356D01*
X890814Y956953D01*
X890398Y956537D01*
X890174Y955995D01*
Y955407D01*
X890398Y954865D01*
X890814Y954449D01*
X891356Y954225D01*
X891943D01*
X892486Y954449D01*
X892901Y954865D01*
X893126Y955407D01*
Y955995D01*
X892901Y956537D01*
X892486Y956953D01*
X891943Y957178D01*
D02*
G37*
G36*
X896530Y956528D02*
X895943D01*
X895400Y956303D01*
X894985Y955888D01*
X894760Y955345D01*
Y954758D01*
X894985Y954215D01*
X895400Y953800D01*
X895943Y953575D01*
X896530D01*
X897073Y953800D01*
X897488Y954215D01*
X897713Y954758D01*
Y955345D01*
X897488Y955888D01*
X897073Y956303D01*
X896530Y956528D01*
D02*
G37*
G36*
X850861Y955741D02*
X850274D01*
X849731Y955516D01*
X849316Y955100D01*
X849091Y954558D01*
Y953970D01*
X849316Y953428D01*
X849731Y953012D01*
X850274Y952788D01*
X850861D01*
X851403Y953012D01*
X851819Y953428D01*
X852044Y953970D01*
Y954558D01*
X851819Y955100D01*
X851403Y955516D01*
X850861Y955741D01*
D02*
G37*
G36*
X870940Y954559D02*
X870352D01*
X869810Y954335D01*
X869394Y953919D01*
X869170Y953377D01*
Y952789D01*
X869394Y952247D01*
X869810Y951831D01*
X870352Y951607D01*
X870940D01*
X871482Y951831D01*
X871898Y952247D01*
X872122Y952789D01*
Y953377D01*
X871898Y953919D01*
X871482Y954335D01*
X870940Y954559D01*
D02*
G37*
G36*
X936688Y954166D02*
X936100D01*
X935558Y953941D01*
X935142Y953526D01*
X934918Y952983D01*
Y952396D01*
X935142Y951853D01*
X935558Y951438D01*
X936100Y951213D01*
X936688D01*
X937230Y951438D01*
X937646Y951853D01*
X937870Y952396D01*
Y952983D01*
X937646Y953526D01*
X937230Y953941D01*
X936688Y954166D01*
D02*
G37*
G36*
X847711D02*
X847124D01*
X846581Y953941D01*
X846166Y953526D01*
X845941Y952983D01*
Y952396D01*
X846166Y951853D01*
X846581Y951438D01*
X847124Y951213D01*
X847711D01*
X848254Y951438D01*
X848669Y951853D01*
X848894Y952396D01*
Y952983D01*
X848669Y953526D01*
X848254Y953941D01*
X847711Y954166D01*
D02*
G37*
G36*
X913459Y953772D02*
X912872D01*
X912329Y953547D01*
X911914Y953132D01*
X911689Y952589D01*
Y952002D01*
X911914Y951459D01*
X912329Y951044D01*
X912872Y950819D01*
X913459D01*
X914002Y951044D01*
X914417Y951459D01*
X914642Y952002D01*
Y952589D01*
X914417Y953132D01*
X914002Y953547D01*
X913459Y953772D01*
D02*
G37*
G36*
X899680D02*
X899092D01*
X898550Y953547D01*
X898134Y953132D01*
X897910Y952589D01*
Y952002D01*
X898134Y951459D01*
X898550Y951044D01*
X899092Y950819D01*
X899680D01*
X900222Y951044D01*
X900638Y951459D01*
X900862Y952002D01*
Y952589D01*
X900638Y953132D01*
X900222Y953547D01*
X899680Y953772D01*
D02*
G37*
G36*
X874483D02*
X873895D01*
X873353Y953547D01*
X872938Y953132D01*
X872713Y952589D01*
Y952002D01*
X872938Y951459D01*
X873353Y951044D01*
X873895Y950819D01*
X874483D01*
X875025Y951044D01*
X875441Y951459D01*
X875666Y952002D01*
Y952589D01*
X875441Y953132D01*
X875025Y953547D01*
X874483Y953772D01*
D02*
G37*
G36*
X839837D02*
X839250D01*
X838707Y953547D01*
X838292Y953132D01*
X838067Y952589D01*
Y952002D01*
X838292Y951459D01*
X838707Y951044D01*
X839250Y950819D01*
X839837D01*
X840380Y951044D01*
X840795Y951459D01*
X841020Y952002D01*
Y952589D01*
X840795Y953132D01*
X840380Y953547D01*
X839837Y953772D01*
D02*
G37*
G36*
X895743Y952985D02*
X895155D01*
X894613Y952760D01*
X894197Y952345D01*
X893973Y951802D01*
Y951215D01*
X894197Y950672D01*
X894613Y950257D01*
X895155Y950032D01*
X895743D01*
X896285Y950257D01*
X896701Y950672D01*
X896925Y951215D01*
Y951802D01*
X896701Y952345D01*
X896285Y952760D01*
X895743Y952985D01*
D02*
G37*
G36*
X878814D02*
X878226D01*
X877684Y952760D01*
X877268Y952345D01*
X877044Y951802D01*
Y951215D01*
X877268Y950672D01*
X877684Y950257D01*
X878226Y950032D01*
X878814D01*
X879356Y950257D01*
X879772Y950672D01*
X879996Y951215D01*
Y951802D01*
X879772Y952345D01*
X879356Y952760D01*
X878814Y952985D01*
D02*
G37*
G36*
X902829Y952197D02*
X902242D01*
X901699Y951972D01*
X901284Y951557D01*
X901059Y951015D01*
Y950427D01*
X901284Y949885D01*
X901699Y949469D01*
X902242Y949244D01*
X902829D01*
X903372Y949469D01*
X903787Y949885D01*
X904012Y950427D01*
Y951015D01*
X903787Y951557D01*
X903372Y951972D01*
X902829Y952197D01*
D02*
G37*
G36*
X859128D02*
X858541D01*
X857999Y951972D01*
X857583Y951557D01*
X857358Y951015D01*
Y950427D01*
X857583Y949885D01*
X857999Y949469D01*
X858541Y949244D01*
X859128D01*
X859671Y949469D01*
X860087Y949885D01*
X860311Y950427D01*
Y951015D01*
X860087Y951557D01*
X859671Y951972D01*
X859128Y952197D01*
D02*
G37*
G36*
X870152Y950622D02*
X869565D01*
X869022Y950398D01*
X868607Y949982D01*
X868382Y949440D01*
Y948852D01*
X868607Y948310D01*
X869022Y947894D01*
X869565Y947670D01*
X870152D01*
X870695Y947894D01*
X871110Y948310D01*
X871335Y948852D01*
Y949440D01*
X871110Y949982D01*
X870695Y950398D01*
X870152Y950622D01*
D02*
G37*
G36*
X892396Y950426D02*
X891809D01*
X891266Y950201D01*
X890851Y949785D01*
X890626Y949243D01*
Y948656D01*
X890851Y948113D01*
X891266Y947698D01*
X891809Y947473D01*
X892396D01*
X892939Y947698D01*
X893354Y948113D01*
X893579Y948656D01*
Y949243D01*
X893354Y949785D01*
X892939Y950201D01*
X892396Y950426D01*
D02*
G37*
G36*
X917002Y950229D02*
X916415D01*
X915873Y950004D01*
X915457Y949589D01*
X915232Y949046D01*
Y948459D01*
X915457Y947916D01*
X915873Y947501D01*
X916415Y947276D01*
X917002D01*
X917545Y947501D01*
X917960Y947916D01*
X918185Y948459D01*
Y949046D01*
X917960Y949589D01*
X917545Y950004D01*
X917002Y950229D01*
D02*
G37*
G36*
X875270D02*
X874683D01*
X874140Y950004D01*
X873725Y949589D01*
X873500Y949046D01*
Y948459D01*
X873725Y947916D01*
X874140Y947501D01*
X874683Y947276D01*
X875270D01*
X875813Y947501D01*
X876228Y947916D01*
X876453Y948459D01*
Y949046D01*
X876228Y949589D01*
X875813Y950004D01*
X875270Y950229D01*
D02*
G37*
G36*
X898499Y949441D02*
X897911D01*
X897369Y949216D01*
X896953Y948801D01*
X896729Y948258D01*
Y947671D01*
X896953Y947129D01*
X897369Y946713D01*
X897911Y946488D01*
X898499D01*
X899041Y946713D01*
X899457Y947129D01*
X899681Y947671D01*
Y948258D01*
X899457Y948801D01*
X899041Y949216D01*
X898499Y949441D01*
D02*
G37*
G36*
X872514Y947867D02*
X871927D01*
X871384Y947642D01*
X870969Y947226D01*
X870744Y946684D01*
Y946096D01*
X870969Y945554D01*
X871384Y945138D01*
X871927Y944914D01*
X872514D01*
X873057Y945138D01*
X873472Y945554D01*
X873697Y946096D01*
Y946684D01*
X873472Y947226D01*
X873057Y947642D01*
X872514Y947867D01*
D02*
G37*
G36*
X862278Y947473D02*
X861691D01*
X861148Y947248D01*
X860733Y946833D01*
X860508Y946290D01*
Y945703D01*
X860733Y945160D01*
X861148Y944745D01*
X861691Y944520D01*
X862278D01*
X862821Y944745D01*
X863236Y945160D01*
X863461Y945703D01*
Y946290D01*
X863236Y946833D01*
X862821Y947248D01*
X862278Y947473D01*
D02*
G37*
G36*
X900073Y945111D02*
X899486D01*
X898944Y944886D01*
X898528Y944471D01*
X898303Y943928D01*
Y943340D01*
X898528Y942798D01*
X898944Y942383D01*
X899486Y942158D01*
X900073D01*
X900616Y942383D01*
X901031Y942798D01*
X901256Y943340D01*
Y943928D01*
X901031Y944471D01*
X900616Y944886D01*
X900073Y945111D01*
D02*
G37*
G36*
X892199Y944717D02*
X891612D01*
X891069Y944492D01*
X890654Y944077D01*
X890429Y943534D01*
Y942947D01*
X890654Y942404D01*
X891069Y941989D01*
X891612Y941764D01*
X892199D01*
X892742Y941989D01*
X893157Y942404D01*
X893382Y942947D01*
Y943534D01*
X893157Y944077D01*
X892742Y944492D01*
X892199Y944717D01*
D02*
G37*
G36*
X859916Y943536D02*
X859329D01*
X858786Y943311D01*
X858371Y942896D01*
X858146Y942353D01*
Y941766D01*
X858371Y941223D01*
X858786Y940808D01*
X859329Y940583D01*
X859916D01*
X860459Y940808D01*
X860874Y941223D01*
X861099Y941766D01*
Y942353D01*
X860874Y942896D01*
X860459Y943311D01*
X859916Y943536D01*
D02*
G37*
G36*
X832751D02*
X832163D01*
X831621Y943311D01*
X831205Y942896D01*
X830981Y942353D01*
Y941766D01*
X831205Y941223D01*
X831621Y940808D01*
X832163Y940583D01*
X832751D01*
X833293Y940808D01*
X833708Y941223D01*
X833933Y941766D01*
Y942353D01*
X833708Y942896D01*
X833293Y943311D01*
X832751Y943536D01*
D02*
G37*
G36*
X922711Y943142D02*
X922124D01*
X921581Y942917D01*
X921166Y942502D01*
X920941Y941959D01*
Y941372D01*
X921166Y940829D01*
X921581Y940414D01*
X922124Y940189D01*
X922711D01*
X923254Y940414D01*
X923669Y940829D01*
X923894Y941372D01*
Y941959D01*
X923669Y942502D01*
X923254Y942917D01*
X922711Y943142D01*
D02*
G37*
G36*
X887869D02*
X887281D01*
X886739Y942917D01*
X886323Y942502D01*
X886099Y941959D01*
Y941372D01*
X886323Y940829D01*
X886739Y940414D01*
X887281Y940189D01*
X887869D01*
X888411Y940414D01*
X888827Y940829D01*
X889051Y941372D01*
Y941959D01*
X888827Y942502D01*
X888411Y942917D01*
X887869Y943142D01*
D02*
G37*
G36*
X879207D02*
X878620D01*
X878077Y942917D01*
X877662Y942502D01*
X877437Y941959D01*
Y941372D01*
X877662Y940829D01*
X878077Y940414D01*
X878620Y940189D01*
X879207D01*
X879750Y940414D01*
X880165Y940829D01*
X880390Y941372D01*
Y941959D01*
X880165Y942502D01*
X879750Y942917D01*
X879207Y943142D01*
D02*
G37*
G36*
X851648D02*
X851061D01*
X850518Y942917D01*
X850103Y942502D01*
X849878Y941959D01*
Y941372D01*
X850103Y940829D01*
X850518Y940414D01*
X851061Y940189D01*
X851648D01*
X852191Y940414D01*
X852606Y940829D01*
X852831Y941372D01*
Y941959D01*
X852606Y942502D01*
X852191Y942917D01*
X851648Y943142D01*
D02*
G37*
G36*
X937081Y942748D02*
X936494D01*
X935951Y942524D01*
X935536Y942108D01*
X935311Y941566D01*
Y940978D01*
X935536Y940436D01*
X935951Y940020D01*
X936494Y939796D01*
X937081D01*
X937624Y940020D01*
X938039Y940436D01*
X938264Y940978D01*
Y941566D01*
X938039Y942108D01*
X937624Y942524D01*
X937081Y942748D01*
D02*
G37*
G36*
X916215D02*
X915628D01*
X915085Y942524D01*
X914670Y942108D01*
X914445Y941566D01*
Y940978D01*
X914670Y940436D01*
X915085Y940020D01*
X915628Y939796D01*
X916215D01*
X916758Y940020D01*
X917173Y940436D01*
X917398Y940978D01*
Y941566D01*
X917173Y942108D01*
X916758Y942524D01*
X916215Y942748D01*
D02*
G37*
G36*
X883538Y941567D02*
X882951D01*
X882408Y941343D01*
X881993Y940927D01*
X881768Y940384D01*
Y939797D01*
X881993Y939255D01*
X882408Y938839D01*
X882951Y938614D01*
X883538D01*
X884081Y938839D01*
X884496Y939255D01*
X884721Y939797D01*
Y940384D01*
X884496Y940927D01*
X884081Y941343D01*
X883538Y941567D01*
D02*
G37*
G36*
X864247Y941173D02*
X863659D01*
X863117Y940949D01*
X862701Y940534D01*
X862477Y939991D01*
Y939404D01*
X862701Y938861D01*
X863117Y938446D01*
X863659Y938221D01*
X864247D01*
X864789Y938446D01*
X865205Y938861D01*
X865429Y939404D01*
Y939991D01*
X865205Y940534D01*
X864789Y940949D01*
X864247Y941173D01*
D02*
G37*
G36*
X912278Y939599D02*
X911691D01*
X911148Y939374D01*
X910733Y938959D01*
X910508Y938416D01*
Y937829D01*
X910733Y937286D01*
X911148Y936871D01*
X911691Y936646D01*
X912278D01*
X912821Y936871D01*
X913236Y937286D01*
X913461Y937829D01*
Y938416D01*
X913236Y938959D01*
X912821Y939374D01*
X912278Y939599D01*
D02*
G37*
G36*
X890231D02*
X889644D01*
X889101Y939374D01*
X888686Y938959D01*
X888461Y938416D01*
Y937829D01*
X888686Y937286D01*
X889101Y936871D01*
X889644Y936646D01*
X890231D01*
X890773Y936871D01*
X891189Y937286D01*
X891414Y937829D01*
Y938416D01*
X891189Y938959D01*
X890773Y939374D01*
X890231Y939599D01*
D02*
G37*
G36*
X915821Y939205D02*
X915234D01*
X914692Y938980D01*
X914276Y938565D01*
X914051Y938022D01*
Y937435D01*
X914276Y936892D01*
X914692Y936477D01*
X915234Y936252D01*
X915821D01*
X916364Y936477D01*
X916779Y936892D01*
X917004Y937435D01*
Y938022D01*
X916779Y938565D01*
X916364Y938980D01*
X915821Y939205D01*
D02*
G37*
G36*
X903223D02*
X902636D01*
X902093Y938980D01*
X901678Y938565D01*
X901453Y938022D01*
Y937435D01*
X901678Y936892D01*
X902093Y936477D01*
X902636Y936252D01*
X903223D01*
X903766Y936477D01*
X904181Y936892D01*
X904406Y937435D01*
Y938022D01*
X904181Y938565D01*
X903766Y938980D01*
X903223Y939205D01*
D02*
G37*
G36*
X874877D02*
X874289D01*
X873747Y938980D01*
X873331Y938565D01*
X873106Y938022D01*
Y937435D01*
X873331Y936892D01*
X873747Y936477D01*
X874289Y936252D01*
X874877D01*
X875419Y936477D01*
X875834Y936892D01*
X876059Y937435D01*
Y938022D01*
X875834Y938565D01*
X875419Y938980D01*
X874877Y939205D01*
D02*
G37*
G36*
X853223Y937630D02*
X852636D01*
X852093Y937405D01*
X851678Y936990D01*
X851453Y936448D01*
Y935860D01*
X851678Y935318D01*
X852093Y934902D01*
X852636Y934678D01*
X853223D01*
X853766Y934902D01*
X854181Y935318D01*
X854406Y935860D01*
Y936448D01*
X854181Y936990D01*
X853766Y937405D01*
X853223Y937630D01*
D02*
G37*
G36*
X871045Y937396D02*
X870458D01*
X869915Y937171D01*
X869500Y936756D01*
X869275Y936213D01*
Y935626D01*
X869500Y935083D01*
X869915Y934668D01*
X870458Y934443D01*
X871045D01*
X871588Y934668D01*
X872003Y935083D01*
X872228Y935626D01*
Y936213D01*
X872003Y936756D01*
X871588Y937171D01*
X871045Y937396D01*
D02*
G37*
G36*
X864247Y936843D02*
X863659D01*
X863117Y936618D01*
X862701Y936203D01*
X862477Y935660D01*
Y935073D01*
X862701Y934530D01*
X863117Y934115D01*
X863659Y933890D01*
X864247D01*
X864789Y934115D01*
X865205Y934530D01*
X865429Y935073D01*
Y935660D01*
X865205Y936203D01*
X864789Y936618D01*
X864247Y936843D01*
D02*
G37*
G36*
X897794Y936284D02*
X897207D01*
X896664Y936059D01*
X896249Y935644D01*
X896024Y935101D01*
Y934514D01*
X896249Y933971D01*
X896664Y933556D01*
X897207Y933331D01*
X897794D01*
X898337Y933556D01*
X898752Y933971D01*
X898977Y934514D01*
Y935101D01*
X898752Y935644D01*
X898337Y936059D01*
X897794Y936284D01*
D02*
G37*
G36*
X893774Y936055D02*
X893187D01*
X892644Y935831D01*
X892229Y935415D01*
X892004Y934873D01*
Y934285D01*
X892229Y933743D01*
X892644Y933327D01*
X893187Y933103D01*
X893774D01*
X894317Y933327D01*
X894732Y933743D01*
X894957Y934285D01*
Y934873D01*
X894732Y935415D01*
X894317Y935831D01*
X893774Y936055D01*
D02*
G37*
G36*
X889837D02*
X889250D01*
X888707Y935831D01*
X888292Y935415D01*
X888067Y934873D01*
Y934285D01*
X888292Y933743D01*
X888707Y933327D01*
X889250Y933103D01*
X889837D01*
X890380Y933327D01*
X890795Y933743D01*
X891020Y934285D01*
Y934873D01*
X890795Y935415D01*
X890380Y935831D01*
X889837Y936055D01*
D02*
G37*
G36*
X940231Y935662D02*
X939644D01*
X939101Y935437D01*
X938686Y935022D01*
X938461Y934479D01*
Y933892D01*
X938686Y933349D01*
X939101Y932934D01*
X939644Y932709D01*
X940231D01*
X940773Y932934D01*
X941189Y933349D01*
X941414Y933892D01*
Y934479D01*
X941189Y935022D01*
X940773Y935437D01*
X940231Y935662D01*
D02*
G37*
G36*
X919326Y933496D02*
X918817D01*
X918346Y933302D01*
X917986Y932942D01*
X917792Y932471D01*
Y931962D01*
X917986Y931492D01*
X918346Y931132D01*
X918817Y930937D01*
X919326D01*
X919796Y931132D01*
X920156Y931492D01*
X920351Y931962D01*
Y932471D01*
X920156Y932942D01*
X919796Y933302D01*
X919326Y933496D01*
D02*
G37*
G36*
X915428Y933693D02*
X914840D01*
X914298Y933468D01*
X913883Y933053D01*
X913658Y932510D01*
Y931923D01*
X913883Y931381D01*
X914298Y930965D01*
X914840Y930741D01*
X915428D01*
X915970Y930965D01*
X916386Y931381D01*
X916610Y931923D01*
Y932510D01*
X916386Y933053D01*
X915970Y933468D01*
X915428Y933693D01*
D02*
G37*
G36*
X924089Y933300D02*
X923502D01*
X922959Y933075D01*
X922544Y932659D01*
X922319Y932117D01*
Y931530D01*
X922544Y930987D01*
X922959Y930572D01*
X923502Y930347D01*
X924089D01*
X924632Y930572D01*
X925047Y930987D01*
X925272Y931530D01*
Y932117D01*
X925047Y932659D01*
X924632Y933075D01*
X924089Y933300D01*
D02*
G37*
G36*
X854404Y932512D02*
X853817D01*
X853274Y932287D01*
X852859Y931872D01*
X852634Y931329D01*
Y930742D01*
X852859Y930200D01*
X853274Y929784D01*
X853817Y929559D01*
X854404D01*
X854947Y929784D01*
X855362Y930200D01*
X855587Y930742D01*
Y931329D01*
X855362Y931872D01*
X854947Y932287D01*
X854404Y932512D01*
D02*
G37*
G36*
X850861D02*
X850274D01*
X849731Y932287D01*
X849316Y931872D01*
X849091Y931329D01*
Y930742D01*
X849316Y930200D01*
X849731Y929784D01*
X850274Y929559D01*
X850861D01*
X851403Y929784D01*
X851819Y930200D01*
X852044Y930742D01*
Y931329D01*
X851819Y931872D01*
X851403Y932287D01*
X850861Y932512D01*
D02*
G37*
G36*
X851648Y928575D02*
X851061D01*
X850518Y928350D01*
X850103Y927935D01*
X849878Y927392D01*
Y926805D01*
X850103Y926262D01*
X850518Y925847D01*
X851061Y925622D01*
X851648D01*
X852191Y925847D01*
X852606Y926262D01*
X852831Y926805D01*
Y927392D01*
X852606Y927935D01*
X852191Y928350D01*
X851648Y928575D01*
D02*
G37*
G36*
X893774Y928477D02*
X893187D01*
X892644Y928252D01*
X892229Y927837D01*
X892004Y927294D01*
Y926707D01*
X892229Y926164D01*
X892644Y925749D01*
X893187Y925524D01*
X893774D01*
X894317Y925749D01*
X894732Y926164D01*
X894957Y926707D01*
Y927294D01*
X894732Y927837D01*
X894317Y928252D01*
X893774Y928477D01*
D02*
G37*
G36*
X904010Y928181D02*
X903423D01*
X902880Y927957D01*
X902465Y927541D01*
X902240Y926999D01*
Y926411D01*
X902465Y925869D01*
X902880Y925453D01*
X903423Y925229D01*
X904010D01*
X904553Y925453D01*
X904968Y925869D01*
X905193Y926411D01*
Y926999D01*
X904968Y927541D01*
X904553Y927957D01*
X904010Y928181D01*
D02*
G37*
G36*
X843774D02*
X843187D01*
X842644Y927957D01*
X842229Y927541D01*
X842004Y926999D01*
Y926411D01*
X842229Y925869D01*
X842644Y925453D01*
X843187Y925229D01*
X843774D01*
X844317Y925453D01*
X844732Y925869D01*
X844957Y926411D01*
Y926999D01*
X844732Y927541D01*
X844317Y927957D01*
X843774Y928181D01*
D02*
G37*
G36*
X874089Y927788D02*
X873502D01*
X872959Y927563D01*
X872544Y927148D01*
X872319Y926605D01*
Y926018D01*
X872544Y925475D01*
X872959Y925060D01*
X873502Y924835D01*
X874089D01*
X874632Y925060D01*
X875047Y925475D01*
X875272Y926018D01*
Y926605D01*
X875047Y927148D01*
X874632Y927563D01*
X874089Y927788D01*
D02*
G37*
G36*
X866215D02*
X865628D01*
X865085Y927563D01*
X864670Y927148D01*
X864445Y926605D01*
Y926018D01*
X864670Y925475D01*
X865085Y925060D01*
X865628Y924835D01*
X866215D01*
X866758Y925060D01*
X867173Y925475D01*
X867398Y926018D01*
Y926605D01*
X867173Y927148D01*
X866758Y927563D01*
X866215Y927788D01*
D02*
G37*
G36*
X891806Y925426D02*
X891218D01*
X890676Y925201D01*
X890260Y924785D01*
X890036Y924243D01*
Y923656D01*
X890260Y923113D01*
X890676Y922698D01*
X891218Y922473D01*
X891806D01*
X892348Y922698D01*
X892764Y923113D01*
X892988Y923656D01*
Y924243D01*
X892764Y924785D01*
X892348Y925201D01*
X891806Y925426D01*
D02*
G37*
G36*
X904010Y924638D02*
X903423D01*
X902880Y924413D01*
X902465Y923998D01*
X902240Y923455D01*
Y922868D01*
X902465Y922325D01*
X902880Y921910D01*
X903423Y921685D01*
X904010D01*
X904553Y921910D01*
X904968Y922325D01*
X905193Y922868D01*
Y923455D01*
X904968Y923998D01*
X904553Y924413D01*
X904010Y924638D01*
D02*
G37*
G36*
X855585Y924244D02*
X854998D01*
X854455Y924020D01*
X854040Y923604D01*
X853815Y923062D01*
Y922474D01*
X854040Y921932D01*
X854455Y921516D01*
X854998Y921292D01*
X855585D01*
X856128Y921516D01*
X856543Y921932D01*
X856768Y922474D01*
Y923062D01*
X856543Y923604D01*
X856128Y924020D01*
X855585Y924244D01*
D02*
G37*
G36*
X843774D02*
X843187D01*
X842644Y924020D01*
X842229Y923604D01*
X842004Y923062D01*
Y922474D01*
X842229Y921932D01*
X842644Y921516D01*
X843187Y921292D01*
X843774D01*
X844317Y921516D01*
X844732Y921932D01*
X844957Y922474D01*
Y923062D01*
X844732Y923604D01*
X844317Y924020D01*
X843774Y924244D01*
D02*
G37*
G36*
X923656Y923654D02*
X923147D01*
X922677Y923459D01*
X922317Y923099D01*
X922122Y922629D01*
Y922120D01*
X922317Y921649D01*
X922677Y921290D01*
X923147Y921095D01*
X923656D01*
X924127Y921290D01*
X924487Y921649D01*
X924681Y922120D01*
Y922629D01*
X924487Y923099D01*
X924127Y923459D01*
X923656Y923654D01*
D02*
G37*
G36*
X939463Y925229D02*
X938640D01*
X937881Y924914D01*
X937299Y924333D01*
X936985Y923573D01*
Y922751D01*
X937299Y921991D01*
X937881Y921410D01*
X938640Y921095D01*
X939463D01*
X940222Y921410D01*
X940804Y921991D01*
X941118Y922751D01*
Y923573D01*
X940804Y924333D01*
X940222Y924914D01*
X939463Y925229D01*
D02*
G37*
G36*
X928636D02*
X927814D01*
X927054Y924914D01*
X926472Y924333D01*
X926158Y923573D01*
Y922751D01*
X926472Y921991D01*
X927054Y921410D01*
X927814Y921095D01*
X928636D01*
X929395Y921410D01*
X929977Y921991D01*
X930292Y922751D01*
Y923573D01*
X929977Y924333D01*
X929395Y924914D01*
X928636Y925229D01*
D02*
G37*
G36*
X900467Y922670D02*
X899880D01*
X899337Y922445D01*
X898922Y922029D01*
X898697Y921487D01*
Y920900D01*
X898922Y920357D01*
X899337Y919942D01*
X899880Y919717D01*
X900467D01*
X901010Y919942D01*
X901425Y920357D01*
X901650Y920900D01*
Y921487D01*
X901425Y922029D01*
X901010Y922445D01*
X900467Y922670D01*
D02*
G37*
G36*
X855585Y920307D02*
X854998D01*
X854455Y920083D01*
X854040Y919667D01*
X853815Y919125D01*
Y918537D01*
X854040Y917995D01*
X854455Y917579D01*
X854998Y917355D01*
X855585D01*
X856128Y917579D01*
X856543Y917995D01*
X856768Y918537D01*
Y919125D01*
X856543Y919667D01*
X856128Y920083D01*
X855585Y920307D01*
D02*
G37*
G36*
X843774D02*
X843187D01*
X842644Y920083D01*
X842229Y919667D01*
X842004Y919125D01*
Y918537D01*
X842229Y917995D01*
X842644Y917579D01*
X843187Y917355D01*
X843774D01*
X844317Y917579D01*
X844732Y917995D01*
X844957Y918537D01*
Y919125D01*
X844732Y919667D01*
X844317Y920083D01*
X843774Y920307D01*
D02*
G37*
G36*
X867790Y919520D02*
X867203D01*
X866660Y919295D01*
X866245Y918880D01*
X866020Y918337D01*
Y917750D01*
X866245Y917207D01*
X866660Y916792D01*
X867203Y916567D01*
X867790D01*
X868333Y916792D01*
X868748Y917207D01*
X868973Y917750D01*
Y918337D01*
X868748Y918880D01*
X868333Y919295D01*
X867790Y919520D01*
D02*
G37*
G36*
X870940Y917158D02*
X870352D01*
X869810Y916933D01*
X869394Y916518D01*
X869170Y915975D01*
Y915388D01*
X869394Y914845D01*
X869810Y914430D01*
X870352Y914205D01*
X870940D01*
X871482Y914430D01*
X871898Y914845D01*
X872122Y915388D01*
Y915975D01*
X871898Y916518D01*
X871482Y916933D01*
X870940Y917158D01*
D02*
G37*
G36*
X902829Y915977D02*
X902242D01*
X901699Y915752D01*
X901284Y915337D01*
X901059Y914794D01*
Y914207D01*
X901284Y913664D01*
X901699Y913249D01*
X902242Y913024D01*
X902829D01*
X903372Y913249D01*
X903787Y913664D01*
X904012Y914207D01*
Y914794D01*
X903787Y915337D01*
X903372Y915752D01*
X902829Y915977D01*
D02*
G37*
G36*
X865231D02*
X864644D01*
X864101Y915752D01*
X863686Y915337D01*
X863461Y914794D01*
Y914207D01*
X863686Y913664D01*
X864101Y913249D01*
X864644Y913024D01*
X865231D01*
X865773Y913249D01*
X866189Y913664D01*
X866414Y914207D01*
Y914794D01*
X866189Y915337D01*
X865773Y915752D01*
X865231Y915977D01*
D02*
G37*
G36*
X886884Y915780D02*
X886297D01*
X885754Y915555D01*
X885339Y915140D01*
X885114Y914597D01*
Y914010D01*
X885339Y913467D01*
X885754Y913052D01*
X886297Y912827D01*
X886884D01*
X887427Y913052D01*
X887842Y913467D01*
X888067Y914010D01*
Y914597D01*
X887842Y915140D01*
X887427Y915555D01*
X886884Y915780D01*
D02*
G37*
G36*
X882947Y915583D02*
X882360D01*
X881818Y915358D01*
X881402Y914943D01*
X881177Y914400D01*
Y913813D01*
X881402Y913270D01*
X881818Y912855D01*
X882360Y912630D01*
X882947D01*
X883490Y912855D01*
X883905Y913270D01*
X884130Y913813D01*
Y914400D01*
X883905Y914943D01*
X883490Y915358D01*
X882947Y915583D01*
D02*
G37*
G36*
X940625Y913614D02*
X940037D01*
X939495Y913390D01*
X939079Y912974D01*
X938855Y912432D01*
Y911844D01*
X939079Y911302D01*
X939495Y910886D01*
X940037Y910662D01*
X940625D01*
X941167Y910886D01*
X941582Y911302D01*
X941807Y911844D01*
Y912432D01*
X941582Y912974D01*
X941167Y913390D01*
X940625Y913614D01*
D02*
G37*
G36*
X860310Y912827D02*
X859722D01*
X859180Y912602D01*
X858764Y912187D01*
X858540Y911644D01*
Y911057D01*
X858764Y910514D01*
X859180Y910099D01*
X859722Y909874D01*
X860310D01*
X860852Y910099D01*
X861268Y910514D01*
X861492Y911057D01*
Y911644D01*
X861268Y912187D01*
X860852Y912602D01*
X860310Y912827D01*
D02*
G37*
G36*
X885113Y910476D02*
X884525D01*
X883983Y910251D01*
X883568Y909836D01*
X883343Y909293D01*
Y908706D01*
X883568Y908163D01*
X883983Y907748D01*
X884525Y907523D01*
X885113D01*
X885655Y907748D01*
X886071Y908163D01*
X886296Y908706D01*
Y909293D01*
X886071Y909836D01*
X885655Y910251D01*
X885113Y910476D01*
D02*
G37*
G36*
X900861Y910465D02*
X900274D01*
X899731Y910240D01*
X899316Y909825D01*
X899091Y909282D01*
Y908695D01*
X899316Y908152D01*
X899731Y907737D01*
X900274Y907512D01*
X900861D01*
X901403Y907737D01*
X901819Y908152D01*
X902044Y908695D01*
Y909282D01*
X901819Y909825D01*
X901403Y910240D01*
X900861Y910465D01*
D02*
G37*
G36*
X881176Y910409D02*
X880588D01*
X880046Y910184D01*
X879630Y909769D01*
X879406Y909226D01*
Y908639D01*
X879630Y908096D01*
X880046Y907681D01*
X880588Y907456D01*
X881176D01*
X881718Y907681D01*
X882134Y908096D01*
X882358Y908639D01*
Y909226D01*
X882134Y909769D01*
X881718Y910184D01*
X881176Y910409D01*
D02*
G37*
G36*
X888793Y910342D02*
X888206D01*
X887663Y910117D01*
X887248Y909702D01*
X887023Y909159D01*
Y908572D01*
X887248Y908029D01*
X887663Y907614D01*
X888206Y907389D01*
X888793D01*
X889336Y907614D01*
X889751Y908029D01*
X889976Y908572D01*
Y909159D01*
X889751Y909702D01*
X889336Y910117D01*
X888793Y910342D01*
D02*
G37*
G36*
X855979Y908496D02*
X855392D01*
X854849Y908272D01*
X854434Y907856D01*
X854209Y907314D01*
Y906726D01*
X854434Y906184D01*
X854849Y905768D01*
X855392Y905544D01*
X855979D01*
X856522Y905768D01*
X856937Y906184D01*
X857162Y906726D01*
Y907314D01*
X856937Y907856D01*
X856522Y908272D01*
X855979Y908496D01*
D02*
G37*
G36*
X930801Y908461D02*
X930214D01*
X929671Y908236D01*
X929256Y907821D01*
X929031Y907278D01*
Y906691D01*
X929256Y906148D01*
X929671Y905733D01*
X930214Y905508D01*
X930801D01*
X931344Y905733D01*
X931759Y906148D01*
X931984Y906691D01*
Y907278D01*
X931759Y907821D01*
X931344Y908236D01*
X930801Y908461D01*
D02*
G37*
G36*
X863389Y908087D02*
X862802D01*
X862259Y907862D01*
X861844Y907447D01*
X861619Y906904D01*
Y906317D01*
X861844Y905774D01*
X862259Y905359D01*
X862802Y905134D01*
X863389D01*
X863932Y905359D01*
X864347Y905774D01*
X864572Y906317D01*
Y906904D01*
X864347Y907447D01*
X863932Y907862D01*
X863389Y908087D01*
D02*
G37*
G36*
X870152Y907709D02*
X869565D01*
X869022Y907484D01*
X868607Y907069D01*
X868382Y906526D01*
Y905939D01*
X868607Y905396D01*
X869022Y904981D01*
X869565Y904756D01*
X870152D01*
X870695Y904981D01*
X871110Y905396D01*
X871335Y905939D01*
Y906526D01*
X871110Y907069D01*
X870695Y907484D01*
X870152Y907709D01*
D02*
G37*
G36*
X838656Y904166D02*
X838069D01*
X837526Y903941D01*
X837111Y903526D01*
X836886Y902983D01*
Y902396D01*
X837111Y901853D01*
X837526Y901438D01*
X838069Y901213D01*
X838656D01*
X839199Y901438D01*
X839614Y901853D01*
X839839Y902396D01*
Y902983D01*
X839614Y903526D01*
X839199Y903941D01*
X838656Y904166D01*
D02*
G37*
G36*
X869759Y902197D02*
X869171D01*
X868629Y901972D01*
X868213Y901557D01*
X867988Y901015D01*
Y900427D01*
X868213Y899885D01*
X868629Y899469D01*
X869171Y899244D01*
X869759D01*
X870301Y899469D01*
X870716Y899885D01*
X870941Y900427D01*
Y901015D01*
X870716Y901557D01*
X870301Y901972D01*
X869759Y902197D01*
D02*
G37*
G36*
X841412Y899048D02*
X840825D01*
X840282Y898823D01*
X839867Y898407D01*
X839642Y897865D01*
Y897278D01*
X839867Y896735D01*
X840282Y896320D01*
X840825Y896095D01*
X841412D01*
X841955Y896320D01*
X842370Y896735D01*
X842595Y897278D01*
Y897865D01*
X842370Y898407D01*
X841955Y898823D01*
X841412Y899048D01*
D02*
G37*
G36*
X872908Y898654D02*
X872321D01*
X871778Y898429D01*
X871363Y898014D01*
X871138Y897471D01*
Y896884D01*
X871363Y896341D01*
X871778Y895926D01*
X872321Y895701D01*
X872908D01*
X873451Y895926D01*
X873866Y896341D01*
X874091Y896884D01*
Y897471D01*
X873866Y898014D01*
X873451Y898429D01*
X872908Y898654D01*
D02*
G37*
G36*
X907554Y898260D02*
X906966D01*
X906424Y898035D01*
X906009Y897620D01*
X905784Y897077D01*
Y896490D01*
X906009Y895947D01*
X906424Y895532D01*
X906966Y895307D01*
X907554D01*
X908096Y895532D01*
X908512Y895947D01*
X908736Y896490D01*
Y897077D01*
X908512Y897620D01*
X908096Y898035D01*
X907554Y898260D01*
D02*
G37*
G36*
X841412Y894717D02*
X840825D01*
X840282Y894492D01*
X839867Y894077D01*
X839642Y893534D01*
Y892947D01*
X839867Y892404D01*
X840282Y891989D01*
X840825Y891764D01*
X841412D01*
X841955Y891989D01*
X842370Y892404D01*
X842595Y892947D01*
Y893534D01*
X842370Y894077D01*
X841955Y894492D01*
X841412Y894717D01*
D02*
G37*
G36*
X872908Y893536D02*
X872321D01*
X871778Y893311D01*
X871363Y892896D01*
X871138Y892353D01*
Y891766D01*
X871363Y891223D01*
X871778Y890808D01*
X872321Y890583D01*
X872908D01*
X873451Y890808D01*
X873866Y891223D01*
X874091Y891766D01*
Y892353D01*
X873866Y892896D01*
X873451Y893311D01*
X872908Y893536D01*
D02*
G37*
G36*
X916215Y893142D02*
X915628D01*
X915085Y892917D01*
X914670Y892502D01*
X914445Y891959D01*
Y891372D01*
X914670Y890829D01*
X915085Y890414D01*
X915628Y890189D01*
X916215D01*
X916758Y890414D01*
X917173Y890829D01*
X917398Y891372D01*
Y891959D01*
X917173Y892502D01*
X916758Y892917D01*
X916215Y893142D01*
D02*
G37*
G36*
X917278Y920111D02*
X916769D01*
X916299Y919916D01*
X915939Y919556D01*
X915744Y919086D01*
Y918577D01*
X915855Y918310D01*
X915811Y918281D01*
X910471Y912941D01*
X906473D01*
X906165Y912880D01*
X905905Y912706D01*
X905731Y912445D01*
X905670Y912138D01*
Y908504D01*
X905670Y908504D01*
X905731Y908197D01*
X905905Y907936D01*
X908729Y905113D01*
Y904355D01*
X908729Y904355D01*
X908745Y904272D01*
Y900204D01*
X908745Y900204D01*
X908806Y899897D01*
X908980Y899637D01*
X908980Y899637D01*
X909055Y899563D01*
X909315Y899389D01*
X909622Y899327D01*
X913424D01*
X925590Y887161D01*
X925850Y886987D01*
X926158Y886926D01*
X935606D01*
X935606Y886926D01*
X935914Y886987D01*
X936174Y887161D01*
X936174Y887161D01*
X937484Y888471D01*
X937504Y888467D01*
X937920Y888052D01*
X938463Y887827D01*
X939050D01*
X939592Y888052D01*
X940008Y888467D01*
X940232Y889010D01*
Y889597D01*
X940008Y890140D01*
X939592Y890555D01*
X939050Y890780D01*
X938463D01*
X938400Y890754D01*
X937984Y891032D01*
Y901902D01*
X937923Y902209D01*
X937749Y902470D01*
X937749Y902470D01*
X935781Y904438D01*
X935520Y904612D01*
X935213Y904673D01*
X928459D01*
X927748Y905384D01*
Y917650D01*
X927687Y917957D01*
X927513Y918218D01*
X927513Y918218D01*
X925938Y919792D01*
X925677Y919967D01*
X925370Y920028D01*
X918396D01*
X918319Y920012D01*
X918240D01*
X918167Y919982D01*
X918089Y919967D01*
X918023Y919923D01*
X917950Y919892D01*
X917749Y919916D01*
X917278Y920111D01*
D02*
G37*
G36*
X908735Y890780D02*
X908148D01*
X907605Y890555D01*
X907190Y890140D01*
X906965Y889597D01*
Y889010D01*
X907190Y888467D01*
X907605Y888052D01*
X908148Y887827D01*
X908735D01*
X909278Y888052D01*
X909693Y888467D01*
X909918Y889010D01*
Y889597D01*
X909693Y890140D01*
X909278Y890555D01*
X908735Y890780D01*
D02*
G37*
G36*
X900861D02*
X900274D01*
X899731Y890555D01*
X899316Y890140D01*
X899091Y889597D01*
Y889010D01*
X899316Y888467D01*
X899731Y888052D01*
X900274Y887827D01*
X900861D01*
X901403Y888052D01*
X901819Y888467D01*
X902044Y889010D01*
Y889597D01*
X901819Y890140D01*
X901403Y890555D01*
X900861Y890780D01*
D02*
G37*
G36*
X841412Y890386D02*
X840825D01*
X840282Y890161D01*
X839867Y889746D01*
X839642Y889203D01*
Y888616D01*
X839867Y888074D01*
X840282Y887658D01*
X840825Y887433D01*
X841412D01*
X841955Y887658D01*
X842370Y888074D01*
X842595Y888616D01*
Y889203D01*
X842370Y889746D01*
X841955Y890161D01*
X841412Y890386D01*
D02*
G37*
G36*
X902829Y886843D02*
X902242D01*
X901699Y886618D01*
X901284Y886203D01*
X901059Y885660D01*
Y885073D01*
X901284Y884530D01*
X901699Y884115D01*
X902242Y883890D01*
X902829D01*
X903372Y884115D01*
X903787Y884530D01*
X904012Y885073D01*
Y885660D01*
X903787Y886203D01*
X903372Y886618D01*
X902829Y886843D01*
D02*
G37*
G36*
X855585D02*
X854998D01*
X854455Y886618D01*
X854040Y886203D01*
X853815Y885660D01*
Y885073D01*
X854040Y884530D01*
X854455Y884115D01*
X854998Y883890D01*
X855585D01*
X856128Y884115D01*
X856543Y884530D01*
X856768Y885073D01*
Y885660D01*
X856543Y886203D01*
X856128Y886618D01*
X855585Y886843D01*
D02*
G37*
G36*
X860310Y884874D02*
X859722D01*
X859180Y884650D01*
X858764Y884234D01*
X858540Y883692D01*
Y883104D01*
X858764Y882562D01*
X859180Y882146D01*
X859722Y881922D01*
X860310D01*
X860852Y882146D01*
X861268Y882562D01*
X861492Y883104D01*
Y883692D01*
X861268Y884234D01*
X860852Y884650D01*
X860310Y884874D01*
D02*
G37*
G36*
X840231D02*
X839644D01*
X839101Y884650D01*
X838686Y884234D01*
X838461Y883692D01*
Y883104D01*
X838686Y882562D01*
X839101Y882146D01*
X839644Y881922D01*
X840231D01*
X840773Y882146D01*
X841189Y882562D01*
X841414Y883104D01*
Y883692D01*
X841189Y884234D01*
X840773Y884650D01*
X840231Y884874D01*
D02*
G37*
G36*
X932751Y884087D02*
X932163D01*
X931621Y883862D01*
X931205Y883447D01*
X930981Y882904D01*
Y882317D01*
X931205Y881774D01*
X931621Y881359D01*
X932163Y881134D01*
X932751D01*
X933293Y881359D01*
X933708Y881774D01*
X933933Y882317D01*
Y882904D01*
X933708Y883447D01*
X933293Y883862D01*
X932751Y884087D01*
D02*
G37*
G36*
X928420D02*
X927833D01*
X927290Y883862D01*
X926875Y883447D01*
X926650Y882904D01*
Y882317D01*
X926875Y881774D01*
X927290Y881359D01*
X927833Y881134D01*
X928420D01*
X928963Y881359D01*
X929378Y881774D01*
X929603Y882317D01*
Y882904D01*
X929378Y883447D01*
X928963Y883862D01*
X928420Y884087D01*
D02*
G37*
G36*
X890625Y882118D02*
X890037D01*
X889495Y881894D01*
X889079Y881478D01*
X888855Y880936D01*
Y880348D01*
X889079Y879806D01*
X889495Y879391D01*
X890037Y879166D01*
X890625D01*
X891167Y879391D01*
X891582Y879806D01*
X891807Y880348D01*
Y880936D01*
X891582Y881478D01*
X891167Y881894D01*
X890625Y882118D01*
D02*
G37*
G36*
X844955Y881725D02*
X844368D01*
X843825Y881500D01*
X843410Y881085D01*
X843185Y880542D01*
Y879955D01*
X843410Y879412D01*
X843825Y878997D01*
X844368Y878772D01*
X844955D01*
X845498Y878997D01*
X845913Y879412D01*
X846138Y879955D01*
Y880542D01*
X845913Y881085D01*
X845498Y881500D01*
X844955Y881725D01*
D02*
G37*
G36*
X865428Y880937D02*
X864840D01*
X864298Y880713D01*
X863883Y880297D01*
X863658Y879755D01*
Y879167D01*
X863883Y878625D01*
X864298Y878209D01*
X864840Y877985D01*
X865428D01*
X865970Y878209D01*
X866386Y878625D01*
X866610Y879167D01*
Y879755D01*
X866386Y880297D01*
X865970Y880713D01*
X865428Y880937D01*
D02*
G37*
G36*
X855585Y878969D02*
X854998D01*
X854455Y878744D01*
X854040Y878329D01*
X853815Y877786D01*
Y877199D01*
X854040Y876656D01*
X854455Y876241D01*
X854998Y876016D01*
X855585D01*
X856128Y876241D01*
X856543Y876656D01*
X856768Y877199D01*
Y877786D01*
X856543Y878329D01*
X856128Y878744D01*
X855585Y878969D01*
D02*
G37*
G36*
X883932Y878575D02*
X883344D01*
X882802Y878350D01*
X882386Y877935D01*
X882162Y877392D01*
Y876805D01*
X882386Y876262D01*
X882802Y875847D01*
X883344Y875622D01*
X883932D01*
X884474Y875847D01*
X884890Y876262D01*
X885114Y876805D01*
Y877392D01*
X884890Y877935D01*
X884474Y878350D01*
X883932Y878575D01*
D02*
G37*
G36*
X931176Y878181D02*
X930588D01*
X930046Y877957D01*
X929630Y877541D01*
X929406Y876999D01*
Y876411D01*
X929630Y875869D01*
X930046Y875453D01*
X930588Y875229D01*
X931176D01*
X931718Y875453D01*
X932134Y875869D01*
X932358Y876411D01*
Y876999D01*
X932134Y877541D01*
X931718Y877957D01*
X931176Y878181D01*
D02*
G37*
G36*
X887869Y877394D02*
X887281D01*
X886739Y877169D01*
X886323Y876754D01*
X886099Y876211D01*
Y875624D01*
X886323Y875081D01*
X886739Y874666D01*
X887281Y874441D01*
X887869D01*
X888411Y874666D01*
X888827Y875081D01*
X889051Y875624D01*
Y876211D01*
X888827Y876754D01*
X888411Y877169D01*
X887869Y877394D01*
D02*
G37*
G36*
X920546Y877000D02*
X919958D01*
X919416Y876775D01*
X919001Y876360D01*
X918776Y875818D01*
Y875230D01*
X919001Y874688D01*
X919416Y874272D01*
X919958Y874048D01*
X920546D01*
X921089Y874272D01*
X921504Y874688D01*
X921729Y875230D01*
Y875818D01*
X921504Y876360D01*
X921089Y876775D01*
X920546Y877000D01*
D02*
G37*
G36*
X868184Y876607D02*
X867596D01*
X867054Y876382D01*
X866638Y875966D01*
X866414Y875424D01*
Y874837D01*
X866638Y874294D01*
X867054Y873879D01*
X867596Y873654D01*
X868184D01*
X868726Y873879D01*
X869142Y874294D01*
X869366Y874837D01*
Y875424D01*
X869142Y875966D01*
X868726Y876382D01*
X868184Y876607D01*
D02*
G37*
G36*
X905585Y876213D02*
X904998D01*
X904455Y875988D01*
X904040Y875573D01*
X903815Y875030D01*
Y874443D01*
X904040Y873900D01*
X904455Y873485D01*
X904998Y873260D01*
X905585D01*
X906128Y873485D01*
X906543Y873900D01*
X906768Y874443D01*
Y875030D01*
X906543Y875573D01*
X906128Y875988D01*
X905585Y876213D01*
D02*
G37*
G36*
X901648D02*
X901061D01*
X900518Y875988D01*
X900103Y875573D01*
X899878Y875030D01*
Y874443D01*
X900103Y873900D01*
X900518Y873485D01*
X901061Y873260D01*
X901648D01*
X902191Y873485D01*
X902606Y873900D01*
X902831Y874443D01*
Y875030D01*
X902606Y875573D01*
X902191Y875988D01*
X901648Y876213D01*
D02*
G37*
G36*
X897711D02*
X897124D01*
X896581Y875988D01*
X896166Y875573D01*
X895941Y875030D01*
Y874443D01*
X896166Y873900D01*
X896581Y873485D01*
X897124Y873260D01*
X897711D01*
X898254Y873485D01*
X898669Y873900D01*
X898894Y874443D01*
Y875030D01*
X898669Y875573D01*
X898254Y875988D01*
X897711Y876213D01*
D02*
G37*
G36*
X879995D02*
X879407D01*
X878865Y875988D01*
X878449Y875573D01*
X878225Y875030D01*
Y874443D01*
X878449Y873900D01*
X878865Y873485D01*
X879407Y873260D01*
X879995D01*
X880537Y873485D01*
X880953Y873900D01*
X881177Y874443D01*
Y875030D01*
X880953Y875573D01*
X880537Y875988D01*
X879995Y876213D01*
D02*
G37*
G36*
X876058D02*
X875470D01*
X874928Y875988D01*
X874512Y875573D01*
X874288Y875030D01*
Y874443D01*
X874512Y873900D01*
X874928Y873485D01*
X875470Y873260D01*
X876058D01*
X876600Y873485D01*
X877016Y873900D01*
X877240Y874443D01*
Y875030D01*
X877016Y875573D01*
X876600Y875988D01*
X876058Y876213D01*
D02*
G37*
G36*
X872121D02*
X871533D01*
X870991Y875988D01*
X870575Y875573D01*
X870351Y875030D01*
Y874443D01*
X870575Y873900D01*
X870991Y873485D01*
X871533Y873260D01*
X872121D01*
X872663Y873485D01*
X873079Y873900D01*
X873303Y874443D01*
Y875030D01*
X873079Y875573D01*
X872663Y875988D01*
X872121Y876213D01*
D02*
G37*
G36*
X864247D02*
X863659D01*
X863117Y875988D01*
X862701Y875573D01*
X862477Y875030D01*
Y874443D01*
X862701Y873900D01*
X863117Y873485D01*
X863659Y873260D01*
X864247D01*
X864789Y873485D01*
X865205Y873900D01*
X865429Y874443D01*
Y875030D01*
X865205Y875573D01*
X864789Y875988D01*
X864247Y876213D01*
D02*
G37*
G36*
X860310D02*
X859722D01*
X859180Y875988D01*
X858764Y875573D01*
X858540Y875030D01*
Y874443D01*
X858764Y873900D01*
X859180Y873485D01*
X859722Y873260D01*
X860310D01*
X860852Y873485D01*
X861268Y873900D01*
X861492Y874443D01*
Y875030D01*
X861268Y875573D01*
X860852Y875988D01*
X860310Y876213D01*
D02*
G37*
G36*
X910703Y873457D02*
X910116D01*
X909573Y873232D01*
X909158Y872817D01*
X908933Y872274D01*
Y871687D01*
X909158Y871144D01*
X909573Y870729D01*
X910116Y870504D01*
X910703D01*
X911246Y870729D01*
X911661Y871144D01*
X911886Y871687D01*
Y872274D01*
X911661Y872817D01*
X911246Y873232D01*
X910703Y873457D01*
D02*
G37*
G36*
X931176Y870307D02*
X930588D01*
X930046Y870083D01*
X929630Y869667D01*
X929406Y869125D01*
Y868537D01*
X929630Y867995D01*
X930046Y867579D01*
X930588Y867355D01*
X931176D01*
X931718Y867579D01*
X932134Y867995D01*
X932358Y868537D01*
Y869125D01*
X932134Y869667D01*
X931718Y870083D01*
X931176Y870307D01*
D02*
G37*
G36*
X910310Y869126D02*
X909722D01*
X909180Y868902D01*
X908764Y868486D01*
X908540Y867944D01*
Y867356D01*
X908764Y866814D01*
X909180Y866398D01*
X909722Y866174D01*
X910310D01*
X910852Y866398D01*
X911268Y866814D01*
X911492Y867356D01*
Y867944D01*
X911268Y868486D01*
X910852Y868902D01*
X910310Y869126D01*
D02*
G37*
G36*
X878026D02*
X877439D01*
X876896Y868902D01*
X876481Y868486D01*
X876256Y867944D01*
Y867356D01*
X876481Y866814D01*
X876896Y866398D01*
X877439Y866174D01*
X878026D01*
X878569Y866398D01*
X878984Y866814D01*
X879209Y867356D01*
Y867944D01*
X878984Y868486D01*
X878569Y868902D01*
X878026Y869126D01*
D02*
G37*
G36*
X874089D02*
X873502D01*
X872959Y868902D01*
X872544Y868486D01*
X872319Y867944D01*
Y867356D01*
X872544Y866814D01*
X872959Y866398D01*
X873502Y866174D01*
X874089D01*
X874632Y866398D01*
X875047Y866814D01*
X875272Y867356D01*
Y867944D01*
X875047Y868486D01*
X874632Y868902D01*
X874089Y869126D01*
D02*
G37*
G36*
X870152D02*
X869565D01*
X869022Y868902D01*
X868607Y868486D01*
X868382Y867944D01*
Y867356D01*
X868607Y866814D01*
X869022Y866398D01*
X869565Y866174D01*
X870152D01*
X870695Y866398D01*
X871110Y866814D01*
X871335Y867356D01*
Y867944D01*
X871110Y868486D01*
X870695Y868902D01*
X870152Y869126D01*
D02*
G37*
G36*
X866215D02*
X865628D01*
X865085Y868902D01*
X864670Y868486D01*
X864445Y867944D01*
Y867356D01*
X864670Y866814D01*
X865085Y866398D01*
X865628Y866174D01*
X866215D01*
X866758Y866398D01*
X867173Y866814D01*
X867398Y867356D01*
Y867944D01*
X867173Y868486D01*
X866758Y868902D01*
X866215Y869126D01*
D02*
G37*
G36*
X885900Y868733D02*
X885313D01*
X884770Y868508D01*
X884355Y868093D01*
X884130Y867550D01*
Y866963D01*
X884355Y866420D01*
X884770Y866005D01*
X885313Y865780D01*
X885900D01*
X886443Y866005D01*
X886858Y866420D01*
X887083Y866963D01*
Y867550D01*
X886858Y868093D01*
X886443Y868508D01*
X885900Y868733D01*
D02*
G37*
G36*
X849680Y867945D02*
X849092D01*
X848550Y867720D01*
X848134Y867305D01*
X847910Y866763D01*
Y866175D01*
X848134Y865633D01*
X848550Y865217D01*
X849092Y864992D01*
X849680D01*
X850222Y865217D01*
X850638Y865633D01*
X850862Y866175D01*
Y866763D01*
X850638Y867305D01*
X850222Y867720D01*
X849680Y867945D01*
D02*
G37*
G36*
X908341Y864796D02*
X907754D01*
X907211Y864571D01*
X906796Y864155D01*
X906571Y863613D01*
Y863025D01*
X906796Y862483D01*
X907211Y862068D01*
X907754Y861843D01*
X908341D01*
X908884Y862068D01*
X909299Y862483D01*
X909524Y863025D01*
Y863613D01*
X909299Y864155D01*
X908884Y864571D01*
X908341Y864796D01*
D02*
G37*
G36*
X864247Y864402D02*
X863659D01*
X863117Y864177D01*
X862701Y863762D01*
X862477Y863219D01*
Y862632D01*
X862701Y862089D01*
X863117Y861674D01*
X863659Y861449D01*
X864247D01*
X864789Y861674D01*
X865205Y862089D01*
X865429Y862632D01*
Y863219D01*
X865205Y863762D01*
X864789Y864177D01*
X864247Y864402D01*
D02*
G37*
G36*
X855192D02*
X854604D01*
X854062Y864177D01*
X853646Y863762D01*
X853421Y863219D01*
Y862632D01*
X853646Y862089D01*
X854062Y861674D01*
X854604Y861449D01*
X855192D01*
X855734Y861674D01*
X856149Y862089D01*
X856374Y862632D01*
Y863219D01*
X856149Y863762D01*
X855734Y864177D01*
X855192Y864402D01*
D02*
G37*
G36*
X892987Y864008D02*
X892400D01*
X891857Y863783D01*
X891442Y863368D01*
X891217Y862825D01*
Y862238D01*
X891442Y861695D01*
X891857Y861280D01*
X892400Y861055D01*
X892987D01*
X893529Y861280D01*
X893945Y861695D01*
X894170Y862238D01*
Y862825D01*
X893945Y863368D01*
X893529Y863783D01*
X892987Y864008D01*
D02*
G37*
G36*
X926845Y863614D02*
X926258D01*
X925715Y863390D01*
X925300Y862974D01*
X925075Y862432D01*
Y861844D01*
X925300Y861302D01*
X925715Y860886D01*
X926258Y860662D01*
X926845D01*
X927388Y860886D01*
X927803Y861302D01*
X928028Y861844D01*
Y862432D01*
X927803Y862974D01*
X927388Y863390D01*
X926845Y863614D01*
D02*
G37*
G36*
X903617Y862827D02*
X903029D01*
X902487Y862602D01*
X902071Y862187D01*
X901847Y861644D01*
Y861057D01*
X902071Y860514D01*
X902487Y860099D01*
X903029Y859874D01*
X903617D01*
X904159Y860099D01*
X904575Y860514D01*
X904799Y861057D01*
Y861644D01*
X904575Y862187D01*
X904159Y862602D01*
X903617Y862827D01*
D02*
G37*
G36*
X910703Y860859D02*
X910116D01*
X909573Y860634D01*
X909158Y860219D01*
X908933Y859676D01*
Y859089D01*
X909158Y858546D01*
X909573Y858131D01*
X910116Y857906D01*
X910703D01*
X911246Y858131D01*
X911661Y858546D01*
X911886Y859089D01*
Y859676D01*
X911661Y860219D01*
X911246Y860634D01*
X910703Y860859D01*
D02*
G37*
G36*
X928026Y859678D02*
X927439D01*
X926896Y859453D01*
X926481Y859037D01*
X926256Y858495D01*
Y857907D01*
X926481Y857365D01*
X926896Y856950D01*
X927439Y856725D01*
X928026D01*
X928569Y856950D01*
X928984Y857365D01*
X929209Y857907D01*
Y858495D01*
X928984Y859037D01*
X928569Y859453D01*
X928026Y859678D01*
D02*
G37*
G36*
X831569Y858890D02*
X830982D01*
X830439Y858665D01*
X830024Y858250D01*
X829799Y857707D01*
Y857120D01*
X830024Y856577D01*
X830439Y856162D01*
X830982Y855937D01*
X831569D01*
X832112Y856162D01*
X832527Y856577D01*
X832752Y857120D01*
Y857707D01*
X832527Y858250D01*
X832112Y858665D01*
X831569Y858890D01*
D02*
G37*
G36*
X935507Y856922D02*
X934919D01*
X934377Y856697D01*
X933961Y856281D01*
X933736Y855739D01*
Y855151D01*
X933961Y854609D01*
X934377Y854194D01*
X934919Y853969D01*
X935507D01*
X936049Y854194D01*
X936464Y854609D01*
X936689Y855151D01*
Y855739D01*
X936464Y856281D01*
X936049Y856697D01*
X935507Y856922D01*
D02*
G37*
G36*
X859128Y855509D02*
X858541D01*
X857999Y855285D01*
X857583Y854869D01*
X857358Y854327D01*
Y853739D01*
X857583Y853197D01*
X857999Y852781D01*
X858541Y852557D01*
X859128D01*
X859671Y852781D01*
X860087Y853197D01*
X860311Y853739D01*
Y854327D01*
X860087Y854869D01*
X859671Y855285D01*
X859128Y855509D01*
D02*
G37*
G36*
X863459Y854953D02*
X862872D01*
X862329Y854728D01*
X861914Y854313D01*
X861689Y853770D01*
Y853183D01*
X861914Y852640D01*
X862329Y852225D01*
X862872Y852000D01*
X863459D01*
X864002Y852225D01*
X864417Y852640D01*
X864642Y853183D01*
Y853770D01*
X864417Y854313D01*
X864002Y854728D01*
X863459Y854953D01*
D02*
G37*
G36*
X831569Y852985D02*
X830982D01*
X830439Y852760D01*
X830024Y852345D01*
X829799Y851802D01*
Y851215D01*
X830024Y850672D01*
X830439Y850257D01*
X830982Y850032D01*
X831569D01*
X832112Y850257D01*
X832527Y850672D01*
X832752Y851215D01*
Y851802D01*
X832527Y852345D01*
X832112Y852760D01*
X831569Y852985D01*
D02*
G37*
G36*
X893381Y850229D02*
X892793D01*
X892251Y850004D01*
X891835Y849589D01*
X891611Y849046D01*
Y848459D01*
X891835Y847916D01*
X892251Y847501D01*
X892793Y847276D01*
X893381D01*
X893923Y847501D01*
X894338Y847916D01*
X894563Y848459D01*
Y849046D01*
X894338Y849589D01*
X893923Y850004D01*
X893381Y850229D01*
D02*
G37*
G36*
Y845111D02*
X892793D01*
X892251Y844886D01*
X891835Y844471D01*
X891611Y843928D01*
Y843340D01*
X891835Y842798D01*
X892251Y842383D01*
X892793Y842158D01*
X893381D01*
X893923Y842383D01*
X894338Y842798D01*
X894563Y843340D01*
Y843928D01*
X894338Y844471D01*
X893923Y844886D01*
X893381Y845111D01*
D02*
G37*
G36*
X881176Y843142D02*
X880588D01*
X880046Y842917D01*
X879630Y842502D01*
X879406Y841959D01*
Y841372D01*
X879630Y840829D01*
X880046Y840414D01*
X880588Y840189D01*
X881176D01*
X881718Y840414D01*
X882134Y840829D01*
X882358Y841372D01*
Y841959D01*
X882134Y842502D01*
X881718Y842917D01*
X881176Y843142D01*
D02*
G37*
G36*
X876058D02*
X875470D01*
X874928Y842917D01*
X874512Y842502D01*
X874288Y841959D01*
Y841372D01*
X874512Y840829D01*
X874928Y840414D01*
X875470Y840189D01*
X876058D01*
X876600Y840414D01*
X877016Y840829D01*
X877240Y841372D01*
Y841959D01*
X877016Y842502D01*
X876600Y842917D01*
X876058Y843142D01*
D02*
G37*
G36*
X881176Y838024D02*
X880588D01*
X880046Y837799D01*
X879630Y837384D01*
X879406Y836841D01*
Y836254D01*
X879630Y835711D01*
X880046Y835296D01*
X880588Y835071D01*
X881176D01*
X881718Y835296D01*
X882134Y835711D01*
X882358Y836254D01*
Y836841D01*
X882134Y837384D01*
X881718Y837799D01*
X881176Y838024D01*
D02*
G37*
G36*
X876058D02*
X875470D01*
X874928Y837799D01*
X874512Y837384D01*
X874288Y836841D01*
Y836254D01*
X874512Y835711D01*
X874928Y835296D01*
X875470Y835071D01*
X876058D01*
X876600Y835296D01*
X877016Y835711D01*
X877240Y836254D01*
Y836841D01*
X877016Y837384D01*
X876600Y837799D01*
X876058Y838024D01*
D02*
G37*
G36*
X864640D02*
X864053D01*
X863510Y837799D01*
X863095Y837384D01*
X862870Y836841D01*
Y836254D01*
X863095Y835711D01*
X863510Y835296D01*
X864053Y835071D01*
X864640D01*
X865183Y835296D01*
X865598Y835711D01*
X865823Y836254D01*
Y836841D01*
X865598Y837384D01*
X865183Y837799D01*
X864640Y838024D01*
D02*
G37*
G36*
Y833300D02*
X864053D01*
X863510Y833075D01*
X863095Y832659D01*
X862870Y832117D01*
Y831530D01*
X863095Y830987D01*
X863510Y830572D01*
X864053Y830347D01*
X864640D01*
X865183Y830572D01*
X865598Y830987D01*
X865823Y831530D01*
Y832117D01*
X865598Y832659D01*
X865183Y833075D01*
X864640Y833300D01*
D02*
G37*
G36*
X892390Y833109D02*
X891802D01*
X891260Y832885D01*
X890844Y832469D01*
X890620Y831927D01*
Y831339D01*
X890844Y830797D01*
X891260Y830381D01*
X891802Y830157D01*
X892390D01*
X892932Y830381D01*
X893348Y830797D01*
X893572Y831339D01*
Y831927D01*
X893348Y832469D01*
X892932Y832885D01*
X892390Y833109D01*
D02*
G37*
G36*
X886654Y833087D02*
X886067D01*
X885524Y832862D01*
X885109Y832447D01*
X884884Y831905D01*
Y831317D01*
X885109Y830775D01*
X885524Y830359D01*
X886067Y830134D01*
X886654D01*
X887197Y830359D01*
X887612Y830775D01*
X887837Y831317D01*
Y831905D01*
X887612Y832447D01*
X887197Y832862D01*
X886654Y833087D01*
D02*
G37*
G36*
X936255Y828378D02*
X935746D01*
X935275Y828183D01*
X934916Y827824D01*
X934721Y827353D01*
Y826844D01*
X934916Y826374D01*
X935275Y826014D01*
X935746Y825819D01*
X936255D01*
X936725Y826014D01*
X937085Y826374D01*
X937280Y826844D01*
Y827353D01*
X937085Y827824D01*
X936725Y828183D01*
X936255Y828378D01*
D02*
G37*
G36*
X930782Y825819D02*
X930195D01*
X929652Y825594D01*
X929237Y825179D01*
X929012Y824636D01*
Y824049D01*
X929237Y823507D01*
X929652Y823091D01*
X930195Y822867D01*
X930782D01*
X931325Y823091D01*
X931740Y823507D01*
X931965Y824049D01*
Y824636D01*
X931740Y825179D01*
X931325Y825594D01*
X930782Y825819D01*
D02*
G37*
G36*
X837351Y824014D02*
X836764D01*
X836221Y823789D01*
X835806Y823374D01*
X835581Y822831D01*
Y822243D01*
X835806Y821701D01*
X836221Y821286D01*
X836764Y821061D01*
X837351D01*
X837894Y821286D01*
X838309Y821701D01*
X838534Y822243D01*
Y822831D01*
X838309Y823374D01*
X837894Y823789D01*
X837351Y824014D01*
D02*
G37*
G36*
X880743Y822079D02*
X880234D01*
X879764Y821884D01*
X879404Y821524D01*
X879209Y821054D01*
Y820545D01*
X879404Y820075D01*
X879764Y819715D01*
X880234Y819520D01*
X880743D01*
X881213Y819715D01*
X881573Y820075D01*
X881768Y820545D01*
Y821054D01*
X881573Y821524D01*
X881213Y821884D01*
X880743Y822079D01*
D02*
G37*
G36*
X839050Y819914D02*
X838463D01*
X837920Y819689D01*
X837504Y819274D01*
X837280Y818731D01*
Y818144D01*
X837504Y817601D01*
X837920Y817186D01*
X838463Y816961D01*
X839050D01*
X839592Y817186D01*
X840008Y817601D01*
X840232Y818144D01*
Y818731D01*
X840008Y819274D01*
X839592Y819689D01*
X839050Y819914D01*
D02*
G37*
G36*
X842987Y819914D02*
X842400D01*
X841857Y819689D01*
X841442Y819274D01*
X841217Y818731D01*
Y818144D01*
X841442Y817601D01*
X841857Y817186D01*
X842400Y816961D01*
X842987D01*
X843529Y817186D01*
X843945Y817601D01*
X844170Y818144D01*
Y818731D01*
X843945Y819274D01*
X843529Y819689D01*
X842987Y819914D01*
D02*
G37*
G36*
X924483Y818733D02*
X923895D01*
X923353Y818508D01*
X922938Y818093D01*
X922713Y817550D01*
Y816963D01*
X922938Y816420D01*
X923353Y816005D01*
X923895Y815780D01*
X924483D01*
X925025Y816005D01*
X925441Y816420D01*
X925666Y816963D01*
Y817550D01*
X925441Y818093D01*
X925025Y818508D01*
X924483Y818733D01*
D02*
G37*
G36*
X928814Y818339D02*
X928226D01*
X927684Y818114D01*
X927268Y817699D01*
X927044Y817156D01*
Y816569D01*
X927268Y816026D01*
X927684Y815611D01*
X928226Y815386D01*
X928814D01*
X929356Y815611D01*
X929772Y816026D01*
X929996Y816569D01*
Y817156D01*
X929772Y817699D01*
X929356Y818114D01*
X928814Y818339D01*
D02*
G37*
G36*
X839050Y815977D02*
X838463D01*
X837920Y815752D01*
X837504Y815337D01*
X837280Y814794D01*
Y814207D01*
X837504Y813664D01*
X837920Y813249D01*
X838463Y813024D01*
X839050D01*
X839592Y813249D01*
X840008Y813664D01*
X840232Y814207D01*
Y814794D01*
X840008Y815337D01*
X839592Y815752D01*
X839050Y815977D01*
D02*
G37*
G36*
X931569Y814796D02*
X930982D01*
X930439Y814571D01*
X930024Y814155D01*
X929799Y813613D01*
Y813025D01*
X930024Y812483D01*
X930439Y812068D01*
X930982Y811843D01*
X931569D01*
X932112Y812068D01*
X932527Y812483D01*
X932752Y813025D01*
Y813613D01*
X932527Y814155D01*
X932112Y814571D01*
X931569Y814796D01*
D02*
G37*
G36*
X839050Y812040D02*
X838463D01*
X837920Y811815D01*
X837504Y811400D01*
X837280Y810857D01*
Y810270D01*
X837504Y809727D01*
X837920Y809312D01*
X838463Y809087D01*
X839050D01*
X839592Y809312D01*
X840008Y809727D01*
X840232Y810270D01*
Y810857D01*
X840008Y811400D01*
X839592Y811815D01*
X839050Y812040D01*
D02*
G37*
G36*
X933932Y809284D02*
X933344D01*
X932802Y809059D01*
X932386Y808644D01*
X932162Y808101D01*
Y807514D01*
X932386Y806971D01*
X932802Y806556D01*
X933344Y806331D01*
X933932D01*
X934474Y806556D01*
X934890Y806971D01*
X935114Y807514D01*
Y808101D01*
X934890Y808644D01*
X934474Y809059D01*
X933932Y809284D01*
D02*
G37*
G36*
X928988Y808671D02*
X928401D01*
X927858Y808446D01*
X927443Y808031D01*
X927218Y807488D01*
Y806901D01*
X927443Y806358D01*
X927858Y805943D01*
X928401Y805718D01*
X928988D01*
X929531Y805943D01*
X929946Y806358D01*
X930171Y806901D01*
Y807488D01*
X929946Y808031D01*
X929531Y808446D01*
X928988Y808671D01*
D02*
G37*
G36*
X842987Y808103D02*
X842400D01*
X841857Y807878D01*
X841442Y807463D01*
X841217Y806920D01*
Y806333D01*
X841442Y805790D01*
X841857Y805375D01*
X842400Y805150D01*
X842987D01*
X843529Y805375D01*
X843945Y805790D01*
X844170Y806333D01*
Y806920D01*
X843945Y807463D01*
X843529Y807878D01*
X842987Y808103D01*
D02*
G37*
G36*
X839050D02*
X838463D01*
X837920Y807878D01*
X837504Y807463D01*
X837280Y806920D01*
Y806333D01*
X837504Y805790D01*
X837920Y805375D01*
X838463Y805150D01*
X839050D01*
X839592Y805375D01*
X840008Y805790D01*
X840232Y806333D01*
Y806920D01*
X840008Y807463D01*
X839592Y807878D01*
X839050Y808103D01*
D02*
G37*
G36*
Y804166D02*
X838463D01*
X837920Y803941D01*
X837504Y803526D01*
X837280Y802983D01*
Y802396D01*
X837504Y801853D01*
X837920Y801438D01*
X838463Y801213D01*
X839050D01*
X839592Y801438D01*
X840008Y801853D01*
X840232Y802396D01*
Y802983D01*
X840008Y803526D01*
X839592Y803941D01*
X839050Y804166D01*
D02*
G37*
G36*
X935113Y803378D02*
X934525D01*
X933983Y803154D01*
X933568Y802738D01*
X933343Y802196D01*
Y801608D01*
X933568Y801066D01*
X933983Y800650D01*
X934525Y800426D01*
X935113D01*
X935655Y800650D01*
X936071Y801066D01*
X936296Y801608D01*
Y802196D01*
X936071Y802738D01*
X935655Y803154D01*
X935113Y803378D01*
D02*
G37*
G36*
X905585Y804559D02*
X904998D01*
X904455Y804335D01*
X904040Y803919D01*
X903815Y803377D01*
Y802789D01*
X904040Y802247D01*
X904455Y801831D01*
X904998Y801607D01*
X905585D01*
X906074Y801809D01*
X906324Y801715D01*
X906571Y801567D01*
Y801215D01*
X906796Y800672D01*
X907211Y800257D01*
X907754Y800032D01*
X908341D01*
X908884Y800257D01*
X909299Y800672D01*
X909524Y801215D01*
Y801802D01*
X909299Y802345D01*
X908884Y802760D01*
X908341Y802985D01*
X907754D01*
X907265Y802782D01*
X907016Y802876D01*
X906768Y803024D01*
Y803377D01*
X906543Y803919D01*
X906128Y804335D01*
X905585Y804559D01*
D02*
G37*
G36*
X924483Y801726D02*
X923895D01*
X923353Y801501D01*
X922938Y801086D01*
X922713Y800543D01*
Y799956D01*
X922938Y799413D01*
X923353Y798998D01*
X923895Y798773D01*
X924483D01*
X925025Y798998D01*
X925441Y799413D01*
X925666Y799956D01*
Y800543D01*
X925441Y801086D01*
X925025Y801501D01*
X924483Y801726D01*
D02*
G37*
G36*
X899680Y800622D02*
X899092D01*
X898550Y800398D01*
X898134Y799982D01*
X897910Y799440D01*
Y798852D01*
X898134Y798310D01*
X898550Y797894D01*
X899092Y797670D01*
X899680D01*
X900222Y797894D01*
X900638Y798310D01*
X900862Y798852D01*
Y799440D01*
X900638Y799982D01*
X900222Y800398D01*
X899680Y800622D01*
D02*
G37*
G36*
X888951Y800254D02*
X888364D01*
X887821Y800029D01*
X887406Y799614D01*
X887181Y799071D01*
Y798484D01*
X887406Y797941D01*
X887821Y797526D01*
X888364Y797301D01*
X888951D01*
X889494Y797526D01*
X889909Y797941D01*
X890134Y798484D01*
Y799071D01*
X889909Y799614D01*
X889494Y800029D01*
X888951Y800254D01*
D02*
G37*
G36*
X839050Y800229D02*
X838463D01*
X837920Y800004D01*
X837504Y799589D01*
X837280Y799046D01*
Y798459D01*
X837504Y797916D01*
X837920Y797501D01*
X838463Y797276D01*
X839050D01*
X839592Y797501D01*
X840008Y797916D01*
X840232Y798459D01*
Y799046D01*
X840008Y799589D01*
X839592Y800004D01*
X839050Y800229D01*
D02*
G37*
G36*
X933932Y799835D02*
X933344D01*
X932802Y799610D01*
X932386Y799195D01*
X932162Y798652D01*
Y798065D01*
X932386Y797522D01*
X932802Y797107D01*
X933344Y796882D01*
X933932D01*
X934474Y797107D01*
X934890Y797522D01*
X935114Y798065D01*
Y798652D01*
X934890Y799195D01*
X934474Y799610D01*
X933932Y799835D01*
D02*
G37*
G36*
X931766Y797079D02*
X931179D01*
X930636Y796854D01*
X930221Y796439D01*
X929996Y795896D01*
Y795309D01*
X930221Y794766D01*
X930636Y794351D01*
X931179Y794126D01*
X931766D01*
X932309Y794351D01*
X932724Y794766D01*
X932949Y795309D01*
Y795896D01*
X932724Y796439D01*
X932309Y796854D01*
X931766Y797079D01*
D02*
G37*
G36*
X839050Y796292D02*
X838463D01*
X837920Y796067D01*
X837504Y795652D01*
X837280Y795109D01*
Y794522D01*
X837504Y793979D01*
X837920Y793564D01*
X838463Y793339D01*
X839050D01*
X839592Y793564D01*
X840008Y793979D01*
X840232Y794522D01*
Y795109D01*
X840008Y795652D01*
X839592Y796067D01*
X839050Y796292D01*
D02*
G37*
G36*
X906766D02*
X906179D01*
X905636Y796067D01*
X905221Y795652D01*
X904996Y795109D01*
Y794522D01*
X905221Y793979D01*
X905636Y793564D01*
X905763Y793511D01*
Y792970D01*
X905636Y792917D01*
X905221Y792502D01*
X904996Y791959D01*
Y791372D01*
X905221Y790829D01*
X905636Y790414D01*
X906179Y790189D01*
X906766D01*
X907309Y790414D01*
X907724Y790829D01*
X907949Y791372D01*
Y791959D01*
X907724Y792502D01*
X907309Y792917D01*
X907182Y792970D01*
Y793511D01*
X907309Y793564D01*
X907724Y793979D01*
X907949Y794522D01*
Y795109D01*
X907724Y795652D01*
X907309Y796067D01*
X906766Y796292D01*
D02*
G37*
G36*
X933932Y791567D02*
X933344D01*
X932802Y791342D01*
X932386Y790927D01*
X932162Y790384D01*
Y789797D01*
X932386Y789255D01*
X932802Y788839D01*
X933344Y788615D01*
X933932D01*
X934474Y788839D01*
X934890Y789255D01*
X935114Y789797D01*
Y790384D01*
X934890Y790927D01*
X934474Y791342D01*
X933932Y791567D01*
D02*
G37*
G36*
X928988Y790954D02*
X928401D01*
X927858Y790729D01*
X927443Y790314D01*
X927218Y789771D01*
Y789184D01*
X927443Y788641D01*
X927858Y788226D01*
X928401Y788001D01*
X928988D01*
X929531Y788226D01*
X929946Y788641D01*
X930171Y789184D01*
Y789771D01*
X929946Y790314D01*
X929531Y790729D01*
X928988Y790954D01*
D02*
G37*
G36*
X902436Y788811D02*
X901848D01*
X901306Y788587D01*
X900890Y788171D01*
X900666Y787629D01*
Y787041D01*
X900890Y786499D01*
X901306Y786083D01*
X901848Y785859D01*
X902436D01*
X902978Y786083D01*
X903394Y786499D01*
X903618Y787041D01*
Y787629D01*
X903394Y788171D01*
X902978Y788587D01*
X902436Y788811D01*
D02*
G37*
G36*
X895349Y786843D02*
X894762D01*
X894219Y786618D01*
X893804Y786203D01*
X893579Y785660D01*
Y785073D01*
X893804Y784530D01*
X894219Y784115D01*
X894762Y783890D01*
X895349D01*
X895892Y784115D01*
X896307Y784530D01*
X896532Y785073D01*
Y785660D01*
X896307Y786203D01*
X895892Y786618D01*
X895349Y786843D01*
D02*
G37*
G36*
X874877D02*
X874289D01*
X873747Y786618D01*
X873331Y786203D01*
X873106Y785660D01*
Y785073D01*
X873331Y784530D01*
X873747Y784115D01*
X874289Y783890D01*
X874877D01*
X875419Y784115D01*
X875834Y784530D01*
X876059Y785073D01*
Y785660D01*
X875834Y786203D01*
X875419Y786618D01*
X874877Y786843D01*
D02*
G37*
G36*
X891806Y784481D02*
X891218D01*
X890676Y784256D01*
X890260Y783841D01*
X890036Y783298D01*
Y782711D01*
X890260Y782168D01*
X890676Y781753D01*
X891218Y781528D01*
X891806D01*
X892348Y781753D01*
X892764Y782168D01*
X892988Y782711D01*
Y783298D01*
X892764Y783841D01*
X892348Y784256D01*
X891806Y784481D01*
D02*
G37*
G36*
X870546D02*
X869958D01*
X869416Y784256D01*
X869001Y783841D01*
X868776Y783298D01*
Y782711D01*
X869001Y782168D01*
X869416Y781753D01*
X869958Y781528D01*
X870546D01*
X871089Y781753D01*
X871504Y782168D01*
X871729Y782711D01*
Y783298D01*
X871504Y783841D01*
X871089Y784256D01*
X870546Y784481D01*
D02*
G37*
G36*
X839050Y784087D02*
X838463D01*
X837920Y783862D01*
X837504Y783447D01*
X837280Y782904D01*
Y782317D01*
X837504Y781774D01*
X837920Y781359D01*
X838463Y781134D01*
X839050D01*
X839592Y781359D01*
X840008Y781774D01*
X840232Y782317D01*
Y782904D01*
X840008Y783447D01*
X839592Y783862D01*
X839050Y784087D01*
D02*
G37*
G36*
X935652Y785662D02*
X935065D01*
X934522Y785437D01*
X934107Y785022D01*
X933882Y784479D01*
Y783892D01*
X934107Y783349D01*
X934522Y782934D01*
X935065Y782709D01*
X935409D01*
X935755Y782264D01*
X935759Y782247D01*
X935705Y782117D01*
Y781530D01*
X935930Y780987D01*
X936345Y780572D01*
X936888Y780347D01*
X937475D01*
X938018Y780572D01*
X938433Y780987D01*
X938658Y781530D01*
Y782117D01*
X938433Y782659D01*
X938018Y783075D01*
X937475Y783299D01*
X937131D01*
X936784Y783745D01*
X936781Y783762D01*
X936835Y783892D01*
Y784479D01*
X936610Y785022D01*
X936195Y785437D01*
X935652Y785662D01*
D02*
G37*
G36*
X877633Y780150D02*
X877045D01*
X876503Y779925D01*
X876087Y779510D01*
X875862Y778967D01*
Y778380D01*
X876087Y777837D01*
X876503Y777422D01*
X877045Y777197D01*
X877633D01*
X878175Y777422D01*
X878590Y777837D01*
X878815Y778380D01*
Y778967D01*
X878590Y779510D01*
X878175Y779925D01*
X877633Y780150D01*
D02*
G37*
G36*
X839050D02*
X838463D01*
X837920Y779925D01*
X837504Y779510D01*
X837280Y778967D01*
Y778380D01*
X837504Y777837D01*
X837920Y777422D01*
X838463Y777197D01*
X839050D01*
X839592Y777422D01*
X840008Y777837D01*
X840232Y778380D01*
Y778967D01*
X840008Y779510D01*
X839592Y779925D01*
X839050Y780150D01*
D02*
G37*
G36*
X929207Y779756D02*
X928620D01*
X928077Y779531D01*
X927662Y779116D01*
X927437Y778574D01*
Y777986D01*
X927662Y777444D01*
X928077Y777028D01*
X928620Y776803D01*
X929207D01*
X929750Y777028D01*
X930165Y777444D01*
X930390Y777986D01*
Y778574D01*
X930165Y779116D01*
X929750Y779531D01*
X929207Y779756D01*
D02*
G37*
G36*
X933541Y777748D02*
X932954D01*
X932411Y777523D01*
X931996Y777108D01*
X931771Y776565D01*
Y775978D01*
X931996Y775435D01*
X932411Y775020D01*
X932954Y774795D01*
X933541D01*
X934084Y775020D01*
X934499Y775435D01*
X934724Y775978D01*
Y776565D01*
X934499Y777108D01*
X934084Y777523D01*
X933541Y777748D01*
D02*
G37*
G36*
X917790Y777000D02*
X917203D01*
X916660Y776776D01*
X916245Y776360D01*
X916020Y775818D01*
Y775230D01*
X916245Y774688D01*
X916660Y774272D01*
X917203Y774048D01*
X917790D01*
X918333Y774272D01*
X918748Y774688D01*
X918973Y775230D01*
Y775818D01*
X918748Y776360D01*
X918333Y776776D01*
X917790Y777000D01*
D02*
G37*
G36*
X853223Y776213D02*
X852636D01*
X852093Y775988D01*
X851678Y775573D01*
X851453Y775030D01*
Y774443D01*
X851678Y773900D01*
X852093Y773485D01*
X852636Y773260D01*
X853223D01*
X853766Y773485D01*
X854181Y773900D01*
X854406Y774443D01*
Y775030D01*
X854181Y775573D01*
X853766Y775988D01*
X853223Y776213D01*
D02*
G37*
G36*
X839050D02*
X838463D01*
X837920Y775988D01*
X837504Y775573D01*
X837280Y775030D01*
Y774443D01*
X837504Y773900D01*
X837920Y773485D01*
X838463Y773260D01*
X839050D01*
X839592Y773485D01*
X840008Y773900D01*
X840232Y774443D01*
Y775030D01*
X840008Y775573D01*
X839592Y775988D01*
X839050Y776213D01*
D02*
G37*
G36*
X941806Y774638D02*
X941218D01*
X940676Y774413D01*
X940260Y773998D01*
X940036Y773455D01*
Y772868D01*
X940260Y772325D01*
X940676Y771910D01*
X941218Y771685D01*
X941806D01*
X942348Y771910D01*
X942764Y772325D01*
X942988Y772868D01*
Y773455D01*
X942764Y773998D01*
X942348Y774413D01*
X941806Y774638D01*
D02*
G37*
G36*
X898105D02*
X897518D01*
X896975Y774413D01*
X896560Y773998D01*
X896335Y773455D01*
Y772868D01*
X896560Y772325D01*
X896975Y771910D01*
X897518Y771685D01*
X898105D01*
X898647Y771910D01*
X899063Y772325D01*
X899288Y772868D01*
Y773455D01*
X899063Y773998D01*
X898647Y774413D01*
X898105Y774638D01*
D02*
G37*
G36*
X905192Y772670D02*
X904604D01*
X904062Y772445D01*
X903646Y772029D01*
X903421Y771487D01*
Y770900D01*
X903646Y770357D01*
X904062Y769942D01*
X904604Y769717D01*
X905192D01*
X905734Y769942D01*
X906149Y770357D01*
X906374Y770900D01*
Y771487D01*
X906149Y772029D01*
X905734Y772445D01*
X905192Y772670D01*
D02*
G37*
G36*
X877239Y772276D02*
X876651D01*
X876109Y772051D01*
X875694Y771636D01*
X875469Y771093D01*
Y770506D01*
X875694Y769963D01*
X876109Y769548D01*
X876651Y769323D01*
X877239D01*
X877781Y769548D01*
X878197Y769963D01*
X878421Y770506D01*
Y771093D01*
X878197Y771636D01*
X877781Y772051D01*
X877239Y772276D01*
D02*
G37*
G36*
X842987D02*
X842400D01*
X841857Y772051D01*
X841442Y771636D01*
X841217Y771093D01*
Y770506D01*
X841442Y769963D01*
X841857Y769548D01*
X842400Y769323D01*
X842987D01*
X843529Y769548D01*
X843945Y769963D01*
X844170Y770506D01*
Y771093D01*
X843945Y771636D01*
X843529Y772051D01*
X842987Y772276D01*
D02*
G37*
G36*
X839050D02*
X838463D01*
X837920Y772051D01*
X837504Y771636D01*
X837280Y771093D01*
Y770506D01*
X837504Y769963D01*
X837920Y769548D01*
X838463Y769323D01*
X839050D01*
X839592Y769548D01*
X840008Y769963D01*
X840232Y770506D01*
Y771093D01*
X840008Y771636D01*
X839592Y772051D01*
X839050Y772276D01*
D02*
G37*
G36*
X872121Y771882D02*
X871533D01*
X870991Y771657D01*
X870575Y771242D01*
X870351Y770700D01*
Y770112D01*
X870575Y769569D01*
X870991Y769154D01*
X871533Y768929D01*
X872121D01*
X872663Y769154D01*
X873079Y769569D01*
X873303Y770112D01*
Y770700D01*
X873079Y771242D01*
X872663Y771657D01*
X872121Y771882D01*
D02*
G37*
G36*
X867396Y770307D02*
X866809D01*
X866266Y770083D01*
X865851Y769667D01*
X865626Y769125D01*
Y768537D01*
X865851Y767995D01*
X866266Y767579D01*
X866809Y767355D01*
X867396D01*
X867939Y767579D01*
X868354Y767995D01*
X868579Y768537D01*
Y769125D01*
X868354Y769667D01*
X867939Y770083D01*
X867396Y770307D01*
D02*
G37*
G36*
X857772Y769129D02*
X857184D01*
X856642Y768904D01*
X856227Y768489D01*
X856002Y767946D01*
Y767358D01*
X856227Y766816D01*
X856642Y766401D01*
X857184Y766176D01*
X857772D01*
X858314Y766401D01*
X858730Y766816D01*
X858954Y767358D01*
Y767946D01*
X858730Y768489D01*
X858314Y768904D01*
X857772Y769129D01*
D02*
G37*
G36*
X862278Y769126D02*
X861691D01*
X861148Y768901D01*
X860733Y768486D01*
X860508Y767944D01*
Y767356D01*
X860733Y766814D01*
X861148Y766398D01*
X861691Y766174D01*
X862278D01*
X862821Y766398D01*
X863236Y766814D01*
X863461Y767356D01*
Y767944D01*
X863236Y768486D01*
X862821Y768901D01*
X862278Y769126D01*
D02*
G37*
G36*
X944168Y769104D02*
X943581D01*
X943038Y768879D01*
X942623Y768464D01*
X942398Y767921D01*
Y767334D01*
X942623Y766791D01*
X943038Y766376D01*
X943581Y766151D01*
X944168D01*
X944711Y766376D01*
X945126Y766791D01*
X945351Y767334D01*
Y767921D01*
X945126Y768464D01*
X944711Y768879D01*
X944168Y769104D01*
D02*
G37*
G36*
X888262Y751410D02*
X887675D01*
X887132Y751185D01*
X886717Y750770D01*
X886492Y750227D01*
Y749640D01*
X886717Y749097D01*
X887132Y748682D01*
X887675Y748457D01*
X888262D01*
X888805Y748682D01*
X889220Y749097D01*
X889445Y749640D01*
Y750227D01*
X889220Y750770D01*
X888805Y751185D01*
X888262Y751410D01*
D02*
G37*
G36*
X930388Y741174D02*
X929801D01*
X929258Y740949D01*
X928843Y740533D01*
X928618Y739991D01*
Y739403D01*
X928843Y738861D01*
X929258Y738446D01*
X929801Y738221D01*
X930388D01*
X930931Y738446D01*
X931346Y738861D01*
X931571Y739403D01*
Y739991D01*
X931346Y740533D01*
X930931Y740949D01*
X930388Y741174D01*
D02*
G37*
G36*
X908128Y758989D02*
X906392D01*
X904679Y758717D01*
X903028Y758181D01*
X901482Y757393D01*
X900079Y756373D01*
X898852Y755146D01*
X897832Y753743D01*
X897044Y752197D01*
X896508Y750546D01*
X896236Y748833D01*
Y747097D01*
X896508Y745384D01*
X897044Y743733D01*
X897832Y742187D01*
X898852Y740784D01*
X900079Y739557D01*
X901482Y738537D01*
X903028Y737749D01*
X904679Y737213D01*
X906392Y736941D01*
X908128D01*
X909841Y737213D01*
X911492Y737749D01*
X913038Y738537D01*
X914441Y739557D01*
X915668Y740784D01*
X916688Y742187D01*
X917476Y743733D01*
X918012Y745384D01*
X918284Y747097D01*
Y748833D01*
X918012Y750546D01*
X917476Y752197D01*
X916688Y753743D01*
X915668Y755146D01*
X914441Y756373D01*
X913038Y757393D01*
X911492Y758181D01*
X909841Y758717D01*
X908128Y758989D01*
D02*
G37*
G36*
X860884D02*
X859148D01*
X857435Y758717D01*
X855784Y758181D01*
X854238Y757393D01*
X852835Y756373D01*
X851608Y755146D01*
X850588Y753743D01*
X849800Y752197D01*
X849264Y750546D01*
X848992Y748833D01*
Y747097D01*
X849264Y745384D01*
X849800Y743733D01*
X850588Y742187D01*
X851608Y740784D01*
X852835Y739557D01*
X854238Y738537D01*
X855784Y737749D01*
X857435Y737213D01*
X859148Y736941D01*
X860884D01*
X862597Y737213D01*
X864248Y737749D01*
X865794Y738537D01*
X867197Y739557D01*
X868424Y740784D01*
X869444Y742187D01*
X870232Y743733D01*
X870768Y745384D01*
X871040Y747097D01*
Y748833D01*
X870768Y750546D01*
X870232Y752197D01*
X869444Y753743D01*
X868424Y755146D01*
X867197Y756373D01*
X865794Y757393D01*
X864248Y758181D01*
X862597Y758717D01*
X860884Y758989D01*
D02*
G37*
G36*
X935113Y737236D02*
X934525D01*
X933983Y737012D01*
X933568Y736596D01*
X933343Y736054D01*
Y735466D01*
X933568Y734924D01*
X933983Y734509D01*
X934525Y734284D01*
X935113D01*
X935655Y734509D01*
X936071Y734924D01*
X936296Y735466D01*
Y736054D01*
X936071Y736596D01*
X935655Y737012D01*
X935113Y737236D01*
D02*
G37*
G36*
X915428Y735268D02*
X914840D01*
X914298Y735043D01*
X913883Y734628D01*
X913658Y734085D01*
Y733498D01*
X913883Y732955D01*
X914298Y732540D01*
X914840Y732315D01*
X915428D01*
X915970Y732540D01*
X916386Y732955D01*
X916610Y733498D01*
Y734085D01*
X916386Y734628D01*
X915970Y735043D01*
X915428Y735268D01*
D02*
G37*
G36*
X907554Y733299D02*
X906966D01*
X906424Y733075D01*
X906009Y732659D01*
X905784Y732117D01*
Y731530D01*
X906009Y730987D01*
X906424Y730572D01*
X906966Y730347D01*
X907554D01*
X908096Y730572D01*
X908512Y730987D01*
X908736Y731530D01*
Y732117D01*
X908512Y732659D01*
X908096Y733075D01*
X907554Y733299D01*
D02*
G37*
G36*
X849680Y726607D02*
X849092D01*
X848550Y726382D01*
X848134Y725967D01*
X847910Y725424D01*
Y724837D01*
X848134Y724294D01*
X848550Y723879D01*
X849092Y723654D01*
X849680D01*
X850222Y723879D01*
X850638Y724294D01*
X850862Y724837D01*
Y725424D01*
X850638Y725967D01*
X850222Y726382D01*
X849680Y726607D01*
D02*
G37*
G36*
X937081Y725032D02*
X936494D01*
X935951Y724807D01*
X935536Y724392D01*
X935311Y723849D01*
Y723262D01*
X935536Y722719D01*
X935951Y722304D01*
X936494Y722079D01*
X937081D01*
X937624Y722304D01*
X938039Y722719D01*
X938264Y723262D01*
Y723849D01*
X938039Y724392D01*
X937624Y724807D01*
X937081Y725032D01*
D02*
G37*
G36*
X894774Y723142D02*
X894187D01*
X893644Y722917D01*
X893229Y722502D01*
X893004Y721959D01*
Y721372D01*
X893229Y720829D01*
X893644Y720414D01*
X894187Y720189D01*
X894774D01*
X895317Y720414D01*
X895732Y720829D01*
X895957Y721372D01*
Y721959D01*
X895732Y722502D01*
X895317Y722917D01*
X894774Y723142D01*
D02*
G37*
G36*
X907947Y723063D02*
X907360D01*
X906818Y722838D01*
X906402Y722423D01*
X906177Y721881D01*
Y721293D01*
X906402Y720751D01*
X906818Y720335D01*
X907360Y720111D01*
X907947D01*
X908490Y720335D01*
X908905Y720751D01*
X909130Y721293D01*
Y721881D01*
X908905Y722423D01*
X908490Y722838D01*
X907947Y723063D01*
D02*
G37*
G36*
X855585Y720307D02*
X854998D01*
X854455Y720083D01*
X854040Y719667D01*
X853815Y719125D01*
Y718537D01*
X854040Y717995D01*
X854455Y717579D01*
X854998Y717355D01*
X855585D01*
X856128Y717579D01*
X856543Y717995D01*
X856768Y718537D01*
Y719125D01*
X856543Y719667D01*
X856128Y720083D01*
X855585Y720307D01*
D02*
G37*
G36*
X849286Y716764D02*
X848699D01*
X848156Y716539D01*
X847741Y716124D01*
X847516Y715581D01*
Y714994D01*
X847741Y714451D01*
X848156Y714036D01*
X848699Y713811D01*
X849286D01*
X849829Y714036D01*
X850244Y714451D01*
X850469Y714994D01*
Y715581D01*
X850244Y716124D01*
X849829Y716539D01*
X849286Y716764D01*
D02*
G37*
G36*
X845349D02*
X844762D01*
X844219Y716539D01*
X843804Y716124D01*
X843579Y715581D01*
Y714994D01*
X843804Y714451D01*
X844219Y714036D01*
X844762Y713811D01*
X845349D01*
X845892Y714036D01*
X846307Y714451D01*
X846532Y714994D01*
Y715581D01*
X846307Y716124D01*
X845892Y716539D01*
X845349Y716764D01*
D02*
G37*
G36*
X919168Y716370D02*
X918581D01*
X918038Y716146D01*
X917623Y715730D01*
X917398Y715188D01*
Y714600D01*
X917623Y714058D01*
X918038Y713642D01*
X918581Y713418D01*
X919168D01*
X919711Y713642D01*
X920126Y714058D01*
X920351Y714600D01*
Y715188D01*
X920126Y715730D01*
X919711Y716146D01*
X919168Y716370D01*
D02*
G37*
G36*
X915428D02*
X914840D01*
X914298Y716146D01*
X913883Y715730D01*
X913658Y715188D01*
Y714600D01*
X913883Y714058D01*
X914298Y713642D01*
X914840Y713418D01*
X915428D01*
X915970Y713642D01*
X916386Y714058D01*
X916610Y714600D01*
Y715188D01*
X916386Y715730D01*
X915970Y716146D01*
X915428Y716370D01*
D02*
G37*
G36*
X851648Y713221D02*
X851061D01*
X850518Y712996D01*
X850103Y712581D01*
X849878Y712038D01*
Y711451D01*
X850103Y710908D01*
X850518Y710493D01*
X851061Y710268D01*
X851648D01*
X852191Y710493D01*
X852606Y710908D01*
X852831Y711451D01*
Y712038D01*
X852606Y712581D01*
X852191Y712996D01*
X851648Y713221D01*
D02*
G37*
G36*
X915821Y710859D02*
X915234D01*
X914692Y710634D01*
X914276Y710218D01*
X914051Y709676D01*
Y709089D01*
X914276Y708546D01*
X914692Y708131D01*
X915234Y707906D01*
X915821D01*
X916364Y708131D01*
X916779Y708546D01*
X917004Y709089D01*
Y709676D01*
X916779Y710218D01*
X916364Y710634D01*
X915821Y710859D01*
D02*
G37*
G36*
X850073Y709284D02*
X849486D01*
X848944Y709059D01*
X848528Y708644D01*
X848303Y708101D01*
Y707514D01*
X848528Y706971D01*
X848944Y706556D01*
X849486Y706331D01*
X850073D01*
X850616Y706556D01*
X851031Y706971D01*
X851256Y707514D01*
Y708101D01*
X851031Y708644D01*
X850616Y709059D01*
X850073Y709284D01*
D02*
G37*
G36*
X931569Y707315D02*
X930982D01*
X930439Y707091D01*
X930024Y706675D01*
X929799Y706133D01*
Y705545D01*
X930024Y705003D01*
X930439Y704587D01*
X930982Y704362D01*
X931569D01*
X932112Y704587D01*
X932527Y705003D01*
X932752Y705545D01*
Y706133D01*
X932527Y706675D01*
X932112Y707091D01*
X931569Y707315D01*
D02*
G37*
G36*
X916609Y706134D02*
X916022D01*
X915479Y705909D01*
X915064Y705494D01*
X914839Y704951D01*
Y704364D01*
X915064Y703822D01*
X915479Y703406D01*
X916022Y703181D01*
X916609D01*
X917152Y703406D01*
X917567Y703822D01*
X917791Y704364D01*
Y704951D01*
X917567Y705494D01*
X917152Y705909D01*
X916609Y706134D01*
D02*
G37*
G36*
X913066D02*
X912478D01*
X911936Y705909D01*
X911520Y705494D01*
X911296Y704951D01*
Y704364D01*
X911520Y703822D01*
X911936Y703406D01*
X912478Y703181D01*
X913066D01*
X913608Y703406D01*
X914023Y703822D01*
X914248Y704364D01*
Y704951D01*
X914023Y705494D01*
X913608Y705909D01*
X913066Y706134D01*
D02*
G37*
G36*
X853617D02*
X853029D01*
X852487Y705909D01*
X852071Y705494D01*
X851847Y704951D01*
Y704364D01*
X852071Y703822D01*
X852487Y703406D01*
X853029Y703181D01*
X853617D01*
X854159Y703406D01*
X854575Y703822D01*
X854799Y704364D01*
Y704951D01*
X854575Y705494D01*
X854159Y705909D01*
X853617Y706134D01*
D02*
G37*
G36*
X844168D02*
X843581D01*
X843038Y705909D01*
X842623Y705494D01*
X842398Y704951D01*
Y704364D01*
X842623Y703822D01*
X843038Y703406D01*
X843581Y703181D01*
X844168D01*
X844711Y703406D01*
X845126Y703822D01*
X845351Y704364D01*
Y704951D01*
X845126Y705494D01*
X844711Y705909D01*
X844168Y706134D01*
D02*
G37*
G36*
X857947Y704166D02*
X857360D01*
X856818Y703941D01*
X856402Y703526D01*
X856177Y702983D01*
Y702396D01*
X856402Y701853D01*
X856818Y701438D01*
X857360Y701213D01*
X857947D01*
X858490Y701438D01*
X858905Y701853D01*
X859130Y702396D01*
Y702983D01*
X858905Y703526D01*
X858490Y703941D01*
X857947Y704166D01*
D02*
G37*
G36*
X933932Y703772D02*
X933344D01*
X932802Y703547D01*
X932386Y703132D01*
X932162Y702589D01*
Y702002D01*
X932386Y701459D01*
X932802Y701044D01*
X933344Y700819D01*
X933932D01*
X934474Y701044D01*
X934890Y701459D01*
X935114Y702002D01*
Y702589D01*
X934890Y703132D01*
X934474Y703547D01*
X933932Y703772D01*
D02*
G37*
G36*
X839443Y703378D02*
X838856D01*
X838313Y703154D01*
X837898Y702738D01*
X837673Y702196D01*
Y701608D01*
X837898Y701066D01*
X838313Y700650D01*
X838856Y700425D01*
X839443D01*
X839986Y700650D01*
X840401Y701066D01*
X840626Y701608D01*
Y702196D01*
X840401Y702738D01*
X839986Y703154D01*
X839443Y703378D01*
D02*
G37*
G36*
X904798Y702985D02*
X904210D01*
X903668Y702760D01*
X903253Y702345D01*
X903028Y701802D01*
Y701215D01*
X903253Y700672D01*
X903668Y700257D01*
X904210Y700032D01*
X904798D01*
X905340Y700257D01*
X905756Y700672D01*
X905980Y701215D01*
Y701802D01*
X905756Y702345D01*
X905340Y702760D01*
X904798Y702985D01*
D02*
G37*
G36*
X844168Y702591D02*
X843581D01*
X843038Y702366D01*
X842623Y701951D01*
X842398Y701408D01*
Y700821D01*
X842623Y700278D01*
X843038Y699863D01*
X843581Y699638D01*
X844168D01*
X844711Y699863D01*
X845126Y700278D01*
X845351Y700821D01*
Y701408D01*
X845126Y701951D01*
X844711Y702366D01*
X844168Y702591D01*
D02*
G37*
G36*
X937081Y701016D02*
X936494D01*
X935951Y700791D01*
X935536Y700376D01*
X935311Y699833D01*
Y699246D01*
X935536Y698703D01*
X935951Y698288D01*
X936494Y698063D01*
X937081D01*
X937624Y698288D01*
X938039Y698703D01*
X938264Y699246D01*
Y699833D01*
X938039Y700376D01*
X937624Y700791D01*
X937081Y701016D01*
D02*
G37*
G36*
X908735Y698654D02*
X908148D01*
X907605Y698429D01*
X907190Y698014D01*
X906965Y697471D01*
Y696884D01*
X907190Y696341D01*
X907605Y695926D01*
X908148Y695701D01*
X908735D01*
X909278Y695926D01*
X909693Y696341D01*
X909918Y696884D01*
Y697471D01*
X909693Y698014D01*
X909278Y698429D01*
X908735Y698654D01*
D02*
G37*
G36*
X880743Y695307D02*
X880234D01*
X879764Y695113D01*
X879404Y694753D01*
X879209Y694282D01*
Y693773D01*
X879404Y693303D01*
X879764Y692943D01*
X880234Y692748D01*
X880743D01*
X881213Y692943D01*
X881573Y693303D01*
X881768Y693773D01*
Y694282D01*
X881573Y694753D01*
X881213Y695113D01*
X880743Y695307D01*
D02*
G37*
G36*
X936294Y693536D02*
X935707D01*
X935164Y693311D01*
X934749Y692896D01*
X934524Y692353D01*
Y691766D01*
X934749Y691223D01*
X935164Y690808D01*
X935707Y690583D01*
X936294D01*
X936837Y690808D01*
X937252Y691223D01*
X937477Y691766D01*
Y692353D01*
X937252Y692896D01*
X936837Y693311D01*
X936294Y693536D01*
D02*
G37*
G36*
X915034Y691961D02*
X914447D01*
X913904Y691736D01*
X913489Y691321D01*
X913264Y690778D01*
Y690191D01*
X913489Y689648D01*
X913904Y689233D01*
X914447Y689008D01*
X915034D01*
X915577Y689233D01*
X915992Y689648D01*
X916217Y690191D01*
Y690778D01*
X915992Y691321D01*
X915577Y691736D01*
X915034Y691961D01*
D02*
G37*
G36*
X935900Y689992D02*
X935313D01*
X934770Y689768D01*
X934355Y689352D01*
X934130Y688810D01*
Y688222D01*
X934355Y687680D01*
X934770Y687264D01*
X935313Y687040D01*
X935900D01*
X936443Y687264D01*
X936858Y687680D01*
X937083Y688222D01*
Y688810D01*
X936858Y689352D01*
X936443Y689768D01*
X935900Y689992D01*
D02*
G37*
G36*
X888803Y689205D02*
X888216D01*
X887673Y688980D01*
X887258Y688565D01*
X887033Y688022D01*
Y687435D01*
X887258Y686892D01*
X887673Y686477D01*
X888216Y686252D01*
X888803D01*
X889346Y686477D01*
X889761Y686892D01*
X889986Y687435D01*
Y688022D01*
X889761Y688565D01*
X889346Y688980D01*
X888803Y689205D01*
D02*
G37*
G36*
X934719Y686449D02*
X934132D01*
X933589Y686224D01*
X933174Y685809D01*
X932949Y685266D01*
Y684679D01*
X933174Y684136D01*
X933589Y683721D01*
X934132Y683496D01*
X934719D01*
X935262Y683721D01*
X935677Y684136D01*
X935902Y684679D01*
Y685266D01*
X935677Y685809D01*
X935262Y686224D01*
X934719Y686449D01*
D02*
G37*
G36*
X920152Y684874D02*
X919565D01*
X919022Y684650D01*
X918607Y684234D01*
X918382Y683692D01*
Y683104D01*
X918607Y682562D01*
X919022Y682146D01*
X919565Y681922D01*
X920152D01*
X920695Y682146D01*
X921110Y682562D01*
X921335Y683104D01*
Y683692D01*
X921110Y684234D01*
X920695Y684650D01*
X920152Y684874D01*
D02*
G37*
G36*
X889443D02*
X888856D01*
X888313Y684650D01*
X887898Y684234D01*
X887673Y683692D01*
Y683104D01*
X887898Y682562D01*
X888313Y682146D01*
X888856Y681922D01*
X889443D01*
X889986Y682146D01*
X890401Y682562D01*
X890626Y683104D01*
Y683692D01*
X890401Y684234D01*
X889986Y684650D01*
X889443Y684874D01*
D02*
G37*
G36*
X933144Y681725D02*
X932557D01*
X932014Y681500D01*
X931599Y681085D01*
X931374Y680542D01*
Y679955D01*
X931599Y679412D01*
X932014Y678997D01*
X932557Y678772D01*
X933144D01*
X933687Y678997D01*
X934102Y679412D01*
X934327Y679955D01*
Y680542D01*
X934102Y681085D01*
X933687Y681500D01*
X933144Y681725D01*
D02*
G37*
G36*
X895743Y681283D02*
X895155D01*
X894613Y681059D01*
X894197Y680643D01*
X893973Y680101D01*
Y679513D01*
X894197Y678971D01*
X894613Y678555D01*
X895155Y678331D01*
X895743D01*
X896285Y678555D01*
X896701Y678971D01*
X896925Y679513D01*
Y680101D01*
X896701Y680643D01*
X896285Y681059D01*
X895743Y681283D01*
D02*
G37*
G36*
X914640Y677788D02*
X914053D01*
X913510Y677563D01*
X913095Y677148D01*
X912870Y676605D01*
Y676018D01*
X913095Y675475D01*
X913510Y675060D01*
X914053Y674835D01*
X914640D01*
X915183Y675060D01*
X915598Y675475D01*
X915823Y676018D01*
Y676605D01*
X915598Y677148D01*
X915183Y677563D01*
X914640Y677788D01*
D02*
G37*
G36*
X909128D02*
X908541D01*
X907999Y677563D01*
X907583Y677148D01*
X907358Y676605D01*
Y676018D01*
X907583Y675475D01*
X907999Y675060D01*
X908541Y674835D01*
X909128D01*
X909671Y675060D01*
X910087Y675475D01*
X910311Y676018D01*
Y676605D01*
X910087Y677148D01*
X909671Y677563D01*
X909128Y677788D01*
D02*
G37*
G36*
X923695Y670701D02*
X923108D01*
X922565Y670476D01*
X922150Y670061D01*
X921925Y669518D01*
Y668931D01*
X922150Y668388D01*
X922565Y667973D01*
X923108Y667748D01*
X923695D01*
X924238Y667973D01*
X924653Y668388D01*
X924878Y668931D01*
Y669518D01*
X924653Y670061D01*
X924238Y670476D01*
X923695Y670701D01*
D02*
G37*
G36*
X919759D02*
X919171D01*
X918629Y670476D01*
X918213Y670061D01*
X917988Y669518D01*
Y668931D01*
X918213Y668388D01*
X918629Y667973D01*
X919171Y667748D01*
X919759D01*
X920301Y667973D01*
X920716Y668388D01*
X920941Y668931D01*
Y669518D01*
X920716Y670061D01*
X920301Y670476D01*
X919759Y670701D01*
D02*
G37*
G36*
X944168Y670307D02*
X943581D01*
X943038Y670083D01*
X942623Y669667D01*
X942398Y669125D01*
Y668537D01*
X942623Y667995D01*
X943038Y667579D01*
X943581Y667355D01*
X944168D01*
X944711Y667579D01*
X945126Y667995D01*
X945351Y668537D01*
Y669125D01*
X945126Y669667D01*
X944711Y670083D01*
X944168Y670307D01*
D02*
G37*
G36*
X931176Y667945D02*
X930588D01*
X930046Y667720D01*
X929630Y667305D01*
X929406Y666762D01*
Y666175D01*
X929630Y665632D01*
X930046Y665217D01*
X930588Y664993D01*
X931176D01*
X931718Y665217D01*
X932134Y665632D01*
X932358Y666175D01*
Y666762D01*
X932134Y667305D01*
X931718Y667720D01*
X931176Y667945D01*
D02*
G37*
G36*
X941806Y667552D02*
X941218D01*
X940676Y667327D01*
X940260Y666911D01*
X940036Y666369D01*
Y665781D01*
X940260Y665239D01*
X940676Y664823D01*
X941218Y664599D01*
X941806D01*
X942348Y664823D01*
X942764Y665239D01*
X942988Y665781D01*
Y666369D01*
X942764Y666911D01*
X942348Y667327D01*
X941806Y667552D01*
D02*
G37*
G36*
X900073Y662433D02*
X899486D01*
X898944Y662209D01*
X898528Y661793D01*
X898303Y661251D01*
Y660663D01*
X898528Y660121D01*
X898944Y659705D01*
X899486Y659481D01*
X900073D01*
X900616Y659705D01*
X901031Y660121D01*
X901256Y660663D01*
Y661251D01*
X901031Y661793D01*
X900616Y662209D01*
X900073Y662433D01*
D02*
G37*
G36*
X907160Y662040D02*
X906573D01*
X906030Y661815D01*
X905615Y661400D01*
X905390Y660857D01*
Y660270D01*
X905615Y659727D01*
X906030Y659312D01*
X906573Y659087D01*
X907160D01*
X907703Y659312D01*
X908118Y659727D01*
X908343Y660270D01*
Y660857D01*
X908118Y661400D01*
X907703Y661815D01*
X907160Y662040D01*
D02*
G37*
G36*
X894168D02*
X893581D01*
X893038Y661815D01*
X892623Y661400D01*
X892398Y660857D01*
Y660270D01*
X892623Y659727D01*
X893038Y659312D01*
X893581Y659087D01*
X894168D01*
X894711Y659312D01*
X895126Y659727D01*
X895351Y660270D01*
Y660857D01*
X895126Y661400D01*
X894711Y661815D01*
X894168Y662040D01*
D02*
G37*
G36*
X890625D02*
X890037D01*
X889495Y661815D01*
X889079Y661400D01*
X888855Y660857D01*
Y660270D01*
X889079Y659727D01*
X889495Y659312D01*
X890037Y659087D01*
X890625D01*
X891167Y659312D01*
X891582Y659727D01*
X891807Y660270D01*
Y660857D01*
X891582Y661400D01*
X891167Y661815D01*
X890625Y662040D01*
D02*
G37*
G36*
X884325Y661252D02*
X883738D01*
X883195Y661027D01*
X882780Y660612D01*
X882555Y660070D01*
Y659482D01*
X882780Y658940D01*
X883195Y658524D01*
X883738Y658299D01*
X884325D01*
X884868Y658524D01*
X885283Y658940D01*
X885508Y659482D01*
Y660070D01*
X885283Y660612D01*
X884868Y661027D01*
X884325Y661252D01*
D02*
G37*
G36*
X887081Y657709D02*
X886494D01*
X885951Y657484D01*
X885536Y657069D01*
X885311Y656526D01*
Y655939D01*
X885536Y655396D01*
X885951Y654981D01*
X886494Y654756D01*
X887081D01*
X887624Y654981D01*
X888039Y655396D01*
X888264Y655939D01*
Y656526D01*
X888039Y657069D01*
X887624Y657484D01*
X887081Y657709D01*
D02*
G37*
G36*
X883144Y657315D02*
X882557D01*
X882014Y657091D01*
X881599Y656675D01*
X881374Y656133D01*
Y655545D01*
X881599Y655003D01*
X882014Y654587D01*
X882557Y654362D01*
X883144D01*
X883687Y654587D01*
X884102Y655003D01*
X884327Y655545D01*
Y656133D01*
X884102Y656675D01*
X883687Y657091D01*
X883144Y657315D01*
D02*
G37*
G36*
X911944Y655623D02*
X911356D01*
X910814Y655399D01*
X910398Y654983D01*
X910174Y654441D01*
Y653853D01*
X910398Y653311D01*
X910814Y652895D01*
X911356Y652671D01*
X911944D01*
X912486Y652895D01*
X912901Y653311D01*
X913126Y653853D01*
Y654441D01*
X912901Y654983D01*
X912486Y655399D01*
X911944Y655623D01*
D02*
G37*
G36*
X928026Y654953D02*
X927439D01*
X926896Y654728D01*
X926481Y654313D01*
X926256Y653770D01*
Y653183D01*
X926481Y652640D01*
X926896Y652225D01*
X927439Y652000D01*
X928026D01*
X928569Y652225D01*
X928984Y652640D01*
X929209Y653183D01*
Y653770D01*
X928984Y654313D01*
X928569Y654728D01*
X928026Y654953D01*
D02*
G37*
G36*
X888853Y653575D02*
X888266D01*
X887723Y653350D01*
X887308Y652935D01*
X887083Y652392D01*
Y651805D01*
X887308Y651263D01*
X887723Y650847D01*
X888266Y650622D01*
X888853D01*
X889396Y650847D01*
X889811Y651263D01*
X890036Y651805D01*
Y652392D01*
X889811Y652935D01*
X889396Y653350D01*
X888853Y653575D01*
D02*
G37*
G36*
X895940Y653181D02*
X895352D01*
X894810Y652957D01*
X894394Y652541D01*
X894170Y651999D01*
Y651411D01*
X894394Y650869D01*
X894810Y650453D01*
X895352Y650229D01*
X895940D01*
X896482Y650453D01*
X896898Y650869D01*
X897122Y651411D01*
Y651999D01*
X896898Y652541D01*
X896482Y652957D01*
X895940Y653181D01*
D02*
G37*
G36*
X903844Y652197D02*
X903257D01*
X902714Y651972D01*
X902299Y651557D01*
X902074Y651015D01*
Y650427D01*
X902299Y649885D01*
X902714Y649469D01*
X903257Y649244D01*
X903844D01*
X904387Y649469D01*
X904802Y649885D01*
X905027Y650427D01*
Y651015D01*
X904802Y651557D01*
X904387Y651972D01*
X903844Y652197D01*
D02*
G37*
G36*
X917901Y650905D02*
X917313D01*
X916771Y650680D01*
X916356Y650265D01*
X916131Y649722D01*
Y649135D01*
X916356Y648593D01*
X916771Y648177D01*
X917313Y647953D01*
X917901D01*
X918443Y648177D01*
X918859Y648593D01*
X919083Y649135D01*
Y649722D01*
X918859Y650265D01*
X918443Y650680D01*
X917901Y650905D01*
D02*
G37*
G36*
X922121Y650622D02*
X921533D01*
X920991Y650398D01*
X920575Y649982D01*
X920351Y649440D01*
Y648852D01*
X920575Y648310D01*
X920991Y647894D01*
X921533Y647670D01*
X922121D01*
X922663Y647894D01*
X923079Y648310D01*
X923303Y648852D01*
Y649440D01*
X923079Y649982D01*
X922663Y650398D01*
X922121Y650622D01*
D02*
G37*
G36*
X906569Y648457D02*
X905982D01*
X905439Y648232D01*
X905024Y647817D01*
X904799Y647274D01*
Y646687D01*
X905024Y646144D01*
X905439Y645729D01*
X905982Y645504D01*
X906569D01*
X907112Y645729D01*
X907527Y646144D01*
X907752Y646687D01*
Y647274D01*
X907527Y647817D01*
X907112Y648232D01*
X906569Y648457D01*
D02*
G37*
G36*
X893518Y644500D02*
X892931D01*
X892388Y644276D01*
X891973Y643860D01*
X891748Y643318D01*
Y642730D01*
X891973Y642188D01*
X892388Y641772D01*
X892931Y641548D01*
X893518D01*
X894061Y641772D01*
X894476Y642188D01*
X894701Y642730D01*
Y643318D01*
X894476Y643860D01*
X894061Y644276D01*
X893518Y644500D01*
D02*
G37*
G36*
X930768Y644337D02*
X930181D01*
X929638Y644112D01*
X929223Y643697D01*
X928998Y643154D01*
Y642567D01*
X929223Y642025D01*
X929638Y641609D01*
X930181Y641384D01*
X930768D01*
X931311Y641609D01*
X931726Y642025D01*
X931951Y642567D01*
Y643154D01*
X931726Y643697D01*
X931311Y644112D01*
X930768Y644337D01*
D02*
G37*
G36*
X906513Y644318D02*
X905926D01*
X905383Y644093D01*
X904968Y643678D01*
X904743Y643135D01*
Y642548D01*
X904968Y642005D01*
X905383Y641590D01*
X905926Y641365D01*
X906513D01*
X907056Y641590D01*
X907471Y642005D01*
X907696Y642548D01*
Y643135D01*
X907471Y643678D01*
X907056Y644093D01*
X906513Y644318D01*
D02*
G37*
G36*
X909916Y639599D02*
X909329D01*
X908786Y639374D01*
X908371Y638959D01*
X908146Y638416D01*
Y637829D01*
X908371Y637286D01*
X908786Y636871D01*
X909329Y636646D01*
X909916D01*
X910459Y636871D01*
X910874Y637286D01*
X911099Y637829D01*
Y638416D01*
X910874Y638959D01*
X910459Y639374D01*
X909916Y639599D01*
D02*
G37*
G36*
X897318Y639205D02*
X896730D01*
X896188Y638980D01*
X895772Y638565D01*
X895547Y638022D01*
Y637435D01*
X895772Y636892D01*
X896188Y636477D01*
X896730Y636252D01*
X897318D01*
X897860Y636477D01*
X898275Y636892D01*
X898500Y637435D01*
Y638022D01*
X898275Y638565D01*
X897860Y638980D01*
X897318Y639205D01*
D02*
G37*
G36*
X906373Y638418D02*
X905785D01*
X905243Y638193D01*
X904827Y637778D01*
X904603Y637235D01*
Y636648D01*
X904827Y636105D01*
X905243Y635690D01*
X905785Y635465D01*
X906373D01*
X906915Y635690D01*
X907331Y636105D01*
X907555Y636648D01*
Y637235D01*
X907331Y637778D01*
X906915Y638193D01*
X906373Y638418D01*
D02*
G37*
G36*
X928814Y636843D02*
X928226D01*
X927684Y636618D01*
X927268Y636203D01*
X927044Y635660D01*
Y635073D01*
X927268Y634530D01*
X927684Y634115D01*
X928226Y633890D01*
X928814D01*
X929356Y634115D01*
X929772Y634530D01*
X929996Y635073D01*
Y635660D01*
X929772Y636203D01*
X929356Y636618D01*
X928814Y636843D01*
D02*
G37*
G36*
X912672D02*
X912084D01*
X911542Y636618D01*
X911127Y636203D01*
X910902Y635660D01*
Y635073D01*
X911127Y634530D01*
X911542Y634115D01*
X912084Y633890D01*
X912672D01*
X913214Y634115D01*
X913630Y634530D01*
X913855Y635073D01*
Y635660D01*
X913630Y636203D01*
X913214Y636618D01*
X912672Y636843D01*
D02*
G37*
G36*
X933538Y635662D02*
X932951D01*
X932408Y635437D01*
X931993Y635022D01*
X931768Y634479D01*
Y633892D01*
X931993Y633349D01*
X932408Y632934D01*
X932951Y632709D01*
X933538D01*
X934081Y632934D01*
X934496Y633349D01*
X934721Y633892D01*
Y634479D01*
X934496Y635022D01*
X934081Y635437D01*
X933538Y635662D01*
D02*
G37*
G36*
X938656Y631331D02*
X938069D01*
X937526Y631106D01*
X937111Y630691D01*
X936886Y630148D01*
Y629561D01*
X937111Y629018D01*
X937526Y628603D01*
X938069Y628378D01*
X938656D01*
X939199Y628603D01*
X939614Y629018D01*
X939839Y629561D01*
Y630148D01*
X939614Y630691D01*
X939199Y631106D01*
X938656Y631331D01*
D02*
G37*
G36*
X942987Y629362D02*
X942400D01*
X941857Y629138D01*
X941442Y628722D01*
X941217Y628180D01*
Y627593D01*
X941442Y627050D01*
X941857Y626635D01*
X942400Y626410D01*
X942987D01*
X943529Y626635D01*
X943945Y627050D01*
X944170Y627593D01*
Y628180D01*
X943945Y628722D01*
X943529Y629138D01*
X942987Y629362D01*
D02*
G37*
G36*
X928290Y625425D02*
X927175D01*
X926099Y625137D01*
X925134Y624580D01*
X924346Y623792D01*
X923789Y622827D01*
X923500Y621750D01*
Y620636D01*
X923789Y619560D01*
X924346Y618595D01*
X925134Y617807D01*
X926099Y617249D01*
X927175Y616961D01*
X928290D01*
X929366Y617249D01*
X930331Y617807D01*
X931119Y618595D01*
X931676Y619560D01*
X931965Y620636D01*
Y621750D01*
X931676Y622827D01*
X931119Y623792D01*
X930331Y624580D01*
X929366Y625137D01*
X928290Y625425D01*
D02*
G37*
%LPD*%
G36*
X933244Y958988D02*
X919465D01*
Y966862D01*
X933244D01*
Y958988D01*
D02*
G37*
G36*
X926945Y917650D02*
Y905052D01*
X928126Y903870D01*
X935213D01*
X937181Y901902D01*
Y889303D01*
X935606Y887729D01*
X926158D01*
X913756Y900130D01*
X909622D01*
X909548Y900204D01*
Y904338D01*
X909532Y904355D01*
Y905445D01*
X906473Y908504D01*
Y912138D01*
X910803D01*
X916379Y917713D01*
X916769Y917552D01*
X917278D01*
X917749Y917746D01*
X918109Y918106D01*
X918303Y918577D01*
Y919086D01*
X918396Y919225D01*
X925370D01*
X926945Y917650D01*
D02*
G37*
%LPC*%
G36*
X827239Y795504D02*
X826651D01*
X826109Y795280D01*
X825694Y794864D01*
X825469Y794322D01*
Y793734D01*
X825694Y793192D01*
X826109Y792776D01*
X826651Y792552D01*
X827239D01*
X827781Y792776D01*
X828197Y793192D01*
X828421Y793734D01*
Y794322D01*
X828197Y794864D01*
X827781Y795280D01*
X827239Y795504D01*
D02*
G37*
G36*
X828420Y710859D02*
X827833D01*
X827290Y710634D01*
X826875Y710218D01*
X826650Y709676D01*
Y709089D01*
X826875Y708546D01*
X827290Y708131D01*
X827833Y707906D01*
X828420D01*
X828963Y708131D01*
X829378Y708546D01*
X829603Y709089D01*
Y709676D01*
X829378Y710218D01*
X828963Y710634D01*
X828420Y710859D01*
D02*
G37*
G36*
X830388Y705347D02*
X829801D01*
X829258Y705122D01*
X828843Y704707D01*
X828618Y704164D01*
Y703577D01*
X828843Y703034D01*
X829258Y702619D01*
X829801Y702394D01*
X830388D01*
X830931Y702619D01*
X831346Y703034D01*
X831571Y703577D01*
Y704164D01*
X831346Y704707D01*
X830931Y705122D01*
X830388Y705347D01*
D02*
G37*
G36*
Y701803D02*
X829801D01*
X829258Y701579D01*
X828843Y701163D01*
X828618Y700621D01*
Y700033D01*
X828843Y699491D01*
X829258Y699076D01*
X829801Y698851D01*
X830388D01*
X830931Y699076D01*
X831346Y699491D01*
X831571Y700033D01*
Y700621D01*
X831346Y701163D01*
X830931Y701579D01*
X830388Y701803D01*
D02*
G37*
G36*
X830782Y691961D02*
X830195D01*
X829652Y691736D01*
X829237Y691321D01*
X829012Y690778D01*
Y690191D01*
X829237Y689648D01*
X829652Y689233D01*
X830195Y689008D01*
X830782D01*
X831325Y689233D01*
X831740Y689648D01*
X831965Y690191D01*
Y690778D01*
X831740Y691321D01*
X831325Y691736D01*
X830782Y691961D01*
D02*
G37*
G36*
X834270Y691777D02*
X833682D01*
X833140Y691552D01*
X832724Y691136D01*
X832500Y690594D01*
Y690006D01*
X832724Y689464D01*
X833140Y689048D01*
X833682Y688824D01*
X834270D01*
X834812Y689048D01*
X835228Y689464D01*
X835452Y690006D01*
Y690594D01*
X835228Y691136D01*
X834812Y691552D01*
X834270Y691777D01*
D02*
G37*
G36*
X851451Y689701D02*
X850864D01*
X850321Y689477D01*
X849906Y689061D01*
X849681Y688519D01*
Y687931D01*
X849906Y687389D01*
X850321Y686973D01*
X850864Y686749D01*
X851451D01*
X851994Y686973D01*
X852409Y687389D01*
X852634Y687931D01*
Y688519D01*
X852409Y689061D01*
X851994Y689477D01*
X851451Y689701D01*
D02*
G37*
G36*
X847514Y689308D02*
X846927D01*
X846384Y689083D01*
X845969Y688668D01*
X845744Y688125D01*
Y687538D01*
X845969Y686995D01*
X846384Y686580D01*
X846927Y686355D01*
X847514D01*
X848057Y686580D01*
X848472Y686995D01*
X848697Y687538D01*
Y688125D01*
X848472Y688668D01*
X848057Y689083D01*
X847514Y689308D01*
D02*
G37*
G36*
X839443Y686843D02*
X838856D01*
X838313Y686618D01*
X837898Y686203D01*
X837673Y685660D01*
Y685073D01*
X837898Y684530D01*
X838313Y684115D01*
X838856Y683890D01*
X839443D01*
X839986Y684115D01*
X840401Y684530D01*
X840626Y685073D01*
Y685660D01*
X840401Y686203D01*
X839986Y686618D01*
X839443Y686843D01*
D02*
G37*
G36*
X839050Y682512D02*
X838463D01*
X837920Y682287D01*
X837504Y681872D01*
X837280Y681329D01*
Y680742D01*
X837504Y680199D01*
X837920Y679784D01*
X838463Y679559D01*
X839050D01*
X839592Y679784D01*
X840008Y680199D01*
X840232Y680742D01*
Y681329D01*
X840008Y681872D01*
X839592Y682287D01*
X839050Y682512D01*
D02*
G37*
G36*
X855388Y680253D02*
X854801D01*
X854258Y680028D01*
X853843Y679612D01*
X853618Y679070D01*
Y678482D01*
X853843Y677940D01*
X854258Y677525D01*
X854801Y677300D01*
X855388D01*
X855931Y677525D01*
X856346Y677940D01*
X856571Y678482D01*
Y679070D01*
X856346Y679612D01*
X855931Y680028D01*
X855388Y680253D01*
D02*
G37*
G36*
X839443Y678969D02*
X838856D01*
X838313Y678744D01*
X837898Y678329D01*
X837673Y677786D01*
Y677199D01*
X837898Y676656D01*
X838313Y676241D01*
X838856Y676016D01*
X839443D01*
X839986Y676241D01*
X840401Y676656D01*
X840626Y677199D01*
Y677786D01*
X840401Y678329D01*
X839986Y678744D01*
X839443Y678969D01*
D02*
G37*
G36*
X847318Y674638D02*
X846730D01*
X846188Y674413D01*
X845772Y673998D01*
X845720Y673871D01*
X845178D01*
X845126Y673998D01*
X844711Y674413D01*
X844168Y674638D01*
X843581D01*
X843038Y674413D01*
X842623Y673998D01*
X842398Y673455D01*
Y672868D01*
X842623Y672325D01*
X843038Y671910D01*
X843581Y671685D01*
X844168D01*
X844711Y671910D01*
X845126Y672325D01*
X845178Y672452D01*
X845720D01*
X845772Y672325D01*
X846188Y671910D01*
X846730Y671685D01*
X847318D01*
X847860Y671910D01*
X848275Y672325D01*
X848500Y672868D01*
Y673455D01*
X848275Y673998D01*
X847860Y674413D01*
X847318Y674638D01*
D02*
G37*
G36*
X871333Y673063D02*
X870746D01*
X870203Y672838D01*
X869788Y672423D01*
X869563Y671881D01*
Y671293D01*
X869788Y670751D01*
X870203Y670335D01*
X870746Y670111D01*
X871333D01*
X871876Y670335D01*
X872291Y670751D01*
X872516Y671293D01*
Y671881D01*
X872291Y672423D01*
X871876Y672838D01*
X871333Y673063D01*
D02*
G37*
G36*
X865821D02*
X865234D01*
X864692Y672838D01*
X864276Y672423D01*
X864051Y671881D01*
Y671293D01*
X864276Y670751D01*
X864692Y670335D01*
X865234Y670111D01*
X865821D01*
X866364Y670335D01*
X866779Y670751D01*
X867004Y671293D01*
Y671881D01*
X866779Y672423D01*
X866364Y672838D01*
X865821Y673063D01*
D02*
G37*
G36*
X855388Y672772D02*
X854801D01*
X854258Y672547D01*
X853843Y672132D01*
X853618Y671590D01*
Y671002D01*
X853843Y670460D01*
X854258Y670044D01*
X854801Y669819D01*
X855388D01*
X855931Y670044D01*
X856346Y670460D01*
X856571Y671002D01*
Y671590D01*
X856346Y672132D01*
X855931Y672547D01*
X855388Y672772D01*
D02*
G37*
G36*
X868577Y670701D02*
X867990D01*
X867447Y670476D01*
X867032Y670061D01*
X866807Y669518D01*
Y668931D01*
X867032Y668388D01*
X867447Y667973D01*
X867990Y667748D01*
X868577D01*
X869120Y667973D01*
X869535Y668388D01*
X869760Y668931D01*
Y669518D01*
X869535Y670061D01*
X869120Y670476D01*
X868577Y670701D01*
D02*
G37*
G36*
X845743D02*
X845155D01*
X844613Y670476D01*
X844197Y670061D01*
X843973Y669518D01*
Y668931D01*
X844197Y668388D01*
X844613Y667973D01*
X845155Y667748D01*
X845743D01*
X846285Y667973D01*
X846701Y668388D01*
X846925Y668931D01*
Y669518D01*
X846701Y670061D01*
X846285Y670476D01*
X845743Y670701D01*
D02*
G37*
G36*
X828991Y663864D02*
X828403D01*
X827861Y663639D01*
X827446Y663224D01*
X827221Y662681D01*
Y662094D01*
X827446Y661551D01*
X827861Y661136D01*
X828403Y660911D01*
X828991D01*
X829533Y661136D01*
X829949Y661551D01*
X830173Y662094D01*
Y662681D01*
X829949Y663224D01*
X829533Y663639D01*
X828991Y663864D01*
D02*
G37*
G36*
X875270Y663221D02*
X874683D01*
X874140Y662996D01*
X873725Y662581D01*
X873500Y662038D01*
Y661451D01*
X873725Y660908D01*
X874140Y660493D01*
X874683Y660268D01*
X875270D01*
X875813Y660493D01*
X876228Y660908D01*
X876453Y661451D01*
Y662038D01*
X876228Y662581D01*
X875813Y662996D01*
X875270Y663221D01*
D02*
G37*
G36*
X870546D02*
X869958D01*
X869416Y662996D01*
X869001Y662581D01*
X868776Y662038D01*
Y661451D01*
X869001Y660908D01*
X869416Y660493D01*
X869958Y660268D01*
X870546D01*
X871089Y660493D01*
X871504Y660908D01*
X871729Y661451D01*
Y662038D01*
X871504Y662581D01*
X871089Y662996D01*
X870546Y663221D01*
D02*
G37*
G36*
X867002Y662040D02*
X866415D01*
X865873Y661815D01*
X865457Y661400D01*
X865232Y660857D01*
Y660270D01*
X865457Y659727D01*
X865873Y659312D01*
X866415Y659087D01*
X867002D01*
X867545Y659312D01*
X867960Y659727D01*
X868185Y660270D01*
Y660857D01*
X867960Y661400D01*
X867545Y661815D01*
X867002Y662040D01*
D02*
G37*
G36*
X872908Y660071D02*
X872321D01*
X871778Y659846D01*
X871363Y659431D01*
X871138Y658888D01*
Y658301D01*
X871363Y657759D01*
X871778Y657343D01*
X872321Y657118D01*
X872908D01*
X873451Y657343D01*
X873866Y657759D01*
X874091Y658301D01*
Y658888D01*
X873866Y659431D01*
X873451Y659846D01*
X872908Y660071D01*
D02*
G37*
G36*
X867002Y658103D02*
X866415D01*
X865873Y657878D01*
X865457Y657463D01*
X865232Y656920D01*
Y656333D01*
X865457Y655790D01*
X865873Y655375D01*
X866415Y655150D01*
X867002D01*
X867545Y655375D01*
X867960Y655790D01*
X868185Y656333D01*
Y656920D01*
X867960Y657463D01*
X867545Y657878D01*
X867002Y658103D01*
D02*
G37*
G36*
X870546Y657315D02*
X869958D01*
X869416Y657091D01*
X869001Y656675D01*
X868776Y656133D01*
Y655545D01*
X869001Y655003D01*
X869416Y654587D01*
X869958Y654362D01*
X870546D01*
X871089Y654587D01*
X871504Y655003D01*
X871729Y655545D01*
Y656133D01*
X871504Y656675D01*
X871089Y657091D01*
X870546Y657315D01*
D02*
G37*
G36*
X872514Y654166D02*
X871927D01*
X871384Y653941D01*
X870969Y653526D01*
X870744Y652983D01*
Y652396D01*
X870969Y651853D01*
X871384Y651438D01*
X871927Y651213D01*
X872514D01*
X873057Y651438D01*
X873472Y651853D01*
X873697Y652396D01*
Y652983D01*
X873472Y653526D01*
X873057Y653941D01*
X872514Y654166D01*
D02*
G37*
G36*
X868184D02*
X867596D01*
X867054Y653941D01*
X866638Y653526D01*
X866414Y652983D01*
Y652396D01*
X866638Y651853D01*
X867054Y651438D01*
X867596Y651213D01*
X868184D01*
X868726Y651438D01*
X869142Y651853D01*
X869366Y652396D01*
Y652983D01*
X869142Y653526D01*
X868726Y653941D01*
X868184Y654166D01*
D02*
G37*
G36*
X865034Y651410D02*
X864447D01*
X863904Y651185D01*
X863489Y650770D01*
X863264Y650227D01*
Y649640D01*
X863489Y649097D01*
X863904Y648682D01*
X864447Y648457D01*
X865034D01*
X865577Y648682D01*
X865992Y649097D01*
X866217Y649640D01*
Y650227D01*
X865992Y650770D01*
X865577Y651185D01*
X865034Y651410D01*
D02*
G37*
G36*
X846924Y643378D02*
X846336D01*
X845794Y643153D01*
X845378Y642738D01*
X845154Y642196D01*
Y641608D01*
X845378Y641066D01*
X845794Y640650D01*
X846336Y640425D01*
X846924D01*
X847466Y640650D01*
X847882Y641066D01*
X848106Y641608D01*
Y642196D01*
X847882Y642738D01*
X847466Y643153D01*
X846924Y643378D01*
D02*
G37*
G36*
X837475Y642355D02*
X836888D01*
X836345Y642130D01*
X835930Y641715D01*
X835705Y641172D01*
Y640585D01*
X835930Y640042D01*
X836345Y639627D01*
X836888Y639402D01*
X837475D01*
X838018Y639627D01*
X838433Y640042D01*
X838658Y640585D01*
Y641172D01*
X838433Y641715D01*
X838018Y642130D01*
X837475Y642355D01*
D02*
G37*
G36*
X879995Y641174D02*
X879407D01*
X878865Y640949D01*
X878449Y640533D01*
X878225Y639991D01*
Y639403D01*
X878449Y638861D01*
X878865Y638446D01*
X879407Y638221D01*
X879995D01*
X880537Y638446D01*
X880953Y638861D01*
X881177Y639403D01*
Y639991D01*
X880953Y640533D01*
X880537Y640949D01*
X879995Y641174D01*
D02*
G37*
G36*
X870546Y639205D02*
X869958D01*
X869416Y638980D01*
X869001Y638565D01*
X868776Y638022D01*
Y637435D01*
X869001Y636892D01*
X869416Y636477D01*
X869958Y636252D01*
X870546D01*
X871089Y636477D01*
X871504Y636892D01*
X871729Y637435D01*
Y638022D01*
X871504Y638565D01*
X871089Y638980D01*
X870546Y639205D01*
D02*
G37*
G36*
X837081Y638418D02*
X836494D01*
X835951Y638193D01*
X835536Y637778D01*
X835311Y637235D01*
Y636648D01*
X835536Y636105D01*
X835951Y635690D01*
X836494Y635465D01*
X837081D01*
X837624Y635690D01*
X838039Y636105D01*
X838264Y636648D01*
Y637235D01*
X838039Y637778D01*
X837624Y638193D01*
X837081Y638418D01*
D02*
G37*
G36*
X831569D02*
X830982D01*
X830439Y638193D01*
X830024Y637778D01*
X829799Y637235D01*
Y636648D01*
X830024Y636105D01*
X830439Y635690D01*
X830982Y635465D01*
X831569D01*
X832112Y635690D01*
X832527Y636105D01*
X832752Y636648D01*
Y637235D01*
X832527Y637778D01*
X832112Y638193D01*
X831569Y638418D01*
D02*
G37*
G36*
X872514Y636055D02*
X871927D01*
X871384Y635831D01*
X870969Y635415D01*
X870744Y634873D01*
Y634285D01*
X870969Y633743D01*
X871384Y633327D01*
X871927Y633103D01*
X872514D01*
X873057Y633327D01*
X873472Y633743D01*
X873697Y634285D01*
Y634873D01*
X873472Y635415D01*
X873057Y635831D01*
X872514Y636055D01*
D02*
G37*
G36*
X834325Y635662D02*
X833738D01*
X833195Y635437D01*
X832780Y635022D01*
X832555Y634479D01*
Y633892D01*
X832780Y633349D01*
X833195Y632934D01*
X833738Y632709D01*
X834325D01*
X834868Y632934D01*
X835283Y633349D01*
X835508Y633892D01*
Y634479D01*
X835283Y635022D01*
X834868Y635437D01*
X834325Y635662D01*
D02*
G37*
G36*
X853617Y634481D02*
X853029D01*
X852487Y634256D01*
X852071Y633841D01*
X851847Y633298D01*
Y632711D01*
X852071Y632168D01*
X852487Y631753D01*
X853029Y631528D01*
X853617D01*
X854159Y631753D01*
X854575Y632168D01*
X854799Y632711D01*
Y633298D01*
X854575Y633841D01*
X854159Y634256D01*
X853617Y634481D01*
D02*
G37*
G36*
X846530D02*
X845943D01*
X845400Y634256D01*
X844985Y633841D01*
X844760Y633298D01*
Y632711D01*
X844985Y632168D01*
X845400Y631753D01*
X845943Y631528D01*
X846530D01*
X847073Y631753D01*
X847488Y632168D01*
X847713Y632711D01*
Y633298D01*
X847488Y633841D01*
X847073Y634256D01*
X846530Y634481D01*
D02*
G37*
G36*
X866630Y634997D02*
X865911Y634902D01*
X865240Y634624D01*
X864665Y634182D01*
X864223Y633607D01*
X863945Y632936D01*
X863850Y632217D01*
Y629461D01*
X863945Y628742D01*
X864223Y628071D01*
X864665Y627495D01*
X865240Y627054D01*
X865911Y626776D01*
X866630Y626681D01*
X867350Y626776D01*
X868020Y627054D01*
X868596Y627495D01*
X869037Y628071D01*
X869315Y628742D01*
X869410Y629461D01*
Y632217D01*
X869315Y632936D01*
X869037Y633607D01*
X868596Y634182D01*
X868020Y634624D01*
X867350Y634902D01*
X866630Y634997D01*
D02*
G37*
G36*
X894955Y628575D02*
X894368D01*
X893825Y628350D01*
X893410Y627935D01*
X893185Y627392D01*
Y626805D01*
X893410Y626262D01*
X893825Y625847D01*
X894368Y625622D01*
X894955D01*
X895498Y625847D01*
X895913Y626262D01*
X896138Y626805D01*
Y627392D01*
X895913Y627935D01*
X895498Y628350D01*
X894955Y628575D01*
D02*
G37*
G36*
X872908D02*
X872321D01*
X871778Y628350D01*
X871363Y627935D01*
X871138Y627392D01*
Y626805D01*
X871363Y626262D01*
X871778Y625847D01*
X872321Y625622D01*
X872908D01*
X873451Y625847D01*
X873866Y626262D01*
X874091Y626805D01*
Y627392D01*
X873866Y627935D01*
X873451Y628350D01*
X872908Y628575D01*
D02*
G37*
G36*
X853617D02*
X853029D01*
X852487Y628350D01*
X852071Y627935D01*
X851847Y627392D01*
Y626805D01*
X852071Y626262D01*
X852487Y625847D01*
X853029Y625622D01*
X853617D01*
X854159Y625847D01*
X854575Y626262D01*
X854799Y626805D01*
Y627392D01*
X854575Y627935D01*
X854159Y628350D01*
X853617Y628575D01*
D02*
G37*
G36*
X898105Y626607D02*
X897518D01*
X896975Y626382D01*
X896560Y625967D01*
X896335Y625424D01*
Y624837D01*
X896560Y624294D01*
X896975Y623879D01*
X897518Y623654D01*
X898105D01*
X898647Y623879D01*
X899063Y624294D01*
X899288Y624837D01*
Y625424D01*
X899063Y625967D01*
X898647Y626382D01*
X898105Y626607D01*
D02*
G37*
G36*
X863066D02*
X862478D01*
X861936Y626382D01*
X861520Y625967D01*
X861296Y625424D01*
Y624837D01*
X861520Y624294D01*
X861936Y623879D01*
X862478Y623654D01*
X863066D01*
X863608Y623879D01*
X864023Y624294D01*
X864248Y624837D01*
Y625424D01*
X864023Y625967D01*
X863608Y626382D01*
X863066Y626607D01*
D02*
G37*
G36*
X869759Y626213D02*
X869171D01*
X868629Y625988D01*
X868213Y625573D01*
X867988Y625030D01*
Y624443D01*
X868213Y623900D01*
X868629Y623485D01*
X869171Y623260D01*
X869759D01*
X870301Y623485D01*
X870716Y623900D01*
X870941Y624443D01*
Y625030D01*
X870716Y625573D01*
X870301Y625988D01*
X869759Y626213D01*
D02*
G37*
G36*
X849286D02*
X848699D01*
X848156Y625988D01*
X847741Y625573D01*
X847516Y625030D01*
Y624443D01*
X847741Y623900D01*
X848156Y623485D01*
X848699Y623260D01*
X849286D01*
X849829Y623485D01*
X850244Y623900D01*
X850469Y624443D01*
Y625030D01*
X850244Y625573D01*
X849829Y625988D01*
X849286Y626213D01*
D02*
G37*
G36*
X872908Y624638D02*
X872321D01*
X871778Y624413D01*
X871363Y623998D01*
X871138Y623455D01*
Y622868D01*
X871363Y622325D01*
X871778Y621910D01*
X872321Y621685D01*
X872908D01*
X873451Y621910D01*
X873866Y622325D01*
X874091Y622868D01*
Y623455D01*
X873866Y623998D01*
X873451Y624413D01*
X872908Y624638D01*
D02*
G37*
G36*
X895349Y623851D02*
X894762D01*
X894219Y623626D01*
X893804Y623211D01*
X893579Y622668D01*
Y622081D01*
X893804Y621538D01*
X894219Y621123D01*
X894762Y620898D01*
X895349D01*
X895892Y621123D01*
X896307Y621538D01*
X896532Y622081D01*
Y622668D01*
X896307Y623211D01*
X895892Y623626D01*
X895349Y623851D01*
D02*
G37*
G36*
X863066Y622670D02*
X862478D01*
X861936Y622445D01*
X861520Y622029D01*
X861296Y621487D01*
Y620900D01*
X861520Y620357D01*
X861936Y619942D01*
X862478Y619717D01*
X863066D01*
X863608Y619942D01*
X864023Y620357D01*
X864248Y620900D01*
Y621487D01*
X864023Y622029D01*
X863608Y622445D01*
X863066Y622670D01*
D02*
G37*
G36*
X849286Y621882D02*
X848699D01*
X848156Y621657D01*
X847741Y621242D01*
X847516Y620700D01*
Y620112D01*
X847741Y619569D01*
X848156Y619154D01*
X848699Y618929D01*
X849286D01*
X849829Y619154D01*
X850244Y619569D01*
X850469Y620112D01*
Y620700D01*
X850244Y621242D01*
X849829Y621657D01*
X849286Y621882D01*
D02*
G37*
G36*
X840101Y625425D02*
X838986D01*
X837910Y625137D01*
X836945Y624580D01*
X836157Y623792D01*
X835600Y622827D01*
X835311Y621750D01*
Y620636D01*
X835600Y619560D01*
X836157Y618595D01*
X836945Y617807D01*
X837910Y617249D01*
X838986Y616961D01*
X840101D01*
X841177Y617249D01*
X842142Y617807D01*
X842930Y618595D01*
X843487Y619560D01*
X843776Y620636D01*
Y621750D01*
X843487Y622827D01*
X842930Y623792D01*
X842142Y624580D01*
X841177Y625137D01*
X840101Y625425D01*
D02*
G37*
G36*
X900646Y620036D02*
X899926Y619941D01*
X899256Y619663D01*
X898680Y619222D01*
X898239Y618646D01*
X897961Y617976D01*
X897866Y617256D01*
Y614500D01*
X897961Y613781D01*
X898239Y613110D01*
X898680Y612535D01*
X899256Y612093D01*
X899926Y611815D01*
X900646Y611721D01*
X901365Y611815D01*
X902036Y612093D01*
X902611Y612535D01*
X903053Y613110D01*
X903331Y613781D01*
X903426Y614500D01*
Y617256D01*
X903331Y617976D01*
X903053Y618646D01*
X902611Y619222D01*
X902036Y619663D01*
X901365Y619941D01*
X900646Y620036D01*
D02*
G37*
G36*
X866630D02*
X865911Y619941D01*
X865240Y619663D01*
X864665Y619222D01*
X864223Y618646D01*
X863945Y617976D01*
X863850Y617256D01*
Y614500D01*
X863945Y613781D01*
X864223Y613110D01*
X864665Y612535D01*
X865240Y612093D01*
X865911Y611815D01*
X866630Y611721D01*
X867350Y611815D01*
X868020Y612093D01*
X868596Y612535D01*
X869037Y613110D01*
X869315Y613781D01*
X869410Y614500D01*
Y617256D01*
X869315Y617976D01*
X869037Y618646D01*
X868596Y619222D01*
X868020Y619663D01*
X867350Y619941D01*
X866630Y620036D01*
D02*
G37*
%LPD*%
D12*
X830102Y1056721D02*
Y1052785D01*
X832726D01*
X834038Y1056065D02*
X834694Y1056721D01*
X836006D01*
X836662Y1056065D01*
Y1055409D01*
X836006Y1054753D01*
X835350D01*
X836006D01*
X836662Y1054097D01*
Y1053441D01*
X836006Y1052785D01*
X834694D01*
X834038Y1053441D01*
X841910Y1054753D02*
X844533D01*
X849781Y1052785D02*
Y1056721D01*
X851749D01*
X852405Y1056065D01*
Y1054753D01*
X851749Y1054097D01*
X849781D01*
X855685Y1056721D02*
X854373D01*
X853717Y1056065D01*
Y1053441D01*
X854373Y1052785D01*
X855685D01*
X856341Y1053441D01*
Y1056065D01*
X855685Y1056721D01*
X857653D02*
Y1052785D01*
X858965Y1054097D01*
X860276Y1052785D01*
Y1056721D01*
X864212D02*
X861588D01*
Y1052785D01*
X864212D01*
X861588Y1054753D02*
X862900D01*
X865524Y1052785D02*
Y1056721D01*
X867492D01*
X868148Y1056065D01*
Y1054753D01*
X867492Y1054097D01*
X865524D01*
X866836D02*
X868148Y1052785D01*
D40*
X908441Y933398D02*
D03*
X877732Y1014107D02*
D03*
X888362Y712925D02*
D03*
X896236Y918831D02*
D03*
X876099Y965288D02*
D03*
X857654Y974343D02*
D03*
X832063Y891272D02*
D03*
X888756Y926705D02*
D03*
X907457Y908792D02*
D03*
X907654Y905016D02*
D03*
X925370Y891272D02*
D03*
X923402Y918044D02*
D03*
X916315Y904264D02*
D03*
X893480Y918831D02*
D03*
X899386Y846587D02*
D03*
Y836744D02*
D03*
X926551Y945996D02*
D03*
X932457Y949540D02*
D03*
X928520D02*
D03*
X924583D02*
D03*
X930488Y945996D02*
D03*
X925370Y961351D02*
D03*
X921433D02*
D03*
X923402D02*
D03*
X931473Y963122D02*
D03*
Y965091D02*
D03*
Y961154D02*
D03*
X923796Y935367D02*
D03*
X923303Y709776D02*
D03*
X937575Y871587D02*
D03*
X854898Y868831D02*
D03*
X841118Y860057D02*
D03*
X924583Y868437D02*
D03*
X937181Y879461D02*
D03*
X869071Y815288D02*
D03*
Y801114D02*
D03*
Y805839D02*
D03*
Y810563D02*
D03*
X864347Y815288D02*
D03*
Y801114D02*
D03*
Y805839D02*
D03*
Y810563D02*
D03*
X859622Y815288D02*
D03*
Y801114D02*
D03*
Y805839D02*
D03*
Y810563D02*
D03*
X854898D02*
D03*
Y805839D02*
D03*
Y801114D02*
D03*
Y815288D02*
D03*
X850173Y801114D02*
D03*
Y805839D02*
D03*
Y810563D02*
D03*
Y815288D02*
D03*
X822614Y813319D02*
D03*
Y807807D02*
D03*
Y802689D02*
D03*
Y787335D02*
D03*
Y792059D02*
D03*
X941906Y652689D02*
D03*
X873008Y711744D02*
D03*
X919071Y733792D02*
D03*
X895449Y798359D02*
D03*
X895055Y803083D02*
D03*
X902142D02*
D03*
X921827Y720012D02*
D03*
X911985Y723949D02*
D03*
X911197Y709776D02*
D03*
X904504Y705839D02*
D03*
X916315Y641272D02*
D03*
Y635366D02*
D03*
X843874Y993241D02*
D03*
X846236Y984185D02*
D03*
Y980248D02*
D03*
X867496Y853477D02*
D03*
X832063Y895209D02*
D03*
X929701Y799540D02*
D03*
X929700Y781987D02*
D03*
X923402Y900327D02*
D03*
X936000Y895603D02*
D03*
X905292Y866469D02*
D03*
X872614Y981823D02*
D03*
X884839Y986941D02*
D03*
X891906Y981823D02*
D03*
X899780D02*
D03*
X889150Y1008988D02*
D03*
Y1012532D02*
D03*
X847418Y926705D02*
D03*
X898205D02*
D03*
X834819Y802689D02*
D03*
X831276D02*
D03*
X916709Y898752D02*
D03*
X925370Y909776D02*
D03*
X921433Y910170D02*
D03*
X851355Y944815D02*
D03*
X860016Y844028D02*
D03*
X899386Y841272D02*
D03*
X932477Y649160D02*
D03*
X895449Y617256D02*
D03*
Y612532D02*
D03*
X871827Y617256D02*
D03*
Y612532D02*
D03*
X881276D02*
D03*
X886000D02*
D03*
X876551D02*
D03*
X890725D02*
D03*
Y617256D02*
D03*
X876551D02*
D03*
X886000D02*
D03*
X881276D02*
D03*
Y626311D02*
D03*
Y621981D02*
D03*
X886000D02*
D03*
Y626311D02*
D03*
X875370Y675524D02*
D03*
Y680248D02*
D03*
X870646Y684973D02*
D03*
Y680248D02*
D03*
Y675524D02*
D03*
X861197D02*
D03*
X865921D02*
D03*
X861197Y680248D02*
D03*
X865921D02*
D03*
Y684973D02*
D03*
Y689697D02*
D03*
X861197Y684973D02*
D03*
Y689697D02*
D03*
X856473Y684973D02*
D03*
Y689697D02*
D03*
X896630Y641272D02*
D03*
M02*
