G04*
G04 #@! TF.GenerationSoftware,Altium Limited,Altium Designer,21.9.2 (33)*
G04*
G04 Layer_Physical_Order=1*
G04 Layer_Color=6711008*
%FSLAX25Y25*%
%MOIN*%
G70*
G04*
G04 #@! TF.SameCoordinates,38B2C1F3-0FCD-4184-AA18-E5AB633A714F*
G04*
G04*
G04 #@! TF.FilePolarity,Positive*
G04*
G01*
G75*
%ADD11C,0.01181*%
%ADD12C,0.00394*%
%ADD13C,0.00591*%
G04:AMPARAMS|DCode=15|XSize=31.5mil|YSize=27.56mil|CornerRadius=3.45mil|HoleSize=0mil|Usage=FLASHONLY|Rotation=270.000|XOffset=0mil|YOffset=0mil|HoleType=Round|Shape=RoundedRectangle|*
%AMROUNDEDRECTD15*
21,1,0.03150,0.02067,0,0,270.0*
21,1,0.02461,0.02756,0,0,270.0*
1,1,0.00689,-0.01034,-0.01230*
1,1,0.00689,-0.01034,0.01230*
1,1,0.00689,0.01034,0.01230*
1,1,0.00689,0.01034,-0.01230*
%
%ADD15ROUNDEDRECTD15*%
G04:AMPARAMS|DCode=16|XSize=20.47mil|YSize=20.47mil|CornerRadius=4.1mil|HoleSize=0mil|Usage=FLASHONLY|Rotation=90.000|XOffset=0mil|YOffset=0mil|HoleType=Round|Shape=RoundedRectangle|*
%AMROUNDEDRECTD16*
21,1,0.02047,0.01228,0,0,90.0*
21,1,0.01228,0.02047,0,0,90.0*
1,1,0.00819,0.00614,0.00614*
1,1,0.00819,0.00614,-0.00614*
1,1,0.00819,-0.00614,-0.00614*
1,1,0.00819,-0.00614,0.00614*
%
%ADD16ROUNDEDRECTD16*%
G04:AMPARAMS|DCode=17|XSize=20.47mil|YSize=20.47mil|CornerRadius=4.1mil|HoleSize=0mil|Usage=FLASHONLY|Rotation=0.000|XOffset=0mil|YOffset=0mil|HoleType=Round|Shape=RoundedRectangle|*
%AMROUNDEDRECTD17*
21,1,0.02047,0.01228,0,0,0.0*
21,1,0.01228,0.02047,0,0,0.0*
1,1,0.00819,0.00614,-0.00614*
1,1,0.00819,-0.00614,-0.00614*
1,1,0.00819,-0.00614,0.00614*
1,1,0.00819,0.00614,0.00614*
%
%ADD17ROUNDEDRECTD17*%
G04:AMPARAMS|DCode=18|XSize=11.81mil|YSize=27.56mil|CornerRadius=1.48mil|HoleSize=0mil|Usage=FLASHONLY|Rotation=0.000|XOffset=0mil|YOffset=0mil|HoleType=Round|Shape=RoundedRectangle|*
%AMROUNDEDRECTD18*
21,1,0.01181,0.02461,0,0,0.0*
21,1,0.00886,0.02756,0,0,0.0*
1,1,0.00295,0.00443,-0.01230*
1,1,0.00295,-0.00443,-0.01230*
1,1,0.00295,-0.00443,0.01230*
1,1,0.00295,0.00443,0.01230*
%
%ADD18ROUNDEDRECTD18*%
G04:AMPARAMS|DCode=19|XSize=11.81mil|YSize=39.37mil|CornerRadius=1.48mil|HoleSize=0mil|Usage=FLASHONLY|Rotation=0.000|XOffset=0mil|YOffset=0mil|HoleType=Round|Shape=RoundedRectangle|*
%AMROUNDEDRECTD19*
21,1,0.01181,0.03642,0,0,0.0*
21,1,0.00886,0.03937,0,0,0.0*
1,1,0.00295,0.00443,-0.01821*
1,1,0.00295,-0.00443,-0.01821*
1,1,0.00295,-0.00443,0.01821*
1,1,0.00295,0.00443,0.01821*
%
%ADD19ROUNDEDRECTD19*%
G04:AMPARAMS|DCode=20|XSize=39.37mil|YSize=35.43mil|CornerRadius=3.54mil|HoleSize=0mil|Usage=FLASHONLY|Rotation=180.000|XOffset=0mil|YOffset=0mil|HoleType=Round|Shape=RoundedRectangle|*
%AMROUNDEDRECTD20*
21,1,0.03937,0.02835,0,0,180.0*
21,1,0.03228,0.03543,0,0,180.0*
1,1,0.00709,-0.01614,0.01417*
1,1,0.00709,0.01614,0.01417*
1,1,0.00709,0.01614,-0.01417*
1,1,0.00709,-0.01614,-0.01417*
%
%ADD20ROUNDEDRECTD20*%
G04:AMPARAMS|DCode=21|XSize=7.87mil|YSize=23.62mil|CornerRadius=1.97mil|HoleSize=0mil|Usage=FLASHONLY|Rotation=0.000|XOffset=0mil|YOffset=0mil|HoleType=Round|Shape=RoundedRectangle|*
%AMROUNDEDRECTD21*
21,1,0.00787,0.01968,0,0,0.0*
21,1,0.00394,0.02362,0,0,0.0*
1,1,0.00394,0.00197,-0.00984*
1,1,0.00394,-0.00197,-0.00984*
1,1,0.00394,-0.00197,0.00984*
1,1,0.00394,0.00197,0.00984*
%
%ADD21ROUNDEDRECTD21*%
G04:AMPARAMS|DCode=22|XSize=39.37mil|YSize=35.43mil|CornerRadius=3.54mil|HoleSize=0mil|Usage=FLASHONLY|Rotation=90.000|XOffset=0mil|YOffset=0mil|HoleType=Round|Shape=RoundedRectangle|*
%AMROUNDEDRECTD22*
21,1,0.03937,0.02835,0,0,90.0*
21,1,0.03228,0.03543,0,0,90.0*
1,1,0.00709,0.01417,0.01614*
1,1,0.00709,0.01417,-0.01614*
1,1,0.00709,-0.01417,-0.01614*
1,1,0.00709,-0.01417,0.01614*
%
%ADD22ROUNDEDRECTD22*%
%ADD35C,0.03150*%
%ADD36C,0.03937*%
%ADD37C,0.01772*%
%ADD38C,0.01575*%
%ADD39O,0.03937X0.06693*%
%ADD40C,0.01772*%
G36*
X873299Y1021871D02*
X873252Y1021750D01*
X872990Y1021698D01*
X872469Y1021350D01*
X872469Y1021350D01*
X870374Y1019256D01*
X859686D01*
X859071Y1019133D01*
X858550Y1018785D01*
X858550Y1018785D01*
X856556Y1016791D01*
X856208Y1016270D01*
X856086Y1015656D01*
X856086Y1015656D01*
Y1013115D01*
X856048Y1012926D01*
X856170Y1012311D01*
X856518Y1011790D01*
X857039Y1011442D01*
X857654Y1011320D01*
X858268Y1011442D01*
X858789Y1011790D01*
X858827Y1011828D01*
X859175Y1012349D01*
X859297Y1012963D01*
X859297Y1012963D01*
Y1014316D01*
X859797Y1014416D01*
X859945Y1014058D01*
X860361Y1013642D01*
X860903Y1013418D01*
X861491D01*
X862033Y1013642D01*
X862449Y1014058D01*
X862673Y1014600D01*
Y1015188D01*
X862526Y1015544D01*
X862788Y1016044D01*
X863937D01*
X864199Y1015544D01*
X864051Y1015188D01*
Y1014600D01*
X864276Y1014058D01*
X864692Y1013642D01*
X865234Y1013418D01*
X865821D01*
X866364Y1013642D01*
X866779Y1014058D01*
X867004Y1014600D01*
Y1015188D01*
X866856Y1015544D01*
X867119Y1016044D01*
X867874D01*
X868136Y1015544D01*
X867988Y1015188D01*
Y1014600D01*
X868213Y1014058D01*
X868629Y1013642D01*
X869171Y1013418D01*
X869759D01*
X870301Y1013642D01*
X870716Y1014058D01*
X870941Y1014600D01*
Y1015188D01*
X870794Y1015544D01*
X871014Y1015992D01*
X871083Y1016053D01*
X871654Y1016166D01*
X872175Y1016515D01*
X873273Y1017613D01*
X873773Y1017406D01*
Y1015238D01*
X873861Y1014797D01*
X874111Y1014423D01*
X874486Y1014172D01*
X874927Y1014084D01*
X875484D01*
X876597Y1012971D01*
X876597Y1012971D01*
X877118Y1012623D01*
X877732Y1012501D01*
X878347Y1012623D01*
X878398Y1012657D01*
X878557Y1012616D01*
X878909Y1012398D01*
X878946Y1012213D01*
X878693Y1011653D01*
X878172Y1011305D01*
X877824Y1010784D01*
X877702Y1010170D01*
X877824Y1009555D01*
X878172Y1009034D01*
X878693Y1008686D01*
X878699Y1008685D01*
X878845Y1008588D01*
X879459Y1008465D01*
X881571D01*
X881571Y1008465D01*
X882185Y1008588D01*
X882707Y1008936D01*
X884264Y1010493D01*
X884515Y1010423D01*
X884652Y1009991D01*
X884559Y1009524D01*
Y1009062D01*
X883896Y1008399D01*
X883589Y1008272D01*
X883174Y1007856D01*
X882949Y1007314D01*
Y1006726D01*
X883174Y1006184D01*
X883589Y1005768D01*
X884132Y1005544D01*
X884719D01*
X885262Y1005768D01*
X885677Y1006184D01*
X885693Y1006222D01*
X886546Y1007075D01*
X887008D01*
X887475Y1007168D01*
X887871Y1007433D01*
X888109Y1007790D01*
X888535Y1007505D01*
X889150Y1007383D01*
X890149D01*
X890352Y1007247D01*
X890819Y1007154D01*
X892048D01*
X892515Y1007247D01*
X892910Y1007512D01*
X893175Y1007907D01*
X893268Y1008374D01*
Y1009603D01*
X893175Y1010070D01*
X892910Y1010466D01*
Y1010661D01*
X893175Y1011057D01*
X893268Y1011524D01*
Y1012752D01*
X893175Y1013219D01*
X892910Y1013615D01*
X892828Y1013670D01*
X892814Y1013862D01*
X892883Y1014235D01*
X893165Y1014423D01*
X893392Y1014763D01*
X896711D01*
X898573Y1012900D01*
X899127Y1012531D01*
X899780Y1012401D01*
X900433Y1012531D01*
X900986Y1012900D01*
X901356Y1013454D01*
X901486Y1014107D01*
X901356Y1014760D01*
X900986Y1015313D01*
X900841Y1015458D01*
X900901Y1015701D01*
X901045Y1015961D01*
X901614Y1016074D01*
X902167Y1016444D01*
X902537Y1016997D01*
X902667Y1017650D01*
Y1017685D01*
X902537Y1018338D01*
X902167Y1018892D01*
X899454Y1021605D01*
X899671Y1022095D01*
X900832Y1022038D01*
X907695Y1021538D01*
X910394Y1021275D01*
X910394Y1020202D01*
X910395Y1020199D01*
X910394Y1020195D01*
X910395Y1020136D01*
X910397Y1020127D01*
X910395Y1020118D01*
X910398Y1020040D01*
X910400Y1020029D01*
X910399Y1020017D01*
X910405Y1019920D01*
X910408Y1019910D01*
X910406Y1019900D01*
X910411Y1019849D01*
X910413Y1019842D01*
X910412Y1019835D01*
X910417Y1019783D01*
X910430Y1019744D01*
X910430Y1019703D01*
X910540Y1019173D01*
X910582Y1019075D01*
X910611Y1018972D01*
X911078Y1018058D01*
X911164Y1017949D01*
X911246Y1017836D01*
X911997Y1017137D01*
X912116Y1017064D01*
X912231Y1016985D01*
X913176Y1016585D01*
X913279Y1016564D01*
X913378Y1016529D01*
X913888Y1016458D01*
X913928Y1016461D01*
X913966Y1016451D01*
X914023Y1016449D01*
X914032Y1016450D01*
X914040Y1016448D01*
X914116Y1016447D01*
X914124Y1016448D01*
X914133Y1016447D01*
X914183Y1016447D01*
X914191Y1016448D01*
X914198Y1016447D01*
X914262Y1016448D01*
X914270Y1016450D01*
X914279Y1016449D01*
X914342Y1016452D01*
X914351Y1016454D01*
X914359Y1016453D01*
X914422Y1016457D01*
X914460Y1016467D01*
X914499Y1016465D01*
X914995Y1016545D01*
X915087Y1016580D01*
X915183Y1016600D01*
X916045Y1016969D01*
X916150Y1017041D01*
X916260Y1017105D01*
X916324Y1017162D01*
X916444Y1017182D01*
X917298Y1017548D01*
X917997Y1018161D01*
X918279Y1018637D01*
X918365Y1018627D01*
X918503Y1018610D01*
X918663Y1018591D01*
X918863Y1018567D01*
X919058Y1018544D01*
X919245Y1018521D01*
X919429Y1018499D01*
X919607Y1018477D01*
X919781Y1018456D01*
X919781Y1018456D01*
X919951Y1018434D01*
X920117Y1018414D01*
X920278Y1018394D01*
X920436Y1018374D01*
X920589Y1018354D01*
X920738Y1018335D01*
X920883Y1018317D01*
X921028Y1018298D01*
X921028D01*
X921168Y1018280D01*
X921168Y1018280D01*
X921305Y1018262D01*
X921305D01*
X921441Y1018245D01*
X921441Y1018245D01*
X921573Y1018228D01*
X921701Y1018211D01*
X921829Y1018194D01*
X921953Y1018178D01*
X922079Y1018161D01*
X922319Y1018129D01*
X922521Y1018102D01*
X922521Y1018102D01*
X922714Y1018075D01*
X922898Y1018050D01*
X923073Y1018026D01*
X923243Y1018003D01*
X923243D01*
X923403Y1017980D01*
X923561Y1017958D01*
X923710Y1017937D01*
X923856Y1017917D01*
X923998Y1017897D01*
X924136Y1017877D01*
X924269Y1017858D01*
X924400Y1017839D01*
X924400D01*
X924526Y1017821D01*
X924648Y1017803D01*
X924767Y1017786D01*
X924767Y1017786D01*
X924882Y1017769D01*
X924994Y1017752D01*
X925105Y1017736D01*
X925211Y1017720D01*
X925318Y1017704D01*
X925519Y1017674D01*
X925675Y1017651D01*
X925829Y1017627D01*
X925987Y1017603D01*
X926142Y1017579D01*
X926142Y1017579D01*
X926297Y1017555D01*
X926454Y1017531D01*
X926608Y1017506D01*
X926763Y1017482D01*
X926763D01*
X926918Y1017457D01*
X926918Y1017457D01*
X927072Y1017433D01*
X927226Y1017408D01*
X927226D01*
X927380Y1017383D01*
X927380Y1017383D01*
X927535Y1017358D01*
X927535D01*
X927690Y1017333D01*
X927843Y1017307D01*
X927999Y1017282D01*
X928158Y1017255D01*
X928158Y1017255D01*
X928304Y1017231D01*
X928304D01*
X928405Y1017214D01*
X928405Y1017214D01*
X928510Y1017196D01*
X928612Y1017178D01*
X928613Y1017178D01*
X928719Y1017160D01*
X928823Y1017142D01*
X928930Y1017124D01*
X929038Y1017105D01*
X929149Y1017086D01*
X929260Y1017066D01*
X929371Y1017047D01*
X929485Y1017027D01*
X929600Y1017006D01*
X929600Y1017006D01*
X929716Y1016985D01*
X929717Y1016985D01*
X929838Y1016963D01*
X929961Y1016941D01*
X929961D01*
X930087Y1016918D01*
X930215Y1016895D01*
X930215Y1016895D01*
X930348Y1016870D01*
X930348D01*
X930486Y1016845D01*
X930630Y1016818D01*
X930757Y1016794D01*
X930851Y1016777D01*
X930944Y1016759D01*
X931040Y1016741D01*
X931135Y1016723D01*
X931231Y1016704D01*
X931330Y1016685D01*
X931330D01*
X931428Y1016666D01*
X931527Y1016647D01*
X931626Y1016628D01*
X931727Y1016608D01*
X931829Y1016588D01*
X931829Y1016588D01*
X931933Y1016567D01*
X932037Y1016546D01*
X932141Y1016525D01*
X932248Y1016504D01*
X932248D01*
X932355Y1016482D01*
X932466Y1016459D01*
X932466D01*
X932579Y1016436D01*
X932692Y1016413D01*
X932813Y1016387D01*
X932954Y1016358D01*
X933048Y1016338D01*
X933142Y1016318D01*
X933234Y1016299D01*
X933327Y1016279D01*
X933419Y1016259D01*
X933511Y1016239D01*
X933602Y1016220D01*
X933692Y1016200D01*
X933782Y1016180D01*
X933782Y1016180D01*
X933872Y1016160D01*
X933963Y1016140D01*
X934054Y1016120D01*
X934145Y1016100D01*
X934235Y1016079D01*
X934235D01*
X934323Y1016059D01*
X934412Y1016039D01*
X934501Y1016019D01*
X934589Y1015999D01*
X934676Y1015979D01*
X934676Y1015979D01*
X934765Y1015958D01*
X934883Y1015930D01*
X934981Y1015907D01*
X934981D01*
X935076Y1015885D01*
X935172Y1015862D01*
X935266Y1015840D01*
X935358Y1015818D01*
X935452Y1015795D01*
X935452D01*
X935542Y1015773D01*
X935635Y1015750D01*
X935724Y1015728D01*
X935724Y1015728D01*
X935815Y1015706D01*
X935904Y1015683D01*
X935994Y1015661D01*
X936082Y1015639D01*
X936171Y1015616D01*
X936257Y1015594D01*
X936341Y1015573D01*
X936341Y1015573D01*
X936427Y1015551D01*
X936513Y1015528D01*
X936513D01*
X936638Y1015496D01*
X936735Y1015471D01*
X936831Y1015445D01*
X936924Y1015420D01*
X937018Y1015395D01*
X937111Y1015370D01*
X937111D01*
X937201Y1015346D01*
X937293Y1015320D01*
X937383Y1015296D01*
X937471Y1015271D01*
X937559Y1015247D01*
X937645Y1015223D01*
X937730Y1015199D01*
X937817Y1015174D01*
X937900Y1015151D01*
X937981Y1015127D01*
X937981Y1015127D01*
X938066Y1015103D01*
X938171Y1015072D01*
X938245Y1015051D01*
X938319Y1015029D01*
X938393Y1015007D01*
X938468Y1014985D01*
X938540Y1014963D01*
X938612Y1014942D01*
X938685Y1014919D01*
X938756Y1014898D01*
X938826Y1014876D01*
X938897Y1014855D01*
X938965Y1014834D01*
X939034Y1014812D01*
X939100Y1014791D01*
X939169Y1014770D01*
X939236Y1014749D01*
X939302Y1014728D01*
X939302Y1014728D01*
X939367Y1014707D01*
X939367Y1014707D01*
X939433Y1014686D01*
X939518Y1014659D01*
X939570Y1014642D01*
X939624Y1014624D01*
X939679Y1014606D01*
X939732Y1014588D01*
X939788Y1014570D01*
X939842Y1014552D01*
X939842Y1014552D01*
X939899Y1014533D01*
X939955Y1014514D01*
X939955D01*
X940012Y1014495D01*
X940068Y1014476D01*
X940127Y1014456D01*
X940186Y1014436D01*
X940246Y1014415D01*
X940307Y1014394D01*
X940371Y1014372D01*
X940371D01*
X940433Y1014350D01*
X940498Y1014327D01*
X940565Y1014303D01*
X940633Y1014279D01*
X940704Y1014253D01*
X940782Y1014225D01*
X940861Y1014196D01*
X940941Y1014167D01*
X941024Y1014136D01*
X941107Y1014105D01*
X941189Y1014074D01*
X941277Y1014041D01*
X941364Y1014007D01*
X941455Y1013972D01*
X941547Y1013936D01*
X941644Y1013898D01*
X941695Y1013877D01*
X941763Y1013850D01*
X941810Y1013831D01*
X941859Y1013811D01*
X941909Y1013791D01*
X941961Y1013769D01*
X942015Y1013747D01*
X942068Y1013725D01*
X942122Y1013702D01*
X942181Y1013677D01*
X942238Y1013653D01*
X942298Y1013627D01*
X942362Y1013599D01*
X942427Y1013571D01*
X942496Y1013541D01*
X942570Y1013508D01*
X942648Y1013473D01*
X942700Y1013449D01*
X942776Y1013415D01*
X942853Y1013380D01*
X942927Y1013346D01*
X942927Y1013346D01*
X943382Y1013133D01*
X944223Y1012584D01*
X944978Y1011922D01*
X945632Y1011160D01*
X946171Y1010313D01*
X946585Y1009398D01*
X946867Y1008434D01*
X947009Y1007439D01*
X947009Y1006937D01*
X947009Y623084D01*
X947009Y622581D01*
X946867Y621587D01*
X946585Y620622D01*
X946171Y619707D01*
X945631Y618860D01*
X944977Y618098D01*
X944221Y617436D01*
X943380Y616887D01*
X942925Y616675D01*
X942925Y616675D01*
X942865Y616647D01*
X942770Y616603D01*
X942682Y616563D01*
X942590Y616522D01*
X942500Y616482D01*
X942409Y616443D01*
X942319Y616404D01*
X942231Y616366D01*
X942142Y616329D01*
X942047Y616289D01*
X941958Y616252D01*
X941875Y616218D01*
X941800Y616188D01*
X941730Y616160D01*
X941663Y616134D01*
X941663Y616134D01*
X941600Y616109D01*
X941540Y616085D01*
X941484Y616063D01*
X941428Y616042D01*
X941376Y616021D01*
X941325Y616002D01*
X941277Y615984D01*
X941277D01*
X941191Y615951D01*
X941122Y615925D01*
X941059Y615902D01*
X941001Y615880D01*
X940945Y615860D01*
X940945D01*
X940892Y615841D01*
X940842Y615822D01*
X940746Y615788D01*
X940659Y615757D01*
X940575Y615727D01*
X940498Y615699D01*
X940421Y615672D01*
X940348Y615647D01*
X940348D01*
X940273Y615621D01*
X940181Y615590D01*
X940102Y615562D01*
X940102D01*
X940029Y615538D01*
X939964Y615516D01*
X939901Y615495D01*
X939843Y615476D01*
X939787Y615457D01*
X939733Y615439D01*
X939683Y615423D01*
X939633Y615407D01*
X939633D01*
X939536Y615375D01*
X939444Y615345D01*
X939355Y615317D01*
X939281Y615294D01*
X939188Y615264D01*
X939097Y615236D01*
X939010Y615208D01*
X938924Y615182D01*
X938924D01*
X938838Y615155D01*
X938757Y615131D01*
X938675Y615106D01*
X938593Y615081D01*
X938513Y615057D01*
X938433Y615033D01*
X938356Y615010D01*
X938278Y614988D01*
X938200Y614965D01*
X938122Y614942D01*
X938069Y614927D01*
X938008Y614909D01*
X937944Y614891D01*
X937943Y614891D01*
X937877Y614872D01*
X937877D01*
X937803Y614851D01*
X937726Y614829D01*
X937641Y614805D01*
X937548Y614779D01*
X937446Y614751D01*
X937327Y614718D01*
X937189Y614680D01*
X937016Y614634D01*
X936762Y614566D01*
X936684Y614545D01*
X936621Y614529D01*
X936558Y614512D01*
X936492Y614495D01*
X936426Y614478D01*
X936356Y614460D01*
X936285Y614442D01*
X936210Y614423D01*
X936133Y614403D01*
X936054Y614383D01*
X935973Y614363D01*
X935888Y614342D01*
X935797Y614319D01*
X935703Y614296D01*
X935606Y614272D01*
X935501Y614246D01*
X935391Y614220D01*
X935272Y614191D01*
X935148Y614162D01*
X935064Y614142D01*
X934980Y614122D01*
X934895Y614102D01*
X934895Y614102D01*
X934812Y614082D01*
X934812D01*
X934726Y614063D01*
X934641Y614043D01*
X934641Y614043D01*
X934557Y614024D01*
X934557D01*
X934471Y614004D01*
X934386Y613984D01*
X934299Y613965D01*
X934213Y613945D01*
X934127Y613926D01*
X934040Y613907D01*
X933953Y613887D01*
X933865Y613868D01*
X933778Y613849D01*
X933689Y613829D01*
X933580Y613806D01*
X933580Y613806D01*
X933484Y613785D01*
X933388Y613764D01*
X933388D01*
X933290Y613743D01*
X933192Y613722D01*
X933094Y613701D01*
X933094Y613701D01*
X932998Y613681D01*
X932902Y613661D01*
X932902D01*
X932805Y613641D01*
X932707Y613620D01*
X932707Y613620D01*
X932610Y613600D01*
X932512Y613580D01*
X932413Y613560D01*
X932315Y613540D01*
X932215Y613520D01*
X932117Y613500D01*
X932015Y613480D01*
X932015Y613480D01*
X931890Y613455D01*
X931776Y613432D01*
X931664Y613410D01*
X931555Y613389D01*
X931446Y613368D01*
X931446Y613368D01*
X931340Y613347D01*
X931340D01*
X931235Y613327D01*
X931131Y613307D01*
X931027Y613287D01*
X930926Y613268D01*
X930926Y613268D01*
X930827Y613249D01*
X930827D01*
X930728Y613231D01*
X930631Y613212D01*
X930534Y613194D01*
X930438Y613176D01*
X930344Y613159D01*
X930247Y613141D01*
X930074Y613110D01*
X929949Y613087D01*
X929825Y613064D01*
X929704Y613043D01*
X929585Y613022D01*
X929467Y613001D01*
X929352Y612980D01*
X929236Y612960D01*
X929123Y612940D01*
X929010Y612921D01*
X928900Y612901D01*
X928791Y612883D01*
X928791D01*
X928683Y612864D01*
X928683Y612864D01*
X928577Y612846D01*
X928577D01*
X928470Y612828D01*
X928362Y612810D01*
X928166Y612777D01*
X928008Y612750D01*
X927855Y612725D01*
X927705Y612700D01*
X927557Y612676D01*
X927412Y612652D01*
X927270Y612629D01*
X927132Y612607D01*
X927132D01*
X926993Y612585D01*
X926858Y612563D01*
X926858D01*
X926724Y612542D01*
X926724Y612542D01*
X926594Y612521D01*
X926464Y612501D01*
X926332Y612480D01*
X926236Y612465D01*
X926088Y612443D01*
X926088Y612443D01*
X925943Y612420D01*
X925943D01*
X925798Y612398D01*
X925655Y612377D01*
X925655Y612376D01*
X925515Y612355D01*
X925372Y612334D01*
X925231Y612313D01*
X925092Y612292D01*
X925092D01*
X924951Y612271D01*
X924813Y612251D01*
X924676Y612231D01*
X924537Y612211D01*
X924537Y612211D01*
X924401Y612191D01*
X924401D01*
X924264Y612171D01*
X924126Y612151D01*
X924126Y612151D01*
X924011Y612135D01*
X923829Y612109D01*
X923657Y612085D01*
X923657D01*
X923487Y612061D01*
X923323Y612038D01*
X923164Y612016D01*
X923164D01*
X923008Y611994D01*
X922855Y611973D01*
X922855Y611973D01*
X922705Y611953D01*
X922705D01*
X922558Y611933D01*
X922413Y611913D01*
X922270Y611894D01*
X922128Y611875D01*
X921989Y611857D01*
X921989D01*
X921850Y611838D01*
X921711Y611820D01*
X921648Y611812D01*
X921533Y611797D01*
X921415Y611781D01*
X921292Y611765D01*
X921292D01*
X921163Y611748D01*
X921028Y611731D01*
X921028Y611731D01*
X920888Y611713D01*
X920741Y611694D01*
X920585Y611674D01*
X920419Y611653D01*
X920419D01*
X920240Y611631D01*
X920050Y611607D01*
X919844Y611582D01*
X919844D01*
X919616Y611553D01*
X919616Y611553D01*
X919361Y611522D01*
X919062Y611486D01*
X918949Y611472D01*
X918816Y611456D01*
X918678Y611440D01*
X918534Y611422D01*
X918380Y611404D01*
X918221Y611385D01*
X918051Y611365D01*
X918051D01*
X917868Y611344D01*
X917674Y611321D01*
X917461Y611297D01*
X917227Y611270D01*
X916959Y611239D01*
X916959Y611239D01*
X916646Y611204D01*
X916646D01*
X916244Y611159D01*
X916244Y611159D01*
X916159Y611149D01*
X916053Y611137D01*
X915943Y611125D01*
X915829Y611113D01*
X915829D01*
X915710Y611100D01*
X915587Y611086D01*
X915460Y611072D01*
X915325Y611058D01*
X915184Y611043D01*
X915035Y611026D01*
X914876Y611009D01*
X914876Y611009D01*
X914707Y610991D01*
X914520Y610971D01*
X914314Y610950D01*
X914076Y610925D01*
X914076Y610925D01*
X913789Y610895D01*
X913789D01*
X913379Y610852D01*
X913283Y610842D01*
X913049Y610818D01*
X912838Y610797D01*
X912643Y610777D01*
X912460Y610759D01*
X912289Y610742D01*
X912128Y610726D01*
X911977Y610710D01*
X911832Y610696D01*
X911727Y610686D01*
X911621Y610950D01*
X911563Y611040D01*
X911517Y611136D01*
X910899Y611955D01*
X910795Y612048D01*
X910695Y612145D01*
X909834Y612704D01*
X909705Y612756D01*
X909578Y612813D01*
X908578Y613043D01*
X908473Y613047D01*
X908369Y613063D01*
X907854Y613045D01*
X907816Y613036D01*
X907777Y613039D01*
X907720Y613031D01*
X907712Y613028D01*
X907703Y613029D01*
X907628Y613017D01*
X907617Y613013D01*
X907604Y613013D01*
X907501Y612993D01*
X907491Y612989D01*
X907479Y612989D01*
X907423Y612977D01*
X907416Y612974D01*
X907408Y612974D01*
X907352Y612960D01*
X907316Y612944D01*
X907277Y612939D01*
X906790Y612772D01*
X906702Y612722D01*
X906609Y612684D01*
X905800Y612152D01*
X905706Y612060D01*
X905606Y611973D01*
X905013Y611209D01*
X904954Y611091D01*
X904887Y610977D01*
X904573Y610062D01*
X904560Y609963D01*
X904532Y609868D01*
X904492Y609384D01*
X904495Y609350D01*
X904489Y609317D01*
Y607837D01*
X902537Y607689D01*
X897142Y607381D01*
X891743Y607176D01*
X886339Y607073D01*
X880937D01*
X875533Y607176D01*
X870134Y607381D01*
X864740Y607689D01*
X862787Y607837D01*
Y609312D01*
X862786Y609316D01*
X862787Y609320D01*
X862787Y609379D01*
X862785Y609388D01*
X862786Y609397D01*
X862784Y609475D01*
X862781Y609486D01*
X862783Y609498D01*
X862777Y609595D01*
X862774Y609605D01*
X862775Y609615D01*
X862771Y609666D01*
X862769Y609673D01*
X862769Y609680D01*
X862764Y609731D01*
X862752Y609771D01*
X862751Y609812D01*
X862641Y610341D01*
X862599Y610440D01*
X862570Y610542D01*
X862104Y611456D01*
X862017Y611566D01*
X861936Y611679D01*
X861184Y612378D01*
X861066Y612451D01*
X860950Y612530D01*
X860005Y612930D01*
X859902Y612951D01*
X859803Y612985D01*
X859293Y613057D01*
X859254Y613054D01*
X859215Y613063D01*
X859159Y613066D01*
X859150Y613064D01*
X859141Y613066D01*
X859066Y613068D01*
X859054Y613066D01*
X859041Y613068D01*
X858936Y613067D01*
X858925Y613064D01*
X858914Y613066D01*
X858857Y613064D01*
X858849Y613062D01*
X858841Y613063D01*
X858784Y613060D01*
X858745Y613050D01*
X858706Y613051D01*
X858197Y612972D01*
X858103Y612937D01*
X858004Y612916D01*
X857115Y612532D01*
X857006Y612457D01*
X856894Y612390D01*
X856177Y611739D01*
X856098Y611633D01*
X856013Y611532D01*
X855546Y610686D01*
X855483Y610692D01*
X855332Y610707D01*
X855173Y610723D01*
X855173D01*
X855010Y610739D01*
X854839Y610756D01*
X854659Y610775D01*
X854470Y610794D01*
X854470D01*
X854270Y610814D01*
X854057Y610836D01*
X853830Y610859D01*
X853656Y610877D01*
X853656D01*
X853376Y610906D01*
X853376Y610906D01*
X853129Y610932D01*
X852909Y610955D01*
X852705Y610977D01*
X852516Y610997D01*
X852516D01*
X852339Y611016D01*
X852339Y611016D01*
X852169Y611034D01*
X852009Y611052D01*
X851858Y611068D01*
X851712Y611084D01*
X851569Y611099D01*
X851433Y611114D01*
X851301Y611129D01*
X851173Y611143D01*
X851048Y611157D01*
X851048Y611157D01*
X850923Y611171D01*
X850923D01*
X850587Y611209D01*
X850587Y611209D01*
X850309Y611240D01*
X850055Y611269D01*
X849822Y611296D01*
X849603Y611321D01*
X849399Y611345D01*
X849399D01*
X849204Y611368D01*
X849018Y611390D01*
X848842Y611410D01*
X848842Y611410D01*
X848674Y611431D01*
X848512Y611450D01*
X848357Y611468D01*
X848357Y611468D01*
X848208Y611486D01*
X848058Y611505D01*
X848058D01*
X847823Y611533D01*
X847604Y611560D01*
X847398Y611586D01*
X847204Y611610D01*
X847021Y611633D01*
X847021D01*
X846848Y611655D01*
X846684Y611675D01*
X846525Y611695D01*
X846372Y611715D01*
X846226Y611734D01*
X846085Y611752D01*
X845948Y611770D01*
X845816Y611787D01*
X845688Y611804D01*
X845563Y611820D01*
X845444Y611836D01*
X845324Y611852D01*
X845324D01*
X845148Y611875D01*
X844977Y611898D01*
X844810Y611921D01*
X844646Y611943D01*
X844646D01*
X844487Y611964D01*
X844487Y611964D01*
X844329Y611986D01*
X844329D01*
X844176Y612007D01*
X844176Y612007D01*
X844026Y612028D01*
X844026D01*
X843879Y612048D01*
X843733Y612069D01*
X843733Y612069D01*
X843590Y612089D01*
X843450Y612109D01*
X843313Y612128D01*
X843178Y612147D01*
X843178Y612147D01*
X843044Y612166D01*
X842915Y612185D01*
X842786Y612204D01*
X842560Y612237D01*
X842388Y612262D01*
X842218Y612287D01*
X842053Y612312D01*
X841892Y612336D01*
X841736Y612359D01*
X841736Y612359D01*
X841582Y612383D01*
X841431Y612405D01*
X841284Y612428D01*
X841140Y612450D01*
X841000Y612472D01*
X840863Y612493D01*
X840863Y612493D01*
X840728Y612514D01*
X840596Y612535D01*
X840466Y612556D01*
X840409Y612565D01*
X840409Y612565D01*
X840292Y612583D01*
X840175Y612602D01*
X840175Y612602D01*
X840053Y612621D01*
X840053D01*
X839930Y612641D01*
X839803Y612662D01*
X839674Y612683D01*
X839537Y612706D01*
X839396Y612729D01*
X839250Y612753D01*
X839095Y612779D01*
X838933Y612806D01*
X838760Y612836D01*
X838573Y612867D01*
X838362Y612904D01*
X838362D01*
X838284Y612917D01*
X838284Y612917D01*
X838194Y612933D01*
X838102Y612949D01*
X838009Y612965D01*
X838009Y612965D01*
X837914Y612982D01*
X837914D01*
X837818Y612999D01*
X837719Y613017D01*
X837719Y613017D01*
X837619Y613034D01*
X837515Y613053D01*
X837411Y613072D01*
X837411Y613072D01*
X837302Y613092D01*
X837302D01*
X837191Y613112D01*
X837075Y613133D01*
X836957Y613155D01*
X836832Y613177D01*
X836704Y613201D01*
X836567Y613227D01*
X836423Y613254D01*
X836423Y613254D01*
X836314Y613275D01*
X836314Y613275D01*
X836218Y613293D01*
X836123Y613311D01*
X836123D01*
X836027Y613330D01*
X835930Y613348D01*
X835833Y613367D01*
X835735Y613386D01*
X835636Y613405D01*
X835537Y613425D01*
X835437Y613445D01*
X835334Y613465D01*
X835233Y613485D01*
X835129Y613506D01*
X835025Y613527D01*
X835025Y613527D01*
X834919Y613549D01*
X834813Y613570D01*
X834706Y613592D01*
X834594Y613615D01*
X834594D01*
X834544Y613626D01*
X834441Y613647D01*
X834441D01*
X834342Y613668D01*
X834244Y613688D01*
X834244Y613688D01*
X834145Y613709D01*
X834048Y613730D01*
X833953Y613750D01*
X833856Y613771D01*
X833856D01*
X833763Y613791D01*
X833668Y613812D01*
X833575Y613832D01*
X833484Y613852D01*
X833393Y613872D01*
X833302Y613892D01*
X833213Y613912D01*
X833213Y613912D01*
X833123Y613932D01*
X833035Y613952D01*
X832946Y613972D01*
X832859Y613991D01*
X832716Y614024D01*
X832619Y614047D01*
X832619D01*
X832526Y614068D01*
X832436Y614089D01*
X832347Y614110D01*
X832261Y614130D01*
X832177Y614150D01*
X832095Y614170D01*
X832095D01*
X832015Y614188D01*
X831936Y614208D01*
X831858Y614226D01*
X831858D01*
X831782Y614245D01*
X831708Y614263D01*
X831635Y614281D01*
X831563Y614298D01*
X831493Y614316D01*
X831423Y614333D01*
X831355Y614350D01*
X831289Y614366D01*
X831221Y614383D01*
X831078Y614420D01*
X830903Y614464D01*
X830758Y614502D01*
X830634Y614534D01*
X830526Y614563D01*
X830426Y614589D01*
X830333Y614614D01*
X830249Y614636D01*
X830169Y614658D01*
X830093Y614678D01*
X830023Y614698D01*
X829956Y614716D01*
X829893Y614733D01*
X829832Y614750D01*
X829774Y614766D01*
X829716Y614782D01*
X829716D01*
X829511Y614840D01*
X829374Y614879D01*
X829248Y614915D01*
X829134Y614948D01*
X829029Y614979D01*
X828932Y615007D01*
X828932Y615007D01*
X828841Y615034D01*
X828756Y615059D01*
X828675Y615084D01*
X828601Y615106D01*
X828601Y615106D01*
X828529Y615128D01*
X828461Y615148D01*
X828394Y615169D01*
X828329Y615189D01*
X828236Y615218D01*
X828140Y615248D01*
X828090Y615263D01*
X828038Y615280D01*
X827983Y615297D01*
X827926Y615315D01*
X827866Y615334D01*
X827803Y615355D01*
X827734Y615377D01*
X827659Y615401D01*
X827570Y615430D01*
X827461Y615466D01*
X827274Y615529D01*
X827216Y615548D01*
X827135Y615576D01*
X827052Y615604D01*
X826963Y615635D01*
X826869Y615667D01*
X826822Y615684D01*
X826770Y615702D01*
X826717Y615721D01*
X826661Y615741D01*
X826602Y615762D01*
X826538Y615785D01*
X826467Y615810D01*
X826391Y615838D01*
X826296Y615873D01*
X826244Y615892D01*
X826193Y615911D01*
X826142Y615930D01*
X826142Y615930D01*
X826086Y615951D01*
X826030Y615972D01*
X825969Y615995D01*
X825905Y616020D01*
X825833Y616047D01*
X825753Y616078D01*
X825665Y616113D01*
X825614Y616133D01*
X825557Y616156D01*
X825490Y616182D01*
X825404Y616217D01*
X825348Y616240D01*
X825277Y616269D01*
X825206Y616298D01*
X825135Y616328D01*
X825059Y616360D01*
X824984Y616392D01*
X824907Y616426D01*
X824829Y616459D01*
X824750Y616494D01*
X824670Y616529D01*
X824590Y616565D01*
X824475Y616617D01*
X824413Y616646D01*
X824351Y616675D01*
X823896Y616887D01*
X823054Y617436D01*
X822299Y618098D01*
X821645Y618860D01*
X821105Y619708D01*
X820691Y620623D01*
X820409Y621587D01*
X820268Y622581D01*
Y623084D01*
Y1006937D01*
X820268Y1007439D01*
X820409Y1008434D01*
X820690Y1009398D01*
X821105Y1010312D01*
X821644Y1011159D01*
X822298Y1011922D01*
X823053Y1012584D01*
X823894Y1013133D01*
X824349Y1013345D01*
X824415Y1013376D01*
X824500Y1013415D01*
X824585Y1013454D01*
X824674Y1013494D01*
X824760Y1013532D01*
X824852Y1013573D01*
X824913Y1013599D01*
X824971Y1013624D01*
X825029Y1013649D01*
X825084Y1013672D01*
X825141Y1013697D01*
X825194Y1013719D01*
X825249Y1013742D01*
X825300Y1013763D01*
X825352Y1013784D01*
X825404Y1013806D01*
X825453Y1013826D01*
X825506Y1013847D01*
X825555Y1013867D01*
X825603Y1013886D01*
X825703Y1013926D01*
X825799Y1013964D01*
X825861Y1013987D01*
X825955Y1014024D01*
X826047Y1014059D01*
X826136Y1014093D01*
X826226Y1014126D01*
X826316Y1014160D01*
X826402Y1014192D01*
X826489Y1014223D01*
X826575Y1014255D01*
X826661Y1014285D01*
X826746Y1014316D01*
X826829Y1014345D01*
X826915Y1014375D01*
X827018Y1014411D01*
X827080Y1014432D01*
X827143Y1014454D01*
X827204Y1014475D01*
X827266Y1014496D01*
X827266D01*
X827329Y1014517D01*
X827390Y1014537D01*
X827450Y1014557D01*
X827512Y1014578D01*
X827572Y1014598D01*
X827633Y1014618D01*
X827694Y1014638D01*
X827755Y1014657D01*
X827755Y1014657D01*
X827814Y1014677D01*
X827814D01*
X827874Y1014696D01*
X827936Y1014716D01*
X827995Y1014734D01*
X828055Y1014753D01*
X828115Y1014773D01*
X828177Y1014792D01*
X828276Y1014823D01*
X828345Y1014844D01*
X828413Y1014865D01*
X828481Y1014886D01*
X828552Y1014908D01*
X828552Y1014908D01*
X828620Y1014928D01*
X828693Y1014950D01*
X828764Y1014972D01*
X828836Y1014993D01*
X828837D01*
X828909Y1015015D01*
X828983Y1015036D01*
X829058Y1015059D01*
X829134Y1015081D01*
X829211Y1015103D01*
X829288Y1015125D01*
X829365Y1015148D01*
X829445Y1015170D01*
X829525Y1015193D01*
X829607Y1015216D01*
X829706Y1015244D01*
X829795Y1015269D01*
X829882Y1015293D01*
X829972Y1015317D01*
X830061Y1015342D01*
X830153Y1015367D01*
X830245Y1015392D01*
X830245D01*
X830338Y1015417D01*
X830431Y1015441D01*
X830524Y1015466D01*
X830621Y1015491D01*
X830621Y1015491D01*
X830717Y1015516D01*
X830717D01*
X830814Y1015542D01*
X830814D01*
X830913Y1015567D01*
X831012Y1015593D01*
X831111Y1015618D01*
X831111Y1015618D01*
X831214Y1015644D01*
X831344Y1015677D01*
X831425Y1015697D01*
X831425D01*
X831508Y1015717D01*
X831591Y1015738D01*
X831591D01*
X831676Y1015759D01*
X831759Y1015779D01*
X831844Y1015800D01*
X831929Y1015820D01*
X832014Y1015841D01*
X832100Y1015861D01*
X832188Y1015882D01*
X832277Y1015903D01*
X832366Y1015924D01*
X832366Y1015924D01*
X832455Y1015945D01*
X832545Y1015966D01*
X832636Y1015987D01*
X832726Y1016008D01*
X832817Y1016029D01*
X832910Y1016050D01*
X833006Y1016072D01*
X833102Y1016093D01*
X833196Y1016114D01*
X833289Y1016135D01*
X833384Y1016156D01*
X833478Y1016177D01*
X833571Y1016197D01*
X833571D01*
X833665Y1016218D01*
X833759Y1016238D01*
X833853Y1016258D01*
X833948Y1016279D01*
X834042Y1016299D01*
X834137Y1016319D01*
X834230Y1016339D01*
X834326Y1016359D01*
X834326Y1016359D01*
X834421Y1016379D01*
X834517Y1016399D01*
X834611Y1016418D01*
X834611D01*
X834706Y1016438D01*
X834706Y1016438D01*
X834801Y1016457D01*
X834897Y1016477D01*
X834994Y1016497D01*
X835141Y1016526D01*
X835249Y1016548D01*
X835358Y1016570D01*
X835466Y1016591D01*
X835466Y1016591D01*
X835573Y1016612D01*
X835678Y1016633D01*
X835783Y1016653D01*
X835888Y1016674D01*
X835990Y1016694D01*
X836094Y1016714D01*
X836094D01*
X836196Y1016733D01*
X836299Y1016753D01*
X836400Y1016772D01*
X836501Y1016791D01*
X836501D01*
X836603Y1016810D01*
X836603Y1016810D01*
X836702Y1016829D01*
X836804Y1016847D01*
X836905Y1016866D01*
X837003Y1016884D01*
X837003D01*
X837103Y1016903D01*
X837103Y1016903D01*
X837205Y1016921D01*
X837205D01*
X837267Y1016932D01*
X837403Y1016957D01*
X837537Y1016981D01*
X837668Y1017005D01*
X837797Y1017028D01*
X837926Y1017050D01*
X838051Y1017072D01*
X838051D01*
X838175Y1017094D01*
X838298Y1017115D01*
X838298D01*
X838420Y1017136D01*
X838538Y1017157D01*
X838656Y1017177D01*
X838656Y1017177D01*
X838774Y1017197D01*
X838890Y1017217D01*
X839004Y1017236D01*
X839120Y1017255D01*
X839233Y1017274D01*
X839346Y1017293D01*
X839458Y1017311D01*
X839570Y1017330D01*
X839683Y1017348D01*
X839683Y1017349D01*
X839854Y1017376D01*
X839854D01*
X839996Y1017399D01*
X840138Y1017422D01*
X840138Y1017422D01*
X840284Y1017445D01*
X840430Y1017469D01*
X840577Y1017492D01*
X840726Y1017516D01*
X840878Y1017539D01*
X841032Y1017563D01*
X841185Y1017587D01*
X841342Y1017611D01*
X841498Y1017635D01*
X841658Y1017659D01*
X841658D01*
X841820Y1017683D01*
X841820Y1017683D01*
X841981Y1017708D01*
X841981D01*
X842146Y1017732D01*
X842309Y1017756D01*
X842481Y1017782D01*
X842601Y1017799D01*
X842714Y1017816D01*
X842828Y1017832D01*
X842946Y1017849D01*
X842946Y1017849D01*
X843067Y1017867D01*
X843188Y1017884D01*
X843313Y1017902D01*
X843443Y1017920D01*
X843443Y1017920D01*
X843572Y1017938D01*
X843705Y1017957D01*
X843705D01*
X843842Y1017976D01*
X843842Y1017976D01*
X843983Y1017996D01*
X844127Y1018016D01*
X844276Y1018036D01*
X844276Y1018036D01*
X844427Y1018057D01*
X844584Y1018078D01*
X844743Y1018100D01*
X844908Y1018122D01*
X844908Y1018122D01*
X845075Y1018145D01*
X845248Y1018167D01*
X845427Y1018191D01*
X845427D01*
X845614Y1018216D01*
X845670Y1018223D01*
X845805Y1018241D01*
X845805Y1018241D01*
X845941Y1018259D01*
X845941D01*
X846081Y1018277D01*
X846221Y1018295D01*
X846365Y1018313D01*
X846509Y1018332D01*
X846657Y1018351D01*
X846806Y1018369D01*
X846959Y1018389D01*
X847116Y1018408D01*
X847116D01*
X847273Y1018428D01*
X847435Y1018448D01*
X847600Y1018468D01*
X847600Y1018468D01*
X847766Y1018489D01*
X847936Y1018510D01*
X848110Y1018531D01*
X848289Y1018552D01*
X848472Y1018574D01*
X848659Y1018597D01*
X848659Y1018597D01*
X848846Y1018619D01*
X848963Y1018633D01*
X848982Y1018590D01*
X849636Y1017799D01*
X850521Y1017279D01*
X850904Y1017208D01*
X851658Y1016756D01*
X851789Y1016709D01*
X851918Y1016657D01*
X852925Y1016462D01*
X853031Y1016462D01*
X853135Y1016449D01*
X853648Y1016486D01*
X853687Y1016496D01*
X853726Y1016495D01*
X853782Y1016504D01*
X853790Y1016508D01*
X853799Y1016508D01*
X853874Y1016522D01*
X853885Y1016527D01*
X853898Y1016527D01*
X854009Y1016552D01*
X854020Y1016557D01*
X854032Y1016558D01*
X854094Y1016574D01*
X854102Y1016577D01*
X854110Y1016578D01*
X854171Y1016595D01*
X854206Y1016613D01*
X854245Y1016619D01*
X854712Y1016801D01*
X854795Y1016853D01*
X854885Y1016893D01*
X855652Y1017433D01*
X855740Y1017526D01*
X855834Y1017612D01*
X856392Y1018365D01*
X856447Y1018480D01*
X856510Y1018591D01*
X856804Y1019482D01*
X856816Y1019577D01*
X856842Y1019670D01*
X856879Y1020138D01*
X856875Y1020171D01*
X856882Y1020202D01*
X856882Y1021275D01*
X859581Y1021538D01*
X866444Y1022038D01*
X872951Y1022354D01*
X873299Y1021871D01*
D02*
G37*
%LPC*%
G36*
X894168Y1004559D02*
X893581D01*
X893038Y1004335D01*
X892823Y1004120D01*
X892496Y1003975D01*
X892170Y1004120D01*
X891955Y1004335D01*
X891412Y1004559D01*
X890825D01*
X890282Y1004335D01*
X889867Y1003919D01*
X889642Y1003377D01*
Y1002789D01*
X889867Y1002247D01*
X890282Y1001831D01*
X890636Y1001685D01*
X890802Y1001519D01*
Y1000702D01*
X890782Y1000672D01*
X890705Y1000288D01*
Y998319D01*
X890782Y997935D01*
X890802Y997905D01*
Y997237D01*
X890782Y997207D01*
X890705Y996823D01*
Y994855D01*
X890782Y994471D01*
X890802Y994440D01*
Y991729D01*
X890016Y990943D01*
X889867Y990720D01*
X889848Y990702D01*
X889495Y990555D01*
X889079Y990140D01*
X888855Y989597D01*
Y989010D01*
X889021Y988609D01*
X888854Y988497D01*
X888589Y988101D01*
X888496Y987634D01*
Y986406D01*
X888589Y985939D01*
X888854Y985543D01*
Y985190D01*
X888589Y984794D01*
X888496Y984327D01*
Y983099D01*
X888589Y982632D01*
X888854Y982236D01*
X889250Y981971D01*
X889369Y981948D01*
X890699Y980617D01*
X891253Y980247D01*
X891906Y980117D01*
X892559Y980247D01*
X893112Y980617D01*
X893263Y980768D01*
X893263Y980768D01*
X894443Y981948D01*
X894562Y981971D01*
X894958Y982236D01*
X895222Y982632D01*
X895315Y983099D01*
Y984327D01*
X895222Y984794D01*
X895072Y985018D01*
X894996Y985367D01*
X895072Y985715D01*
X895222Y985939D01*
X895315Y986406D01*
Y987634D01*
X895222Y988101D01*
X895037Y988378D01*
X895126Y988467D01*
X895351Y989010D01*
Y989597D01*
X895126Y990140D01*
X894978Y990287D01*
Y994440D01*
X894998Y994471D01*
X895075Y994855D01*
Y996823D01*
X894998Y997207D01*
X894978Y997237D01*
Y997905D01*
X894998Y997935D01*
X895075Y998319D01*
Y1000288D01*
X894998Y1000672D01*
X894978Y1000702D01*
Y1002099D01*
X895126Y1002247D01*
X895351Y1002789D01*
Y1003377D01*
X895126Y1003919D01*
X894711Y1004335D01*
X894168Y1004559D01*
D02*
G37*
G36*
X874089D02*
X873502D01*
X872959Y1004335D01*
X872544Y1003919D01*
X872491Y1003792D01*
X871950D01*
X871898Y1003919D01*
X871482Y1004335D01*
X870940Y1004559D01*
X870352D01*
X869810Y1004335D01*
X869394Y1003919D01*
X869170Y1003377D01*
Y1002789D01*
X869394Y1002247D01*
X869810Y1001831D01*
X870352Y1001607D01*
X870394D01*
X871117Y1000884D01*
Y1000702D01*
X871097Y1000672D01*
X871020Y1000288D01*
Y998319D01*
X871097Y997935D01*
X871117Y997905D01*
Y997237D01*
X871097Y997207D01*
X871020Y996823D01*
Y994855D01*
X871097Y994471D01*
X871117Y994440D01*
Y992536D01*
X870091Y991510D01*
X869852Y991152D01*
X869768Y990729D01*
Y990090D01*
X869563Y989597D01*
Y989010D01*
X869729Y988609D01*
X869563Y988497D01*
X869298Y988101D01*
X869205Y987634D01*
Y986406D01*
X869298Y985939D01*
X869448Y985715D01*
X869524Y985367D01*
X869448Y985018D01*
X869298Y984794D01*
X869205Y984327D01*
Y983099D01*
X869298Y982632D01*
X869563Y982236D01*
X869958Y981971D01*
X870254Y981913D01*
X871479Y980688D01*
X871479Y980688D01*
X872000Y980340D01*
X872614Y980217D01*
X873229Y980340D01*
X873750Y980688D01*
X873750Y980688D01*
X874975Y981913D01*
X875270Y981971D01*
X875666Y982236D01*
X875931Y982632D01*
X876024Y983099D01*
Y984327D01*
X875931Y984794D01*
X875781Y985018D01*
X875705Y985367D01*
X875781Y985715D01*
X875931Y985939D01*
X876024Y986406D01*
Y987634D01*
X875931Y988101D01*
X875666Y988497D01*
X875499Y988609D01*
X875666Y989010D01*
Y989597D01*
X875441Y990140D01*
X875293Y990287D01*
Y994440D01*
X875313Y994471D01*
X875390Y994855D01*
Y996823D01*
X875313Y997207D01*
X875293Y997237D01*
Y997905D01*
X875313Y997935D01*
X875390Y998319D01*
Y1000288D01*
X875313Y1000672D01*
X875293Y1000702D01*
Y1002370D01*
X875230Y1002688D01*
X875272Y1002789D01*
Y1003377D01*
X875047Y1003919D01*
X874632Y1004335D01*
X874089Y1004559D01*
D02*
G37*
G36*
X908835Y1011388D02*
X907704Y1011239D01*
X906651Y1010803D01*
X905746Y1010109D01*
X905052Y1009204D01*
X904616Y1008150D01*
X904467Y1007020D01*
X904616Y1005890D01*
X905052Y1004836D01*
X905746Y1003931D01*
X906651Y1003237D01*
X907704Y1002801D01*
X908835Y1002652D01*
X909965Y1002801D01*
X911019Y1003237D01*
X911924Y1003931D01*
X912618Y1004836D01*
X913054Y1005890D01*
X913203Y1007020D01*
X913054Y1008150D01*
X912618Y1009204D01*
X911924Y1010109D01*
X911019Y1010803D01*
X909965Y1011239D01*
X908835Y1011388D01*
D02*
G37*
G36*
X928470Y1015692D02*
X926995D01*
X925548Y1015404D01*
X924184Y1014839D01*
X922958Y1014019D01*
X921914Y1012976D01*
X921094Y1011749D01*
X920530Y1010386D01*
X920242Y1008939D01*
Y1007463D01*
X920530Y1006016D01*
X921094Y1004653D01*
X921914Y1003426D01*
X922958Y1002383D01*
X924184Y1001563D01*
X925548Y1000998D01*
X926995Y1000710D01*
X928470D01*
X929917Y1000998D01*
X931281Y1001563D01*
X932508Y1002383D01*
X933551Y1003426D01*
X934371Y1004653D01*
X934935Y1006016D01*
X935223Y1007463D01*
Y1008939D01*
X934935Y1010386D01*
X934371Y1011749D01*
X933551Y1012976D01*
X932508Y1014019D01*
X931281Y1014839D01*
X929917Y1015404D01*
X928470Y1015692D01*
D02*
G37*
G36*
X840281D02*
X838806D01*
X837359Y1015404D01*
X835995Y1014839D01*
X834768Y1014019D01*
X833725Y1012976D01*
X832905Y1011749D01*
X832341Y1010386D01*
X832053Y1008939D01*
Y1007463D01*
X832341Y1006016D01*
X832905Y1004653D01*
X833725Y1003426D01*
X834768Y1002383D01*
X835995Y1001563D01*
X837359Y1000998D01*
X838806Y1000710D01*
X840281D01*
X841728Y1000998D01*
X843092Y1001563D01*
X844318Y1002383D01*
X845362Y1003426D01*
X846182Y1004653D01*
X846746Y1006016D01*
X847034Y1007463D01*
Y1008939D01*
X846746Y1010386D01*
X846182Y1011749D01*
X845362Y1012976D01*
X844318Y1014019D01*
X843092Y1014839D01*
X841728Y1015404D01*
X840281Y1015692D01*
D02*
G37*
G36*
X898499Y1004559D02*
X897911D01*
X897369Y1004335D01*
X896953Y1003919D01*
X896729Y1003377D01*
Y1002789D01*
X896771Y1002688D01*
X896707Y1002370D01*
Y1000702D01*
X896687Y1000672D01*
X896611Y1000288D01*
Y998319D01*
X896687Y997935D01*
X896707Y997905D01*
Y997237D01*
X896687Y997207D01*
X896611Y996823D01*
Y994855D01*
X896687Y994471D01*
X896707Y994440D01*
Y990017D01*
X896771Y989699D01*
X896729Y989597D01*
Y989010D01*
X896895Y988609D01*
X896728Y988497D01*
X896463Y988101D01*
X896371Y987634D01*
Y986406D01*
X896463Y985939D01*
X896613Y985715D01*
X896689Y985367D01*
X896613Y985018D01*
X896463Y984794D01*
X896371Y984327D01*
Y983099D01*
X896463Y982632D01*
X896728Y982236D01*
X897124Y981971D01*
X897243Y981948D01*
X898423Y980768D01*
X898573Y980617D01*
X899127Y980247D01*
X899780Y980117D01*
X900433Y980247D01*
X900986Y980617D01*
X900986Y980617D01*
X901137Y980768D01*
X901137Y980768D01*
X902317Y981948D01*
X902436Y981971D01*
X902832Y982236D01*
X903096Y982632D01*
X903189Y983099D01*
Y984327D01*
X903096Y984794D01*
X902974Y984977D01*
X903334Y985338D01*
X903423Y985278D01*
X903890Y985186D01*
X905118D01*
X905585Y985278D01*
X905981Y985543D01*
X906246Y985939D01*
X906339Y986406D01*
Y987634D01*
X906246Y988101D01*
X905981Y988497D01*
X905585Y988762D01*
X905214Y988835D01*
Y989501D01*
X905362Y989648D01*
X905587Y990191D01*
Y990778D01*
X905362Y991321D01*
X904947Y991736D01*
X904404Y991961D01*
X903817D01*
X903274Y991736D01*
X902859Y991321D01*
X902634Y990778D01*
Y990191D01*
X902859Y989648D01*
X903007Y989501D01*
Y988982D01*
X902517Y988720D01*
X902470Y988739D01*
X902436Y988762D01*
X902394Y988770D01*
X902065Y988904D01*
Y992702D01*
X901981Y993125D01*
X901741Y993483D01*
X900884Y994341D01*
Y994440D01*
X900904Y994471D01*
X900980Y994855D01*
Y996823D01*
X900904Y997207D01*
X900884Y997237D01*
Y997905D01*
X900904Y997935D01*
X900980Y998319D01*
X901038Y998384D01*
X901480Y998610D01*
X901848Y998457D01*
X902436D01*
X902978Y998682D01*
X903394Y999097D01*
X903618Y999640D01*
Y1000227D01*
X903394Y1000770D01*
X902978Y1001185D01*
X902436Y1001410D01*
X901848D01*
X901306Y1001185D01*
X901256Y1001136D01*
X900479D01*
X900361Y1001215D01*
X899977Y1001291D01*
X899630D01*
X899489Y1001384D01*
X899200Y1001670D01*
X899201Y1001991D01*
X899457Y1002247D01*
X899681Y1002789D01*
Y1003377D01*
X899457Y1003919D01*
X899041Y1004335D01*
X898499Y1004559D01*
D02*
G37*
G36*
X878420D02*
X877833D01*
X877290Y1004335D01*
X876875Y1003919D01*
X876650Y1003377D01*
Y1002789D01*
X876875Y1002247D01*
X877022Y1002099D01*
Y1000702D01*
X877002Y1000672D01*
X876926Y1000288D01*
Y998319D01*
X877002Y997935D01*
X877020Y997909D01*
Y997234D01*
X877002Y997207D01*
X876926Y996823D01*
Y994855D01*
X877002Y994471D01*
X877022Y994440D01*
Y990253D01*
X877106Y989831D01*
X877346Y989473D01*
X877831Y988988D01*
Y988635D01*
X878007Y988211D01*
X877881Y988022D01*
X877788Y987555D01*
Y986327D01*
X877881Y985860D01*
X878145Y985464D01*
X878541Y985200D01*
X879008Y985107D01*
X880236D01*
X880703Y985200D01*
X880928Y985349D01*
X881276Y985426D01*
X881624Y985349D01*
X881848Y985200D01*
X882315Y985107D01*
X883543D01*
X884011Y985200D01*
X884064Y985235D01*
X884839D01*
X885492Y985365D01*
X886045Y985735D01*
X886415Y986289D01*
X886545Y986941D01*
X886415Y987594D01*
X886045Y988148D01*
X885492Y988517D01*
X884839Y988647D01*
X884064D01*
X884011Y988683D01*
X883543Y988776D01*
X882315D01*
X881848Y988683D01*
X881624Y988533D01*
X881276Y988457D01*
X881246Y988463D01*
X880784Y988635D01*
Y989223D01*
X880559Y989765D01*
X880144Y990181D01*
X879601Y990405D01*
X879535D01*
X879230Y990711D01*
Y993561D01*
X879730Y993884D01*
X879898Y993851D01*
X880292D01*
X880676Y993927D01*
X881001Y994145D01*
X881219Y994471D01*
X881295Y994855D01*
Y996823D01*
X881219Y997207D01*
X881001Y997533D01*
Y997610D01*
X881219Y997935D01*
X881295Y998319D01*
Y1000288D01*
X881219Y1000672D01*
X881001Y1000997D01*
X880676Y1001215D01*
X880292Y1001291D01*
X879898D01*
X879730Y1001258D01*
X879230Y1001581D01*
Y1002099D01*
X879378Y1002247D01*
X879603Y1002789D01*
Y1003377D01*
X879378Y1003919D01*
X878963Y1004335D01*
X878420Y1004559D01*
D02*
G37*
G36*
X908735Y996292D02*
X908148D01*
X907605Y996067D01*
X907190Y995652D01*
X906965Y995109D01*
Y994522D01*
X907190Y993979D01*
X907605Y993564D01*
X908148Y993339D01*
X908735D01*
X909278Y993564D01*
X909693Y993979D01*
X909918Y994522D01*
Y995109D01*
X909693Y995652D01*
X909278Y996067D01*
X908735Y996292D01*
D02*
G37*
G36*
X860310Y994717D02*
X859722D01*
X859180Y994492D01*
X858764Y994077D01*
X858540Y993534D01*
Y992947D01*
X858764Y992404D01*
X859180Y991989D01*
X859722Y991764D01*
X860310D01*
X860852Y991989D01*
X861268Y992404D01*
X861492Y992947D01*
Y993534D01*
X861268Y994077D01*
X860852Y994492D01*
X860310Y994717D01*
D02*
G37*
G36*
X854404D02*
X853817D01*
X853274Y994492D01*
X852859Y994077D01*
X852634Y993534D01*
Y992947D01*
X852859Y992404D01*
X853274Y991989D01*
X853817Y991764D01*
X854404D01*
X854947Y991989D01*
X855362Y992404D01*
X855587Y992947D01*
Y993534D01*
X855362Y994077D01*
X854947Y994492D01*
X854404Y994717D01*
D02*
G37*
G36*
X844168D02*
X843581D01*
X843038Y994492D01*
X842623Y994077D01*
X842398Y993534D01*
Y992947D01*
X842623Y992404D01*
X843038Y991989D01*
X843581Y991764D01*
X844168D01*
X844711Y991989D01*
X845126Y992404D01*
X845351Y992947D01*
Y993534D01*
X845126Y994077D01*
X844711Y994492D01*
X844168Y994717D01*
D02*
G37*
G36*
X910703Y991173D02*
X910116D01*
X909573Y990949D01*
X909158Y990534D01*
X908933Y989991D01*
Y989404D01*
X909158Y988861D01*
X909573Y988446D01*
X910116Y988221D01*
X910703D01*
X911246Y988446D01*
X911661Y988861D01*
X911886Y989404D01*
Y989991D01*
X911661Y990534D01*
X911246Y990949D01*
X910703Y991173D01*
D02*
G37*
G36*
X855192Y987630D02*
X854604D01*
X854062Y987405D01*
X853646Y986990D01*
X853421Y986448D01*
Y985860D01*
X853646Y985318D01*
X854062Y984902D01*
X854604Y984678D01*
X855192D01*
X855734Y984902D01*
X856149Y985318D01*
X856374Y985860D01*
Y986448D01*
X856149Y986990D01*
X855734Y987405D01*
X855192Y987630D01*
D02*
G37*
G36*
X911097Y986843D02*
X910510D01*
X909967Y986618D01*
X909552Y986203D01*
X909327Y985660D01*
Y985073D01*
X909552Y984530D01*
X909967Y984115D01*
X910510Y983890D01*
X911097D01*
X911640Y984115D01*
X912055Y984530D01*
X912280Y985073D01*
Y985660D01*
X912055Y986203D01*
X911640Y986618D01*
X911097Y986843D01*
D02*
G37*
G36*
X846530Y985662D02*
X845943D01*
X845400Y985437D01*
X844985Y985022D01*
X844760Y984479D01*
Y983892D01*
X844985Y983349D01*
X845400Y982934D01*
X845943Y982709D01*
X846530D01*
X847073Y982934D01*
X847488Y983349D01*
X847713Y983892D01*
Y984479D01*
X847488Y985022D01*
X847073Y985437D01*
X846530Y985662D01*
D02*
G37*
G36*
X855979Y983693D02*
X855392D01*
X854849Y983468D01*
X854434Y983053D01*
X854209Y982510D01*
Y981923D01*
X854434Y981381D01*
X854849Y980965D01*
X855392Y980741D01*
X855979D01*
X856522Y980965D01*
X856937Y981381D01*
X857162Y981923D01*
Y982510D01*
X856937Y983053D01*
X856522Y983468D01*
X855979Y983693D01*
D02*
G37*
G36*
X846530Y981725D02*
X845943D01*
X845400Y981500D01*
X844985Y981085D01*
X844760Y980542D01*
Y979955D01*
X844985Y979412D01*
X845400Y978997D01*
X845943Y978772D01*
X846530D01*
X847073Y978997D01*
X847488Y979412D01*
X847713Y979955D01*
Y980542D01*
X847488Y981085D01*
X847073Y981500D01*
X846530Y981725D01*
D02*
G37*
G36*
X869759Y980150D02*
X869171D01*
X868629Y979925D01*
X868213Y979510D01*
X867988Y978967D01*
Y978380D01*
X868213Y977837D01*
X868629Y977422D01*
X869171Y977197D01*
X869759D01*
X870301Y977422D01*
X870716Y977837D01*
X870941Y978380D01*
Y978967D01*
X870716Y979510D01*
X870301Y979925D01*
X869759Y980150D01*
D02*
G37*
G36*
X857947Y975819D02*
X857360D01*
X856818Y975594D01*
X856402Y975179D01*
X856177Y974636D01*
Y974049D01*
X856402Y973507D01*
X856818Y973091D01*
X857360Y972867D01*
X857947D01*
X858490Y973091D01*
X858905Y973507D01*
X859130Y974049D01*
Y974636D01*
X858905Y975179D01*
X858490Y975594D01*
X857947Y975819D01*
D02*
G37*
G36*
X917002Y970307D02*
X916415D01*
X915873Y970083D01*
X915457Y969667D01*
X915232Y969125D01*
Y968537D01*
X915457Y967995D01*
X915873Y967579D01*
X916415Y967355D01*
X917002D01*
X917545Y967579D01*
X917960Y967995D01*
X918185Y968537D01*
Y969125D01*
X917960Y969667D01*
X917545Y970083D01*
X917002Y970307D01*
D02*
G37*
G36*
X876392Y966764D02*
X875805D01*
X875262Y966539D01*
X874847Y966124D01*
X874622Y965581D01*
Y964994D01*
X874847Y964451D01*
X875262Y964036D01*
X875805Y963811D01*
X876392D01*
X876935Y964036D01*
X877350Y964451D01*
X877575Y964994D01*
Y965581D01*
X877350Y966124D01*
X876935Y966539D01*
X876392Y966764D01*
D02*
G37*
G36*
X925664Y962827D02*
X925077D01*
X924534Y962602D01*
X924386Y962454D01*
X924238Y962602D01*
X923695Y962827D01*
X923108D01*
X922565Y962602D01*
X922418Y962454D01*
X922270Y962602D01*
X921727Y962827D01*
X921140D01*
X920597Y962602D01*
X920182Y962187D01*
X919957Y961644D01*
Y961057D01*
X920182Y960514D01*
X920597Y960099D01*
X921140Y959874D01*
X921727D01*
X922270Y960099D01*
X922418Y960247D01*
X922565Y960099D01*
X923108Y959874D01*
X923695D01*
X924238Y960099D01*
X924386Y960247D01*
X924534Y960099D01*
X925077Y959874D01*
X925664D01*
X926207Y960099D01*
X926622Y960514D01*
X926847Y961057D01*
Y961644D01*
X926622Y962187D01*
X926207Y962602D01*
X925664Y962827D01*
D02*
G37*
G36*
X843381Y964008D02*
X842793D01*
X842251Y963783D01*
X841835Y963368D01*
X841611Y962825D01*
Y962238D01*
X841835Y961695D01*
X842251Y961280D01*
X842793Y961055D01*
X843381D01*
X843923Y961280D01*
X844338Y961695D01*
X844563Y962238D01*
Y962825D01*
X844338Y963368D01*
X843923Y963783D01*
X843381Y964008D01*
D02*
G37*
G36*
X931766Y966567D02*
X931179D01*
X930636Y966343D01*
X930221Y965927D01*
X929996Y965384D01*
Y964797D01*
X930221Y964255D01*
X930369Y964107D01*
X930221Y963959D01*
X929996Y963416D01*
Y962829D01*
X930221Y962286D01*
X930369Y962138D01*
X930221Y961990D01*
X929996Y961448D01*
Y960860D01*
X930221Y960318D01*
X930636Y959902D01*
X931179Y959678D01*
X931766D01*
X932309Y959902D01*
X932724Y960318D01*
X932949Y960860D01*
Y961448D01*
X932724Y961990D01*
X932576Y962138D01*
X932724Y962286D01*
X932949Y962829D01*
Y963416D01*
X932724Y963959D01*
X932576Y964107D01*
X932724Y964255D01*
X932949Y964797D01*
Y965384D01*
X932724Y965927D01*
X932309Y966343D01*
X931766Y966567D01*
D02*
G37*
G36*
X893774Y960465D02*
X893187D01*
X892644Y960240D01*
X892229Y959825D01*
X892004Y959282D01*
Y958695D01*
X892229Y958152D01*
X892644Y957737D01*
X893187Y957512D01*
X893774D01*
X894317Y957737D01*
X894732Y958152D01*
X894957Y958695D01*
Y959282D01*
X894732Y959825D01*
X894317Y960240D01*
X893774Y960465D01*
D02*
G37*
G36*
X916609Y957315D02*
X916022D01*
X915479Y957090D01*
X915064Y956675D01*
X914839Y956133D01*
Y955545D01*
X915064Y955003D01*
X915479Y954587D01*
X916022Y954362D01*
X916609D01*
X917152Y954587D01*
X917567Y955003D01*
X917791Y955545D01*
Y956133D01*
X917567Y956675D01*
X917152Y957090D01*
X916609Y957315D01*
D02*
G37*
G36*
X891943Y957178D02*
X891356D01*
X890814Y956953D01*
X890398Y956537D01*
X890174Y955995D01*
Y955407D01*
X890398Y954865D01*
X890814Y954449D01*
X891356Y954225D01*
X891943D01*
X892486Y954449D01*
X892901Y954865D01*
X893126Y955407D01*
Y955995D01*
X892901Y956537D01*
X892486Y956953D01*
X891943Y957178D01*
D02*
G37*
G36*
X896530Y956528D02*
X895943D01*
X895400Y956303D01*
X894985Y955888D01*
X894760Y955345D01*
Y954758D01*
X894985Y954215D01*
X895400Y953800D01*
X895943Y953575D01*
X896530D01*
X897073Y953800D01*
X897488Y954215D01*
X897713Y954758D01*
Y955345D01*
X897488Y955888D01*
X897073Y956303D01*
X896530Y956528D01*
D02*
G37*
G36*
X850861Y955741D02*
X850274D01*
X849731Y955516D01*
X849316Y955100D01*
X849091Y954558D01*
Y953970D01*
X849316Y953428D01*
X849731Y953012D01*
X850274Y952788D01*
X850861D01*
X851403Y953012D01*
X851819Y953428D01*
X852044Y953970D01*
Y954558D01*
X851819Y955100D01*
X851403Y955516D01*
X850861Y955741D01*
D02*
G37*
G36*
X870940Y954559D02*
X870352D01*
X869810Y954335D01*
X869394Y953919D01*
X869170Y953377D01*
Y952789D01*
X869394Y952247D01*
X869810Y951831D01*
X870352Y951607D01*
X870940D01*
X871482Y951831D01*
X871898Y952247D01*
X872122Y952789D01*
Y953377D01*
X871898Y953919D01*
X871482Y954335D01*
X870940Y954559D01*
D02*
G37*
G36*
X899680Y953772D02*
X899092D01*
X898550Y953547D01*
X898134Y953132D01*
X897910Y952589D01*
Y952002D01*
X898134Y951459D01*
X898550Y951044D01*
X899092Y950819D01*
X899680D01*
X900222Y951044D01*
X900638Y951459D01*
X900862Y952002D01*
Y952589D01*
X900638Y953132D01*
X900222Y953547D01*
X899680Y953772D01*
D02*
G37*
G36*
X874483D02*
X873895D01*
X873353Y953547D01*
X872938Y953132D01*
X872713Y952589D01*
Y952002D01*
X872938Y951459D01*
X873353Y951044D01*
X873895Y950819D01*
X874483D01*
X875025Y951044D01*
X875441Y951459D01*
X875666Y952002D01*
Y952589D01*
X875441Y953132D01*
X875025Y953547D01*
X874483Y953772D01*
D02*
G37*
G36*
X839837D02*
X839250D01*
X838707Y953547D01*
X838292Y953132D01*
X838067Y952589D01*
Y952002D01*
X838292Y951459D01*
X838707Y951044D01*
X839250Y950819D01*
X839837D01*
X840380Y951044D01*
X840795Y951459D01*
X841020Y952002D01*
Y952589D01*
X840795Y953132D01*
X840380Y953547D01*
X839837Y953772D01*
D02*
G37*
G36*
X895743Y952985D02*
X895155D01*
X894613Y952760D01*
X894197Y952345D01*
X893973Y951802D01*
Y951215D01*
X894197Y950672D01*
X894613Y950257D01*
X895155Y950032D01*
X895743D01*
X896285Y950257D01*
X896701Y950672D01*
X896925Y951215D01*
Y951802D01*
X896701Y952345D01*
X896285Y952760D01*
X895743Y952985D01*
D02*
G37*
G36*
X932751Y951016D02*
X932163D01*
X931621Y950791D01*
X931205Y950376D01*
X930981Y949833D01*
Y949246D01*
X931205Y948703D01*
X931621Y948288D01*
X932163Y948063D01*
X932751D01*
X933293Y948288D01*
X933708Y948703D01*
X933933Y949246D01*
Y949833D01*
X933708Y950376D01*
X933293Y950791D01*
X932751Y951016D01*
D02*
G37*
G36*
X928814D02*
X928226D01*
X927684Y950791D01*
X927268Y950376D01*
X927044Y949833D01*
Y949246D01*
X927268Y948703D01*
X927684Y948288D01*
X928226Y948063D01*
X928814D01*
X929356Y948288D01*
X929772Y948703D01*
X929996Y949246D01*
Y949833D01*
X929772Y950376D01*
X929356Y950791D01*
X928814Y951016D01*
D02*
G37*
G36*
X924877D02*
X924289D01*
X923747Y950791D01*
X923331Y950376D01*
X923106Y949833D01*
Y949246D01*
X923331Y948703D01*
X923747Y948288D01*
X924289Y948063D01*
X924877D01*
X925419Y948288D01*
X925834Y948703D01*
X926059Y949246D01*
Y949833D01*
X925834Y950376D01*
X925419Y950791D01*
X924877Y951016D01*
D02*
G37*
G36*
X870152Y950622D02*
X869565D01*
X869022Y950398D01*
X868607Y949982D01*
X868382Y949440D01*
Y948852D01*
X868607Y948310D01*
X869022Y947894D01*
X869565Y947670D01*
X870152D01*
X870695Y947894D01*
X871110Y948310D01*
X871335Y948852D01*
Y949440D01*
X871110Y949982D01*
X870695Y950398D01*
X870152Y950622D01*
D02*
G37*
G36*
X892396Y950426D02*
X891809D01*
X891266Y950201D01*
X890851Y949785D01*
X890626Y949243D01*
Y948656D01*
X890851Y948113D01*
X891266Y947698D01*
X891809Y947473D01*
X892396D01*
X892939Y947698D01*
X893354Y948113D01*
X893579Y948656D01*
Y949243D01*
X893354Y949785D01*
X892939Y950201D01*
X892396Y950426D01*
D02*
G37*
G36*
X898499Y949441D02*
X897911D01*
X897369Y949216D01*
X896953Y948801D01*
X896729Y948258D01*
Y947671D01*
X896953Y947129D01*
X897369Y946713D01*
X897911Y946488D01*
X898499D01*
X899041Y946713D01*
X899457Y947129D01*
X899681Y947671D01*
Y948258D01*
X899457Y948801D01*
X899041Y949216D01*
X898499Y949441D01*
D02*
G37*
G36*
X872514Y947867D02*
X871927D01*
X871384Y947642D01*
X870969Y947226D01*
X870744Y946684D01*
Y946096D01*
X870969Y945554D01*
X871384Y945138D01*
X871927Y944914D01*
X872514D01*
X873057Y945138D01*
X873472Y945554D01*
X873697Y946096D01*
Y946684D01*
X873472Y947226D01*
X873057Y947642D01*
X872514Y947867D01*
D02*
G37*
G36*
X930782Y947473D02*
X930195D01*
X929652Y947248D01*
X929237Y946833D01*
X929012Y946290D01*
Y945703D01*
X929237Y945160D01*
X929652Y944745D01*
X930195Y944520D01*
X930782D01*
X931325Y944745D01*
X931740Y945160D01*
X931965Y945703D01*
Y946290D01*
X931740Y946833D01*
X931325Y947248D01*
X930782Y947473D01*
D02*
G37*
G36*
X926845D02*
X926258D01*
X925715Y947248D01*
X925300Y946833D01*
X925075Y946290D01*
Y945703D01*
X925300Y945160D01*
X925715Y944745D01*
X926258Y944520D01*
X926845D01*
X927388Y944745D01*
X927803Y945160D01*
X928028Y945703D01*
Y946290D01*
X927803Y946833D01*
X927388Y947248D01*
X926845Y947473D01*
D02*
G37*
G36*
X862278D02*
X861691D01*
X861148Y947248D01*
X860733Y946833D01*
X860508Y946290D01*
Y945703D01*
X860733Y945160D01*
X861148Y944745D01*
X861691Y944520D01*
X862278D01*
X862821Y944745D01*
X863236Y945160D01*
X863461Y945703D01*
Y946290D01*
X863236Y946833D01*
X862821Y947248D01*
X862278Y947473D01*
D02*
G37*
G36*
X851648Y946292D02*
X851061D01*
X850518Y946067D01*
X850103Y945652D01*
X849878Y945109D01*
Y944522D01*
X850103Y943979D01*
X850518Y943564D01*
X851061Y943339D01*
X851648D01*
X852191Y943564D01*
X852606Y943979D01*
X852831Y944522D01*
Y945109D01*
X852606Y945652D01*
X852191Y946067D01*
X851648Y946292D01*
D02*
G37*
G36*
X900073Y945111D02*
X899486D01*
X898944Y944886D01*
X898528Y944471D01*
X898303Y943928D01*
Y943340D01*
X898528Y942798D01*
X898944Y942383D01*
X899486Y942158D01*
X900073D01*
X900616Y942383D01*
X901031Y942798D01*
X901256Y943340D01*
Y943928D01*
X901031Y944471D01*
X900616Y944886D01*
X900073Y945111D01*
D02*
G37*
G36*
X892199Y944717D02*
X891612D01*
X891069Y944492D01*
X890654Y944077D01*
X890429Y943534D01*
Y942947D01*
X890654Y942404D01*
X891069Y941989D01*
X891612Y941764D01*
X892199D01*
X892742Y941989D01*
X893157Y942404D01*
X893382Y942947D01*
Y943534D01*
X893157Y944077D01*
X892742Y944492D01*
X892199Y944717D01*
D02*
G37*
G36*
X859916Y943536D02*
X859329D01*
X858786Y943311D01*
X858371Y942896D01*
X858146Y942353D01*
Y941766D01*
X858371Y941223D01*
X858786Y940808D01*
X859329Y940583D01*
X859916D01*
X860459Y940808D01*
X860874Y941223D01*
X861099Y941766D01*
Y942353D01*
X860874Y942896D01*
X860459Y943311D01*
X859916Y943536D01*
D02*
G37*
G36*
X922711Y943142D02*
X922124D01*
X921581Y942917D01*
X921166Y942502D01*
X920941Y941959D01*
Y941372D01*
X921166Y940829D01*
X921581Y940414D01*
X922124Y940189D01*
X922711D01*
X923254Y940414D01*
X923669Y940829D01*
X923894Y941372D01*
Y941959D01*
X923669Y942502D01*
X923254Y942917D01*
X922711Y943142D01*
D02*
G37*
G36*
X916215Y942748D02*
X915628D01*
X915085Y942524D01*
X914670Y942108D01*
X914445Y941566D01*
Y940978D01*
X914670Y940436D01*
X915085Y940020D01*
X915628Y939796D01*
X916215D01*
X916758Y940020D01*
X917173Y940436D01*
X917398Y940978D01*
Y941566D01*
X917173Y942108D01*
X916758Y942524D01*
X916215Y942748D01*
D02*
G37*
G36*
X883538Y941567D02*
X882951D01*
X882408Y941343D01*
X881993Y940927D01*
X881768Y940384D01*
Y939797D01*
X881993Y939255D01*
X882408Y938839D01*
X882951Y938614D01*
X883538D01*
X884081Y938839D01*
X884496Y939255D01*
X884721Y939797D01*
Y940384D01*
X884496Y940927D01*
X884081Y941343D01*
X883538Y941567D01*
D02*
G37*
G36*
X864247Y941173D02*
X863659D01*
X863117Y940949D01*
X862701Y940534D01*
X862477Y939991D01*
Y939404D01*
X862701Y938861D01*
X863117Y938446D01*
X863659Y938221D01*
X864247D01*
X864789Y938446D01*
X865205Y938861D01*
X865429Y939404D01*
Y939991D01*
X865205Y940534D01*
X864789Y940949D01*
X864247Y941173D01*
D02*
G37*
G36*
X890231Y939599D02*
X889644D01*
X889101Y939374D01*
X888686Y938959D01*
X888461Y938416D01*
Y937829D01*
X888686Y937286D01*
X889101Y936871D01*
X889644Y936646D01*
X890231D01*
X890773Y936871D01*
X891189Y937286D01*
X891414Y937829D01*
Y938416D01*
X891189Y938959D01*
X890773Y939374D01*
X890231Y939599D01*
D02*
G37*
G36*
X915821Y939205D02*
X915234D01*
X914692Y938980D01*
X914276Y938565D01*
X914051Y938022D01*
Y937435D01*
X914276Y936892D01*
X914692Y936477D01*
X915234Y936252D01*
X915821D01*
X916364Y936477D01*
X916779Y936892D01*
X917004Y937435D01*
Y938022D01*
X916779Y938565D01*
X916364Y938980D01*
X915821Y939205D01*
D02*
G37*
G36*
X853223Y937630D02*
X852636D01*
X852093Y937405D01*
X851678Y936990D01*
X851453Y936448D01*
Y935860D01*
X851678Y935318D01*
X852093Y934902D01*
X852636Y934678D01*
X853223D01*
X853766Y934902D01*
X854181Y935318D01*
X854406Y935860D01*
Y936448D01*
X854181Y936990D01*
X853766Y937405D01*
X853223Y937630D01*
D02*
G37*
G36*
X924089Y936843D02*
X923502D01*
X922959Y936618D01*
X922544Y936203D01*
X922319Y935660D01*
Y935073D01*
X922544Y934530D01*
X922959Y934115D01*
X923502Y933890D01*
X924089D01*
X924632Y934115D01*
X925047Y934530D01*
X925272Y935073D01*
Y935660D01*
X925047Y936203D01*
X924632Y936618D01*
X924089Y936843D01*
D02*
G37*
G36*
X864247D02*
X863659D01*
X863117Y936618D01*
X862701Y936203D01*
X862477Y935660D01*
Y935073D01*
X862701Y934530D01*
X863117Y934115D01*
X863659Y933890D01*
X864247D01*
X864789Y934115D01*
X865205Y934530D01*
X865429Y935073D01*
Y935660D01*
X865205Y936203D01*
X864789Y936618D01*
X864247Y936843D01*
D02*
G37*
G36*
X908735Y934874D02*
X908148D01*
X907605Y934650D01*
X907190Y934234D01*
X906965Y933692D01*
Y933104D01*
X907190Y932562D01*
X907605Y932146D01*
X908148Y931922D01*
X908735D01*
X909278Y932146D01*
X909693Y932562D01*
X909918Y933104D01*
Y933692D01*
X909693Y934234D01*
X909278Y934650D01*
X908735Y934874D01*
D02*
G37*
G36*
X919326Y933496D02*
X918817D01*
X918346Y933302D01*
X917986Y932942D01*
X917792Y932471D01*
Y931962D01*
X917986Y931492D01*
X918346Y931132D01*
X918817Y930937D01*
X919326D01*
X919796Y931132D01*
X920156Y931492D01*
X920351Y931962D01*
Y932471D01*
X920156Y932942D01*
X919796Y933302D01*
X919326Y933496D01*
D02*
G37*
G36*
X915428Y933693D02*
X914840D01*
X914298Y933468D01*
X913883Y933053D01*
X913658Y932510D01*
Y931923D01*
X913883Y931381D01*
X914298Y930965D01*
X914840Y930741D01*
X915428D01*
X915970Y930965D01*
X916386Y931381D01*
X916610Y931923D01*
Y932510D01*
X916386Y933053D01*
X915970Y933468D01*
X915428Y933693D01*
D02*
G37*
G36*
X893774Y936055D02*
X893187D01*
X892644Y935831D01*
X892229Y935415D01*
X892004Y934873D01*
Y934285D01*
X892170Y933884D01*
X892004Y933773D01*
X891739Y933377D01*
X891646Y932910D01*
Y931681D01*
X891739Y931214D01*
X892004Y930818D01*
X892399Y930554D01*
X892866Y930461D01*
X894095D01*
X894562Y930554D01*
X894958Y930818D01*
X895222Y931214D01*
X895315Y931681D01*
Y932910D01*
X895222Y933377D01*
X894958Y933773D01*
X894791Y933884D01*
X894957Y934285D01*
Y934873D01*
X894732Y935415D01*
X894317Y935831D01*
X893774Y936055D01*
D02*
G37*
G36*
X854404Y932512D02*
X853817D01*
X853274Y932287D01*
X852859Y931872D01*
X852634Y931329D01*
Y930742D01*
X852859Y930200D01*
X853274Y929784D01*
X853817Y929559D01*
X854404D01*
X854947Y929784D01*
X855362Y930200D01*
X855587Y930742D01*
Y931329D01*
X855362Y931872D01*
X854947Y932287D01*
X854404Y932512D01*
D02*
G37*
G36*
X850861D02*
X850274D01*
X849731Y932287D01*
X849316Y931872D01*
X849091Y931329D01*
Y930742D01*
X849316Y930200D01*
X849731Y929784D01*
X850274Y929559D01*
X850861D01*
X851403Y929784D01*
X851819Y930200D01*
X852044Y930742D01*
Y931329D01*
X851819Y931872D01*
X851403Y932287D01*
X850861Y932512D01*
D02*
G37*
G36*
X851648Y928575D02*
X851061D01*
X850518Y928350D01*
X850103Y927935D01*
X849878Y927392D01*
Y926805D01*
X850103Y926262D01*
X850518Y925847D01*
X851061Y925622D01*
X851648D01*
X852191Y925847D01*
X852606Y926262D01*
X852831Y926805D01*
Y927392D01*
X852606Y927935D01*
X852191Y928350D01*
X851648Y928575D01*
D02*
G37*
G36*
X904010Y928181D02*
X903423D01*
X902880Y927957D01*
X902465Y927541D01*
X902240Y926999D01*
Y926411D01*
X902465Y925869D01*
X902880Y925453D01*
X903423Y925229D01*
X904010D01*
X904553Y925453D01*
X904968Y925869D01*
X905193Y926411D01*
Y926999D01*
X904968Y927541D01*
X904553Y927957D01*
X904010Y928181D01*
D02*
G37*
G36*
X847711D02*
X847124D01*
X846581Y927957D01*
X846166Y927541D01*
X845941Y926999D01*
Y926411D01*
X846166Y925869D01*
X846581Y925453D01*
X847124Y925229D01*
X847711D01*
X848254Y925453D01*
X848669Y925869D01*
X848894Y926411D01*
Y926999D01*
X848669Y927541D01*
X848254Y927957D01*
X847711Y928181D01*
D02*
G37*
G36*
X897794Y936284D02*
X897207D01*
X896664Y936059D01*
X896249Y935644D01*
X896024Y935101D01*
Y934514D01*
X896249Y933971D01*
X896344Y933876D01*
X896334Y933773D01*
X896070Y933377D01*
X895977Y932910D01*
Y931681D01*
X896070Y931214D01*
X896334Y930818D01*
Y930466D01*
X896070Y930070D01*
X895977Y929603D01*
Y929079D01*
X895975Y929067D01*
X895977Y929056D01*
Y928374D01*
X896070Y927907D01*
X896329Y927518D01*
Y927028D01*
X896329Y927028D01*
X896452Y926414D01*
X896800Y925893D01*
X896962Y925730D01*
X897070Y925570D01*
X897591Y925222D01*
X898205Y925099D01*
X898819Y925222D01*
X899340Y925570D01*
X899688Y926091D01*
X899811Y926705D01*
Y926758D01*
X899688Y927373D01*
X899541Y927594D01*
Y927889D01*
X899553Y927907D01*
X899646Y928374D01*
Y929603D01*
X899553Y930070D01*
X899288Y930466D01*
Y930818D01*
X899553Y931214D01*
X899646Y931681D01*
Y932910D01*
X899553Y933377D01*
X899288Y933773D01*
X898892Y934037D01*
X898829Y934157D01*
X898977Y934514D01*
Y935101D01*
X898752Y935644D01*
X898337Y936059D01*
X897794Y936284D01*
D02*
G37*
G36*
X889837Y936055D02*
X889250D01*
X888707Y935831D01*
X888292Y935415D01*
X888067Y934873D01*
Y934285D01*
X888126Y934144D01*
X888069Y934037D01*
X887673Y933773D01*
X887408Y933377D01*
X887315Y932910D01*
Y931681D01*
X887408Y931214D01*
X887673Y930818D01*
Y930466D01*
X887408Y930070D01*
X887315Y929603D01*
Y928374D01*
X887408Y927907D01*
X887420Y927889D01*
Y927594D01*
X887273Y927373D01*
X887150Y926758D01*
X887150Y926758D01*
Y926705D01*
X887273Y926091D01*
X887621Y925570D01*
X888142Y925222D01*
X888756Y925099D01*
X889371Y925222D01*
X889892Y925570D01*
X889999Y925730D01*
X890161Y925893D01*
X890161Y925893D01*
X890509Y926414D01*
X890632Y927028D01*
Y927518D01*
X890891Y927907D01*
X890984Y928374D01*
Y929603D01*
X890891Y930070D01*
X890627Y930466D01*
Y930818D01*
X890891Y931214D01*
X890984Y931681D01*
Y932910D01*
X890891Y933377D01*
X890706Y933654D01*
X890795Y933743D01*
X891020Y934285D01*
Y934873D01*
X890795Y935415D01*
X890380Y935831D01*
X889837Y936055D01*
D02*
G37*
G36*
X874089Y927788D02*
X873502D01*
X872959Y927563D01*
X872544Y927148D01*
X872319Y926605D01*
Y926018D01*
X872544Y925475D01*
X872959Y925060D01*
X873502Y924835D01*
X874089D01*
X874632Y925060D01*
X875047Y925475D01*
X875272Y926018D01*
Y926605D01*
X875047Y927148D01*
X874632Y927563D01*
X874089Y927788D01*
D02*
G37*
G36*
X866215D02*
X865628D01*
X865085Y927563D01*
X864670Y927148D01*
X864445Y926605D01*
Y926018D01*
X864670Y925475D01*
X865085Y925060D01*
X865628Y924835D01*
X866215D01*
X866758Y925060D01*
X867173Y925475D01*
X867398Y926018D01*
Y926605D01*
X867173Y927148D01*
X866758Y927563D01*
X866215Y927788D01*
D02*
G37*
G36*
X891806Y925426D02*
X891218D01*
X890676Y925201D01*
X890260Y924785D01*
X890036Y924243D01*
Y923656D01*
X890260Y923113D01*
X890676Y922698D01*
X891218Y922473D01*
X891806D01*
X892348Y922698D01*
X892764Y923113D01*
X892988Y923656D01*
Y924243D01*
X892764Y924785D01*
X892348Y925201D01*
X891806Y925426D01*
D02*
G37*
G36*
X904010Y924638D02*
X903423D01*
X902880Y924413D01*
X902465Y923998D01*
X902240Y923455D01*
Y922868D01*
X902465Y922325D01*
X902880Y921910D01*
X903423Y921685D01*
X904010D01*
X904553Y921910D01*
X904968Y922325D01*
X905193Y922868D01*
Y923455D01*
X904968Y923998D01*
X904553Y924413D01*
X904010Y924638D01*
D02*
G37*
G36*
X923656Y923654D02*
X923147D01*
X922677Y923459D01*
X922317Y923099D01*
X922122Y922629D01*
Y922120D01*
X922317Y921649D01*
X922677Y921290D01*
X923147Y921095D01*
X923656D01*
X924127Y921290D01*
X924487Y921649D01*
X924681Y922120D01*
Y922629D01*
X924487Y923099D01*
X924127Y923459D01*
X923656Y923654D01*
D02*
G37*
G36*
X939463Y925229D02*
X938640D01*
X937881Y924914D01*
X937299Y924333D01*
X936985Y923573D01*
Y922751D01*
X937299Y921991D01*
X937881Y921410D01*
X938640Y921095D01*
X939463D01*
X940222Y921410D01*
X940804Y921991D01*
X941118Y922751D01*
Y923573D01*
X940804Y924333D01*
X940222Y924914D01*
X939463Y925229D01*
D02*
G37*
G36*
X928636D02*
X927814D01*
X927054Y924914D01*
X926472Y924333D01*
X926158Y923573D01*
Y922751D01*
X926472Y921991D01*
X927054Y921410D01*
X927814Y921095D01*
X928636D01*
X929395Y921410D01*
X929977Y921991D01*
X930292Y922751D01*
Y923573D01*
X929977Y924333D01*
X929395Y924914D01*
X928636Y925229D01*
D02*
G37*
G36*
X900467Y922670D02*
X899880D01*
X899337Y922445D01*
X898922Y922029D01*
X898697Y921487D01*
Y920900D01*
X898922Y920357D01*
X899337Y919942D01*
X899880Y919717D01*
X900467D01*
X901010Y919942D01*
X901425Y920357D01*
X901650Y920900D01*
Y921487D01*
X901425Y922029D01*
X901010Y922445D01*
X900467Y922670D01*
D02*
G37*
G36*
X855585Y920307D02*
X854998D01*
X854455Y920083D01*
X854040Y919667D01*
X853815Y919125D01*
Y918537D01*
X854040Y917995D01*
X854455Y917579D01*
X854998Y917355D01*
X855585D01*
X856128Y917579D01*
X856543Y917995D01*
X856768Y918537D01*
Y919125D01*
X856543Y919667D01*
X856128Y920083D01*
X855585Y920307D01*
D02*
G37*
G36*
X914738Y920800D02*
X913955D01*
X913232Y920500D01*
X912678Y919946D01*
X912378Y919223D01*
Y918439D01*
X912678Y917716D01*
X913232Y917162D01*
X913955Y916862D01*
X914738D01*
X915462Y917162D01*
X915826Y917526D01*
X917024D01*
X917150Y917552D01*
X917278D01*
X917397Y917601D01*
X917523Y917626D01*
X917630Y917697D01*
X917749Y917746D01*
X917840Y917837D01*
X917946Y917908D01*
X918018Y918015D01*
X918109Y918106D01*
X918158Y918225D01*
X918229Y918332D01*
X918254Y918458D01*
X918303Y918577D01*
Y918705D01*
X918328Y918831D01*
X918303Y918957D01*
Y919086D01*
X918254Y919204D01*
X918229Y919330D01*
X918158Y919437D01*
X918109Y919556D01*
X918018Y919647D01*
X917946Y919753D01*
X917840Y919825D01*
X917749Y919916D01*
X917630Y919965D01*
X917523Y920036D01*
X917397Y920061D01*
X917278Y920111D01*
X917150D01*
X917024Y920136D01*
X915826D01*
X915462Y920500D01*
X914738Y920800D01*
D02*
G37*
G36*
X867790Y919520D02*
X867203D01*
X866660Y919295D01*
X866245Y918880D01*
X866020Y918337D01*
Y917750D01*
X866245Y917207D01*
X866660Y916792D01*
X867203Y916567D01*
X867790D01*
X868333Y916792D01*
X868748Y917207D01*
X868973Y917750D01*
Y918337D01*
X868748Y918880D01*
X868333Y919295D01*
X867790Y919520D01*
D02*
G37*
G36*
X886884Y915780D02*
X886297D01*
X885754Y915555D01*
X885339Y915140D01*
X885114Y914597D01*
Y914310D01*
X885082Y913997D01*
X884653Y913830D01*
X884179D01*
X884130Y913870D01*
Y914400D01*
X883905Y914943D01*
X883490Y915358D01*
X882947Y915583D01*
X882360D01*
X881818Y915358D01*
X881402Y914943D01*
X881177Y914400D01*
Y913870D01*
X881128Y913830D01*
X880242D01*
X879877Y913757D01*
X879568Y913550D01*
X879362Y913241D01*
X879289Y912876D01*
Y910416D01*
X879362Y910051D01*
X879568Y909741D01*
X879608Y909715D01*
X879406Y909226D01*
Y908639D01*
X879630Y908096D01*
X880046Y907681D01*
X880588Y907456D01*
X881176D01*
X881718Y907681D01*
X882134Y908096D01*
X882358Y908639D01*
Y909226D01*
X882516Y909462D01*
X882881D01*
X883149Y909364D01*
X883343Y909001D01*
Y908706D01*
X883568Y908163D01*
X883983Y907748D01*
X884525Y907523D01*
X885113D01*
X885655Y907748D01*
X886071Y908163D01*
X886296Y908706D01*
Y909018D01*
X886579Y909203D01*
X887023Y908976D01*
Y908572D01*
X887248Y908029D01*
X887663Y907614D01*
X888206Y907389D01*
X888793D01*
X889336Y907614D01*
X889751Y908029D01*
X889976Y908572D01*
Y909159D01*
X889751Y909702D01*
X889690Y909763D01*
X889883Y910051D01*
X889956Y910416D01*
Y912876D01*
X889883Y913241D01*
X889676Y913550D01*
X889367Y913757D01*
X889002Y913830D01*
X888529D01*
X888099Y913997D01*
X888067Y914310D01*
Y914597D01*
X887842Y915140D01*
X887427Y915555D01*
X886884Y915780D01*
D02*
G37*
G36*
X870940Y917158D02*
X870352D01*
X869810Y916933D01*
X869394Y916518D01*
X869170Y915975D01*
Y915388D01*
X869394Y914845D01*
X869797Y914442D01*
X869810Y914427D01*
X869850Y913872D01*
X869796Y913835D01*
X869614Y913771D01*
X869317Y913830D01*
X868431D01*
X868067Y913757D01*
X867757Y913550D01*
X867551Y913241D01*
X867478Y912876D01*
Y910416D01*
X867551Y910051D01*
X867757Y909741D01*
X868067Y909535D01*
X868431Y909462D01*
X869317D01*
X869682Y909535D01*
X869858Y909653D01*
X870035Y909535D01*
X870400Y909462D01*
X871286D01*
X871651Y909535D01*
X871960Y909741D01*
X872167Y910051D01*
X872239Y910416D01*
Y912876D01*
X872167Y913241D01*
X871960Y913550D01*
X871651Y913757D01*
X871322Y913822D01*
X871295Y913868D01*
X871333Y914368D01*
X871482Y914430D01*
X871898Y914845D01*
X872122Y915388D01*
Y915975D01*
X871898Y916518D01*
X871482Y916933D01*
X870940Y917158D01*
D02*
G37*
G36*
X877191Y913830D02*
X876305D01*
X875941Y913757D01*
X875764Y913639D01*
X875587Y913757D01*
X875223Y913830D01*
X874337D01*
X873972Y913757D01*
X873663Y913550D01*
X873456Y913241D01*
X873384Y912876D01*
Y910416D01*
X873456Y910051D01*
X873663Y909741D01*
X873972Y909535D01*
X874337Y909462D01*
X875223D01*
X875587Y909535D01*
X875764Y909653D01*
X875941Y909535D01*
X876305Y909462D01*
X877191D01*
X877556Y909535D01*
X877865Y909741D01*
X878072Y910051D01*
X878144Y910416D01*
Y912876D01*
X878072Y913241D01*
X877865Y913550D01*
X877556Y913757D01*
X877191Y913830D01*
D02*
G37*
G36*
X860310Y912827D02*
X859722D01*
X859180Y912602D01*
X858764Y912187D01*
X858540Y911644D01*
Y911057D01*
X858764Y910514D01*
X859180Y910099D01*
X859722Y909874D01*
X860310D01*
X860852Y910099D01*
X861268Y910514D01*
X861492Y911057D01*
Y911644D01*
X861268Y912187D01*
X860852Y912602D01*
X860310Y912827D01*
D02*
G37*
G36*
X865231Y915977D02*
X864644D01*
X864101Y915752D01*
X863686Y915337D01*
X863461Y914794D01*
Y914207D01*
X863686Y913664D01*
X863812Y913538D01*
X863614Y913241D01*
X863541Y912876D01*
Y910416D01*
X863614Y910051D01*
X863820Y909741D01*
X864130Y909535D01*
X864494Y909462D01*
X865380D01*
X865745Y909535D01*
X866054Y909741D01*
X866261Y910051D01*
X866333Y910416D01*
Y912876D01*
X866261Y913241D01*
X866063Y913538D01*
X866189Y913664D01*
X866414Y914207D01*
Y914794D01*
X866189Y915337D01*
X865773Y915752D01*
X865231Y915977D01*
D02*
G37*
G36*
X897418Y920421D02*
X891906D01*
X891599Y920360D01*
X891338Y920186D01*
X891164Y919926D01*
X891103Y919618D01*
Y915288D01*
X891103Y915288D01*
X891164Y914981D01*
X891338Y914720D01*
X891774Y914284D01*
X891709Y913881D01*
X891632Y913719D01*
X891379Y913550D01*
X891173Y913241D01*
X891100Y912876D01*
Y910416D01*
X891173Y910051D01*
X891379Y909742D01*
X891689Y909535D01*
X892054Y909462D01*
X892939D01*
X893304Y909535D01*
X893481Y909653D01*
X893657Y909535D01*
X893906Y909485D01*
X893932Y909471D01*
X893979Y909455D01*
X894020Y909428D01*
X894126Y909407D01*
X894229Y909373D01*
X894279Y909377D01*
X894327Y909367D01*
X896571D01*
X896620Y909377D01*
X896669Y909373D01*
X896772Y909407D01*
X896878Y909428D01*
X896920Y909455D01*
X896967Y909471D01*
X896992Y909485D01*
X897241Y909535D01*
X897550Y909741D01*
X897757Y910051D01*
X897830Y910416D01*
Y912876D01*
X897819Y912930D01*
X897827Y912969D01*
Y914168D01*
X897985Y914326D01*
X898159Y914587D01*
X898220Y914894D01*
Y919618D01*
X898159Y919926D01*
X897985Y920186D01*
X897725Y920360D01*
X897418Y920421D01*
D02*
G37*
G36*
X903071Y918697D02*
X901843D01*
X901376Y918604D01*
X900980Y918340D01*
X900715Y917944D01*
X900622Y917477D01*
Y916248D01*
X900715Y915781D01*
X900980Y915386D01*
X901091Y915311D01*
Y914871D01*
X901059Y914794D01*
Y914709D01*
X901041Y914681D01*
X900934Y914144D01*
Y913929D01*
X900813Y913830D01*
X899927D01*
X899562Y913757D01*
X899253Y913550D01*
X899047Y913241D01*
X898974Y912876D01*
Y911690D01*
X898965Y911646D01*
Y909345D01*
X899072Y908808D01*
X899091Y908780D01*
Y908695D01*
X899316Y908152D01*
X899731Y907737D01*
X900274Y907512D01*
X900861D01*
X901403Y907737D01*
X901819Y908152D01*
X902044Y908695D01*
Y909282D01*
X902164Y909462D01*
X902782D01*
X903146Y909535D01*
X903456Y909741D01*
X903662Y910051D01*
X903735Y910416D01*
Y911602D01*
X903744Y911646D01*
Y913620D01*
X903787Y913664D01*
X904012Y914207D01*
Y914794D01*
X903901Y915061D01*
Y915364D01*
X903934Y915386D01*
X904198Y915781D01*
X904291Y916248D01*
Y917477D01*
X904198Y917944D01*
X903934Y918340D01*
X903538Y918604D01*
X903071Y918697D01*
D02*
G37*
G36*
X855979Y908496D02*
X855392D01*
X854849Y908272D01*
X854434Y907856D01*
X854209Y907314D01*
Y906726D01*
X854434Y906184D01*
X854849Y905768D01*
X855392Y905544D01*
X855979D01*
X856522Y905768D01*
X856937Y906184D01*
X857162Y906726D01*
Y907314D01*
X856937Y907856D01*
X856522Y908272D01*
X855979Y908496D01*
D02*
G37*
G36*
X930801Y908461D02*
X930214D01*
X929671Y908236D01*
X929256Y907821D01*
X929031Y907278D01*
Y906691D01*
X929256Y906148D01*
X929671Y905733D01*
X930214Y905508D01*
X930801D01*
X931344Y905733D01*
X931759Y906148D01*
X931984Y906691D01*
Y907278D01*
X931759Y907821D01*
X931344Y908236D01*
X930801Y908461D01*
D02*
G37*
G36*
X863389Y908087D02*
X862802D01*
X862259Y907862D01*
X861844Y907447D01*
X861619Y906904D01*
Y906317D01*
X861844Y905774D01*
X862259Y905359D01*
X862802Y905134D01*
X863389D01*
X863932Y905359D01*
X864347Y905774D01*
X864572Y906317D01*
Y906904D01*
X864347Y907447D01*
X863932Y907862D01*
X863389Y908087D01*
D02*
G37*
G36*
X870152Y907709D02*
X869565D01*
X869022Y907484D01*
X868607Y907069D01*
X868382Y906526D01*
Y905939D01*
X868607Y905396D01*
X869022Y904981D01*
X869565Y904756D01*
X870152D01*
X870695Y904981D01*
X871110Y905396D01*
X871335Y905939D01*
Y906526D01*
X871110Y907069D01*
X870695Y907484D01*
X870152Y907709D01*
D02*
G37*
G36*
X910116Y906722D02*
X907654D01*
X907001Y906592D01*
X906448Y906222D01*
X906078Y905669D01*
X905948Y905016D01*
X906078Y904363D01*
X906448Y903809D01*
X907001Y903440D01*
X907654Y903310D01*
X909492D01*
X909630Y903102D01*
X910026Y902837D01*
X910493Y902745D01*
X911722D01*
X912189Y902837D01*
X912584Y903102D01*
X912849Y903498D01*
X912942Y903965D01*
Y905193D01*
X912849Y905660D01*
X912584Y906056D01*
X912189Y906321D01*
X911722Y906413D01*
X911036D01*
X910769Y906592D01*
X910116Y906722D01*
D02*
G37*
G36*
X838656Y904166D02*
X838069D01*
X837526Y903941D01*
X837111Y903526D01*
X836886Y902983D01*
Y902396D01*
X837111Y901853D01*
X837526Y901438D01*
X838069Y901213D01*
X838656D01*
X839199Y901438D01*
X839614Y901853D01*
X839839Y902396D01*
Y902983D01*
X839614Y903526D01*
X839199Y903941D01*
X838656Y904166D01*
D02*
G37*
G36*
X869759Y902197D02*
X869171D01*
X868629Y901972D01*
X868213Y901557D01*
X867988Y901015D01*
Y900427D01*
X868213Y899885D01*
X868629Y899469D01*
X869171Y899244D01*
X869759D01*
X870301Y899469D01*
X870716Y899885D01*
X870941Y900427D01*
Y901015D01*
X870716Y901557D01*
X870301Y901972D01*
X869759Y902197D01*
D02*
G37*
G36*
X872908Y898654D02*
X872321D01*
X871778Y898429D01*
X871363Y898014D01*
X871138Y897471D01*
Y896884D01*
X871363Y896341D01*
X871778Y895926D01*
X872321Y895701D01*
X872908D01*
X873451Y895926D01*
X873866Y896341D01*
X874091Y896884D01*
Y897471D01*
X873866Y898014D01*
X873451Y898429D01*
X872908Y898654D01*
D02*
G37*
G36*
X907554Y898260D02*
X906966D01*
X906424Y898035D01*
X906009Y897620D01*
X905784Y897077D01*
Y896490D01*
X906009Y895947D01*
X906424Y895532D01*
X906966Y895307D01*
X907554D01*
X908096Y895532D01*
X908512Y895947D01*
X908736Y896490D01*
Y897077D01*
X908512Y897620D01*
X908096Y898035D01*
X907554Y898260D01*
D02*
G37*
G36*
X832357Y896685D02*
X831769D01*
X831227Y896461D01*
X830812Y896045D01*
X830587Y895503D01*
Y894915D01*
X830812Y894373D01*
X831227Y893957D01*
X831769Y893733D01*
X832357D01*
X832899Y893957D01*
X833315Y894373D01*
X833540Y894915D01*
Y895503D01*
X833315Y896045D01*
X832899Y896461D01*
X832357Y896685D01*
D02*
G37*
G36*
X872908Y893536D02*
X872321D01*
X871778Y893311D01*
X871363Y892896D01*
X871138Y892353D01*
Y891766D01*
X871363Y891223D01*
X871778Y890808D01*
X872321Y890583D01*
X872908D01*
X873451Y890808D01*
X873866Y891223D01*
X874091Y891766D01*
Y892353D01*
X873866Y892896D01*
X873451Y893311D01*
X872908Y893536D01*
D02*
G37*
G36*
X832357Y892748D02*
X831769D01*
X831227Y892524D01*
X830812Y892108D01*
X830587Y891566D01*
Y890978D01*
X830812Y890436D01*
X831227Y890020D01*
X831769Y889796D01*
X832357D01*
X832899Y890020D01*
X833315Y890436D01*
X833540Y890978D01*
Y891566D01*
X833315Y892108D01*
X832899Y892524D01*
X832357Y892748D01*
D02*
G37*
G36*
X900861Y890780D02*
X900274D01*
X899731Y890555D01*
X899316Y890140D01*
X899091Y889597D01*
Y889010D01*
X899316Y888467D01*
X899731Y888052D01*
X900274Y887827D01*
X900861D01*
X901403Y888052D01*
X901819Y888467D01*
X902044Y889010D01*
Y889597D01*
X901819Y890140D01*
X901403Y890555D01*
X900861Y890780D01*
D02*
G37*
G36*
X902829Y886843D02*
X902242D01*
X901699Y886618D01*
X901284Y886203D01*
X901059Y885660D01*
Y885073D01*
X901284Y884530D01*
X901699Y884115D01*
X902242Y883890D01*
X902829D01*
X903372Y884115D01*
X903787Y884530D01*
X904012Y885073D01*
Y885660D01*
X903787Y886203D01*
X903372Y886618D01*
X902829Y886843D01*
D02*
G37*
G36*
X855585D02*
X854998D01*
X854455Y886618D01*
X854040Y886203D01*
X853815Y885660D01*
Y885073D01*
X854040Y884530D01*
X854455Y884115D01*
X854998Y883890D01*
X855585D01*
X856128Y884115D01*
X856543Y884530D01*
X856768Y885073D01*
Y885660D01*
X856543Y886203D01*
X856128Y886618D01*
X855585Y886843D01*
D02*
G37*
G36*
X860310Y884874D02*
X859722D01*
X859180Y884650D01*
X858764Y884234D01*
X858540Y883692D01*
Y883104D01*
X858764Y882562D01*
X859180Y882146D01*
X859722Y881922D01*
X860310D01*
X860852Y882146D01*
X861268Y882562D01*
X861492Y883104D01*
Y883692D01*
X861268Y884234D01*
X860852Y884650D01*
X860310Y884874D01*
D02*
G37*
G36*
X840231D02*
X839644D01*
X839101Y884650D01*
X838686Y884234D01*
X838461Y883692D01*
Y883104D01*
X838686Y882562D01*
X839101Y882146D01*
X839644Y881922D01*
X840231D01*
X840773Y882146D01*
X841189Y882562D01*
X841414Y883104D01*
Y883692D01*
X841189Y884234D01*
X840773Y884650D01*
X840231Y884874D01*
D02*
G37*
G36*
X890625Y882118D02*
X890037D01*
X889495Y881894D01*
X889079Y881478D01*
X888855Y880936D01*
Y880348D01*
X889079Y879806D01*
X889495Y879391D01*
X890037Y879166D01*
X890625D01*
X891167Y879391D01*
X891582Y879806D01*
X891807Y880348D01*
Y880936D01*
X891582Y881478D01*
X891167Y881894D01*
X890625Y882118D01*
D02*
G37*
G36*
X937475Y880937D02*
X936888D01*
X936345Y880713D01*
X935930Y880297D01*
X935705Y879755D01*
Y879167D01*
X935930Y878625D01*
X936345Y878209D01*
X936888Y877985D01*
X937475D01*
X938018Y878209D01*
X938433Y878625D01*
X938658Y879167D01*
Y879755D01*
X938433Y880297D01*
X938018Y880713D01*
X937475Y880937D01*
D02*
G37*
G36*
X865428D02*
X864840D01*
X864298Y880713D01*
X863883Y880297D01*
X863658Y879755D01*
Y879167D01*
X863883Y878625D01*
X864298Y878209D01*
X864840Y877985D01*
X865428D01*
X865970Y878209D01*
X866386Y878625D01*
X866610Y879167D01*
Y879755D01*
X866386Y880297D01*
X865970Y880713D01*
X865428Y880937D01*
D02*
G37*
G36*
X855585Y878969D02*
X854998D01*
X854455Y878744D01*
X854040Y878329D01*
X853815Y877786D01*
Y877199D01*
X854040Y876656D01*
X854455Y876241D01*
X854998Y876016D01*
X855585D01*
X856128Y876241D01*
X856543Y876656D01*
X856768Y877199D01*
Y877786D01*
X856543Y878329D01*
X856128Y878744D01*
X855585Y878969D01*
D02*
G37*
G36*
X883932Y878575D02*
X883344D01*
X882802Y878350D01*
X882386Y877935D01*
X882162Y877392D01*
Y876805D01*
X882386Y876262D01*
X882802Y875847D01*
X883344Y875622D01*
X883932D01*
X884474Y875847D01*
X884890Y876262D01*
X885114Y876805D01*
Y877392D01*
X884890Y877935D01*
X884474Y878350D01*
X883932Y878575D01*
D02*
G37*
G36*
X887869Y877394D02*
X887281D01*
X886739Y877169D01*
X886323Y876754D01*
X886099Y876211D01*
Y875624D01*
X886323Y875081D01*
X886739Y874666D01*
X887281Y874441D01*
X887869D01*
X888411Y874666D01*
X888827Y875081D01*
X889051Y875624D01*
Y876211D01*
X888827Y876754D01*
X888411Y877169D01*
X887869Y877394D01*
D02*
G37*
G36*
X868184Y876607D02*
X867596D01*
X867054Y876382D01*
X866638Y875966D01*
X866414Y875424D01*
Y874837D01*
X866638Y874294D01*
X867054Y873879D01*
X867596Y873654D01*
X868184D01*
X868726Y873879D01*
X869142Y874294D01*
X869366Y874837D01*
Y875424D01*
X869142Y875966D01*
X868726Y876382D01*
X868184Y876607D01*
D02*
G37*
G36*
X901648Y876213D02*
X901061D01*
X900518Y875988D01*
X900103Y875573D01*
X899878Y875030D01*
Y874443D01*
X900103Y873900D01*
X900518Y873485D01*
X901061Y873260D01*
X901648D01*
X902191Y873485D01*
X902606Y873900D01*
X902831Y874443D01*
Y875030D01*
X902606Y875573D01*
X902191Y875988D01*
X901648Y876213D01*
D02*
G37*
G36*
X897711D02*
X897124D01*
X896581Y875988D01*
X896166Y875573D01*
X895941Y875030D01*
Y874443D01*
X896166Y873900D01*
X896581Y873485D01*
X897124Y873260D01*
X897711D01*
X898254Y873485D01*
X898669Y873900D01*
X898894Y874443D01*
Y875030D01*
X898669Y875573D01*
X898254Y875988D01*
X897711Y876213D01*
D02*
G37*
G36*
X879995D02*
X879407D01*
X878865Y875988D01*
X878449Y875573D01*
X878225Y875030D01*
Y874443D01*
X878449Y873900D01*
X878865Y873485D01*
X879407Y873260D01*
X879995D01*
X880537Y873485D01*
X880953Y873900D01*
X881177Y874443D01*
Y875030D01*
X880953Y875573D01*
X880537Y875988D01*
X879995Y876213D01*
D02*
G37*
G36*
X876058D02*
X875470D01*
X874928Y875988D01*
X874512Y875573D01*
X874288Y875030D01*
Y874443D01*
X874512Y873900D01*
X874928Y873485D01*
X875470Y873260D01*
X876058D01*
X876600Y873485D01*
X877016Y873900D01*
X877240Y874443D01*
Y875030D01*
X877016Y875573D01*
X876600Y875988D01*
X876058Y876213D01*
D02*
G37*
G36*
X872121D02*
X871533D01*
X870991Y875988D01*
X870575Y875573D01*
X870351Y875030D01*
Y874443D01*
X870575Y873900D01*
X870991Y873485D01*
X871533Y873260D01*
X872121D01*
X872663Y873485D01*
X873079Y873900D01*
X873303Y874443D01*
Y875030D01*
X873079Y875573D01*
X872663Y875988D01*
X872121Y876213D01*
D02*
G37*
G36*
X864247D02*
X863659D01*
X863117Y875988D01*
X862701Y875573D01*
X862477Y875030D01*
Y874443D01*
X862701Y873900D01*
X863117Y873485D01*
X863659Y873260D01*
X864247D01*
X864789Y873485D01*
X865205Y873900D01*
X865429Y874443D01*
Y875030D01*
X865205Y875573D01*
X864789Y875988D01*
X864247Y876213D01*
D02*
G37*
G36*
X910703Y873457D02*
X910116D01*
X909573Y873232D01*
X909158Y872817D01*
X908933Y872274D01*
Y871687D01*
X909158Y871144D01*
X909573Y870729D01*
X910116Y870504D01*
X910703D01*
X911246Y870729D01*
X911661Y871144D01*
X911886Y871687D01*
Y872274D01*
X911661Y872817D01*
X911246Y873232D01*
X910703Y873457D01*
D02*
G37*
G36*
X937869Y873063D02*
X937281D01*
X936739Y872838D01*
X936323Y872423D01*
X936099Y871881D01*
Y871293D01*
X936323Y870751D01*
X936739Y870335D01*
X937281Y870111D01*
X937869D01*
X938411Y870335D01*
X938827Y870751D01*
X939051Y871293D01*
Y871881D01*
X938827Y872423D01*
X938411Y872838D01*
X937869Y873063D01*
D02*
G37*
G36*
X855192Y870307D02*
X854604D01*
X854062Y870083D01*
X853646Y869667D01*
X853421Y869125D01*
Y868537D01*
X853646Y867995D01*
X854062Y867579D01*
X854604Y867355D01*
X855192D01*
X855734Y867579D01*
X856149Y867995D01*
X856374Y868537D01*
Y869125D01*
X856149Y869667D01*
X855734Y870083D01*
X855192Y870307D01*
D02*
G37*
G36*
X924877Y869914D02*
X924289D01*
X923747Y869689D01*
X923331Y869274D01*
X923106Y868731D01*
Y868144D01*
X923331Y867601D01*
X923747Y867186D01*
X924289Y866961D01*
X924877D01*
X925419Y867186D01*
X925834Y867601D01*
X926059Y868144D01*
Y868731D01*
X925834Y869274D01*
X925419Y869689D01*
X924877Y869914D01*
D02*
G37*
G36*
X910310Y869126D02*
X909722D01*
X909180Y868902D01*
X908764Y868486D01*
X908540Y867944D01*
Y867356D01*
X908764Y866814D01*
X909180Y866398D01*
X909722Y866174D01*
X910310D01*
X910852Y866398D01*
X911268Y866814D01*
X911492Y867356D01*
Y867944D01*
X911268Y868486D01*
X910852Y868902D01*
X910310Y869126D01*
D02*
G37*
G36*
X878026D02*
X877439D01*
X876896Y868902D01*
X876481Y868486D01*
X876256Y867944D01*
Y867356D01*
X876481Y866814D01*
X876896Y866398D01*
X877439Y866174D01*
X878026D01*
X878569Y866398D01*
X878984Y866814D01*
X879209Y867356D01*
Y867944D01*
X878984Y868486D01*
X878569Y868902D01*
X878026Y869126D01*
D02*
G37*
G36*
X874089D02*
X873502D01*
X872959Y868902D01*
X872544Y868486D01*
X872319Y867944D01*
Y867356D01*
X872544Y866814D01*
X872959Y866398D01*
X873502Y866174D01*
X874089D01*
X874632Y866398D01*
X875047Y866814D01*
X875272Y867356D01*
Y867944D01*
X875047Y868486D01*
X874632Y868902D01*
X874089Y869126D01*
D02*
G37*
G36*
X870152D02*
X869565D01*
X869022Y868902D01*
X868607Y868486D01*
X868382Y867944D01*
Y867356D01*
X868607Y866814D01*
X869022Y866398D01*
X869565Y866174D01*
X870152D01*
X870695Y866398D01*
X871110Y866814D01*
X871335Y867356D01*
Y867944D01*
X871110Y868486D01*
X870695Y868902D01*
X870152Y869126D01*
D02*
G37*
G36*
X866215D02*
X865628D01*
X865085Y868902D01*
X864670Y868486D01*
X864445Y867944D01*
Y867356D01*
X864670Y866814D01*
X865085Y866398D01*
X865628Y866174D01*
X866215D01*
X866758Y866398D01*
X867173Y866814D01*
X867398Y867356D01*
Y867944D01*
X867173Y868486D01*
X866758Y868902D01*
X866215Y869126D01*
D02*
G37*
G36*
X885900Y868733D02*
X885313D01*
X884770Y868508D01*
X884355Y868093D01*
X884130Y867550D01*
Y866963D01*
X884355Y866420D01*
X884770Y866005D01*
X885313Y865780D01*
X885900D01*
X886443Y866005D01*
X886858Y866420D01*
X887083Y866963D01*
Y867550D01*
X886858Y868093D01*
X886443Y868508D01*
X885900Y868733D01*
D02*
G37*
G36*
X905585Y867945D02*
X904998D01*
X904455Y867720D01*
X904040Y867305D01*
X903815Y866763D01*
Y866175D01*
X904040Y865633D01*
X904455Y865217D01*
X904998Y864992D01*
X905585D01*
X906128Y865217D01*
X906543Y865633D01*
X906768Y866175D01*
Y866763D01*
X906543Y867305D01*
X906128Y867720D01*
X905585Y867945D01*
D02*
G37*
G36*
X908341Y864796D02*
X907754D01*
X907211Y864571D01*
X906796Y864155D01*
X906571Y863613D01*
Y863025D01*
X906796Y862483D01*
X907211Y862068D01*
X907754Y861843D01*
X908341D01*
X908884Y862068D01*
X909299Y862483D01*
X909524Y863025D01*
Y863613D01*
X909299Y864155D01*
X908884Y864571D01*
X908341Y864796D01*
D02*
G37*
G36*
X892987Y864008D02*
X892400D01*
X891857Y863783D01*
X891442Y863368D01*
X891217Y862825D01*
Y862238D01*
X891442Y861695D01*
X891857Y861280D01*
X892400Y861055D01*
X892987D01*
X893529Y861280D01*
X893945Y861695D01*
X894170Y862238D01*
Y862825D01*
X893945Y863368D01*
X893529Y863783D01*
X892987Y864008D01*
D02*
G37*
G36*
X926845Y863614D02*
X926258D01*
X925715Y863390D01*
X925300Y862974D01*
X925075Y862432D01*
Y861844D01*
X925300Y861302D01*
X925715Y860886D01*
X926258Y860662D01*
X926845D01*
X927388Y860886D01*
X927803Y861302D01*
X928028Y861844D01*
Y862432D01*
X927803Y862974D01*
X927388Y863390D01*
X926845Y863614D01*
D02*
G37*
G36*
X841412Y861534D02*
X840825D01*
X840282Y861309D01*
X839867Y860894D01*
X839642Y860351D01*
Y859764D01*
X839867Y859221D01*
X840282Y858806D01*
X840825Y858581D01*
X841412D01*
X841955Y858806D01*
X842370Y859221D01*
X842595Y859764D01*
Y860351D01*
X842370Y860894D01*
X841955Y861309D01*
X841412Y861534D01*
D02*
G37*
G36*
X910703Y860859D02*
X910116D01*
X909573Y860634D01*
X909158Y860219D01*
X908933Y859676D01*
Y859089D01*
X909158Y858546D01*
X909573Y858131D01*
X910116Y857906D01*
X910703D01*
X911246Y858131D01*
X911661Y858546D01*
X911886Y859089D01*
Y859676D01*
X911661Y860219D01*
X911246Y860634D01*
X910703Y860859D01*
D02*
G37*
G36*
X928026Y859678D02*
X927439D01*
X926896Y859453D01*
X926481Y859037D01*
X926256Y858495D01*
Y857907D01*
X926481Y857365D01*
X926896Y856950D01*
X927439Y856725D01*
X928026D01*
X928569Y856950D01*
X928984Y857365D01*
X929209Y857907D01*
Y858495D01*
X928984Y859037D01*
X928569Y859453D01*
X928026Y859678D01*
D02*
G37*
G36*
X831569Y858890D02*
X830982D01*
X830439Y858665D01*
X830024Y858250D01*
X829799Y857707D01*
Y857120D01*
X830024Y856577D01*
X830439Y856162D01*
X830982Y855937D01*
X831569D01*
X832112Y856162D01*
X832527Y856577D01*
X832752Y857120D01*
Y857707D01*
X832527Y858250D01*
X832112Y858665D01*
X831569Y858890D01*
D02*
G37*
G36*
X935507Y856922D02*
X934919D01*
X934377Y856697D01*
X933961Y856281D01*
X933736Y855739D01*
Y855151D01*
X933961Y854609D01*
X934377Y854194D01*
X934919Y853969D01*
X935507D01*
X936049Y854194D01*
X936464Y854609D01*
X936689Y855151D01*
Y855739D01*
X936464Y856281D01*
X936049Y856697D01*
X935507Y856922D01*
D02*
G37*
G36*
X859128Y855509D02*
X858541D01*
X857999Y855285D01*
X857583Y854869D01*
X857358Y854327D01*
Y853739D01*
X857583Y853197D01*
X857999Y852781D01*
X858541Y852557D01*
X859128D01*
X859671Y852781D01*
X860087Y853197D01*
X860311Y853739D01*
Y854327D01*
X860087Y854869D01*
X859671Y855285D01*
X859128Y855509D01*
D02*
G37*
G36*
X867790Y854953D02*
X867203D01*
X866660Y854728D01*
X866245Y854313D01*
X866020Y853770D01*
Y853183D01*
X866245Y852640D01*
X866660Y852225D01*
X867203Y852000D01*
X867790D01*
X868333Y852225D01*
X868748Y852640D01*
X868973Y853183D01*
Y853770D01*
X868748Y854313D01*
X868333Y854728D01*
X867790Y854953D01*
D02*
G37*
G36*
X831569Y852985D02*
X830982D01*
X830439Y852760D01*
X830024Y852345D01*
X829799Y851802D01*
Y851215D01*
X830024Y850672D01*
X830439Y850257D01*
X830982Y850032D01*
X831569D01*
X832112Y850257D01*
X832527Y850672D01*
X832752Y851215D01*
Y851802D01*
X832527Y852345D01*
X832112Y852760D01*
X831569Y852985D01*
D02*
G37*
G36*
X893381Y850229D02*
X892793D01*
X892251Y850004D01*
X891835Y849589D01*
X891611Y849046D01*
Y848459D01*
X891835Y847916D01*
X892251Y847501D01*
X892793Y847276D01*
X893381D01*
X893923Y847501D01*
X894338Y847916D01*
X894563Y848459D01*
Y849046D01*
X894338Y849589D01*
X893923Y850004D01*
X893381Y850229D01*
D02*
G37*
G36*
X899680Y848063D02*
X899092D01*
X898550Y847838D01*
X898134Y847423D01*
X897910Y846881D01*
Y846293D01*
X898134Y845751D01*
X898550Y845335D01*
X899092Y845111D01*
X899680D01*
X900222Y845335D01*
X900638Y845751D01*
X900862Y846293D01*
Y846881D01*
X900638Y847423D01*
X900222Y847838D01*
X899680Y848063D01*
D02*
G37*
G36*
X860310Y845504D02*
X859722D01*
X859180Y845280D01*
X858764Y844864D01*
X858540Y844322D01*
Y843734D01*
X858764Y843192D01*
X859180Y842776D01*
X859722Y842552D01*
X860310D01*
X860852Y842776D01*
X861268Y843192D01*
X861492Y843734D01*
Y844322D01*
X861268Y844864D01*
X860852Y845280D01*
X860310Y845504D01*
D02*
G37*
G36*
X893381Y845111D02*
X892793D01*
X892251Y844886D01*
X891835Y844471D01*
X891611Y843928D01*
Y843340D01*
X891835Y842798D01*
X892251Y842383D01*
X892793Y842158D01*
X893381D01*
X893923Y842383D01*
X894338Y842798D01*
X894563Y843340D01*
Y843928D01*
X894338Y844471D01*
X893923Y844886D01*
X893381Y845111D01*
D02*
G37*
G36*
X899680Y842748D02*
X899092D01*
X898550Y842524D01*
X898134Y842108D01*
X897910Y841566D01*
Y840978D01*
X898134Y840436D01*
X898550Y840020D01*
X899092Y839796D01*
X899680D01*
X900222Y840020D01*
X900638Y840436D01*
X900862Y840978D01*
Y841566D01*
X900638Y842108D01*
X900222Y842524D01*
X899680Y842748D01*
D02*
G37*
G36*
Y838221D02*
X899092D01*
X898550Y837996D01*
X898134Y837581D01*
X897910Y837038D01*
Y836451D01*
X898134Y835908D01*
X898550Y835493D01*
X899092Y835268D01*
X899680D01*
X900222Y835493D01*
X900638Y835908D01*
X900862Y836451D01*
Y837038D01*
X900638Y837581D01*
X900222Y837996D01*
X899680Y838221D01*
D02*
G37*
G36*
X864640Y838024D02*
X864053D01*
X863510Y837799D01*
X863095Y837384D01*
X862870Y836841D01*
Y836254D01*
X863095Y835711D01*
X863510Y835296D01*
X864053Y835071D01*
X864640D01*
X865183Y835296D01*
X865598Y835711D01*
X865823Y836254D01*
Y836841D01*
X865598Y837384D01*
X865183Y837799D01*
X864640Y838024D01*
D02*
G37*
G36*
X837969Y842097D02*
X836838Y841948D01*
X835785Y841512D01*
X834880Y840817D01*
X834186Y839913D01*
X833749Y838859D01*
X833601Y837729D01*
X833749Y836598D01*
X834186Y835545D01*
X834880Y834640D01*
X835785Y833946D01*
X836838Y833509D01*
X837969Y833361D01*
X839099Y833509D01*
X840153Y833946D01*
X841057Y834640D01*
X841752Y835545D01*
X842188Y836598D01*
X842337Y837729D01*
X842188Y838859D01*
X841752Y839913D01*
X841057Y840817D01*
X840153Y841512D01*
X839099Y841948D01*
X837969Y842097D01*
D02*
G37*
G36*
X864640Y833300D02*
X864053D01*
X863510Y833075D01*
X863095Y832659D01*
X862870Y832117D01*
Y831530D01*
X863095Y830987D01*
X863510Y830572D01*
X864053Y830347D01*
X864640D01*
X865183Y830572D01*
X865598Y830987D01*
X865823Y831530D01*
Y832117D01*
X865598Y832659D01*
X865183Y833075D01*
X864640Y833300D01*
D02*
G37*
G36*
X936255Y828378D02*
X935746D01*
X935275Y828183D01*
X934916Y827824D01*
X934721Y827353D01*
Y826844D01*
X934916Y826374D01*
X935275Y826014D01*
X935746Y825819D01*
X936255D01*
X936725Y826014D01*
X937085Y826374D01*
X937280Y826844D01*
Y827353D01*
X937085Y827824D01*
X936725Y828183D01*
X936255Y828378D01*
D02*
G37*
G36*
X930782Y825819D02*
X930195D01*
X929652Y825594D01*
X929237Y825179D01*
X929012Y824636D01*
Y824049D01*
X929237Y823507D01*
X929652Y823091D01*
X930195Y822867D01*
X930782D01*
X931325Y823091D01*
X931740Y823507D01*
X931965Y824049D01*
Y824636D01*
X931740Y825179D01*
X931325Y825594D01*
X930782Y825819D01*
D02*
G37*
G36*
X837351Y824014D02*
X836764D01*
X836221Y823789D01*
X835806Y823374D01*
X835581Y822831D01*
Y822243D01*
X835806Y821701D01*
X836221Y821286D01*
X836764Y821061D01*
X837351D01*
X837894Y821286D01*
X838309Y821701D01*
X838534Y822243D01*
Y822831D01*
X838309Y823374D01*
X837894Y823789D01*
X837351Y824014D01*
D02*
G37*
G36*
X880743Y822079D02*
X880234D01*
X879764Y821884D01*
X879404Y821524D01*
X879209Y821054D01*
Y820545D01*
X879404Y820075D01*
X879764Y819715D01*
X880234Y819520D01*
X880743D01*
X881213Y819715D01*
X881573Y820075D01*
X881768Y820545D01*
Y821054D01*
X881573Y821524D01*
X881213Y821884D01*
X880743Y822079D01*
D02*
G37*
G36*
X924483Y818733D02*
X923895D01*
X923353Y818508D01*
X922938Y818093D01*
X922713Y817550D01*
Y816963D01*
X922938Y816420D01*
X923353Y816005D01*
X923895Y815780D01*
X924483D01*
X925025Y816005D01*
X925441Y816420D01*
X925666Y816963D01*
Y817550D01*
X925441Y818093D01*
X925025Y818508D01*
X924483Y818733D01*
D02*
G37*
G36*
X928814Y818339D02*
X928226D01*
X927684Y818114D01*
X927268Y817699D01*
X927044Y817156D01*
Y816569D01*
X927268Y816026D01*
X927684Y815611D01*
X928226Y815386D01*
X928814D01*
X929356Y815611D01*
X929772Y816026D01*
X929996Y816569D01*
Y817156D01*
X929772Y817699D01*
X929356Y818114D01*
X928814Y818339D01*
D02*
G37*
G36*
X869365Y816764D02*
X868777D01*
X868235Y816539D01*
X867819Y816124D01*
X867595Y815581D01*
Y814994D01*
X867819Y814451D01*
X868235Y814036D01*
X868777Y813811D01*
X869365D01*
X869907Y814036D01*
X870323Y814451D01*
X870547Y814994D01*
Y815581D01*
X870323Y816124D01*
X869907Y816539D01*
X869365Y816764D01*
D02*
G37*
G36*
X864640D02*
X864053D01*
X863510Y816539D01*
X863095Y816124D01*
X862870Y815581D01*
Y814994D01*
X863095Y814451D01*
X863510Y814036D01*
X864053Y813811D01*
X864640D01*
X865183Y814036D01*
X865598Y814451D01*
X865823Y814994D01*
Y815581D01*
X865598Y816124D01*
X865183Y816539D01*
X864640Y816764D01*
D02*
G37*
G36*
X859916D02*
X859329D01*
X858786Y816539D01*
X858371Y816124D01*
X858146Y815581D01*
Y814994D01*
X858371Y814451D01*
X858786Y814036D01*
X859329Y813811D01*
X859916D01*
X860459Y814036D01*
X860874Y814451D01*
X861099Y814994D01*
Y815581D01*
X860874Y816124D01*
X860459Y816539D01*
X859916Y816764D01*
D02*
G37*
G36*
X855192D02*
X854604D01*
X854062Y816539D01*
X853646Y816124D01*
X853421Y815581D01*
Y814994D01*
X853646Y814451D01*
X854062Y814036D01*
X854604Y813811D01*
X855192D01*
X855734Y814036D01*
X856149Y814451D01*
X856374Y814994D01*
Y815581D01*
X856149Y816124D01*
X855734Y816539D01*
X855192Y816764D01*
D02*
G37*
G36*
X850467D02*
X849880D01*
X849337Y816539D01*
X848922Y816124D01*
X848697Y815581D01*
Y814994D01*
X848922Y814451D01*
X849337Y814036D01*
X849880Y813811D01*
X850467D01*
X851010Y814036D01*
X851425Y814451D01*
X851650Y814994D01*
Y815581D01*
X851425Y816124D01*
X851010Y816539D01*
X850467Y816764D01*
D02*
G37*
G36*
X822908Y814796D02*
X822321D01*
X821778Y814571D01*
X821363Y814155D01*
X821138Y813613D01*
Y813025D01*
X821363Y812483D01*
X821778Y812068D01*
X822321Y811843D01*
X822908D01*
X823451Y812068D01*
X823866Y812483D01*
X824091Y813025D01*
Y813613D01*
X823866Y814155D01*
X823451Y814571D01*
X822908Y814796D01*
D02*
G37*
G36*
X892733Y817209D02*
X889898D01*
X889376Y817105D01*
X888933Y816809D01*
X888637Y816366D01*
X888533Y815844D01*
Y812616D01*
X888637Y812094D01*
X888933Y811651D01*
X889376Y811355D01*
X889898Y811251D01*
X892733D01*
X893255Y811355D01*
X893698Y811651D01*
X893993Y812094D01*
X894097Y812616D01*
Y815844D01*
X893993Y816366D01*
X893698Y816809D01*
X893255Y817105D01*
X892733Y817209D01*
D02*
G37*
G36*
X869365Y812040D02*
X868777D01*
X868235Y811815D01*
X867819Y811400D01*
X867595Y810857D01*
Y810270D01*
X867819Y809727D01*
X868235Y809312D01*
X868777Y809087D01*
X869365D01*
X869907Y809312D01*
X870323Y809727D01*
X870547Y810270D01*
Y810857D01*
X870323Y811400D01*
X869907Y811815D01*
X869365Y812040D01*
D02*
G37*
G36*
X864640D02*
X864053D01*
X863510Y811815D01*
X863095Y811400D01*
X862870Y810857D01*
Y810270D01*
X863095Y809727D01*
X863510Y809312D01*
X864053Y809087D01*
X864640D01*
X865183Y809312D01*
X865598Y809727D01*
X865823Y810270D01*
Y810857D01*
X865598Y811400D01*
X865183Y811815D01*
X864640Y812040D01*
D02*
G37*
G36*
X859916D02*
X859329D01*
X858786Y811815D01*
X858371Y811400D01*
X858146Y810857D01*
Y810270D01*
X858371Y809727D01*
X858786Y809312D01*
X859329Y809087D01*
X859916D01*
X860459Y809312D01*
X860874Y809727D01*
X861099Y810270D01*
Y810857D01*
X860874Y811400D01*
X860459Y811815D01*
X859916Y812040D01*
D02*
G37*
G36*
X855192D02*
X854604D01*
X854062Y811815D01*
X853646Y811400D01*
X853421Y810857D01*
Y810270D01*
X853646Y809727D01*
X854062Y809312D01*
X854604Y809087D01*
X855192D01*
X855734Y809312D01*
X856149Y809727D01*
X856374Y810270D01*
Y810857D01*
X856149Y811400D01*
X855734Y811815D01*
X855192Y812040D01*
D02*
G37*
G36*
X850467D02*
X849880D01*
X849337Y811815D01*
X848922Y811400D01*
X848697Y810857D01*
Y810270D01*
X848922Y809727D01*
X849337Y809312D01*
X849880Y809087D01*
X850467D01*
X851010Y809312D01*
X851425Y809727D01*
X851650Y810270D01*
Y810857D01*
X851425Y811400D01*
X851010Y811815D01*
X850467Y812040D01*
D02*
G37*
G36*
X822908Y809284D02*
X822321D01*
X821778Y809059D01*
X821363Y808644D01*
X821138Y808101D01*
Y807514D01*
X821363Y806971D01*
X821778Y806556D01*
X822321Y806331D01*
X822908D01*
X823451Y806556D01*
X823866Y806971D01*
X824091Y807514D01*
Y808101D01*
X823866Y808644D01*
X823451Y809059D01*
X822908Y809284D01*
D02*
G37*
G36*
X928988Y808671D02*
X928401D01*
X927858Y808446D01*
X927443Y808031D01*
X927218Y807488D01*
Y806901D01*
X927443Y806358D01*
X927858Y805943D01*
X928401Y805718D01*
X928988D01*
X929531Y805943D01*
X929946Y806358D01*
X930171Y806901D01*
Y807488D01*
X929946Y808031D01*
X929531Y808446D01*
X928988Y808671D01*
D02*
G37*
G36*
X869365Y807315D02*
X868777D01*
X868235Y807090D01*
X867819Y806675D01*
X867595Y806133D01*
Y805545D01*
X867819Y805003D01*
X868235Y804587D01*
X868777Y804362D01*
X869365D01*
X869907Y804587D01*
X870323Y805003D01*
X870547Y805545D01*
Y806133D01*
X870323Y806675D01*
X869907Y807090D01*
X869365Y807315D01*
D02*
G37*
G36*
X864640D02*
X864053D01*
X863510Y807090D01*
X863095Y806675D01*
X862870Y806133D01*
Y805545D01*
X863095Y805003D01*
X863510Y804587D01*
X864053Y804362D01*
X864640D01*
X865183Y804587D01*
X865598Y805003D01*
X865823Y805545D01*
Y806133D01*
X865598Y806675D01*
X865183Y807090D01*
X864640Y807315D01*
D02*
G37*
G36*
X859916D02*
X859329D01*
X858786Y807090D01*
X858371Y806675D01*
X858146Y806133D01*
Y805545D01*
X858371Y805003D01*
X858786Y804587D01*
X859329Y804362D01*
X859916D01*
X860459Y804587D01*
X860874Y805003D01*
X861099Y805545D01*
Y806133D01*
X860874Y806675D01*
X860459Y807090D01*
X859916Y807315D01*
D02*
G37*
G36*
X855192D02*
X854604D01*
X854062Y807090D01*
X853646Y806675D01*
X853421Y806133D01*
Y805545D01*
X853646Y805003D01*
X854062Y804587D01*
X854604Y804362D01*
X855192D01*
X855734Y804587D01*
X856149Y805003D01*
X856374Y805545D01*
Y806133D01*
X856149Y806675D01*
X855734Y807090D01*
X855192Y807315D01*
D02*
G37*
G36*
X850467D02*
X849880D01*
X849337Y807090D01*
X848922Y806675D01*
X848697Y806133D01*
Y805545D01*
X848922Y805003D01*
X849337Y804587D01*
X849880Y804362D01*
X850467D01*
X851010Y804587D01*
X851425Y805003D01*
X851650Y805545D01*
Y806133D01*
X851425Y806675D01*
X851010Y807090D01*
X850467Y807315D01*
D02*
G37*
G36*
X902436Y804559D02*
X901848D01*
X901306Y804335D01*
X900890Y803919D01*
X900666Y803377D01*
Y802789D01*
X900890Y802247D01*
X901306Y801831D01*
X901848Y801607D01*
X902436D01*
X902978Y801831D01*
X903394Y802247D01*
X903618Y802789D01*
Y803377D01*
X903394Y803919D01*
X902978Y804335D01*
X902436Y804559D01*
D02*
G37*
G36*
X895349D02*
X894762D01*
X894219Y804335D01*
X893804Y803919D01*
X893579Y803377D01*
Y802789D01*
X893804Y802247D01*
X894219Y801831D01*
X894762Y801607D01*
X895349D01*
X895892Y801831D01*
X896307Y802247D01*
X896532Y802789D01*
Y803377D01*
X896307Y803919D01*
X895892Y804335D01*
X895349Y804559D01*
D02*
G37*
G36*
X835113Y804166D02*
X834525D01*
X833983Y803941D01*
X833568Y803526D01*
X833343Y802983D01*
Y802396D01*
X833568Y801853D01*
X833983Y801438D01*
X834525Y801213D01*
X835113D01*
X835655Y801438D01*
X836071Y801853D01*
X836296Y802396D01*
Y802983D01*
X836071Y803526D01*
X835655Y803941D01*
X835113Y804166D01*
D02*
G37*
G36*
X831569D02*
X830982D01*
X830439Y803941D01*
X830024Y803526D01*
X829799Y802983D01*
Y802396D01*
X830024Y801853D01*
X830439Y801438D01*
X830982Y801213D01*
X831569D01*
X832112Y801438D01*
X832527Y801853D01*
X832752Y802396D01*
Y802983D01*
X832527Y803526D01*
X832112Y803941D01*
X831569Y804166D01*
D02*
G37*
G36*
X822908D02*
X822321D01*
X821778Y803941D01*
X821363Y803526D01*
X821138Y802983D01*
Y802396D01*
X821363Y801853D01*
X821778Y801438D01*
X822321Y801213D01*
X822908D01*
X823451Y801438D01*
X823866Y801853D01*
X824091Y802396D01*
Y802983D01*
X823866Y803526D01*
X823451Y803941D01*
X822908Y804166D01*
D02*
G37*
G36*
X869365Y802591D02*
X868777D01*
X868235Y802366D01*
X867819Y801951D01*
X867595Y801408D01*
Y800821D01*
X867819Y800278D01*
X868235Y799863D01*
X868777Y799638D01*
X869365D01*
X869907Y799863D01*
X870323Y800278D01*
X870547Y800821D01*
Y801408D01*
X870323Y801951D01*
X869907Y802366D01*
X869365Y802591D01*
D02*
G37*
G36*
X864640D02*
X864053D01*
X863510Y802366D01*
X863095Y801951D01*
X862870Y801408D01*
Y800821D01*
X863095Y800278D01*
X863510Y799863D01*
X864053Y799638D01*
X864640D01*
X865183Y799863D01*
X865598Y800278D01*
X865823Y800821D01*
Y801408D01*
X865598Y801951D01*
X865183Y802366D01*
X864640Y802591D01*
D02*
G37*
G36*
X859916D02*
X859329D01*
X858786Y802366D01*
X858371Y801951D01*
X858146Y801408D01*
Y800821D01*
X858371Y800278D01*
X858786Y799863D01*
X859329Y799638D01*
X859916D01*
X860459Y799863D01*
X860874Y800278D01*
X861099Y800821D01*
Y801408D01*
X860874Y801951D01*
X860459Y802366D01*
X859916Y802591D01*
D02*
G37*
G36*
X855192D02*
X854604D01*
X854062Y802366D01*
X853646Y801951D01*
X853421Y801408D01*
Y800821D01*
X853646Y800278D01*
X854062Y799863D01*
X854604Y799638D01*
X855192D01*
X855734Y799863D01*
X856149Y800278D01*
X856374Y800821D01*
Y801408D01*
X856149Y801951D01*
X855734Y802366D01*
X855192Y802591D01*
D02*
G37*
G36*
X850467D02*
X849880D01*
X849337Y802366D01*
X848922Y801951D01*
X848697Y801408D01*
Y800821D01*
X848922Y800278D01*
X849337Y799863D01*
X849880Y799638D01*
X850467D01*
X851010Y799863D01*
X851425Y800278D01*
X851650Y800821D01*
Y801408D01*
X851425Y801951D01*
X851010Y802366D01*
X850467Y802591D01*
D02*
G37*
G36*
X924483Y801726D02*
X923895D01*
X923353Y801501D01*
X922938Y801086D01*
X922713Y800543D01*
Y799956D01*
X922938Y799413D01*
X923353Y798998D01*
X923895Y798773D01*
X924483D01*
X925025Y798998D01*
X925441Y799413D01*
X925666Y799956D01*
Y800543D01*
X925441Y801086D01*
X925025Y801501D01*
X924483Y801726D01*
D02*
G37*
G36*
X929995Y801016D02*
X929407D01*
X928865Y800791D01*
X928449Y800376D01*
X928225Y799833D01*
Y799246D01*
X928449Y798703D01*
X928865Y798288D01*
X929407Y798063D01*
X929995D01*
X930537Y798288D01*
X930953Y798703D01*
X931177Y799246D01*
Y799833D01*
X930953Y800376D01*
X930537Y800791D01*
X929995Y801016D01*
D02*
G37*
G36*
X899680Y800622D02*
X899092D01*
X898550Y800398D01*
X898134Y799982D01*
X897910Y799440D01*
Y798852D01*
X898134Y798310D01*
X898550Y797894D01*
X899092Y797670D01*
X899680D01*
X900222Y797894D01*
X900638Y798310D01*
X900862Y798852D01*
Y799440D01*
X900638Y799982D01*
X900222Y800398D01*
X899680Y800622D01*
D02*
G37*
G36*
X892733Y802052D02*
X889898D01*
X889376Y801948D01*
X888933Y801652D01*
X888637Y801209D01*
X888533Y800687D01*
Y800254D01*
X888364D01*
X887821Y800029D01*
X887406Y799614D01*
X887181Y799071D01*
Y798484D01*
X887406Y797941D01*
X887821Y797526D01*
X888364Y797301D01*
X888564D01*
X888637Y796936D01*
X888933Y796493D01*
X889376Y796198D01*
X889898Y796094D01*
X892733D01*
X893255Y796198D01*
X893698Y796493D01*
X893993Y796936D01*
X894007Y797005D01*
X894550Y797170D01*
X894613Y797107D01*
X895155Y796882D01*
X895743D01*
X896285Y797107D01*
X896701Y797522D01*
X896925Y798065D01*
Y798652D01*
X896701Y799195D01*
X896285Y799610D01*
X895743Y799835D01*
X895155D01*
X894613Y799610D01*
X894597Y799595D01*
X894097Y799802D01*
Y800687D01*
X893993Y801209D01*
X893698Y801652D01*
X893255Y801948D01*
X892733Y802052D01*
D02*
G37*
G36*
X843815Y799630D02*
X840587D01*
X840065Y799526D01*
X839622Y799230D01*
X839326Y798788D01*
X839222Y798266D01*
Y795431D01*
X839326Y794909D01*
X839622Y794466D01*
X840065Y794170D01*
X840587Y794066D01*
X843815D01*
X844337Y794170D01*
X844780Y794466D01*
X845076Y794909D01*
X845180Y795431D01*
Y798266D01*
X845076Y798788D01*
X844780Y799230D01*
X844337Y799526D01*
X843815Y799630D01*
D02*
G37*
G36*
X941748Y799729D02*
X938914D01*
X938391Y799625D01*
X937949Y799329D01*
X937653Y798886D01*
X937549Y798364D01*
Y795136D01*
X937653Y794613D01*
X937949Y794171D01*
X938391Y793875D01*
X938914Y793771D01*
X941748D01*
X942270Y793875D01*
X942713Y794171D01*
X943009Y794613D01*
X943113Y795136D01*
Y798364D01*
X943009Y798886D01*
X942713Y799329D01*
X942270Y799625D01*
X941748Y799729D01*
D02*
G37*
G36*
X828658Y799630D02*
X825429D01*
X824907Y799526D01*
X824464Y799230D01*
X824168Y798788D01*
X824065Y798266D01*
Y795431D01*
X824168Y794909D01*
X824464Y794466D01*
X824907Y794170D01*
X825429Y794066D01*
X825469D01*
Y793734D01*
X825694Y793192D01*
X826109Y792776D01*
X826651Y792552D01*
X827239D01*
X827781Y792776D01*
X828197Y793192D01*
X828421Y793734D01*
Y794066D01*
X828658D01*
X829180Y794170D01*
X829623Y794466D01*
X829919Y794909D01*
X830023Y795431D01*
Y798266D01*
X829919Y798788D01*
X829623Y799230D01*
X829180Y799526D01*
X828658Y799630D01*
D02*
G37*
G36*
X822908Y793536D02*
X822321D01*
X821778Y793311D01*
X821363Y792896D01*
X821138Y792353D01*
Y791766D01*
X821363Y791223D01*
X821778Y790808D01*
X822321Y790583D01*
X822908D01*
X823451Y790808D01*
X823866Y791223D01*
X824091Y791766D01*
Y792353D01*
X823866Y792896D01*
X823451Y793311D01*
X822908Y793536D01*
D02*
G37*
G36*
X916748Y796434D02*
X913914D01*
X913391Y796330D01*
X912949Y796034D01*
X912653Y795591D01*
X912549Y795069D01*
Y791840D01*
X912653Y791318D01*
X912949Y790875D01*
X913391Y790580D01*
X913914Y790476D01*
X916748D01*
X917271Y790580D01*
X917713Y790875D01*
X918009Y791318D01*
X918113Y791840D01*
Y795069D01*
X918009Y795591D01*
X917713Y796034D01*
X917271Y796330D01*
X916748Y796434D01*
D02*
G37*
G36*
X928988Y790954D02*
X928401D01*
X927858Y790729D01*
X927443Y790314D01*
X927218Y789771D01*
Y789184D01*
X927443Y788641D01*
X927858Y788226D01*
X928401Y788001D01*
X928988D01*
X929531Y788226D01*
X929946Y788641D01*
X930171Y789184D01*
Y789771D01*
X929946Y790314D01*
X929531Y790729D01*
X928988Y790954D01*
D02*
G37*
G36*
X822908Y788811D02*
X822321D01*
X821778Y788587D01*
X821363Y788171D01*
X821138Y787629D01*
Y787041D01*
X821363Y786499D01*
X821778Y786083D01*
X822321Y785859D01*
X822908D01*
X823451Y786083D01*
X823866Y786499D01*
X824091Y787041D01*
Y787629D01*
X823866Y788171D01*
X823451Y788587D01*
X822908Y788811D01*
D02*
G37*
G36*
X895349Y786843D02*
X894762D01*
X894219Y786618D01*
X893804Y786203D01*
X893579Y785660D01*
Y785073D01*
X893804Y784530D01*
X894219Y784115D01*
X894762Y783890D01*
X895349D01*
X895892Y784115D01*
X896307Y784530D01*
X896532Y785073D01*
Y785660D01*
X896307Y786203D01*
X895892Y786618D01*
X895349Y786843D01*
D02*
G37*
G36*
X874877D02*
X874289D01*
X873747Y786618D01*
X873331Y786203D01*
X873106Y785660D01*
Y785073D01*
X873331Y784530D01*
X873747Y784115D01*
X874289Y783890D01*
X874877D01*
X875419Y784115D01*
X875834Y784530D01*
X876059Y785073D01*
Y785660D01*
X875834Y786203D01*
X875419Y786618D01*
X874877Y786843D01*
D02*
G37*
G36*
X891806Y784481D02*
X891218D01*
X890676Y784256D01*
X890260Y783841D01*
X890036Y783298D01*
Y782711D01*
X890260Y782168D01*
X890676Y781753D01*
X891218Y781528D01*
X891806D01*
X892348Y781753D01*
X892764Y782168D01*
X892988Y782711D01*
Y783298D01*
X892764Y783841D01*
X892348Y784256D01*
X891806Y784481D01*
D02*
G37*
G36*
X870546D02*
X869958D01*
X869416Y784256D01*
X869001Y783841D01*
X868776Y783298D01*
Y782711D01*
X869001Y782168D01*
X869416Y781753D01*
X869958Y781528D01*
X870546D01*
X871089Y781753D01*
X871504Y782168D01*
X871729Y782711D01*
Y783298D01*
X871504Y783841D01*
X871089Y784256D01*
X870546Y784481D01*
D02*
G37*
G36*
X835113Y784087D02*
X834525D01*
X833983Y783862D01*
X833568Y783447D01*
X833343Y782904D01*
Y782317D01*
X833568Y781774D01*
X833983Y781359D01*
X834525Y781134D01*
X835113D01*
X835655Y781359D01*
X836071Y781774D01*
X836296Y782317D01*
Y782904D01*
X836071Y783447D01*
X835655Y783862D01*
X835113Y784087D01*
D02*
G37*
G36*
X929993Y783463D02*
X929406D01*
X928863Y783238D01*
X928448Y782823D01*
X928223Y782280D01*
Y781693D01*
X928448Y781150D01*
X928863Y780735D01*
X929406Y780510D01*
X929993D01*
X930536Y780735D01*
X930951Y781150D01*
X931176Y781693D01*
Y782280D01*
X930951Y782823D01*
X930536Y783238D01*
X929993Y783463D01*
D02*
G37*
G36*
X941748Y784571D02*
X938914D01*
X938391Y784467D01*
X937949Y784171D01*
X937653Y783729D01*
X937578Y783355D01*
X937475Y783299D01*
X936888D01*
X936345Y783075D01*
X935930Y782659D01*
X935705Y782117D01*
Y781530D01*
X935930Y780987D01*
X936345Y780572D01*
X936888Y780347D01*
X937475D01*
X937567Y779885D01*
X937653Y779456D01*
X937949Y779013D01*
X938391Y778717D01*
X938914Y778613D01*
X941748D01*
X942270Y778717D01*
X942713Y779013D01*
X943009Y779456D01*
X943113Y779978D01*
Y783206D01*
X943009Y783729D01*
X942713Y784171D01*
X942270Y784467D01*
X941748Y784571D01*
D02*
G37*
G36*
X877633Y780150D02*
X877045D01*
X876503Y779925D01*
X876087Y779510D01*
X875862Y778967D01*
Y778380D01*
X876087Y777837D01*
X876503Y777422D01*
X877045Y777197D01*
X877633D01*
X878175Y777422D01*
X878590Y777837D01*
X878815Y778380D01*
Y778967D01*
X878590Y779510D01*
X878175Y779925D01*
X877633Y780150D01*
D02*
G37*
G36*
X929207Y779756D02*
X928620D01*
X928077Y779531D01*
X927662Y779116D01*
X927437Y778574D01*
Y777986D01*
X927662Y777444D01*
X928077Y777028D01*
X928620Y776803D01*
X929207D01*
X929750Y777028D01*
X930165Y777444D01*
X930390Y777986D01*
Y778574D01*
X930165Y779116D01*
X929750Y779531D01*
X929207Y779756D01*
D02*
G37*
G36*
X868815Y780981D02*
X865587D01*
X865065Y780877D01*
X864622Y780581D01*
X864326Y780138D01*
X864222Y779616D01*
Y776781D01*
X864326Y776259D01*
X864622Y775816D01*
X865065Y775521D01*
X865587Y775417D01*
X868815D01*
X869337Y775521D01*
X869780Y775816D01*
X870076Y776259D01*
X870180Y776781D01*
Y779616D01*
X870076Y780138D01*
X869780Y780581D01*
X869337Y780877D01*
X868815Y780981D01*
D02*
G37*
G36*
X933541Y777748D02*
X932954D01*
X932411Y777523D01*
X931996Y777108D01*
X931771Y776565D01*
Y775978D01*
X931996Y775435D01*
X932411Y775020D01*
X932954Y774795D01*
X933541D01*
X934084Y775020D01*
X934499Y775435D01*
X934724Y775978D01*
Y776565D01*
X934499Y777108D01*
X934084Y777523D01*
X933541Y777748D01*
D02*
G37*
G36*
X916748Y781276D02*
X913914D01*
X913391Y781172D01*
X912949Y780876D01*
X912653Y780434D01*
X912549Y779911D01*
Y776683D01*
X912653Y776161D01*
X912949Y775718D01*
X913391Y775422D01*
X913914Y775318D01*
X916020D01*
Y775230D01*
X916245Y774688D01*
X916660Y774272D01*
X917203Y774048D01*
X917790D01*
X918333Y774272D01*
X918748Y774688D01*
X918973Y775230D01*
Y775818D01*
X918748Y776360D01*
X918333Y776776D01*
X918113Y776866D01*
Y779911D01*
X918009Y780434D01*
X917713Y780876D01*
X917271Y781172D01*
X916748Y781276D01*
D02*
G37*
G36*
X853658Y780981D02*
X850429D01*
X849907Y780877D01*
X849464Y780581D01*
X849168Y780138D01*
X849065Y779616D01*
Y776781D01*
X849168Y776259D01*
X849464Y775816D01*
X849907Y775521D01*
X850429Y775417D01*
X851195D01*
X851453Y775030D01*
Y774443D01*
X851678Y773900D01*
X852093Y773485D01*
X852636Y773260D01*
X853223D01*
X853766Y773485D01*
X854181Y773900D01*
X854406Y774443D01*
Y775030D01*
X854198Y775532D01*
X854623Y775816D01*
X854919Y776259D01*
X855023Y776781D01*
Y779616D01*
X854919Y780138D01*
X854623Y780581D01*
X854180Y780877D01*
X853658Y780981D01*
D02*
G37*
G36*
X941806Y774638D02*
X941218D01*
X940676Y774413D01*
X940260Y773998D01*
X940036Y773455D01*
Y772868D01*
X940260Y772325D01*
X940676Y771910D01*
X941218Y771685D01*
X941806D01*
X942348Y771910D01*
X942764Y772325D01*
X942988Y772868D01*
Y773455D01*
X942764Y773998D01*
X942348Y774413D01*
X941806Y774638D01*
D02*
G37*
G36*
X898105D02*
X897518D01*
X896975Y774413D01*
X896560Y773998D01*
X896335Y773455D01*
Y772868D01*
X896560Y772325D01*
X896975Y771910D01*
X897518Y771685D01*
X898105D01*
X898647Y771910D01*
X899063Y772325D01*
X899288Y772868D01*
Y773455D01*
X899063Y773998D01*
X898647Y774413D01*
X898105Y774638D01*
D02*
G37*
G36*
X905192Y772670D02*
X904604D01*
X904062Y772445D01*
X903646Y772029D01*
X903421Y771487D01*
Y770900D01*
X903646Y770357D01*
X904062Y769942D01*
X904604Y769717D01*
X905192D01*
X905734Y769942D01*
X906149Y770357D01*
X906374Y770900D01*
Y771487D01*
X906149Y772029D01*
X905734Y772445D01*
X905192Y772670D01*
D02*
G37*
G36*
X877239Y772276D02*
X876651D01*
X876109Y772051D01*
X875694Y771636D01*
X875469Y771093D01*
Y770506D01*
X875694Y769963D01*
X876109Y769548D01*
X876651Y769323D01*
X877239D01*
X877781Y769548D01*
X878197Y769963D01*
X878421Y770506D01*
Y771093D01*
X878197Y771636D01*
X877781Y772051D01*
X877239Y772276D01*
D02*
G37*
G36*
X872121Y771882D02*
X871533D01*
X870991Y771657D01*
X870575Y771242D01*
X870351Y770700D01*
Y770112D01*
X870575Y769569D01*
X870991Y769154D01*
X871533Y768929D01*
X872121D01*
X872663Y769154D01*
X873079Y769569D01*
X873303Y770112D01*
Y770700D01*
X873079Y771242D01*
X872663Y771657D01*
X872121Y771882D01*
D02*
G37*
G36*
X867396Y770307D02*
X866809D01*
X866266Y770083D01*
X865851Y769667D01*
X865626Y769125D01*
Y768537D01*
X865851Y767995D01*
X866266Y767579D01*
X866809Y767355D01*
X867396D01*
X867939Y767579D01*
X868354Y767995D01*
X868579Y768537D01*
Y769125D01*
X868354Y769667D01*
X867939Y770083D01*
X867396Y770307D01*
D02*
G37*
G36*
X857772Y769129D02*
X857184D01*
X856642Y768904D01*
X856227Y768489D01*
X856002Y767946D01*
Y767358D01*
X856227Y766816D01*
X856642Y766401D01*
X857184Y766176D01*
X857772D01*
X858314Y766401D01*
X858730Y766816D01*
X858954Y767358D01*
Y767946D01*
X858730Y768489D01*
X858314Y768904D01*
X857772Y769129D01*
D02*
G37*
G36*
X862278Y769126D02*
X861691D01*
X861148Y768901D01*
X860733Y768486D01*
X860508Y767944D01*
Y767356D01*
X860733Y766814D01*
X861148Y766398D01*
X861691Y766174D01*
X862278D01*
X862821Y766398D01*
X863236Y766814D01*
X863461Y767356D01*
Y767944D01*
X863236Y768486D01*
X862821Y768901D01*
X862278Y769126D01*
D02*
G37*
G36*
X944168Y769104D02*
X943581D01*
X943038Y768879D01*
X942623Y768464D01*
X942398Y767921D01*
Y767334D01*
X942623Y766791D01*
X943038Y766376D01*
X943581Y766151D01*
X944168D01*
X944711Y766376D01*
X945126Y766791D01*
X945351Y767334D01*
Y767921D01*
X945126Y768464D01*
X944711Y768879D01*
X944168Y769104D01*
D02*
G37*
G36*
X892733Y768122D02*
X889898D01*
X889376Y768018D01*
X888933Y767722D01*
X888637Y767279D01*
X888533Y766757D01*
Y763529D01*
X888637Y763006D01*
X888933Y762564D01*
X889376Y762268D01*
X889898Y762164D01*
X892733D01*
X893255Y762268D01*
X893698Y762564D01*
X893993Y763006D01*
X894097Y763529D01*
Y766757D01*
X893993Y767279D01*
X893698Y767722D01*
X893255Y768018D01*
X892733Y768122D01*
D02*
G37*
G36*
Y752964D02*
X889898D01*
X889376Y752860D01*
X888933Y752565D01*
X888637Y752122D01*
X888577Y751821D01*
X888262Y751410D01*
X887675D01*
X887132Y751185D01*
X886717Y750770D01*
X886492Y750227D01*
Y749640D01*
X886717Y749097D01*
X887132Y748682D01*
X887675Y748457D01*
X888262D01*
X888596Y748054D01*
X888637Y747849D01*
X888933Y747406D01*
X889376Y747110D01*
X889898Y747006D01*
X892733D01*
X893255Y747110D01*
X893698Y747406D01*
X893993Y747849D01*
X894097Y748371D01*
Y751600D01*
X893993Y752122D01*
X893698Y752565D01*
X893255Y752860D01*
X892733Y752964D01*
D02*
G37*
G36*
X860884Y758989D02*
X859148D01*
X857435Y758717D01*
X855784Y758181D01*
X854238Y757393D01*
X852835Y756373D01*
X851608Y755146D01*
X850588Y753743D01*
X849800Y752197D01*
X849264Y750546D01*
X848992Y748833D01*
Y747097D01*
X849112Y746339D01*
X848673Y745917D01*
X848638Y745924D01*
X845803D01*
X845281Y745820D01*
X844838Y745524D01*
X844543Y745081D01*
X844439Y744559D01*
Y741331D01*
X844543Y740808D01*
X844838Y740366D01*
X845281Y740070D01*
X845803Y739966D01*
X848638D01*
X849160Y740070D01*
X849603Y740366D01*
X849899Y740808D01*
X850003Y741331D01*
Y742264D01*
X850489Y742381D01*
X850588Y742187D01*
X851608Y740784D01*
X852835Y739557D01*
X854238Y738537D01*
X855784Y737749D01*
X857435Y737213D01*
X859148Y736941D01*
X860884D01*
X862597Y737213D01*
X864248Y737749D01*
X865794Y738537D01*
X867197Y739557D01*
X868424Y740784D01*
X869444Y742187D01*
X870232Y743733D01*
X870768Y745384D01*
X871040Y747097D01*
Y748833D01*
X870768Y750546D01*
X870232Y752197D01*
X869444Y753743D01*
X868424Y755146D01*
X867197Y756373D01*
X865794Y757393D01*
X864248Y758181D01*
X862597Y758717D01*
X860884Y758989D01*
D02*
G37*
G36*
X936827Y745924D02*
X933992D01*
X933470Y745820D01*
X933027Y745524D01*
X932732Y745081D01*
X932628Y744559D01*
Y741331D01*
X932732Y740808D01*
X933027Y740366D01*
X933470Y740070D01*
X933992Y739966D01*
X936827D01*
X937349Y740070D01*
X937792Y740366D01*
X938088Y740808D01*
X938192Y741331D01*
Y744559D01*
X938088Y745081D01*
X937792Y745524D01*
X937349Y745820D01*
X936827Y745924D01*
D02*
G37*
G36*
X930388Y741174D02*
X929801D01*
X929258Y740949D01*
X928843Y740533D01*
X928618Y739991D01*
Y739403D01*
X928843Y738861D01*
X929258Y738446D01*
X929801Y738221D01*
X930388D01*
X930931Y738446D01*
X931346Y738861D01*
X931571Y739403D01*
Y739991D01*
X931346Y740533D01*
X930931Y740949D01*
X930388Y741174D01*
D02*
G37*
G36*
X908128Y758989D02*
X906392D01*
X904679Y758717D01*
X903028Y758181D01*
X901482Y757393D01*
X900079Y756373D01*
X898852Y755146D01*
X897832Y753743D01*
X897044Y752197D01*
X896508Y750546D01*
X896236Y748833D01*
Y747097D01*
X896508Y745384D01*
X897044Y743733D01*
X897832Y742187D01*
X898852Y740784D01*
X900079Y739557D01*
X901482Y738537D01*
X903028Y737749D01*
X904679Y737213D01*
X906392Y736941D01*
X908128D01*
X909841Y737213D01*
X911492Y737749D01*
X913038Y738537D01*
X914441Y739557D01*
X915668Y740784D01*
X916688Y742187D01*
X917476Y743733D01*
X918012Y745384D01*
X918284Y747097D01*
Y748833D01*
X918012Y750546D01*
X917476Y752197D01*
X916688Y753743D01*
X915668Y755146D01*
X914441Y756373D01*
X913038Y757393D01*
X911492Y758181D01*
X909841Y758717D01*
X908128Y758989D01*
D02*
G37*
G36*
X935113Y737236D02*
X934525D01*
X933983Y737012D01*
X933568Y736596D01*
X933343Y736054D01*
Y735466D01*
X933568Y734924D01*
X933983Y734509D01*
X934525Y734284D01*
X935113D01*
X935655Y734509D01*
X936071Y734924D01*
X936296Y735466D01*
Y736054D01*
X936071Y736596D01*
X935655Y737012D01*
X935113Y737236D01*
D02*
G37*
G36*
X892733Y739570D02*
X889898D01*
X889376Y739466D01*
X888933Y739170D01*
X888637Y738727D01*
X888533Y738205D01*
Y734977D01*
X888637Y734454D01*
X888933Y734012D01*
X889376Y733716D01*
X889898Y733612D01*
X892733D01*
X893255Y733716D01*
X893698Y734012D01*
X893993Y734454D01*
X894097Y734977D01*
Y738205D01*
X893993Y738727D01*
X893698Y739170D01*
X893255Y739466D01*
X892733Y739570D01*
D02*
G37*
G36*
X919365Y735268D02*
X918777D01*
X918235Y735043D01*
X917819Y734628D01*
X917595Y734085D01*
Y733498D01*
X917819Y732955D01*
X918235Y732540D01*
X918777Y732315D01*
X919365D01*
X919907Y732540D01*
X920323Y732955D01*
X920547Y733498D01*
Y734085D01*
X920323Y734628D01*
X919907Y735043D01*
X919365Y735268D01*
D02*
G37*
G36*
X907554Y733299D02*
X906966D01*
X906424Y733075D01*
X906009Y732659D01*
X905784Y732117D01*
Y731530D01*
X906009Y730987D01*
X906424Y730572D01*
X906966Y730347D01*
X907554D01*
X908096Y730572D01*
X908512Y730987D01*
X908736Y731530D01*
Y732117D01*
X908512Y732659D01*
X908096Y733075D01*
X907554Y733299D01*
D02*
G37*
G36*
X848638Y730766D02*
X845803D01*
X845281Y730662D01*
X844838Y730367D01*
X844543Y729924D01*
X844439Y729401D01*
Y726173D01*
X844543Y725651D01*
X844838Y725208D01*
X845281Y724912D01*
X845803Y724808D01*
X847921D01*
X848134Y724294D01*
X848550Y723879D01*
X849092Y723654D01*
X849680D01*
X850222Y723879D01*
X850638Y724294D01*
X850862Y724837D01*
Y725424D01*
X850638Y725967D01*
X850222Y726382D01*
X850003Y726473D01*
Y729401D01*
X849899Y729924D01*
X849603Y730367D01*
X849160Y730662D01*
X848638Y730766D01*
D02*
G37*
G36*
X912278Y725425D02*
X911691D01*
X911148Y725201D01*
X910733Y724785D01*
X910508Y724243D01*
Y723656D01*
X910733Y723113D01*
X911148Y722697D01*
X911691Y722473D01*
X912278D01*
X912821Y722697D01*
X913236Y723113D01*
X913461Y723656D01*
Y724243D01*
X913236Y724785D01*
X912821Y725201D01*
X912278Y725425D01*
D02*
G37*
G36*
X936827Y730766D02*
X933992D01*
X933470Y730662D01*
X933027Y730367D01*
X932732Y729924D01*
X932628Y729401D01*
Y726173D01*
X932732Y725651D01*
X933027Y725208D01*
X933470Y724912D01*
X933992Y724808D01*
X935246D01*
X935374Y724625D01*
X935501Y724308D01*
X935311Y723849D01*
Y723262D01*
X935536Y722719D01*
X935951Y722304D01*
X936494Y722079D01*
X937081D01*
X937624Y722304D01*
X938039Y722719D01*
X938264Y723262D01*
Y723849D01*
X938039Y724392D01*
X937891Y724539D01*
Y725357D01*
X938088Y725651D01*
X938192Y726173D01*
Y729401D01*
X938088Y729924D01*
X937792Y730367D01*
X937349Y730662D01*
X936827Y730766D01*
D02*
G37*
G36*
X922121Y721489D02*
X921533D01*
X920991Y721264D01*
X920575Y720848D01*
X920351Y720306D01*
Y719719D01*
X920575Y719176D01*
X920991Y718760D01*
X921533Y718536D01*
X922121D01*
X922663Y718760D01*
X923079Y719176D01*
X923303Y719719D01*
Y720306D01*
X923079Y720848D01*
X922663Y721264D01*
X922121Y721489D01*
D02*
G37*
G36*
X892733Y724412D02*
X889898D01*
X889376Y724308D01*
X888933Y724013D01*
X888637Y723570D01*
X888533Y723047D01*
Y719819D01*
X888637Y719297D01*
X888933Y718854D01*
X889376Y718558D01*
X889898Y718454D01*
X892733D01*
X893255Y718558D01*
X893698Y718854D01*
X893993Y719297D01*
X894079Y719727D01*
X894187Y720189D01*
X894774D01*
X895317Y720414D01*
X895732Y720829D01*
X895957Y721372D01*
Y721959D01*
X895732Y722502D01*
X895317Y722917D01*
X894774Y723142D01*
X894187D01*
X894066Y723206D01*
X893993Y723570D01*
X893698Y724013D01*
X893255Y724308D01*
X892733Y724412D01*
D02*
G37*
G36*
X855585Y720307D02*
X854998D01*
X854455Y720083D01*
X854040Y719667D01*
X853815Y719125D01*
Y718537D01*
X854040Y717995D01*
X854455Y717579D01*
X854998Y717355D01*
X855585D01*
X856128Y717579D01*
X856543Y717995D01*
X856768Y718537D01*
Y719125D01*
X856543Y719667D01*
X856128Y720083D01*
X855585Y720307D01*
D02*
G37*
G36*
X919168Y716370D02*
X918581D01*
X918038Y716146D01*
X917623Y715730D01*
X917398Y715188D01*
Y714600D01*
X917623Y714058D01*
X918038Y713642D01*
X918581Y713418D01*
X919168D01*
X919711Y713642D01*
X920126Y714058D01*
X920351Y714600D01*
Y715188D01*
X920126Y715730D01*
X919711Y716146D01*
X919168Y716370D01*
D02*
G37*
G36*
X915428D02*
X914840D01*
X914298Y716146D01*
X913883Y715730D01*
X913658Y715188D01*
Y714600D01*
X913883Y714058D01*
X914298Y713642D01*
X914840Y713418D01*
X915428D01*
X915970Y713642D01*
X916386Y714058D01*
X916610Y714600D01*
Y715188D01*
X916386Y715730D01*
X915970Y716146D01*
X915428Y716370D01*
D02*
G37*
G36*
X835900Y714402D02*
X835313D01*
X834770Y714177D01*
X834355Y713762D01*
X834130Y713219D01*
X833630Y713119D01*
X833579Y713129D01*
X830351D01*
X829828Y713025D01*
X829386Y712729D01*
X829090Y712286D01*
X828986Y711764D01*
Y711165D01*
X828486Y710831D01*
X828420Y710859D01*
X827833D01*
X827290Y710634D01*
X826875Y710218D01*
X826650Y709676D01*
Y709089D01*
X826875Y708546D01*
X827290Y708131D01*
X827833Y707906D01*
X828420D01*
X828963Y708131D01*
X829296Y708098D01*
X829386Y707964D01*
X829828Y707668D01*
X830351Y707565D01*
X833579D01*
X834101Y707668D01*
X834544Y707964D01*
X834840Y708407D01*
X834944Y708929D01*
Y711202D01*
X835313Y711449D01*
X835900D01*
X836443Y711674D01*
X836858Y712089D01*
X837083Y712632D01*
Y713219D01*
X836858Y713762D01*
X836443Y714177D01*
X835900Y714402D01*
D02*
G37*
G36*
X888656D02*
X888069D01*
X887526Y714177D01*
X887111Y713762D01*
X886886Y713219D01*
Y712632D01*
X887111Y712089D01*
X887526Y711674D01*
X888069Y711449D01*
X888656D01*
X889199Y711674D01*
X889614Y712089D01*
X889839Y712632D01*
Y713219D01*
X889614Y713762D01*
X889199Y714177D01*
X888656Y714402D01*
D02*
G37*
G36*
X873302Y713221D02*
X872714D01*
X872172Y712996D01*
X871756Y712581D01*
X871532Y712038D01*
Y711451D01*
X871756Y710908D01*
X872172Y710493D01*
X872714Y710268D01*
X873302D01*
X873844Y710493D01*
X874260Y710908D01*
X874485Y711451D01*
Y712038D01*
X874260Y712581D01*
X873844Y712996D01*
X873302Y713221D01*
D02*
G37*
G36*
X923597Y711252D02*
X923010D01*
X922467Y711027D01*
X922052Y710612D01*
X921827Y710070D01*
Y709482D01*
X922052Y708940D01*
X922467Y708524D01*
X923010Y708299D01*
X923597D01*
X924140Y708524D01*
X924555Y708940D01*
X924780Y709482D01*
Y710070D01*
X924555Y710612D01*
X924140Y711027D01*
X923597Y711252D01*
D02*
G37*
G36*
X911491D02*
X910903D01*
X910361Y711027D01*
X909945Y710612D01*
X909721Y710070D01*
Y709482D01*
X909945Y708940D01*
X910361Y708524D01*
X910903Y708299D01*
X911491D01*
X912033Y708524D01*
X912449Y708940D01*
X912673Y709482D01*
Y710070D01*
X912449Y710612D01*
X912033Y711027D01*
X911491Y711252D01*
D02*
G37*
G36*
X936827Y713227D02*
X933992D01*
X933470Y713123D01*
X933027Y712828D01*
X932731Y712385D01*
X932627Y711863D01*
Y708634D01*
X932731Y708112D01*
X933027Y707669D01*
X933470Y707373D01*
X933992Y707269D01*
X936827D01*
X937349Y707373D01*
X937792Y707669D01*
X938088Y708112D01*
X938192Y708634D01*
Y711863D01*
X938088Y712385D01*
X937792Y712828D01*
X937349Y713123D01*
X936827Y713227D01*
D02*
G37*
G36*
X848736Y713129D02*
X845508D01*
X844986Y713025D01*
X844543Y712729D01*
X844247Y712286D01*
X844143Y711764D01*
Y708929D01*
X844247Y708407D01*
X844543Y707964D01*
X844986Y707668D01*
X845508Y707565D01*
X848303D01*
Y707514D01*
X848528Y706971D01*
X848944Y706556D01*
X849486Y706331D01*
X850073D01*
X850616Y706556D01*
X851031Y706971D01*
X851256Y707514D01*
Y708101D01*
X851031Y708644D01*
X850616Y709059D01*
X850101Y709272D01*
Y711764D01*
X849997Y712286D01*
X849701Y712729D01*
X849259Y713025D01*
X848736Y713129D01*
D02*
G37*
G36*
X931569Y707315D02*
X930982D01*
X930439Y707091D01*
X930024Y706675D01*
X929799Y706133D01*
Y705545D01*
X930024Y705003D01*
X930439Y704587D01*
X930982Y704362D01*
X931569D01*
X932112Y704587D01*
X932527Y705003D01*
X932752Y705545D01*
Y706133D01*
X932527Y706675D01*
X932112Y707091D01*
X931569Y707315D01*
D02*
G37*
G36*
X904798D02*
X904210D01*
X903668Y707091D01*
X903253Y706675D01*
X903028Y706133D01*
Y705545D01*
X903253Y705003D01*
X903668Y704587D01*
X904210Y704362D01*
X904798D01*
X905340Y704587D01*
X905756Y705003D01*
X905980Y705545D01*
Y706133D01*
X905756Y706675D01*
X905340Y707091D01*
X904798Y707315D01*
D02*
G37*
G36*
X916609Y706134D02*
X916022D01*
X915479Y705909D01*
X915064Y705494D01*
X914839Y704951D01*
Y704364D01*
X915064Y703822D01*
X915479Y703406D01*
X916022Y703181D01*
X916609D01*
X917152Y703406D01*
X917567Y703822D01*
X917791Y704364D01*
Y704951D01*
X917567Y705494D01*
X917152Y705909D01*
X916609Y706134D01*
D02*
G37*
G36*
X913066D02*
X912478D01*
X911936Y705909D01*
X911520Y705494D01*
X911296Y704951D01*
Y704364D01*
X911520Y703822D01*
X911936Y703406D01*
X912478Y703181D01*
X913066D01*
X913608Y703406D01*
X914023Y703822D01*
X914248Y704364D01*
Y704951D01*
X914023Y705494D01*
X913608Y705909D01*
X913066Y706134D01*
D02*
G37*
G36*
X853617D02*
X853029D01*
X852487Y705909D01*
X852071Y705494D01*
X851847Y704951D01*
Y704364D01*
X852071Y703822D01*
X852487Y703406D01*
X853029Y703181D01*
X853617D01*
X854159Y703406D01*
X854575Y703822D01*
X854799Y704364D01*
Y704951D01*
X854575Y705494D01*
X854159Y705909D01*
X853617Y706134D01*
D02*
G37*
G36*
X857947Y704166D02*
X857360D01*
X856818Y703941D01*
X856402Y703526D01*
X856177Y702983D01*
Y702396D01*
X856402Y701853D01*
X856818Y701438D01*
X857360Y701213D01*
X857947D01*
X858490Y701438D01*
X858905Y701853D01*
X859130Y702396D01*
Y702983D01*
X858905Y703526D01*
X858490Y703941D01*
X857947Y704166D01*
D02*
G37*
G36*
X892733Y706873D02*
X889898D01*
X889376Y706769D01*
X888933Y706473D01*
X888637Y706031D01*
X888533Y705508D01*
Y702280D01*
X888637Y701758D01*
X888933Y701315D01*
X889376Y701019D01*
X889898Y700915D01*
X892733D01*
X893255Y701019D01*
X893698Y701315D01*
X893993Y701758D01*
X894097Y702280D01*
Y705508D01*
X893993Y706031D01*
X893698Y706473D01*
X893255Y706769D01*
X892733Y706873D01*
D02*
G37*
G36*
X933932Y703772D02*
X933344D01*
X932802Y703547D01*
X932386Y703132D01*
X932162Y702589D01*
Y702002D01*
X932386Y701459D01*
X932802Y701044D01*
X933344Y700819D01*
X933932D01*
X934474Y701044D01*
X934890Y701459D01*
X935114Y702002D01*
Y702589D01*
X934890Y703132D01*
X934474Y703547D01*
X933932Y703772D01*
D02*
G37*
G36*
X880743Y695307D02*
X880234D01*
X879764Y695113D01*
X879404Y694753D01*
X879209Y694282D01*
Y693773D01*
X879404Y693303D01*
X879764Y692943D01*
X880234Y692748D01*
X880743D01*
X881213Y692943D01*
X881573Y693303D01*
X881768Y693773D01*
Y694282D01*
X881573Y694753D01*
X881213Y695113D01*
X880743Y695307D01*
D02*
G37*
G36*
X937081Y701016D02*
X936494D01*
X935951Y700791D01*
X935536Y700376D01*
X935311Y699833D01*
Y699246D01*
X935536Y698703D01*
X935670Y698570D01*
X935462Y698070D01*
X933992D01*
X933470Y697966D01*
X933027Y697670D01*
X932731Y697227D01*
X932627Y696705D01*
Y693477D01*
X932731Y692954D01*
X933027Y692512D01*
X933470Y692216D01*
X933992Y692112D01*
X934524D01*
Y691766D01*
X934749Y691223D01*
X935164Y690808D01*
X935707Y690583D01*
X936294D01*
X936837Y690808D01*
X937252Y691223D01*
X937477Y691766D01*
Y692301D01*
X937792Y692512D01*
X938088Y692954D01*
X938192Y693477D01*
Y696705D01*
X938088Y697227D01*
X937792Y697670D01*
X937657Y697760D01*
X937639Y698052D01*
X937681Y698346D01*
X938039Y698703D01*
X938264Y699246D01*
Y699833D01*
X938039Y700376D01*
X937624Y700791D01*
X937081Y701016D01*
D02*
G37*
G36*
X830782Y691961D02*
X830195D01*
X829652Y691736D01*
X829237Y691321D01*
X829012Y690778D01*
Y690191D01*
X829237Y689648D01*
X829652Y689233D01*
X830195Y689008D01*
X830782D01*
X831325Y689233D01*
X831740Y689648D01*
X831965Y690191D01*
Y690778D01*
X831740Y691321D01*
X831325Y691736D01*
X830782Y691961D01*
D02*
G37*
G36*
X834270Y691777D02*
X833682D01*
X833140Y691552D01*
X832724Y691136D01*
X832500Y690594D01*
Y690006D01*
X832724Y689464D01*
X833140Y689048D01*
X833682Y688824D01*
X834270D01*
X834812Y689048D01*
X835228Y689464D01*
X835452Y690006D01*
Y690594D01*
X835228Y691136D01*
X834812Y691552D01*
X834270Y691777D01*
D02*
G37*
G36*
X866215Y691174D02*
X865628D01*
X865085Y690949D01*
X864670Y690533D01*
X864445Y689991D01*
Y689403D01*
X864670Y688861D01*
X865085Y688446D01*
X865628Y688221D01*
X866215D01*
X866758Y688446D01*
X867173Y688861D01*
X867398Y689403D01*
Y689991D01*
X867173Y690533D01*
X866758Y690949D01*
X866215Y691174D01*
D02*
G37*
G36*
X861491D02*
X860903D01*
X860361Y690949D01*
X859945Y690533D01*
X859721Y689991D01*
Y689403D01*
X859945Y688861D01*
X860361Y688446D01*
X860903Y688221D01*
X861491D01*
X862033Y688446D01*
X862449Y688861D01*
X862673Y689403D01*
Y689991D01*
X862449Y690533D01*
X862033Y690949D01*
X861491Y691174D01*
D02*
G37*
G36*
X856766D02*
X856179D01*
X855636Y690949D01*
X855221Y690533D01*
X854996Y689991D01*
Y689403D01*
X855221Y688861D01*
X855636Y688446D01*
X856179Y688221D01*
X856766D01*
X857309Y688446D01*
X857724Y688861D01*
X857949Y689403D01*
Y689991D01*
X857724Y690533D01*
X857309Y690949D01*
X856766Y691174D01*
D02*
G37*
G36*
X935900Y689992D02*
X935313D01*
X934770Y689768D01*
X934355Y689352D01*
X934130Y688810D01*
Y688222D01*
X934355Y687680D01*
X934770Y687264D01*
X935313Y687040D01*
X935900D01*
X936443Y687264D01*
X936858Y687680D01*
X937083Y688222D01*
Y688810D01*
X936858Y689352D01*
X936443Y689768D01*
X935900Y689992D01*
D02*
G37*
G36*
X892733Y691716D02*
X889898D01*
X889376Y691612D01*
X888933Y691316D01*
X888637Y690873D01*
X888533Y690351D01*
Y689205D01*
X888216D01*
X887673Y688980D01*
X887258Y688565D01*
X887033Y688022D01*
Y687435D01*
X887258Y686892D01*
X887673Y686477D01*
X888216Y686252D01*
X888803D01*
X888855Y686274D01*
X888933Y686158D01*
X889376Y685862D01*
X889898Y685758D01*
X892733D01*
X893255Y685862D01*
X893698Y686158D01*
X893993Y686600D01*
X894097Y687123D01*
Y690351D01*
X893993Y690873D01*
X893698Y691316D01*
X893255Y691612D01*
X892733Y691716D01*
D02*
G37*
G36*
X839443Y686843D02*
X838856D01*
X838313Y686618D01*
X837898Y686203D01*
X837673Y685660D01*
Y685073D01*
X837898Y684530D01*
X838313Y684115D01*
X838856Y683890D01*
X839443D01*
X839986Y684115D01*
X840401Y684530D01*
X840626Y685073D01*
Y685660D01*
X840401Y686203D01*
X839986Y686618D01*
X839443Y686843D01*
D02*
G37*
G36*
X934719Y686449D02*
X934132D01*
X933589Y686224D01*
X933174Y685809D01*
X932949Y685266D01*
Y684679D01*
X933174Y684136D01*
X933589Y683721D01*
X934132Y683496D01*
X934719D01*
X935262Y683721D01*
X935677Y684136D01*
X935902Y684679D01*
Y685266D01*
X935677Y685809D01*
X935262Y686224D01*
X934719Y686449D01*
D02*
G37*
G36*
X870940D02*
X870352D01*
X869810Y686224D01*
X869394Y685809D01*
X869170Y685266D01*
Y684679D01*
X869394Y684136D01*
X869810Y683721D01*
X870352Y683496D01*
X870940D01*
X871482Y683721D01*
X871898Y684136D01*
X872122Y684679D01*
Y685266D01*
X871898Y685809D01*
X871482Y686224D01*
X870940Y686449D01*
D02*
G37*
G36*
X866215D02*
X865628D01*
X865085Y686224D01*
X864670Y685809D01*
X864445Y685266D01*
Y684679D01*
X864670Y684136D01*
X865085Y683721D01*
X865628Y683496D01*
X866215D01*
X866758Y683721D01*
X867173Y684136D01*
X867398Y684679D01*
Y685266D01*
X867173Y685809D01*
X866758Y686224D01*
X866215Y686449D01*
D02*
G37*
G36*
X861491D02*
X860903D01*
X860361Y686224D01*
X859945Y685809D01*
X859721Y685266D01*
Y684679D01*
X859945Y684136D01*
X860361Y683721D01*
X860903Y683496D01*
X861491D01*
X862033Y683721D01*
X862449Y684136D01*
X862673Y684679D01*
Y685266D01*
X862449Y685809D01*
X862033Y686224D01*
X861491Y686449D01*
D02*
G37*
G36*
X856766D02*
X856179D01*
X855636Y686224D01*
X855221Y685809D01*
X854996Y685266D01*
Y684679D01*
X855221Y684136D01*
X855636Y683721D01*
X856179Y683496D01*
X856766D01*
X857309Y683721D01*
X857724Y684136D01*
X857949Y684679D01*
Y685266D01*
X857724Y685809D01*
X857309Y686224D01*
X856766Y686449D01*
D02*
G37*
G36*
X920152Y684874D02*
X919565D01*
X919022Y684650D01*
X918607Y684234D01*
X918382Y683692D01*
Y683104D01*
X918607Y682562D01*
X919022Y682146D01*
X919565Y681922D01*
X920152D01*
X920695Y682146D01*
X921110Y682562D01*
X921335Y683104D01*
Y683692D01*
X921110Y684234D01*
X920695Y684650D01*
X920152Y684874D01*
D02*
G37*
G36*
X889443D02*
X888856D01*
X888313Y684650D01*
X887898Y684234D01*
X887673Y683692D01*
Y683104D01*
X887898Y682562D01*
X888313Y682146D01*
X888856Y681922D01*
X889443D01*
X889986Y682146D01*
X890401Y682562D01*
X890626Y683104D01*
Y683692D01*
X890401Y684234D01*
X889986Y684650D01*
X889443Y684874D01*
D02*
G37*
G36*
X839050Y682512D02*
X838463D01*
X837920Y682287D01*
X837504Y681872D01*
X837280Y681329D01*
Y680742D01*
X837504Y680199D01*
X837920Y679784D01*
X838463Y679559D01*
X839050D01*
X839592Y679784D01*
X840008Y680199D01*
X840232Y680742D01*
Y681329D01*
X840008Y681872D01*
X839592Y682287D01*
X839050Y682512D01*
D02*
G37*
G36*
X875664Y681725D02*
X875077D01*
X874534Y681500D01*
X874119Y681085D01*
X873894Y680542D01*
Y679955D01*
X874119Y679412D01*
X874534Y678997D01*
X875077Y678772D01*
X875664D01*
X876207Y678997D01*
X876622Y679412D01*
X876847Y679955D01*
Y680542D01*
X876622Y681085D01*
X876207Y681500D01*
X875664Y681725D01*
D02*
G37*
G36*
X870940D02*
X870352D01*
X869810Y681500D01*
X869394Y681085D01*
X869170Y680542D01*
Y679955D01*
X869394Y679412D01*
X869810Y678997D01*
X870352Y678772D01*
X870940D01*
X871482Y678997D01*
X871898Y679412D01*
X872122Y679955D01*
Y680542D01*
X871898Y681085D01*
X871482Y681500D01*
X870940Y681725D01*
D02*
G37*
G36*
X866215D02*
X865628D01*
X865085Y681500D01*
X864670Y681085D01*
X864445Y680542D01*
Y679955D01*
X864670Y679412D01*
X865085Y678997D01*
X865628Y678772D01*
X866215D01*
X866758Y678997D01*
X867173Y679412D01*
X867398Y679955D01*
Y680542D01*
X867173Y681085D01*
X866758Y681500D01*
X866215Y681725D01*
D02*
G37*
G36*
X861491D02*
X860903D01*
X860361Y681500D01*
X859945Y681085D01*
X859721Y680542D01*
Y679955D01*
X859945Y679412D01*
X860361Y678997D01*
X860903Y678772D01*
X861491D01*
X862033Y678997D01*
X862449Y679412D01*
X862673Y679955D01*
Y680542D01*
X862449Y681085D01*
X862033Y681500D01*
X861491Y681725D01*
D02*
G37*
G36*
X895743Y681283D02*
X895155D01*
X894613Y681059D01*
X894197Y680643D01*
X893973Y680101D01*
Y679513D01*
X894197Y678971D01*
X894613Y678555D01*
X895155Y678331D01*
X895743D01*
X896285Y678555D01*
X896701Y678971D01*
X896925Y679513D01*
Y680101D01*
X896701Y680643D01*
X896285Y681059D01*
X895743Y681283D01*
D02*
G37*
G36*
X839443Y678969D02*
X838856D01*
X838313Y678744D01*
X837898Y678329D01*
X837673Y677786D01*
Y677199D01*
X837898Y676656D01*
X838313Y676241D01*
X838856Y676016D01*
X839443D01*
X839986Y676241D01*
X840401Y676656D01*
X840626Y677199D01*
Y677786D01*
X840401Y678329D01*
X839986Y678744D01*
X839443Y678969D01*
D02*
G37*
G36*
X933144Y681725D02*
X932557D01*
X932014Y681500D01*
X931599Y681085D01*
X931374Y680542D01*
Y679955D01*
X931599Y679412D01*
X932014Y678997D01*
X932332Y678865D01*
Y676233D01*
X932436Y675711D01*
X932732Y675268D01*
X933175Y674972D01*
X933697Y674868D01*
X936925D01*
X937448Y674972D01*
X937891Y675268D01*
X938186Y675711D01*
X938290Y676233D01*
Y679068D01*
X938186Y679590D01*
X937891Y680033D01*
X937448Y680329D01*
X936925Y680432D01*
X934327D01*
Y680542D01*
X934102Y681085D01*
X933687Y681500D01*
X933144Y681725D01*
D02*
G37*
G36*
X921768Y680432D02*
X918540D01*
X918017Y680329D01*
X917575Y680033D01*
X917279Y679590D01*
X917175Y679068D01*
Y676233D01*
X917279Y675711D01*
X917575Y675268D01*
X918017Y674972D01*
X918540Y674868D01*
X921768D01*
X922290Y674972D01*
X922733Y675268D01*
X923029Y675711D01*
X923133Y676233D01*
Y679068D01*
X923029Y679590D01*
X922733Y680033D01*
X922290Y680329D01*
X921768Y680432D01*
D02*
G37*
G36*
X914640Y677788D02*
X914053D01*
X913510Y677563D01*
X913095Y677148D01*
X912870Y676605D01*
Y676018D01*
X913095Y675475D01*
X913510Y675060D01*
X914053Y674835D01*
X914640D01*
X915183Y675060D01*
X915598Y675475D01*
X915823Y676018D01*
Y676605D01*
X915598Y677148D01*
X915183Y677563D01*
X914640Y677788D01*
D02*
G37*
G36*
X909128D02*
X908541D01*
X907999Y677563D01*
X907583Y677148D01*
X907358Y676605D01*
Y676018D01*
X907583Y675475D01*
X907999Y675060D01*
X908541Y674835D01*
X909128D01*
X909671Y675060D01*
X910087Y675475D01*
X910311Y676018D01*
Y676605D01*
X910087Y677148D01*
X909671Y677563D01*
X909128Y677788D01*
D02*
G37*
G36*
X875664Y677000D02*
X875077D01*
X874534Y676776D01*
X874119Y676360D01*
X873894Y675818D01*
Y675230D01*
X874119Y674688D01*
X874534Y674272D01*
X875077Y674048D01*
X875664D01*
X876207Y674272D01*
X876622Y674688D01*
X876847Y675230D01*
Y675818D01*
X876622Y676360D01*
X876207Y676776D01*
X875664Y677000D01*
D02*
G37*
G36*
X870940D02*
X870352D01*
X869810Y676776D01*
X869394Y676360D01*
X869170Y675818D01*
Y675230D01*
X869394Y674688D01*
X869810Y674272D01*
X870352Y674048D01*
X870940D01*
X871482Y674272D01*
X871898Y674688D01*
X872122Y675230D01*
Y675818D01*
X871898Y676360D01*
X871482Y676776D01*
X870940Y677000D01*
D02*
G37*
G36*
X866215D02*
X865628D01*
X865085Y676776D01*
X864670Y676360D01*
X864445Y675818D01*
Y675230D01*
X864670Y674688D01*
X865085Y674272D01*
X865628Y674048D01*
X866215D01*
X866758Y674272D01*
X867173Y674688D01*
X867398Y675230D01*
Y675818D01*
X867173Y676360D01*
X866758Y676776D01*
X866215Y677000D01*
D02*
G37*
G36*
X861491D02*
X860903D01*
X860361Y676776D01*
X859945Y676360D01*
X859721Y675818D01*
Y675230D01*
X859945Y674688D01*
X860361Y674272D01*
X860903Y674048D01*
X861491D01*
X862033Y674272D01*
X862449Y674688D01*
X862673Y675230D01*
Y675818D01*
X862449Y676360D01*
X862033Y676776D01*
X861491Y677000D01*
D02*
G37*
G36*
X892733Y674177D02*
X889898D01*
X889376Y674073D01*
X888933Y673777D01*
X888637Y673334D01*
X888533Y672812D01*
Y669584D01*
X888637Y669061D01*
X888933Y668618D01*
X889376Y668323D01*
X889898Y668219D01*
X892733D01*
X893255Y668323D01*
X893698Y668618D01*
X893993Y669061D01*
X894097Y669584D01*
Y672812D01*
X893993Y673334D01*
X893698Y673777D01*
X893255Y674073D01*
X892733Y674177D01*
D02*
G37*
G36*
X923695Y670701D02*
X923108D01*
X922565Y670476D01*
X922150Y670061D01*
X921925Y669518D01*
Y668931D01*
X922150Y668388D01*
X922565Y667973D01*
X923108Y667748D01*
X923695D01*
X924238Y667973D01*
X924653Y668388D01*
X924878Y668931D01*
Y669518D01*
X924653Y670061D01*
X924238Y670476D01*
X923695Y670701D01*
D02*
G37*
G36*
X919759D02*
X919171D01*
X918629Y670476D01*
X918213Y670061D01*
X917988Y669518D01*
Y668931D01*
X918213Y668388D01*
X918629Y667973D01*
X919171Y667748D01*
X919759D01*
X920301Y667973D01*
X920716Y668388D01*
X920941Y668931D01*
Y669518D01*
X920716Y670061D01*
X920301Y670476D01*
X919759Y670701D01*
D02*
G37*
G36*
X944168Y670307D02*
X943581D01*
X943038Y670083D01*
X942623Y669667D01*
X942398Y669125D01*
Y668537D01*
X942623Y667995D01*
X943038Y667579D01*
X943581Y667355D01*
X944168D01*
X944711Y667579D01*
X945126Y667995D01*
X945351Y668537D01*
Y669125D01*
X945126Y669667D01*
X944711Y670083D01*
X944168Y670307D01*
D02*
G37*
G36*
X931176Y667945D02*
X930588D01*
X930046Y667720D01*
X929630Y667305D01*
X929406Y666762D01*
Y666175D01*
X929630Y665632D01*
X930046Y665217D01*
X930588Y664993D01*
X931176D01*
X931718Y665217D01*
X932134Y665632D01*
X932358Y666175D01*
Y666762D01*
X932134Y667305D01*
X931718Y667720D01*
X931176Y667945D01*
D02*
G37*
G36*
X941806Y667552D02*
X941218D01*
X940676Y667327D01*
X940260Y666911D01*
X940036Y666369D01*
Y665781D01*
X940260Y665239D01*
X940676Y664823D01*
X941218Y664599D01*
X941806D01*
X942348Y664823D01*
X942764Y665239D01*
X942988Y665781D01*
Y666369D01*
X942764Y666911D01*
X942348Y667327D01*
X941806Y667552D01*
D02*
G37*
G36*
X848736Y665078D02*
X845508D01*
X844986Y664974D01*
X844543Y664678D01*
X844247Y664236D01*
X844143Y663713D01*
Y660879D01*
X844247Y660356D01*
X844543Y659914D01*
X844986Y659618D01*
X845508Y659514D01*
X848736D01*
X849259Y659618D01*
X849701Y659914D01*
X849997Y660356D01*
X850101Y660879D01*
Y663713D01*
X849997Y664236D01*
X849701Y664678D01*
X849259Y664974D01*
X848736Y665078D01*
D02*
G37*
G36*
X833579D02*
X830351D01*
X829828Y664974D01*
X829386Y664678D01*
X829090Y664236D01*
X829019Y663879D01*
X828991Y663864D01*
X828403D01*
X827861Y663639D01*
X827446Y663224D01*
X827221Y662681D01*
Y662094D01*
X827446Y661551D01*
X827861Y661136D01*
X828403Y660911D01*
X828986D01*
Y660879D01*
X829090Y660356D01*
X829386Y659914D01*
X829828Y659618D01*
X830351Y659514D01*
X833579D01*
X834101Y659618D01*
X834544Y659914D01*
X834840Y660356D01*
X834944Y660879D01*
Y663713D01*
X834840Y664236D01*
X834544Y664678D01*
X834101Y664974D01*
X833579Y665078D01*
D02*
G37*
G36*
X900073Y662433D02*
X899486D01*
X898944Y662209D01*
X898528Y661793D01*
X898303Y661251D01*
Y660663D01*
X898528Y660121D01*
X898944Y659705D01*
X899486Y659481D01*
X900073D01*
X900616Y659705D01*
X901031Y660121D01*
X901256Y660663D01*
Y661251D01*
X901031Y661793D01*
X900616Y662209D01*
X900073Y662433D01*
D02*
G37*
G36*
X890625Y662040D02*
X890037D01*
X889495Y661815D01*
X889079Y661400D01*
X888855Y660857D01*
Y660270D01*
X889079Y659727D01*
X889380Y659426D01*
X889378Y659191D01*
X889339Y658964D01*
X889293Y658860D01*
X888933Y658619D01*
X888637Y658177D01*
X888533Y657654D01*
Y657337D01*
X887772D01*
X887624Y657484D01*
X887081Y657709D01*
X886494D01*
X885951Y657484D01*
X885536Y657069D01*
X885311Y656526D01*
Y655939D01*
X885536Y655396D01*
X885951Y654981D01*
X886494Y654756D01*
X887081D01*
X887624Y654981D01*
X887772Y655129D01*
X888533D01*
Y654426D01*
X888637Y653904D01*
X888933Y653461D01*
X889376Y653165D01*
X889898Y653061D01*
X892733D01*
X893255Y653165D01*
X893698Y653461D01*
X893993Y653904D01*
X894097Y654426D01*
Y657654D01*
X893993Y658177D01*
X893698Y658619D01*
X893255Y658915D01*
X892733Y659019D01*
X891582D01*
X891375Y659519D01*
X891582Y659727D01*
X891807Y660270D01*
Y660857D01*
X891582Y661400D01*
X891167Y661815D01*
X890625Y662040D01*
D02*
G37*
G36*
X911944Y655623D02*
X911356D01*
X910814Y655399D01*
X910398Y654983D01*
X910174Y654441D01*
Y653853D01*
X910398Y653311D01*
X910814Y652895D01*
X911356Y652671D01*
X911944D01*
X912486Y652895D01*
X912901Y653311D01*
X913126Y653853D01*
Y654441D01*
X912901Y654983D01*
X912486Y655399D01*
X911944Y655623D01*
D02*
G37*
G36*
X928026Y654953D02*
X927439D01*
X926896Y654728D01*
X926481Y654313D01*
X926256Y653770D01*
Y653183D01*
X926481Y652640D01*
X926896Y652225D01*
X927439Y652000D01*
X928026D01*
X928569Y652225D01*
X928984Y652640D01*
X929209Y653183D01*
Y653770D01*
X928984Y654313D01*
X928569Y654728D01*
X928026Y654953D01*
D02*
G37*
G36*
X942199Y654166D02*
X941612D01*
X941069Y653941D01*
X940654Y653526D01*
X940429Y652983D01*
Y652396D01*
X940654Y651853D01*
X941069Y651438D01*
X941612Y651213D01*
X942199D01*
X942742Y651438D01*
X943157Y651853D01*
X943382Y652396D01*
Y652983D01*
X943157Y653526D01*
X942742Y653941D01*
X942199Y654166D01*
D02*
G37*
G36*
X903844Y652197D02*
X903257D01*
X902714Y651972D01*
X902299Y651557D01*
X902074Y651015D01*
Y650427D01*
X902299Y649885D01*
X902714Y649469D01*
X903257Y649244D01*
X903844D01*
X904387Y649469D01*
X904802Y649885D01*
X905027Y650427D01*
Y651015D01*
X904802Y651557D01*
X904387Y651972D01*
X903844Y652197D01*
D02*
G37*
G36*
X917901Y650905D02*
X917313D01*
X916771Y650680D01*
X916356Y650265D01*
X916131Y649722D01*
Y649135D01*
X916356Y648593D01*
X916771Y648177D01*
X917313Y647953D01*
X917901D01*
X918443Y648177D01*
X918859Y648593D01*
X919083Y649135D01*
Y649722D01*
X918859Y650265D01*
X918443Y650680D01*
X917901Y650905D01*
D02*
G37*
G36*
X922121Y650622D02*
X921533D01*
X920991Y650398D01*
X920575Y649982D01*
X920351Y649440D01*
Y648852D01*
X920575Y648310D01*
X920991Y647894D01*
X921533Y647670D01*
X922121D01*
X922663Y647894D01*
X923079Y648310D01*
X923303Y648852D01*
Y649440D01*
X923079Y649982D01*
X922663Y650398D01*
X922121Y650622D01*
D02*
G37*
G36*
X833579Y647736D02*
X830351D01*
X829828Y647632D01*
X829386Y647336D01*
X829090Y646893D01*
X828986Y646371D01*
Y643537D01*
X829090Y643014D01*
X829386Y642571D01*
X829828Y642276D01*
X830351Y642172D01*
X833579D01*
X834101Y642276D01*
X834544Y642571D01*
X834840Y643014D01*
X834944Y643537D01*
Y646371D01*
X834840Y646893D01*
X834544Y647336D01*
X834101Y647632D01*
X833579Y647736D01*
D02*
G37*
G36*
X932770Y650636D02*
X932183D01*
X931640Y650412D01*
X931225Y649996D01*
X931000Y649454D01*
Y648866D01*
X931225Y648324D01*
X931640Y647908D01*
X932183Y647684D01*
X932592D01*
X932875Y647263D01*
X932885Y647222D01*
X932732Y646992D01*
X932628Y646469D01*
Y643241D01*
X932732Y642719D01*
X933027Y642276D01*
X933470Y641980D01*
X933992Y641876D01*
X936827D01*
X937349Y641980D01*
X937792Y642276D01*
X938088Y642719D01*
X938192Y643241D01*
Y646469D01*
X938088Y646992D01*
X937792Y647435D01*
X937349Y647730D01*
X936827Y647834D01*
X933992D01*
X933934Y647823D01*
X933688Y648284D01*
X933728Y648324D01*
X933953Y648866D01*
Y649454D01*
X933728Y649996D01*
X933313Y650412D01*
X932770Y650636D01*
D02*
G37*
G36*
X848736Y647736D02*
X845508D01*
X844986Y647632D01*
X844543Y647336D01*
X844247Y646893D01*
X844143Y646371D01*
Y643537D01*
X844247Y643014D01*
X844543Y642571D01*
X844986Y642276D01*
X845126Y642248D01*
X845154Y642196D01*
Y641608D01*
X845378Y641066D01*
X845794Y640650D01*
X846336Y640425D01*
X846924D01*
X847466Y640650D01*
X847882Y641066D01*
X848106Y641608D01*
Y642172D01*
X848736D01*
X849259Y642276D01*
X849701Y642571D01*
X849997Y643014D01*
X850101Y643537D01*
Y646371D01*
X849997Y646893D01*
X849701Y647336D01*
X849259Y647632D01*
X848736Y647736D01*
D02*
G37*
G36*
X916609Y642748D02*
X916022D01*
X915479Y642524D01*
X915064Y642108D01*
X914839Y641566D01*
Y640978D01*
X915064Y640436D01*
X915479Y640020D01*
X916022Y639796D01*
X916609D01*
X917152Y640020D01*
X917567Y640436D01*
X917791Y640978D01*
Y641566D01*
X917567Y642108D01*
X917152Y642524D01*
X916609Y642748D01*
D02*
G37*
G36*
X896924D02*
X896336D01*
X895794Y642524D01*
X895378Y642108D01*
X895154Y641566D01*
Y640978D01*
X895378Y640436D01*
X895794Y640020D01*
X896336Y639796D01*
X896924D01*
X897466Y640020D01*
X897882Y640436D01*
X898106Y640978D01*
Y641566D01*
X897882Y642108D01*
X897466Y642524D01*
X896924Y642748D01*
D02*
G37*
G36*
X837475Y642355D02*
X836888D01*
X836345Y642130D01*
X835930Y641715D01*
X835705Y641172D01*
Y640585D01*
X835930Y640042D01*
X836345Y639627D01*
X836888Y639402D01*
X837475D01*
X838018Y639627D01*
X838433Y640042D01*
X838658Y640585D01*
Y641172D01*
X838433Y641715D01*
X838018Y642130D01*
X837475Y642355D01*
D02*
G37*
G36*
X893518Y644500D02*
X892931D01*
X892388Y644276D01*
X891973Y643860D01*
X891748Y643318D01*
Y642730D01*
X891764Y642692D01*
X891657Y642584D01*
X891417Y642226D01*
X891333Y641804D01*
Y641480D01*
X889898D01*
X889376Y641376D01*
X888933Y641081D01*
X888637Y640638D01*
X888533Y640115D01*
Y636887D01*
X888637Y636365D01*
X888933Y635922D01*
X889376Y635626D01*
X889898Y635522D01*
X892733D01*
X893255Y635626D01*
X893698Y635922D01*
X893993Y636365D01*
X894097Y636887D01*
Y640115D01*
X893993Y640638D01*
X893698Y641081D01*
X893799Y641605D01*
X893901Y641706D01*
X894061Y641772D01*
X894476Y642188D01*
X894701Y642730D01*
Y643318D01*
X894476Y643860D01*
X894061Y644276D01*
X893518Y644500D01*
D02*
G37*
G36*
X906373Y638418D02*
X905785D01*
X905243Y638193D01*
X904827Y637778D01*
X904603Y637235D01*
Y636648D01*
X904827Y636105D01*
X905243Y635690D01*
X905785Y635465D01*
X906373D01*
X906915Y635690D01*
X907331Y636105D01*
X907555Y636648D01*
Y637235D01*
X907331Y637778D01*
X906915Y638193D01*
X906373Y638418D01*
D02*
G37*
G36*
X928814Y636843D02*
X928226D01*
X927684Y636618D01*
X927268Y636203D01*
X927044Y635660D01*
Y635073D01*
X927268Y634530D01*
X927684Y634115D01*
X928226Y633890D01*
X928814D01*
X929356Y634115D01*
X929772Y634530D01*
X929996Y635073D01*
Y635660D01*
X929772Y636203D01*
X929356Y636618D01*
X928814Y636843D01*
D02*
G37*
G36*
X916609D02*
X916022D01*
X915479Y636618D01*
X915064Y636203D01*
X914839Y635660D01*
Y635073D01*
X915064Y634530D01*
X915479Y634115D01*
X916022Y633890D01*
X916609D01*
X917152Y634115D01*
X917567Y634530D01*
X917791Y635073D01*
Y635660D01*
X917567Y636203D01*
X917152Y636618D01*
X916609Y636843D01*
D02*
G37*
G36*
X933538Y635662D02*
X932951D01*
X932408Y635437D01*
X931993Y635022D01*
X931768Y634479D01*
Y633892D01*
X931993Y633349D01*
X932408Y632934D01*
X932841Y632754D01*
X932949Y632479D01*
X932970Y632393D01*
X932982Y632209D01*
X932732Y631834D01*
X932628Y631312D01*
Y628084D01*
X932732Y627561D01*
X932866Y627360D01*
X932508Y627012D01*
X931281Y627831D01*
X929917Y628396D01*
X928470Y628684D01*
X926995D01*
X925548Y628396D01*
X924184Y627831D01*
X922958Y627012D01*
X921914Y625968D01*
X921094Y624741D01*
X920530Y623378D01*
X920242Y621931D01*
Y620456D01*
X920530Y619008D01*
X921094Y617645D01*
X921914Y616418D01*
X922958Y615375D01*
X924184Y614555D01*
X925548Y613990D01*
X926995Y613703D01*
X928470D01*
X929917Y613990D01*
X931281Y614555D01*
X932508Y615375D01*
X933551Y616418D01*
X934371Y617645D01*
X934935Y619008D01*
X935223Y620456D01*
Y621931D01*
X934935Y623378D01*
X934371Y624741D01*
X933551Y625968D01*
X932950Y626569D01*
X933269Y626957D01*
X933470Y626823D01*
X933992Y626719D01*
X936827D01*
X937349Y626823D01*
X937792Y627119D01*
X938088Y627561D01*
X938192Y628084D01*
Y628378D01*
X938656D01*
X939199Y628603D01*
X939614Y629018D01*
X939839Y629561D01*
Y630148D01*
X939614Y630691D01*
X939199Y631106D01*
X938656Y631331D01*
X938188D01*
X938088Y631834D01*
X937792Y632277D01*
X937349Y632573D01*
X936827Y632677D01*
X934531D01*
X934324Y633177D01*
X934496Y633349D01*
X934721Y633892D01*
Y634479D01*
X934496Y635022D01*
X934081Y635437D01*
X933538Y635662D01*
D02*
G37*
G36*
X900646Y634997D02*
X899926Y634902D01*
X899256Y634624D01*
X898680Y634182D01*
X898239Y633607D01*
X897961Y632936D01*
X897866Y632217D01*
Y629461D01*
X897961Y628742D01*
X898239Y628071D01*
X898680Y627495D01*
X899256Y627054D01*
X899926Y626776D01*
X900646Y626681D01*
X901365Y626776D01*
X902036Y627054D01*
X902611Y627495D01*
X903053Y628071D01*
X903331Y628742D01*
X903426Y629461D01*
Y632217D01*
X903331Y632936D01*
X903053Y633607D01*
X902611Y634182D01*
X902036Y634624D01*
X901365Y634902D01*
X900646Y634997D01*
D02*
G37*
G36*
X866630D02*
X865911Y634902D01*
X865240Y634624D01*
X864665Y634182D01*
X864223Y633607D01*
X863945Y632936D01*
X863850Y632217D01*
Y629461D01*
X863945Y628742D01*
X864223Y628071D01*
X864665Y627495D01*
X865240Y627054D01*
X865911Y626776D01*
X866630Y626681D01*
X867350Y626776D01*
X868020Y627054D01*
X868596Y627495D01*
X869037Y628071D01*
X869315Y628742D01*
X869410Y629461D01*
Y632217D01*
X869315Y632936D01*
X869037Y633607D01*
X868596Y634182D01*
X868020Y634624D01*
X867350Y634902D01*
X866630Y634997D01*
D02*
G37*
G36*
X886294Y627788D02*
X885707D01*
X885164Y627563D01*
X884749Y627148D01*
X884524Y626605D01*
Y626018D01*
X884749Y625475D01*
X885164Y625060D01*
X885707Y624835D01*
X886294D01*
X886837Y625060D01*
X887252Y625475D01*
X887477Y626018D01*
Y626605D01*
X887252Y627148D01*
X886837Y627563D01*
X886294Y627788D01*
D02*
G37*
G36*
X881569D02*
X880982D01*
X880439Y627563D01*
X880024Y627148D01*
X879799Y626605D01*
Y626018D01*
X880024Y625475D01*
X880439Y625060D01*
X880982Y624835D01*
X881569D01*
X882112Y625060D01*
X882527Y625475D01*
X882752Y626018D01*
Y626605D01*
X882527Y627148D01*
X882112Y627563D01*
X881569Y627788D01*
D02*
G37*
G36*
X863066Y626607D02*
X862478D01*
X861936Y626382D01*
X861520Y625967D01*
X861296Y625424D01*
Y624837D01*
X861520Y624294D01*
X861936Y623879D01*
X862478Y623654D01*
X863066D01*
X863608Y623879D01*
X864023Y624294D01*
X864248Y624837D01*
Y625424D01*
X864023Y625967D01*
X863608Y626382D01*
X863066Y626607D01*
D02*
G37*
G36*
X886294Y623457D02*
X885707D01*
X885164Y623232D01*
X884749Y622817D01*
X884524Y622274D01*
Y621687D01*
X884749Y621144D01*
X885164Y620729D01*
X885707Y620504D01*
X886294D01*
X886837Y620729D01*
X887252Y621144D01*
X887477Y621687D01*
Y622274D01*
X887252Y622817D01*
X886837Y623232D01*
X886294Y623457D01*
D02*
G37*
G36*
X881569D02*
X880982D01*
X880439Y623232D01*
X880024Y622817D01*
X879799Y622274D01*
Y621687D01*
X880024Y621144D01*
X880439Y620729D01*
X880982Y620504D01*
X881569D01*
X882112Y620729D01*
X882527Y621144D01*
X882752Y621687D01*
Y622274D01*
X882527Y622817D01*
X882112Y623232D01*
X881569Y623457D01*
D02*
G37*
G36*
X892733Y626323D02*
X889898D01*
X889376Y626219D01*
X888933Y625923D01*
X888637Y625480D01*
X888533Y624958D01*
Y621730D01*
X888637Y621207D01*
X888933Y620765D01*
X889376Y620469D01*
X889898Y620365D01*
X892733D01*
X893255Y620469D01*
X893698Y620765D01*
X893993Y621207D01*
X894097Y621730D01*
Y624958D01*
X893993Y625480D01*
X893698Y625923D01*
X893255Y626219D01*
X892733Y626323D01*
D02*
G37*
G36*
X863066Y622670D02*
X862478D01*
X861936Y622445D01*
X861520Y622029D01*
X861296Y621487D01*
Y620900D01*
X861520Y620357D01*
X861936Y619942D01*
X862478Y619717D01*
X863066D01*
X863608Y619942D01*
X864023Y620357D01*
X864248Y620900D01*
Y621487D01*
X864023Y622029D01*
X863608Y622445D01*
X863066Y622670D01*
D02*
G37*
G36*
X895743Y618733D02*
X895155D01*
X894613Y618508D01*
X894197Y618092D01*
X893973Y617550D01*
Y616963D01*
X894197Y616420D01*
X894613Y616005D01*
X895155Y615780D01*
X895743D01*
X896285Y616005D01*
X896701Y616420D01*
X896925Y616963D01*
Y617550D01*
X896701Y618092D01*
X896285Y618508D01*
X895743Y618733D01*
D02*
G37*
G36*
X891018D02*
X890431D01*
X889888Y618508D01*
X889473Y618092D01*
X889248Y617550D01*
Y616963D01*
X889473Y616420D01*
X889888Y616005D01*
X890431Y615780D01*
X891018D01*
X891561Y616005D01*
X891976Y616420D01*
X892201Y616963D01*
Y617550D01*
X891976Y618092D01*
X891561Y618508D01*
X891018Y618733D01*
D02*
G37*
G36*
X886294D02*
X885707D01*
X885164Y618508D01*
X884749Y618092D01*
X884524Y617550D01*
Y616963D01*
X884749Y616420D01*
X885164Y616005D01*
X885707Y615780D01*
X886294D01*
X886837Y616005D01*
X887252Y616420D01*
X887477Y616963D01*
Y617550D01*
X887252Y618092D01*
X886837Y618508D01*
X886294Y618733D01*
D02*
G37*
G36*
X881569D02*
X880982D01*
X880439Y618508D01*
X880024Y618092D01*
X879799Y617550D01*
Y616963D01*
X880024Y616420D01*
X880439Y616005D01*
X880982Y615780D01*
X881569D01*
X882112Y616005D01*
X882527Y616420D01*
X882752Y616963D01*
Y617550D01*
X882527Y618092D01*
X882112Y618508D01*
X881569Y618733D01*
D02*
G37*
G36*
X876845D02*
X876258D01*
X875715Y618508D01*
X875300Y618092D01*
X875075Y617550D01*
Y616963D01*
X875300Y616420D01*
X875715Y616005D01*
X876258Y615780D01*
X876845D01*
X877388Y616005D01*
X877803Y616420D01*
X878028Y616963D01*
Y617550D01*
X877803Y618092D01*
X877388Y618508D01*
X876845Y618733D01*
D02*
G37*
G36*
X872121D02*
X871533D01*
X870991Y618508D01*
X870575Y618092D01*
X870351Y617550D01*
Y616963D01*
X870575Y616420D01*
X870991Y616005D01*
X871533Y615780D01*
X872121D01*
X872663Y616005D01*
X873079Y616420D01*
X873303Y616963D01*
Y617550D01*
X873079Y618092D01*
X872663Y618508D01*
X872121Y618733D01*
D02*
G37*
G36*
X911985Y624380D02*
X910854Y624231D01*
X909800Y623795D01*
X908896Y623101D01*
X908202Y622196D01*
X907765Y621143D01*
X907616Y620012D01*
X907765Y618882D01*
X908202Y617828D01*
X908896Y616923D01*
X909800Y616229D01*
X910854Y615793D01*
X911985Y615644D01*
X913115Y615793D01*
X914168Y616229D01*
X915073Y616923D01*
X915767Y617828D01*
X916204Y618882D01*
X916352Y620012D01*
X916204Y621143D01*
X915767Y622196D01*
X915073Y623101D01*
X914168Y623795D01*
X913115Y624231D01*
X911985Y624380D01*
D02*
G37*
G36*
X840281Y628684D02*
X838806D01*
X837359Y628396D01*
X835995Y627831D01*
X834768Y627012D01*
X833725Y625968D01*
X832905Y624741D01*
X832341Y623378D01*
X832053Y621931D01*
Y620456D01*
X832341Y619008D01*
X832905Y617645D01*
X833725Y616418D01*
X834768Y615375D01*
X835995Y614555D01*
X837359Y613990D01*
X838806Y613703D01*
X840281D01*
X841728Y613990D01*
X843092Y614555D01*
X844318Y615375D01*
X845362Y616418D01*
X846182Y617645D01*
X846746Y619008D01*
X847034Y620456D01*
Y621931D01*
X846746Y623378D01*
X846182Y624741D01*
X845362Y625968D01*
X844318Y627012D01*
X843092Y627831D01*
X841728Y628396D01*
X840281Y628684D01*
D02*
G37*
G36*
X900646Y620036D02*
X899926Y619941D01*
X899256Y619663D01*
X898680Y619222D01*
X898239Y618646D01*
X897961Y617976D01*
X897866Y617256D01*
Y614500D01*
X897961Y613781D01*
X898239Y613110D01*
X898680Y612535D01*
X899256Y612093D01*
X899926Y611815D01*
X900646Y611721D01*
X901365Y611815D01*
X902036Y612093D01*
X902611Y612535D01*
X903053Y613110D01*
X903331Y613781D01*
X903426Y614500D01*
Y617256D01*
X903331Y617976D01*
X903053Y618646D01*
X902611Y619222D01*
X902036Y619663D01*
X901365Y619941D01*
X900646Y620036D01*
D02*
G37*
G36*
X866630D02*
X865911Y619941D01*
X865240Y619663D01*
X864665Y619222D01*
X864223Y618646D01*
X863945Y617976D01*
X863850Y617256D01*
Y614500D01*
X863945Y613781D01*
X864223Y613110D01*
X864665Y612535D01*
X865240Y612093D01*
X865911Y611815D01*
X866630Y611721D01*
X867350Y611815D01*
X868020Y612093D01*
X868596Y612535D01*
X869037Y613110D01*
X869315Y613781D01*
X869410Y614500D01*
Y617256D01*
X869315Y617976D01*
X869037Y618646D01*
X868596Y619222D01*
X868020Y619663D01*
X867350Y619941D01*
X866630Y620036D01*
D02*
G37*
G36*
X895743Y614008D02*
X895155D01*
X894613Y613783D01*
X894197Y613368D01*
X893973Y612825D01*
Y612238D01*
X894197Y611695D01*
X894613Y611280D01*
X895155Y611056D01*
X895743D01*
X896285Y611280D01*
X896701Y611695D01*
X896925Y612238D01*
Y612825D01*
X896701Y613368D01*
X896285Y613783D01*
X895743Y614008D01*
D02*
G37*
G36*
X891018D02*
X890431D01*
X889888Y613783D01*
X889473Y613368D01*
X889248Y612825D01*
Y612238D01*
X889473Y611695D01*
X889888Y611280D01*
X890431Y611056D01*
X891018D01*
X891561Y611280D01*
X891976Y611695D01*
X892201Y612238D01*
Y612825D01*
X891976Y613368D01*
X891561Y613783D01*
X891018Y614008D01*
D02*
G37*
G36*
X886294D02*
X885707D01*
X885164Y613783D01*
X884749Y613368D01*
X884524Y612825D01*
Y612238D01*
X884749Y611695D01*
X885164Y611280D01*
X885707Y611056D01*
X886294D01*
X886837Y611280D01*
X887252Y611695D01*
X887477Y612238D01*
Y612825D01*
X887252Y613368D01*
X886837Y613783D01*
X886294Y614008D01*
D02*
G37*
G36*
X881569D02*
X880982D01*
X880439Y613783D01*
X880024Y613368D01*
X879799Y612825D01*
Y612238D01*
X880024Y611695D01*
X880439Y611280D01*
X880982Y611056D01*
X881569D01*
X882112Y611280D01*
X882527Y611695D01*
X882752Y612238D01*
Y612825D01*
X882527Y613368D01*
X882112Y613783D01*
X881569Y614008D01*
D02*
G37*
G36*
X876845D02*
X876258D01*
X875715Y613783D01*
X875300Y613368D01*
X875075Y612825D01*
Y612238D01*
X875300Y611695D01*
X875715Y611280D01*
X876258Y611056D01*
X876845D01*
X877388Y611280D01*
X877803Y611695D01*
X878028Y612238D01*
Y612825D01*
X877803Y613368D01*
X877388Y613783D01*
X876845Y614008D01*
D02*
G37*
G36*
X872121D02*
X871533D01*
X870991Y613783D01*
X870575Y613368D01*
X870351Y612825D01*
Y612238D01*
X870575Y611695D01*
X870991Y611280D01*
X871533Y611056D01*
X872121D01*
X872663Y611280D01*
X873079Y611695D01*
X873303Y612238D01*
Y612825D01*
X873079Y613368D01*
X872663Y613783D01*
X872121Y614008D01*
D02*
G37*
%LPD*%
G36*
X897418Y914894D02*
X897024Y914500D01*
Y912969D01*
X897005Y912876D01*
Y910416D01*
X896571Y910170D01*
X894327D01*
X893893Y910416D01*
Y912876D01*
X893874Y912969D01*
Y913319D01*
X891906Y915288D01*
Y919618D01*
X897418D01*
Y914894D01*
D02*
G37*
D11*
X883638Y1012138D02*
Y1020800D01*
X902496Y914540D02*
Y916823D01*
X902457Y916862D02*
X902496Y916823D01*
Y914540D02*
X902536Y914500D01*
X902339Y914144D02*
X902536Y914340D01*
X902339Y911646D02*
Y914144D01*
X902536Y914340D02*
Y914500D01*
X900370Y909345D02*
X900567Y909148D01*
X900370Y909345D02*
Y911646D01*
X900567Y908988D02*
Y909148D01*
X893480Y927000D02*
Y928988D01*
X884504Y1007020D02*
X886394Y1008910D01*
X884425Y1007020D02*
X884504D01*
D12*
X897500Y932607D02*
X897811Y932296D01*
X897500Y932607D02*
Y934807D01*
X830102Y1056721D02*
Y1052785D01*
X832726D01*
X834038D02*
X835350D01*
X834694D01*
Y1056721D01*
X834038Y1056065D01*
X841254Y1054753D02*
X843878D01*
X849125Y1052785D02*
Y1056721D01*
X851093D01*
X851749Y1056065D01*
Y1054753D01*
X851093Y1054097D01*
X849125D01*
X853061Y1052785D02*
Y1056721D01*
X855029D01*
X855685Y1056065D01*
Y1054753D01*
X855029Y1054097D01*
X853061D01*
X854373D02*
X855685Y1052785D01*
X856997Y1056721D02*
X858309D01*
X857653D01*
Y1052785D01*
X856997D01*
X858309D01*
X860276D02*
Y1056721D01*
X861588Y1055409D01*
X862900Y1056721D01*
Y1052785D01*
X864212D02*
Y1055409D01*
X865524Y1056721D01*
X866836Y1055409D01*
Y1052785D01*
Y1054753D01*
X864212D01*
X868148Y1052785D02*
Y1056721D01*
X870116D01*
X870772Y1056065D01*
Y1054753D01*
X870116Y1054097D01*
X868148D01*
X869460D02*
X870772Y1052785D01*
X872084Y1056721D02*
Y1056065D01*
X873396Y1054753D01*
X874707Y1056065D01*
Y1056721D01*
X873396Y1054753D02*
Y1052785D01*
X882579Y1056065D02*
X881923Y1056721D01*
X880611D01*
X879955Y1056065D01*
Y1055409D01*
X880611Y1054753D01*
X881923D01*
X882579Y1054097D01*
Y1053441D01*
X881923Y1052785D01*
X880611D01*
X879955Y1053441D01*
X883891Y1056721D02*
X885203D01*
X884547D01*
Y1052785D01*
X883891D01*
X885203D01*
X887171Y1056721D02*
Y1052785D01*
X889139D01*
X889794Y1053441D01*
Y1056065D01*
X889139Y1056721D01*
X887171D01*
X893730D02*
X891106D01*
Y1052785D01*
X893730D01*
X891106Y1054753D02*
X892418D01*
D13*
X887969Y749933D02*
X891263D01*
X889347Y932492D02*
Y934382D01*
X889150Y932296D02*
X889347Y932492D01*
Y934382D02*
X889544Y934579D01*
X893480Y932296D02*
Y934579D01*
X879307Y987020D02*
X879465Y987177D01*
X882457Y914107D02*
Y914303D01*
X882654Y911646D02*
Y914107D01*
X864937Y911646D02*
Y914500D01*
Y911646D02*
X864937Y911646D01*
X864937Y914500D02*
X864937Y914500D01*
X886591Y911646D02*
Y914303D01*
Y911646D02*
X886591Y911646D01*
X886591Y914303D02*
X886591Y914303D01*
X888529Y908896D02*
Y911971D01*
X888500Y908866D02*
X888529Y908896D01*
X882457Y914303D02*
X882654Y914107D01*
X884721Y909098D02*
Y911547D01*
X884622Y911646D02*
X884721Y911547D01*
Y909098D02*
X884819Y909000D01*
X880784Y909031D02*
Y911547D01*
X880685Y911646D02*
X880784Y911547D01*
Y909031D02*
X880882Y908933D01*
X904111Y987414D02*
Y990485D01*
Y987414D02*
X904504Y987020D01*
X879465Y987177D02*
Y988772D01*
X879307Y988929D02*
Y989072D01*
Y988929D02*
X879465Y988772D01*
X878126Y990253D02*
X879307Y989072D01*
X878126Y990253D02*
Y995839D01*
X898205Y1002763D02*
Y1003083D01*
X897811Y1002370D02*
X898205Y1002763D01*
X897811Y995839D02*
Y1002370D01*
X891906Y999304D02*
Y1001976D01*
X891118Y1002763D02*
X891906Y1001976D01*
X891118Y1002763D02*
Y1003083D01*
X893874Y995839D02*
Y999304D01*
Y1003083D01*
X891906Y995839D02*
Y999304D01*
X886788Y656233D02*
X891217D01*
X891263Y749933D02*
X891315Y749985D01*
X852536Y777492D02*
X852929Y777099D01*
Y774736D02*
Y777099D01*
X847221Y727296D02*
X849386Y725130D01*
X847221Y727296D02*
Y727788D01*
X847122Y710366D02*
X847287D01*
X849780Y707874D01*
Y707807D02*
Y707874D01*
X891217Y656233D02*
X891315Y656134D01*
X891492Y721665D02*
X894481D01*
X891315Y721489D02*
X891492Y721665D01*
X935410Y629756D02*
X935508Y629855D01*
X938362D01*
X937181Y781823D02*
X940100D01*
X940331Y781592D01*
X891020Y798777D02*
X891315Y799073D01*
X888658Y798777D02*
X891020D01*
X828697Y662388D02*
X831912D01*
X831965Y662335D01*
X826945Y794028D02*
Y796750D01*
X827044Y796848D01*
X846630Y641902D02*
Y644520D01*
X847122Y645012D01*
X932851Y679985D02*
Y680248D01*
Y679985D02*
X935146Y677689D01*
X935311D01*
X935410Y727788D02*
X936788Y726410D01*
Y723555D02*
Y726410D01*
X935410Y695111D02*
X936000Y694520D01*
Y692059D02*
Y694520D01*
X915331Y778068D02*
X917270Y776129D01*
Y775750D02*
X917496Y775524D01*
X915331Y778068D02*
Y778297D01*
X917270Y775750D02*
Y776129D01*
X888509Y687729D02*
X890232D01*
X891315Y688811D01*
X892437Y641804D02*
X893225Y642591D01*
X892437Y639737D02*
Y641804D01*
X893225Y642591D02*
Y643024D01*
X891315Y638615D02*
X892437Y639737D01*
X899780Y995839D02*
Y999933D01*
X899878Y1000032D02*
X902044D01*
X902142Y999933D01*
X899780D02*
X899878Y1000032D01*
X897811Y990017D02*
Y995839D01*
X878124Y995841D02*
Y999301D01*
X878126Y999304D01*
X878126Y999304D02*
Y1003083D01*
X874189Y995839D02*
Y1002370D01*
X873796Y1002763D02*
X874189Y1002370D01*
X874189Y989303D02*
Y995839D01*
Y987020D02*
Y989303D01*
X873796Y1002763D02*
Y1003083D01*
X872221Y992078D02*
Y999304D01*
Y1001341D01*
X870872Y990729D02*
X872221Y992078D01*
X870646Y1002916D02*
X872221Y1001341D01*
X898205Y987020D02*
Y989303D01*
X901355Y987020D02*
X904111D01*
X900961D02*
X901355D01*
X870646Y1002916D02*
Y1003083D01*
X870872Y989472D02*
X871040Y989303D01*
X870872Y989472D02*
Y990729D01*
X871040Y987020D02*
Y989303D01*
X890331Y987020D02*
Y989303D01*
Y989623D02*
X890796Y990088D01*
Y990162D01*
X890331Y989303D02*
Y989623D01*
X890796Y990162D02*
X891906Y991272D01*
Y995839D01*
X893480Y987020D02*
X893677Y987217D01*
X893874Y989303D02*
Y995839D01*
X893677Y987217D02*
Y989107D01*
X893874Y989303D01*
X899780Y993884D02*
Y995839D01*
X900961Y987020D02*
Y992702D01*
X899780Y993884D02*
X900961Y992702D01*
D15*
X891315Y1016469D02*
D03*
X886197D02*
D03*
X875961D02*
D03*
X881079D02*
D03*
X881079Y1020800D02*
D03*
X875961D02*
D03*
X886197D02*
D03*
X891315D02*
D03*
D16*
X905764Y916862D02*
D03*
X902457D02*
D03*
X879622Y986941D02*
D03*
X894740Y1008988D02*
D03*
Y1012138D02*
D03*
X899465Y916862D02*
D03*
X889859D02*
D03*
X891433Y1008988D02*
D03*
X882929Y986941D02*
D03*
X891433Y1012138D02*
D03*
X893166Y916862D02*
D03*
X896158D02*
D03*
D17*
X889150Y928988D02*
D03*
Y932296D02*
D03*
X904504Y983713D02*
D03*
Y987020D02*
D03*
X886394Y1012217D02*
D03*
Y1008910D02*
D03*
X897811Y932296D02*
D03*
X893480Y987020D02*
D03*
X898205D02*
D03*
X871040D02*
D03*
X874189D02*
D03*
X890331D02*
D03*
X901355D02*
D03*
X911107Y907886D02*
D03*
X893480Y928988D02*
D03*
X897811D02*
D03*
X911107Y904579D02*
D03*
X874189Y983713D02*
D03*
X871040D02*
D03*
X890331D02*
D03*
X901355D02*
D03*
X898205D02*
D03*
X893480D02*
D03*
Y932296D02*
D03*
D18*
X876748Y911646D02*
D03*
X874780D02*
D03*
X870843D02*
D03*
X864937D02*
D03*
X868874D02*
D03*
X880685Y911646D02*
D03*
X882654Y911646D02*
D03*
X884622D02*
D03*
X886591Y911646D02*
D03*
X888559D02*
D03*
X892496Y911646D02*
D03*
X900370Y911646D02*
D03*
X902339Y911646D02*
D03*
X896433Y911646D02*
D03*
X894465D02*
D03*
X862969Y911646D02*
D03*
X866906D02*
D03*
X872811D02*
D03*
X878717Y911646D02*
D03*
X890528Y911646D02*
D03*
X898402Y911646D02*
D03*
X904307Y911646D02*
D03*
D19*
X859859Y901213D02*
D03*
X907417D02*
D03*
D20*
X831965Y644954D02*
D03*
X847122D02*
D03*
X831965Y629600D02*
D03*
X847122D02*
D03*
X920154Y662296D02*
D03*
X935311D02*
D03*
X867201Y793553D02*
D03*
X852044D02*
D03*
X827044Y781494D02*
D03*
X842201D02*
D03*
X831965Y694992D02*
D03*
X847122D02*
D03*
Y677650D02*
D03*
X831965D02*
D03*
X827044Y796848D02*
D03*
X842201D02*
D03*
X852044Y778199D02*
D03*
X867201D02*
D03*
X831965Y662296D02*
D03*
X847122D02*
D03*
Y710347D02*
D03*
X831965D02*
D03*
X935311Y677650D02*
D03*
X920154D02*
D03*
D21*
X893874Y999304D02*
D03*
Y995839D02*
D03*
X897811Y999304D02*
D03*
Y995839D02*
D03*
X872221Y995839D02*
D03*
Y999304D02*
D03*
X874189D02*
D03*
Y995839D02*
D03*
X891906Y999304D02*
D03*
Y995839D02*
D03*
X878126Y995839D02*
D03*
Y999304D02*
D03*
X899780Y999304D02*
D03*
Y995839D02*
D03*
X895843Y999304D02*
D03*
Y995839D02*
D03*
X876158Y995839D02*
D03*
Y999304D02*
D03*
X880095Y995839D02*
D03*
Y999304D02*
D03*
D22*
X924977Y796750D02*
D03*
X920055Y742945D02*
D03*
X920055Y695091D02*
D03*
X924977Y781592D02*
D03*
X920055Y727787D02*
D03*
X899977Y793455D02*
D03*
X920055Y710248D02*
D03*
X920055Y644855D02*
D03*
Y629698D02*
D03*
X899977Y778297D02*
D03*
X875961Y814230D02*
D03*
Y765143D02*
D03*
Y736591D02*
D03*
Y799073D02*
D03*
Y749985D02*
D03*
Y721433D02*
D03*
X831866Y742945D02*
D03*
Y727787D02*
D03*
X875961Y703894D02*
D03*
Y688737D02*
D03*
Y656040D02*
D03*
Y671198D02*
D03*
Y623344D02*
D03*
Y638501D02*
D03*
X940331Y796750D02*
D03*
Y781592D02*
D03*
X935410Y710248D02*
D03*
Y695091D02*
D03*
X915331Y778297D02*
D03*
Y793455D02*
D03*
X891315Y799073D02*
D03*
Y814230D02*
D03*
Y749985D02*
D03*
Y765143D02*
D03*
X847221Y727787D02*
D03*
Y742945D02*
D03*
X891315Y721433D02*
D03*
Y736591D02*
D03*
Y688737D02*
D03*
Y703894D02*
D03*
X935410Y727787D02*
D03*
Y742945D02*
D03*
Y629698D02*
D03*
Y644855D02*
D03*
X891315Y656040D02*
D03*
Y671198D02*
D03*
Y623344D02*
D03*
Y638501D02*
D03*
D35*
X914347Y918831D02*
D03*
D36*
X911985Y620012D02*
D03*
X908835Y1007020D02*
D03*
X837969Y837729D02*
D03*
D37*
X914347Y918831D02*
X917024D01*
X897418Y1016469D02*
X899780Y1014107D01*
X891709Y1016469D02*
X897418D01*
X910415Y904717D02*
X910970D01*
X907654Y905016D02*
X910116D01*
X910970Y904717D02*
X911107Y904579D01*
X910116Y905016D02*
X910415Y904717D01*
X891709Y1020800D02*
X897847D01*
X900961Y1017650D02*
Y1017685D01*
X897847Y1020800D02*
X900961Y1017685D01*
X901217Y983575D02*
X901355Y983713D01*
X899930Y981974D02*
X901217Y983260D01*
X899930Y981974D02*
Y981974D01*
X901217Y983260D02*
Y983575D01*
X899780Y981823D02*
X899930Y981974D01*
X898343Y983260D02*
Y983575D01*
X899629Y981974D02*
Y981974D01*
X898343Y983260D02*
X899629Y981974D01*
X898205Y983713D02*
X898343Y983575D01*
X899629Y981974D02*
X899780Y981823D01*
X890331Y983713D02*
X890469Y983575D01*
Y983260D02*
Y983575D01*
Y983260D02*
X891906Y981823D01*
X892056Y981974D02*
X893343Y983260D01*
Y983575D01*
X892056Y981974D02*
Y981974D01*
X893343Y983575D02*
X893480Y983713D01*
X891906Y981823D02*
X892056Y981974D01*
X882929Y986941D02*
X884839D01*
D38*
X875567Y1016272D02*
X877732Y1014107D01*
X875567Y1016272D02*
Y1016469D01*
X877732Y1014107D02*
X877732D01*
X873604Y1020214D02*
X875376D01*
X875961Y1020800D01*
X871040Y1017650D02*
X873604Y1020214D01*
X880526Y1012570D02*
Y1016310D01*
X880685Y1016469D01*
X880488Y1012532D02*
X880526Y1012570D01*
X889026Y928865D02*
X889150Y928988D01*
X888756Y926758D02*
X889026Y927028D01*
Y928865D01*
X888756Y926705D02*
Y926758D01*
X897580Y929067D02*
X897620D01*
X897935Y927028D02*
Y928752D01*
X897620Y929067D02*
X897935Y928752D01*
X898205Y926705D02*
Y926758D01*
X897935Y927028D02*
X898205Y926758D01*
X857691Y1015656D02*
X859686Y1017650D01*
X857691Y1012963D02*
Y1015656D01*
X857654Y1012926D02*
X857691Y1012963D01*
X889150Y1008988D02*
X891433D01*
X871276Y983162D02*
X872614Y981823D01*
X881571Y1010071D02*
X883638Y1012138D01*
X879459Y1010071D02*
X881571D01*
X879361Y1010170D02*
X879459Y1010071D01*
X879307Y1010170D02*
X879361D01*
X859686Y1017650D02*
X871040D01*
X871276Y983162D02*
Y983477D01*
X871040Y983713D02*
X871276Y983477D01*
X872614Y981823D02*
X873953Y983162D01*
Y983477D01*
X872614Y981823D02*
Y981823D01*
X873953Y983477D02*
X874189Y983713D01*
X889301Y1012381D02*
X891190D01*
X891433Y1012138D01*
X889150Y1012532D02*
X889301Y1012381D01*
X886432Y1012217D02*
Y1016310D01*
X886591Y1016469D01*
X883638Y1020800D02*
X886591D01*
X880685D02*
X883638D01*
D39*
X866630Y615878D02*
D03*
X900646D02*
D03*
Y630839D02*
D03*
X866630D02*
D03*
D40*
X917024Y918831D02*
D03*
X919071Y932217D02*
D03*
X915134D02*
D03*
X923402Y922374D02*
D03*
X923796Y931823D02*
D03*
X908441Y933398D02*
D03*
X911985Y938122D02*
D03*
X915528Y937729D02*
D03*
X868284Y669225D02*
D03*
X871040Y671587D02*
D03*
X865528D02*
D03*
X836788Y636941D02*
D03*
X831276D02*
D03*
X834032Y634185D02*
D03*
X899780Y1014107D02*
D03*
X880488Y1012532D02*
D03*
X877732Y1014107D02*
D03*
X933638Y702296D02*
D03*
X872614Y892059D02*
D03*
X904898Y771193D02*
D03*
X943874Y767627D02*
D03*
Y668831D02*
D03*
X936788Y699540D02*
D03*
X837181Y640878D02*
D03*
X843874Y673162D02*
D03*
X845449Y669225D02*
D03*
X878520Y951508D02*
D03*
X872221Y946390D02*
D03*
X874977Y948752D02*
D03*
X874189Y952296D02*
D03*
X888362Y712925D02*
D03*
X887969Y749933D02*
D03*
X930095Y739697D02*
D03*
X915921Y941272D02*
D03*
X902536Y914500D02*
D03*
X900567Y908988D02*
D03*
X896236Y918831D02*
D03*
X916709Y948752D02*
D03*
X922418Y941666D02*
D03*
X899386Y952296D02*
D03*
X902536Y950721D02*
D03*
X916315Y955839D02*
D03*
X903717Y923162D02*
D03*
X900173Y921193D02*
D03*
X899780Y943634D02*
D03*
X892693Y862532D02*
D03*
X890331Y660563D02*
D03*
X870752Y935919D02*
D03*
X865921Y926311D02*
D03*
X919858Y683398D02*
D03*
X876099Y965288D02*
D03*
X828126Y709382D02*
D03*
X893480Y958988D02*
D03*
X839937Y883398D02*
D03*
X880488Y694028D02*
D03*
Y820800D02*
D03*
X857654Y1012926D02*
D03*
X896236Y955052D02*
D03*
X895449Y951508D02*
D03*
X888559Y642650D02*
D03*
X887575Y639697D02*
D03*
X908441Y889303D02*
D03*
X869465Y978673D02*
D03*
X867496Y967256D02*
D03*
X876158Y968437D02*
D03*
X871512Y959855D02*
D03*
X852142Y976311D02*
D03*
X855685Y982217D02*
D03*
X854898Y986154D02*
D03*
X857654Y974343D02*
D03*
X858835Y950721D02*
D03*
X861985Y945996D02*
D03*
X870646Y953083D02*
D03*
X911197Y964500D02*
D03*
X905685Y962138D02*
D03*
X850567Y954264D02*
D03*
X904111Y967650D02*
D03*
X913166Y966469D02*
D03*
X889150Y958201D02*
D03*
X869858Y949146D02*
D03*
X912181Y956036D02*
D03*
X861197Y1014894D02*
D03*
X832063Y891272D02*
D03*
X887575Y941666D02*
D03*
X891906Y943241D02*
D03*
X889937Y938122D02*
D03*
X898205Y947965D02*
D03*
X892103Y948949D02*
D03*
X889544Y934579D02*
D03*
X883244Y940091D02*
D03*
X893480Y934579D02*
D03*
X888756Y926705D02*
D03*
X874583Y937729D02*
D03*
X878914Y941666D02*
D03*
X891512Y923949D02*
D03*
X891650Y955701D02*
D03*
X873796Y926311D02*
D03*
X869858Y906233D02*
D03*
X867496Y918044D02*
D03*
X863953Y939697D02*
D03*
X870646Y915681D02*
D03*
X907457Y908792D02*
D03*
X907654Y905016D02*
D03*
X907260Y896784D02*
D03*
X864937Y914500D02*
D03*
X886591Y914303D02*
D03*
X888500Y908866D02*
D03*
X882654Y914107D02*
D03*
X884819Y909000D02*
D03*
X880882Y908933D02*
D03*
X925370Y891272D02*
D03*
X923402Y918044D02*
D03*
X853717Y1004264D02*
D03*
X904111Y990485D02*
D03*
X879307Y1010170D02*
D03*
X869465Y1014894D02*
D03*
X865528D02*
D03*
X873008Y1012926D02*
D03*
X875370D02*
D03*
X900961Y1017650D02*
D03*
X910803Y985367D02*
D03*
X910410Y989697D02*
D03*
X860016Y993241D02*
D03*
X854110D02*
D03*
X915921Y891666D02*
D03*
X916315Y904264D02*
D03*
X863096Y906611D02*
D03*
X903717Y926705D02*
D03*
X893480Y918831D02*
D03*
Y927000D02*
D03*
X865134Y879461D02*
D03*
X846236Y633004D02*
D03*
X843087Y962532D02*
D03*
X899386Y846587D02*
D03*
Y836744D02*
D03*
X895055Y785366D02*
D03*
X863953Y935367D02*
D03*
X921827Y649146D02*
D03*
X897811Y773162D02*
D03*
X941512D02*
D03*
Y666075D02*
D03*
X893087Y848752D02*
D03*
Y843634D02*
D03*
X885606Y867256D02*
D03*
X838362Y902689D02*
D03*
X928520Y635366D02*
D03*
X902142Y787335D02*
D03*
X862772Y621193D02*
D03*
Y625130D02*
D03*
X848992Y624736D02*
D03*
X853323Y627099D02*
D03*
Y633004D02*
D03*
X848992Y620406D02*
D03*
X936394Y969225D02*
D03*
Y965288D02*
D03*
Y961351D02*
D03*
Y957020D02*
D03*
Y952689D02*
D03*
X926551Y945996D02*
D03*
X932457Y949540D02*
D03*
X928520D02*
D03*
X924583D02*
D03*
X930488Y945996D02*
D03*
X916709Y968831D02*
D03*
X925370Y961351D02*
D03*
X921433D02*
D03*
X923402D02*
D03*
X931473Y963122D02*
D03*
Y965091D02*
D03*
Y961154D02*
D03*
X879307Y988929D02*
D03*
X886360Y831611D02*
D03*
X892096Y831633D02*
D03*
X902929Y937729D02*
D03*
X923796Y935367D02*
D03*
X928520Y816862D02*
D03*
X931276Y813319D02*
D03*
X933638Y798359D02*
D03*
X931473Y795603D02*
D03*
X934819Y801902D02*
D03*
X915134Y714894D02*
D03*
X915528Y709382D02*
D03*
X923303Y709776D02*
D03*
X916315Y704658D02*
D03*
X940331Y912138D02*
D03*
X939937Y934185D02*
D03*
X936788Y941272D02*
D03*
X937575Y871587D02*
D03*
X898205Y1003083D02*
D03*
X891118D02*
D03*
X893874D02*
D03*
X863953Y979855D02*
D03*
X923402Y669225D02*
D03*
X942693Y627886D02*
D03*
X907654Y625524D02*
D03*
X849386Y866469D02*
D03*
X863953Y862926D02*
D03*
X854898D02*
D03*
Y868831D02*
D03*
X841118Y860057D02*
D03*
X930882Y868831D02*
D03*
X924583Y868437D02*
D03*
X930882Y876705D02*
D03*
X928126Y882611D02*
D03*
X932457D02*
D03*
X937181Y879461D02*
D03*
X920252Y875524D02*
D03*
X869071Y815288D02*
D03*
Y801114D02*
D03*
Y805839D02*
D03*
Y810563D02*
D03*
X864347Y815288D02*
D03*
Y801114D02*
D03*
Y805839D02*
D03*
Y810563D02*
D03*
X870252Y783004D02*
D03*
X874583Y785366D02*
D03*
X859622Y815288D02*
D03*
Y801114D02*
D03*
Y805839D02*
D03*
Y810563D02*
D03*
X854898D02*
D03*
Y805839D02*
D03*
Y801114D02*
D03*
Y815288D02*
D03*
X850173Y801114D02*
D03*
Y805839D02*
D03*
Y810563D02*
D03*
Y815288D02*
D03*
X822614Y813319D02*
D03*
Y807807D02*
D03*
Y802689D02*
D03*
Y787335D02*
D03*
Y792059D02*
D03*
X941906Y652689D02*
D03*
X873008Y711744D02*
D03*
X919071Y733792D02*
D03*
X915134D02*
D03*
X842693Y818437D02*
D03*
X838756Y818437D02*
D03*
Y814500D02*
D03*
X842693Y806626D02*
D03*
X838756Y810563D02*
D03*
Y806626D02*
D03*
Y802689D02*
D03*
Y798752D02*
D03*
Y794815D02*
D03*
X908047Y801508D02*
D03*
X905292Y803083D02*
D03*
X895449Y798359D02*
D03*
X895055Y803083D02*
D03*
X902142D02*
D03*
X899386Y799146D02*
D03*
X906473Y794815D02*
D03*
Y791666D02*
D03*
X888559Y652099D02*
D03*
X886788Y656233D02*
D03*
X934819Y735760D02*
D03*
X907260Y731823D02*
D03*
X855292Y718831D02*
D03*
X857478Y767652D02*
D03*
X861985Y767650D02*
D03*
X867103Y768831D02*
D03*
X871827Y770406D02*
D03*
X876945Y770799D02*
D03*
X933248Y776271D02*
D03*
X877339Y778674D02*
D03*
X891512Y783004D02*
D03*
X921827Y720012D02*
D03*
X911985Y723949D02*
D03*
X907654Y721587D02*
D03*
X911197Y709776D02*
D03*
X904504Y705839D02*
D03*
X936000Y827099D02*
D03*
X906079Y636941D02*
D03*
X906866Y660563D02*
D03*
X899780Y660957D02*
D03*
X893874Y660563D02*
D03*
X852929Y774736D02*
D03*
X849386Y725130D02*
D03*
X857654Y702689D02*
D03*
X853323Y704658D02*
D03*
X849780Y707807D02*
D03*
X845055Y715288D02*
D03*
X848992D02*
D03*
X851355Y711744D02*
D03*
X924189Y800249D02*
D03*
X930488Y824343D02*
D03*
X924189Y817256D02*
D03*
X837057Y822537D02*
D03*
X928914Y778280D02*
D03*
X910410Y859382D02*
D03*
X935213Y855445D02*
D03*
X858835Y854033D02*
D03*
X927732Y858201D02*
D03*
X908047Y863319D02*
D03*
X903323Y861351D02*
D03*
X910016Y867650D02*
D03*
X910410Y871981D02*
D03*
X914347Y676311D02*
D03*
X908835D02*
D03*
X894481Y721665D02*
D03*
X933244Y634185D02*
D03*
X938362Y629855D02*
D03*
X895449Y679807D02*
D03*
X937181Y781823D02*
D03*
X888658Y798777D02*
D03*
X828697Y662388D02*
D03*
X826945Y794028D02*
D03*
X846630Y641902D02*
D03*
X889150Y683398D02*
D03*
X932851Y680248D02*
D03*
X936788Y723555D02*
D03*
X935606Y688516D02*
D03*
X936000Y692059D02*
D03*
X934425Y684973D02*
D03*
X930882Y666469D02*
D03*
X919465Y669225D02*
D03*
X931276Y705839D02*
D03*
X917496Y775524D02*
D03*
X909622Y638122D02*
D03*
X912378Y635366D02*
D03*
X916315Y641272D02*
D03*
Y635366D02*
D03*
X888509Y687729D02*
D03*
X843874Y993241D02*
D03*
X846236Y984185D02*
D03*
Y980248D02*
D03*
X893225Y643024D02*
D03*
X867496Y853477D02*
D03*
X863166D02*
D03*
X902536Y885367D02*
D03*
X926551Y862138D02*
D03*
X913166Y952296D02*
D03*
X930507Y906985D02*
D03*
X832063Y895209D02*
D03*
X855292Y877492D02*
D03*
Y885367D02*
D03*
X929701Y799540D02*
D03*
X929700Y781987D02*
D03*
X933638Y790091D02*
D03*
X928694Y789478D02*
D03*
Y807194D02*
D03*
X933638Y807807D02*
D03*
X935358Y784185D02*
D03*
X923402Y900327D02*
D03*
X936000Y895603D02*
D03*
X938756Y889303D02*
D03*
X905292Y866469D02*
D03*
X900567Y889303D02*
D03*
X846236Y966862D02*
D03*
X847995Y957372D02*
D03*
X856866Y966862D02*
D03*
X826551Y971981D02*
D03*
Y963319D02*
D03*
X930488Y990485D02*
D03*
Y986548D02*
D03*
Y982611D02*
D03*
X928126Y975130D02*
D03*
Y979067D02*
D03*
X872614Y981823D02*
D03*
X884839Y986941D02*
D03*
X891906Y981823D02*
D03*
X899780D02*
D03*
X902142Y999933D02*
D03*
X908441Y994815D02*
D03*
X836394Y993241D02*
D03*
X884425Y1007020D02*
D03*
X873796Y1003083D02*
D03*
X870646D02*
D03*
X871040Y989303D02*
D03*
X874189D02*
D03*
X878126Y1003083D02*
D03*
X890331Y989303D02*
D03*
X898205D02*
D03*
X893874D02*
D03*
X889150Y1008988D02*
D03*
Y1012532D02*
D03*
X843480Y918831D02*
D03*
Y922768D02*
D03*
Y926705D02*
D03*
X847418D02*
D03*
X851355Y927099D02*
D03*
X850567Y931036D02*
D03*
X898205Y926705D02*
D03*
X834819Y802689D02*
D03*
X831276D02*
D03*
X844662Y880248D02*
D03*
X860016Y883398D02*
D03*
X916709Y898752D02*
D03*
X925370Y909776D02*
D03*
X921433Y910170D02*
D03*
X834819Y782611D02*
D03*
X838756D02*
D03*
Y778674D02*
D03*
Y774736D02*
D03*
Y770799D02*
D03*
X842693D02*
D03*
X835606Y712925D02*
D03*
X831276Y851508D02*
D03*
Y857414D02*
D03*
X839544Y952296D02*
D03*
X847418Y952689D02*
D03*
X851355Y944815D02*
D03*
Y941666D02*
D03*
X832457Y942059D02*
D03*
X905292Y874736D02*
D03*
X872614Y897178D02*
D03*
X855292Y918831D02*
D03*
Y922768D02*
D03*
X854111Y931036D02*
D03*
X852929Y936154D02*
D03*
X860016Y844028D02*
D03*
X880882Y836548D02*
D03*
X875764Y841666D02*
D03*
X880882D02*
D03*
X875764Y836548D02*
D03*
X899386Y841272D02*
D03*
X864347Y831823D02*
D03*
Y836548D02*
D03*
X865921Y867650D02*
D03*
X863953Y874736D02*
D03*
X860016D02*
D03*
X869858Y867650D02*
D03*
X871827Y874736D02*
D03*
X873796Y867650D02*
D03*
X875764Y874736D02*
D03*
X877732Y867650D02*
D03*
X879701Y874736D02*
D03*
X855685Y907020D02*
D03*
X867890Y875130D02*
D03*
X860016Y911351D02*
D03*
X901355Y874736D02*
D03*
X897500Y934807D02*
D03*
X897418Y874736D02*
D03*
X890331Y880642D02*
D03*
X869465Y900721D02*
D03*
X887575Y875918D02*
D03*
X859622Y942059D02*
D03*
X883638Y877099D02*
D03*
X932477Y649160D02*
D03*
X930474Y642861D02*
D03*
X927732Y653477D02*
D03*
X917607Y649429D02*
D03*
X911650Y654147D02*
D03*
X906219Y642842D02*
D03*
X904504Y701508D02*
D03*
X914740Y690485D02*
D03*
X908441Y697178D02*
D03*
X912772Y704658D02*
D03*
X839150Y701902D02*
D03*
X830095Y700327D02*
D03*
Y703870D02*
D03*
X843874Y704658D02*
D03*
Y701115D02*
D03*
X839150Y677492D02*
D03*
X838756Y681036D02*
D03*
X839150Y685366D02*
D03*
X830488Y690485D02*
D03*
X903551Y650721D02*
D03*
X866709Y656626D02*
D03*
X897811Y625130D02*
D03*
X894662Y627099D02*
D03*
X895055Y622374D02*
D03*
X872614Y623162D02*
D03*
Y627099D02*
D03*
X869465Y624736D02*
D03*
X895449Y617256D02*
D03*
Y612532D02*
D03*
X871827Y617256D02*
D03*
Y612532D02*
D03*
X881276D02*
D03*
X886000D02*
D03*
X876551D02*
D03*
X890725D02*
D03*
Y617256D02*
D03*
X876551D02*
D03*
X886000D02*
D03*
X881276D02*
D03*
Y626311D02*
D03*
Y621981D02*
D03*
X886000D02*
D03*
Y626311D02*
D03*
X875370Y675524D02*
D03*
Y680248D02*
D03*
X870646Y684973D02*
D03*
Y680248D02*
D03*
Y675524D02*
D03*
X861197D02*
D03*
X865921D02*
D03*
X861197Y680248D02*
D03*
X865921D02*
D03*
Y684973D02*
D03*
Y689697D02*
D03*
X861197Y684973D02*
D03*
Y689697D02*
D03*
X856473Y684973D02*
D03*
Y689697D02*
D03*
X884032Y659776D02*
D03*
X876158Y652689D02*
D03*
X870252Y661744D02*
D03*
X864740Y649933D02*
D03*
X878520Y661744D02*
D03*
X874977D02*
D03*
X866709Y660563D02*
D03*
X882851Y655839D02*
D03*
X880095Y658595D02*
D03*
Y653083D02*
D03*
X872614Y658595D02*
D03*
X870252Y655839D02*
D03*
X872221Y652689D02*
D03*
X867890D02*
D03*
X870252Y637729D02*
D03*
X833976Y690300D02*
D03*
X896630Y641272D02*
D03*
X897024Y637729D02*
D03*
X894662Y634185D02*
D03*
X872221Y634579D02*
D03*
X879701Y639697D02*
D03*
X841118Y897571D02*
D03*
Y893241D02*
D03*
Y888910D02*
D03*
X918874Y714894D02*
D03*
X847221Y687831D02*
D03*
X906276Y646981D02*
D03*
X895646Y651705D02*
D03*
X847024Y673162D02*
D03*
X851158Y688225D02*
D03*
X855095Y678776D02*
D03*
Y671296D02*
D03*
M02*
