G04*
G04 #@! TF.GenerationSoftware,Altium Limited,Altium Designer,21.9.2 (33)*
G04*
G04 Layer_Color=2752767*
%FSLAX25Y25*%
%MOIN*%
G70*
G04*
G04 #@! TF.SameCoordinates,38B2C1F3-0FCD-4184-AA18-E5AB633A714F*
G04*
G04*
G04 #@! TF.FilePolarity,Positive*
G04*
G01*
G75*
%ADD168C,0.00200*%
%ADD169C,0.00267*%
D168*
X865830Y615078D02*
Y616678D01*
X867430D01*
Y615078D01*
X865830D01*
X899846D02*
Y616678D01*
X901446D01*
Y615078D01*
X899846D01*
Y630039D02*
Y631639D01*
X901446D01*
Y630039D01*
X899846D01*
X865830D02*
Y631639D01*
X867430D01*
Y630039D01*
X865830D01*
X907260Y747165D02*
X906460Y748765D01*
X908060D01*
X907260Y747165D01*
X860016D02*
X859216Y748765D01*
X860816D01*
X860016Y747165D01*
X928225Y922362D02*
X928625Y922762D01*
X929025D01*
X928625Y923162D01*
X929025Y923562D01*
X928625D01*
X928225Y923962D01*
X927825Y923562D01*
X927425D01*
X927825Y923162D01*
X927425Y922762D01*
X927825D01*
X928225Y922362D01*
X939051D02*
X939451Y922762D01*
X939851D01*
X939451Y923162D01*
X939851Y923562D01*
X939451D01*
X939051Y923962D01*
X938651Y923562D01*
X938251D01*
X938651Y923162D01*
X938251Y922762D01*
X938651D01*
X939051Y922362D01*
X916224Y918031D02*
X916624Y918831D01*
X916224Y919631D01*
X917024Y919231D01*
X917824Y919631D01*
X917424Y918831D01*
X917824Y918031D01*
X917024Y918431D01*
X916224Y918031D01*
X918271Y931417D02*
X918671Y932217D01*
X918271Y933017D01*
X919071Y932617D01*
X919871Y933017D01*
X919471Y932217D01*
X919871Y931417D01*
X919071Y931817D01*
X918271Y931417D01*
X914334D02*
X914734Y932217D01*
X914334Y933017D01*
X915134Y932617D01*
X915934Y933017D01*
X915534Y932217D01*
X915934Y931417D01*
X915134Y931817D01*
X914334Y931417D01*
X922602Y921574D02*
X923002Y922374D01*
X922602Y923174D01*
X923402Y922774D01*
X924202Y923174D01*
X923802Y922374D01*
X924202Y921574D01*
X923402Y921974D01*
X922602Y921574D01*
X922995Y931023D02*
X923396Y931823D01*
X922995Y932623D01*
X923796Y932223D01*
X924596Y932623D01*
X924195Y931823D01*
X924596Y931023D01*
X923796Y931423D01*
X922995Y931023D01*
X907641Y932598D02*
X908041Y933398D01*
X907641Y934198D01*
X908441Y933798D01*
X909241Y934198D01*
X908841Y933398D01*
X909241Y932598D01*
X908441Y932998D01*
X907641Y932598D01*
X911185Y937322D02*
X911584Y938122D01*
X911185Y938922D01*
X911985Y938522D01*
X912784Y938922D01*
X912385Y938122D01*
X912784Y937322D01*
X911985Y937722D01*
X911185Y937322D01*
X914728Y936929D02*
X915128Y937729D01*
X914728Y938529D01*
X915528Y938129D01*
X916328Y938529D01*
X915928Y937729D01*
X916328Y936929D01*
X915528Y937329D01*
X914728Y936929D01*
X867484Y668425D02*
X867884Y669225D01*
X867484Y670025D01*
X868284Y669625D01*
X869084Y670025D01*
X868684Y669225D01*
X869084Y668425D01*
X868284Y668825D01*
X867484Y668425D01*
X870240Y670787D02*
X870640Y671587D01*
X870240Y672387D01*
X871040Y671987D01*
X871840Y672387D01*
X871440Y671587D01*
X871840Y670787D01*
X871040Y671187D01*
X870240Y670787D01*
X864728D02*
X865128Y671587D01*
X864728Y672387D01*
X865528Y671987D01*
X866328Y672387D01*
X865928Y671587D01*
X866328Y670787D01*
X865528Y671187D01*
X864728Y670787D01*
X835988Y636141D02*
X836388Y636941D01*
X835988Y637741D01*
X836788Y637341D01*
X837588Y637741D01*
X837188Y636941D01*
X837588Y636141D01*
X836788Y636541D01*
X835988Y636141D01*
X830476D02*
X830876Y636941D01*
X830476Y637741D01*
X831276Y637341D01*
X832076Y637741D01*
X831676Y636941D01*
X832076Y636141D01*
X831276Y636541D01*
X830476Y636141D01*
X833232Y633385D02*
X833632Y634185D01*
X833232Y634985D01*
X834032Y634585D01*
X834832Y634985D01*
X834432Y634185D01*
X834832Y633385D01*
X834032Y633785D01*
X833232Y633385D01*
X898980Y1013307D02*
X899380Y1014107D01*
X898980Y1014907D01*
X899780Y1014507D01*
X900580Y1014907D01*
X900180Y1014107D01*
X900580Y1013307D01*
X899780Y1013707D01*
X898980Y1013307D01*
X879688Y1011732D02*
X880088Y1012532D01*
X879688Y1013332D01*
X880488Y1012932D01*
X881288Y1013332D01*
X880888Y1012532D01*
X881288Y1011732D01*
X880488Y1012132D01*
X879688Y1011732D01*
X876933Y1013307D02*
X877332Y1014107D01*
X876933Y1014907D01*
X877732Y1014507D01*
X878533Y1014907D01*
X878133Y1014107D01*
X878533Y1013307D01*
X877732Y1013707D01*
X876933Y1013307D01*
X932838Y701496D02*
X933238Y702296D01*
X932838Y703096D01*
X933638Y702696D01*
X934438Y703096D01*
X934038Y702296D01*
X934438Y701496D01*
X933638Y701896D01*
X932838Y701496D01*
X871814Y891259D02*
X872214Y892059D01*
X871814Y892859D01*
X872614Y892459D01*
X873414Y892859D01*
X873014Y892059D01*
X873414Y891259D01*
X872614Y891659D01*
X871814Y891259D01*
X904098Y770393D02*
X904498Y771193D01*
X904098Y771993D01*
X904898Y771593D01*
X905698Y771993D01*
X905298Y771193D01*
X905698Y770393D01*
X904898Y770793D01*
X904098Y770393D01*
X943074Y766827D02*
X943474Y767627D01*
X943074Y768428D01*
X943874Y768027D01*
X944674Y768428D01*
X944274Y767627D01*
X944674Y766827D01*
X943874Y767228D01*
X943074Y766827D01*
Y668031D02*
X943474Y668831D01*
X943074Y669631D01*
X943874Y669231D01*
X944674Y669631D01*
X944274Y668831D01*
X944674Y668031D01*
X943874Y668431D01*
X943074Y668031D01*
X935988Y698740D02*
X936388Y699540D01*
X935988Y700340D01*
X936788Y699940D01*
X937588Y700340D01*
X937188Y699540D01*
X937588Y698740D01*
X936788Y699140D01*
X935988Y698740D01*
X836381Y640078D02*
X836781Y640878D01*
X836381Y641678D01*
X837181Y641278D01*
X837981Y641678D01*
X837581Y640878D01*
X837981Y640078D01*
X837181Y640478D01*
X836381Y640078D01*
X843074Y672362D02*
X843474Y673162D01*
X843074Y673962D01*
X843874Y673562D01*
X844674Y673962D01*
X844274Y673162D01*
X844674Y672362D01*
X843874Y672762D01*
X843074Y672362D01*
X844649Y668425D02*
X845049Y669225D01*
X844649Y670025D01*
X845449Y669625D01*
X846249Y670025D01*
X845849Y669225D01*
X846249Y668425D01*
X845449Y668825D01*
X844649Y668425D01*
X877720Y950708D02*
X878120Y951508D01*
X877720Y952308D01*
X878520Y951908D01*
X879320Y952308D01*
X878920Y951508D01*
X879320Y950708D01*
X878520Y951108D01*
X877720Y950708D01*
X871421Y945590D02*
X871821Y946390D01*
X871421Y947190D01*
X872221Y946790D01*
X873021Y947190D01*
X872621Y946390D01*
X873021Y945590D01*
X872221Y945990D01*
X871421Y945590D01*
X874177Y947952D02*
X874577Y948752D01*
X874177Y949552D01*
X874977Y949152D01*
X875777Y949552D01*
X875377Y948752D01*
X875777Y947952D01*
X874977Y948352D01*
X874177Y947952D01*
X873389Y951496D02*
X873789Y952296D01*
X873389Y953096D01*
X874189Y952696D01*
X874989Y953096D01*
X874589Y952296D01*
X874989Y951496D01*
X874189Y951896D01*
X873389Y951496D01*
X887562Y712125D02*
X887962Y712925D01*
X887562Y713726D01*
X888362Y713326D01*
X889162Y713726D01*
X888762Y712925D01*
X889162Y712125D01*
X888362Y712526D01*
X887562Y712125D01*
X887169Y749133D02*
X887569Y749933D01*
X887169Y750733D01*
X887969Y750333D01*
X888769Y750733D01*
X888369Y749933D01*
X888769Y749133D01*
X887969Y749533D01*
X887169Y749133D01*
X929295Y738897D02*
X929695Y739697D01*
X929295Y740497D01*
X930095Y740097D01*
X930895Y740497D01*
X930495Y739697D01*
X930895Y738897D01*
X930095Y739297D01*
X929295Y738897D01*
X915121Y940472D02*
X915522Y941272D01*
X915121Y942072D01*
X915921Y941672D01*
X916722Y942072D01*
X916321Y941272D01*
X916722Y940472D01*
X915921Y940872D01*
X915121Y940472D01*
X901736Y913700D02*
X902136Y914500D01*
X901736Y915300D01*
X902536Y914900D01*
X903336Y915300D01*
X902936Y914500D01*
X903336Y913700D01*
X902536Y914100D01*
X901736Y913700D01*
X899767Y908189D02*
X900167Y908988D01*
X899767Y909789D01*
X900567Y909389D01*
X901367Y909789D01*
X900967Y908988D01*
X901367Y908189D01*
X900567Y908589D01*
X899767Y908189D01*
X895436Y918031D02*
X895836Y918831D01*
X895436Y919631D01*
X896236Y919231D01*
X897036Y919631D01*
X896636Y918831D01*
X897036Y918031D01*
X896236Y918431D01*
X895436Y918031D01*
X915909Y947952D02*
X916309Y948752D01*
X915909Y949552D01*
X916709Y949152D01*
X917509Y949552D01*
X917109Y948752D01*
X917509Y947952D01*
X916709Y948352D01*
X915909Y947952D01*
X921618Y940866D02*
X922017Y941666D01*
X921618Y942466D01*
X922418Y942066D01*
X923217Y942466D01*
X922818Y941666D01*
X923217Y940866D01*
X922418Y941266D01*
X921618Y940866D01*
X898586Y951496D02*
X898986Y952296D01*
X898586Y953096D01*
X899386Y952696D01*
X900186Y953096D01*
X899786Y952296D01*
X900186Y951496D01*
X899386Y951896D01*
X898586Y951496D01*
X901736Y949921D02*
X902136Y950721D01*
X901736Y951521D01*
X902536Y951121D01*
X903336Y951521D01*
X902936Y950721D01*
X903336Y949921D01*
X902536Y950321D01*
X901736Y949921D01*
X915515Y955039D02*
X915915Y955839D01*
X915515Y956639D01*
X916315Y956239D01*
X917115Y956639D01*
X916715Y955839D01*
X917115Y955039D01*
X916315Y955439D01*
X915515Y955039D01*
X902917Y922362D02*
X903317Y923162D01*
X902917Y923962D01*
X903717Y923562D01*
X904517Y923962D01*
X904117Y923162D01*
X904517Y922362D01*
X903717Y922762D01*
X902917Y922362D01*
X899374Y920393D02*
X899774Y921193D01*
X899374Y921993D01*
X900173Y921593D01*
X900974Y921993D01*
X900574Y921193D01*
X900974Y920393D01*
X900173Y920793D01*
X899374Y920393D01*
X898980Y942834D02*
X899380Y943634D01*
X898980Y944434D01*
X899780Y944034D01*
X900580Y944434D01*
X900180Y943634D01*
X900580Y942834D01*
X899780Y943234D01*
X898980Y942834D01*
X891893Y861732D02*
X892293Y862532D01*
X891893Y863332D01*
X892693Y862932D01*
X893493Y863332D01*
X893093Y862532D01*
X893493Y861732D01*
X892693Y862132D01*
X891893Y861732D01*
X889531Y659763D02*
X889931Y660563D01*
X889531Y661363D01*
X890331Y660963D01*
X891131Y661363D01*
X890731Y660563D01*
X891131Y659763D01*
X890331Y660163D01*
X889531Y659763D01*
X869952Y935119D02*
X870352Y935919D01*
X869952Y936719D01*
X870752Y936319D01*
X871552Y936719D01*
X871152Y935919D01*
X871552Y935119D01*
X870752Y935519D01*
X869952Y935119D01*
X865121Y925511D02*
X865522Y926311D01*
X865121Y927111D01*
X865921Y926711D01*
X866722Y927111D01*
X866321Y926311D01*
X866722Y925511D01*
X865921Y925911D01*
X865121Y925511D01*
X919059Y682598D02*
X919458Y683398D01*
X919059Y684198D01*
X919858Y683798D01*
X920658Y684198D01*
X920259Y683398D01*
X920658Y682598D01*
X919858Y682998D01*
X919059Y682598D01*
X875299Y964488D02*
X875699Y965288D01*
X875299Y966088D01*
X876099Y965688D01*
X876899Y966088D01*
X876499Y965288D01*
X876899Y964488D01*
X876099Y964888D01*
X875299Y964488D01*
X827326Y708582D02*
X827726Y709382D01*
X827326Y710182D01*
X828126Y709782D01*
X828926Y710182D01*
X828526Y709382D01*
X828926Y708582D01*
X828126Y708982D01*
X827326Y708582D01*
X892680Y958189D02*
X893081Y958988D01*
X892680Y959789D01*
X893480Y959389D01*
X894281Y959789D01*
X893880Y958988D01*
X894281Y958189D01*
X893480Y958589D01*
X892680Y958189D01*
X839137Y882598D02*
X839537Y883398D01*
X839137Y884198D01*
X839937Y883798D01*
X840737Y884198D01*
X840337Y883398D01*
X840737Y882598D01*
X839937Y882998D01*
X839137Y882598D01*
X879688Y693228D02*
X880088Y694028D01*
X879688Y694828D01*
X880488Y694428D01*
X881288Y694828D01*
X880888Y694028D01*
X881288Y693228D01*
X880488Y693628D01*
X879688Y693228D01*
Y820000D02*
X880088Y820800D01*
X879688Y821599D01*
X880488Y821200D01*
X881288Y821599D01*
X880888Y820800D01*
X881288Y820000D01*
X880488Y820399D01*
X879688Y820000D01*
X856854Y1012125D02*
X857254Y1012926D01*
X856854Y1013725D01*
X857654Y1013326D01*
X858454Y1013725D01*
X858054Y1012926D01*
X858454Y1012125D01*
X857654Y1012525D01*
X856854Y1012125D01*
X895436Y954251D02*
X895836Y955052D01*
X895436Y955851D01*
X896236Y955451D01*
X897036Y955851D01*
X896636Y955052D01*
X897036Y954251D01*
X896236Y954652D01*
X895436Y954251D01*
X894649Y950708D02*
X895049Y951508D01*
X894649Y952308D01*
X895449Y951908D01*
X896249Y952308D01*
X895849Y951508D01*
X896249Y950708D01*
X895449Y951108D01*
X894649Y950708D01*
X887759Y641850D02*
X888159Y642650D01*
X887759Y643450D01*
X888559Y643050D01*
X889359Y643450D01*
X888959Y642650D01*
X889359Y641850D01*
X888559Y642250D01*
X887759Y641850D01*
X886775Y638897D02*
X887175Y639697D01*
X886775Y640497D01*
X887575Y640097D01*
X888375Y640497D01*
X887975Y639697D01*
X888375Y638897D01*
X887575Y639297D01*
X886775Y638897D01*
X907641Y888503D02*
X908041Y889303D01*
X907641Y890104D01*
X908441Y889703D01*
X909241Y890104D01*
X908841Y889303D01*
X909241Y888503D01*
X908441Y888904D01*
X907641Y888503D01*
X868665Y977874D02*
X869065Y978673D01*
X868665Y979473D01*
X869465Y979074D01*
X870265Y979473D01*
X869865Y978673D01*
X870265Y977874D01*
X869465Y978273D01*
X868665Y977874D01*
X866696Y966456D02*
X867096Y967256D01*
X866696Y968056D01*
X867496Y967656D01*
X868296Y968056D01*
X867896Y967256D01*
X868296Y966456D01*
X867496Y966856D01*
X866696Y966456D01*
X875358Y967637D02*
X875758Y968437D01*
X875358Y969237D01*
X876158Y968837D01*
X876958Y969237D01*
X876558Y968437D01*
X876958Y967637D01*
X876158Y968037D01*
X875358Y967637D01*
X870712Y959055D02*
X871112Y959855D01*
X870712Y960655D01*
X871512Y960255D01*
X872312Y960655D01*
X871912Y959855D01*
X872312Y959055D01*
X871512Y959455D01*
X870712Y959055D01*
X851342Y975511D02*
X851742Y976311D01*
X851342Y977111D01*
X852142Y976711D01*
X852942Y977111D01*
X852542Y976311D01*
X852942Y975511D01*
X852142Y975911D01*
X851342Y975511D01*
X854885Y981417D02*
X855285Y982217D01*
X854885Y983017D01*
X855685Y982617D01*
X856485Y983017D01*
X856085Y982217D01*
X856485Y981417D01*
X855685Y981817D01*
X854885Y981417D01*
X854098Y985354D02*
X854498Y986154D01*
X854098Y986954D01*
X854898Y986554D01*
X855698Y986954D01*
X855298Y986154D01*
X855698Y985354D01*
X854898Y985754D01*
X854098Y985354D01*
X856854Y973543D02*
X857254Y974343D01*
X856854Y975143D01*
X857654Y974743D01*
X858454Y975143D01*
X858054Y974343D01*
X858454Y973543D01*
X857654Y973943D01*
X856854Y973543D01*
X858035Y949921D02*
X858435Y950721D01*
X858035Y951521D01*
X858835Y951121D01*
X859635Y951521D01*
X859235Y950721D01*
X859635Y949921D01*
X858835Y950321D01*
X858035Y949921D01*
X861185Y945196D02*
X861584Y945996D01*
X861185Y946796D01*
X861985Y946396D01*
X862784Y946796D01*
X862385Y945996D01*
X862784Y945196D01*
X861985Y945596D01*
X861185Y945196D01*
X869846Y952283D02*
X870246Y953083D01*
X869846Y953883D01*
X870646Y953483D01*
X871446Y953883D01*
X871046Y953083D01*
X871446Y952283D01*
X870646Y952683D01*
X869846Y952283D01*
X910397Y963700D02*
X910797Y964500D01*
X910397Y965300D01*
X911197Y964900D01*
X911997Y965300D01*
X911597Y964500D01*
X911997Y963700D01*
X911197Y964100D01*
X910397Y963700D01*
X904885Y961338D02*
X905285Y962138D01*
X904885Y962938D01*
X905685Y962538D01*
X906485Y962938D01*
X906085Y962138D01*
X906485Y961338D01*
X905685Y961738D01*
X904885Y961338D01*
X849767Y953464D02*
X850167Y954264D01*
X849767Y955064D01*
X850567Y954664D01*
X851367Y955064D01*
X850967Y954264D01*
X851367Y953464D01*
X850567Y953864D01*
X849767Y953464D01*
X903310Y966850D02*
X903710Y967650D01*
X903310Y968450D01*
X904111Y968050D01*
X904910Y968450D01*
X904510Y967650D01*
X904910Y966850D01*
X904111Y967250D01*
X903310Y966850D01*
X912366Y965669D02*
X912766Y966469D01*
X912366Y967269D01*
X913166Y966869D01*
X913966Y967269D01*
X913566Y966469D01*
X913966Y965669D01*
X913166Y966069D01*
X912366Y965669D01*
X888350Y957401D02*
X888750Y958201D01*
X888350Y959001D01*
X889150Y958601D01*
X889950Y959001D01*
X889550Y958201D01*
X889950Y957401D01*
X889150Y957801D01*
X888350Y957401D01*
X869059Y948346D02*
X869458Y949146D01*
X869059Y949946D01*
X869858Y949546D01*
X870658Y949946D01*
X870259Y949146D01*
X870658Y948346D01*
X869858Y948746D01*
X869059Y948346D01*
X911381Y955236D02*
X911781Y956036D01*
X911381Y956836D01*
X912181Y956436D01*
X912981Y956836D01*
X912581Y956036D01*
X912981Y955236D01*
X912181Y955636D01*
X911381Y955236D01*
X860397Y1014094D02*
X860797Y1014894D01*
X860397Y1015694D01*
X861197Y1015294D01*
X861997Y1015694D01*
X861597Y1014894D01*
X861997Y1014094D01*
X861197Y1014494D01*
X860397Y1014094D01*
X831263Y890472D02*
X831663Y891272D01*
X831263Y892072D01*
X832063Y891672D01*
X832863Y892072D01*
X832463Y891272D01*
X832863Y890472D01*
X832063Y890872D01*
X831263Y890472D01*
X886775Y940866D02*
X887175Y941666D01*
X886775Y942466D01*
X887575Y942066D01*
X888375Y942466D01*
X887975Y941666D01*
X888375Y940866D01*
X887575Y941266D01*
X886775Y940866D01*
X891106Y942441D02*
X891506Y943241D01*
X891106Y944040D01*
X891906Y943641D01*
X892706Y944040D01*
X892306Y943241D01*
X892706Y942441D01*
X891906Y942840D01*
X891106Y942441D01*
X889137Y937322D02*
X889537Y938122D01*
X889137Y938922D01*
X889937Y938522D01*
X890737Y938922D01*
X890337Y938122D01*
X890737Y937322D01*
X889937Y937722D01*
X889137Y937322D01*
X897405Y947165D02*
X897805Y947965D01*
X897405Y948765D01*
X898205Y948365D01*
X899005Y948765D01*
X898605Y947965D01*
X899005Y947165D01*
X898205Y947565D01*
X897405Y947165D01*
X891303Y948149D02*
X891703Y948949D01*
X891303Y949749D01*
X892103Y949349D01*
X892903Y949749D01*
X892503Y948949D01*
X892903Y948149D01*
X892103Y948549D01*
X891303Y948149D01*
X888743Y933779D02*
X889143Y934579D01*
X888743Y935379D01*
X889544Y934979D01*
X890343Y935379D01*
X889944Y934579D01*
X890343Y933779D01*
X889544Y934179D01*
X888743Y933779D01*
X882444Y939291D02*
X882844Y940091D01*
X882444Y940891D01*
X883244Y940491D01*
X884044Y940891D01*
X883644Y940091D01*
X884044Y939291D01*
X883244Y939691D01*
X882444Y939291D01*
X892680Y933779D02*
X893081Y934579D01*
X892680Y935379D01*
X893480Y934979D01*
X894281Y935379D01*
X893880Y934579D01*
X894281Y933779D01*
X893480Y934179D01*
X892680Y933779D01*
X887956Y925905D02*
X888356Y926705D01*
X887956Y927505D01*
X888756Y927105D01*
X889556Y927505D01*
X889156Y926705D01*
X889556Y925905D01*
X888756Y926305D01*
X887956Y925905D01*
X873783Y936929D02*
X874183Y937729D01*
X873783Y938529D01*
X874583Y938129D01*
X875383Y938529D01*
X874983Y937729D01*
X875383Y936929D01*
X874583Y937329D01*
X873783Y936929D01*
X878114Y940866D02*
X878514Y941666D01*
X878114Y942466D01*
X878914Y942066D01*
X879714Y942466D01*
X879314Y941666D01*
X879714Y940866D01*
X878914Y941266D01*
X878114Y940866D01*
X890712Y923149D02*
X891112Y923949D01*
X890712Y924749D01*
X891512Y924349D01*
X892312Y924749D01*
X891912Y923949D01*
X892312Y923149D01*
X891512Y923549D01*
X890712Y923149D01*
X890850Y954901D02*
X891250Y955701D01*
X890850Y956501D01*
X891650Y956101D01*
X892450Y956501D01*
X892050Y955701D01*
X892450Y954901D01*
X891650Y955301D01*
X890850Y954901D01*
X872995Y925511D02*
X873396Y926311D01*
X872995Y927111D01*
X873796Y926711D01*
X874596Y927111D01*
X874195Y926311D01*
X874596Y925511D01*
X873796Y925911D01*
X872995Y925511D01*
X869059Y905433D02*
X869458Y906233D01*
X869059Y907033D01*
X869858Y906633D01*
X870658Y907033D01*
X870259Y906233D01*
X870658Y905433D01*
X869858Y905833D01*
X869059Y905433D01*
X866696Y917244D02*
X867096Y918044D01*
X866696Y918844D01*
X867496Y918444D01*
X868296Y918844D01*
X867896Y918044D01*
X868296Y917244D01*
X867496Y917644D01*
X866696Y917244D01*
X863153Y938897D02*
X863553Y939697D01*
X863153Y940497D01*
X863953Y940097D01*
X864753Y940497D01*
X864353Y939697D01*
X864753Y938897D01*
X863953Y939297D01*
X863153Y938897D01*
X869846Y914881D02*
X870246Y915681D01*
X869846Y916481D01*
X870646Y916081D01*
X871446Y916481D01*
X871046Y915681D01*
X871446Y914881D01*
X870646Y915281D01*
X869846Y914881D01*
X906657Y907992D02*
X907057Y908792D01*
X906657Y909592D01*
X907457Y909192D01*
X908257Y909592D01*
X907857Y908792D01*
X908257Y907992D01*
X907457Y908392D01*
X906657Y907992D01*
X906854Y904216D02*
X907254Y905016D01*
X906854Y905816D01*
X907654Y905416D01*
X908454Y905816D01*
X908054Y905016D01*
X908454Y904216D01*
X907654Y904616D01*
X906854Y904216D01*
X906460Y895984D02*
X906860Y896784D01*
X906460Y897584D01*
X907260Y897184D01*
X908060Y897584D01*
X907660Y896784D01*
X908060Y895984D01*
X907260Y896384D01*
X906460Y895984D01*
X864137Y913700D02*
X864537Y914500D01*
X864137Y915300D01*
X864937Y914900D01*
X865737Y915300D01*
X865337Y914500D01*
X865737Y913700D01*
X864937Y914100D01*
X864137Y913700D01*
X885791Y913503D02*
X886191Y914303D01*
X885791Y915104D01*
X886591Y914703D01*
X887391Y915104D01*
X886991Y914303D01*
X887391Y913503D01*
X886591Y913904D01*
X885791Y913503D01*
X887700Y908066D02*
X888099Y908866D01*
X887700Y909666D01*
X888500Y909266D01*
X889299Y909666D01*
X888900Y908866D01*
X889299Y908066D01*
X888500Y908466D01*
X887700Y908066D01*
X881854Y913307D02*
X882254Y914107D01*
X881854Y914907D01*
X882654Y914507D01*
X883454Y914907D01*
X883054Y914107D01*
X883454Y913307D01*
X882654Y913707D01*
X881854Y913307D01*
X884019Y908200D02*
X884419Y909000D01*
X884019Y909799D01*
X884819Y909400D01*
X885619Y909799D01*
X885219Y909000D01*
X885619Y908200D01*
X884819Y908599D01*
X884019Y908200D01*
X880082Y908133D02*
X880482Y908933D01*
X880082Y909733D01*
X880882Y909333D01*
X881682Y909733D01*
X881282Y908933D01*
X881682Y908133D01*
X880882Y908533D01*
X880082Y908133D01*
X924570Y890472D02*
X924970Y891272D01*
X924570Y892072D01*
X925370Y891672D01*
X926170Y892072D01*
X925770Y891272D01*
X926170Y890472D01*
X925370Y890872D01*
X924570Y890472D01*
X922602Y917244D02*
X923002Y918044D01*
X922602Y918844D01*
X923402Y918444D01*
X924202Y918844D01*
X923802Y918044D01*
X924202Y917244D01*
X923402Y917644D01*
X922602Y917244D01*
X852917Y1003464D02*
X853317Y1004264D01*
X852917Y1005064D01*
X853717Y1004664D01*
X854517Y1005064D01*
X854117Y1004264D01*
X854517Y1003464D01*
X853717Y1003864D01*
X852917Y1003464D01*
X903310Y989685D02*
X903710Y990485D01*
X903310Y991285D01*
X904111Y990885D01*
X904910Y991285D01*
X904510Y990485D01*
X904910Y989685D01*
X904111Y990085D01*
X903310Y989685D01*
X878507Y1009370D02*
X878907Y1010170D01*
X878507Y1010970D01*
X879307Y1010570D01*
X880107Y1010970D01*
X879707Y1010170D01*
X880107Y1009370D01*
X879307Y1009770D01*
X878507Y1009370D01*
X868665Y1014094D02*
X869065Y1014894D01*
X868665Y1015694D01*
X869465Y1015294D01*
X870265Y1015694D01*
X869865Y1014894D01*
X870265Y1014094D01*
X869465Y1014494D01*
X868665Y1014094D01*
X864728D02*
X865128Y1014894D01*
X864728Y1015694D01*
X865528Y1015294D01*
X866328Y1015694D01*
X865928Y1014894D01*
X866328Y1014094D01*
X865528Y1014494D01*
X864728Y1014094D01*
X872208Y1012125D02*
X872608Y1012926D01*
X872208Y1013725D01*
X873008Y1013326D01*
X873808Y1013725D01*
X873408Y1012926D01*
X873808Y1012125D01*
X873008Y1012525D01*
X872208Y1012125D01*
X874570D02*
X874970Y1012926D01*
X874570Y1013725D01*
X875370Y1013326D01*
X876170Y1013725D01*
X875770Y1012926D01*
X876170Y1012125D01*
X875370Y1012525D01*
X874570Y1012125D01*
X900161Y1016850D02*
X900561Y1017650D01*
X900161Y1018450D01*
X900961Y1018050D01*
X901761Y1018450D01*
X901361Y1017650D01*
X901761Y1016850D01*
X900961Y1017250D01*
X900161Y1016850D01*
X910003Y984566D02*
X910403Y985367D01*
X910003Y986166D01*
X910803Y985767D01*
X911603Y986166D01*
X911203Y985367D01*
X911603Y984566D01*
X910803Y984966D01*
X910003Y984566D01*
X909610Y988897D02*
X910010Y989697D01*
X909610Y990497D01*
X910410Y990097D01*
X911210Y990497D01*
X910810Y989697D01*
X911210Y988897D01*
X910410Y989297D01*
X909610Y988897D01*
X859216Y992441D02*
X859616Y993241D01*
X859216Y994040D01*
X860016Y993641D01*
X860816Y994040D01*
X860416Y993241D01*
X860816Y992441D01*
X860016Y992840D01*
X859216Y992441D01*
X853310D02*
X853710Y993241D01*
X853310Y994040D01*
X854110Y993641D01*
X854910Y994040D01*
X854510Y993241D01*
X854910Y992441D01*
X854110Y992840D01*
X853310Y992441D01*
X915121Y890866D02*
X915522Y891666D01*
X915121Y892466D01*
X915921Y892066D01*
X916722Y892466D01*
X916321Y891666D01*
X916722Y890866D01*
X915921Y891266D01*
X915121Y890866D01*
X915515Y903464D02*
X915915Y904264D01*
X915515Y905064D01*
X916315Y904664D01*
X917115Y905064D01*
X916715Y904264D01*
X917115Y903464D01*
X916315Y903864D01*
X915515Y903464D01*
X862296Y905811D02*
X862696Y906611D01*
X862296Y907411D01*
X863096Y907011D01*
X863896Y907411D01*
X863496Y906611D01*
X863896Y905811D01*
X863096Y906211D01*
X862296Y905811D01*
X902917Y925905D02*
X903317Y926705D01*
X902917Y927505D01*
X903717Y927105D01*
X904517Y927505D01*
X904117Y926705D01*
X904517Y925905D01*
X903717Y926305D01*
X902917Y925905D01*
X892680Y918031D02*
X893081Y918831D01*
X892680Y919631D01*
X893480Y919231D01*
X894281Y919631D01*
X893880Y918831D01*
X894281Y918031D01*
X893480Y918431D01*
X892680Y918031D01*
Y926200D02*
X893081Y927000D01*
X892680Y927800D01*
X893480Y927400D01*
X894281Y927800D01*
X893880Y927000D01*
X894281Y926200D01*
X893480Y926600D01*
X892680Y926200D01*
X864334Y878661D02*
X864734Y879461D01*
X864334Y880261D01*
X865134Y879861D01*
X865934Y880261D01*
X865534Y879461D01*
X865934Y878661D01*
X865134Y879061D01*
X864334Y878661D01*
X845436Y632204D02*
X845836Y633004D01*
X845436Y633804D01*
X846236Y633404D01*
X847036Y633804D01*
X846636Y633004D01*
X847036Y632204D01*
X846236Y632604D01*
X845436Y632204D01*
X842287Y961732D02*
X842687Y962532D01*
X842287Y963332D01*
X843087Y962932D01*
X843887Y963332D01*
X843487Y962532D01*
X843887Y961732D01*
X843087Y962132D01*
X842287Y961732D01*
X898586Y845787D02*
X898986Y846587D01*
X898586Y847387D01*
X899386Y846987D01*
X900186Y847387D01*
X899786Y846587D01*
X900186Y845787D01*
X899386Y846187D01*
X898586Y845787D01*
Y835944D02*
X898986Y836744D01*
X898586Y837544D01*
X899386Y837144D01*
X900186Y837544D01*
X899786Y836744D01*
X900186Y835944D01*
X899386Y836344D01*
X898586Y835944D01*
X894255Y784566D02*
X894655Y785366D01*
X894255Y786166D01*
X895055Y785767D01*
X895855Y786166D01*
X895455Y785366D01*
X895855Y784566D01*
X895055Y784967D01*
X894255Y784566D01*
X863153Y934566D02*
X863553Y935367D01*
X863153Y936166D01*
X863953Y935767D01*
X864753Y936166D01*
X864353Y935367D01*
X864753Y934566D01*
X863953Y934966D01*
X863153Y934566D01*
X921027Y648346D02*
X921427Y649146D01*
X921027Y649946D01*
X921827Y649546D01*
X922627Y649946D01*
X922227Y649146D01*
X922627Y648346D01*
X921827Y648746D01*
X921027Y648346D01*
X897011Y772362D02*
X897411Y773162D01*
X897011Y773962D01*
X897811Y773562D01*
X898611Y773962D01*
X898211Y773162D01*
X898611Y772362D01*
X897811Y772762D01*
X897011Y772362D01*
X940712D02*
X941112Y773162D01*
X940712Y773962D01*
X941512Y773562D01*
X942312Y773962D01*
X941912Y773162D01*
X942312Y772362D01*
X941512Y772762D01*
X940712Y772362D01*
Y665275D02*
X941112Y666075D01*
X940712Y666875D01*
X941512Y666475D01*
X942312Y666875D01*
X941912Y666075D01*
X942312Y665275D01*
X941512Y665675D01*
X940712Y665275D01*
X892287Y847952D02*
X892687Y848752D01*
X892287Y849552D01*
X893087Y849152D01*
X893887Y849552D01*
X893487Y848752D01*
X893887Y847952D01*
X893087Y848352D01*
X892287Y847952D01*
Y842834D02*
X892687Y843634D01*
X892287Y844434D01*
X893087Y844034D01*
X893887Y844434D01*
X893487Y843634D01*
X893887Y842834D01*
X893087Y843234D01*
X892287Y842834D01*
X884807Y866456D02*
X885207Y867256D01*
X884807Y868056D01*
X885606Y867656D01*
X886407Y868056D01*
X886007Y867256D01*
X886407Y866456D01*
X885606Y866856D01*
X884807Y866456D01*
X837562Y901889D02*
X837962Y902689D01*
X837562Y903489D01*
X838362Y903089D01*
X839162Y903489D01*
X838762Y902689D01*
X839162Y901889D01*
X838362Y902289D01*
X837562Y901889D01*
X927720Y634566D02*
X928120Y635366D01*
X927720Y636166D01*
X928520Y635767D01*
X929320Y636166D01*
X928920Y635366D01*
X929320Y634566D01*
X928520Y634967D01*
X927720Y634566D01*
X901342Y786535D02*
X901742Y787335D01*
X901342Y788135D01*
X902142Y787735D01*
X902942Y788135D01*
X902542Y787335D01*
X902942Y786535D01*
X902142Y786935D01*
X901342Y786535D01*
X861972Y620393D02*
X862372Y621193D01*
X861972Y621993D01*
X862772Y621593D01*
X863572Y621993D01*
X863172Y621193D01*
X863572Y620393D01*
X862772Y620793D01*
X861972Y620393D01*
Y624330D02*
X862372Y625130D01*
X861972Y625930D01*
X862772Y625530D01*
X863572Y625930D01*
X863172Y625130D01*
X863572Y624330D01*
X862772Y624730D01*
X861972Y624330D01*
X848192Y623937D02*
X848592Y624736D01*
X848192Y625536D01*
X848992Y625137D01*
X849792Y625536D01*
X849392Y624736D01*
X849792Y623937D01*
X848992Y624336D01*
X848192Y623937D01*
X852523Y626299D02*
X852923Y627099D01*
X852523Y627899D01*
X853323Y627499D01*
X854123Y627899D01*
X853723Y627099D01*
X854123Y626299D01*
X853323Y626699D01*
X852523Y626299D01*
Y632204D02*
X852923Y633004D01*
X852523Y633804D01*
X853323Y633404D01*
X854123Y633804D01*
X853723Y633004D01*
X854123Y632204D01*
X853323Y632604D01*
X852523Y632204D01*
X848192Y619606D02*
X848592Y620406D01*
X848192Y621206D01*
X848992Y620806D01*
X849792Y621206D01*
X849392Y620406D01*
X849792Y619606D01*
X848992Y620006D01*
X848192Y619606D01*
X935594Y968425D02*
X935994Y969225D01*
X935594Y970025D01*
X936394Y969625D01*
X937194Y970025D01*
X936794Y969225D01*
X937194Y968425D01*
X936394Y968825D01*
X935594Y968425D01*
Y964488D02*
X935994Y965288D01*
X935594Y966088D01*
X936394Y965688D01*
X937194Y966088D01*
X936794Y965288D01*
X937194Y964488D01*
X936394Y964888D01*
X935594Y964488D01*
Y960551D02*
X935994Y961351D01*
X935594Y962151D01*
X936394Y961751D01*
X937194Y962151D01*
X936794Y961351D01*
X937194Y960551D01*
X936394Y960951D01*
X935594Y960551D01*
Y956220D02*
X935994Y957020D01*
X935594Y957820D01*
X936394Y957420D01*
X937194Y957820D01*
X936794Y957020D01*
X937194Y956220D01*
X936394Y956620D01*
X935594Y956220D01*
Y951889D02*
X935994Y952689D01*
X935594Y953489D01*
X936394Y953089D01*
X937194Y953489D01*
X936794Y952689D01*
X937194Y951889D01*
X936394Y952289D01*
X935594Y951889D01*
X925751Y945196D02*
X926151Y945996D01*
X925751Y946796D01*
X926551Y946396D01*
X927351Y946796D01*
X926951Y945996D01*
X927351Y945196D01*
X926551Y945596D01*
X925751Y945196D01*
X931657Y948740D02*
X932057Y949540D01*
X931657Y950340D01*
X932457Y949940D01*
X933257Y950340D01*
X932857Y949540D01*
X933257Y948740D01*
X932457Y949140D01*
X931657Y948740D01*
X927720D02*
X928120Y949540D01*
X927720Y950340D01*
X928520Y949940D01*
X929320Y950340D01*
X928920Y949540D01*
X929320Y948740D01*
X928520Y949140D01*
X927720Y948740D01*
X923783D02*
X924183Y949540D01*
X923783Y950340D01*
X924583Y949940D01*
X925383Y950340D01*
X924983Y949540D01*
X925383Y948740D01*
X924583Y949140D01*
X923783Y948740D01*
X929688Y945196D02*
X930088Y945996D01*
X929688Y946796D01*
X930488Y946396D01*
X931288Y946796D01*
X930888Y945996D01*
X931288Y945196D01*
X930488Y945596D01*
X929688Y945196D01*
X915909Y968031D02*
X916309Y968831D01*
X915909Y969631D01*
X916709Y969231D01*
X917509Y969631D01*
X917109Y968831D01*
X917509Y968031D01*
X916709Y968431D01*
X915909Y968031D01*
X924570Y960551D02*
X924970Y961351D01*
X924570Y962151D01*
X925370Y961751D01*
X926170Y962151D01*
X925770Y961351D01*
X926170Y960551D01*
X925370Y960951D01*
X924570Y960551D01*
X920633D02*
X921033Y961351D01*
X920633Y962151D01*
X921433Y961751D01*
X922233Y962151D01*
X921833Y961351D01*
X922233Y960551D01*
X921433Y960951D01*
X920633Y960551D01*
X922602D02*
X923002Y961351D01*
X922602Y962151D01*
X923402Y961751D01*
X924202Y962151D01*
X923802Y961351D01*
X924202Y960551D01*
X923402Y960951D01*
X922602Y960551D01*
X930673Y962322D02*
X931073Y963122D01*
X930673Y963922D01*
X931473Y963522D01*
X932273Y963922D01*
X931873Y963122D01*
X932273Y962322D01*
X931473Y962722D01*
X930673Y962322D01*
Y964291D02*
X931073Y965091D01*
X930673Y965891D01*
X931473Y965491D01*
X932273Y965891D01*
X931873Y965091D01*
X932273Y964291D01*
X931473Y964691D01*
X930673Y964291D01*
Y960354D02*
X931073Y961154D01*
X930673Y961954D01*
X931473Y961554D01*
X932273Y961954D01*
X931873Y961154D01*
X932273Y960354D01*
X931473Y960754D01*
X930673Y960354D01*
X878507Y988129D02*
X878907Y988929D01*
X878507Y989729D01*
X879307Y989329D01*
X880107Y989729D01*
X879707Y988929D01*
X880107Y988129D01*
X879307Y988529D01*
X878507Y988129D01*
X885560Y830811D02*
X885960Y831611D01*
X885560Y832411D01*
X886360Y832011D01*
X887160Y832411D01*
X886760Y831611D01*
X887160Y830811D01*
X886360Y831211D01*
X885560Y830811D01*
X891296Y830833D02*
X891696Y831633D01*
X891296Y832433D01*
X892096Y832033D01*
X892896Y832433D01*
X892496Y831633D01*
X892896Y830833D01*
X892096Y831233D01*
X891296Y830833D01*
X902129Y936929D02*
X902529Y937729D01*
X902129Y938529D01*
X902929Y938129D01*
X903729Y938529D01*
X903329Y937729D01*
X903729Y936929D01*
X902929Y937329D01*
X902129Y936929D01*
X922995Y934566D02*
X923396Y935367D01*
X922995Y936166D01*
X923796Y935767D01*
X924596Y936166D01*
X924195Y935367D01*
X924596Y934566D01*
X923796Y934966D01*
X922995Y934566D01*
X927720Y816063D02*
X928120Y816862D01*
X927720Y817663D01*
X928520Y817262D01*
X929320Y817663D01*
X928920Y816862D01*
X929320Y816063D01*
X928520Y816463D01*
X927720Y816063D01*
X930476Y812519D02*
X930876Y813319D01*
X930476Y814119D01*
X931276Y813719D01*
X932076Y814119D01*
X931676Y813319D01*
X932076Y812519D01*
X931276Y812919D01*
X930476Y812519D01*
X932838Y797559D02*
X933238Y798359D01*
X932838Y799159D01*
X933638Y798759D01*
X934438Y799159D01*
X934038Y798359D01*
X934438Y797559D01*
X933638Y797959D01*
X932838Y797559D01*
X930673Y794803D02*
X931073Y795603D01*
X930673Y796403D01*
X931473Y796003D01*
X932273Y796403D01*
X931873Y795603D01*
X932273Y794803D01*
X931473Y795203D01*
X930673Y794803D01*
X934019Y801102D02*
X934419Y801902D01*
X934019Y802702D01*
X934819Y802302D01*
X935619Y802702D01*
X935219Y801902D01*
X935619Y801102D01*
X934819Y801502D01*
X934019Y801102D01*
X914334Y714094D02*
X914734Y714894D01*
X914334Y715694D01*
X915134Y715294D01*
X915934Y715694D01*
X915534Y714894D01*
X915934Y714094D01*
X915134Y714494D01*
X914334Y714094D01*
X914728Y708582D02*
X915128Y709382D01*
X914728Y710182D01*
X915528Y709782D01*
X916328Y710182D01*
X915928Y709382D01*
X916328Y708582D01*
X915528Y708982D01*
X914728Y708582D01*
X922503Y708976D02*
X922903Y709776D01*
X922503Y710576D01*
X923303Y710176D01*
X924103Y710576D01*
X923703Y709776D01*
X924103Y708976D01*
X923303Y709376D01*
X922503Y708976D01*
X915515Y703858D02*
X915915Y704658D01*
X915515Y705458D01*
X916315Y705058D01*
X917115Y705458D01*
X916715Y704658D01*
X917115Y703858D01*
X916315Y704258D01*
X915515Y703858D01*
X939531Y911338D02*
X939931Y912138D01*
X939531Y912938D01*
X940331Y912538D01*
X941131Y912938D01*
X940731Y912138D01*
X941131Y911338D01*
X940331Y911738D01*
X939531Y911338D01*
X939137Y933385D02*
X939537Y934185D01*
X939137Y934985D01*
X939937Y934585D01*
X940737Y934985D01*
X940337Y934185D01*
X940737Y933385D01*
X939937Y933785D01*
X939137Y933385D01*
X935988Y940472D02*
X936388Y941272D01*
X935988Y942072D01*
X936788Y941672D01*
X937588Y942072D01*
X937188Y941272D01*
X937588Y940472D01*
X936788Y940872D01*
X935988Y940472D01*
X936775Y870787D02*
X937175Y871587D01*
X936775Y872387D01*
X937575Y871987D01*
X938375Y872387D01*
X937975Y871587D01*
X938375Y870787D01*
X937575Y871187D01*
X936775Y870787D01*
X897405Y1002283D02*
X897805Y1003083D01*
X897405Y1003883D01*
X898205Y1003483D01*
X899005Y1003883D01*
X898605Y1003083D01*
X899005Y1002283D01*
X898205Y1002683D01*
X897405Y1002283D01*
X890318D02*
X890718Y1003083D01*
X890318Y1003883D01*
X891118Y1003483D01*
X891918Y1003883D01*
X891518Y1003083D01*
X891918Y1002283D01*
X891118Y1002683D01*
X890318Y1002283D01*
X893074D02*
X893474Y1003083D01*
X893074Y1003883D01*
X893874Y1003483D01*
X894674Y1003883D01*
X894274Y1003083D01*
X894674Y1002283D01*
X893874Y1002683D01*
X893074Y1002283D01*
X863153Y979055D02*
X863553Y979855D01*
X863153Y980655D01*
X863953Y980255D01*
X864753Y980655D01*
X864353Y979855D01*
X864753Y979055D01*
X863953Y979455D01*
X863153Y979055D01*
X922602Y668425D02*
X923002Y669225D01*
X922602Y670025D01*
X923402Y669625D01*
X924202Y670025D01*
X923802Y669225D01*
X924202Y668425D01*
X923402Y668825D01*
X922602Y668425D01*
X941893Y627086D02*
X942293Y627886D01*
X941893Y628686D01*
X942693Y628286D01*
X943493Y628686D01*
X943093Y627886D01*
X943493Y627086D01*
X942693Y627486D01*
X941893Y627086D01*
X906854Y624724D02*
X907254Y625524D01*
X906854Y626324D01*
X907654Y625924D01*
X908454Y626324D01*
X908054Y625524D01*
X908454Y624724D01*
X907654Y625124D01*
X906854Y624724D01*
X848586Y865669D02*
X848986Y866469D01*
X848586Y867269D01*
X849386Y866869D01*
X850186Y867269D01*
X849786Y866469D01*
X850186Y865669D01*
X849386Y866069D01*
X848586Y865669D01*
X863153Y862125D02*
X863553Y862926D01*
X863153Y863725D01*
X863953Y863326D01*
X864753Y863725D01*
X864353Y862926D01*
X864753Y862125D01*
X863953Y862525D01*
X863153Y862125D01*
X854098D02*
X854498Y862926D01*
X854098Y863725D01*
X854898Y863326D01*
X855698Y863725D01*
X855298Y862926D01*
X855698Y862125D01*
X854898Y862525D01*
X854098Y862125D01*
Y868031D02*
X854498Y868831D01*
X854098Y869631D01*
X854898Y869231D01*
X855698Y869631D01*
X855298Y868831D01*
X855698Y868031D01*
X854898Y868431D01*
X854098Y868031D01*
X840318Y859257D02*
X840718Y860057D01*
X840318Y860857D01*
X841118Y860457D01*
X841918Y860857D01*
X841518Y860057D01*
X841918Y859257D01*
X841118Y859657D01*
X840318Y859257D01*
X930082Y868031D02*
X930482Y868831D01*
X930082Y869631D01*
X930882Y869231D01*
X931682Y869631D01*
X931282Y868831D01*
X931682Y868031D01*
X930882Y868431D01*
X930082Y868031D01*
X923783Y867637D02*
X924183Y868437D01*
X923783Y869237D01*
X924583Y868837D01*
X925383Y869237D01*
X924983Y868437D01*
X925383Y867637D01*
X924583Y868037D01*
X923783Y867637D01*
X930082Y875905D02*
X930482Y876705D01*
X930082Y877505D01*
X930882Y877105D01*
X931682Y877505D01*
X931282Y876705D01*
X931682Y875905D01*
X930882Y876305D01*
X930082Y875905D01*
X927326Y881810D02*
X927726Y882611D01*
X927326Y883410D01*
X928126Y883010D01*
X928926Y883410D01*
X928526Y882611D01*
X928926Y881810D01*
X928126Y882211D01*
X927326Y881810D01*
X931657D02*
X932057Y882611D01*
X931657Y883410D01*
X932457Y883010D01*
X933257Y883410D01*
X932857Y882611D01*
X933257Y881810D01*
X932457Y882211D01*
X931657Y881810D01*
X936381Y878661D02*
X936781Y879461D01*
X936381Y880261D01*
X937181Y879861D01*
X937981Y880261D01*
X937581Y879461D01*
X937981Y878661D01*
X937181Y879061D01*
X936381Y878661D01*
X919452Y874724D02*
X919852Y875524D01*
X919452Y876324D01*
X920252Y875924D01*
X921052Y876324D01*
X920652Y875524D01*
X921052Y874724D01*
X920252Y875124D01*
X919452Y874724D01*
X868271Y814488D02*
X868671Y815288D01*
X868271Y816088D01*
X869071Y815688D01*
X869871Y816088D01*
X869471Y815288D01*
X869871Y814488D01*
X869071Y814888D01*
X868271Y814488D01*
Y800315D02*
X868671Y801114D01*
X868271Y801915D01*
X869071Y801515D01*
X869871Y801915D01*
X869471Y801114D01*
X869871Y800315D01*
X869071Y800714D01*
X868271Y800315D01*
Y805039D02*
X868671Y805839D01*
X868271Y806639D01*
X869071Y806239D01*
X869871Y806639D01*
X869471Y805839D01*
X869871Y805039D01*
X869071Y805439D01*
X868271Y805039D01*
Y809763D02*
X868671Y810563D01*
X868271Y811363D01*
X869071Y810963D01*
X869871Y811363D01*
X869471Y810563D01*
X869871Y809763D01*
X869071Y810163D01*
X868271Y809763D01*
X863547Y814488D02*
X863947Y815288D01*
X863547Y816088D01*
X864347Y815688D01*
X865147Y816088D01*
X864747Y815288D01*
X865147Y814488D01*
X864347Y814888D01*
X863547Y814488D01*
Y800315D02*
X863947Y801114D01*
X863547Y801915D01*
X864347Y801515D01*
X865147Y801915D01*
X864747Y801114D01*
X865147Y800315D01*
X864347Y800714D01*
X863547Y800315D01*
Y805039D02*
X863947Y805839D01*
X863547Y806639D01*
X864347Y806239D01*
X865147Y806639D01*
X864747Y805839D01*
X865147Y805039D01*
X864347Y805439D01*
X863547Y805039D01*
Y809763D02*
X863947Y810563D01*
X863547Y811363D01*
X864347Y810963D01*
X865147Y811363D01*
X864747Y810563D01*
X865147Y809763D01*
X864347Y810163D01*
X863547Y809763D01*
X869452Y782204D02*
X869852Y783004D01*
X869452Y783804D01*
X870252Y783404D01*
X871052Y783804D01*
X870652Y783004D01*
X871052Y782204D01*
X870252Y782604D01*
X869452Y782204D01*
X873783Y784566D02*
X874183Y785366D01*
X873783Y786166D01*
X874583Y785767D01*
X875383Y786166D01*
X874983Y785366D01*
X875383Y784566D01*
X874583Y784967D01*
X873783Y784566D01*
X858822Y814488D02*
X859222Y815288D01*
X858822Y816088D01*
X859622Y815688D01*
X860422Y816088D01*
X860022Y815288D01*
X860422Y814488D01*
X859622Y814888D01*
X858822Y814488D01*
Y800315D02*
X859222Y801114D01*
X858822Y801915D01*
X859622Y801515D01*
X860422Y801915D01*
X860022Y801114D01*
X860422Y800315D01*
X859622Y800714D01*
X858822Y800315D01*
Y805039D02*
X859222Y805839D01*
X858822Y806639D01*
X859622Y806239D01*
X860422Y806639D01*
X860022Y805839D01*
X860422Y805039D01*
X859622Y805439D01*
X858822Y805039D01*
Y809763D02*
X859222Y810563D01*
X858822Y811363D01*
X859622Y810963D01*
X860422Y811363D01*
X860022Y810563D01*
X860422Y809763D01*
X859622Y810163D01*
X858822Y809763D01*
X854098D02*
X854498Y810563D01*
X854098Y811363D01*
X854898Y810963D01*
X855698Y811363D01*
X855298Y810563D01*
X855698Y809763D01*
X854898Y810163D01*
X854098Y809763D01*
Y805039D02*
X854498Y805839D01*
X854098Y806639D01*
X854898Y806239D01*
X855698Y806639D01*
X855298Y805839D01*
X855698Y805039D01*
X854898Y805439D01*
X854098Y805039D01*
Y800315D02*
X854498Y801114D01*
X854098Y801915D01*
X854898Y801515D01*
X855698Y801915D01*
X855298Y801114D01*
X855698Y800315D01*
X854898Y800714D01*
X854098Y800315D01*
Y814488D02*
X854498Y815288D01*
X854098Y816088D01*
X854898Y815688D01*
X855698Y816088D01*
X855298Y815288D01*
X855698Y814488D01*
X854898Y814888D01*
X854098Y814488D01*
X849374Y800315D02*
X849774Y801114D01*
X849374Y801915D01*
X850173Y801515D01*
X850974Y801915D01*
X850574Y801114D01*
X850974Y800315D01*
X850173Y800714D01*
X849374Y800315D01*
Y805039D02*
X849774Y805839D01*
X849374Y806639D01*
X850173Y806239D01*
X850974Y806639D01*
X850574Y805839D01*
X850974Y805039D01*
X850173Y805439D01*
X849374Y805039D01*
Y809763D02*
X849774Y810563D01*
X849374Y811363D01*
X850173Y810963D01*
X850974Y811363D01*
X850574Y810563D01*
X850974Y809763D01*
X850173Y810163D01*
X849374Y809763D01*
Y814488D02*
X849774Y815288D01*
X849374Y816088D01*
X850173Y815688D01*
X850974Y816088D01*
X850574Y815288D01*
X850974Y814488D01*
X850173Y814888D01*
X849374Y814488D01*
X821814Y812519D02*
X822214Y813319D01*
X821814Y814119D01*
X822614Y813719D01*
X823414Y814119D01*
X823014Y813319D01*
X823414Y812519D01*
X822614Y812919D01*
X821814Y812519D01*
Y807007D02*
X822214Y807807D01*
X821814Y808607D01*
X822614Y808207D01*
X823414Y808607D01*
X823014Y807807D01*
X823414Y807007D01*
X822614Y807407D01*
X821814Y807007D01*
Y801889D02*
X822214Y802689D01*
X821814Y803489D01*
X822614Y803089D01*
X823414Y803489D01*
X823014Y802689D01*
X823414Y801889D01*
X822614Y802289D01*
X821814Y801889D01*
Y786535D02*
X822214Y787335D01*
X821814Y788135D01*
X822614Y787735D01*
X823414Y788135D01*
X823014Y787335D01*
X823414Y786535D01*
X822614Y786935D01*
X821814Y786535D01*
Y791259D02*
X822214Y792059D01*
X821814Y792859D01*
X822614Y792459D01*
X823414Y792859D01*
X823014Y792059D01*
X823414Y791259D01*
X822614Y791659D01*
X821814Y791259D01*
X941106Y651889D02*
X941506Y652689D01*
X941106Y653489D01*
X941906Y653089D01*
X942706Y653489D01*
X942306Y652689D01*
X942706Y651889D01*
X941906Y652289D01*
X941106Y651889D01*
X872208Y710944D02*
X872608Y711744D01*
X872208Y712544D01*
X873008Y712144D01*
X873808Y712544D01*
X873408Y711744D01*
X873808Y710944D01*
X873008Y711344D01*
X872208Y710944D01*
X918271Y732992D02*
X918671Y733792D01*
X918271Y734592D01*
X919071Y734192D01*
X919871Y734592D01*
X919471Y733792D01*
X919871Y732992D01*
X919071Y733392D01*
X918271Y732992D01*
X914334D02*
X914734Y733792D01*
X914334Y734592D01*
X915134Y734192D01*
X915934Y734592D01*
X915534Y733792D01*
X915934Y732992D01*
X915134Y733392D01*
X914334Y732992D01*
X841893Y817637D02*
X842293Y818437D01*
X841893Y819237D01*
X842693Y818837D01*
X843493Y819237D01*
X843093Y818437D01*
X843493Y817637D01*
X842693Y818037D01*
X841893Y817637D01*
X837956Y817637D02*
X838356Y818437D01*
X837956Y819237D01*
X838756Y818837D01*
X839556Y819237D01*
X839156Y818437D01*
X839556Y817637D01*
X838756Y818037D01*
X837956Y817637D01*
Y813700D02*
X838356Y814500D01*
X837956Y815300D01*
X838756Y814900D01*
X839556Y815300D01*
X839156Y814500D01*
X839556Y813700D01*
X838756Y814100D01*
X837956Y813700D01*
X841893Y805826D02*
X842293Y806626D01*
X841893Y807426D01*
X842693Y807026D01*
X843493Y807426D01*
X843093Y806626D01*
X843493Y805826D01*
X842693Y806226D01*
X841893Y805826D01*
X837956Y809763D02*
X838356Y810563D01*
X837956Y811363D01*
X838756Y810963D01*
X839556Y811363D01*
X839156Y810563D01*
X839556Y809763D01*
X838756Y810163D01*
X837956Y809763D01*
Y805826D02*
X838356Y806626D01*
X837956Y807426D01*
X838756Y807026D01*
X839556Y807426D01*
X839156Y806626D01*
X839556Y805826D01*
X838756Y806226D01*
X837956Y805826D01*
Y801889D02*
X838356Y802689D01*
X837956Y803489D01*
X838756Y803089D01*
X839556Y803489D01*
X839156Y802689D01*
X839556Y801889D01*
X838756Y802289D01*
X837956Y801889D01*
Y797952D02*
X838356Y798752D01*
X837956Y799552D01*
X838756Y799152D01*
X839556Y799552D01*
X839156Y798752D01*
X839556Y797952D01*
X838756Y798352D01*
X837956Y797952D01*
Y794015D02*
X838356Y794815D01*
X837956Y795615D01*
X838756Y795215D01*
X839556Y795615D01*
X839156Y794815D01*
X839556Y794015D01*
X838756Y794415D01*
X837956Y794015D01*
X907248Y800708D02*
X907648Y801508D01*
X907248Y802308D01*
X908047Y801908D01*
X908848Y802308D01*
X908447Y801508D01*
X908848Y800708D01*
X908047Y801108D01*
X907248Y800708D01*
X904492Y802283D02*
X904892Y803083D01*
X904492Y803883D01*
X905292Y803483D01*
X906092Y803883D01*
X905692Y803083D01*
X906092Y802283D01*
X905292Y802683D01*
X904492Y802283D01*
X894649Y797559D02*
X895049Y798359D01*
X894649Y799159D01*
X895449Y798759D01*
X896249Y799159D01*
X895849Y798359D01*
X896249Y797559D01*
X895449Y797959D01*
X894649Y797559D01*
X894255Y802283D02*
X894655Y803083D01*
X894255Y803883D01*
X895055Y803483D01*
X895855Y803883D01*
X895455Y803083D01*
X895855Y802283D01*
X895055Y802683D01*
X894255Y802283D01*
X901342D02*
X901742Y803083D01*
X901342Y803883D01*
X902142Y803483D01*
X902942Y803883D01*
X902542Y803083D01*
X902942Y802283D01*
X902142Y802683D01*
X901342Y802283D01*
X898586Y798346D02*
X898986Y799146D01*
X898586Y799946D01*
X899386Y799546D01*
X900186Y799946D01*
X899786Y799146D01*
X900186Y798346D01*
X899386Y798746D01*
X898586Y798346D01*
X905673Y794015D02*
X906073Y794815D01*
X905673Y795615D01*
X906473Y795215D01*
X907273Y795615D01*
X906873Y794815D01*
X907273Y794015D01*
X906473Y794415D01*
X905673Y794015D01*
Y790866D02*
X906073Y791666D01*
X905673Y792466D01*
X906473Y792066D01*
X907273Y792466D01*
X906873Y791666D01*
X907273Y790866D01*
X906473Y791266D01*
X905673Y790866D01*
X887759Y651299D02*
X888159Y652099D01*
X887759Y652899D01*
X888559Y652499D01*
X889359Y652899D01*
X888959Y652099D01*
X889359Y651299D01*
X888559Y651699D01*
X887759Y651299D01*
X885988Y655433D02*
X886388Y656233D01*
X885988Y657033D01*
X886788Y656633D01*
X887588Y657033D01*
X887188Y656233D01*
X887588Y655433D01*
X886788Y655833D01*
X885988Y655433D01*
X934019Y734960D02*
X934419Y735760D01*
X934019Y736560D01*
X934819Y736160D01*
X935619Y736560D01*
X935219Y735760D01*
X935619Y734960D01*
X934819Y735360D01*
X934019Y734960D01*
X906460Y731023D02*
X906860Y731823D01*
X906460Y732623D01*
X907260Y732223D01*
X908060Y732623D01*
X907660Y731823D01*
X908060Y731023D01*
X907260Y731423D01*
X906460Y731023D01*
X854492Y718031D02*
X854892Y718831D01*
X854492Y719631D01*
X855292Y719231D01*
X856092Y719631D01*
X855692Y718831D01*
X856092Y718031D01*
X855292Y718431D01*
X854492Y718031D01*
X856678Y766852D02*
X857078Y767652D01*
X856678Y768452D01*
X857478Y768052D01*
X858278Y768452D01*
X857878Y767652D01*
X858278Y766852D01*
X857478Y767252D01*
X856678Y766852D01*
X861185Y766850D02*
X861584Y767650D01*
X861185Y768450D01*
X861985Y768050D01*
X862784Y768450D01*
X862385Y767650D01*
X862784Y766850D01*
X861985Y767250D01*
X861185Y766850D01*
X866303Y768031D02*
X866703Y768831D01*
X866303Y769631D01*
X867103Y769231D01*
X867903Y769631D01*
X867503Y768831D01*
X867903Y768031D01*
X867103Y768431D01*
X866303Y768031D01*
X871027Y769606D02*
X871427Y770406D01*
X871027Y771206D01*
X871827Y770806D01*
X872627Y771206D01*
X872227Y770406D01*
X872627Y769606D01*
X871827Y770006D01*
X871027Y769606D01*
X876145Y770000D02*
X876545Y770799D01*
X876145Y771599D01*
X876945Y771200D01*
X877745Y771599D01*
X877345Y770799D01*
X877745Y770000D01*
X876945Y770400D01*
X876145Y770000D01*
X932448Y775471D02*
X932848Y776271D01*
X932448Y777071D01*
X933248Y776671D01*
X934048Y777071D01*
X933648Y776271D01*
X934048Y775471D01*
X933248Y775871D01*
X932448Y775471D01*
X876539Y777874D02*
X876939Y778674D01*
X876539Y779473D01*
X877339Y779073D01*
X878139Y779473D01*
X877739Y778674D01*
X878139Y777874D01*
X877339Y778273D01*
X876539Y777874D01*
X890712Y782204D02*
X891112Y783004D01*
X890712Y783804D01*
X891512Y783404D01*
X892312Y783804D01*
X891912Y783004D01*
X892312Y782204D01*
X891512Y782604D01*
X890712Y782204D01*
X921027Y719212D02*
X921427Y720012D01*
X921027Y720812D01*
X921827Y720412D01*
X922627Y720812D01*
X922227Y720012D01*
X922627Y719212D01*
X921827Y719612D01*
X921027Y719212D01*
X911185Y723149D02*
X911584Y723949D01*
X911185Y724749D01*
X911985Y724349D01*
X912784Y724749D01*
X912385Y723949D01*
X912784Y723149D01*
X911985Y723549D01*
X911185Y723149D01*
X906854Y720787D02*
X907254Y721587D01*
X906854Y722387D01*
X907654Y721987D01*
X908454Y722387D01*
X908054Y721587D01*
X908454Y720787D01*
X907654Y721187D01*
X906854Y720787D01*
X910397Y708976D02*
X910797Y709776D01*
X910397Y710576D01*
X911197Y710176D01*
X911997Y710576D01*
X911597Y709776D01*
X911997Y708976D01*
X911197Y709376D01*
X910397Y708976D01*
X903704Y705039D02*
X904104Y705839D01*
X903704Y706639D01*
X904504Y706239D01*
X905304Y706639D01*
X904904Y705839D01*
X905304Y705039D01*
X904504Y705439D01*
X903704Y705039D01*
X935200Y826299D02*
X935600Y827099D01*
X935200Y827899D01*
X936000Y827499D01*
X936800Y827899D01*
X936400Y827099D01*
X936800Y826299D01*
X936000Y826699D01*
X935200Y826299D01*
X905279Y636141D02*
X905679Y636941D01*
X905279Y637741D01*
X906079Y637341D01*
X906879Y637741D01*
X906479Y636941D01*
X906879Y636141D01*
X906079Y636541D01*
X905279Y636141D01*
X906066Y659763D02*
X906466Y660563D01*
X906066Y661363D01*
X906866Y660963D01*
X907666Y661363D01*
X907266Y660563D01*
X907666Y659763D01*
X906866Y660163D01*
X906066Y659763D01*
X898980Y660157D02*
X899380Y660957D01*
X898980Y661757D01*
X899780Y661357D01*
X900580Y661757D01*
X900180Y660957D01*
X900580Y660157D01*
X899780Y660557D01*
X898980Y660157D01*
X893074Y659763D02*
X893474Y660563D01*
X893074Y661363D01*
X893874Y660963D01*
X894674Y661363D01*
X894274Y660563D01*
X894674Y659763D01*
X893874Y660163D01*
X893074Y659763D01*
X852129Y773937D02*
X852529Y774736D01*
X852129Y775536D01*
X852929Y775137D01*
X853729Y775536D01*
X853329Y774736D01*
X853729Y773937D01*
X852929Y774336D01*
X852129Y773937D01*
X848586Y724330D02*
X848986Y725130D01*
X848586Y725930D01*
X849386Y725530D01*
X850186Y725930D01*
X849786Y725130D01*
X850186Y724330D01*
X849386Y724730D01*
X848586Y724330D01*
X856854Y701889D02*
X857254Y702689D01*
X856854Y703489D01*
X857654Y703089D01*
X858454Y703489D01*
X858054Y702689D01*
X858454Y701889D01*
X857654Y702289D01*
X856854Y701889D01*
X852523Y703858D02*
X852923Y704658D01*
X852523Y705458D01*
X853323Y705058D01*
X854123Y705458D01*
X853723Y704658D01*
X854123Y703858D01*
X853323Y704258D01*
X852523Y703858D01*
X848980Y707007D02*
X849380Y707807D01*
X848980Y708607D01*
X849780Y708207D01*
X850580Y708607D01*
X850180Y707807D01*
X850580Y707007D01*
X849780Y707407D01*
X848980Y707007D01*
X844255Y714488D02*
X844655Y715288D01*
X844255Y716088D01*
X845055Y715688D01*
X845855Y716088D01*
X845455Y715288D01*
X845855Y714488D01*
X845055Y714888D01*
X844255Y714488D01*
X848192D02*
X848592Y715288D01*
X848192Y716088D01*
X848992Y715688D01*
X849792Y716088D01*
X849392Y715288D01*
X849792Y714488D01*
X848992Y714888D01*
X848192Y714488D01*
X850555Y710944D02*
X850955Y711744D01*
X850555Y712544D01*
X851355Y712144D01*
X852155Y712544D01*
X851755Y711744D01*
X852155Y710944D01*
X851355Y711344D01*
X850555Y710944D01*
X923389Y799449D02*
X923789Y800249D01*
X923389Y801049D01*
X924189Y800649D01*
X924989Y801049D01*
X924589Y800249D01*
X924989Y799449D01*
X924189Y799849D01*
X923389Y799449D01*
X929688Y823543D02*
X930088Y824343D01*
X929688Y825143D01*
X930488Y824743D01*
X931288Y825143D01*
X930888Y824343D01*
X931288Y823543D01*
X930488Y823943D01*
X929688Y823543D01*
X923389Y816456D02*
X923789Y817256D01*
X923389Y818056D01*
X924189Y817656D01*
X924989Y818056D01*
X924589Y817256D01*
X924989Y816456D01*
X924189Y816856D01*
X923389Y816456D01*
X836257Y821737D02*
X836657Y822537D01*
X836257Y823337D01*
X837057Y822937D01*
X837857Y823337D01*
X837457Y822537D01*
X837857Y821737D01*
X837057Y822137D01*
X836257Y821737D01*
X928114Y777480D02*
X928514Y778280D01*
X928114Y779080D01*
X928914Y778680D01*
X929714Y779080D01*
X929314Y778280D01*
X929714Y777480D01*
X928914Y777880D01*
X928114Y777480D01*
X909610Y858582D02*
X910010Y859382D01*
X909610Y860182D01*
X910410Y859782D01*
X911210Y860182D01*
X910810Y859382D01*
X911210Y858582D01*
X910410Y858982D01*
X909610Y858582D01*
X934413Y854645D02*
X934813Y855445D01*
X934413Y856245D01*
X935213Y855845D01*
X936013Y856245D01*
X935613Y855445D01*
X936013Y854645D01*
X935213Y855045D01*
X934413Y854645D01*
X858035Y853233D02*
X858435Y854033D01*
X858035Y854833D01*
X858835Y854433D01*
X859635Y854833D01*
X859235Y854033D01*
X859635Y853233D01*
X858835Y853633D01*
X858035Y853233D01*
X926933Y857401D02*
X927332Y858201D01*
X926933Y859001D01*
X927732Y858601D01*
X928533Y859001D01*
X928133Y858201D01*
X928533Y857401D01*
X927732Y857801D01*
X926933Y857401D01*
X907248Y862519D02*
X907648Y863319D01*
X907248Y864119D01*
X908047Y863719D01*
X908848Y864119D01*
X908447Y863319D01*
X908848Y862519D01*
X908047Y862919D01*
X907248Y862519D01*
X902523Y860551D02*
X902923Y861351D01*
X902523Y862151D01*
X903323Y861751D01*
X904123Y862151D01*
X903723Y861351D01*
X904123Y860551D01*
X903323Y860951D01*
X902523Y860551D01*
X909216Y866850D02*
X909616Y867650D01*
X909216Y868450D01*
X910016Y868050D01*
X910816Y868450D01*
X910416Y867650D01*
X910816Y866850D01*
X910016Y867250D01*
X909216Y866850D01*
X909610Y871181D02*
X910010Y871981D01*
X909610Y872781D01*
X910410Y872381D01*
X911210Y872781D01*
X910810Y871981D01*
X911210Y871181D01*
X910410Y871581D01*
X909610Y871181D01*
X913547Y675511D02*
X913947Y676311D01*
X913547Y677111D01*
X914347Y676711D01*
X915147Y677111D01*
X914747Y676311D01*
X915147Y675511D01*
X914347Y675911D01*
X913547Y675511D01*
X908035D02*
X908435Y676311D01*
X908035Y677111D01*
X908835Y676711D01*
X909635Y677111D01*
X909235Y676311D01*
X909635Y675511D01*
X908835Y675911D01*
X908035Y675511D01*
X893680Y720865D02*
X894081Y721665D01*
X893680Y722465D01*
X894481Y722065D01*
X895280Y722465D01*
X894880Y721665D01*
X895280Y720865D01*
X894481Y721265D01*
X893680Y720865D01*
X932444Y633385D02*
X932844Y634185D01*
X932444Y634985D01*
X933244Y634585D01*
X934044Y634985D01*
X933644Y634185D01*
X934044Y633385D01*
X933244Y633785D01*
X932444Y633385D01*
X937562Y629055D02*
X937962Y629855D01*
X937562Y630655D01*
X938362Y630255D01*
X939162Y630655D01*
X938762Y629855D01*
X939162Y629055D01*
X938362Y629455D01*
X937562Y629055D01*
X894649Y679007D02*
X895049Y679807D01*
X894649Y680607D01*
X895449Y680207D01*
X896249Y680607D01*
X895849Y679807D01*
X896249Y679007D01*
X895449Y679407D01*
X894649Y679007D01*
X936381Y781023D02*
X936781Y781823D01*
X936381Y782623D01*
X937181Y782223D01*
X937981Y782623D01*
X937581Y781823D01*
X937981Y781023D01*
X937181Y781423D01*
X936381Y781023D01*
X887858Y797977D02*
X888258Y798777D01*
X887858Y799577D01*
X888658Y799177D01*
X889458Y799577D01*
X889058Y798777D01*
X889458Y797977D01*
X888658Y798377D01*
X887858Y797977D01*
X827897Y661588D02*
X828297Y662388D01*
X827897Y663188D01*
X828697Y662788D01*
X829497Y663188D01*
X829097Y662388D01*
X829497Y661588D01*
X828697Y661988D01*
X827897Y661588D01*
X826145Y793228D02*
X826545Y794028D01*
X826145Y794828D01*
X826945Y794428D01*
X827745Y794828D01*
X827345Y794028D01*
X827745Y793228D01*
X826945Y793628D01*
X826145Y793228D01*
X845830Y641102D02*
X846230Y641902D01*
X845830Y642702D01*
X846630Y642302D01*
X847430Y642702D01*
X847030Y641902D01*
X847430Y641102D01*
X846630Y641502D01*
X845830Y641102D01*
X888350Y682598D02*
X888750Y683398D01*
X888350Y684198D01*
X889150Y683798D01*
X889950Y684198D01*
X889550Y683398D01*
X889950Y682598D01*
X889150Y682998D01*
X888350Y682598D01*
X932051Y679448D02*
X932451Y680248D01*
X932051Y681048D01*
X932851Y680648D01*
X933651Y681048D01*
X933251Y680248D01*
X933651Y679448D01*
X932851Y679848D01*
X932051Y679448D01*
X935988Y722755D02*
X936388Y723555D01*
X935988Y724355D01*
X936788Y723955D01*
X937588Y724355D01*
X937188Y723555D01*
X937588Y722755D01*
X936788Y723155D01*
X935988Y722755D01*
X934807Y687716D02*
X935207Y688516D01*
X934807Y689316D01*
X935606Y688916D01*
X936407Y689316D01*
X936007Y688516D01*
X936407Y687716D01*
X935606Y688116D01*
X934807Y687716D01*
X935200Y691259D02*
X935600Y692059D01*
X935200Y692859D01*
X936000Y692459D01*
X936800Y692859D01*
X936400Y692059D01*
X936800Y691259D01*
X936000Y691659D01*
X935200Y691259D01*
X933625Y684173D02*
X934025Y684973D01*
X933625Y685773D01*
X934425Y685373D01*
X935225Y685773D01*
X934825Y684973D01*
X935225Y684173D01*
X934425Y684573D01*
X933625Y684173D01*
X930082Y665669D02*
X930482Y666469D01*
X930082Y667269D01*
X930882Y666869D01*
X931682Y667269D01*
X931282Y666469D01*
X931682Y665669D01*
X930882Y666069D01*
X930082Y665669D01*
X918665Y668425D02*
X919065Y669225D01*
X918665Y670025D01*
X919465Y669625D01*
X920265Y670025D01*
X919865Y669225D01*
X920265Y668425D01*
X919465Y668825D01*
X918665Y668425D01*
X930476Y705039D02*
X930876Y705839D01*
X930476Y706639D01*
X931276Y706239D01*
X932076Y706639D01*
X931676Y705839D01*
X932076Y705039D01*
X931276Y705439D01*
X930476Y705039D01*
X916696Y774724D02*
X917096Y775524D01*
X916696Y776324D01*
X917496Y775924D01*
X918296Y776324D01*
X917896Y775524D01*
X918296Y774724D01*
X917496Y775124D01*
X916696Y774724D01*
X908822Y637322D02*
X909222Y638122D01*
X908822Y638922D01*
X909622Y638522D01*
X910422Y638922D01*
X910022Y638122D01*
X910422Y637322D01*
X909622Y637722D01*
X908822Y637322D01*
X911578Y634566D02*
X911978Y635366D01*
X911578Y636166D01*
X912378Y635767D01*
X913178Y636166D01*
X912778Y635366D01*
X913178Y634566D01*
X912378Y634967D01*
X911578Y634566D01*
X915515Y640472D02*
X915915Y641272D01*
X915515Y642072D01*
X916315Y641672D01*
X917115Y642072D01*
X916715Y641272D01*
X917115Y640472D01*
X916315Y640872D01*
X915515Y640472D01*
Y634566D02*
X915915Y635366D01*
X915515Y636166D01*
X916315Y635767D01*
X917115Y636166D01*
X916715Y635366D01*
X917115Y634566D01*
X916315Y634967D01*
X915515Y634566D01*
X887709Y686929D02*
X888109Y687729D01*
X887709Y688529D01*
X888509Y688129D01*
X889309Y688529D01*
X888909Y687729D01*
X889309Y686929D01*
X888509Y687329D01*
X887709Y686929D01*
X843074Y992441D02*
X843474Y993241D01*
X843074Y994040D01*
X843874Y993641D01*
X844674Y994040D01*
X844274Y993241D01*
X844674Y992441D01*
X843874Y992840D01*
X843074Y992441D01*
X845436Y983385D02*
X845836Y984185D01*
X845436Y984985D01*
X846236Y984585D01*
X847036Y984985D01*
X846636Y984185D01*
X847036Y983385D01*
X846236Y983785D01*
X845436Y983385D01*
Y979448D02*
X845836Y980248D01*
X845436Y981048D01*
X846236Y980648D01*
X847036Y981048D01*
X846636Y980248D01*
X847036Y979448D01*
X846236Y979848D01*
X845436Y979448D01*
X892425Y642224D02*
X892825Y643024D01*
X892425Y643824D01*
X893225Y643424D01*
X894025Y643824D01*
X893625Y643024D01*
X894025Y642224D01*
X893225Y642624D01*
X892425Y642224D01*
X866696Y852677D02*
X867096Y853477D01*
X866696Y854277D01*
X867496Y853877D01*
X868296Y854277D01*
X867896Y853477D01*
X868296Y852677D01*
X867496Y853077D01*
X866696Y852677D01*
X862366D02*
X862766Y853477D01*
X862366Y854277D01*
X863166Y853877D01*
X863966Y854277D01*
X863566Y853477D01*
X863966Y852677D01*
X863166Y853077D01*
X862366Y852677D01*
X901736Y884566D02*
X902136Y885367D01*
X901736Y886166D01*
X902536Y885767D01*
X903336Y886166D01*
X902936Y885367D01*
X903336Y884566D01*
X902536Y884966D01*
X901736Y884566D01*
X925751Y861338D02*
X926151Y862138D01*
X925751Y862938D01*
X926551Y862538D01*
X927351Y862938D01*
X926951Y862138D01*
X927351Y861338D01*
X926551Y861738D01*
X925751Y861338D01*
X912366Y951496D02*
X912766Y952296D01*
X912366Y953096D01*
X913166Y952696D01*
X913966Y953096D01*
X913566Y952296D01*
X913966Y951496D01*
X913166Y951896D01*
X912366Y951496D01*
X929707Y906185D02*
X930107Y906985D01*
X929707Y907785D01*
X930507Y907385D01*
X931307Y907785D01*
X930907Y906985D01*
X931307Y906185D01*
X930507Y906585D01*
X929707Y906185D01*
X831263Y894409D02*
X831663Y895209D01*
X831263Y896009D01*
X832063Y895609D01*
X832863Y896009D01*
X832463Y895209D01*
X832863Y894409D01*
X832063Y894809D01*
X831263Y894409D01*
X854492Y876692D02*
X854892Y877492D01*
X854492Y878292D01*
X855292Y877892D01*
X856092Y878292D01*
X855692Y877492D01*
X856092Y876692D01*
X855292Y877092D01*
X854492Y876692D01*
Y884566D02*
X854892Y885367D01*
X854492Y886166D01*
X855292Y885767D01*
X856092Y886166D01*
X855692Y885367D01*
X856092Y884566D01*
X855292Y884966D01*
X854492Y884566D01*
X928901Y798740D02*
X929301Y799540D01*
X928901Y800340D01*
X929701Y799940D01*
X930501Y800340D01*
X930101Y799540D01*
X930501Y798740D01*
X929701Y799140D01*
X928901Y798740D01*
X928899Y781187D02*
X929300Y781987D01*
X928899Y782787D01*
X929700Y782387D01*
X930499Y782787D01*
X930099Y781987D01*
X930499Y781187D01*
X929700Y781587D01*
X928899Y781187D01*
X932838Y789291D02*
X933238Y790091D01*
X932838Y790891D01*
X933638Y790491D01*
X934438Y790891D01*
X934038Y790091D01*
X934438Y789291D01*
X933638Y789691D01*
X932838Y789291D01*
X927894Y788678D02*
X928294Y789478D01*
X927894Y790278D01*
X928694Y789878D01*
X929494Y790278D01*
X929094Y789478D01*
X929494Y788678D01*
X928694Y789078D01*
X927894Y788678D01*
Y806394D02*
X928294Y807194D01*
X927894Y807994D01*
X928694Y807594D01*
X929494Y807994D01*
X929094Y807194D01*
X929494Y806394D01*
X928694Y806794D01*
X927894Y806394D01*
X932838Y807007D02*
X933238Y807807D01*
X932838Y808607D01*
X933638Y808207D01*
X934438Y808607D01*
X934038Y807807D01*
X934438Y807007D01*
X933638Y807407D01*
X932838Y807007D01*
X934558Y783385D02*
X934958Y784185D01*
X934558Y784985D01*
X935358Y784585D01*
X936158Y784985D01*
X935758Y784185D01*
X936158Y783385D01*
X935358Y783785D01*
X934558Y783385D01*
X922602Y899527D02*
X923002Y900327D01*
X922602Y901127D01*
X923402Y900727D01*
X924202Y901127D01*
X923802Y900327D01*
X924202Y899527D01*
X923402Y899927D01*
X922602Y899527D01*
X935200Y894803D02*
X935600Y895603D01*
X935200Y896403D01*
X936000Y896003D01*
X936800Y896403D01*
X936400Y895603D01*
X936800Y894803D01*
X936000Y895203D01*
X935200Y894803D01*
X937956Y888503D02*
X938356Y889303D01*
X937956Y890104D01*
X938756Y889703D01*
X939556Y890104D01*
X939156Y889303D01*
X939556Y888503D01*
X938756Y888904D01*
X937956Y888503D01*
X904492Y865669D02*
X904892Y866469D01*
X904492Y867269D01*
X905292Y866869D01*
X906092Y867269D01*
X905692Y866469D01*
X906092Y865669D01*
X905292Y866069D01*
X904492Y865669D01*
X899767Y888503D02*
X900167Y889303D01*
X899767Y890104D01*
X900567Y889703D01*
X901367Y890104D01*
X900967Y889303D01*
X901367Y888503D01*
X900567Y888904D01*
X899767Y888503D01*
X845436Y966063D02*
X845836Y966862D01*
X845436Y967663D01*
X846236Y967262D01*
X847036Y967663D01*
X846636Y966862D01*
X847036Y966063D01*
X846236Y966463D01*
X845436Y966063D01*
X847195Y956572D02*
X847595Y957372D01*
X847195Y958172D01*
X847995Y957772D01*
X848795Y958172D01*
X848395Y957372D01*
X848795Y956572D01*
X847995Y956972D01*
X847195Y956572D01*
X856066Y966063D02*
X856466Y966862D01*
X856066Y967663D01*
X856866Y967262D01*
X857666Y967663D01*
X857266Y966862D01*
X857666Y966063D01*
X856866Y966463D01*
X856066Y966063D01*
X825751Y971181D02*
X826151Y971981D01*
X825751Y972781D01*
X826551Y972381D01*
X827351Y972781D01*
X826951Y971981D01*
X827351Y971181D01*
X826551Y971581D01*
X825751Y971181D01*
Y962519D02*
X826151Y963319D01*
X825751Y964119D01*
X826551Y963719D01*
X827351Y964119D01*
X826951Y963319D01*
X827351Y962519D01*
X826551Y962919D01*
X825751Y962519D01*
X929688Y989685D02*
X930088Y990485D01*
X929688Y991285D01*
X930488Y990885D01*
X931288Y991285D01*
X930888Y990485D01*
X931288Y989685D01*
X930488Y990085D01*
X929688Y989685D01*
Y985748D02*
X930088Y986548D01*
X929688Y987348D01*
X930488Y986948D01*
X931288Y987348D01*
X930888Y986548D01*
X931288Y985748D01*
X930488Y986148D01*
X929688Y985748D01*
Y981810D02*
X930088Y982611D01*
X929688Y983410D01*
X930488Y983010D01*
X931288Y983410D01*
X930888Y982611D01*
X931288Y981810D01*
X930488Y982211D01*
X929688Y981810D01*
X927326Y974330D02*
X927726Y975130D01*
X927326Y975930D01*
X928126Y975530D01*
X928926Y975930D01*
X928526Y975130D01*
X928926Y974330D01*
X928126Y974730D01*
X927326Y974330D01*
Y978267D02*
X927726Y979067D01*
X927326Y979867D01*
X928126Y979467D01*
X928926Y979867D01*
X928526Y979067D01*
X928926Y978267D01*
X928126Y978667D01*
X927326Y978267D01*
X871814Y981023D02*
X872214Y981823D01*
X871814Y982623D01*
X872614Y982223D01*
X873414Y982623D01*
X873014Y981823D01*
X873414Y981023D01*
X872614Y981423D01*
X871814Y981023D01*
X884039Y986141D02*
X884439Y986941D01*
X884039Y987741D01*
X884839Y987341D01*
X885639Y987741D01*
X885239Y986941D01*
X885639Y986141D01*
X884839Y986541D01*
X884039Y986141D01*
X891106Y981023D02*
X891506Y981823D01*
X891106Y982623D01*
X891906Y982223D01*
X892706Y982623D01*
X892306Y981823D01*
X892706Y981023D01*
X891906Y981423D01*
X891106Y981023D01*
X898980D02*
X899380Y981823D01*
X898980Y982623D01*
X899780Y982223D01*
X900580Y982623D01*
X900180Y981823D01*
X900580Y981023D01*
X899780Y981423D01*
X898980Y981023D01*
X901342Y999133D02*
X901742Y999933D01*
X901342Y1000733D01*
X902142Y1000333D01*
X902942Y1000733D01*
X902542Y999933D01*
X902942Y999133D01*
X902142Y999533D01*
X901342Y999133D01*
X907641Y994015D02*
X908041Y994815D01*
X907641Y995615D01*
X908441Y995215D01*
X909241Y995615D01*
X908841Y994815D01*
X909241Y994015D01*
X908441Y994415D01*
X907641Y994015D01*
X835594Y992441D02*
X835994Y993241D01*
X835594Y994040D01*
X836394Y993641D01*
X837194Y994040D01*
X836794Y993241D01*
X837194Y992441D01*
X836394Y992840D01*
X835594Y992441D01*
X883625Y1006220D02*
X884025Y1007020D01*
X883625Y1007820D01*
X884425Y1007420D01*
X885225Y1007820D01*
X884825Y1007020D01*
X885225Y1006220D01*
X884425Y1006620D01*
X883625Y1006220D01*
X872995Y1002283D02*
X873396Y1003083D01*
X872995Y1003883D01*
X873796Y1003483D01*
X874596Y1003883D01*
X874195Y1003083D01*
X874596Y1002283D01*
X873796Y1002683D01*
X872995Y1002283D01*
X869846D02*
X870246Y1003083D01*
X869846Y1003883D01*
X870646Y1003483D01*
X871446Y1003883D01*
X871046Y1003083D01*
X871446Y1002283D01*
X870646Y1002683D01*
X869846Y1002283D01*
X870240Y988503D02*
X870640Y989303D01*
X870240Y990104D01*
X871040Y989703D01*
X871840Y990104D01*
X871440Y989303D01*
X871840Y988503D01*
X871040Y988904D01*
X870240Y988503D01*
X873389D02*
X873789Y989303D01*
X873389Y990104D01*
X874189Y989703D01*
X874989Y990104D01*
X874589Y989303D01*
X874989Y988503D01*
X874189Y988904D01*
X873389Y988503D01*
X877326Y1002283D02*
X877726Y1003083D01*
X877326Y1003883D01*
X878126Y1003483D01*
X878926Y1003883D01*
X878526Y1003083D01*
X878926Y1002283D01*
X878126Y1002683D01*
X877326Y1002283D01*
X889531Y988503D02*
X889931Y989303D01*
X889531Y990104D01*
X890331Y989703D01*
X891131Y990104D01*
X890731Y989303D01*
X891131Y988503D01*
X890331Y988904D01*
X889531Y988503D01*
X897405D02*
X897805Y989303D01*
X897405Y990104D01*
X898205Y989703D01*
X899005Y990104D01*
X898605Y989303D01*
X899005Y988503D01*
X898205Y988904D01*
X897405Y988503D01*
X893074D02*
X893474Y989303D01*
X893074Y990104D01*
X893874Y989703D01*
X894674Y990104D01*
X894274Y989303D01*
X894674Y988503D01*
X893874Y988904D01*
X893074Y988503D01*
X888350Y1008189D02*
X888750Y1008988D01*
X888350Y1009789D01*
X889150Y1009389D01*
X889950Y1009789D01*
X889550Y1008988D01*
X889950Y1008189D01*
X889150Y1008589D01*
X888350Y1008189D01*
Y1011732D02*
X888750Y1012532D01*
X888350Y1013332D01*
X889150Y1012932D01*
X889950Y1013332D01*
X889550Y1012532D01*
X889950Y1011732D01*
X889150Y1012132D01*
X888350Y1011732D01*
X842680Y918031D02*
X843081Y918831D01*
X842680Y919631D01*
X843480Y919231D01*
X844281Y919631D01*
X843880Y918831D01*
X844281Y918031D01*
X843480Y918431D01*
X842680Y918031D01*
Y921968D02*
X843081Y922768D01*
X842680Y923568D01*
X843480Y923168D01*
X844281Y923568D01*
X843880Y922768D01*
X844281Y921968D01*
X843480Y922368D01*
X842680Y921968D01*
Y925905D02*
X843081Y926705D01*
X842680Y927505D01*
X843480Y927105D01*
X844281Y927505D01*
X843880Y926705D01*
X844281Y925905D01*
X843480Y926305D01*
X842680Y925905D01*
X846618D02*
X847017Y926705D01*
X846618Y927505D01*
X847418Y927105D01*
X848217Y927505D01*
X847818Y926705D01*
X848217Y925905D01*
X847418Y926305D01*
X846618Y925905D01*
X850555Y926299D02*
X850955Y927099D01*
X850555Y927899D01*
X851355Y927499D01*
X852155Y927899D01*
X851755Y927099D01*
X852155Y926299D01*
X851355Y926699D01*
X850555Y926299D01*
X849767Y930236D02*
X850167Y931036D01*
X849767Y931836D01*
X850567Y931436D01*
X851367Y931836D01*
X850967Y931036D01*
X851367Y930236D01*
X850567Y930636D01*
X849767Y930236D01*
X897405Y925905D02*
X897805Y926705D01*
X897405Y927505D01*
X898205Y927105D01*
X899005Y927505D01*
X898605Y926705D01*
X899005Y925905D01*
X898205Y926305D01*
X897405Y925905D01*
X834019Y801889D02*
X834419Y802689D01*
X834019Y803489D01*
X834819Y803089D01*
X835619Y803489D01*
X835219Y802689D01*
X835619Y801889D01*
X834819Y802289D01*
X834019Y801889D01*
X830476D02*
X830876Y802689D01*
X830476Y803489D01*
X831276Y803089D01*
X832076Y803489D01*
X831676Y802689D01*
X832076Y801889D01*
X831276Y802289D01*
X830476Y801889D01*
X843862Y879448D02*
X844262Y880248D01*
X843862Y881048D01*
X844662Y880648D01*
X845462Y881048D01*
X845062Y880248D01*
X845462Y879448D01*
X844662Y879848D01*
X843862Y879448D01*
X859216Y882598D02*
X859616Y883398D01*
X859216Y884198D01*
X860016Y883798D01*
X860816Y884198D01*
X860416Y883398D01*
X860816Y882598D01*
X860016Y882998D01*
X859216Y882598D01*
X915909Y897952D02*
X916309Y898752D01*
X915909Y899552D01*
X916709Y899152D01*
X917509Y899552D01*
X917109Y898752D01*
X917509Y897952D01*
X916709Y898352D01*
X915909Y897952D01*
X924570Y908976D02*
X924970Y909776D01*
X924570Y910576D01*
X925370Y910176D01*
X926170Y910576D01*
X925770Y909776D01*
X926170Y908976D01*
X925370Y909376D01*
X924570Y908976D01*
X920633Y909370D02*
X921033Y910170D01*
X920633Y910970D01*
X921433Y910570D01*
X922233Y910970D01*
X921833Y910170D01*
X922233Y909370D01*
X921433Y909770D01*
X920633Y909370D01*
X834019Y781811D02*
X834419Y782611D01*
X834019Y783411D01*
X834819Y783010D01*
X835619Y783411D01*
X835219Y782611D01*
X835619Y781811D01*
X834819Y782210D01*
X834019Y781811D01*
X837956D02*
X838356Y782611D01*
X837956Y783411D01*
X838756Y783010D01*
X839556Y783411D01*
X839156Y782611D01*
X839556Y781811D01*
X838756Y782210D01*
X837956Y781811D01*
Y777874D02*
X838356Y778674D01*
X837956Y779473D01*
X838756Y779073D01*
X839556Y779473D01*
X839156Y778674D01*
X839556Y777874D01*
X838756Y778273D01*
X837956Y777874D01*
Y773937D02*
X838356Y774736D01*
X837956Y775536D01*
X838756Y775137D01*
X839556Y775536D01*
X839156Y774736D01*
X839556Y773937D01*
X838756Y774336D01*
X837956Y773937D01*
Y770000D02*
X838356Y770799D01*
X837956Y771599D01*
X838756Y771200D01*
X839556Y771599D01*
X839156Y770799D01*
X839556Y770000D01*
X838756Y770400D01*
X837956Y770000D01*
X841893D02*
X842293Y770799D01*
X841893Y771599D01*
X842693Y771200D01*
X843493Y771599D01*
X843093Y770799D01*
X843493Y770000D01*
X842693Y770400D01*
X841893Y770000D01*
X834807Y712125D02*
X835207Y712925D01*
X834807Y713726D01*
X835606Y713326D01*
X836407Y713726D01*
X836007Y712925D01*
X836407Y712125D01*
X835606Y712526D01*
X834807Y712125D01*
X830476Y850708D02*
X830876Y851508D01*
X830476Y852308D01*
X831276Y851908D01*
X832076Y852308D01*
X831676Y851508D01*
X832076Y850708D01*
X831276Y851108D01*
X830476Y850708D01*
Y856614D02*
X830876Y857414D01*
X830476Y858214D01*
X831276Y857814D01*
X832076Y858214D01*
X831676Y857414D01*
X832076Y856614D01*
X831276Y857014D01*
X830476Y856614D01*
X838743Y951496D02*
X839143Y952296D01*
X838743Y953096D01*
X839544Y952696D01*
X840343Y953096D01*
X839944Y952296D01*
X840343Y951496D01*
X839544Y951896D01*
X838743Y951496D01*
X846618Y951889D02*
X847017Y952689D01*
X846618Y953489D01*
X847418Y953089D01*
X848217Y953489D01*
X847818Y952689D01*
X848217Y951889D01*
X847418Y952289D01*
X846618Y951889D01*
X850555Y944015D02*
X850955Y944815D01*
X850555Y945615D01*
X851355Y945215D01*
X852155Y945615D01*
X851755Y944815D01*
X852155Y944015D01*
X851355Y944415D01*
X850555Y944015D01*
Y940866D02*
X850955Y941666D01*
X850555Y942466D01*
X851355Y942066D01*
X852155Y942466D01*
X851755Y941666D01*
X852155Y940866D01*
X851355Y941266D01*
X850555Y940866D01*
X831657Y941259D02*
X832057Y942059D01*
X831657Y942859D01*
X832457Y942459D01*
X833257Y942859D01*
X832857Y942059D01*
X833257Y941259D01*
X832457Y941659D01*
X831657Y941259D01*
X904492Y873936D02*
X904892Y874736D01*
X904492Y875537D01*
X905292Y875136D01*
X906092Y875537D01*
X905692Y874736D01*
X906092Y873936D01*
X905292Y874337D01*
X904492Y873936D01*
X871814Y896377D02*
X872214Y897178D01*
X871814Y897978D01*
X872614Y897577D01*
X873414Y897978D01*
X873014Y897178D01*
X873414Y896377D01*
X872614Y896778D01*
X871814Y896377D01*
X854492Y918031D02*
X854892Y918831D01*
X854492Y919631D01*
X855292Y919231D01*
X856092Y919631D01*
X855692Y918831D01*
X856092Y918031D01*
X855292Y918431D01*
X854492Y918031D01*
Y921968D02*
X854892Y922768D01*
X854492Y923568D01*
X855292Y923168D01*
X856092Y923568D01*
X855692Y922768D01*
X856092Y921968D01*
X855292Y922368D01*
X854492Y921968D01*
X853310Y930236D02*
X853710Y931036D01*
X853310Y931836D01*
X854111Y931436D01*
X854910Y931836D01*
X854510Y931036D01*
X854910Y930236D01*
X854111Y930636D01*
X853310Y930236D01*
X852129Y935354D02*
X852529Y936154D01*
X852129Y936954D01*
X852929Y936554D01*
X853729Y936954D01*
X853329Y936154D01*
X853729Y935354D01*
X852929Y935754D01*
X852129Y935354D01*
X859216Y843228D02*
X859616Y844028D01*
X859216Y844828D01*
X860016Y844428D01*
X860816Y844828D01*
X860416Y844028D01*
X860816Y843228D01*
X860016Y843628D01*
X859216Y843228D01*
X880082Y835748D02*
X880482Y836548D01*
X880082Y837348D01*
X880882Y836948D01*
X881682Y837348D01*
X881282Y836548D01*
X881682Y835748D01*
X880882Y836148D01*
X880082Y835748D01*
X874964Y840866D02*
X875364Y841666D01*
X874964Y842466D01*
X875764Y842066D01*
X876564Y842466D01*
X876164Y841666D01*
X876564Y840866D01*
X875764Y841266D01*
X874964Y840866D01*
X880082D02*
X880482Y841666D01*
X880082Y842466D01*
X880882Y842066D01*
X881682Y842466D01*
X881282Y841666D01*
X881682Y840866D01*
X880882Y841266D01*
X880082Y840866D01*
X874964Y835748D02*
X875364Y836548D01*
X874964Y837348D01*
X875764Y836948D01*
X876564Y837348D01*
X876164Y836548D01*
X876564Y835748D01*
X875764Y836148D01*
X874964Y835748D01*
X898586Y840472D02*
X898986Y841272D01*
X898586Y842072D01*
X899386Y841672D01*
X900186Y842072D01*
X899786Y841272D01*
X900186Y840472D01*
X899386Y840872D01*
X898586Y840472D01*
X863547Y831023D02*
X863947Y831823D01*
X863547Y832623D01*
X864347Y832223D01*
X865147Y832623D01*
X864747Y831823D01*
X865147Y831023D01*
X864347Y831423D01*
X863547Y831023D01*
Y835748D02*
X863947Y836548D01*
X863547Y837348D01*
X864347Y836948D01*
X865147Y837348D01*
X864747Y836548D01*
X865147Y835748D01*
X864347Y836148D01*
X863547Y835748D01*
X865121Y866850D02*
X865522Y867650D01*
X865121Y868450D01*
X865921Y868050D01*
X866722Y868450D01*
X866321Y867650D01*
X866722Y866850D01*
X865921Y867250D01*
X865121Y866850D01*
X863153Y873936D02*
X863553Y874736D01*
X863153Y875537D01*
X863953Y875136D01*
X864753Y875537D01*
X864353Y874736D01*
X864753Y873936D01*
X863953Y874337D01*
X863153Y873936D01*
X859216D02*
X859616Y874736D01*
X859216Y875537D01*
X860016Y875136D01*
X860816Y875537D01*
X860416Y874736D01*
X860816Y873936D01*
X860016Y874337D01*
X859216Y873936D01*
X869059Y866850D02*
X869458Y867650D01*
X869059Y868450D01*
X869858Y868050D01*
X870658Y868450D01*
X870259Y867650D01*
X870658Y866850D01*
X869858Y867250D01*
X869059Y866850D01*
X871027Y873936D02*
X871427Y874736D01*
X871027Y875537D01*
X871827Y875136D01*
X872627Y875537D01*
X872227Y874736D01*
X872627Y873936D01*
X871827Y874337D01*
X871027Y873936D01*
X872995Y866850D02*
X873396Y867650D01*
X872995Y868450D01*
X873796Y868050D01*
X874596Y868450D01*
X874195Y867650D01*
X874596Y866850D01*
X873796Y867250D01*
X872995Y866850D01*
X874964Y873936D02*
X875364Y874736D01*
X874964Y875537D01*
X875764Y875136D01*
X876564Y875537D01*
X876164Y874736D01*
X876564Y873936D01*
X875764Y874337D01*
X874964Y873936D01*
X876933Y866850D02*
X877332Y867650D01*
X876933Y868450D01*
X877732Y868050D01*
X878533Y868450D01*
X878133Y867650D01*
X878533Y866850D01*
X877732Y867250D01*
X876933Y866850D01*
X878901Y873936D02*
X879301Y874736D01*
X878901Y875537D01*
X879701Y875136D01*
X880501Y875537D01*
X880101Y874736D01*
X880501Y873936D01*
X879701Y874337D01*
X878901Y873936D01*
X854885Y906220D02*
X855285Y907020D01*
X854885Y907820D01*
X855685Y907420D01*
X856485Y907820D01*
X856085Y907020D01*
X856485Y906220D01*
X855685Y906620D01*
X854885Y906220D01*
X867090Y874330D02*
X867490Y875130D01*
X867090Y875930D01*
X867890Y875530D01*
X868690Y875930D01*
X868290Y875130D01*
X868690Y874330D01*
X867890Y874730D01*
X867090Y874330D01*
X859216Y910551D02*
X859616Y911351D01*
X859216Y912151D01*
X860016Y911751D01*
X860816Y912151D01*
X860416Y911351D01*
X860816Y910551D01*
X860016Y910951D01*
X859216Y910551D01*
X900555Y873936D02*
X900955Y874736D01*
X900555Y875537D01*
X901355Y875136D01*
X902155Y875537D01*
X901755Y874736D01*
X902155Y873936D01*
X901355Y874337D01*
X900555Y873936D01*
X896700Y934007D02*
X897100Y934807D01*
X896700Y935608D01*
X897500Y935207D01*
X898300Y935608D01*
X897900Y934807D01*
X898300Y934007D01*
X897500Y934408D01*
X896700Y934007D01*
X896618Y873936D02*
X897017Y874736D01*
X896618Y875537D01*
X897418Y875136D01*
X898217Y875537D01*
X897818Y874736D01*
X898217Y873936D01*
X897418Y874337D01*
X896618Y873936D01*
X889531Y879842D02*
X889931Y880642D01*
X889531Y881442D01*
X890331Y881042D01*
X891131Y881442D01*
X890731Y880642D01*
X891131Y879842D01*
X890331Y880242D01*
X889531Y879842D01*
X868665Y899921D02*
X869065Y900721D01*
X868665Y901521D01*
X869465Y901121D01*
X870265Y901521D01*
X869865Y900721D01*
X870265Y899921D01*
X869465Y900321D01*
X868665Y899921D01*
X886775Y875118D02*
X887175Y875918D01*
X886775Y876718D01*
X887575Y876318D01*
X888375Y876718D01*
X887975Y875918D01*
X888375Y875118D01*
X887575Y875518D01*
X886775Y875118D01*
X858822Y941259D02*
X859222Y942059D01*
X858822Y942859D01*
X859622Y942459D01*
X860422Y942859D01*
X860022Y942059D01*
X860422Y941259D01*
X859622Y941659D01*
X858822Y941259D01*
X882838Y876299D02*
X883238Y877099D01*
X882838Y877899D01*
X883638Y877499D01*
X884438Y877899D01*
X884038Y877099D01*
X884438Y876299D01*
X883638Y876699D01*
X882838Y876299D01*
X931677Y648360D02*
X932077Y649160D01*
X931677Y649960D01*
X932477Y649560D01*
X933277Y649960D01*
X932877Y649160D01*
X933277Y648360D01*
X932477Y648760D01*
X931677Y648360D01*
X929674Y642061D02*
X930074Y642861D01*
X929674Y643661D01*
X930474Y643261D01*
X931274Y643661D01*
X930874Y642861D01*
X931274Y642061D01*
X930474Y642461D01*
X929674Y642061D01*
X926933Y652677D02*
X927332Y653477D01*
X926933Y654277D01*
X927732Y653877D01*
X928533Y654277D01*
X928133Y653477D01*
X928533Y652677D01*
X927732Y653077D01*
X926933Y652677D01*
X916807Y648629D02*
X917207Y649429D01*
X916807Y650229D01*
X917607Y649829D01*
X918407Y650229D01*
X918007Y649429D01*
X918407Y648629D01*
X917607Y649029D01*
X916807Y648629D01*
X910850Y653347D02*
X911250Y654147D01*
X910850Y654947D01*
X911650Y654547D01*
X912450Y654947D01*
X912050Y654147D01*
X912450Y653347D01*
X911650Y653747D01*
X910850Y653347D01*
X905419Y642042D02*
X905819Y642842D01*
X905419Y643642D01*
X906219Y643242D01*
X907019Y643642D01*
X906619Y642842D01*
X907019Y642042D01*
X906219Y642442D01*
X905419Y642042D01*
X903704Y700708D02*
X904104Y701508D01*
X903704Y702308D01*
X904504Y701908D01*
X905304Y702308D01*
X904904Y701508D01*
X905304Y700708D01*
X904504Y701108D01*
X903704Y700708D01*
X913940Y689685D02*
X914340Y690485D01*
X913940Y691285D01*
X914740Y690885D01*
X915540Y691285D01*
X915140Y690485D01*
X915540Y689685D01*
X914740Y690085D01*
X913940Y689685D01*
X907641Y696378D02*
X908041Y697178D01*
X907641Y697977D01*
X908441Y697577D01*
X909241Y697977D01*
X908841Y697178D01*
X909241Y696378D01*
X908441Y696777D01*
X907641Y696378D01*
X911972Y703858D02*
X912372Y704658D01*
X911972Y705458D01*
X912772Y705058D01*
X913572Y705458D01*
X913172Y704658D01*
X913572Y703858D01*
X912772Y704258D01*
X911972Y703858D01*
X838350Y701102D02*
X838750Y701902D01*
X838350Y702702D01*
X839150Y702302D01*
X839950Y702702D01*
X839550Y701902D01*
X839950Y701102D01*
X839150Y701502D01*
X838350Y701102D01*
X829295Y699527D02*
X829695Y700327D01*
X829295Y701127D01*
X830095Y700727D01*
X830895Y701127D01*
X830495Y700327D01*
X830895Y699527D01*
X830095Y699927D01*
X829295Y699527D01*
Y703070D02*
X829695Y703870D01*
X829295Y704670D01*
X830095Y704270D01*
X830895Y704670D01*
X830495Y703870D01*
X830895Y703070D01*
X830095Y703470D01*
X829295Y703070D01*
X843074Y703858D02*
X843474Y704658D01*
X843074Y705458D01*
X843874Y705058D01*
X844674Y705458D01*
X844274Y704658D01*
X844674Y703858D01*
X843874Y704258D01*
X843074Y703858D01*
Y700315D02*
X843474Y701115D01*
X843074Y701915D01*
X843874Y701514D01*
X844674Y701915D01*
X844274Y701115D01*
X844674Y700315D01*
X843874Y700714D01*
X843074Y700315D01*
X838350Y676692D02*
X838750Y677492D01*
X838350Y678292D01*
X839150Y677892D01*
X839950Y678292D01*
X839550Y677492D01*
X839950Y676692D01*
X839150Y677092D01*
X838350Y676692D01*
X837956Y680236D02*
X838356Y681036D01*
X837956Y681836D01*
X838756Y681436D01*
X839556Y681836D01*
X839156Y681036D01*
X839556Y680236D01*
X838756Y680636D01*
X837956Y680236D01*
X838350Y684566D02*
X838750Y685366D01*
X838350Y686166D01*
X839150Y685767D01*
X839950Y686166D01*
X839550Y685366D01*
X839950Y684566D01*
X839150Y684967D01*
X838350Y684566D01*
X829688Y689685D02*
X830088Y690485D01*
X829688Y691285D01*
X830488Y690885D01*
X831288Y691285D01*
X830888Y690485D01*
X831288Y689685D01*
X830488Y690085D01*
X829688Y689685D01*
X902751Y649921D02*
X903151Y650721D01*
X902751Y651521D01*
X903551Y651121D01*
X904351Y651521D01*
X903951Y650721D01*
X904351Y649921D01*
X903551Y650321D01*
X902751Y649921D01*
X865909Y655826D02*
X866309Y656626D01*
X865909Y657426D01*
X866709Y657026D01*
X867509Y657426D01*
X867109Y656626D01*
X867509Y655826D01*
X866709Y656226D01*
X865909Y655826D01*
X897011Y624330D02*
X897411Y625130D01*
X897011Y625930D01*
X897811Y625530D01*
X898611Y625930D01*
X898211Y625130D01*
X898611Y624330D01*
X897811Y624730D01*
X897011Y624330D01*
X893862Y626299D02*
X894262Y627099D01*
X893862Y627899D01*
X894662Y627499D01*
X895462Y627899D01*
X895062Y627099D01*
X895462Y626299D01*
X894662Y626699D01*
X893862Y626299D01*
X894255Y621574D02*
X894655Y622374D01*
X894255Y623174D01*
X895055Y622774D01*
X895855Y623174D01*
X895455Y622374D01*
X895855Y621574D01*
X895055Y621974D01*
X894255Y621574D01*
X871814Y622362D02*
X872214Y623162D01*
X871814Y623962D01*
X872614Y623562D01*
X873414Y623962D01*
X873014Y623162D01*
X873414Y622362D01*
X872614Y622762D01*
X871814Y622362D01*
Y626299D02*
X872214Y627099D01*
X871814Y627899D01*
X872614Y627499D01*
X873414Y627899D01*
X873014Y627099D01*
X873414Y626299D01*
X872614Y626699D01*
X871814Y626299D01*
X868665Y623937D02*
X869065Y624736D01*
X868665Y625536D01*
X869465Y625137D01*
X870265Y625536D01*
X869865Y624736D01*
X870265Y623937D01*
X869465Y624336D01*
X868665Y623937D01*
X894649Y616456D02*
X895049Y617256D01*
X894649Y618056D01*
X895449Y617656D01*
X896249Y618056D01*
X895849Y617256D01*
X896249Y616456D01*
X895449Y616856D01*
X894649Y616456D01*
Y611732D02*
X895049Y612532D01*
X894649Y613332D01*
X895449Y612932D01*
X896249Y613332D01*
X895849Y612532D01*
X896249Y611732D01*
X895449Y612132D01*
X894649Y611732D01*
X871027Y616456D02*
X871427Y617256D01*
X871027Y618056D01*
X871827Y617656D01*
X872627Y618056D01*
X872227Y617256D01*
X872627Y616456D01*
X871827Y616856D01*
X871027Y616456D01*
Y611732D02*
X871427Y612532D01*
X871027Y613332D01*
X871827Y612932D01*
X872627Y613332D01*
X872227Y612532D01*
X872627Y611732D01*
X871827Y612132D01*
X871027Y611732D01*
X880476D02*
X880876Y612532D01*
X880476Y613332D01*
X881276Y612932D01*
X882076Y613332D01*
X881676Y612532D01*
X882076Y611732D01*
X881276Y612132D01*
X880476Y611732D01*
X885200D02*
X885600Y612532D01*
X885200Y613332D01*
X886000Y612932D01*
X886800Y613332D01*
X886400Y612532D01*
X886800Y611732D01*
X886000Y612132D01*
X885200Y611732D01*
X875751D02*
X876151Y612532D01*
X875751Y613332D01*
X876551Y612932D01*
X877351Y613332D01*
X876951Y612532D01*
X877351Y611732D01*
X876551Y612132D01*
X875751Y611732D01*
X889925D02*
X890325Y612532D01*
X889925Y613332D01*
X890725Y612932D01*
X891525Y613332D01*
X891125Y612532D01*
X891525Y611732D01*
X890725Y612132D01*
X889925Y611732D01*
Y616456D02*
X890325Y617256D01*
X889925Y618056D01*
X890725Y617656D01*
X891525Y618056D01*
X891125Y617256D01*
X891525Y616456D01*
X890725Y616856D01*
X889925Y616456D01*
X875751D02*
X876151Y617256D01*
X875751Y618056D01*
X876551Y617656D01*
X877351Y618056D01*
X876951Y617256D01*
X877351Y616456D01*
X876551Y616856D01*
X875751Y616456D01*
X885200D02*
X885600Y617256D01*
X885200Y618056D01*
X886000Y617656D01*
X886800Y618056D01*
X886400Y617256D01*
X886800Y616456D01*
X886000Y616856D01*
X885200Y616456D01*
X880476D02*
X880876Y617256D01*
X880476Y618056D01*
X881276Y617656D01*
X882076Y618056D01*
X881676Y617256D01*
X882076Y616456D01*
X881276Y616856D01*
X880476Y616456D01*
Y625511D02*
X880876Y626311D01*
X880476Y627111D01*
X881276Y626711D01*
X882076Y627111D01*
X881676Y626311D01*
X882076Y625511D01*
X881276Y625911D01*
X880476Y625511D01*
Y621181D02*
X880876Y621981D01*
X880476Y622781D01*
X881276Y622381D01*
X882076Y622781D01*
X881676Y621981D01*
X882076Y621181D01*
X881276Y621581D01*
X880476Y621181D01*
X885200D02*
X885600Y621981D01*
X885200Y622781D01*
X886000Y622381D01*
X886800Y622781D01*
X886400Y621981D01*
X886800Y621181D01*
X886000Y621581D01*
X885200Y621181D01*
Y625511D02*
X885600Y626311D01*
X885200Y627111D01*
X886000Y626711D01*
X886800Y627111D01*
X886400Y626311D01*
X886800Y625511D01*
X886000Y625911D01*
X885200Y625511D01*
X874570Y674724D02*
X874970Y675524D01*
X874570Y676324D01*
X875370Y675924D01*
X876170Y676324D01*
X875770Y675524D01*
X876170Y674724D01*
X875370Y675124D01*
X874570Y674724D01*
Y679448D02*
X874970Y680248D01*
X874570Y681048D01*
X875370Y680648D01*
X876170Y681048D01*
X875770Y680248D01*
X876170Y679448D01*
X875370Y679848D01*
X874570Y679448D01*
X869846Y684173D02*
X870246Y684973D01*
X869846Y685773D01*
X870646Y685373D01*
X871446Y685773D01*
X871046Y684973D01*
X871446Y684173D01*
X870646Y684573D01*
X869846Y684173D01*
Y679448D02*
X870246Y680248D01*
X869846Y681048D01*
X870646Y680648D01*
X871446Y681048D01*
X871046Y680248D01*
X871446Y679448D01*
X870646Y679848D01*
X869846Y679448D01*
Y674724D02*
X870246Y675524D01*
X869846Y676324D01*
X870646Y675924D01*
X871446Y676324D01*
X871046Y675524D01*
X871446Y674724D01*
X870646Y675124D01*
X869846Y674724D01*
X860397D02*
X860797Y675524D01*
X860397Y676324D01*
X861197Y675924D01*
X861997Y676324D01*
X861597Y675524D01*
X861997Y674724D01*
X861197Y675124D01*
X860397Y674724D01*
X865121D02*
X865522Y675524D01*
X865121Y676324D01*
X865921Y675924D01*
X866722Y676324D01*
X866321Y675524D01*
X866722Y674724D01*
X865921Y675124D01*
X865121Y674724D01*
X860397Y679448D02*
X860797Y680248D01*
X860397Y681048D01*
X861197Y680648D01*
X861997Y681048D01*
X861597Y680248D01*
X861997Y679448D01*
X861197Y679848D01*
X860397Y679448D01*
X865121D02*
X865522Y680248D01*
X865121Y681048D01*
X865921Y680648D01*
X866722Y681048D01*
X866321Y680248D01*
X866722Y679448D01*
X865921Y679848D01*
X865121Y679448D01*
Y684173D02*
X865522Y684973D01*
X865121Y685773D01*
X865921Y685373D01*
X866722Y685773D01*
X866321Y684973D01*
X866722Y684173D01*
X865921Y684573D01*
X865121Y684173D01*
Y688897D02*
X865522Y689697D01*
X865121Y690497D01*
X865921Y690097D01*
X866722Y690497D01*
X866321Y689697D01*
X866722Y688897D01*
X865921Y689297D01*
X865121Y688897D01*
X860397Y684173D02*
X860797Y684973D01*
X860397Y685773D01*
X861197Y685373D01*
X861997Y685773D01*
X861597Y684973D01*
X861997Y684173D01*
X861197Y684573D01*
X860397Y684173D01*
Y688897D02*
X860797Y689697D01*
X860397Y690497D01*
X861197Y690097D01*
X861997Y690497D01*
X861597Y689697D01*
X861997Y688897D01*
X861197Y689297D01*
X860397Y688897D01*
X855673Y684173D02*
X856073Y684973D01*
X855673Y685773D01*
X856473Y685373D01*
X857273Y685773D01*
X856873Y684973D01*
X857273Y684173D01*
X856473Y684573D01*
X855673Y684173D01*
Y688897D02*
X856073Y689697D01*
X855673Y690497D01*
X856473Y690097D01*
X857273Y690497D01*
X856873Y689697D01*
X857273Y688897D01*
X856473Y689297D01*
X855673Y688897D01*
X883232Y658976D02*
X883632Y659776D01*
X883232Y660576D01*
X884032Y660176D01*
X884832Y660576D01*
X884432Y659776D01*
X884832Y658976D01*
X884032Y659376D01*
X883232Y658976D01*
X875358Y651889D02*
X875758Y652689D01*
X875358Y653489D01*
X876158Y653089D01*
X876958Y653489D01*
X876558Y652689D01*
X876958Y651889D01*
X876158Y652289D01*
X875358Y651889D01*
X869452Y660944D02*
X869852Y661744D01*
X869452Y662544D01*
X870252Y662144D01*
X871052Y662544D01*
X870652Y661744D01*
X871052Y660944D01*
X870252Y661344D01*
X869452Y660944D01*
X863940Y649133D02*
X864340Y649933D01*
X863940Y650733D01*
X864740Y650333D01*
X865540Y650733D01*
X865140Y649933D01*
X865540Y649133D01*
X864740Y649533D01*
X863940Y649133D01*
X877720Y660944D02*
X878120Y661744D01*
X877720Y662544D01*
X878520Y662144D01*
X879320Y662544D01*
X878920Y661744D01*
X879320Y660944D01*
X878520Y661344D01*
X877720Y660944D01*
X874177D02*
X874577Y661744D01*
X874177Y662544D01*
X874977Y662144D01*
X875777Y662544D01*
X875377Y661744D01*
X875777Y660944D01*
X874977Y661344D01*
X874177Y660944D01*
X865909Y659763D02*
X866309Y660563D01*
X865909Y661363D01*
X866709Y660963D01*
X867509Y661363D01*
X867109Y660563D01*
X867509Y659763D01*
X866709Y660163D01*
X865909Y659763D01*
X882051Y655039D02*
X882451Y655839D01*
X882051Y656639D01*
X882851Y656239D01*
X883651Y656639D01*
X883251Y655839D01*
X883651Y655039D01*
X882851Y655439D01*
X882051Y655039D01*
X879295Y657795D02*
X879695Y658595D01*
X879295Y659395D01*
X880095Y658995D01*
X880895Y659395D01*
X880495Y658595D01*
X880895Y657795D01*
X880095Y658195D01*
X879295Y657795D01*
Y652283D02*
X879695Y653083D01*
X879295Y653883D01*
X880095Y653483D01*
X880895Y653883D01*
X880495Y653083D01*
X880895Y652283D01*
X880095Y652683D01*
X879295Y652283D01*
X871814Y657795D02*
X872214Y658595D01*
X871814Y659395D01*
X872614Y658995D01*
X873414Y659395D01*
X873014Y658595D01*
X873414Y657795D01*
X872614Y658195D01*
X871814Y657795D01*
X869452Y655039D02*
X869852Y655839D01*
X869452Y656639D01*
X870252Y656239D01*
X871052Y656639D01*
X870652Y655839D01*
X871052Y655039D01*
X870252Y655439D01*
X869452Y655039D01*
X871421Y651889D02*
X871821Y652689D01*
X871421Y653489D01*
X872221Y653089D01*
X873021Y653489D01*
X872621Y652689D01*
X873021Y651889D01*
X872221Y652289D01*
X871421Y651889D01*
X867090D02*
X867490Y652689D01*
X867090Y653489D01*
X867890Y653089D01*
X868690Y653489D01*
X868290Y652689D01*
X868690Y651889D01*
X867890Y652289D01*
X867090Y651889D01*
X869452Y636929D02*
X869852Y637729D01*
X869452Y638529D01*
X870252Y638129D01*
X871052Y638529D01*
X870652Y637729D01*
X871052Y636929D01*
X870252Y637329D01*
X869452Y636929D01*
X833176Y689500D02*
X833576Y690300D01*
X833176Y691100D01*
X833976Y690700D01*
X834776Y691100D01*
X834376Y690300D01*
X834776Y689500D01*
X833976Y689900D01*
X833176Y689500D01*
X895830Y640472D02*
X896230Y641272D01*
X895830Y642072D01*
X896630Y641672D01*
X897430Y642072D01*
X897030Y641272D01*
X897430Y640472D01*
X896630Y640872D01*
X895830Y640472D01*
X896224Y636929D02*
X896624Y637729D01*
X896224Y638529D01*
X897024Y638129D01*
X897824Y638529D01*
X897424Y637729D01*
X897824Y636929D01*
X897024Y637329D01*
X896224Y636929D01*
X893862Y633385D02*
X894262Y634185D01*
X893862Y634985D01*
X894662Y634585D01*
X895462Y634985D01*
X895062Y634185D01*
X895462Y633385D01*
X894662Y633785D01*
X893862Y633385D01*
X871421Y633779D02*
X871821Y634579D01*
X871421Y635379D01*
X872221Y634979D01*
X873021Y635379D01*
X872621Y634579D01*
X873021Y633779D01*
X872221Y634179D01*
X871421Y633779D01*
X878901Y638897D02*
X879301Y639697D01*
X878901Y640497D01*
X879701Y640097D01*
X880501Y640497D01*
X880101Y639697D01*
X880501Y638897D01*
X879701Y639297D01*
X878901Y638897D01*
X840318Y896771D02*
X840718Y897571D01*
X840318Y898371D01*
X841118Y897971D01*
X841918Y898371D01*
X841518Y897571D01*
X841918Y896771D01*
X841118Y897171D01*
X840318Y896771D01*
Y892441D02*
X840718Y893241D01*
X840318Y894040D01*
X841118Y893641D01*
X841918Y894040D01*
X841518Y893241D01*
X841918Y892441D01*
X841118Y892840D01*
X840318Y892441D01*
Y888110D02*
X840718Y888910D01*
X840318Y889710D01*
X841118Y889310D01*
X841918Y889710D01*
X841518Y888910D01*
X841918Y888110D01*
X841118Y888510D01*
X840318Y888110D01*
X918074Y714094D02*
X918474Y714894D01*
X918074Y715694D01*
X918874Y715294D01*
X919674Y715694D01*
X919274Y714894D01*
X919674Y714094D01*
X918874Y714494D01*
X918074Y714094D01*
X846421Y687031D02*
X846821Y687831D01*
X846421Y688631D01*
X847221Y688231D01*
X848021Y688631D01*
X847621Y687831D01*
X848021Y687031D01*
X847221Y687431D01*
X846421Y687031D01*
X905476Y646181D02*
X905876Y646981D01*
X905476Y647781D01*
X906276Y647381D01*
X907076Y647781D01*
X906676Y646981D01*
X907076Y646181D01*
X906276Y646581D01*
X905476Y646181D01*
X894846Y650905D02*
X895246Y651705D01*
X894846Y652505D01*
X895646Y652105D01*
X896446Y652505D01*
X896046Y651705D01*
X896446Y650905D01*
X895646Y651305D01*
X894846Y650905D01*
X846224Y672362D02*
X846624Y673162D01*
X846224Y673962D01*
X847024Y673562D01*
X847824Y673962D01*
X847424Y673162D01*
X847824Y672362D01*
X847024Y672762D01*
X846224Y672362D01*
X850358Y687425D02*
X850758Y688225D01*
X850358Y689025D01*
X851158Y688625D01*
X851958Y689025D01*
X851558Y688225D01*
X851958Y687425D01*
X851158Y687825D01*
X850358Y687425D01*
X854295Y677976D02*
X854695Y678776D01*
X854295Y679576D01*
X855095Y679176D01*
X855895Y679576D01*
X855495Y678776D01*
X855895Y677976D01*
X855095Y678376D01*
X854295Y677976D01*
Y670496D02*
X854695Y671296D01*
X854295Y672096D01*
X855095Y671696D01*
X855895Y672096D01*
X855495Y671296D01*
X855895Y670496D01*
X855095Y670896D01*
X854295Y670496D01*
D169*
X928533Y1008201D02*
G03*
X928533Y1008201I-800J0D01*
G01*
X840343D02*
G03*
X840343Y1008201I-800J0D01*
G01*
X928533Y621193D02*
G03*
X928533Y621193I-800J0D01*
G01*
X840343D02*
G03*
X840343Y621193I-800J0D01*
G01*
M02*
