G04*
G04 #@! TF.GenerationSoftware,Altium Limited,Altium Designer,21.9.2 (33)*
G04*
G04 Layer_Color=6502151*
%FSLAX25Y25*%
%MOIN*%
G70*
G04*
G04 #@! TF.SameCoordinates,38B2C1F3-0FCD-4184-AA18-E5AB633A714F*
G04*
G04*
G04 #@! TF.FilePolarity,Positive*
G04*
G01*
G75*
%ADD12C,0.00394*%
%ADD163C,0.00197*%
%ADD164C,0.00098*%
%ADD166C,0.00158*%
%ADD167C,0.00118*%
D12*
X837312Y979854D02*
Y976574D01*
X836656Y975918D01*
X835344D01*
X834688Y976574D01*
Y979854D01*
X830752D02*
X833376D01*
Y977886D01*
X832064Y978542D01*
X831408D01*
X830752Y977886D01*
Y976574D01*
X831408Y975918D01*
X832720D01*
X833376Y976574D01*
X884949Y903082D02*
Y899803D01*
X884293Y899147D01*
X882981D01*
X882325Y899803D01*
Y903082D01*
X878390Y899147D02*
X881014D01*
X878390Y901770D01*
Y902426D01*
X879046Y903082D01*
X880358D01*
X881014Y902426D01*
X883736Y999441D02*
X885048D01*
X884392D01*
Y996161D01*
X885048Y995505D01*
X885704D01*
X886360Y996161D01*
X882425Y995505D02*
X881113D01*
X881769D01*
Y999441D01*
X882425Y998785D01*
X852142Y962336D02*
X850174D01*
X849780Y962729D01*
Y963517D01*
X850174Y963910D01*
X852142D01*
X849780Y964697D02*
Y965485D01*
Y965091D01*
X852142D01*
X851748Y964697D01*
Y966665D02*
X852142Y967059D01*
Y967846D01*
X851748Y968239D01*
X850174D01*
X849780Y967846D01*
Y967059D01*
X850174Y966665D01*
X851748D01*
X857030Y629953D02*
Y632512D01*
X855751D01*
X855324Y632085D01*
Y631233D01*
X855751Y630806D01*
X857030D01*
X856177D02*
X855324Y629953D01*
X854471Y632085D02*
X854045Y632512D01*
X853192D01*
X852766Y632085D01*
Y631659D01*
X853192Y631233D01*
X852766Y630806D01*
Y630380D01*
X853192Y629953D01*
X854045D01*
X854471Y630380D01*
Y630806D01*
X854045Y631233D01*
X854471Y631659D01*
Y632085D01*
X854045Y631233D02*
X853192D01*
X885606Y618765D02*
X886262Y619421D01*
X887574D01*
X888230Y618765D01*
Y616141D01*
X887574Y615485D01*
X886262D01*
X885606Y616141D01*
X884294Y615485D02*
Y619421D01*
X881670Y615485D01*
Y619421D01*
X880358Y615485D02*
X879046D01*
X879702D01*
Y619421D01*
X880358Y618765D01*
X925238Y985268D02*
Y987827D01*
X923959D01*
X923532Y987400D01*
Y986548D01*
X923959Y986121D01*
X925238D01*
X924385D02*
X923532Y985268D01*
X920974D02*
X922680D01*
X920974Y986974D01*
Y987400D01*
X921401Y987827D01*
X922253D01*
X922680Y987400D01*
X918842Y985268D02*
Y987827D01*
X920121Y986548D01*
X918416D01*
X847877Y656429D02*
X849189D01*
X848533D01*
Y653149D01*
X849189Y652493D01*
X849844D01*
X850500Y653149D01*
X846565Y655773D02*
X845909Y656429D01*
X844597D01*
X843941Y655773D01*
Y655117D01*
X844597Y654461D01*
X845253D01*
X844597D01*
X843941Y653805D01*
Y653149D01*
X844597Y652493D01*
X845909D01*
X846565Y653149D01*
X914215Y695405D02*
Y692781D01*
X913690Y692257D01*
X912640D01*
X912115Y692781D01*
Y695405D01*
X909492Y692257D02*
Y695405D01*
X911066Y693831D01*
X908967D01*
X926289Y634972D02*
X927338D01*
X926814D01*
Y632348D01*
X927338Y631824D01*
X927863D01*
X928388Y632348D01*
X923665Y631824D02*
Y634972D01*
X925239Y633398D01*
X923140D01*
X881642Y841074D02*
Y837795D01*
X880986Y837139D01*
X879674D01*
X879018Y837795D01*
Y841074D01*
X877707Y837795D02*
X877050Y837139D01*
X875739D01*
X875083Y837795D01*
Y840419D01*
X875739Y841074D01*
X877050D01*
X877707Y840419D01*
Y839763D01*
X877050Y839107D01*
X875083D01*
X932456Y893635D02*
X930095Y895209D01*
X932456D02*
X930095Y893635D01*
Y897571D02*
Y895996D01*
X931669Y897571D01*
X932063D01*
X932456Y897177D01*
Y896390D01*
X932063Y895996D01*
D163*
X886179Y946646D02*
Y945006D01*
X885851Y944678D01*
X885195D01*
X884867Y945006D01*
Y946646D01*
X882899Y944678D02*
X884211D01*
X882899Y945990D01*
Y946317D01*
X883227Y946646D01*
X883883D01*
X884211Y946317D01*
X882243Y945006D02*
X881915Y944678D01*
X881260D01*
X880931Y945006D01*
Y946317D01*
X881260Y946646D01*
X881915D01*
X882243Y946317D01*
Y945990D01*
X881915Y945662D01*
X880931D01*
X869767Y970523D02*
Y971822D01*
X869118D01*
X868901Y971605D01*
Y971172D01*
X869118Y970956D01*
X869767D01*
X869334D02*
X868901Y970523D01*
X868468Y971822D02*
X867603D01*
Y971605D01*
X868468Y970739D01*
Y970523D01*
X867170Y970739D02*
X866953Y970523D01*
X866520D01*
X866304Y970739D01*
Y971605D01*
X866520Y971822D01*
X866953D01*
X867170Y971605D01*
Y971389D01*
X866953Y971172D01*
X866304D01*
X911721Y945996D02*
Y944684D01*
X911459Y944422D01*
X910934D01*
X910672Y944684D01*
Y945996D01*
X910147Y945734D02*
X909885Y945996D01*
X909360D01*
X909097Y945734D01*
Y945471D01*
X909360Y945209D01*
X909622D01*
X909360D01*
X909097Y944947D01*
Y944684D01*
X909360Y944422D01*
X909885D01*
X910147Y944684D01*
X907523Y944422D02*
X908573D01*
X907523Y945471D01*
Y945734D01*
X907786Y945996D01*
X908310D01*
X908573Y945734D01*
X860548Y966922D02*
X861847D01*
Y967572D01*
X861630Y967788D01*
X861197D01*
X860981Y967572D01*
Y966922D01*
Y967355D02*
X860548Y967788D01*
X861847Y968221D02*
Y969087D01*
X861630D01*
X860764Y968221D01*
X860548D01*
Y969520D02*
Y969953D01*
Y969736D01*
X861847D01*
X861630Y969520D01*
X860548Y961194D02*
X861847D01*
Y961843D01*
X861630Y962060D01*
X861197D01*
X860981Y961843D01*
Y961194D01*
Y961627D02*
X860548Y962060D01*
X861847Y962493D02*
Y963358D01*
X861630D01*
X860764Y962493D01*
X860548D01*
Y964657D02*
Y963791D01*
X861413Y964657D01*
X861630D01*
X861847Y964441D01*
Y964008D01*
X861630Y963791D01*
X893342Y963418D02*
X892044D01*
Y964284D01*
X893342Y965583D02*
X893126Y965150D01*
X892693Y964717D01*
X892260D01*
X892044Y964933D01*
Y965366D01*
X892260Y965583D01*
X892477D01*
X892693Y965366D01*
Y964717D01*
X853323Y1000196D02*
X852011D01*
X851748Y1000458D01*
Y1000983D01*
X852011Y1001245D01*
X853323D01*
X853060Y1001770D02*
X853323Y1002033D01*
Y1002557D01*
X853060Y1002820D01*
X852798D01*
X852536Y1002557D01*
X852273Y1002820D01*
X852011D01*
X851748Y1002557D01*
Y1002033D01*
X852011Y1001770D01*
X852273D01*
X852536Y1002033D01*
X852798Y1001770D01*
X853060D01*
X852536Y1002033D02*
Y1002557D01*
X914116Y620996D02*
X915428D01*
Y620012D01*
X914772D01*
X915428D01*
Y619028D01*
X913460Y620996D02*
X912804D01*
X913132D01*
Y619028D01*
X913460D01*
X912804D01*
X911821Y620996D02*
Y619028D01*
X910837D01*
X910509Y619356D01*
Y620668D01*
X910837Y620996D01*
X911821D01*
X908541D02*
X909853D01*
Y620012D01*
X909197Y620340D01*
X908869D01*
X908541Y620012D01*
Y619356D01*
X908869Y619028D01*
X909525D01*
X909853Y619356D01*
X919661Y784382D02*
Y783201D01*
X919071D01*
X918874Y783398D01*
Y784185D01*
X919071Y784382D01*
X919661D01*
X918481Y784185D02*
X918284Y784382D01*
X917890D01*
X917693Y784185D01*
Y783988D01*
X917890Y783792D01*
X918087D01*
X917890D01*
X917693Y783595D01*
Y783398D01*
X917890Y783201D01*
X918284D01*
X918481Y783398D01*
X932063Y788123D02*
X930751D01*
X930489Y788385D01*
Y788910D01*
X930751Y789173D01*
X932063D01*
X930489Y789697D02*
Y790222D01*
Y789960D01*
X932063D01*
X931801Y789697D01*
Y791009D02*
X932063Y791271D01*
Y791796D01*
X931801Y792059D01*
X931538D01*
X931276Y791796D01*
X931013Y792059D01*
X930751D01*
X930489Y791796D01*
Y791271D01*
X930751Y791009D01*
X931013D01*
X931276Y791271D01*
X931538Y791009D01*
X931801D01*
X931276Y791271D02*
Y791796D01*
X920055Y802492D02*
Y801311D01*
X919465D01*
X919268Y801508D01*
Y802295D01*
X919465Y802492D01*
X920055D01*
X918087Y801311D02*
X918874D01*
X918087Y802099D01*
Y802295D01*
X918284Y802492D01*
X918678D01*
X918874Y802295D01*
X932063Y805840D02*
X930751D01*
X930489Y806102D01*
Y806627D01*
X930751Y806889D01*
X932063D01*
X930489Y807414D02*
Y807938D01*
Y807676D01*
X932063D01*
X931801Y807414D01*
X932063Y809775D02*
X931801Y809250D01*
X931276Y808726D01*
X930751D01*
X930489Y808988D01*
Y809513D01*
X930751Y809775D01*
X931013D01*
X931276Y809513D01*
Y808726D01*
X876682Y646784D02*
Y648358D01*
X875895D01*
X875632Y648096D01*
Y647571D01*
X875895Y647309D01*
X876682D01*
X876157D02*
X875632Y646784D01*
X875108Y648096D02*
X874845Y648358D01*
X874321D01*
X874058Y648096D01*
Y647834D01*
X874321Y647571D01*
X874058Y647309D01*
Y647046D01*
X874321Y646784D01*
X874845D01*
X875108Y647046D01*
Y647309D01*
X874845Y647571D01*
X875108Y647834D01*
Y648096D01*
X874845Y647571D02*
X874321D01*
X873533Y647046D02*
X873271Y646784D01*
X872746D01*
X872484Y647046D01*
Y648096D01*
X872746Y648358D01*
X873271D01*
X873533Y648096D01*
Y647834D01*
X873271Y647571D01*
X872484D01*
X921958Y978017D02*
X922220Y978280D01*
X922745D01*
X923007Y978017D01*
Y976968D01*
X922745Y976705D01*
X922220D01*
X921958Y976968D01*
X921433Y976705D02*
X920908D01*
X921171D01*
Y978280D01*
X921433Y978017D01*
X920121Y978280D02*
X919072D01*
Y978017D01*
X920121Y976968D01*
Y976705D01*
X902929Y791174D02*
X901617D01*
X901355Y791437D01*
Y791961D01*
X901617Y792224D01*
X902929D01*
X901355Y792748D02*
Y793273D01*
Y793011D01*
X902929D01*
X902667Y792748D01*
X902929Y794060D02*
Y795110D01*
X902667D01*
X901617Y794060D01*
X901355D01*
X895311Y790977D02*
X894012D01*
Y791843D01*
Y792925D02*
X895311D01*
X894662Y792276D01*
Y793142D01*
X845134Y814933D02*
X845350Y815150D01*
X845783D01*
X846000Y814933D01*
Y814067D01*
X845783Y813851D01*
X845350D01*
X845134Y814067D01*
X843835Y813851D02*
X844701D01*
X843835Y814717D01*
Y814933D01*
X844051Y815150D01*
X844484D01*
X844701Y814933D01*
X843402Y815150D02*
X842536D01*
Y814933D01*
X843402Y814067D01*
Y813851D01*
X845134Y810209D02*
X845350Y810425D01*
X845783D01*
X846000Y810209D01*
Y809343D01*
X845783Y809126D01*
X845350D01*
X845134Y809343D01*
X843835Y809126D02*
X844701D01*
X843835Y809992D01*
Y810209D01*
X844051Y810425D01*
X844484D01*
X844701Y810209D01*
X842753Y809126D02*
Y810425D01*
X843402Y809776D01*
X842536D01*
X928683Y997374D02*
X929995D01*
Y996390D01*
X929339D01*
X929995D01*
Y995406D01*
X928027Y997374D02*
X927371D01*
X927699D01*
Y995406D01*
X928027D01*
X927371D01*
X926387Y997374D02*
Y995406D01*
X925403D01*
X925076Y995734D01*
Y997046D01*
X925403Y997374D01*
X926387D01*
X923436Y995406D02*
Y997374D01*
X924419Y996390D01*
X923108D01*
X847187Y838319D02*
X848499D01*
Y837335D01*
X847843D01*
X848499D01*
Y836351D01*
X846531Y838319D02*
X845875D01*
X846203D01*
Y836351D01*
X846531D01*
X845875D01*
X844891Y838319D02*
Y836351D01*
X843907D01*
X843579Y836679D01*
Y837991D01*
X843907Y838319D01*
X844891D01*
X841612D02*
X842268Y837991D01*
X842924Y837335D01*
Y836679D01*
X842595Y836351D01*
X841940D01*
X841612Y836679D01*
Y837007D01*
X841940Y837335D01*
X842924D01*
X835639Y855150D02*
Y854166D01*
X835147D01*
X834983Y854330D01*
Y854986D01*
X835147Y855150D01*
X835639D01*
X834163Y854166D02*
Y855150D01*
X834655Y854658D01*
X833999D01*
X908178Y718437D02*
Y717125D01*
X907915Y716863D01*
X907390D01*
X907128Y717125D01*
Y718437D01*
X905554Y716863D02*
X906603D01*
X905554Y717912D01*
Y718175D01*
X905816Y718437D01*
X906341D01*
X906603Y718175D01*
X903980Y718437D02*
X904504Y718175D01*
X905029Y717650D01*
Y717125D01*
X904767Y716863D01*
X904242D01*
X903980Y717125D01*
Y717388D01*
X904242Y717650D01*
X905029D01*
X845973Y951508D02*
Y950196D01*
X845711Y949934D01*
X845186D01*
X844923Y950196D01*
Y951508D01*
X843349Y949934D02*
X844399D01*
X843349Y950983D01*
Y951246D01*
X843612Y951508D01*
X844136D01*
X844399Y951246D01*
X842824D02*
X842562Y951508D01*
X842037D01*
X841775Y951246D01*
Y950983D01*
X842037Y950721D01*
X841775Y950458D01*
Y950196D01*
X842037Y949934D01*
X842562D01*
X842824Y950196D01*
Y950458D01*
X842562Y950721D01*
X842824Y950983D01*
Y951246D01*
X842562Y950721D02*
X842037D01*
X837575Y944421D02*
Y943109D01*
X837312Y942847D01*
X836788D01*
X836525Y943109D01*
Y944421D01*
X836000Y942847D02*
X835476D01*
X835738D01*
Y944421D01*
X836000Y944159D01*
X833901Y942847D02*
Y944421D01*
X834688Y943634D01*
X833639D01*
X844268Y941142D02*
X842956D01*
X842693Y941404D01*
Y941929D01*
X842956Y942191D01*
X844268D01*
X842693Y943766D02*
Y942716D01*
X843743Y943766D01*
X844005D01*
X844268Y943503D01*
Y942978D01*
X844005Y942716D01*
X842693Y945340D02*
Y944290D01*
X843743Y945340D01*
X844005D01*
X844268Y945078D01*
Y944553D01*
X844005Y944290D01*
X922089Y940189D02*
Y939205D01*
X921597D01*
X921433Y939369D01*
Y940025D01*
X921597Y940189D01*
X922089D01*
X921105Y939205D02*
X920777D01*
X920941D01*
Y940189D01*
X921105Y940025D01*
X933506Y873752D02*
Y872112D01*
X933178Y871784D01*
X932522D01*
X932194Y872112D01*
Y873752D01*
X930226Y871784D02*
X931538D01*
X930226Y873096D01*
Y873424D01*
X930554Y873752D01*
X931210D01*
X931538Y873424D01*
X929570D02*
X929242Y873752D01*
X928586D01*
X928258Y873424D01*
Y872112D01*
X928586Y871784D01*
X929242D01*
X929570Y872112D01*
Y873424D01*
X844937Y802925D02*
X845153Y803142D01*
X845586D01*
X845803Y802925D01*
Y802059D01*
X845586Y801843D01*
X845153D01*
X844937Y802059D01*
X844504Y802925D02*
X844288Y803142D01*
X843855D01*
X843638Y802925D01*
Y802709D01*
X843855Y802493D01*
X844071D01*
X843855D01*
X843638Y802276D01*
Y802059D01*
X843855Y801843D01*
X844288D01*
X844504Y802059D01*
X842339Y801843D02*
X843205D01*
X842339Y802709D01*
Y802925D01*
X842556Y803142D01*
X842989D01*
X843205Y802925D01*
X844720Y798595D02*
X844937Y798811D01*
X845370D01*
X845586Y798595D01*
Y797729D01*
X845370Y797512D01*
X844937D01*
X844720Y797729D01*
X844288Y798595D02*
X844071Y798811D01*
X843638D01*
X843422Y798595D01*
Y798378D01*
X843638Y798162D01*
X843855D01*
X843638D01*
X843422Y797945D01*
Y797729D01*
X843638Y797512D01*
X844071D01*
X844288Y797729D01*
X842989Y797512D02*
X842556D01*
X842772D01*
Y798811D01*
X842989Y798595D01*
X844740Y712571D02*
X844957Y712787D01*
X845389D01*
X845606Y712571D01*
Y711705D01*
X845389Y711489D01*
X844957D01*
X844740Y711705D01*
X844307Y712787D02*
X843441D01*
Y712571D01*
X844307Y711705D01*
Y711489D01*
X843008Y712571D02*
X842792Y712787D01*
X842359D01*
X842142Y712571D01*
Y712355D01*
X842359Y712138D01*
X842142Y711922D01*
Y711705D01*
X842359Y711489D01*
X842792D01*
X843008Y711705D01*
Y711922D01*
X842792Y712138D01*
X843008Y712355D01*
Y712571D01*
X842792Y712138D02*
X842359D01*
X844829Y774382D02*
X845045Y774599D01*
X845478D01*
X845695Y774382D01*
Y773516D01*
X845478Y773300D01*
X845045D01*
X844829Y773516D01*
X844396Y773300D02*
X843963D01*
X844179D01*
Y774599D01*
X844396Y774382D01*
X843314Y773516D02*
X843097Y773300D01*
X842664D01*
X842448Y773516D01*
Y774382D01*
X842664Y774599D01*
X843097D01*
X843314Y774382D01*
Y774166D01*
X843097Y773949D01*
X842448D01*
X855882Y787401D02*
X853914D01*
Y788713D01*
Y789369D02*
Y790025D01*
Y789697D01*
X855882D01*
X855554Y789369D01*
X866571Y948851D02*
X865272D01*
Y949717D01*
X866571Y951016D02*
Y950150D01*
X865921D01*
X866138Y950583D01*
Y950799D01*
X865921Y951016D01*
X865489D01*
X865272Y950799D01*
Y950366D01*
X865489Y950150D01*
X844937Y779500D02*
X845153Y779717D01*
X845586D01*
X845803Y779500D01*
Y778634D01*
X845586Y778418D01*
X845153D01*
X844937Y778634D01*
X844504Y779500D02*
X844288Y779717D01*
X843855D01*
X843638Y779500D01*
Y779284D01*
X843855Y779067D01*
X844071D01*
X843855D01*
X843638Y778851D01*
Y778634D01*
X843855Y778418D01*
X844288D01*
X844504Y778634D01*
X843205Y779500D02*
X842989Y779717D01*
X842556D01*
X842339Y779500D01*
Y778634D01*
X842556Y778418D01*
X842989D01*
X843205Y778634D01*
Y779500D01*
X843677Y789894D02*
Y787926D01*
X843283Y787532D01*
X842496D01*
X842102Y787926D01*
Y789894D01*
X841315Y787532D02*
X840528D01*
X840922D01*
Y789894D01*
X841315Y789500D01*
X839347Y787532D02*
X838560D01*
X838954D01*
Y789894D01*
X839347Y789500D01*
X934475Y920654D02*
X934869Y920260D01*
Y919473D01*
X934475Y919079D01*
X934082D01*
X933688Y919473D01*
Y920260D01*
X933294Y920654D01*
X932901D01*
X932507Y920260D01*
Y919473D01*
X932901Y919079D01*
X934869Y921441D02*
X932507D01*
X933294Y922228D01*
X932507Y923015D01*
X934869D01*
X932507Y923802D02*
Y924589D01*
Y924196D01*
X934869D01*
X934475Y923802D01*
X932901Y925770D02*
X932507Y926163D01*
Y926951D01*
X932901Y927344D01*
X934475D01*
X934869Y926951D01*
Y926163D01*
X934475Y925770D01*
X934082D01*
X933688Y926163D01*
Y927344D01*
X856932Y623096D02*
X857194Y623358D01*
X857719D01*
X857981Y623096D01*
Y622046D01*
X857719Y621784D01*
X857194D01*
X856932Y622046D01*
X855357Y623358D02*
X856407D01*
Y622571D01*
X855882Y622834D01*
X855620D01*
X855357Y622571D01*
Y622046D01*
X855620Y621784D01*
X856145D01*
X856407Y622046D01*
X854833Y623358D02*
X853783D01*
Y623096D01*
X854833Y622046D01*
Y621784D01*
X902600Y651902D02*
Y650262D01*
X902272Y649934D01*
X901616D01*
X901289Y650262D01*
Y651902D01*
X899321Y649934D02*
X900633D01*
X899321Y651246D01*
Y651574D01*
X899649Y651902D01*
X900305D01*
X900633Y651574D01*
X898665Y651902D02*
X897353D01*
Y651574D01*
X898665Y650262D01*
Y649934D01*
X835966Y698950D02*
X833998D01*
X833604Y699344D01*
Y700131D01*
X833998Y700524D01*
X835966D01*
X833604Y701311D02*
Y702099D01*
Y701705D01*
X835966D01*
X835572Y701311D01*
X833604Y704854D02*
Y703279D01*
X835179Y704854D01*
X835572D01*
X835966Y704460D01*
Y703673D01*
X835572Y703279D01*
X848801Y680597D02*
Y678957D01*
X848473Y678629D01*
X847817D01*
X847489Y678957D01*
Y680597D01*
X845521Y678629D02*
X846833D01*
X845521Y679941D01*
Y680269D01*
X845849Y680597D01*
X846505D01*
X846833Y680269D01*
X844866D02*
X844538Y680597D01*
X843882D01*
X843554Y680269D01*
Y679941D01*
X843882Y679613D01*
X844209D01*
X843882D01*
X843554Y679285D01*
Y678957D01*
X843882Y678629D01*
X844538D01*
X844866Y678957D01*
D164*
X919465Y925721D02*
Y924737D01*
X919268Y924540D01*
X918874D01*
X918678Y924737D01*
Y925721D01*
X918284Y924540D02*
X917890D01*
X918087D01*
Y925721D01*
X918284Y925524D01*
X915921Y793372D02*
Y793897D01*
Y793635D01*
X915134D01*
Y794159D02*
X915921D01*
Y794553D01*
X915790Y794684D01*
X915528D01*
X915397Y794553D01*
Y794159D01*
X915790Y794946D02*
X915921Y795078D01*
Y795340D01*
X915790Y795471D01*
X915659D01*
X915528Y795340D01*
X915397Y795471D01*
X915265D01*
X915134Y795340D01*
Y795078D01*
X915265Y794946D01*
X915397D01*
X915528Y795078D01*
X915659Y794946D01*
X915790D01*
X915528Y795078D02*
Y795340D01*
X915134Y796127D02*
X915921D01*
X915528Y795734D01*
Y796258D01*
X860016Y637467D02*
Y637991D01*
Y637729D01*
X859229D01*
Y638254D02*
X860016D01*
Y638647D01*
X859885Y638779D01*
X859622D01*
X859491Y638647D01*
Y638254D01*
X859885Y639041D02*
X860016Y639172D01*
Y639434D01*
X859885Y639566D01*
X859754D01*
X859622Y639434D01*
X859491Y639566D01*
X859360D01*
X859229Y639434D01*
Y639172D01*
X859360Y639041D01*
X859491D01*
X859622Y639172D01*
X859754Y639041D01*
X859885D01*
X859622Y639172D02*
Y639434D01*
X859885Y639828D02*
X860016Y639959D01*
Y640222D01*
X859885Y640353D01*
X859754D01*
X859622Y640222D01*
Y640091D01*
Y640222D01*
X859491Y640353D01*
X859360D01*
X859229Y640222D01*
Y639959D01*
X859360Y639828D01*
X833638Y733923D02*
Y734448D01*
Y734186D01*
X832851D01*
Y734711D02*
X833638D01*
Y735104D01*
X833507Y735235D01*
X833244D01*
X833113Y735104D01*
Y734711D01*
X833507Y735498D02*
X833638Y735629D01*
Y735891D01*
X833507Y736022D01*
X833375D01*
X833244Y735891D01*
X833113Y736022D01*
X832982D01*
X832851Y735891D01*
Y735629D01*
X832982Y735498D01*
X833113D01*
X833244Y735629D01*
X833375Y735498D01*
X833507D01*
X833244Y735629D02*
Y735891D01*
X832851Y736810D02*
Y736285D01*
X833375Y736810D01*
X833507D01*
X833638Y736678D01*
Y736416D01*
X833507Y736285D01*
X833638Y639172D02*
X834425D01*
Y638778D01*
X834294Y638647D01*
X833769D01*
X833638Y638778D01*
Y639172D01*
Y637860D02*
X833769Y638123D01*
X834032Y638385D01*
X834294D01*
X834425Y638254D01*
Y637991D01*
X834294Y637860D01*
X834163D01*
X834032Y637991D01*
Y638385D01*
X867890Y674211D02*
X868677D01*
Y673818D01*
X868546Y673687D01*
X868021D01*
X867890Y673818D01*
Y674211D01*
Y672899D02*
Y673424D01*
X868284D01*
X868153Y673162D01*
Y673031D01*
X868284Y672899D01*
X868546D01*
X868677Y673031D01*
Y673293D01*
X868546Y673424D01*
X879307Y935564D02*
Y936088D01*
Y935826D01*
X878520D01*
Y936351D02*
X879307D01*
Y936744D01*
X879176Y936876D01*
X878914D01*
X878782Y936744D01*
Y936351D01*
X878520Y937138D02*
Y937400D01*
Y937269D01*
X879307D01*
X879176Y937138D01*
Y937794D02*
X879307Y937925D01*
Y938188D01*
X879176Y938319D01*
X879045D01*
X878914Y938188D01*
Y938056D01*
Y938188D01*
X878782Y938319D01*
X878651D01*
X878520Y938188D01*
Y937925D01*
X878651Y937794D01*
X909392Y664205D02*
X908867D01*
X909130D01*
Y663418D01*
X908605D02*
Y664205D01*
X908211D01*
X908080Y664074D01*
Y663811D01*
X908211Y663680D01*
X908605D01*
X907818Y664205D02*
X907293D01*
Y664074D01*
X907818Y663549D01*
Y663418D01*
X906637D02*
Y664205D01*
X907031Y663811D01*
X906506D01*
X922417Y945209D02*
X921892D01*
X922155D01*
Y944422D01*
X921630D02*
Y945209D01*
X921236D01*
X921105Y945078D01*
Y944815D01*
X921236Y944684D01*
X921630D01*
X920843Y944422D02*
X920580D01*
X920712D01*
Y945209D01*
X920843Y945078D01*
X919793Y944422D02*
Y945209D01*
X920187Y944815D01*
X919662D01*
X930882Y959480D02*
X931866D01*
X932063Y959283D01*
Y958890D01*
X931866Y958693D01*
X930882D01*
X932063Y958299D02*
Y957906D01*
Y958103D01*
X930882D01*
X931079Y958299D01*
Y957316D02*
X930882Y957119D01*
Y956725D01*
X931079Y956528D01*
X931276D01*
X931473Y956725D01*
Y956922D01*
Y956725D01*
X931669Y956528D01*
X931866D01*
X932063Y956725D01*
Y957119D01*
X931866Y957316D01*
X890987Y860957D02*
X890462D01*
X890724D01*
Y860170D01*
X890199D02*
Y860957D01*
X889806D01*
X889675Y860826D01*
Y860563D01*
X889806Y860432D01*
X890199D01*
X889412Y860957D02*
X888888D01*
Y860826D01*
X889412Y860301D01*
Y860170D01*
X888100Y860957D02*
X888625D01*
Y860563D01*
X888363Y860695D01*
X888232D01*
X888100Y860563D01*
Y860301D01*
X888232Y860170D01*
X888494D01*
X888625Y860301D01*
X930357Y711351D02*
X929832D01*
X930094D01*
Y710563D01*
X929570D02*
Y711351D01*
X929176D01*
X929045Y711219D01*
Y710957D01*
X929176Y710826D01*
X929570D01*
X928782Y711351D02*
X928258D01*
Y711219D01*
X928782Y710695D01*
Y710563D01*
X927470Y711351D02*
X927733Y711219D01*
X927995Y710957D01*
Y710695D01*
X927864Y710563D01*
X927602D01*
X927470Y710695D01*
Y710826D01*
X927602Y710957D01*
X927995D01*
X929963Y719225D02*
X929438D01*
X929701D01*
Y718437D01*
X929176D02*
Y719225D01*
X928782D01*
X928651Y719093D01*
Y718831D01*
X928782Y718700D01*
X929176D01*
X928389Y719225D02*
X927864D01*
Y719093D01*
X928389Y718569D01*
Y718437D01*
X927602Y719225D02*
X927077D01*
Y719093D01*
X927602Y718569D01*
Y718437D01*
X918939Y868437D02*
X918415D01*
X918677D01*
Y867650D01*
X918152D02*
Y868437D01*
X917759D01*
X917628Y868306D01*
Y868044D01*
X917759Y867912D01*
X918152D01*
X917365Y868437D02*
X916840D01*
Y868306D01*
X917365Y867781D01*
Y867650D01*
X916578Y868306D02*
X916447Y868437D01*
X916184D01*
X916053Y868306D01*
Y868175D01*
X916184Y868044D01*
X916053Y867912D01*
Y867781D01*
X916184Y867650D01*
X916447D01*
X916578Y867781D01*
Y867912D01*
X916447Y868044D01*
X916578Y868175D01*
Y868306D01*
X916447Y868044D02*
X916184D01*
X939806Y817650D02*
X939281D01*
X939543D01*
Y816863D01*
X939018D02*
Y817650D01*
X938625D01*
X938494Y817519D01*
Y817256D01*
X938625Y817125D01*
X939018D01*
X938231Y817650D02*
X937706D01*
Y817519D01*
X938231Y816994D01*
Y816863D01*
X937444Y816994D02*
X937313Y816863D01*
X937051D01*
X936919Y816994D01*
Y817519D01*
X937051Y817650D01*
X937313D01*
X937444Y817519D01*
Y817387D01*
X937313Y817256D01*
X936919D01*
X899517Y801902D02*
X898992D01*
X899255D01*
Y801115D01*
X898730D02*
Y801902D01*
X898336D01*
X898205Y801771D01*
Y801508D01*
X898336Y801377D01*
X898730D01*
X897943Y801771D02*
X897811Y801902D01*
X897549D01*
X897418Y801771D01*
Y801639D01*
X897549Y801508D01*
X897418Y801377D01*
Y801246D01*
X897549Y801115D01*
X897811D01*
X897943Y801246D01*
Y801377D01*
X897811Y801508D01*
X897943Y801639D01*
Y801771D01*
X897811Y801508D02*
X897549D01*
X897155Y801115D02*
X896893D01*
X897024D01*
Y801902D01*
X897155Y801771D01*
X940199Y799933D02*
X939674D01*
X939937D01*
Y799146D01*
X939412D02*
Y799933D01*
X939019D01*
X938887Y799802D01*
Y799540D01*
X939019Y799408D01*
X939412D01*
X938625Y799802D02*
X938494Y799933D01*
X938231D01*
X938100Y799802D01*
Y799671D01*
X938231Y799540D01*
X938100Y799408D01*
Y799277D01*
X938231Y799146D01*
X938494D01*
X938625Y799277D01*
Y799408D01*
X938494Y799540D01*
X938625Y799671D01*
Y799802D01*
X938494Y799540D02*
X938231D01*
X937838Y799802D02*
X937707Y799933D01*
X937444D01*
X937313Y799802D01*
Y799277D01*
X937444Y799146D01*
X937707D01*
X937838Y799277D01*
Y799802D01*
X902371Y638713D02*
X901846D01*
X902109D01*
Y637926D01*
X901584D02*
Y638713D01*
X901190D01*
X901059Y638582D01*
Y638319D01*
X901190Y638188D01*
X901584D01*
X900797Y638713D02*
X900272D01*
Y638582D01*
X900797Y638057D01*
Y637926D01*
X900010D02*
X899747D01*
X899879D01*
Y638713D01*
X900010Y638582D01*
X886656Y653280D02*
X886131D01*
X886394D01*
Y652493D01*
X885869D02*
Y653280D01*
X885475D01*
X885344Y653149D01*
Y652886D01*
X885475Y652755D01*
X885869D01*
X885082Y653280D02*
X884557D01*
Y653149D01*
X885082Y652624D01*
Y652493D01*
X884295Y653149D02*
X884163Y653280D01*
X883901D01*
X883770Y653149D01*
Y652624D01*
X883901Y652493D01*
X884163D01*
X884295Y652624D01*
Y653149D01*
X880160Y864795D02*
X879635D01*
X879897D01*
Y864008D01*
X879373D02*
Y864795D01*
X878979D01*
X878848Y864664D01*
Y864402D01*
X878979Y864271D01*
X879373D01*
X878586Y864795D02*
X878061D01*
Y864664D01*
X878586Y864139D01*
Y864008D01*
X877274D02*
X877798D01*
X877274Y864533D01*
Y864664D01*
X877405Y864795D01*
X877667D01*
X877798Y864664D01*
X858703Y675130D02*
X858178D01*
X858441D01*
Y674343D01*
X857916D02*
Y675130D01*
X857522D01*
X857391Y674999D01*
Y674736D01*
X857522Y674605D01*
X857916D01*
X857129Y675130D02*
X856604D01*
Y674999D01*
X857129Y674474D01*
Y674343D01*
X856342Y674999D02*
X856211Y675130D01*
X855948D01*
X855817Y674999D01*
Y674868D01*
X855948Y674736D01*
X856079D01*
X855948D01*
X855817Y674605D01*
Y674474D01*
X855948Y674343D01*
X856211D01*
X856342Y674474D01*
X869727Y683004D02*
X869202D01*
X869464D01*
Y682217D01*
X868940D02*
Y683004D01*
X868546D01*
X868415Y682873D01*
Y682611D01*
X868546Y682479D01*
X868940D01*
X867628Y683004D02*
X867890Y682873D01*
X868153Y682611D01*
Y682348D01*
X868021Y682217D01*
X867759D01*
X867628Y682348D01*
Y682479D01*
X867759Y682611D01*
X868153D01*
X867365Y683004D02*
X866841D01*
Y682873D01*
X867365Y682348D01*
Y682217D01*
X844038Y883890D02*
X843513D01*
X843775D01*
Y883103D01*
X843251D02*
Y883890D01*
X842857D01*
X842726Y883759D01*
Y883496D01*
X842857Y883365D01*
X843251D01*
X841939Y883890D02*
X842201Y883759D01*
X842463Y883496D01*
Y883234D01*
X842332Y883103D01*
X842070D01*
X841939Y883234D01*
Y883365D01*
X842070Y883496D01*
X842463D01*
X841676Y883234D02*
X841545Y883103D01*
X841283D01*
X841152Y883234D01*
Y883759D01*
X841283Y883890D01*
X841545D01*
X841676Y883759D01*
Y883628D01*
X841545Y883496D01*
X841152D01*
X850337Y855150D02*
X849812D01*
X850075D01*
Y854363D01*
X849550D02*
Y855150D01*
X849156D01*
X849025Y855019D01*
Y854756D01*
X849156Y854625D01*
X849550D01*
X848238Y855150D02*
X848500Y855019D01*
X848763Y854756D01*
Y854494D01*
X848631Y854363D01*
X848369D01*
X848238Y854494D01*
Y854625D01*
X848369Y854756D01*
X848763D01*
X847976Y855019D02*
X847844Y855150D01*
X847582D01*
X847451Y855019D01*
Y854887D01*
X847582Y854756D01*
X847451Y854625D01*
Y854494D01*
X847582Y854363D01*
X847844D01*
X847976Y854494D01*
Y854625D01*
X847844Y854756D01*
X847976Y854887D01*
Y855019D01*
X847844Y854756D02*
X847582D01*
X870777Y966469D02*
Y965813D01*
X870646Y965682D01*
X870383D01*
X870252Y965813D01*
Y966469D01*
X869990Y966337D02*
X869858Y966469D01*
X869596D01*
X869465Y966337D01*
Y966206D01*
X869596Y966075D01*
X869727D01*
X869596D01*
X869465Y965944D01*
Y965813D01*
X869596Y965682D01*
X869858D01*
X869990Y965813D01*
X869203Y965682D02*
X868940D01*
X869071D01*
Y966469D01*
X869203Y966337D01*
X867758Y944028D02*
X867233D01*
X867496D01*
Y943241D01*
X866971D02*
Y944028D01*
X866578D01*
X866446Y943897D01*
Y943634D01*
X866578Y943503D01*
X866971D01*
X865659Y944028D02*
X865922Y943897D01*
X866184Y943634D01*
Y943372D01*
X866053Y943241D01*
X865790D01*
X865659Y943372D01*
Y943503D01*
X865790Y943634D01*
X866184D01*
X865003Y943241D02*
Y944028D01*
X865397Y943634D01*
X864872D01*
X898205Y966601D02*
Y967125D01*
Y966863D01*
X897418D01*
Y967388D02*
X898205D01*
Y967781D01*
X898074Y967912D01*
X897811D01*
X897680Y967781D01*
Y967388D01*
X898205Y968700D02*
X898074Y968437D01*
X897811Y968175D01*
X897549D01*
X897418Y968306D01*
Y968568D01*
X897549Y968700D01*
X897680D01*
X897811Y968568D01*
Y968175D01*
X898205Y969487D02*
Y968962D01*
X897811D01*
X897942Y969224D01*
Y969355D01*
X897811Y969487D01*
X897549D01*
X897418Y969355D01*
Y969093D01*
X897549Y968962D01*
X907457Y966469D02*
X906473D01*
X906276Y966666D01*
Y967060D01*
X906473Y967256D01*
X907457D01*
X907260Y967650D02*
X907457Y967847D01*
Y968240D01*
X907260Y968437D01*
X907063D01*
X906866Y968240D01*
Y968044D01*
Y968240D01*
X906670Y968437D01*
X906473D01*
X906276Y968240D01*
Y967847D01*
X906473Y967650D01*
X907260Y968831D02*
X907457Y969028D01*
Y969421D01*
X907260Y969618D01*
X906473D01*
X906276Y969421D01*
Y969028D01*
X906473Y968831D01*
X907260D01*
X887181Y935236D02*
Y935760D01*
Y935498D01*
X886394D01*
Y936023D02*
X887181D01*
Y936416D01*
X887050Y936548D01*
X886788D01*
X886656Y936416D01*
Y936023D01*
X887181Y937335D02*
Y936810D01*
X886788D01*
X886919Y937072D01*
Y937204D01*
X886788Y937335D01*
X886525D01*
X886394Y937204D01*
Y936941D01*
X886525Y936810D01*
X886394Y937597D02*
Y937860D01*
Y937728D01*
X887181D01*
X887050Y937597D01*
X899386Y935498D02*
Y936023D01*
Y935760D01*
X898599D01*
Y936285D02*
X899386D01*
Y936679D01*
X899255Y936810D01*
X898992D01*
X898861Y936679D01*
Y936285D01*
X899386Y937597D02*
Y937072D01*
X898992D01*
X899123Y937335D01*
Y937466D01*
X898992Y937597D01*
X898730D01*
X898599Y937466D01*
Y937204D01*
X898730Y937072D01*
X899255Y937860D02*
X899386Y937991D01*
Y938253D01*
X899255Y938384D01*
X898730D01*
X898599Y938253D01*
Y937991D01*
X898730Y937860D01*
X899255D01*
X874451Y666862D02*
X873926D01*
X874189D01*
Y666075D01*
X873664D02*
Y666862D01*
X873271D01*
X873139Y666731D01*
Y666469D01*
X873271Y666338D01*
X873664D01*
X872352Y666862D02*
X872614Y666731D01*
X872877Y666469D01*
Y666206D01*
X872746Y666075D01*
X872483D01*
X872352Y666206D01*
Y666338D01*
X872483Y666469D01*
X872877D01*
X872090Y666731D02*
X871959Y666862D01*
X871696D01*
X871565Y666731D01*
Y666600D01*
X871696Y666469D01*
X871827D01*
X871696D01*
X871565Y666338D01*
Y666206D01*
X871696Y666075D01*
X871959D01*
X872090Y666206D01*
X846892Y930248D02*
X846367D01*
X846630D01*
Y929461D01*
X846105D02*
Y930248D01*
X845711D01*
X845580Y930117D01*
Y929855D01*
X845711Y929723D01*
X846105D01*
X844793Y930248D02*
X845055Y930117D01*
X845318Y929855D01*
Y929592D01*
X845187Y929461D01*
X844924D01*
X844793Y929592D01*
Y929723D01*
X844924Y929855D01*
X845318D01*
X844006Y929461D02*
X844531D01*
X844006Y929986D01*
Y930117D01*
X844137Y930248D01*
X844400D01*
X844531Y930117D01*
X847680Y873555D02*
X847155D01*
X847417D01*
Y872768D01*
X846892D02*
Y873555D01*
X846499D01*
X846368Y873424D01*
Y873162D01*
X846499Y873030D01*
X846892D01*
X845580Y873555D02*
X845843Y873424D01*
X846105Y873162D01*
Y872899D01*
X845974Y872768D01*
X845712D01*
X845580Y872899D01*
Y873030D01*
X845712Y873162D01*
X846105D01*
X844793Y873555D02*
X845056Y873424D01*
X845318Y873162D01*
Y872899D01*
X845187Y872768D01*
X844925D01*
X844793Y872899D01*
Y873030D01*
X844925Y873162D01*
X845318D01*
X896761Y866075D02*
X896236D01*
X896499D01*
Y865288D01*
X895974D02*
Y866075D01*
X895580D01*
X895449Y865944D01*
Y865681D01*
X895580Y865550D01*
X895974D01*
X894662Y866075D02*
X894924Y865944D01*
X895187Y865681D01*
Y865419D01*
X895055Y865288D01*
X894793D01*
X894662Y865419D01*
Y865550D01*
X894793Y865681D01*
X895187D01*
X894400Y865288D02*
X894137D01*
X894268D01*
Y866075D01*
X894400Y865944D01*
X869333Y864894D02*
X868808D01*
X869071D01*
Y864107D01*
X868546D02*
Y864894D01*
X868152D01*
X868021Y864763D01*
Y864500D01*
X868152Y864369D01*
X868546D01*
X867234Y864894D02*
X867496Y864763D01*
X867759Y864500D01*
Y864238D01*
X867628Y864107D01*
X867365D01*
X867234Y864238D01*
Y864369D01*
X867365Y864500D01*
X867759D01*
X866972Y864763D02*
X866840Y864894D01*
X866578D01*
X866447Y864763D01*
Y864238D01*
X866578Y864107D01*
X866840D01*
X866972Y864238D01*
Y864763D01*
X896892Y861351D02*
X896367D01*
X896630D01*
Y860563D01*
X896105D02*
Y861351D01*
X895711D01*
X895580Y861219D01*
Y860957D01*
X895711Y860826D01*
X896105D01*
X894793Y861351D02*
X895318D01*
Y860957D01*
X895055Y861088D01*
X894924D01*
X894793Y860957D01*
Y860695D01*
X894924Y860563D01*
X895187D01*
X895318Y860695D01*
X894531D02*
X894400Y860563D01*
X894137D01*
X894006Y860695D01*
Y861219D01*
X894137Y861351D01*
X894400D01*
X894531Y861219D01*
Y861088D01*
X894400Y860957D01*
X894006D01*
X857128Y940484D02*
X856604D01*
X856866D01*
Y939697D01*
X856341D02*
Y940484D01*
X855948D01*
X855816Y940353D01*
Y940091D01*
X855948Y939960D01*
X856341D01*
X855029Y940484D02*
X855554D01*
Y940091D01*
X855292Y940222D01*
X855161D01*
X855029Y940091D01*
Y939828D01*
X855161Y939697D01*
X855423D01*
X855554Y939828D01*
X854767Y940353D02*
X854636Y940484D01*
X854373D01*
X854242Y940353D01*
Y940222D01*
X854373Y940091D01*
X854242Y939960D01*
Y939828D01*
X854373Y939697D01*
X854636D01*
X854767Y939828D01*
Y939960D01*
X854636Y940091D01*
X854767Y940222D01*
Y940353D01*
X854636Y940091D02*
X854373D01*
X846498Y909382D02*
X845974D01*
X846236D01*
Y908595D01*
X845711D02*
Y909382D01*
X845318D01*
X845187Y909251D01*
Y908988D01*
X845318Y908857D01*
X845711D01*
X844399Y909382D02*
X844924D01*
Y908988D01*
X844662Y909120D01*
X844531D01*
X844399Y908988D01*
Y908726D01*
X844531Y908595D01*
X844793D01*
X844924Y908726D01*
X844137Y909382D02*
X843612D01*
Y909251D01*
X844137Y908726D01*
Y908595D01*
X845055Y901246D02*
Y901771D01*
Y901509D01*
X844268D01*
Y902033D02*
X845055D01*
Y902427D01*
X844924Y902558D01*
X844662D01*
X844530Y902427D01*
Y902033D01*
X845055Y903345D02*
Y902820D01*
X844662D01*
X844793Y903083D01*
Y903214D01*
X844662Y903345D01*
X844399D01*
X844268Y903214D01*
Y902952D01*
X844399Y902820D01*
X845055Y904132D02*
X844924Y903870D01*
X844662Y903608D01*
X844399D01*
X844268Y903739D01*
Y904001D01*
X844399Y904132D01*
X844530D01*
X844662Y904001D01*
Y903608D01*
X846105Y898359D02*
X845580D01*
X845842D01*
Y897571D01*
X845318D02*
Y898359D01*
X844924D01*
X844793Y898227D01*
Y897965D01*
X844924Y897834D01*
X845318D01*
X844006Y898359D02*
X844530D01*
Y897965D01*
X844268Y898096D01*
X844137D01*
X844006Y897965D01*
Y897703D01*
X844137Y897571D01*
X844399D01*
X844530Y897703D01*
X843219Y898359D02*
X843743D01*
Y897965D01*
X843481Y898096D01*
X843350D01*
X843219Y897965D01*
Y897703D01*
X843350Y897571D01*
X843612D01*
X843743Y897703D01*
X846105Y888910D02*
X845580D01*
X845842D01*
Y888122D01*
X845318D02*
Y888910D01*
X844924D01*
X844793Y888778D01*
Y888516D01*
X844924Y888385D01*
X845318D01*
X844006Y888910D02*
X844530D01*
Y888516D01*
X844268Y888647D01*
X844137D01*
X844006Y888516D01*
Y888254D01*
X844137Y888122D01*
X844399D01*
X844530Y888254D01*
X843743Y888778D02*
X843612Y888910D01*
X843350D01*
X843219Y888778D01*
Y888647D01*
X843350Y888516D01*
X843481D01*
X843350D01*
X843219Y888385D01*
Y888254D01*
X843350Y888122D01*
X843612D01*
X843743Y888254D01*
X846105Y893634D02*
X845580D01*
X845842D01*
Y892847D01*
X845318D02*
Y893634D01*
X844924D01*
X844793Y893503D01*
Y893241D01*
X844924Y893109D01*
X845318D01*
X844006Y893634D02*
X844530D01*
Y893241D01*
X844268Y893372D01*
X844137D01*
X844006Y893241D01*
Y892978D01*
X844137Y892847D01*
X844399D01*
X844530Y892978D01*
X843350Y892847D02*
Y893634D01*
X843743Y893241D01*
X843219D01*
X944071Y657414D02*
X943546D01*
X943808D01*
Y656626D01*
X943283D02*
Y657414D01*
X942890D01*
X942759Y657282D01*
Y657020D01*
X942890Y656889D01*
X943283D01*
X942496Y656626D02*
X942234D01*
X942365D01*
Y657414D01*
X942496Y657282D01*
X941840D02*
X941709Y657414D01*
X941447D01*
X941316Y657282D01*
Y657151D01*
X941447Y657020D01*
X941316Y656889D01*
Y656758D01*
X941447Y656626D01*
X941709D01*
X941840Y656758D01*
Y656889D01*
X941709Y657020D01*
X941840Y657151D01*
Y657282D01*
X941709Y657020D02*
X941447D01*
X944924Y663319D02*
X944399D01*
X944661D01*
Y662532D01*
X944137D02*
Y663319D01*
X943743D01*
X943612Y663188D01*
Y662925D01*
X943743Y662794D01*
X944137D01*
X943349Y663319D02*
X942825D01*
Y663188D01*
X943349Y662663D01*
Y662532D01*
X923992Y954855D02*
X922811D01*
Y955642D01*
Y956823D02*
Y956036D01*
X923599Y956823D01*
X923795D01*
X923992Y956626D01*
Y956232D01*
X923795Y956036D01*
X899254Y690878D02*
X898730D01*
X898992D01*
Y690091D01*
X898467D02*
Y690878D01*
X898074D01*
X897942Y690747D01*
Y690485D01*
X898074Y690353D01*
X898467D01*
X897680Y690747D02*
X897549Y690878D01*
X897287D01*
X897155Y690747D01*
Y690616D01*
X897287Y690485D01*
X897418D01*
X897287D01*
X897155Y690353D01*
Y690222D01*
X897287Y690091D01*
X897549D01*
X897680Y690222D01*
X896893Y690747D02*
X896762Y690878D01*
X896499D01*
X896368Y690747D01*
Y690222D01*
X896499Y690091D01*
X896762D01*
X896893Y690222D01*
Y690747D01*
X893742Y693634D02*
X893218D01*
X893480D01*
Y692847D01*
X892955D02*
Y693634D01*
X892562D01*
X892431Y693503D01*
Y693240D01*
X892562Y693109D01*
X892955D01*
X891644Y692847D02*
X892168D01*
X891644Y693372D01*
Y693503D01*
X891775Y693634D01*
X892037D01*
X892168Y693503D01*
X890856Y693634D02*
X891119Y693503D01*
X891381Y693240D01*
Y692978D01*
X891250Y692847D01*
X890987D01*
X890856Y692978D01*
Y693109D01*
X890987Y693240D01*
X891381D01*
X922483Y779461D02*
X921958D01*
X922220D01*
Y778674D01*
X921696D02*
Y779461D01*
X921302D01*
X921171Y779330D01*
Y779067D01*
X921302Y778936D01*
X921696D01*
X920384Y779461D02*
X920909D01*
Y779067D01*
X920646Y779198D01*
X920515D01*
X920384Y779067D01*
Y778805D01*
X920515Y778674D01*
X920777D01*
X920909Y778805D01*
X923664Y795603D02*
X923139D01*
X923402D01*
Y794815D01*
X922877D02*
Y795603D01*
X922483D01*
X922352Y795471D01*
Y795209D01*
X922483Y795078D01*
X922877D01*
X921565Y795603D02*
X921827Y795471D01*
X922090Y795209D01*
Y794947D01*
X921958Y794815D01*
X921696D01*
X921565Y794947D01*
Y795078D01*
X921696Y795209D01*
X922090D01*
X940987Y789303D02*
X940462D01*
X940724D01*
Y788516D01*
X940200D02*
Y789303D01*
X939806D01*
X939675Y789172D01*
Y788910D01*
X939806Y788779D01*
X940200D01*
X939019Y788516D02*
Y789303D01*
X939412Y788910D01*
X938888D01*
X918939Y810957D02*
X918415D01*
X918677D01*
Y810170D01*
X918152D02*
Y810957D01*
X917759D01*
X917628Y810826D01*
Y810563D01*
X917759Y810432D01*
X918152D01*
X916840Y810170D02*
X917365D01*
X916840Y810695D01*
Y810826D01*
X916972Y810957D01*
X917234D01*
X917365Y810826D01*
X923664Y813713D02*
X923139D01*
X923402D01*
Y812926D01*
X922877D02*
Y813713D01*
X922483D01*
X922352Y813582D01*
Y813319D01*
X922483Y813188D01*
X922877D01*
X922090Y813582D02*
X921958Y813713D01*
X921696D01*
X921565Y813582D01*
Y813450D01*
X921696Y813319D01*
X921827D01*
X921696D01*
X921565Y813188D01*
Y813057D01*
X921696Y812926D01*
X921958D01*
X922090Y813057D01*
X940331Y805553D02*
Y806078D01*
Y805816D01*
X939544D01*
Y806341D02*
X940331D01*
Y806734D01*
X940200Y806865D01*
X939937D01*
X939806Y806734D01*
Y806341D01*
X939544Y807128D02*
Y807390D01*
Y807259D01*
X940331D01*
X940200Y807128D01*
X855947Y989303D02*
X855423D01*
X855685D01*
Y988516D01*
X855160D02*
Y989303D01*
X854767D01*
X854636Y989172D01*
Y988910D01*
X854767Y988779D01*
X855160D01*
X854373Y988647D02*
X854242Y988516D01*
X853979D01*
X853848Y988647D01*
Y989172D01*
X853979Y989303D01*
X854242D01*
X854373Y989172D01*
Y989041D01*
X854242Y988910D01*
X853848D01*
X942561Y646390D02*
X942037D01*
X942299D01*
Y645603D01*
X941774D02*
Y646390D01*
X941381D01*
X941249Y646259D01*
Y645996D01*
X941381Y645865D01*
X941774D01*
X940987Y646259D02*
X940856Y646390D01*
X940594D01*
X940462Y646259D01*
Y646128D01*
X940594Y645996D01*
X940725D01*
X940594D01*
X940462Y645865D01*
Y645734D01*
X940594Y645603D01*
X940856D01*
X940987Y645734D01*
X940200D02*
X940069Y645603D01*
X939806D01*
X939675Y645734D01*
Y646259D01*
X939806Y646390D01*
X940069D01*
X940200Y646259D01*
Y646128D01*
X940069Y645996D01*
X939675D01*
X933506Y693634D02*
X932982D01*
X933244D01*
Y692847D01*
X932719D02*
Y693634D01*
X932326D01*
X932194Y693503D01*
Y693240D01*
X932326Y693109D01*
X932719D01*
X931932Y693503D02*
X931801Y693634D01*
X931538D01*
X931407Y693503D01*
Y693372D01*
X931538Y693240D01*
X931670D01*
X931538D01*
X931407Y693109D01*
Y692978D01*
X931538Y692847D01*
X931801D01*
X931932Y692978D01*
X931145Y693634D02*
X930620D01*
Y693503D01*
X931145Y692978D01*
Y692847D01*
X935344Y656626D02*
X934819D01*
X935081D01*
Y655839D01*
X934556D02*
Y656626D01*
X934163D01*
X934032Y656495D01*
Y656233D01*
X934163Y656101D01*
X934556D01*
X933376Y655839D02*
Y656626D01*
X933769Y656233D01*
X933245D01*
X932982Y655839D02*
X932720D01*
X932851D01*
Y656626D01*
X932982Y656495D01*
X937837Y646390D02*
X937312D01*
X937575D01*
Y645603D01*
X937050D02*
Y646390D01*
X936656D01*
X936525Y646259D01*
Y645996D01*
X936656Y645865D01*
X937050D01*
X935869Y645603D02*
Y646390D01*
X936263Y645996D01*
X935738D01*
X935476Y646259D02*
X935344Y646390D01*
X935082D01*
X934951Y646259D01*
Y645734D01*
X935082Y645603D01*
X935344D01*
X935476Y645734D01*
Y646259D01*
X827995Y702689D02*
X827470D01*
X827732D01*
Y701902D01*
X827207D02*
Y702689D01*
X826814D01*
X826683Y702558D01*
Y702296D01*
X826814Y702164D01*
X827207D01*
X825895Y702689D02*
X826420D01*
Y702296D01*
X826158Y702427D01*
X826027D01*
X825895Y702296D01*
Y702033D01*
X826027Y701902D01*
X826289D01*
X826420Y702033D01*
X825108Y701902D02*
X825633D01*
X825108Y702427D01*
Y702558D01*
X825239Y702689D01*
X825502D01*
X825633Y702558D01*
X858638Y681823D02*
X858113D01*
X858375D01*
Y681036D01*
X857850D02*
Y681823D01*
X857457D01*
X857326Y681692D01*
Y681429D01*
X857457Y681298D01*
X857850D01*
X857063Y681036D02*
X856801D01*
X856932D01*
Y681823D01*
X857063Y681692D01*
X856407Y681823D02*
X855883D01*
Y681692D01*
X856407Y681167D01*
Y681036D01*
X918939Y646784D02*
X918415D01*
X918677D01*
Y645997D01*
X918152D02*
Y646784D01*
X917759D01*
X917628Y646653D01*
Y646390D01*
X917759Y646259D01*
X918152D01*
X916971Y645997D02*
Y646784D01*
X917365Y646390D01*
X916840D01*
X916053Y646784D02*
X916316Y646653D01*
X916578Y646390D01*
Y646128D01*
X916447Y645997D01*
X916184D01*
X916053Y646128D01*
Y646259D01*
X916184Y646390D01*
X916578D01*
X923270Y646784D02*
X922745D01*
X923008D01*
Y645997D01*
X922483D02*
Y646784D01*
X922089D01*
X921958Y646653D01*
Y646390D01*
X922089Y646259D01*
X922483D01*
X921302Y645997D02*
Y646784D01*
X921696Y646390D01*
X921171D01*
X920384Y646784D02*
X920909D01*
Y646390D01*
X920646Y646521D01*
X920515D01*
X920384Y646390D01*
Y646128D01*
X920515Y645997D01*
X920777D01*
X920909Y646128D01*
X927863Y696406D02*
X927339D01*
X927601D01*
Y695619D01*
X927076D02*
Y696406D01*
X926683D01*
X926551Y696275D01*
Y696013D01*
X926683Y695882D01*
X927076D01*
X926289Y696275D02*
X926158Y696406D01*
X925895D01*
X925764Y696275D01*
Y696144D01*
X925895Y696013D01*
X926027D01*
X925895D01*
X925764Y695882D01*
Y695750D01*
X925895Y695619D01*
X926158D01*
X926289Y695750D01*
X925502Y695619D02*
X925239D01*
X925371D01*
Y696406D01*
X925502Y696275D01*
X925632Y656626D02*
X925107D01*
X925370D01*
Y655839D01*
X924845D02*
Y656626D01*
X924452D01*
X924320Y656495D01*
Y656233D01*
X924452Y656101D01*
X924845D01*
X923664Y655839D02*
Y656626D01*
X924058Y656233D01*
X923533D01*
X923271Y656495D02*
X923140Y656626D01*
X922877D01*
X922746Y656495D01*
Y656364D01*
X922877Y656233D01*
X923009D01*
X922877D01*
X922746Y656101D01*
Y655970D01*
X922877Y655839D01*
X923140D01*
X923271Y655970D01*
X893349Y699146D02*
X892824D01*
X893087D01*
Y698359D01*
X892562D02*
Y699146D01*
X892168D01*
X892037Y699015D01*
Y698752D01*
X892168Y698621D01*
X892562D01*
X891775Y699015D02*
X891644Y699146D01*
X891381D01*
X891250Y699015D01*
Y698883D01*
X891381Y698752D01*
X891250Y698621D01*
Y698490D01*
X891381Y698359D01*
X891644D01*
X891775Y698490D01*
Y698621D01*
X891644Y698752D01*
X891775Y698883D01*
Y699015D01*
X891644Y698752D02*
X891381D01*
X916774Y959382D02*
X916249D01*
X916512D01*
Y958595D01*
X915987D02*
Y959382D01*
X915593D01*
X915462Y959251D01*
Y958988D01*
X915593Y958857D01*
X915987D01*
X915200Y958595D02*
X914937D01*
X915069D01*
Y959382D01*
X915200Y959251D01*
X914544Y958595D02*
X914281D01*
X914413D01*
Y959382D01*
X914544Y959251D01*
X900435Y815288D02*
X899911D01*
X900173D01*
Y814501D01*
X899648D02*
Y815288D01*
X899255D01*
X899123Y815156D01*
Y814894D01*
X899255Y814763D01*
X899648D01*
X898336Y814501D02*
X898861D01*
X898336Y815025D01*
Y815156D01*
X898468Y815288D01*
X898730D01*
X898861Y815156D01*
X898074D02*
X897943Y815288D01*
X897680D01*
X897549Y815156D01*
Y814632D01*
X897680Y814501D01*
X897943D01*
X898074Y814632D01*
Y815156D01*
X893742Y688122D02*
X893218D01*
X893480D01*
Y687335D01*
X892955D02*
Y688122D01*
X892562D01*
X892431Y687991D01*
Y687729D01*
X892562Y687598D01*
X892955D01*
X891644Y687335D02*
X892168D01*
X891644Y687860D01*
Y687991D01*
X891775Y688122D01*
X892037D01*
X892168Y687991D01*
X891381Y688122D02*
X890856D01*
Y687991D01*
X891381Y687466D01*
Y687335D01*
X910278Y680642D02*
X909753D01*
X910016D01*
Y679855D01*
X909491D02*
Y680642D01*
X909097D01*
X908966Y680511D01*
Y680248D01*
X909097Y680117D01*
X909491D01*
X908179Y679855D02*
X908704D01*
X908179Y680379D01*
Y680511D01*
X908310Y680642D01*
X908572D01*
X908704Y680511D01*
X907917D02*
X907785Y680642D01*
X907523D01*
X907392Y680511D01*
Y680379D01*
X907523Y680248D01*
X907392Y680117D01*
Y679986D01*
X907523Y679855D01*
X907785D01*
X907917Y679986D01*
Y680117D01*
X907785Y680248D01*
X907917Y680379D01*
Y680511D01*
X907785Y680248D02*
X907523D01*
X915790Y680642D02*
X915265D01*
X915527D01*
Y679855D01*
X915003D02*
Y680642D01*
X914609D01*
X914478Y680511D01*
Y680248D01*
X914609Y680117D01*
X915003D01*
X913691Y679855D02*
X914215D01*
X913691Y680379D01*
Y680511D01*
X913822Y680642D01*
X914084D01*
X914215Y680511D01*
X912904Y680642D02*
X913428D01*
Y680248D01*
X913166Y680379D01*
X913035D01*
X912904Y680248D01*
Y679986D01*
X913035Y679855D01*
X913297D01*
X913428Y679986D01*
X927995Y690911D02*
X927470D01*
X927732D01*
Y690124D01*
X927207D02*
Y690911D01*
X926814D01*
X926683Y690780D01*
Y690517D01*
X926814Y690386D01*
X927207D01*
X925895Y690124D02*
X926420D01*
X925895Y690649D01*
Y690780D01*
X926027Y690911D01*
X926289D01*
X926420Y690780D01*
X925633Y690255D02*
X925502Y690124D01*
X925239D01*
X925108Y690255D01*
Y690780D01*
X925239Y690911D01*
X925502D01*
X925633Y690780D01*
Y690649D01*
X925502Y690517D01*
X925108D01*
X899254Y701902D02*
X898730D01*
X898992D01*
Y701115D01*
X898467D02*
Y701902D01*
X898074D01*
X897942Y701771D01*
Y701508D01*
X898074Y701377D01*
X898467D01*
X897155Y701115D02*
X897680D01*
X897155Y701639D01*
Y701771D01*
X897287Y701902D01*
X897549D01*
X897680Y701771D01*
X896368Y701115D02*
X896893D01*
X896368Y701639D01*
Y701771D01*
X896499Y701902D01*
X896762D01*
X896893Y701771D01*
X927995Y701902D02*
X927470D01*
X927732D01*
Y701115D01*
X927207D02*
Y701902D01*
X926814D01*
X926683Y701771D01*
Y701508D01*
X926814Y701377D01*
X927207D01*
X925895Y701115D02*
X926420D01*
X925895Y701639D01*
Y701771D01*
X926027Y701902D01*
X926289D01*
X926420Y701771D01*
X925633D02*
X925502Y701902D01*
X925239D01*
X925108Y701771D01*
Y701639D01*
X925239Y701508D01*
X925371D01*
X925239D01*
X925108Y701377D01*
Y701246D01*
X925239Y701115D01*
X925502D01*
X925633Y701246D01*
X899123Y696390D02*
X898598D01*
X898861D01*
Y695603D01*
X898336D02*
Y696390D01*
X897942D01*
X897811Y696259D01*
Y695996D01*
X897942Y695865D01*
X898336D01*
X897024Y695603D02*
X897549D01*
X897024Y696128D01*
Y696259D01*
X897155Y696390D01*
X897418D01*
X897549Y696259D01*
X896762Y695603D02*
X896499D01*
X896630D01*
Y696390D01*
X896762Y696259D01*
X921302Y680642D02*
X920777D01*
X921039D01*
Y679855D01*
X920514D02*
Y680642D01*
X920121D01*
X919990Y680511D01*
Y680248D01*
X920121Y680117D01*
X920514D01*
X919203Y679855D02*
X919727D01*
X919203Y680379D01*
Y680511D01*
X919334Y680642D01*
X919596D01*
X919727Y680511D01*
X918547Y679855D02*
Y680642D01*
X918940Y680248D01*
X918415D01*
X927995Y685366D02*
X927470D01*
X927732D01*
Y684579D01*
X927207D02*
Y685366D01*
X926814D01*
X926683Y685235D01*
Y684973D01*
X926814Y684842D01*
X927207D01*
X926420Y685235D02*
X926289Y685366D01*
X926027D01*
X925895Y685235D01*
Y685104D01*
X926027Y684973D01*
X926158D01*
X926027D01*
X925895Y684842D01*
Y684710D01*
X926027Y684579D01*
X926289D01*
X926420Y684710D01*
X925633Y685235D02*
X925502Y685366D01*
X925239D01*
X925108Y685235D01*
Y685104D01*
X925239Y684973D01*
X925371D01*
X925239D01*
X925108Y684842D01*
Y684710D01*
X925239Y684579D01*
X925502D01*
X925633Y684710D01*
X904766Y680642D02*
X904241D01*
X904504D01*
Y679855D01*
X903979D02*
Y680642D01*
X903585D01*
X903454Y680511D01*
Y680248D01*
X903585Y680117D01*
X903979D01*
X903192Y680511D02*
X903061Y680642D01*
X902798D01*
X902667Y680511D01*
Y680379D01*
X902798Y680248D01*
X902929D01*
X902798D01*
X902667Y680117D01*
Y679986D01*
X902798Y679855D01*
X903061D01*
X903192Y679986D01*
X901880Y679855D02*
X902405D01*
X901880Y680379D01*
Y680511D01*
X902011Y680642D01*
X902273D01*
X902405Y680511D01*
X933506Y699146D02*
X932982D01*
X933244D01*
Y698359D01*
X932719D02*
Y699146D01*
X932326D01*
X932194Y699015D01*
Y698752D01*
X932326Y698621D01*
X932719D01*
X931932Y699015D02*
X931801Y699146D01*
X931538D01*
X931407Y699015D01*
Y698883D01*
X931538Y698752D01*
X931670D01*
X931538D01*
X931407Y698621D01*
Y698490D01*
X931538Y698359D01*
X931801D01*
X931932Y698490D01*
X930751Y698359D02*
Y699146D01*
X931145Y698752D01*
X930620D01*
X933506Y687729D02*
X932982D01*
X933244D01*
Y686941D01*
X932719D02*
Y687729D01*
X932326D01*
X932194Y687597D01*
Y687335D01*
X932326Y687204D01*
X932719D01*
X931932Y687597D02*
X931801Y687729D01*
X931538D01*
X931407Y687597D01*
Y687466D01*
X931538Y687335D01*
X931670D01*
X931538D01*
X931407Y687204D01*
Y687073D01*
X931538Y686941D01*
X931801D01*
X931932Y687073D01*
X930620Y687729D02*
X931145D01*
Y687335D01*
X930882Y687466D01*
X930751D01*
X930620Y687335D01*
Y687073D01*
X930751Y686941D01*
X931014D01*
X931145Y687073D01*
X930357Y656626D02*
X929832D01*
X930094D01*
Y655839D01*
X929570D02*
Y656626D01*
X929176D01*
X929045Y656495D01*
Y656233D01*
X929176Y656101D01*
X929570D01*
X928389Y655839D02*
Y656626D01*
X928782Y656233D01*
X928258D01*
X927470Y655839D02*
X927995D01*
X927470Y656364D01*
Y656495D01*
X927602Y656626D01*
X927864D01*
X927995Y656495D01*
X898205Y683530D02*
Y684054D01*
Y683792D01*
X897418D01*
Y684317D02*
X898205D01*
Y684710D01*
X898074Y684842D01*
X897811D01*
X897680Y684710D01*
Y684317D01*
X898074Y685104D02*
X898205Y685235D01*
Y685498D01*
X898074Y685629D01*
X897942D01*
X897811Y685498D01*
Y685366D01*
Y685498D01*
X897680Y685629D01*
X897549D01*
X897418Y685498D01*
Y685235D01*
X897549Y685104D01*
X898205Y686416D02*
X898074Y686154D01*
X897811Y685891D01*
X897549D01*
X897418Y686022D01*
Y686285D01*
X897549Y686416D01*
X897680D01*
X897811Y686285D01*
Y685891D01*
X920908Y656626D02*
X920383D01*
X920646D01*
Y655839D01*
X920121D02*
Y656626D01*
X919727D01*
X919596Y656495D01*
Y656233D01*
X919727Y656101D01*
X920121D01*
X918940Y655839D02*
Y656626D01*
X919334Y656233D01*
X918809D01*
X918153Y655839D02*
Y656626D01*
X918546Y656233D01*
X918022D01*
X828126Y954855D02*
Y955380D01*
Y955118D01*
X827339D01*
Y955642D02*
X828126D01*
Y956036D01*
X827995Y956167D01*
X827732D01*
X827601Y956036D01*
Y955642D01*
X827339Y956429D02*
Y956692D01*
Y956561D01*
X828126D01*
X827995Y956429D01*
Y957085D02*
X828126Y957216D01*
Y957479D01*
X827995Y957610D01*
X827470D01*
X827339Y957479D01*
Y957216D01*
X827470Y957085D01*
X827995D01*
X827601Y949769D02*
X828257D01*
X828421Y949605D01*
Y949277D01*
X828257Y949113D01*
X827601D01*
X827437Y949277D01*
Y949605D01*
X827765Y949441D02*
X827437Y949769D01*
Y949605D02*
X827601Y949769D01*
X827437Y950753D02*
Y950097D01*
X828093Y950753D01*
X828257D01*
X828421Y950589D01*
Y950261D01*
X828257Y950097D01*
X903520Y941666D02*
X902995D01*
X903257D01*
Y940878D01*
X902732D02*
Y941666D01*
X902339D01*
X902208Y941534D01*
Y941272D01*
X902339Y941141D01*
X902732D01*
X901945Y940878D02*
X901683D01*
X901814D01*
Y941666D01*
X901945Y941534D01*
X900764Y941666D02*
X901289D01*
Y941272D01*
X901027Y941403D01*
X900896D01*
X900764Y941272D01*
Y941010D01*
X900896Y940878D01*
X901158D01*
X901289Y941010D01*
X914347Y716601D02*
Y717125D01*
Y716863D01*
X913559D01*
Y717388D02*
X914347D01*
Y717781D01*
X914215Y717912D01*
X913953D01*
X913822Y717781D01*
Y717388D01*
X913559Y718568D02*
X914347D01*
X913953Y718175D01*
Y718700D01*
X914215Y718962D02*
X914347Y719093D01*
Y719355D01*
X914215Y719487D01*
X914084D01*
X913953Y719355D01*
X913822Y719487D01*
X913691D01*
X913559Y719355D01*
Y719093D01*
X913691Y718962D01*
X913822D01*
X913953Y719093D01*
X914084Y718962D01*
X914215D01*
X913953Y719093D02*
Y719355D01*
X919268Y716601D02*
Y717125D01*
Y716863D01*
X918481D01*
Y717388D02*
X919268D01*
Y717781D01*
X919137Y717912D01*
X918874D01*
X918743Y717781D01*
Y717388D01*
X918481Y718568D02*
X919268D01*
X918874Y718175D01*
Y718700D01*
X918612Y718962D02*
X918481Y719093D01*
Y719355D01*
X918612Y719487D01*
X919137D01*
X919268Y719355D01*
Y719093D01*
X919137Y718962D01*
X919005D01*
X918874Y719093D01*
Y719487D01*
X930750Y939894D02*
X930226D01*
X930488D01*
Y939107D01*
X929963D02*
Y939894D01*
X929570D01*
X929438Y939763D01*
Y939500D01*
X929570Y939369D01*
X929963D01*
X928782Y939107D02*
Y939894D01*
X929176Y939500D01*
X928651D01*
X928389Y939894D02*
X927864D01*
Y939763D01*
X928389Y939238D01*
Y939107D01*
X894924Y940091D02*
X894399D01*
X894661D01*
Y939304D01*
X894137D02*
Y940091D01*
X893743D01*
X893612Y939960D01*
Y939697D01*
X893743Y939566D01*
X894137D01*
X893349Y939960D02*
X893218Y940091D01*
X892956D01*
X892825Y939960D01*
Y939828D01*
X892956Y939697D01*
X893087D01*
X892956D01*
X892825Y939566D01*
Y939435D01*
X892956Y939304D01*
X893218D01*
X893349Y939435D01*
X892562Y939960D02*
X892431Y940091D01*
X892169D01*
X892037Y939960D01*
Y939828D01*
X892169Y939697D01*
X892037Y939566D01*
Y939435D01*
X892169Y939304D01*
X892431D01*
X892562Y939435D01*
Y939566D01*
X892431Y939697D01*
X892562Y939828D01*
Y939960D01*
X892431Y939697D02*
X892169D01*
X920252Y877690D02*
Y878214D01*
Y877952D01*
X919465D01*
Y878477D02*
X920252D01*
Y878870D01*
X920121Y879002D01*
X919858D01*
X919727Y878870D01*
Y878477D01*
X919465Y879264D02*
Y879526D01*
Y879395D01*
X920252D01*
X920121Y879264D01*
X919596Y879920D02*
X919465Y880051D01*
Y880314D01*
X919596Y880445D01*
X920121D01*
X920252Y880314D01*
Y880051D01*
X920121Y879920D01*
X919990D01*
X919858Y880051D01*
Y880445D01*
X906276Y955839D02*
X905292D01*
X905095Y956036D01*
Y956429D01*
X905292Y956626D01*
X906276D01*
X905095Y957807D02*
Y957020D01*
X905882Y957807D01*
X906079D01*
X906276Y957610D01*
Y957217D01*
X906079Y957020D01*
X905095Y958201D02*
Y958594D01*
Y958397D01*
X906276D01*
X906079Y958201D01*
X834885Y685563D02*
X835541D01*
X835705Y685399D01*
Y685071D01*
X835541Y684907D01*
X834885D01*
X834721Y685071D01*
Y685399D01*
X835049Y685235D02*
X834721Y685563D01*
Y685399D02*
X834885Y685563D01*
X834721Y685891D02*
Y686219D01*
Y686055D01*
X835705D01*
X835541Y685891D01*
X835803Y670013D02*
Y670537D01*
Y670275D01*
X835016D01*
Y670800D02*
X835803D01*
Y671193D01*
X835672Y671324D01*
X835410D01*
X835279Y671193D01*
Y670800D01*
X835016Y671587D02*
Y671849D01*
Y671718D01*
X835803D01*
X835672Y671587D01*
X835803Y672768D02*
X835672Y672505D01*
X835410Y672243D01*
X835147D01*
X835016Y672374D01*
Y672636D01*
X835147Y672768D01*
X835279D01*
X835410Y672636D01*
Y672243D01*
X841906Y692453D02*
Y692978D01*
Y692716D01*
X841119D01*
Y693241D02*
X841906D01*
Y693634D01*
X841774Y693765D01*
X841512D01*
X841381Y693634D01*
Y693241D01*
X841119Y694028D02*
Y694290D01*
Y694159D01*
X841906D01*
X841774Y694028D01*
X841119Y695209D02*
Y694684D01*
X841643Y695209D01*
X841774D01*
X841906Y695077D01*
Y694815D01*
X841774Y694684D01*
X919318Y909433D02*
X918137Y910220D01*
X919318D02*
X918137Y909433D01*
Y910613D02*
Y911007D01*
Y910810D01*
X919318D01*
X919121Y910613D01*
D166*
X891741Y716173D02*
Y715190D01*
X891085D01*
X890101Y716173D02*
X890757D01*
Y715190D01*
X890101D01*
X890757Y715681D02*
X890429D01*
X889773Y716173D02*
Y715190D01*
X889281D01*
X889117Y715353D01*
Y716009D01*
X889281Y716173D01*
X889773D01*
X888789Y716009D02*
X888625Y716173D01*
X888297D01*
X888133Y716009D01*
Y715845D01*
X888297Y715681D01*
X888133Y715517D01*
Y715353D01*
X888297Y715190D01*
X888625D01*
X888789Y715353D01*
Y715517D01*
X888625Y715681D01*
X888789Y715845D01*
Y716009D01*
X888625Y715681D02*
X888297D01*
D167*
X919202Y929723D02*
X919333Y929854D01*
X919596D01*
X919727Y929723D01*
Y929199D01*
X919596Y929067D01*
X919333D01*
X919202Y929199D01*
X918940Y929723D02*
X918809Y929854D01*
X918546D01*
X918415Y929723D01*
Y929592D01*
X918546Y929461D01*
X918415Y929330D01*
Y929199D01*
X918546Y929067D01*
X918809D01*
X918940Y929199D01*
Y929330D01*
X918809Y929461D01*
X918940Y929592D01*
Y929723D01*
X918809Y929461D02*
X918546D01*
X918153Y929854D02*
X917628D01*
Y929723D01*
X918153Y929199D01*
Y929067D01*
X919202Y921062D02*
X919333Y921193D01*
X919596D01*
X919727Y921062D01*
Y920537D01*
X919596Y920406D01*
X919333D01*
X919202Y920537D01*
X918940Y921062D02*
X918809Y921193D01*
X918546D01*
X918415Y921062D01*
Y920931D01*
X918546Y920800D01*
X918415Y920668D01*
Y920537D01*
X918546Y920406D01*
X918809D01*
X918940Y920537D01*
Y920668D01*
X918809Y920800D01*
X918940Y920931D01*
Y921062D01*
X918809Y920800D02*
X918546D01*
X918153Y920537D02*
X918021Y920406D01*
X917759D01*
X917628Y920537D01*
Y921062D01*
X917759Y921193D01*
X918021D01*
X918153Y921062D01*
Y920931D01*
X918021Y920800D01*
X917628D01*
X924058Y927361D02*
X924189Y927230D01*
Y926968D01*
X924058Y926837D01*
X923533D01*
X923402Y926968D01*
Y927230D01*
X923533Y927361D01*
X924058Y927624D02*
X924189Y927755D01*
Y928017D01*
X924058Y928148D01*
X923927D01*
X923796Y928017D01*
X923664Y928148D01*
X923533D01*
X923402Y928017D01*
Y927755D01*
X923533Y927624D01*
X923664D01*
X923796Y927755D01*
X923927Y927624D01*
X924058D01*
X923796Y927755D02*
Y928017D01*
X924058Y928411D02*
X924189Y928542D01*
Y928804D01*
X924058Y928936D01*
X923927D01*
X923796Y928804D01*
X923664Y928936D01*
X923533D01*
X923402Y928804D01*
Y928542D01*
X923533Y928411D01*
X923664D01*
X923796Y928542D01*
X923927Y928411D01*
X924058D01*
X923796Y928542D02*
Y928804D01*
X930882Y971325D02*
X930751Y971193D01*
X930489D01*
X930357Y971325D01*
Y971849D01*
X930489Y971980D01*
X930751D01*
X930882Y971849D01*
X931145Y971325D02*
X931276Y971193D01*
X931538D01*
X931669Y971325D01*
Y971456D01*
X931538Y971587D01*
X931669Y971718D01*
Y971849D01*
X931538Y971980D01*
X931276D01*
X931145Y971849D01*
Y971718D01*
X931276Y971587D01*
X931145Y971456D01*
Y971325D01*
X931276Y971587D02*
X931538D01*
X931932Y971980D02*
X932194D01*
X932063D01*
Y971193D01*
X931932Y971325D01*
X930751Y967781D02*
X930620Y967650D01*
X930357D01*
X930226Y967781D01*
Y968306D01*
X930357Y968437D01*
X930620D01*
X930751Y968306D01*
X931013Y967781D02*
X931145Y967650D01*
X931407D01*
X931538Y967781D01*
Y967912D01*
X931407Y968044D01*
X931276D01*
X931407D01*
X931538Y968175D01*
Y968306D01*
X931407Y968437D01*
X931145D01*
X931013Y968306D01*
X932325Y967650D02*
X931801D01*
Y968044D01*
X932063Y967912D01*
X932194D01*
X932325Y968044D01*
Y968306D01*
X932194Y968437D01*
X931932D01*
X931801Y968306D01*
X885475Y960826D02*
X885606Y960695D01*
Y960432D01*
X885475Y960301D01*
X884950D01*
X884819Y960432D01*
Y960695D01*
X884950Y960826D01*
X885606Y961088D02*
Y961613D01*
X885475D01*
X884950Y961088D01*
X884819D01*
X885475Y961876D02*
X885606Y962007D01*
Y962269D01*
X885475Y962400D01*
X885344D01*
X885213Y962269D01*
Y962138D01*
Y962269D01*
X885082Y962400D01*
X884950D01*
X884819Y962269D01*
Y962007D01*
X884950Y961876D01*
X881013Y960038D02*
X881144Y960170D01*
X881407D01*
X881538Y960038D01*
Y959513D01*
X881407Y959382D01*
X881144D01*
X881013Y959513D01*
X880751Y960170D02*
X880226D01*
Y960038D01*
X880751Y959513D01*
Y959382D01*
X879439Y960170D02*
X879701Y960038D01*
X879964Y959776D01*
Y959513D01*
X879832Y959382D01*
X879570D01*
X879439Y959513D01*
Y959645D01*
X879570Y959776D01*
X879964D01*
X889019Y962007D02*
X889150Y961876D01*
Y961613D01*
X889019Y961482D01*
X888494D01*
X888363Y961613D01*
Y961876D01*
X888494Y962007D01*
X889150Y962269D02*
Y962794D01*
X889019D01*
X888494Y962269D01*
X888363D01*
Y963450D02*
X889150D01*
X888756Y963057D01*
Y963581D01*
X902536Y948096D02*
X901748D01*
Y947702D01*
X901880Y947571D01*
X902142D01*
X902273Y947702D01*
Y948096D01*
Y947833D02*
X902536Y947571D01*
Y946915D02*
X901748D01*
X902142Y947309D01*
Y946784D01*
X902536Y946521D02*
Y946259D01*
Y946390D01*
X901748D01*
X901880Y946521D01*
X909097Y938516D02*
Y939303D01*
X908703D01*
X908572Y939172D01*
Y938910D01*
X908703Y938779D01*
X909097D01*
X908835D02*
X908572Y938516D01*
X907916D02*
Y939303D01*
X908310Y938910D01*
X907785D01*
X907523Y939172D02*
X907391Y939303D01*
X907129D01*
X906998Y939172D01*
Y938647D01*
X907129Y938516D01*
X907391D01*
X907523Y938647D01*
Y939172D01*
X916971Y944684D02*
X917103Y944553D01*
Y944291D01*
X916971Y944159D01*
X916446D01*
X916315Y944291D01*
Y944553D01*
X916446Y944684D01*
X916971Y944947D02*
X917103Y945078D01*
Y945340D01*
X916971Y945471D01*
X916840D01*
X916709Y945340D01*
Y945209D01*
Y945340D01*
X916578Y945471D01*
X916446D01*
X916315Y945340D01*
Y945078D01*
X916446Y944947D01*
Y945734D02*
X916315Y945865D01*
Y946127D01*
X916446Y946259D01*
X916971D01*
X917103Y946127D01*
Y945865D01*
X916971Y945734D01*
X916840D01*
X916709Y945865D01*
Y946259D01*
X874452Y966338D02*
X874583Y966207D01*
Y965944D01*
X874452Y965813D01*
X873927D01*
X873796Y965944D01*
Y966207D01*
X873927Y966338D01*
X874452Y966600D02*
X874583Y966731D01*
Y966994D01*
X874452Y967125D01*
X874320D01*
X874189Y966994D01*
X874058Y967125D01*
X873927D01*
X873796Y966994D01*
Y966731D01*
X873927Y966600D01*
X874058D01*
X874189Y966731D01*
X874320Y966600D01*
X874452D01*
X874189Y966731D02*
Y966994D01*
X874583Y967912D02*
Y967387D01*
X874189D01*
X874320Y967650D01*
Y967781D01*
X874189Y967912D01*
X873927D01*
X873796Y967781D01*
Y967519D01*
X873927Y967387D01*
X870383Y962007D02*
X870514Y962138D01*
X870777D01*
X870908Y962007D01*
Y961482D01*
X870777Y961351D01*
X870514D01*
X870383Y961482D01*
X870121Y962007D02*
X869990Y962138D01*
X869727D01*
X869596Y962007D01*
Y961876D01*
X869727Y961744D01*
X869596Y961613D01*
Y961482D01*
X869727Y961351D01*
X869990D01*
X870121Y961482D01*
Y961613D01*
X869990Y961744D01*
X870121Y961876D01*
Y962007D01*
X869990Y961744D02*
X869727D01*
X868809Y962138D02*
X869071Y962007D01*
X869334Y961744D01*
Y961482D01*
X869203Y961351D01*
X868940D01*
X868809Y961482D01*
Y961613D01*
X868940Y961744D01*
X869334D01*
X900830Y957283D02*
X900961Y957151D01*
Y956889D01*
X900830Y956758D01*
X900305D01*
X900174Y956889D01*
Y957151D01*
X900305Y957283D01*
X900174Y957938D02*
X900961D01*
X900567Y957545D01*
Y958070D01*
X860934Y952952D02*
X861066Y953083D01*
X861328D01*
X861459Y952952D01*
Y952427D01*
X861328Y952296D01*
X861066D01*
X860934Y952427D01*
X860672Y953083D02*
X860147D01*
Y952952D01*
X860672Y952427D01*
Y952296D01*
X859885Y952952D02*
X859754Y953083D01*
X859491D01*
X859360Y952952D01*
Y952427D01*
X859491Y952296D01*
X859754D01*
X859885Y952427D01*
Y952952D01*
X902404Y967913D02*
X902536Y967781D01*
Y967519D01*
X902404Y967388D01*
X901880D01*
X901748Y967519D01*
Y967781D01*
X901880Y967913D01*
X902404Y968175D02*
X902536Y968306D01*
Y968569D01*
X902404Y968700D01*
X902273D01*
X902142Y968569D01*
X902011Y968700D01*
X901880D01*
X901748Y968569D01*
Y968306D01*
X901880Y968175D01*
X902011D01*
X902142Y968306D01*
X902273Y968175D01*
X902404D01*
X902142Y968306D02*
Y968569D01*
X902404Y968962D02*
X902536Y969093D01*
Y969356D01*
X902404Y969487D01*
X902273D01*
X902142Y969356D01*
Y969224D01*
Y969356D01*
X902011Y969487D01*
X901880D01*
X901748Y969356D01*
Y969093D01*
X901880Y968962D01*
X903191Y961744D02*
Y962532D01*
X902798D01*
X902667Y962401D01*
Y962138D01*
X902798Y962007D01*
X903191D01*
X902929D02*
X902667Y961744D01*
X901880Y962532D02*
X902142Y962401D01*
X902404Y962138D01*
Y961876D01*
X902273Y961744D01*
X902011D01*
X901880Y961876D01*
Y962007D01*
X902011Y962138D01*
X902404D01*
X901617Y961876D02*
X901486Y961744D01*
X901224D01*
X901092Y961876D01*
Y962401D01*
X901224Y962532D01*
X901486D01*
X901617Y962401D01*
Y962269D01*
X901486Y962138D01*
X901092D01*
X911460Y967519D02*
X911591Y967388D01*
Y967125D01*
X911460Y966994D01*
X910935D01*
X910804Y967125D01*
Y967388D01*
X910935Y967519D01*
X911460Y967781D02*
X911591Y967912D01*
Y968175D01*
X911460Y968306D01*
X911328D01*
X911197Y968175D01*
X911066Y968306D01*
X910935D01*
X910804Y968175D01*
Y967912D01*
X910935Y967781D01*
X911066D01*
X911197Y967912D01*
X911328Y967781D01*
X911460D01*
X911197Y967912D02*
Y968175D01*
X910804Y969093D02*
Y968568D01*
X911328Y969093D01*
X911460D01*
X911591Y968962D01*
Y968700D01*
X911460Y968568D01*
X910934Y962794D02*
X911066Y962925D01*
X911328D01*
X911459Y962794D01*
Y962269D01*
X911328Y962138D01*
X911066D01*
X910934Y962269D01*
X910672Y962794D02*
X910541Y962925D01*
X910279D01*
X910147Y962794D01*
Y962663D01*
X910279Y962532D01*
X910147Y962401D01*
Y962269D01*
X910279Y962138D01*
X910541D01*
X910672Y962269D01*
Y962401D01*
X910541Y962532D01*
X910672Y962663D01*
Y962794D01*
X910541Y962532D02*
X910279D01*
X909491Y962138D02*
Y962925D01*
X909885Y962532D01*
X909360D01*
X887706Y967912D02*
X887837Y968044D01*
X888100D01*
X888231Y967912D01*
Y967388D01*
X888100Y967256D01*
X887837D01*
X887706Y967388D01*
X887444Y968044D02*
X886919D01*
Y967912D01*
X887444Y967388D01*
Y967256D01*
X886132Y968044D02*
X886657D01*
Y967650D01*
X886394Y967781D01*
X886263D01*
X886132Y967650D01*
Y967388D01*
X886263Y967256D01*
X886525D01*
X886657Y967388D01*
X871302Y940485D02*
X871433Y940353D01*
Y940091D01*
X871302Y939960D01*
X870777D01*
X870646Y940091D01*
Y940353D01*
X870777Y940485D01*
X871433Y940747D02*
Y941272D01*
X871302D01*
X870777Y940747D01*
X870646D01*
Y941534D02*
Y941797D01*
Y941665D01*
X871433D01*
X871302Y941534D01*
X875239Y941535D02*
X875370Y941403D01*
Y941141D01*
X875239Y941010D01*
X874714D01*
X874583Y941141D01*
Y941403D01*
X874714Y941535D01*
X875370Y941797D02*
Y942322D01*
X875239D01*
X874714Y941797D01*
X874583D01*
Y943109D02*
Y942584D01*
X875108Y943109D01*
X875239D01*
X875370Y942978D01*
Y942715D01*
X875239Y942584D01*
X875239Y956495D02*
X875370Y956364D01*
Y956102D01*
X875239Y955970D01*
X874714D01*
X874583Y956102D01*
Y956364D01*
X874714Y956495D01*
X875370Y956758D02*
Y957282D01*
X875239D01*
X874714Y956758D01*
X874583D01*
X875370Y957545D02*
Y958070D01*
X875239D01*
X874714Y957545D01*
X874583D01*
X919202Y917125D02*
X919333Y917256D01*
X919596D01*
X919727Y917125D01*
Y916600D01*
X919596Y916469D01*
X919333D01*
X919202Y916600D01*
X918415Y917256D02*
X918940D01*
Y916862D01*
X918677Y916994D01*
X918546D01*
X918415Y916862D01*
Y916600D01*
X918546Y916469D01*
X918809D01*
X918940Y916600D01*
X917628Y917256D02*
X917890Y917125D01*
X918153Y916862D01*
Y916600D01*
X918021Y916469D01*
X917759D01*
X917628Y916600D01*
Y916731D01*
X917759Y916862D01*
X918153D01*
X833769Y808070D02*
X833900Y808201D01*
X834163D01*
X834294Y808070D01*
Y807545D01*
X834163Y807414D01*
X833900D01*
X833769Y807545D01*
X833507Y808070D02*
X833375Y808201D01*
X833113D01*
X832982Y808070D01*
Y807939D01*
X833113Y807807D01*
X832982Y807676D01*
Y807545D01*
X833113Y807414D01*
X833375D01*
X833507Y807545D01*
Y807676D01*
X833375Y807807D01*
X833507Y807939D01*
Y808070D01*
X833375Y807807D02*
X833113D01*
X832720Y808070D02*
X832588Y808201D01*
X832326D01*
X832195Y808070D01*
Y807545D01*
X832326Y807414D01*
X832588D01*
X832720Y807545D01*
Y808070D01*
X935869Y812926D02*
Y813713D01*
X935475D01*
X935344Y813582D01*
Y813319D01*
X935475Y813188D01*
X935869D01*
X935606D02*
X935344Y812926D01*
X934688D02*
Y813713D01*
X935081Y813319D01*
X934557D01*
X933770Y813713D02*
X934032Y813582D01*
X934294Y813319D01*
Y813057D01*
X934163Y812926D01*
X933901D01*
X933770Y813057D01*
Y813188D01*
X933901Y813319D01*
X934294D01*
X900042Y715288D02*
Y716075D01*
X899648D01*
X899517Y715944D01*
Y715681D01*
X899648Y715550D01*
X900042D01*
X899780D02*
X899517Y715288D01*
X899255Y716075D02*
X898730D01*
Y715944D01*
X899255Y715419D01*
Y715288D01*
X898468Y715944D02*
X898336Y716075D01*
X898074D01*
X897943Y715944D01*
Y715813D01*
X898074Y715681D01*
X897943Y715550D01*
Y715419D01*
X898074Y715288D01*
X898336D01*
X898468Y715419D01*
Y715550D01*
X898336Y715681D01*
X898468Y715813D01*
Y715944D01*
X898336Y715681D02*
X898074D01*
X925370Y781167D02*
X926158D01*
Y781561D01*
X926026Y781692D01*
X925764D01*
X925633Y781561D01*
Y781167D01*
Y781430D02*
X925370Y781692D01*
Y782348D02*
X926158D01*
X925764Y781954D01*
Y782479D01*
X925502Y782742D02*
X925370Y782873D01*
Y783135D01*
X925502Y783266D01*
X926026D01*
X926158Y783135D01*
Y782873D01*
X926026Y782742D01*
X925895D01*
X925764Y782873D01*
Y783266D01*
X918021Y788385D02*
X918152Y788516D01*
X918415D01*
X918546Y788385D01*
Y787860D01*
X918415Y787729D01*
X918152D01*
X918021Y787860D01*
X917365Y787729D02*
Y788516D01*
X917759Y788122D01*
X917234D01*
X916971Y788516D02*
X916447D01*
Y788385D01*
X916971Y787860D01*
Y787729D01*
X922877Y789172D02*
X923008Y789041D01*
Y788779D01*
X922877Y788648D01*
X922352D01*
X922221Y788779D01*
Y789041D01*
X922352Y789172D01*
X922221Y789828D02*
X923008D01*
X922614Y789435D01*
Y789959D01*
X923008Y790747D02*
X922877Y790484D01*
X922614Y790222D01*
X922352D01*
X922221Y790353D01*
Y790616D01*
X922352Y790747D01*
X922483D01*
X922614Y790616D01*
Y790222D01*
X926158Y789041D02*
X926945D01*
Y789435D01*
X926814Y789566D01*
X926551D01*
X926420Y789435D01*
Y789041D01*
Y789304D02*
X926158Y789566D01*
Y790222D02*
X926945D01*
X926551Y789828D01*
Y790353D01*
X926814Y790616D02*
X926945Y790747D01*
Y791009D01*
X926814Y791140D01*
X926683D01*
X926551Y791009D01*
X926420Y791140D01*
X926289D01*
X926158Y791009D01*
Y790747D01*
X926289Y790616D01*
X926420D01*
X926551Y790747D01*
X926683Y790616D01*
X926814D01*
X926551Y790747D02*
Y791009D01*
X929176Y795209D02*
Y795996D01*
X928782D01*
X928651Y795865D01*
Y795603D01*
X928782Y795471D01*
X929176D01*
X928913D02*
X928651Y795209D01*
X927864Y795996D02*
X928389D01*
Y795603D01*
X928126Y795734D01*
X927995D01*
X927864Y795603D01*
Y795340D01*
X927995Y795209D01*
X928257D01*
X928389Y795340D01*
X927601Y795865D02*
X927470Y795996D01*
X927208D01*
X927077Y795865D01*
Y795340D01*
X927208Y795209D01*
X927470D01*
X927601Y795340D01*
Y795865D01*
X931801Y784448D02*
X931932Y784579D01*
X932194D01*
X932325Y784448D01*
Y783923D01*
X932194Y783792D01*
X931932D01*
X931801Y783923D01*
X931145Y783792D02*
Y784579D01*
X931538Y784185D01*
X931013D01*
X930751Y784448D02*
X930620Y784579D01*
X930357D01*
X930226Y784448D01*
Y784316D01*
X930357Y784185D01*
X930226Y784054D01*
Y783923D01*
X930357Y783792D01*
X930620D01*
X930751Y783923D01*
Y784054D01*
X930620Y784185D01*
X930751Y784316D01*
Y784448D01*
X930620Y784185D02*
X930357D01*
X935738Y795209D02*
Y795996D01*
X935344D01*
X935213Y795865D01*
Y795603D01*
X935344Y795471D01*
X935738D01*
X935475D02*
X935213Y795209D01*
X934426Y795996D02*
X934950D01*
Y795603D01*
X934688Y795734D01*
X934557D01*
X934426Y795603D01*
Y795340D01*
X934557Y795209D01*
X934819D01*
X934950Y795340D01*
X934163Y795209D02*
X933901D01*
X934032D01*
Y795996D01*
X934163Y795865D01*
X936000Y789435D02*
X936788D01*
Y789829D01*
X936656Y789960D01*
X936394D01*
X936263Y789829D01*
Y789435D01*
Y789697D02*
X936000Y789960D01*
Y790616D02*
X936788D01*
X936394Y790222D01*
Y790747D01*
X936788Y791009D02*
Y791534D01*
X936656D01*
X936132Y791009D01*
X936000D01*
X925764Y800065D02*
X926551D01*
Y800459D01*
X926420Y800590D01*
X926158D01*
X926027Y800459D01*
Y800065D01*
Y800327D02*
X925764Y800590D01*
Y801246D02*
X926551D01*
X926158Y800852D01*
Y801377D01*
X925764Y802033D02*
X926551D01*
X926158Y801639D01*
Y802164D01*
X931801Y802164D02*
X931932Y802295D01*
X932194D01*
X932325Y802164D01*
Y801639D01*
X932194Y801508D01*
X931932D01*
X931801Y801639D01*
X931145Y801508D02*
Y802295D01*
X931538Y801902D01*
X931013D01*
X930751Y802164D02*
X930620Y802295D01*
X930357D01*
X930226Y802164D01*
Y802033D01*
X930357Y801902D01*
X930489D01*
X930357D01*
X930226Y801771D01*
Y801639D01*
X930357Y801508D01*
X930620D01*
X930751Y801639D01*
X936000Y806758D02*
X936788D01*
Y807151D01*
X936656Y807283D01*
X936394D01*
X936263Y807151D01*
Y806758D01*
Y807020D02*
X936000Y807283D01*
Y807939D02*
X936788D01*
X936394Y807545D01*
Y808070D01*
X936000Y808857D02*
Y808332D01*
X936525Y808857D01*
X936656D01*
X936788Y808726D01*
Y808463D01*
X936656Y808332D01*
X922877Y807414D02*
X923008Y807283D01*
Y807020D01*
X922877Y806889D01*
X922352D01*
X922221Y807020D01*
Y807283D01*
X922352Y807414D01*
X922221Y808070D02*
X923008D01*
X922614Y807676D01*
Y808201D01*
X922221Y808463D02*
Y808726D01*
Y808595D01*
X923008D01*
X922877Y808463D01*
X926158Y807152D02*
X926945D01*
Y807545D01*
X926814Y807676D01*
X926551D01*
X926420Y807545D01*
Y807152D01*
Y807414D02*
X926158Y807676D01*
Y808332D02*
X926945D01*
X926551Y807939D01*
Y808463D01*
X926814Y808726D02*
X926945Y808857D01*
Y809119D01*
X926814Y809251D01*
X926683D01*
X926551Y809119D01*
Y808988D01*
Y809119D01*
X926420Y809251D01*
X926289D01*
X926158Y809119D01*
Y808857D01*
X926289Y808726D01*
X918021Y806495D02*
X918152Y806626D01*
X918415D01*
X918546Y806495D01*
Y805970D01*
X918415Y805839D01*
X918152D01*
X918021Y805970D01*
X917365Y805839D02*
Y806626D01*
X917759Y806233D01*
X917234D01*
X916447Y805839D02*
X916971D01*
X916447Y806364D01*
Y806495D01*
X916578Y806626D01*
X916840D01*
X916971Y806495D01*
X928782Y812926D02*
Y813713D01*
X928389D01*
X928257Y813582D01*
Y813319D01*
X928389Y813188D01*
X928782D01*
X928520D02*
X928257Y812926D01*
X927601D02*
Y813713D01*
X927995Y813319D01*
X927470D01*
X926683Y813713D02*
X927208D01*
Y813319D01*
X926945Y813450D01*
X926814D01*
X926683Y813319D01*
Y813057D01*
X926814Y812926D01*
X927077D01*
X927208Y813057D01*
X919333Y873162D02*
Y873949D01*
X918940D01*
X918808Y873818D01*
Y873555D01*
X918940Y873424D01*
X919333D01*
X919071D02*
X918808Y873162D01*
X918546Y873818D02*
X918415Y873949D01*
X918153D01*
X918021Y873818D01*
Y873687D01*
X918153Y873555D01*
X918021Y873424D01*
Y873293D01*
X918153Y873162D01*
X918415D01*
X918546Y873293D01*
Y873424D01*
X918415Y873555D01*
X918546Y873687D01*
Y873818D01*
X918415Y873555D02*
X918153D01*
X917234Y873162D02*
X917759D01*
X917234Y873687D01*
Y873818D01*
X917365Y873949D01*
X917628D01*
X917759Y873818D01*
X853585Y1006626D02*
Y1007414D01*
X853192D01*
X853060Y1007282D01*
Y1007020D01*
X853192Y1006889D01*
X853585D01*
X853323D02*
X853060Y1006626D01*
X852273D02*
X852798D01*
X852273Y1007151D01*
Y1007282D01*
X852404Y1007414D01*
X852667D01*
X852798Y1007282D01*
X852011Y1007414D02*
X851486D01*
Y1007282D01*
X852011Y1006758D01*
Y1006626D01*
X853585Y995603D02*
Y996390D01*
X853192D01*
X853060Y996259D01*
Y995996D01*
X853192Y995865D01*
X853585D01*
X853323D02*
X853060Y995603D01*
X852273Y996390D02*
X852798D01*
Y995996D01*
X852536Y996128D01*
X852404D01*
X852273Y995996D01*
Y995734D01*
X852404Y995603D01*
X852667D01*
X852798Y995734D01*
X851617Y995603D02*
Y996390D01*
X852011Y995996D01*
X851486D01*
X849911Y995603D02*
Y996390D01*
X849517D01*
X849386Y996259D01*
Y995996D01*
X849517Y995865D01*
X849911D01*
X849648D02*
X849386Y995603D01*
X848599Y996390D02*
X848861Y996259D01*
X849123Y995996D01*
Y995734D01*
X848992Y995603D01*
X848730D01*
X848599Y995734D01*
Y995865D01*
X848730Y995996D01*
X849123D01*
X848336Y995603D02*
X848074D01*
X848205D01*
Y996390D01*
X848336Y996259D01*
X841774Y705708D02*
X841906Y705577D01*
Y705314D01*
X841774Y705183D01*
X841250D01*
X841119Y705314D01*
Y705577D01*
X841250Y705708D01*
X841119Y706495D02*
Y705970D01*
X841643Y706495D01*
X841774D01*
X841906Y706364D01*
Y706101D01*
X841774Y705970D01*
X841906Y707282D02*
Y706757D01*
X841512D01*
X841643Y707020D01*
Y707151D01*
X841512Y707282D01*
X841250D01*
X841119Y707151D01*
Y706889D01*
X841250Y706757D01*
X909097Y795865D02*
X909229Y795734D01*
Y795472D01*
X909097Y795340D01*
X908572D01*
X908441Y795472D01*
Y795734D01*
X908572Y795865D01*
X908441Y796521D02*
X909229D01*
X908835Y796128D01*
Y796653D01*
X909229Y797440D02*
Y796915D01*
X908835D01*
X908966Y797177D01*
Y797308D01*
X908835Y797440D01*
X908572D01*
X908441Y797308D01*
Y797046D01*
X908572Y796915D01*
X904241Y800983D02*
X904373Y801114D01*
X904635D01*
X904766Y800983D01*
Y800458D01*
X904635Y800327D01*
X904373D01*
X904241Y800458D01*
X903586Y800327D02*
Y801114D01*
X903979Y800721D01*
X903454D01*
X903192Y800983D02*
X903061Y801114D01*
X902798D01*
X902667Y800983D01*
Y800458D01*
X902798Y800327D01*
X903061D01*
X903192Y800458D01*
Y800983D01*
X908441Y789041D02*
X909229D01*
Y789435D01*
X909097Y789566D01*
X908835D01*
X908704Y789435D01*
Y789041D01*
Y789304D02*
X908441Y789566D01*
X909229Y790353D02*
Y789828D01*
X908835D01*
X908966Y790091D01*
Y790222D01*
X908835Y790353D01*
X908572D01*
X908441Y790222D01*
Y789960D01*
X908572Y789828D01*
X908441Y791140D02*
Y790616D01*
X908966Y791140D01*
X909097D01*
X909229Y791009D01*
Y790747D01*
X909097Y790616D01*
X941315Y649933D02*
Y650721D01*
X940921D01*
X940790Y650590D01*
Y650327D01*
X940921Y650196D01*
X941315D01*
X941053D02*
X940790Y649933D01*
X940528D02*
X940265D01*
X940396D01*
Y650721D01*
X940528Y650590D01*
X939478Y649933D02*
Y650721D01*
X939872Y650327D01*
X939347D01*
X933047Y651902D02*
Y652689D01*
X932654D01*
X932522Y652558D01*
Y652296D01*
X932654Y652164D01*
X933047D01*
X932785D02*
X932522Y651902D01*
X932260D02*
X931998D01*
X932129D01*
Y652689D01*
X932260Y652558D01*
X931079Y652689D02*
X931604D01*
Y652296D01*
X931342Y652427D01*
X931211D01*
X931079Y652296D01*
Y652033D01*
X931211Y651902D01*
X931473D01*
X931604Y652033D01*
X840462Y993503D02*
X840593Y993634D01*
X840856D01*
X840987Y993503D01*
Y992978D01*
X840856Y992847D01*
X840593D01*
X840462Y992978D01*
X839675Y992847D02*
X840200D01*
X839675Y993372D01*
Y993503D01*
X839806Y993634D01*
X840068D01*
X840200Y993503D01*
X839412D02*
X839281Y993634D01*
X839019D01*
X838888Y993503D01*
Y993372D01*
X839019Y993241D01*
X838888Y993109D01*
Y992978D01*
X839019Y992847D01*
X839281D01*
X839412Y992978D01*
Y993109D01*
X839281Y993241D01*
X839412Y993372D01*
Y993503D01*
X839281Y993241D02*
X839019D01*
X845843Y987073D02*
X846630D01*
Y987466D01*
X846499Y987598D01*
X846236D01*
X846105Y987466D01*
Y987073D01*
Y987335D02*
X845843Y987598D01*
X846630Y988385D02*
X846499Y988122D01*
X846236Y987860D01*
X845974D01*
X845843Y987991D01*
Y988253D01*
X845974Y988385D01*
X846105D01*
X846236Y988253D01*
Y987860D01*
X846630Y989172D02*
X846499Y988910D01*
X846236Y988647D01*
X845974D01*
X845843Y988778D01*
Y989041D01*
X845974Y989172D01*
X846105D01*
X846236Y989041D01*
Y988647D01*
X850467Y981776D02*
Y982563D01*
X850073D01*
X849942Y982432D01*
Y982169D01*
X850073Y982038D01*
X850467D01*
X850204D02*
X849942Y981776D01*
X849155D02*
X849679D01*
X849155Y982300D01*
Y982432D01*
X849286Y982563D01*
X849548D01*
X849679Y982432D01*
X848368Y982563D02*
X848630Y982432D01*
X848892Y982169D01*
Y981907D01*
X848761Y981776D01*
X848499D01*
X848368Y981907D01*
Y982038D01*
X848499Y982169D01*
X848892D01*
X850567Y986285D02*
X851354D01*
Y986679D01*
X851223Y986810D01*
X850961D01*
X850830Y986679D01*
Y986285D01*
Y986548D02*
X850567Y986810D01*
X851354Y987597D02*
Y987073D01*
X850961D01*
X851092Y987335D01*
Y987466D01*
X850961Y987597D01*
X850698D01*
X850567Y987466D01*
Y987204D01*
X850698Y987073D01*
X851223Y987860D02*
X851354Y987991D01*
Y988253D01*
X851223Y988385D01*
X851092D01*
X850961Y988253D01*
Y988122D01*
Y988253D01*
X850830Y988385D01*
X850698D01*
X850567Y988253D01*
Y987991D01*
X850698Y987860D01*
X850567Y989829D02*
X851354D01*
Y990222D01*
X851223Y990353D01*
X850961D01*
X850830Y990222D01*
Y989829D01*
Y990091D02*
X850567Y990353D01*
X851354Y991141D02*
Y990616D01*
X850961D01*
X851092Y990878D01*
Y991010D01*
X850961Y991141D01*
X850698D01*
X850567Y991010D01*
Y990747D01*
X850698Y990616D01*
X851354Y991403D02*
Y991928D01*
X851223D01*
X850698Y991403D01*
X850567D01*
X854241Y974605D02*
X854373Y974736D01*
X854635D01*
X854766Y974605D01*
Y974080D01*
X854635Y973949D01*
X854373D01*
X854241Y974080D01*
X853454Y973949D02*
X853979D01*
X853454Y974474D01*
Y974605D01*
X853586Y974736D01*
X853848D01*
X853979Y974605D01*
X852667Y974736D02*
X852930Y974605D01*
X853192Y974343D01*
Y974080D01*
X853061Y973949D01*
X852798D01*
X852667Y974080D01*
Y974212D01*
X852798Y974343D01*
X853192D01*
X834294Y888516D02*
Y889303D01*
X833900D01*
X833769Y889172D01*
Y888910D01*
X833900Y888779D01*
X834294D01*
X834032D02*
X833769Y888516D01*
X832982D02*
X833507D01*
X832982Y889041D01*
Y889172D01*
X833113Y889303D01*
X833376D01*
X833507Y889172D01*
X838231Y888516D02*
Y889303D01*
X837837D01*
X837706Y889172D01*
Y888910D01*
X837837Y888779D01*
X838231D01*
X837969D02*
X837706Y888516D01*
X836919Y889303D02*
X837181Y889172D01*
X837444Y888910D01*
Y888647D01*
X837313Y888516D01*
X837050D01*
X836919Y888647D01*
Y888779D01*
X837050Y888910D01*
X837444D01*
X836263Y888516D02*
Y889303D01*
X836657Y888910D01*
X836132D01*
X838231Y897178D02*
Y897965D01*
X837837D01*
X837706Y897834D01*
Y897571D01*
X837837Y897440D01*
X838231D01*
X837969D02*
X837706Y897178D01*
X836919Y897965D02*
X837181Y897834D01*
X837444Y897571D01*
Y897309D01*
X837313Y897178D01*
X837050D01*
X836919Y897309D01*
Y897440D01*
X837050Y897571D01*
X837444D01*
X836657Y897834D02*
X836525Y897965D01*
X836263D01*
X836132Y897834D01*
Y897702D01*
X836263Y897571D01*
X836132Y897440D01*
Y897309D01*
X836263Y897178D01*
X836525D01*
X836657Y897309D01*
Y897440D01*
X836525Y897571D01*
X836657Y897702D01*
Y897834D01*
X836525Y897571D02*
X836263D01*
X838231Y892847D02*
Y893634D01*
X837837D01*
X837706Y893503D01*
Y893241D01*
X837837Y893109D01*
X838231D01*
X837969D02*
X837706Y892847D01*
X836919Y893634D02*
X837181Y893503D01*
X837444Y893241D01*
Y892978D01*
X837313Y892847D01*
X837050D01*
X836919Y892978D01*
Y893109D01*
X837050Y893241D01*
X837444D01*
X836657Y893634D02*
X836132D01*
Y893503D01*
X836657Y892978D01*
Y892847D01*
X834688D02*
Y893634D01*
X834294D01*
X834163Y893503D01*
Y893241D01*
X834294Y893109D01*
X834688D01*
X834425D02*
X834163Y892847D01*
X833376Y893634D02*
X833900D01*
Y893241D01*
X833638Y893372D01*
X833507D01*
X833376Y893241D01*
Y892978D01*
X833507Y892847D01*
X833769D01*
X833900Y892978D01*
X833113Y893503D02*
X832982Y893634D01*
X832720D01*
X832588Y893503D01*
Y893372D01*
X832720Y893241D01*
X832588Y893109D01*
Y892978D01*
X832720Y892847D01*
X832982D01*
X833113Y892978D01*
Y893109D01*
X832982Y893241D01*
X833113Y893372D01*
Y893503D01*
X832982Y893241D02*
X832720D01*
X834688Y897178D02*
Y897965D01*
X834294D01*
X834163Y897834D01*
Y897571D01*
X834294Y897440D01*
X834688D01*
X834425D02*
X834163Y897178D01*
X833376Y897965D02*
X833638Y897834D01*
X833900Y897571D01*
Y897309D01*
X833769Y897178D01*
X833507D01*
X833376Y897309D01*
Y897440D01*
X833507Y897571D01*
X833900D01*
X833113Y897834D02*
X832982Y897965D01*
X832720D01*
X832588Y897834D01*
Y897702D01*
X832720Y897571D01*
X832851D01*
X832720D01*
X832588Y897440D01*
Y897309D01*
X832720Y897178D01*
X832982D01*
X833113Y897309D01*
X858703Y935760D02*
Y936547D01*
X858310D01*
X858179Y936416D01*
Y936154D01*
X858310Y936023D01*
X858703D01*
X858441D02*
X858179Y935760D01*
X857916Y936547D02*
X857391D01*
Y936416D01*
X857916Y935892D01*
Y935760D01*
X857129Y936416D02*
X856998Y936547D01*
X856735D01*
X856604Y936416D01*
Y936285D01*
X856735Y936154D01*
X856867D01*
X856735D01*
X856604Y936023D01*
Y935892D01*
X856735Y935760D01*
X856998D01*
X857129Y935892D01*
X859229Y937466D02*
X860016D01*
Y937860D01*
X859885Y937991D01*
X859622D01*
X859491Y937860D01*
Y937466D01*
Y937729D02*
X859229Y937991D01*
X859360Y938254D02*
X859229Y938385D01*
Y938647D01*
X859360Y938778D01*
X859885D01*
X860016Y938647D01*
Y938385D01*
X859885Y938254D01*
X859753D01*
X859622Y938385D01*
Y938778D01*
X898993Y864238D02*
X899780D01*
Y864632D01*
X899648Y864763D01*
X899386D01*
X899255Y864632D01*
Y864238D01*
Y864500D02*
X898993Y864763D01*
X899780Y865550D02*
Y865025D01*
X899386D01*
X899517Y865288D01*
Y865419D01*
X899386Y865550D01*
X899124D01*
X898993Y865419D01*
Y865156D01*
X899124Y865025D01*
X866315Y936285D02*
X867102D01*
Y936679D01*
X866971Y936810D01*
X866709D01*
X866578Y936679D01*
Y936285D01*
Y936548D02*
X866315Y936810D01*
X867102Y937073D02*
Y937597D01*
X866971D01*
X866446Y937073D01*
X866315D01*
Y938253D02*
X867102D01*
X866709Y937860D01*
Y938385D01*
X929570Y648752D02*
Y649540D01*
X929176D01*
X929045Y649408D01*
Y649146D01*
X929176Y649015D01*
X929570D01*
X929307D02*
X929045Y648752D01*
X928782Y649408D02*
X928651Y649540D01*
X928389D01*
X928258Y649408D01*
Y649277D01*
X928389Y649146D01*
X928520D01*
X928389D01*
X928258Y649015D01*
Y648884D01*
X928389Y648752D01*
X928651D01*
X928782Y648884D01*
X929438Y645471D02*
X929570Y645603D01*
X929832D01*
X929963Y645471D01*
Y644947D01*
X929832Y644815D01*
X929570D01*
X929438Y644947D01*
X928651Y645603D02*
X929176D01*
Y645209D01*
X928914Y645340D01*
X928782D01*
X928651Y645209D01*
Y644947D01*
X928782Y644815D01*
X929045D01*
X929176Y644947D01*
X927864Y644815D02*
X928389D01*
X927864Y645340D01*
Y645471D01*
X927995Y645603D01*
X928258D01*
X928389Y645471D01*
X846630Y880905D02*
X847417D01*
Y881298D01*
X847286Y881430D01*
X847024D01*
X846893Y881298D01*
Y880905D01*
Y881167D02*
X846630Y881430D01*
X846762Y881692D02*
X846630Y881823D01*
Y882086D01*
X846762Y882217D01*
X847286D01*
X847417Y882086D01*
Y881823D01*
X847286Y881692D01*
X847155D01*
X847024Y881823D01*
Y882217D01*
X846630Y882479D02*
Y882742D01*
Y882610D01*
X847417D01*
X847286Y882479D01*
X840725Y855183D02*
X841512D01*
Y855577D01*
X841381Y855708D01*
X841118D01*
X840987Y855577D01*
Y855183D01*
Y855445D02*
X840725Y855708D01*
X840856Y855970D02*
X840725Y856101D01*
Y856364D01*
X840856Y856495D01*
X841381D01*
X841512Y856364D01*
Y856101D01*
X841381Y855970D01*
X841249D01*
X841118Y856101D01*
Y856495D01*
X841381Y856757D02*
X841512Y856889D01*
Y857151D01*
X841381Y857282D01*
X840856D01*
X840725Y857151D01*
Y856889D01*
X840856Y856757D01*
X841381D01*
X850174Y949671D02*
X850961D01*
Y950065D01*
X850830Y950196D01*
X850567D01*
X850436Y950065D01*
Y949671D01*
Y949934D02*
X850174Y950196D01*
X850961Y950983D02*
X850830Y950721D01*
X850567Y950458D01*
X850305D01*
X850174Y950589D01*
Y950852D01*
X850305Y950983D01*
X850436D01*
X850567Y950852D01*
Y950458D01*
X841906Y956758D02*
X842693D01*
Y957151D01*
X842562Y957283D01*
X842299D01*
X842168Y957151D01*
Y956758D01*
Y957020D02*
X841906Y957283D01*
X842562Y957545D02*
X842693Y957676D01*
Y957939D01*
X842562Y958070D01*
X842431D01*
X842299Y957939D01*
Y957807D01*
Y957939D01*
X842168Y958070D01*
X842037D01*
X841906Y957939D01*
Y957676D01*
X842037Y957545D01*
X841906Y958726D02*
X842693D01*
X842299Y958332D01*
Y958857D01*
X835847Y955839D02*
Y956626D01*
X835454D01*
X835322Y956495D01*
Y956233D01*
X835454Y956101D01*
X835847D01*
X835585D02*
X835322Y955839D01*
X834535Y956626D02*
X834798Y956495D01*
X835060Y956233D01*
Y955970D01*
X834929Y955839D01*
X834666D01*
X834535Y955970D01*
Y956101D01*
X834666Y956233D01*
X835060D01*
X833748Y956626D02*
X834273D01*
Y956233D01*
X834010Y956364D01*
X833879D01*
X833748Y956233D01*
Y955970D01*
X833879Y955839D01*
X834142D01*
X834273Y955970D01*
X848796Y942388D02*
X849583D01*
Y942781D01*
X849452Y942913D01*
X849189D01*
X849058Y942781D01*
Y942388D01*
Y942650D02*
X848796Y942913D01*
X849583Y943700D02*
Y943175D01*
X849189D01*
X849320Y943437D01*
Y943569D01*
X849189Y943700D01*
X848927D01*
X848796Y943569D01*
Y943306D01*
X848927Y943175D01*
X849583Y944487D02*
X849452Y944224D01*
X849189Y943962D01*
X848927D01*
X848796Y944093D01*
Y944356D01*
X848927Y944487D01*
X849058D01*
X849189Y944356D01*
Y943962D01*
X828979Y943831D02*
Y944618D01*
X828585D01*
X828454Y944487D01*
Y944225D01*
X828585Y944094D01*
X828979D01*
X828716D02*
X828454Y943831D01*
X828192Y944487D02*
X828061Y944618D01*
X827798D01*
X827667Y944487D01*
Y944356D01*
X827798Y944225D01*
X827929D01*
X827798D01*
X827667Y944094D01*
Y943962D01*
X827798Y943831D01*
X828061D01*
X828192Y943962D01*
X827405Y944487D02*
X827273Y944618D01*
X827011D01*
X826880Y944487D01*
Y944356D01*
X827011Y944225D01*
X826880Y944094D01*
Y943962D01*
X827011Y943831D01*
X827273D01*
X827405Y943962D01*
Y944094D01*
X827273Y944225D01*
X827405Y944356D01*
Y944487D01*
X827273Y944225D02*
X827011D01*
X828979Y940288D02*
Y941075D01*
X828585D01*
X828454Y940944D01*
Y940681D01*
X828585Y940550D01*
X828979D01*
X828716D02*
X828454Y940288D01*
X828192Y940944D02*
X828061Y941075D01*
X827798D01*
X827667Y940944D01*
Y940813D01*
X827798Y940681D01*
X827929D01*
X827798D01*
X827667Y940550D01*
Y940419D01*
X827798Y940288D01*
X828061D01*
X828192Y940419D01*
X827405D02*
X827273Y940288D01*
X827011D01*
X826880Y940419D01*
Y940944D01*
X827011Y941075D01*
X827273D01*
X827405Y940944D01*
Y940813D01*
X827273Y940681D01*
X826880D01*
X866053Y851771D02*
X866184Y851902D01*
X866446D01*
X866577Y851771D01*
Y851246D01*
X866446Y851115D01*
X866184D01*
X866053Y851246D01*
X865265Y851115D02*
X865790D01*
X865265Y851639D01*
Y851771D01*
X865397Y851902D01*
X865659D01*
X865790Y851771D01*
X865003D02*
X864872Y851902D01*
X864609D01*
X864478Y851771D01*
Y851246D01*
X864609Y851115D01*
X864872D01*
X865003Y851246D01*
Y851771D01*
X862640Y841272D02*
Y842059D01*
X862247D01*
X862115Y841928D01*
Y841666D01*
X862247Y841535D01*
X862640D01*
X862378D02*
X862115Y841272D01*
X861328Y842059D02*
X861853D01*
Y841666D01*
X861591Y841797D01*
X861460D01*
X861328Y841666D01*
Y841403D01*
X861460Y841272D01*
X861722D01*
X861853Y841403D01*
X861066D02*
X860935Y841272D01*
X860672D01*
X860541Y841403D01*
Y841928D01*
X860672Y842059D01*
X860935D01*
X861066Y841928D01*
Y841797D01*
X860935Y841666D01*
X860541D01*
X896499Y840878D02*
Y841666D01*
X896105D01*
X895974Y841534D01*
Y841272D01*
X896105Y841141D01*
X896499D01*
X896236D02*
X895974Y840878D01*
X895711Y841534D02*
X895580Y841666D01*
X895318D01*
X895187Y841534D01*
Y841403D01*
X895318Y841272D01*
X895449D01*
X895318D01*
X895187Y841141D01*
Y841010D01*
X895318Y840878D01*
X895580D01*
X895711Y841010D01*
X894400Y841666D02*
X894924D01*
Y841272D01*
X894662Y841403D01*
X894531D01*
X894400Y841272D01*
Y841010D01*
X894531Y840878D01*
X894793D01*
X894924Y841010D01*
X896499Y846193D02*
Y846980D01*
X896105D01*
X895974Y846849D01*
Y846587D01*
X896105Y846456D01*
X896499D01*
X896236D02*
X895974Y846193D01*
X895711Y846849D02*
X895580Y846980D01*
X895318D01*
X895187Y846849D01*
Y846718D01*
X895318Y846587D01*
X895449D01*
X895318D01*
X895187Y846456D01*
Y846325D01*
X895318Y846193D01*
X895580D01*
X895711Y846325D01*
X894400Y846980D02*
X894662Y846849D01*
X894924Y846587D01*
Y846325D01*
X894793Y846193D01*
X894531D01*
X894400Y846325D01*
Y846456D01*
X894531Y846587D01*
X894924D01*
X896695Y836351D02*
Y837138D01*
X896302D01*
X896171Y837007D01*
Y836744D01*
X896302Y836613D01*
X896695D01*
X896433D02*
X896171Y836351D01*
X895383Y837138D02*
X895646Y837007D01*
X895908Y836744D01*
Y836482D01*
X895777Y836351D01*
X895515D01*
X895383Y836482D01*
Y836613D01*
X895515Y836744D01*
X895908D01*
X895121Y837007D02*
X894990Y837138D01*
X894728D01*
X894596Y837007D01*
Y836482D01*
X894728Y836351D01*
X894990D01*
X895121Y836482D01*
Y837007D01*
X912837Y708070D02*
X912969Y708201D01*
X913231D01*
X913362Y708070D01*
Y707545D01*
X913231Y707414D01*
X912969D01*
X912837Y707545D01*
X912575Y707414D02*
X912313D01*
X912444D01*
Y708201D01*
X912575Y708070D01*
X911525Y707414D02*
Y708201D01*
X911919Y707807D01*
X911394D01*
X907063Y707414D02*
Y708201D01*
X906669D01*
X906538Y708070D01*
Y707807D01*
X906669Y707676D01*
X907063D01*
X906800D02*
X906538Y707414D01*
X906276D02*
X906013D01*
X906145D01*
Y708201D01*
X906276Y708070D01*
X905620D02*
X905489Y708201D01*
X905226D01*
X905095Y708070D01*
Y707939D01*
X905226Y707807D01*
X905357D01*
X905226D01*
X905095Y707676D01*
Y707545D01*
X905226Y707414D01*
X905489D01*
X905620Y707545D01*
X918874Y707020D02*
X919662D01*
Y707414D01*
X919530Y707545D01*
X919268D01*
X919137Y707414D01*
Y707020D01*
Y707283D02*
X918874Y707545D01*
Y707807D02*
Y708070D01*
Y707939D01*
X919662D01*
X919530Y707807D01*
X918874Y708988D02*
Y708463D01*
X919399Y708988D01*
X919530D01*
X919662Y708857D01*
Y708595D01*
X919530Y708463D01*
X914740Y721587D02*
Y722374D01*
X914347D01*
X914215Y722243D01*
Y721981D01*
X914347Y721849D01*
X914740D01*
X914478D02*
X914215Y721587D01*
X913953D02*
X913690D01*
X913822D01*
Y722374D01*
X913953Y722243D01*
X913297D02*
X913166Y722374D01*
X912903D01*
X912772Y722243D01*
Y721718D01*
X912903Y721587D01*
X913166D01*
X913297Y721718D01*
Y722243D01*
X920908Y721587D02*
Y722374D01*
X920514D01*
X920383Y722243D01*
Y721981D01*
X920514Y721849D01*
X920908D01*
X920646D02*
X920383Y721587D01*
X920121D02*
X919858D01*
X919990D01*
Y722374D01*
X920121Y722243D01*
X919465Y721587D02*
X919203D01*
X919334D01*
Y722374D01*
X919465Y722243D01*
X921105Y934776D02*
Y935563D01*
X920711D01*
X920580Y935432D01*
Y935170D01*
X920711Y935038D01*
X921105D01*
X920842D02*
X920580Y934776D01*
X920318Y935432D02*
X920187Y935563D01*
X919924D01*
X919793Y935432D01*
Y935301D01*
X919924Y935170D01*
X920055D01*
X919924D01*
X919793Y935038D01*
Y934907D01*
X919924Y934776D01*
X920187D01*
X920318Y934907D01*
X919531Y935563D02*
X919006D01*
Y935432D01*
X919531Y934907D01*
Y934776D01*
X935410Y939369D02*
X935541Y939500D01*
X935803D01*
X935934Y939369D01*
Y938844D01*
X935803Y938713D01*
X935541D01*
X935410Y938844D01*
X934622Y938713D02*
X935147D01*
X934622Y939238D01*
Y939369D01*
X934754Y939500D01*
X935016D01*
X935147Y939369D01*
X934360Y938713D02*
X934098D01*
X934229D01*
Y939500D01*
X934360Y939369D01*
X910672Y935498D02*
X910541Y935367D01*
X910279D01*
X910147Y935498D01*
Y936022D01*
X910279Y936154D01*
X910541D01*
X910672Y936022D01*
X911459Y935367D02*
X911197Y935498D01*
X910935Y935760D01*
Y936022D01*
X911066Y936154D01*
X911328D01*
X911459Y936022D01*
Y935891D01*
X911328Y935760D01*
X910935D01*
X853454Y866731D02*
X853585Y866862D01*
X853848D01*
X853979Y866731D01*
Y866206D01*
X853848Y866075D01*
X853585D01*
X853454Y866206D01*
X853192Y866862D02*
X852667D01*
Y866731D01*
X853192Y866206D01*
Y866075D01*
X903585Y864763D02*
X903717Y864632D01*
Y864369D01*
X903585Y864238D01*
X903061D01*
X902929Y864369D01*
Y864632D01*
X903061Y864763D01*
Y865025D02*
X902929Y865156D01*
Y865419D01*
X903061Y865550D01*
X903585D01*
X903717Y865419D01*
Y865156D01*
X903585Y865025D01*
X903454D01*
X903323Y865156D01*
Y865550D01*
X858310Y864435D02*
X858441Y864304D01*
Y864041D01*
X858310Y863910D01*
X857785D01*
X857654Y864041D01*
Y864304D01*
X857785Y864435D01*
X857654Y864697D02*
Y864960D01*
Y864828D01*
X858441D01*
X858310Y864697D01*
Y865353D02*
X858441Y865484D01*
Y865747D01*
X858310Y865878D01*
X857785D01*
X857654Y865747D01*
Y865484D01*
X857785Y865353D01*
X858310D01*
X845777Y924999D02*
X845908Y925130D01*
X846171D01*
X846302Y924999D01*
Y924474D01*
X846171Y924343D01*
X845908D01*
X845777Y924474D01*
X845515Y924343D02*
X845252D01*
X845383D01*
Y925130D01*
X845515Y924999D01*
X844859Y924343D02*
X844596D01*
X844728D01*
Y925130D01*
X844859Y924999D01*
X904963Y936023D02*
X905095Y936154D01*
X905357D01*
X905488Y936023D01*
Y935498D01*
X905357Y935367D01*
X905095D01*
X904963Y935498D01*
X904701Y935367D02*
X904439D01*
X904570D01*
Y936154D01*
X904701Y936023D01*
X903520Y935367D02*
X904045D01*
X903520Y935891D01*
Y936023D01*
X903651Y936154D01*
X903914D01*
X904045Y936023D01*
X923402Y871719D02*
X924189D01*
Y872112D01*
X924058Y872243D01*
X923796D01*
X923664Y872112D01*
Y871719D01*
Y871981D02*
X923402Y872243D01*
X924189Y873030D02*
X924058Y872768D01*
X923796Y872506D01*
X923533D01*
X923402Y872637D01*
Y872899D01*
X923533Y873030D01*
X923664D01*
X923796Y872899D01*
Y872506D01*
X923402Y873818D02*
Y873293D01*
X923927Y873818D01*
X924058D01*
X924189Y873686D01*
Y873424D01*
X924058Y873293D01*
X933769Y879723D02*
X933900Y879854D01*
X934163D01*
X934294Y879723D01*
Y879199D01*
X934163Y879067D01*
X933900D01*
X933769Y879199D01*
X932982Y879854D02*
X933507D01*
Y879461D01*
X933244Y879592D01*
X933113D01*
X932982Y879461D01*
Y879199D01*
X933113Y879067D01*
X933375D01*
X933507Y879199D01*
X932720Y879723D02*
X932588Y879854D01*
X932326D01*
X932195Y879723D01*
Y879199D01*
X932326Y879067D01*
X932588D01*
X932720Y879199D01*
Y879723D01*
X926945Y879723D02*
X927076Y879854D01*
X927339D01*
X927470Y879723D01*
Y879199D01*
X927339Y879067D01*
X927076D01*
X926945Y879199D01*
X926158Y879854D02*
X926683D01*
Y879461D01*
X926420Y879592D01*
X926289D01*
X926158Y879461D01*
Y879199D01*
X926289Y879067D01*
X926551D01*
X926683Y879199D01*
X925895Y879067D02*
X925633D01*
X925764D01*
Y879854D01*
X925895Y879723D01*
X919727Y885235D02*
X919858Y885104D01*
Y884842D01*
X919727Y884711D01*
X919202D01*
X919071Y884842D01*
Y885104D01*
X919202Y885235D01*
X919858Y886022D02*
Y885498D01*
X919465D01*
X919596Y885760D01*
Y885891D01*
X919465Y886022D01*
X919202D01*
X919071Y885891D01*
Y885629D01*
X919202Y885498D01*
Y886285D02*
X919071Y886416D01*
Y886679D01*
X919202Y886810D01*
X919727D01*
X919858Y886679D01*
Y886416D01*
X919727Y886285D01*
X919596D01*
X919465Y886416D01*
Y886810D01*
X916578Y887991D02*
X916709Y887860D01*
Y887598D01*
X916578Y887466D01*
X916053D01*
X915922Y887598D01*
Y887860D01*
X916053Y887991D01*
X916709Y888778D02*
Y888254D01*
X916315D01*
X916446Y888516D01*
Y888647D01*
X916315Y888778D01*
X916053D01*
X915922Y888647D01*
Y888385D01*
X916053Y888254D01*
X861853Y864435D02*
X861984Y864304D01*
Y864041D01*
X861853Y863910D01*
X861328D01*
X861197Y864041D01*
Y864304D01*
X861328Y864435D01*
X861197Y864697D02*
Y864960D01*
Y864828D01*
X861984D01*
X861853Y864697D01*
Y865353D02*
X861984Y865484D01*
Y865747D01*
X861853Y865878D01*
X861722D01*
X861591Y865747D01*
Y865616D01*
Y865747D01*
X861460Y865878D01*
X861328D01*
X861197Y865747D01*
Y865484D01*
X861328Y865353D01*
X845974Y921062D02*
X846105Y921193D01*
X846367D01*
X846499Y921062D01*
Y920537D01*
X846367Y920406D01*
X846105D01*
X845974Y920537D01*
X845187Y921193D02*
X845711D01*
Y920800D01*
X845449Y920931D01*
X845318D01*
X845187Y920800D01*
Y920537D01*
X845318Y920406D01*
X845580D01*
X845711Y920537D01*
X844924Y921062D02*
X844793Y921193D01*
X844531D01*
X844400Y921062D01*
Y920931D01*
X844531Y920800D01*
X844400Y920668D01*
Y920537D01*
X844531Y920406D01*
X844793D01*
X844924Y920537D01*
Y920668D01*
X844793Y920800D01*
X844924Y920931D01*
Y921062D01*
X844793Y920800D02*
X844531D01*
X917430Y731495D02*
X917562Y731626D01*
X917824D01*
X917955Y731495D01*
Y730970D01*
X917824Y730839D01*
X917562D01*
X917430Y730970D01*
X916643Y731626D02*
X916906Y731495D01*
X917168Y731233D01*
Y730970D01*
X917037Y730839D01*
X916774D01*
X916643Y730970D01*
Y731101D01*
X916774Y731233D01*
X917168D01*
X916381Y731495D02*
X916250Y731626D01*
X915987D01*
X915856Y731495D01*
Y730970D01*
X915987Y730839D01*
X916250D01*
X916381Y730970D01*
Y731495D01*
X827929Y694750D02*
X828717D01*
Y695144D01*
X828585Y695275D01*
X828323D01*
X828192Y695144D01*
Y694750D01*
Y695012D02*
X827929Y695275D01*
Y696062D02*
Y695537D01*
X828454Y696062D01*
X828585D01*
X828717Y695931D01*
Y695668D01*
X828585Y695537D01*
X828061Y696324D02*
X827929Y696455D01*
Y696718D01*
X828061Y696849D01*
X828585D01*
X828717Y696718D01*
Y696455D01*
X828585Y696324D01*
X828454D01*
X828323Y696455D01*
Y696849D01*
X835081Y798228D02*
X835213Y798096D01*
Y797834D01*
X835081Y797703D01*
X834557D01*
X834426Y797834D01*
Y798096D01*
X834557Y798228D01*
X835213Y799015D02*
Y798490D01*
X834819D01*
X834950Y798752D01*
Y798883D01*
X834819Y799015D01*
X834557D01*
X834426Y798883D01*
Y798621D01*
X834557Y798490D01*
X834426Y799671D02*
X835213D01*
X834819Y799277D01*
Y799802D01*
X831276Y781955D02*
X832063D01*
Y782348D01*
X831932Y782479D01*
X831670D01*
X831538Y782348D01*
Y781955D01*
Y782217D02*
X831276Y782479D01*
X832063Y782742D02*
Y783267D01*
X831932D01*
X831407Y782742D01*
X831276D01*
X832063Y784054D02*
Y783529D01*
X831670D01*
X831801Y783791D01*
Y783923D01*
X831670Y784054D01*
X831407D01*
X831276Y783923D01*
Y783660D01*
X831407Y783529D01*
X830620Y787991D02*
X830751Y788122D01*
X831013D01*
X831144Y787991D01*
Y787466D01*
X831013Y787335D01*
X830751D01*
X830620Y787466D01*
X830357Y787991D02*
X830226Y788122D01*
X829963D01*
X829832Y787991D01*
Y787860D01*
X829963Y787729D01*
X830095D01*
X829963D01*
X829832Y787598D01*
Y787466D01*
X829963Y787335D01*
X830226D01*
X830357Y787466D01*
X829570Y787991D02*
X829439Y788122D01*
X829176D01*
X829045Y787991D01*
Y787860D01*
X829176Y787729D01*
X829308D01*
X829176D01*
X829045Y787598D01*
Y787466D01*
X829176Y787335D01*
X829439D01*
X829570Y787466D01*
X831276Y791403D02*
X832063D01*
Y791797D01*
X831932Y791928D01*
X831670D01*
X831538Y791797D01*
Y791403D01*
Y791666D02*
X831276Y791928D01*
X831932Y792191D02*
X832063Y792322D01*
Y792584D01*
X831932Y792715D01*
X831801D01*
X831670Y792584D01*
Y792453D01*
Y792584D01*
X831538Y792715D01*
X831407D01*
X831276Y792584D01*
Y792322D01*
X831407Y792191D01*
X831276Y793503D02*
Y792978D01*
X831801Y793503D01*
X831932D01*
X832063Y793371D01*
Y793109D01*
X831932Y792978D01*
X831276Y797703D02*
X832063D01*
Y798096D01*
X831932Y798228D01*
X831670D01*
X831538Y798096D01*
Y797703D01*
Y797965D02*
X831276Y798228D01*
X831932Y798490D02*
X832063Y798621D01*
Y798883D01*
X831932Y799015D01*
X831801D01*
X831670Y798883D01*
Y798752D01*
Y798883D01*
X831538Y799015D01*
X831407D01*
X831276Y798883D01*
Y798621D01*
X831407Y798490D01*
X831932Y799277D02*
X832063Y799408D01*
Y799671D01*
X831932Y799802D01*
X831407D01*
X831276Y799671D01*
Y799408D01*
X831407Y799277D01*
X831932D01*
X909753Y952558D02*
X909884Y952689D01*
X910147D01*
X910278Y952558D01*
Y952033D01*
X910147Y951902D01*
X909884D01*
X909753Y952033D01*
X908966Y952689D02*
X909491D01*
Y952296D01*
X909229Y952427D01*
X909097D01*
X908966Y952296D01*
Y952033D01*
X909097Y951902D01*
X909360D01*
X909491Y952033D01*
X908704Y952558D02*
X908573Y952689D01*
X908310D01*
X908179Y952558D01*
Y952427D01*
X908310Y952296D01*
X908441D01*
X908310D01*
X908179Y952164D01*
Y952033D01*
X908310Y951902D01*
X908573D01*
X908704Y952033D01*
X910278Y957283D02*
X910410Y957151D01*
Y956889D01*
X910278Y956758D01*
X909754D01*
X909622Y956889D01*
Y957151D01*
X909754Y957283D01*
X910278Y957545D02*
X910410Y957676D01*
Y957938D01*
X910278Y958070D01*
X910147D01*
X910016Y957938D01*
Y957807D01*
Y957938D01*
X909885Y958070D01*
X909754D01*
X909622Y957938D01*
Y957676D01*
X909754Y957545D01*
X923664Y906495D02*
X923795Y906364D01*
Y906102D01*
X923664Y905970D01*
X923139D01*
X923008Y906102D01*
Y906364D01*
X923139Y906495D01*
X923795Y907282D02*
Y906758D01*
X923402D01*
X923533Y907020D01*
Y907151D01*
X923402Y907282D01*
X923139D01*
X923008Y907151D01*
Y906889D01*
X923139Y906758D01*
X923795Y908070D02*
Y907545D01*
X923402D01*
X923533Y907807D01*
Y907938D01*
X923402Y908070D01*
X923139D01*
X923008Y907938D01*
Y907676D01*
X923139Y907545D01*
X923664Y912794D02*
X923795Y912663D01*
Y912401D01*
X923664Y912270D01*
X923139D01*
X923008Y912401D01*
Y912663D01*
X923139Y912794D01*
X923008Y913450D02*
X923795D01*
X923402Y913057D01*
Y913582D01*
X923139Y913844D02*
X923008Y913975D01*
Y914238D01*
X923139Y914369D01*
X923664D01*
X923795Y914238D01*
Y913975D01*
X923664Y913844D01*
X923533D01*
X923402Y913975D01*
Y914369D01*
X932194Y952952D02*
X932325Y953083D01*
X932588D01*
X932719Y952952D01*
Y952427D01*
X932588Y952296D01*
X932325D01*
X932194Y952427D01*
X931932Y952952D02*
X931801Y953083D01*
X931538D01*
X931407Y952952D01*
Y952820D01*
X931538Y952689D01*
X931670D01*
X931538D01*
X931407Y952558D01*
Y952427D01*
X931538Y952296D01*
X931801D01*
X931932Y952427D01*
X930620Y953083D02*
X930882Y952952D01*
X931145Y952689D01*
Y952427D01*
X931014Y952296D01*
X930751D01*
X930620Y952427D01*
Y952558D01*
X930751Y952689D01*
X931145D01*
X834653Y708595D02*
Y709382D01*
X834260D01*
X834129Y709251D01*
Y708989D01*
X834260Y708857D01*
X834653D01*
X834391D02*
X834129Y708595D01*
X833866Y709251D02*
X833735Y709382D01*
X833473D01*
X833342Y709251D01*
Y709120D01*
X833473Y708989D01*
X833604D01*
X833473D01*
X833342Y708857D01*
Y708726D01*
X833473Y708595D01*
X833735D01*
X833866Y708726D01*
X833079Y709251D02*
X832948Y709382D01*
X832686D01*
X832555Y709251D01*
Y709120D01*
X832686Y708989D01*
X832817D01*
X832686D01*
X832555Y708857D01*
Y708726D01*
X832686Y708595D01*
X832948D01*
X833079Y708726D01*
X899451Y643044D02*
Y643831D01*
X899058D01*
X898927Y643700D01*
Y643437D01*
X899058Y643306D01*
X899451D01*
X899189D02*
X898927Y643044D01*
X898664Y643831D02*
X898139D01*
Y643700D01*
X898664Y643175D01*
Y643044D01*
X897877Y643700D02*
X897746Y643831D01*
X897484D01*
X897352Y643700D01*
Y643175D01*
X897484Y643044D01*
X897746D01*
X897877Y643175D01*
Y643700D01*
X908900Y644619D02*
Y645406D01*
X908507D01*
X908375Y645274D01*
Y645012D01*
X908507Y644881D01*
X908900D01*
X908638D02*
X908375Y644619D01*
X908113Y645274D02*
X907982Y645406D01*
X907719D01*
X907588Y645274D01*
Y645143D01*
X907719Y645012D01*
X907588Y644881D01*
Y644750D01*
X907719Y644619D01*
X907982D01*
X908113Y644750D01*
Y644881D01*
X907982Y645012D01*
X908113Y645143D01*
Y645274D01*
X907982Y645012D02*
X907719D01*
X906801Y645406D02*
X907326D01*
Y645012D01*
X907063Y645143D01*
X906932D01*
X906801Y645012D01*
Y644750D01*
X906932Y644619D01*
X907195D01*
X907326Y644750D01*
X909032Y649474D02*
X909819D01*
Y649868D01*
X909688Y649999D01*
X909425D01*
X909294Y649868D01*
Y649474D01*
Y649737D02*
X909032Y649999D01*
X909688Y650262D02*
X909819Y650393D01*
Y650655D01*
X909688Y650786D01*
X909557D01*
X909425Y650655D01*
X909294Y650786D01*
X909163D01*
X909032Y650655D01*
Y650393D01*
X909163Y650262D01*
X909294D01*
X909425Y650393D01*
X909557Y650262D01*
X909688D01*
X909425Y650393D02*
Y650655D01*
X909032Y651442D02*
X909819D01*
X909425Y651049D01*
Y651574D01*
X909032Y655774D02*
X909819D01*
Y656167D01*
X909688Y656298D01*
X909425D01*
X909294Y656167D01*
Y655774D01*
Y656036D02*
X909032Y656298D01*
X909688Y656561D02*
X909819Y656692D01*
Y656954D01*
X909688Y657086D01*
X909557D01*
X909425Y656954D01*
X909294Y657086D01*
X909163D01*
X909032Y656954D01*
Y656692D01*
X909163Y656561D01*
X909294D01*
X909425Y656692D01*
X909557Y656561D01*
X909688D01*
X909425Y656692D02*
Y656954D01*
X909688Y657348D02*
X909819Y657479D01*
Y657741D01*
X909688Y657873D01*
X909557D01*
X909425Y657741D01*
Y657610D01*
Y657741D01*
X909294Y657873D01*
X909163D01*
X909032Y657741D01*
Y657479D01*
X909163Y657348D01*
X890134Y655774D02*
X890921D01*
Y656167D01*
X890790Y656298D01*
X890528D01*
X890397Y656167D01*
Y655774D01*
Y656036D02*
X890134Y656298D01*
X890921Y656561D02*
Y657086D01*
X890790D01*
X890265Y656561D01*
X890134D01*
X890921Y657873D02*
X890790Y657610D01*
X890528Y657348D01*
X890265D01*
X890134Y657479D01*
Y657741D01*
X890265Y657873D01*
X890397D01*
X890528Y657741D01*
Y657348D01*
X893940Y653149D02*
X894071Y653018D01*
Y652755D01*
X893940Y652624D01*
X893415D01*
X893284Y652755D01*
Y653018D01*
X893415Y653149D01*
X894071Y653936D02*
X893940Y653674D01*
X893677Y653411D01*
X893415D01*
X893284Y653542D01*
Y653805D01*
X893415Y653936D01*
X893546D01*
X893677Y653805D01*
Y653411D01*
X893940Y654198D02*
X894071Y654329D01*
Y654592D01*
X893940Y654723D01*
X893809D01*
X893677Y654592D01*
Y654461D01*
Y654592D01*
X893546Y654723D01*
X893415D01*
X893284Y654592D01*
Y654329D01*
X893415Y654198D01*
X906538Y649999D02*
X906669Y649868D01*
Y649606D01*
X906538Y649474D01*
X906013D01*
X905882Y649606D01*
Y649868D01*
X906013Y649999D01*
X906669Y650786D02*
X906538Y650524D01*
X906276Y650262D01*
X906013D01*
X905882Y650393D01*
Y650655D01*
X906013Y650786D01*
X906145D01*
X906276Y650655D01*
Y650262D01*
X906669Y651574D02*
X906538Y651311D01*
X906276Y651049D01*
X906013D01*
X905882Y651180D01*
Y651442D01*
X906013Y651574D01*
X906145D01*
X906276Y651442D01*
Y651049D01*
X906538Y656298D02*
X906669Y656167D01*
Y655905D01*
X906538Y655774D01*
X906013D01*
X905882Y655905D01*
Y656167D01*
X906013Y656298D01*
X906669Y657086D02*
X906538Y656823D01*
X906276Y656561D01*
X906013D01*
X905882Y656692D01*
Y656954D01*
X906013Y657086D01*
X906145D01*
X906276Y656954D01*
Y656561D01*
X905882Y657741D02*
X906669D01*
X906276Y657348D01*
Y657873D01*
X902076Y658660D02*
X902207Y658792D01*
X902470D01*
X902601Y658660D01*
Y658136D01*
X902470Y658004D01*
X902207D01*
X902076Y658136D01*
X901814Y658792D02*
X901289D01*
Y658660D01*
X901814Y658136D01*
Y658004D01*
X901027Y658136D02*
X900895Y658004D01*
X900633D01*
X900502Y658136D01*
Y658660D01*
X900633Y658792D01*
X900895D01*
X901027Y658660D01*
Y658529D01*
X900895Y658398D01*
X900502D01*
X895777Y658660D02*
X895908Y658792D01*
X896171D01*
X896302Y658660D01*
Y658136D01*
X896171Y658004D01*
X895908D01*
X895777Y658136D01*
X894990Y658792D02*
X895252Y658660D01*
X895515Y658398D01*
Y658136D01*
X895383Y658004D01*
X895121D01*
X894990Y658136D01*
Y658267D01*
X895121Y658398D01*
X895515D01*
X894203Y658792D02*
X894727D01*
Y658398D01*
X894465Y658529D01*
X894334D01*
X894203Y658398D01*
Y658136D01*
X894334Y658004D01*
X894596D01*
X894727Y658136D01*
X886853Y645406D02*
Y646193D01*
X886459D01*
X886328Y646062D01*
Y645799D01*
X886459Y645668D01*
X886853D01*
X886590D02*
X886328Y645406D01*
X886066Y646062D02*
X885935Y646193D01*
X885672D01*
X885541Y646062D01*
Y645931D01*
X885672Y645799D01*
X885541Y645668D01*
Y645537D01*
X885672Y645406D01*
X885935D01*
X886066Y645537D01*
Y645668D01*
X885935Y645799D01*
X886066Y645931D01*
Y646062D01*
X885935Y645799D02*
X885672D01*
X885279Y646193D02*
X884754D01*
Y646062D01*
X885279Y645537D01*
Y645406D01*
X886853Y648556D02*
Y649343D01*
X886459D01*
X886328Y649212D01*
Y648949D01*
X886459Y648818D01*
X886853D01*
X886590D02*
X886328Y648556D01*
X886066Y649212D02*
X885935Y649343D01*
X885672D01*
X885541Y649212D01*
Y649080D01*
X885672Y648949D01*
X885541Y648818D01*
Y648687D01*
X885672Y648556D01*
X885935D01*
X886066Y648687D01*
Y648818D01*
X885935Y648949D01*
X886066Y649080D01*
Y649212D01*
X885935Y648949D02*
X885672D01*
X885279Y649212D02*
X885147Y649343D01*
X884885D01*
X884754Y649212D01*
Y649080D01*
X884885Y648949D01*
X884754Y648818D01*
Y648687D01*
X884885Y648556D01*
X885147D01*
X885279Y648687D01*
Y648818D01*
X885147Y648949D01*
X885279Y649080D01*
Y649212D01*
X885147Y648949D02*
X884885D01*
X893940Y646850D02*
X894071Y646718D01*
Y646456D01*
X893940Y646325D01*
X893415D01*
X893284Y646456D01*
Y646718D01*
X893415Y646850D01*
X894071Y647637D02*
X893940Y647374D01*
X893677Y647112D01*
X893415D01*
X893284Y647243D01*
Y647506D01*
X893415Y647637D01*
X893546D01*
X893677Y647506D01*
Y647112D01*
X894071Y647899D02*
Y648424D01*
X893940D01*
X893415Y647899D01*
X893284D01*
X890790Y649999D02*
X890921Y649868D01*
Y649606D01*
X890790Y649474D01*
X890265D01*
X890134Y649606D01*
Y649868D01*
X890265Y649999D01*
X890921Y650786D02*
X890790Y650524D01*
X890528Y650262D01*
X890265D01*
X890134Y650393D01*
Y650655D01*
X890265Y650786D01*
X890397D01*
X890528Y650655D01*
Y650262D01*
X890265Y651049D02*
X890134Y651180D01*
Y651442D01*
X890265Y651574D01*
X890790D01*
X890921Y651442D01*
Y651180D01*
X890790Y651049D01*
X890659D01*
X890528Y651180D01*
Y651574D01*
X890790Y643700D02*
X890921Y643569D01*
Y643306D01*
X890790Y643175D01*
X890265D01*
X890134Y643306D01*
Y643569D01*
X890265Y643700D01*
X890921Y644487D02*
X890790Y644225D01*
X890528Y643962D01*
X890265D01*
X890134Y644094D01*
Y644356D01*
X890265Y644487D01*
X890397D01*
X890528Y644356D01*
Y643962D01*
X890790Y644749D02*
X890921Y644881D01*
Y645143D01*
X890790Y645274D01*
X890659D01*
X890528Y645143D01*
X890397Y645274D01*
X890265D01*
X890134Y645143D01*
Y644881D01*
X890265Y644749D01*
X890397D01*
X890528Y644881D01*
X890659Y644749D01*
X890790D01*
X890528Y644881D02*
Y645143D01*
X836491Y694422D02*
Y695209D01*
X836097D01*
X835966Y695078D01*
Y694815D01*
X836097Y694684D01*
X836491D01*
X836228D02*
X835966Y694422D01*
X835704Y695078D02*
X835573Y695209D01*
X835310D01*
X835179Y695078D01*
Y694946D01*
X835310Y694815D01*
X835441D01*
X835310D01*
X835179Y694684D01*
Y694553D01*
X835310Y694422D01*
X835573D01*
X835704Y694553D01*
X834917Y694422D02*
X834654D01*
X834785D01*
Y695209D01*
X834917Y695078D01*
X841740Y699015D02*
X841872Y698884D01*
Y698621D01*
X841740Y698490D01*
X841216D01*
X841084Y698621D01*
Y698884D01*
X841216Y699015D01*
X841084Y699802D02*
Y699277D01*
X841609Y699802D01*
X841740D01*
X841872Y699671D01*
Y699408D01*
X841740Y699277D01*
X841216Y700064D02*
X841084Y700196D01*
Y700458D01*
X841216Y700589D01*
X841740D01*
X841872Y700458D01*
Y700196D01*
X841740Y700064D01*
X841609D01*
X841478Y700196D01*
Y700589D01*
X842627Y671558D02*
X842758Y671690D01*
X843021D01*
X843152Y671558D01*
Y671033D01*
X843021Y670902D01*
X842758D01*
X842627Y671033D01*
X841840Y671690D02*
X842103Y671558D01*
X842365Y671296D01*
Y671033D01*
X842234Y670902D01*
X841971D01*
X841840Y671033D01*
Y671165D01*
X841971Y671296D01*
X842365D01*
X841053Y670902D02*
X841578D01*
X841053Y671427D01*
Y671558D01*
X841184Y671690D01*
X841447D01*
X841578Y671558D01*
X849451Y670902D02*
Y671690D01*
X849058D01*
X848927Y671558D01*
Y671296D01*
X849058Y671165D01*
X849451D01*
X849189D02*
X848927Y670902D01*
X848664Y671558D02*
X848533Y671690D01*
X848271D01*
X848139Y671558D01*
Y671427D01*
X848271Y671296D01*
X848139Y671165D01*
Y671033D01*
X848271Y670902D01*
X848533D01*
X848664Y671033D01*
Y671165D01*
X848533Y671296D01*
X848664Y671427D01*
Y671558D01*
X848533Y671296D02*
X848271D01*
X847352Y671690D02*
X847615Y671558D01*
X847877Y671296D01*
Y671033D01*
X847746Y670902D01*
X847484D01*
X847352Y671033D01*
Y671165D01*
X847484Y671296D01*
X847877D01*
X853389Y673658D02*
X853520Y673527D01*
Y673265D01*
X853389Y673133D01*
X852864D01*
X852733Y673265D01*
Y673527D01*
X852864Y673658D01*
X853520Y674445D02*
X853389Y674183D01*
X853126Y673921D01*
X852864D01*
X852733Y674052D01*
Y674314D01*
X852864Y674445D01*
X852995D01*
X853126Y674314D01*
Y673921D01*
X852733Y674708D02*
Y674970D01*
Y674839D01*
X853520D01*
X853389Y674708D01*
X844202Y688094D02*
X844333Y688225D01*
X844596D01*
X844727Y688094D01*
Y687569D01*
X844596Y687438D01*
X844333D01*
X844202Y687569D01*
X843546Y687438D02*
Y688225D01*
X843940Y687831D01*
X843415D01*
X842759Y687438D02*
Y688225D01*
X843153Y687831D01*
X842628D01*
X853389Y686125D02*
X853520Y685994D01*
Y685732D01*
X853389Y685601D01*
X852864D01*
X852733Y685732D01*
Y685994D01*
X852864Y686125D01*
X853389Y686388D02*
X853520Y686519D01*
Y686781D01*
X853389Y686913D01*
X853257D01*
X853126Y686781D01*
Y686650D01*
Y686781D01*
X852995Y686913D01*
X852864D01*
X852733Y686781D01*
Y686519D01*
X852864Y686388D01*
X853389Y687175D02*
X853520Y687306D01*
Y687569D01*
X853389Y687700D01*
X853257D01*
X853126Y687569D01*
X852995Y687700D01*
X852864D01*
X852733Y687569D01*
Y687306D01*
X852864Y687175D01*
X852995D01*
X853126Y687306D01*
X853257Y687175D01*
X853389D01*
X853126Y687306D02*
Y687569D01*
X852733Y679302D02*
X853520D01*
Y679695D01*
X853389Y679826D01*
X853126D01*
X852995Y679695D01*
Y679302D01*
Y679564D02*
X852733Y679826D01*
X853520Y680089D02*
Y680613D01*
X853389D01*
X852864Y680089D01*
X852733D01*
X853520Y680876D02*
Y681400D01*
X853389D01*
X852864Y680876D01*
X852733D01*
X881538Y637335D02*
Y638122D01*
X881144D01*
X881013Y637991D01*
Y637729D01*
X881144Y637598D01*
X881538D01*
X881276D02*
X881013Y637335D01*
X880226D02*
X880751D01*
X880226Y637860D01*
Y637991D01*
X880357Y638122D01*
X880620D01*
X880751Y637991D01*
X879964D02*
X879832Y638122D01*
X879570D01*
X879439Y637991D01*
Y637860D01*
X879570Y637729D01*
X879701D01*
X879570D01*
X879439Y637598D01*
Y637466D01*
X879570Y637335D01*
X879832D01*
X879964Y637466D01*
X887837Y637335D02*
Y638122D01*
X887444D01*
X887312Y637991D01*
Y637729D01*
X887444Y637598D01*
X887837D01*
X887575D02*
X887312Y637335D01*
X886525D02*
X887050D01*
X886525Y637860D01*
Y637991D01*
X886656Y638122D01*
X886919D01*
X887050Y637991D01*
X886263D02*
X886132Y638122D01*
X885869D01*
X885738Y637991D01*
Y637860D01*
X885869Y637729D01*
X885738Y637598D01*
Y637466D01*
X885869Y637335D01*
X886132D01*
X886263Y637466D01*
Y637598D01*
X886132Y637729D01*
X886263Y637860D01*
Y637991D01*
X886132Y637729D02*
X885869D01*
X874714Y637991D02*
X874845Y638122D01*
X875107D01*
X875239Y637991D01*
Y637466D01*
X875107Y637335D01*
X874845D01*
X874714Y637466D01*
X874452Y637991D02*
X874320Y638122D01*
X874058D01*
X873927Y637991D01*
Y637860D01*
X874058Y637729D01*
X874189D01*
X874058D01*
X873927Y637598D01*
Y637466D01*
X874058Y637335D01*
X874320D01*
X874452Y637466D01*
X873271Y637335D02*
Y638122D01*
X873664Y637729D01*
X873140D01*
X893218Y637991D02*
X893349Y638122D01*
X893612D01*
X893743Y637991D01*
Y637466D01*
X893612Y637335D01*
X893349D01*
X893218Y637466D01*
X892431Y637335D02*
X892956D01*
X892431Y637860D01*
Y637991D01*
X892562Y638122D01*
X892824D01*
X892956Y637991D01*
M02*
