G04*
G04 #@! TF.GenerationSoftware,Altium Limited,Altium Designer,21.9.2 (33)*
G04*
G04 Layer_Color=65535*
%FSLAX25Y25*%
%MOIN*%
G70*
G04*
G04 #@! TF.SameCoordinates,38B2C1F3-0FCD-4184-AA18-E5AB633A714F*
G04*
G04*
G04 #@! TF.FilePolarity,Positive*
G04*
G01*
G75*
%ADD10C,0.00984*%
%ADD11C,0.01181*%
%ADD12C,0.00394*%
%ADD13C,0.00591*%
%ADD14C,0.00787*%
D10*
X863461Y915189D02*
G03*
X863461Y915189I-492J0D01*
G01*
D11*
X850240Y626777D02*
G03*
X850240Y626777I-197J0D01*
G01*
X845319Y778671D02*
G03*
X845319Y778671I-197J0D01*
G01*
X922351D02*
G03*
X922351Y778671I-197J0D01*
G01*
X917429Y692170D02*
G03*
X917429Y692170I-197J0D01*
G01*
X849319Y796376D02*
G03*
X849319Y796376I-197J0D01*
G01*
X897351Y775376D02*
G03*
X897351Y775376I-197J0D01*
G01*
X873335Y796151D02*
G03*
X873335Y796151I-197J0D01*
G01*
Y747064D02*
G03*
X873335Y747064I-197J0D01*
G01*
X829240Y724866D02*
G03*
X829240Y724866I-197J0D01*
G01*
X873335Y718512D02*
G03*
X873335Y718512I-197J0D01*
G01*
Y685815D02*
G03*
X873335Y685815I-197J0D01*
G01*
X829240Y680473D02*
G03*
X829240Y680473I-197J0D01*
G01*
X917429Y724866D02*
G03*
X917429Y724866I-197J0D01*
G01*
X850240Y692170D02*
G03*
X850240Y692170I-197J0D01*
G01*
X917429Y626777D02*
G03*
X917429Y626777I-197J0D01*
G01*
X938429Y659473D02*
G03*
X938429Y659473I-197J0D01*
G01*
X873335Y653119D02*
G03*
X873335Y653119I-197J0D01*
G01*
Y620423D02*
G03*
X873335Y620423I-197J0D01*
G01*
D12*
X871040Y994422D02*
G03*
X871040Y994422I-197J0D01*
G01*
X901355Y1000721D02*
G03*
X901355Y1000721I-197J0D01*
G01*
X830102Y1056721D02*
X832726D01*
X831414D01*
Y1052785D01*
X836006Y1056721D02*
X834694D01*
X834038Y1056065D01*
Y1053441D01*
X834694Y1052785D01*
X836006D01*
X836662Y1053441D01*
Y1056065D01*
X836006Y1056721D01*
X837974Y1052785D02*
Y1056721D01*
X839942D01*
X840598Y1056065D01*
Y1054753D01*
X839942Y1054097D01*
X837974D01*
X847813Y1056721D02*
X846501D01*
X845845Y1056065D01*
Y1053441D01*
X846501Y1052785D01*
X847813D01*
X848469Y1053441D01*
Y1056065D01*
X847813Y1056721D01*
X849781D02*
Y1054097D01*
X851093Y1052785D01*
X852405Y1054097D01*
Y1056721D01*
X856341D02*
X853717D01*
Y1052785D01*
X856341D01*
X853717Y1054753D02*
X855029D01*
X857653Y1052785D02*
Y1056721D01*
X859620D01*
X860276Y1056065D01*
Y1054753D01*
X859620Y1054097D01*
X857653D01*
X858965D02*
X860276Y1052785D01*
X861588Y1056721D02*
Y1052785D01*
X864212D01*
X865524D02*
Y1055409D01*
X866836Y1056721D01*
X868148Y1055409D01*
Y1052785D01*
Y1054753D01*
X865524D01*
X869460Y1056721D02*
Y1056065D01*
X870772Y1054753D01*
X872084Y1056065D01*
Y1056721D01*
X870772Y1054753D02*
Y1052785D01*
D13*
X884032Y1014945D02*
Y1017945D01*
X883244Y1014992D02*
Y1017992D01*
X904111Y916174D02*
Y917552D01*
X888461Y930642D02*
X889839D01*
X861909Y898654D02*
X905367D01*
X858638Y912827D02*
X860803D01*
X858637Y904624D02*
Y912826D01*
X906473Y912827D02*
X908637D01*
X908637Y904625D02*
Y912826D01*
X903815Y985367D02*
X905193D01*
X885705Y1010563D02*
X887083D01*
X873796Y1019276D02*
Y1022276D01*
X893480Y1019323D02*
Y1022323D01*
X893087Y1008300D02*
Y1009678D01*
Y1011449D02*
Y1012827D01*
X892792Y930642D02*
X894170D01*
X897516Y985367D02*
X898894D01*
X892792D02*
X894170D01*
X881276Y986252D02*
Y987630D01*
X900666Y985367D02*
X902044D01*
X889642D02*
X891020D01*
X873500D02*
X874878D01*
X897811Y916174D02*
Y917552D01*
X891512Y916173D02*
Y917552D01*
X910418Y906233D02*
X911796D01*
X870351Y985367D02*
X871729D01*
X870843Y995406D02*
Y999736D01*
X881473Y995406D02*
Y999736D01*
X901158Y995406D02*
Y999736D01*
X890528Y995406D02*
Y999736D01*
X897122Y930642D02*
X898500D01*
D14*
X848894Y632847D02*
Y641706D01*
X835410Y646135D02*
X843677D01*
X830193Y632847D02*
Y641706D01*
X835410Y628418D02*
X843677D01*
X843973Y784742D02*
Y793600D01*
X830488Y798029D02*
X838756D01*
X825272Y784742D02*
Y793600D01*
X830488Y780313D02*
X838756D01*
X928225Y779821D02*
X937083D01*
X941512Y785037D02*
Y793305D01*
X928225Y798521D02*
X937083D01*
X923796Y785037D02*
Y793305D01*
X923303Y693319D02*
X932162D01*
X936591Y698536D02*
Y706804D01*
X923303Y712020D02*
X932162D01*
X918874Y698536D02*
Y706804D01*
X855488Y794734D02*
X863756D01*
X868973Y781447D02*
Y790305D01*
X855488Y777018D02*
X863756D01*
X850272Y781447D02*
Y790305D01*
X898796Y781742D02*
Y790010D01*
X903225Y795226D02*
X912083D01*
X916512Y781742D02*
Y790010D01*
X903225Y776525D02*
X912083D01*
X874780Y802518D02*
Y810785D01*
X879209Y816002D02*
X888067D01*
X892496Y802518D02*
Y810785D01*
X879209Y797301D02*
X888067D01*
X874780Y753430D02*
Y761698D01*
X879209Y766915D02*
X888067D01*
X892496Y753430D02*
Y761698D01*
X879209Y748214D02*
X888067D01*
X830685Y731232D02*
Y739500D01*
X835114Y744717D02*
X843973D01*
X848402Y731232D02*
Y739500D01*
X835114Y726016D02*
X843973D01*
X874780Y724878D02*
Y733146D01*
X879209Y738362D02*
X888067D01*
X892496Y724878D02*
Y733146D01*
X879209Y719662D02*
X888067D01*
X874780Y692182D02*
Y700449D01*
X879209Y705666D02*
X888067D01*
X892496Y692182D02*
Y700449D01*
X879209Y686965D02*
X888067D01*
X835410Y678831D02*
X843677D01*
X848894Y665544D02*
Y674402D01*
X835410Y661115D02*
X843677D01*
X830193Y665544D02*
Y674402D01*
X918874Y731232D02*
Y739500D01*
X923303Y744717D02*
X932162D01*
X936591Y731232D02*
Y739500D01*
X923303Y726016D02*
X932162D01*
X835410Y693811D02*
X843677D01*
X830193Y698241D02*
Y707099D01*
X835410Y711528D02*
X843677D01*
X848894Y698241D02*
Y707099D01*
X918874Y633143D02*
Y641410D01*
X923303Y646627D02*
X932162D01*
X936591Y633143D02*
Y641410D01*
X923303Y627926D02*
X932162D01*
X923599Y661115D02*
X931866D01*
X918382Y665544D02*
Y674402D01*
X923599Y678831D02*
X931866D01*
X937083Y665544D02*
Y674402D01*
X874780Y659485D02*
Y667753D01*
X879209Y672969D02*
X888067D01*
X892496Y659485D02*
Y667753D01*
X879209Y654269D02*
X888067D01*
X874780Y626789D02*
Y635056D01*
X879209Y640273D02*
X888067D01*
X892496Y626789D02*
Y635056D01*
X879209Y621572D02*
X888067D01*
X826752Y993241D02*
Y997176D01*
X828720D01*
X829376Y996520D01*
Y995208D01*
X828720Y994552D01*
X826752D01*
X828064D02*
X829376Y993241D01*
X833312Y997176D02*
X830688D01*
Y993241D01*
X833312D01*
X830688Y995208D02*
X832000D01*
X834624Y997176D02*
Y994552D01*
X835936Y993241D01*
X837248Y994552D01*
Y997176D01*
X838560Y995864D02*
X839216D01*
Y995208D01*
X838560D01*
Y995864D01*
Y993896D02*
X839216D01*
Y993241D01*
X838560D01*
Y993896D01*
X845775Y993241D02*
Y995864D01*
X847087Y997176D01*
X848399Y995864D01*
Y993241D01*
Y995208D01*
X845775D01*
X849711Y996520D02*
X850367Y997176D01*
X851679D01*
X852335Y996520D01*
Y995864D01*
X851679Y995208D01*
X851023D01*
X851679D01*
X852335Y994552D01*
Y993896D01*
X851679Y993241D01*
X850367D01*
X849711Y993896D01*
M02*
