G04*
G04 #@! TF.GenerationSoftware,Altium Limited,Altium Designer,21.9.2 (33)*
G04*
G04 Layer_Color=65280*
%FSLAX25Y25*%
%MOIN*%
G70*
G04*
G04 #@! TF.SameCoordinates,38B2C1F3-0FCD-4184-AA18-E5AB633A714F*
G04*
G04*
G04 #@! TF.FilePolarity,Positive*
G04*
G01*
G75*
%ADD12C,0.00394*%
%ADD163C,0.00197*%
D12*
X914347Y918044D02*
Y919618D01*
X913559Y918831D02*
X915134D01*
X887083Y1016469D02*
X890429D01*
X888756Y1014796D02*
Y1018142D01*
X876847Y1016469D02*
X880193D01*
X878520Y1014796D02*
Y1018142D01*
X904111Y915780D02*
Y917945D01*
X903028Y916862D02*
X905193D01*
X889150Y929559D02*
Y931725D01*
X888067Y930642D02*
X890232D01*
X881670Y906429D02*
X885606D01*
X883638Y904461D02*
Y908398D01*
X911985Y618512D02*
Y621512D01*
Y620012D02*
Y621512D01*
X910485Y620012D02*
X911985D01*
X910485D02*
X913484D01*
X904504Y984284D02*
Y986449D01*
X903421Y985367D02*
X905587D01*
X885311Y1010563D02*
X887477D01*
X886394Y1009481D02*
Y1011646D01*
X839544Y635308D02*
Y639245D01*
X837575Y637277D02*
X841512D01*
X876847Y1020800D02*
X880193D01*
X878520Y1019126D02*
Y1022473D01*
X887083Y1020800D02*
X890429D01*
X888756Y1019126D02*
Y1022473D01*
X893087Y1007906D02*
Y1010071D01*
X892004Y1008988D02*
X894170D01*
X893087Y1011055D02*
Y1013221D01*
X892004Y1012138D02*
X894170D01*
X893480Y929559D02*
Y931725D01*
X892398Y930642D02*
X894563D01*
X898205Y984284D02*
Y986449D01*
X897122Y985367D02*
X899288D01*
X893480Y984284D02*
Y986449D01*
X892398Y985367D02*
X894563D01*
X880193Y986941D02*
X882358D01*
X881276Y985859D02*
Y988024D01*
X901355Y984284D02*
Y986449D01*
X900272Y985367D02*
X902437D01*
X890331Y984284D02*
Y986449D01*
X889248Y985367D02*
X891414D01*
X874189Y984284D02*
Y986449D01*
X873106Y985367D02*
X875272D01*
X897811Y915780D02*
Y917945D01*
X896729Y916862D02*
X898894D01*
X891512Y915780D02*
Y917945D01*
X890429Y916862D02*
X892595D01*
X910025Y906233D02*
X912190D01*
X911107Y905150D02*
Y907315D01*
X871040Y984284D02*
Y986449D01*
X869957Y985367D02*
X872122D01*
X876158Y995603D02*
Y999540D01*
X874189Y997571D02*
X878126D01*
X895843Y995603D02*
Y999540D01*
X893874Y997571D02*
X897811D01*
X834622Y787203D02*
Y791140D01*
X832654Y789171D02*
X836591D01*
X930685D02*
X934622D01*
X932654Y787203D02*
Y791140D01*
X907335Y1007020D02*
X910335D01*
X907335D02*
X908835D01*
Y1008520D01*
Y1005520D02*
Y1008520D01*
X836469Y837729D02*
X839469D01*
X836469D02*
X837969D01*
Y839229D01*
Y836229D02*
Y839229D01*
X896729Y930642D02*
X898894D01*
X897811Y929559D02*
Y931725D01*
X925764Y702670D02*
X929701D01*
X927732Y700701D02*
Y704638D01*
X857654Y785876D02*
X861591D01*
X859622Y783907D02*
Y787844D01*
X907654Y783907D02*
Y787844D01*
X905685Y785876D02*
X909622D01*
X883638Y804683D02*
Y808620D01*
X881670Y806651D02*
X885606D01*
X883638Y755596D02*
Y759533D01*
X881670Y757564D02*
X885606D01*
X839544Y733398D02*
Y737335D01*
X837575Y735366D02*
X841512D01*
X883638Y727043D02*
Y730980D01*
X881670Y729012D02*
X885606D01*
X883638Y694347D02*
Y698284D01*
X881670Y696315D02*
X885606D01*
X837575Y669973D02*
X841512D01*
X839544Y668005D02*
Y671942D01*
X927732Y733398D02*
Y737335D01*
X925764Y735366D02*
X929701D01*
X837575Y702670D02*
X841512D01*
X839544Y700701D02*
Y704638D01*
X927732Y635308D02*
Y639245D01*
X925764Y637277D02*
X929701D01*
X925764Y669973D02*
X929701D01*
X927732Y668005D02*
Y671942D01*
X883638Y661651D02*
Y665588D01*
X881670Y663619D02*
X885606D01*
X883638Y628954D02*
Y632891D01*
X881670Y630923D02*
X885606D01*
X831087Y1056721D02*
X833710D01*
X832399D01*
Y1052785D01*
X836990Y1056721D02*
X835678D01*
X835022Y1056065D01*
Y1053441D01*
X835678Y1052785D01*
X836990D01*
X837646Y1053441D01*
Y1056065D01*
X836990Y1056721D01*
X838958Y1052785D02*
Y1056721D01*
X840926D01*
X841582Y1056065D01*
Y1054753D01*
X840926Y1054097D01*
X838958D01*
X849453Y1056065D02*
X848798Y1056721D01*
X847486D01*
X846830Y1056065D01*
Y1053441D01*
X847486Y1052785D01*
X848798D01*
X849453Y1053441D01*
X852733Y1056721D02*
X851421D01*
X850765Y1056065D01*
Y1053441D01*
X851421Y1052785D01*
X852733D01*
X853389Y1053441D01*
Y1056065D01*
X852733Y1056721D01*
X854701D02*
Y1053441D01*
X855357Y1052785D01*
X856669D01*
X857325Y1053441D01*
Y1056721D01*
X858637Y1052785D02*
Y1056721D01*
X860605D01*
X861261Y1056065D01*
Y1054753D01*
X860605Y1054097D01*
X858637D01*
X859949D02*
X861261Y1052785D01*
X862573Y1056721D02*
X865196D01*
X863885D01*
Y1052785D01*
X866508Y1056721D02*
Y1056065D01*
X867820Y1054753D01*
X869132Y1056065D01*
Y1056721D01*
X867820Y1054753D02*
Y1052785D01*
X870444D02*
Y1055409D01*
X871756Y1056721D01*
X873068Y1055409D01*
Y1052785D01*
Y1054753D01*
X870444D01*
X874380Y1052785D02*
Y1056721D01*
X876348D01*
X877004Y1056065D01*
Y1054753D01*
X876348Y1054097D01*
X874380D01*
X875692D02*
X877004Y1052785D01*
X878316Y1056721D02*
Y1052785D01*
X880283D01*
X880939Y1053441D01*
Y1056065D01*
X880283Y1056721D01*
X878316D01*
D163*
X912477Y920800D02*
X916315D01*
X912477Y916862D02*
Y920800D01*
Y916862D02*
X916315D01*
Y920800D01*
X893087Y1014303D02*
Y1018634D01*
X884425Y1014303D02*
Y1018634D01*
Y1014303D02*
X893087D01*
X884425Y1018634D02*
X893087D01*
X874189Y1014303D02*
Y1018634D01*
X882851Y1014303D02*
Y1018634D01*
X874189D02*
X882851D01*
X874189Y1014303D02*
X882851D01*
X900961Y915288D02*
X907260D01*
X900961Y918437D02*
X907260D01*
Y915288D02*
Y918437D01*
X900961Y915288D02*
Y918437D01*
X887575Y933792D02*
X890725D01*
X887575Y927492D02*
X890725D01*
Y933792D01*
X887575Y927492D02*
Y933792D01*
X858245Y913418D02*
X909032D01*
Y898260D02*
Y913418D01*
X858244Y898260D02*
X909032D01*
X858245D02*
Y913418D01*
X907985Y624012D02*
X911985D01*
X907985Y616012D02*
Y624012D01*
Y616012D02*
X915985D01*
Y624012D01*
X911985D02*
X915985D01*
X902929Y988516D02*
X906079D01*
X902929Y982217D02*
X906079D01*
Y988516D01*
X902929Y982217D02*
Y988516D01*
X887969Y1007414D02*
Y1013713D01*
X884819Y1007414D02*
Y1013713D01*
X887969D01*
X884819Y1007414D02*
X887969D01*
X828603Y626277D02*
X850543D01*
Y648119D01*
X828603D02*
X850543D01*
X828603Y626277D02*
Y648119D01*
X882851Y1018634D02*
Y1022965D01*
X874189Y1018634D02*
Y1022965D01*
Y1018634D02*
X882851D01*
X874189Y1022965D02*
X882851D01*
X884425Y1018634D02*
Y1022965D01*
X893087Y1018634D02*
Y1022965D01*
X884425D02*
X893087D01*
X884425Y1018634D02*
X893087D01*
X889937Y1007414D02*
X896236D01*
X889937Y1010563D02*
X896236D01*
Y1007414D02*
Y1010563D01*
X889937Y1007414D02*
Y1010563D01*
Y1010563D02*
X896236D01*
X889937Y1013713D02*
X896236D01*
Y1010563D02*
Y1013713D01*
X889937Y1010563D02*
Y1013713D01*
X891906Y927492D02*
X895055D01*
X891906Y933792D02*
X895055D01*
X891906Y927492D02*
Y933792D01*
X895055Y927492D02*
Y933792D01*
X896630Y982217D02*
X899780D01*
X896630Y988516D02*
X899780D01*
X896630Y982217D02*
Y988516D01*
X899780Y982217D02*
Y988516D01*
X891906Y982217D02*
X895055D01*
X891906Y988516D02*
X895055D01*
X891906Y982217D02*
Y988516D01*
X895055Y982217D02*
Y988516D01*
X884425Y985367D02*
Y988516D01*
X878126Y985367D02*
Y988516D01*
Y985367D02*
X884425D01*
X878126Y988516D02*
X884425D01*
X899780Y988516D02*
X902929D01*
X899780Y982217D02*
X902929D01*
Y988516D01*
X899780Y982217D02*
Y988516D01*
X888756Y982217D02*
X891906D01*
X888756Y988516D02*
X891906D01*
X888756Y982217D02*
Y988516D01*
X891906Y982217D02*
Y988516D01*
X872614Y982217D02*
X875764D01*
X872614Y988516D02*
X875764D01*
X872614Y982217D02*
Y988516D01*
X875764Y982217D02*
Y988516D01*
X894662Y915288D02*
X900961D01*
X894662Y918437D02*
X900961D01*
Y915288D02*
Y918437D01*
X894662Y915288D02*
Y918437D01*
X888362Y918437D02*
X894662D01*
X888362Y915288D02*
X894662D01*
X888362D02*
Y918437D01*
X894662Y915288D02*
Y918437D01*
X909533Y903083D02*
Y909382D01*
X912682Y903083D02*
Y909382D01*
X909533Y903083D02*
X912682D01*
X909533Y909382D02*
X912682D01*
X869465Y982217D02*
X872614D01*
X869465Y988516D02*
X872614D01*
X869465Y982217D02*
Y988516D01*
X872614Y982217D02*
Y988516D01*
X870646Y994205D02*
X881670D01*
X870646Y1000937D02*
X881670D01*
X870646Y994205D02*
Y1000937D01*
X881670Y994205D02*
Y1000937D01*
X890331Y1000937D02*
X901355D01*
X890331Y994205D02*
X901355D01*
Y1000937D01*
X890331Y994205D02*
Y1000937D01*
X823681Y778171D02*
X845622D01*
Y800014D01*
X823681D02*
X845622D01*
X823681Y778171D02*
Y800014D01*
X921654Y778171D02*
Y800112D01*
Y778171D02*
X943496D01*
Y800112D01*
X921654D02*
X943496D01*
X908835Y1011020D02*
X912835D01*
Y1003020D02*
Y1011020D01*
X904835Y1003020D02*
X912835D01*
X904835D02*
Y1011020D01*
X908835D01*
X837969Y841729D02*
X841969D01*
Y833729D02*
Y841729D01*
X833969Y833729D02*
X841969D01*
X833969D02*
Y841729D01*
X837969D01*
X896236Y927492D02*
Y933792D01*
X899386Y927492D02*
Y933792D01*
X896236Y927492D02*
X899386D01*
X896236Y933792D02*
X899386D01*
X916733Y691670D02*
Y713611D01*
Y691670D02*
X938575D01*
Y713611D01*
X916733D02*
X938575D01*
X870563Y775033D02*
Y796876D01*
X848622Y775033D02*
X870563Y775033D01*
X848622Y775033D02*
Y796876D01*
X870563D01*
X896654Y796817D02*
X918496D01*
X918496Y774876D02*
X918496Y796817D01*
X896654Y774876D02*
X918496D01*
X896654D02*
Y796817D01*
X872638Y817592D02*
X894481D01*
Y795651D02*
Y817592D01*
X872638Y795651D02*
X894481D01*
X872638D02*
Y817592D01*
Y768505D02*
X894481D01*
Y746564D02*
Y768505D01*
X872638Y746564D02*
X894481D01*
X872638D02*
Y768505D01*
X828543Y746307D02*
X850386D01*
Y724366D02*
Y746307D01*
X828543Y724366D02*
X850386D01*
X828543D02*
Y746307D01*
X872638Y739953D02*
X894481D01*
Y718012D02*
Y739953D01*
X872638Y718012D02*
X894481D01*
X872638D02*
Y739953D01*
Y707256D02*
X894481D01*
Y685316D02*
Y707256D01*
X872638Y685316D02*
X894481D01*
X872638D02*
Y707256D01*
X850484Y659131D02*
Y680973D01*
X828543Y659131D02*
X850484D01*
X828543D02*
Y680973D01*
X850484D01*
X916733Y746307D02*
X938575D01*
Y724366D02*
Y746307D01*
X916733Y724366D02*
X938575D01*
X916733D02*
Y746307D01*
X828603Y691670D02*
Y713512D01*
X850543D01*
Y691670D02*
Y713512D01*
X828603Y691670D02*
X850543D01*
X916733Y648218D02*
X938575D01*
Y626277D02*
Y648218D01*
X916733Y626277D02*
X938575D01*
X916733D02*
Y648218D01*
X916792Y658973D02*
Y680816D01*
X938733D01*
Y658973D02*
Y680816D01*
X916792Y658973D02*
X938733D01*
X872638Y674560D02*
X894481D01*
Y652619D02*
Y674560D01*
X872638Y652619D02*
X894481D01*
X872638D02*
Y674560D01*
Y641863D02*
X894481D01*
Y619922D02*
Y641863D01*
X872638Y619922D02*
X894481D01*
X872638D02*
Y641863D01*
M02*
