G04*
G04 #@! TF.GenerationSoftware,Altium Limited,Altium Designer,21.9.2 (33)*
G04*
G04 Layer_Color=32896*
%FSLAX25Y25*%
%MOIN*%
G70*
G04*
G04 #@! TF.SameCoordinates,38B2C1F3-0FCD-4184-AA18-E5AB633A714F*
G04*
G04*
G04 #@! TF.FilePolarity,Positive*
G04*
G01*
G75*
%ADD10C,0.00984*%
%ADD11C,0.01181*%
%ADD12C,0.00394*%
%ADD13C,0.00591*%
%ADD14C,0.00787*%
D10*
X845370Y968536D02*
G03*
X845370Y968536I-492J0D01*
G01*
X912181Y927394D02*
G03*
X912181Y927394I-492J0D01*
G01*
X921357Y701311D02*
G03*
X921357Y701311I-317J0D01*
G01*
D11*
X904511Y923260D02*
G03*
X904511Y923260I-696J0D01*
G01*
X848008Y794717D02*
G03*
X848008Y794717I-98J0D01*
G01*
X895980Y645603D02*
G03*
X895973Y645626I-39J0D01*
G01*
X850311Y685568D02*
G03*
X850311Y685568I-39J0D01*
G01*
D12*
X921906Y922827D02*
G03*
X921906Y922827I-197J0D01*
G01*
X915429Y949835D02*
G03*
X915429Y949835I-197J0D01*
G01*
X928914Y960859D02*
G03*
X928914Y960859I-197J0D01*
G01*
X867890Y963910D02*
G03*
X867890Y963910I-197J0D01*
G01*
X904760Y965012D02*
G03*
X904760Y965012I-197J0D01*
G01*
X855784Y957709D02*
G03*
X855784Y957709I-197J0D01*
G01*
X929032Y786666D02*
G03*
X929032Y786666I-197J0D01*
G01*
Y804382D02*
G03*
X929032Y804382I-197J0D01*
G01*
X897713Y798752D02*
G03*
X897713Y798752I-197J0D01*
G01*
X830685Y946390D02*
G03*
X830685Y946390I-197J0D01*
G01*
X919209Y728969D02*
G03*
X919209Y728969I-197J0D01*
G01*
X903579Y954185D02*
G03*
X903579Y954185I-197J0D01*
G01*
X832851Y689107D02*
G03*
X832851Y689107I-197J0D01*
G01*
X839509Y696882D02*
G03*
X839509Y696882I-197J0D01*
G01*
X892496Y849638D02*
G03*
X892496Y849638I-197J0D01*
G01*
X832532Y642016D02*
X835532D01*
X866784Y677055D02*
X869784D01*
X923106Y782611D02*
Y784973D01*
X923500Y800721D02*
Y803083D01*
X901748Y619815D02*
Y626902D01*
X865528Y619815D02*
Y626902D01*
X869268Y633792D02*
X898008D01*
X830102Y1056721D02*
Y1052785D01*
X832070D01*
X832726Y1053441D01*
Y1054097D01*
X832070Y1054753D01*
X830102D01*
X832070D01*
X832726Y1055409D01*
Y1056065D01*
X832070Y1056721D01*
X830102D01*
X836006D02*
X834694D01*
X834038Y1056065D01*
Y1053441D01*
X834694Y1052785D01*
X836006D01*
X836662Y1053441D01*
Y1056065D01*
X836006Y1056721D01*
X837974D02*
X840598D01*
X839286D01*
Y1052785D01*
X841910Y1056721D02*
X844533D01*
X843221D01*
Y1052785D01*
X847813Y1056721D02*
X846501D01*
X845845Y1056065D01*
Y1053441D01*
X846501Y1052785D01*
X847813D01*
X848469Y1053441D01*
Y1056065D01*
X847813Y1056721D01*
X849781Y1052785D02*
Y1056721D01*
X851093Y1055409D01*
X852405Y1056721D01*
Y1052785D01*
X859620Y1056721D02*
X858309D01*
X857653Y1056065D01*
Y1053441D01*
X858309Y1052785D01*
X859620D01*
X860276Y1053441D01*
Y1056065D01*
X859620Y1056721D01*
X861588D02*
Y1054097D01*
X862900Y1052785D01*
X864212Y1054097D01*
Y1056721D01*
X868148D02*
X865524D01*
Y1052785D01*
X868148D01*
X865524Y1054753D02*
X866836D01*
X869460Y1052785D02*
Y1056721D01*
X871428D01*
X872084Y1056065D01*
Y1054753D01*
X871428Y1054097D01*
X869460D01*
X870772D02*
X872084Y1052785D01*
X873396Y1056721D02*
Y1052785D01*
X876019D01*
X877331D02*
Y1055409D01*
X878643Y1056721D01*
X879955Y1055409D01*
Y1052785D01*
Y1054753D01*
X877331D01*
X881267Y1056721D02*
Y1056065D01*
X882579Y1054753D01*
X883891Y1056065D01*
Y1056721D01*
X882579Y1054753D02*
Y1052785D01*
D13*
X850299Y998008D02*
G03*
X850299Y998008I-264J0D01*
G01*
X902843Y720150D02*
G03*
X902843Y720150I-264J0D01*
G01*
X840638Y953221D02*
G03*
X840638Y953221I-264J0D01*
G01*
X839370Y941134D02*
G03*
X839370Y941134I-264J0D01*
G01*
X846244Y946741D02*
G03*
X846244Y946741I-264J0D01*
G01*
X936079Y877268D02*
G03*
X936079Y877268I-197J0D01*
G01*
X941023Y641469D02*
G03*
X941023Y641469I-298J0D01*
G01*
X918677Y928772D02*
Y930150D01*
Y920111D02*
Y921488D01*
X923106Y927886D02*
X924485D01*
X931276Y970898D02*
Y972276D01*
Y967355D02*
Y968733D01*
X882768Y955701D02*
X884343D01*
X882768Y943890D02*
X884343D01*
X878437Y945465D02*
Y954126D01*
X888673Y945465D02*
Y954126D01*
X884524Y961351D02*
X885902D01*
X880488Y959087D02*
Y960465D01*
X888067Y962532D02*
X889445D01*
X868035Y969991D02*
Y972353D01*
X894662Y714158D02*
Y717158D01*
X901453Y947178D02*
X902831D01*
X908047Y938221D02*
Y939599D01*
X906473Y941174D02*
X912772D01*
X906473Y949244D02*
X912772D01*
X916020Y945209D02*
X917398D01*
X907654Y875130D02*
Y927099D01*
X855685Y875130D02*
Y927099D01*
X907654D01*
X855685Y875130D02*
X907654D01*
X873500Y966862D02*
X874878D01*
X869858Y961055D02*
Y962433D01*
X860016Y968437D02*
X862378D01*
X860016Y962926D02*
X862378D01*
X891512Y964500D02*
X893874D01*
X899878Y957414D02*
X901256D01*
X860410Y952000D02*
Y953378D01*
X901453Y968437D02*
X902831D01*
X902142Y961449D02*
Y962827D01*
X910508Y968044D02*
X911886D01*
X910410Y961843D02*
Y963221D01*
X887181Y966961D02*
Y968339D01*
X870351Y940878D02*
X871729D01*
X874288Y942059D02*
X875666D01*
X874288Y957020D02*
X875666D01*
X918677Y916174D02*
Y917552D01*
X853815Y1003083D02*
Y1003575D01*
X853028D02*
X853815D01*
Y999441D02*
Y999933D01*
X853028Y999441D02*
X853815D01*
X847024Y962532D02*
Y968044D01*
X854898Y962532D02*
Y968044D01*
X921402Y955839D02*
X925402D01*
X833244Y807118D02*
Y808496D01*
X934819Y812630D02*
Y814008D01*
X898992Y714993D02*
Y716370D01*
X925075Y782217D02*
X926453D01*
X917496Y787433D02*
Y788811D01*
X921925Y789697D02*
X923303D01*
X925862Y790091D02*
X927240D01*
X928126Y794914D02*
Y796292D01*
X931276Y783496D02*
Y784874D01*
X934819Y794914D02*
Y796292D01*
X935705Y790485D02*
X937083D01*
X925469Y801114D02*
X926847D01*
X931276Y801213D02*
Y802591D01*
X935705Y807807D02*
X937083D01*
X921925Y807807D02*
X923303D01*
X925862Y808201D02*
X927240D01*
X917496Y805544D02*
Y806922D01*
X927732Y812630D02*
Y814008D01*
X918284Y872867D02*
Y874244D01*
X852536Y1006331D02*
Y1007709D01*
X852536Y995307D02*
Y996685D01*
X848992Y995307D02*
Y996685D01*
X840823Y706233D02*
X842201D01*
X868087Y647571D02*
X881079D01*
X877929Y646981D02*
Y648162D01*
X921040Y975492D02*
Y979492D01*
X908146Y796390D02*
X909524D01*
X906177Y789992D02*
Y796292D01*
X898106Y789992D02*
Y796292D01*
X903717Y800032D02*
Y801410D01*
X908146Y790091D02*
X909524D01*
X893480Y792059D02*
X895843D01*
X844268Y813319D02*
Y815681D01*
X844268Y808595D02*
Y810957D01*
X940331Y649638D02*
Y651016D01*
X932063Y651607D02*
Y652985D01*
X839937Y992552D02*
Y993929D01*
X845547Y988122D02*
X846925D01*
X849417Y981480D02*
Y982858D01*
X850272Y987335D02*
X851650D01*
X850272Y990878D02*
X851650D01*
X853717Y973654D02*
Y975032D01*
X833638Y888221D02*
Y889599D01*
X837181Y888221D02*
Y889599D01*
Y896882D02*
Y898260D01*
Y892552D02*
Y893929D01*
X833638Y892552D02*
Y893929D01*
Y896882D02*
Y898260D01*
X857654Y935465D02*
Y936843D01*
X858933Y938122D02*
X860311D01*
X898697Y864894D02*
X900075D01*
X866020Y937335D02*
X867398D01*
X928914Y648457D02*
Y649835D01*
Y644520D02*
Y645898D01*
X846335Y881823D02*
X847713D01*
X840429Y856233D02*
X841807D01*
X829307Y853477D02*
Y855839D01*
X904012Y716370D02*
Y717158D01*
Y716370D02*
X904504D01*
X908146D02*
Y717158D01*
X907654Y716370D02*
X908146D01*
X845449Y949441D02*
X845941D01*
Y950229D01*
X841807Y949441D02*
X842299D01*
X841807D02*
Y950229D01*
X849878Y950327D02*
X851256D01*
X841611Y957807D02*
X842988D01*
X834798Y955544D02*
Y956922D01*
X848500Y943437D02*
X849878D01*
X827929Y943536D02*
Y944914D01*
X833540Y944914D02*
X834032D01*
X833540Y944126D02*
Y944914D01*
X837181D02*
X837673D01*
Y944126D02*
Y944914D01*
X842201Y941173D02*
Y941666D01*
Y941173D02*
X842988D01*
X842201Y944815D02*
Y945307D01*
X842988D01*
X827929Y939992D02*
Y941370D01*
X865528Y850819D02*
Y852197D01*
X861591Y840977D02*
Y842355D01*
X895449Y840583D02*
Y841961D01*
Y845898D02*
Y847276D01*
X895646Y836055D02*
Y837433D01*
X912378Y707118D02*
Y708496D01*
X906079Y707118D02*
Y708496D01*
X918579Y708004D02*
X919957D01*
X913756Y721292D02*
Y722670D01*
X920055Y721292D02*
Y722670D01*
X920055Y934481D02*
Y935859D01*
X926945Y938516D02*
Y940878D01*
X935016Y938418D02*
Y939796D01*
X910803Y935071D02*
Y936449D01*
X853323Y865780D02*
Y867158D01*
X902634Y864894D02*
X904012D01*
X857358D02*
X858736D01*
X845449Y924048D02*
Y925426D01*
X904504Y935071D02*
Y936449D01*
X923106Y872768D02*
X924485D01*
X933244Y878772D02*
Y880150D01*
X926551Y878772D02*
Y880150D01*
X929382Y876268D02*
X932378D01*
X929382Y869268D02*
X932378D01*
X918776Y885760D02*
X920154D01*
X915626Y888122D02*
X917004D01*
X860902Y864894D02*
X862280D01*
X845449Y920111D02*
Y921488D01*
X916906Y730544D02*
Y731922D01*
X827634Y695799D02*
X829012D01*
X834130Y798752D02*
X835508D01*
X830981Y783004D02*
X832358D01*
X830095Y787040D02*
Y788418D01*
X830980Y792453D02*
X832358D01*
X830981Y798752D02*
X832358D01*
X844071Y801311D02*
Y803673D01*
Y796981D02*
Y799343D01*
X843874Y710957D02*
Y713319D01*
X844071Y772768D02*
Y775130D01*
X858284Y787925D02*
Y789500D01*
X851512Y787925D02*
Y789500D01*
X909229Y951607D02*
Y952985D01*
X864740Y949933D02*
X867103D01*
X909327Y957414D02*
X910705D01*
X844071Y777886D02*
Y780248D01*
X922713Y907020D02*
X924091D01*
X922713Y913319D02*
X924091D01*
X931670Y952000D02*
Y953378D01*
X847713Y782118D02*
Y782807D01*
X834524Y794618D02*
Y795307D01*
Y782118D02*
Y782807D01*
Y795307D02*
X837103D01*
X845134Y782118D02*
X847713D01*
X834524D02*
X837103D01*
X862949Y647433D02*
X865311D01*
Y661410D01*
X844839D02*
X849563D01*
X829091Y647433D02*
X831453D01*
X829091D02*
Y661410D01*
X837752D01*
X856650D02*
X865311D01*
X918087Y701902D02*
X919662D01*
Y700327D02*
Y701902D01*
X919662Y685760D02*
Y687335D01*
X918087Y685760D02*
X919662D01*
X903520D02*
X905095D01*
X903520D02*
Y687335D01*
X903520Y700327D02*
Y701902D01*
X905095D01*
X833604Y708299D02*
Y709678D01*
X855882Y620571D02*
Y624571D01*
X898402Y642748D02*
Y644126D01*
X907851Y644323D02*
Y645701D01*
X908736Y650524D02*
X910114D01*
X908736Y656823D02*
X910114D01*
X889839D02*
X891217D01*
X892988Y653674D02*
X894366D01*
X905587Y650524D02*
X906965D01*
X905587Y656823D02*
X906965D01*
X901551Y657709D02*
Y659087D01*
X895252Y657709D02*
Y659087D01*
X885803Y645111D02*
Y646489D01*
Y648260D02*
Y649638D01*
X892988Y647374D02*
X894366D01*
X889839Y650524D02*
X891217D01*
X889839Y644225D02*
X891217D01*
X835573Y694126D02*
Y695504D01*
X840789Y699540D02*
X842167D01*
X830553Y705012D02*
Y705937D01*
Y697866D02*
Y698792D01*
X839017Y705012D02*
Y705937D01*
Y697866D02*
Y698792D01*
X842103Y670607D02*
Y671985D01*
X848402Y670607D02*
Y671985D01*
X852437Y674052D02*
X853815D01*
X843677Y687142D02*
Y688520D01*
X852437Y686650D02*
X853815D01*
X852437Y680351D02*
X853815D01*
X880488Y637040D02*
Y638418D01*
X886788Y637040D02*
Y638418D01*
X874189Y637040D02*
Y638418D01*
X893087Y637040D02*
Y638418D01*
X841512Y673461D02*
X843500D01*
X847792Y673461D02*
X849780D01*
X841512Y685666D02*
X843500D01*
X841512Y673461D02*
Y674150D01*
X841512Y684977D02*
Y685666D01*
X849780Y673461D02*
Y674150D01*
X904898Y626115D02*
X908965D01*
X904898D02*
Y638713D01*
X908965D01*
X942169Y626115D02*
X946236D01*
Y638713D01*
X942169D02*
X946236D01*
X886965Y848949D02*
X890134D01*
Y848538D02*
Y848949D01*
X866512D02*
X869681D01*
X866512Y848538D02*
Y848949D01*
X886965Y829264D02*
X890134D01*
Y829676D01*
X866512Y829264D02*
X869681D01*
X866512D02*
Y829676D01*
X933638Y897178D02*
Y898752D01*
X928914Y892453D02*
Y894028D01*
X933638Y892453D02*
Y894028D01*
X928914Y897178D02*
Y898752D01*
D14*
X889966Y954225D02*
G03*
X889966Y954225I-112J0D01*
G01*
X841319Y974386D02*
G03*
X841319Y974386I-787J0D01*
G01*
X825532Y972386D02*
X842532D01*
X825532Y983386D02*
X842532D01*
Y972386D02*
Y983386D01*
X825532Y972386D02*
Y983386D01*
X908933Y975032D02*
Y982512D01*
Y990780D02*
Y1014796D01*
X858933Y975032D02*
X902240D01*
X858933Y993536D02*
Y1014599D01*
Y975032D02*
Y979756D01*
X853323Y633693D02*
X856323D01*
X853421Y628772D02*
X856421D01*
X920303Y989008D02*
X923303D01*
X920402Y984087D02*
X923402D01*
M02*
