G04*
G04 #@! TF.GenerationSoftware,Altium Limited,Altium Designer,21.9.2 (33)*
G04*
G04 Layer_Color=6502151*
%FSLAX25Y25*%
%MOIN*%
G70*
G04*
G04 #@! TF.SameCoordinates,38B2C1F3-0FCD-4184-AA18-E5AB633A714F*
G04*
G04*
G04 #@! TF.FilePolarity,Positive*
G04*
G01*
G75*
%ADD11C,0.01181*%
%ADD12C,0.00394*%
%ADD163C,0.00197*%
%ADD164C,0.00098*%
%ADD165C,0.01000*%
D11*
X904511Y923260D02*
G03*
X904511Y923260I-696J0D01*
G01*
X846138Y793634D02*
G03*
X846138Y793634I-98J0D01*
G01*
X897162Y646784D02*
G03*
X897154Y646807I-39J0D01*
G01*
X848736Y684583D02*
G03*
X848736Y684583I-39J0D01*
G01*
D12*
X920579Y924146D02*
G03*
X920579Y924146I-197J0D01*
G01*
X888280Y954914D02*
G03*
X888280Y954914I-394J0D01*
G01*
X842319Y971886D02*
G03*
X842319Y971886I-787J0D01*
G01*
X913016Y948209D02*
G03*
X913016Y948209I-394J0D01*
G01*
X930045Y959867D02*
G03*
X930045Y959867I-197J0D01*
G01*
X868810Y964915D02*
G03*
X868810Y964915I-83J0D01*
G01*
X906079Y966339D02*
G03*
X906079Y966339I-197J0D01*
G01*
X851453Y999540D02*
G03*
X851453Y999540I-98J0D01*
G01*
X854504Y960170D02*
G03*
X854504Y960170I-394J0D01*
G01*
X930213Y787847D02*
G03*
X930213Y787847I-197J0D01*
G01*
Y805563D02*
G03*
X930213Y805563I-197J0D01*
G01*
X899536Y796142D02*
G03*
X899536Y796142I-394J0D01*
G01*
X904209Y718831D02*
G03*
X904209Y718831I-98J0D01*
G01*
X842004Y951902D02*
G03*
X842004Y951902I-98J0D01*
G01*
X837673Y942453D02*
G03*
X837673Y942453I-98J0D01*
G01*
X844760Y945209D02*
G03*
X844760Y945209I-98J0D01*
G01*
X829538Y947895D02*
G03*
X829538Y947895I-197J0D01*
G01*
X934398Y875768D02*
G03*
X934398Y875768I-516J0D01*
G01*
X904898Y955512D02*
G03*
X904898Y955512I-197J0D01*
G01*
X833998Y687601D02*
G03*
X833998Y687601I-197J0D01*
G01*
X918906Y700524D02*
G03*
X918906Y700524I-623J0D01*
G01*
X838240Y698949D02*
G03*
X838240Y698949I-502J0D01*
G01*
X941118Y638516D02*
G03*
X941118Y638516I-394J0D01*
G01*
X889347Y847768D02*
G03*
X889347Y847768I-394J0D01*
G01*
X931473Y900327D02*
G03*
X931473Y900327I-197J0D01*
G01*
X916611Y930544D02*
X920744D01*
X916611Y928378D02*
X920744D01*
Y930544D01*
X916611Y928378D02*
Y930544D01*
X916059Y923240D02*
X921296D01*
X916059Y927020D02*
X921296D01*
Y923240D02*
Y927020D01*
X916059Y923240D02*
Y927020D01*
X916611Y921882D02*
X920744D01*
X916611Y919717D02*
X920744D01*
Y921882D01*
X916611Y919717D02*
Y921882D01*
X922713Y925819D02*
Y929953D01*
X924878Y925819D02*
Y929953D01*
X922713D02*
X924878D01*
X922713Y925819D02*
X924878D01*
X835311Y636843D02*
Y640189D01*
X832752Y636843D02*
Y640189D01*
Y636843D02*
X835311D01*
X832752Y640189D02*
X835311D01*
X832752Y640863D02*
X835311D01*
X869563Y671882D02*
Y675229D01*
X867004Y671882D02*
Y675229D01*
Y671882D02*
X869563D01*
X867004Y675229D02*
X869563D01*
X867004Y675902D02*
X869563D01*
X929209Y972670D02*
X933343D01*
X929209Y970504D02*
X933343D01*
Y972670D01*
X929209Y970504D02*
Y972670D01*
Y969126D02*
X933343D01*
X929209Y966961D02*
X933343D01*
Y969126D01*
X929209Y966961D02*
Y969126D01*
X885917Y948221D02*
Y951370D01*
X881193Y948221D02*
X885917D01*
X881193D02*
Y951370D01*
X885917D01*
X878043Y943299D02*
Y956291D01*
Y943299D02*
X889067D01*
X878043Y956291D02*
X889067D01*
Y943299D02*
Y956291D01*
X884130Y959284D02*
Y963418D01*
X886296Y959284D02*
Y963418D01*
X884130D02*
X886296D01*
X884130Y959284D02*
X886296D01*
X878421Y958693D02*
X882555D01*
X878421Y960859D02*
X882555D01*
X878421Y958693D02*
Y960859D01*
X882555Y958693D02*
Y960859D01*
X887673Y960465D02*
X889839D01*
X887673Y964599D02*
X889839D01*
Y960465D02*
Y964599D01*
X887673Y960465D02*
Y964599D01*
X824386Y970209D02*
X843677D01*
X824386Y985563D02*
X843677D01*
Y970209D02*
Y985563D01*
X824386Y970209D02*
Y985563D01*
X871382Y969401D02*
Y972944D01*
X864689Y969401D02*
Y972944D01*
X871382D01*
X864689Y969401D02*
X871382D01*
X893937Y714008D02*
Y717355D01*
X886689D02*
X893185D01*
X886689Y714008D02*
X893185D01*
Y717355D01*
X886689Y714008D02*
Y717355D01*
X901059Y945111D02*
Y949244D01*
X903225Y945111D02*
Y949244D01*
X901059D02*
X903225D01*
X901059Y945111D02*
X903225D01*
X905980Y939992D02*
X910114D01*
X905980Y937827D02*
X910114D01*
Y939992D01*
X905980Y937827D02*
Y939992D01*
X913756Y941075D02*
Y949343D01*
X905488Y941075D02*
Y949343D01*
X913756D01*
X905488Y941075D02*
X913756D01*
X915626Y943142D02*
Y947276D01*
X917792Y943142D02*
Y947276D01*
X915626D02*
X917792D01*
X915626Y943142D02*
X917792D01*
X854111Y873555D02*
Y928674D01*
Y873555D02*
X909229D01*
X854111Y928674D02*
X909229D01*
Y873555D02*
Y928674D01*
X933855Y955425D02*
Y960583D01*
X929091Y955425D02*
Y960583D01*
Y955425D02*
X933855D01*
X929091Y960583D02*
X933855D01*
X907555Y976213D02*
Y1021488D01*
X860114D02*
X907555D01*
X860114Y976213D02*
Y1021488D01*
Y976213D02*
X907555D01*
X873106Y964796D02*
Y968929D01*
X875272Y964796D02*
Y968929D01*
X873106D02*
X875272D01*
X873106Y964796D02*
X875272D01*
X868106Y967827D02*
X871611D01*
X868106Y964323D02*
X871611D01*
Y967827D01*
X868106Y964323D02*
Y967827D01*
X867792Y962827D02*
X871925D01*
X867792Y960662D02*
X871925D01*
Y962827D01*
X867792Y960662D02*
Y962827D01*
X862969Y965091D02*
Y971784D01*
X859425Y965091D02*
Y971784D01*
Y965091D02*
X862969D01*
X859425Y971784D02*
X862969D01*
X859425Y959579D02*
Y966272D01*
X862969Y959579D02*
Y966272D01*
X859425D02*
X862969D01*
X859425Y959579D02*
X862969D01*
X890921Y961154D02*
Y967847D01*
X894465Y961154D02*
Y967847D01*
X890921D02*
X894465D01*
X890921Y961154D02*
X894465D01*
X899485Y959481D02*
X901650D01*
X899485Y955347D02*
X901650D01*
X899485D02*
Y959481D01*
X901650Y955347D02*
Y959481D01*
X858343Y951607D02*
X862477D01*
X858343Y953772D02*
X862477D01*
X858343Y951607D02*
Y953772D01*
X862477Y951607D02*
Y953772D01*
X903225Y966370D02*
Y970504D01*
X901059Y966370D02*
Y970504D01*
Y966370D02*
X903225D01*
X901059Y970504D02*
X903225D01*
X904209Y961055D02*
Y963221D01*
X900075Y961055D02*
Y963221D01*
X904209D01*
X900075Y961055D02*
X904209D01*
X912280Y965977D02*
Y970111D01*
X910114Y965977D02*
Y970111D01*
Y965977D02*
X912280D01*
X910114Y970111D02*
X912280D01*
X908343Y963614D02*
X912477D01*
X908343Y961449D02*
X912477D01*
Y963614D01*
X908343Y961449D02*
Y963614D01*
X904977Y965425D02*
Y970662D01*
X908756Y965425D02*
Y970662D01*
X904977Y965425D02*
X908756D01*
X904977Y970662D02*
X908756D01*
X885114Y966567D02*
X889248D01*
X885114Y968733D02*
X889248D01*
X885114Y966567D02*
Y968733D01*
X889248Y966567D02*
Y968733D01*
X872122Y938811D02*
Y942945D01*
X869957Y938811D02*
Y942945D01*
Y938811D02*
X872122D01*
X869957Y942945D02*
X872122D01*
X873894Y944126D02*
X876059D01*
X873894Y939992D02*
X876059D01*
X873894D02*
Y944126D01*
X876059Y939992D02*
Y944126D01*
X873894Y954953D02*
X876059D01*
X873894Y959087D02*
X876059D01*
Y954953D02*
Y959087D01*
X873894Y954953D02*
Y959087D01*
X916611Y915780D02*
X920744D01*
X916611Y917945D02*
X920744D01*
X916611Y915780D02*
Y917945D01*
X920744Y915780D02*
Y917945D01*
X850764Y998949D02*
Y1004067D01*
X854307Y998949D02*
Y1004067D01*
X850764Y998949D02*
X854307D01*
X850764Y1004067D02*
X854307D01*
X846827Y959185D02*
Y971390D01*
X855095Y959185D02*
Y971390D01*
X846827D02*
X855095D01*
X846827Y959185D02*
X855095D01*
X848205Y627689D02*
Y634776D01*
X861591Y627689D02*
Y634776D01*
X848205Y627689D02*
X861591D01*
X848205Y634776D02*
X861591D01*
X920252Y951902D02*
X926551D01*
X920252Y959776D02*
X926551D01*
Y951902D02*
Y959776D01*
X920252Y951902D02*
Y959776D01*
X831177Y806725D02*
X835311D01*
X831177Y808890D02*
X835311D01*
X831177Y806725D02*
Y808890D01*
X835311Y806725D02*
Y808890D01*
X932752Y812236D02*
Y814402D01*
X936886Y812236D02*
Y814402D01*
X932752Y812236D02*
X936886D01*
X932752Y814402D02*
X936886D01*
X901059Y714599D02*
Y716764D01*
X896925Y714599D02*
Y716764D01*
X901059D01*
X896925Y714599D02*
X901059D01*
X926847Y780150D02*
Y784284D01*
X924681Y780150D02*
Y784284D01*
Y780150D02*
X926847D01*
X924681Y784284D02*
X926847D01*
X915429Y787040D02*
Y789205D01*
X919563Y787040D02*
Y789205D01*
X915429Y787040D02*
X919563D01*
X915429Y789205D02*
X919563D01*
X921532Y787630D02*
X923697D01*
X921532Y791764D02*
X923697D01*
Y787630D02*
Y791764D01*
X921532Y787630D02*
Y791764D01*
X921898Y782009D02*
Y785553D01*
X916118Y785563D02*
X921236D01*
X916118Y782020D02*
X921236D01*
Y785563D01*
X916118Y782020D02*
Y785563D01*
X927634Y788024D02*
Y792158D01*
X925469Y788024D02*
Y792158D01*
Y788024D02*
X927634D01*
X925469Y792158D02*
X927634D01*
X926059Y794520D02*
X930193D01*
X926059Y796685D02*
X930193D01*
X926059Y794520D02*
Y796685D01*
X930193Y794520D02*
Y796685D01*
X929248Y793103D02*
X933303D01*
X929248Y787079D02*
X933303D01*
Y793103D01*
X929248Y787079D02*
Y793103D01*
X933343Y783103D02*
Y785268D01*
X929209Y783103D02*
Y785268D01*
X933343D01*
X929209Y783103D02*
X933343D01*
X932752Y796685D02*
X936886D01*
X932752Y794520D02*
X936886D01*
Y796685D01*
X932752Y794520D02*
Y796685D01*
X937477Y788418D02*
Y792552D01*
X935311Y788418D02*
Y792552D01*
Y788418D02*
X937477D01*
X935311Y792552D02*
X937477D01*
X916512Y800130D02*
Y803673D01*
X921630Y800130D02*
Y803673D01*
X916512Y800130D02*
X921630D01*
X916512Y803673D02*
X921630D01*
X922292Y800120D02*
Y803663D01*
X927240Y799048D02*
Y803181D01*
X925075Y799048D02*
Y803181D01*
Y799048D02*
X927240D01*
X925075Y803181D02*
X927240D01*
X933343Y800819D02*
Y802985D01*
X929209Y800819D02*
Y802985D01*
X933343D01*
X929209Y800819D02*
X933343D01*
X937477Y805741D02*
Y809874D01*
X935311Y805741D02*
Y809874D01*
Y805741D02*
X937477D01*
X935311Y809874D02*
X937477D01*
X921532Y805741D02*
X923697D01*
X921532Y809874D02*
X923697D01*
Y805741D02*
Y809874D01*
X921532Y805741D02*
Y809874D01*
X927634Y806134D02*
Y810268D01*
X925469Y806134D02*
Y810268D01*
Y806134D02*
X927634D01*
X925469Y810268D02*
X927634D01*
X915429Y805150D02*
Y807315D01*
X919563Y805150D02*
Y807315D01*
X915429Y805150D02*
X919563D01*
X915429Y807315D02*
X919563D01*
X925666Y812236D02*
X929799D01*
X925666Y814402D02*
X929799D01*
X925666Y812236D02*
Y814402D01*
X929799Y812236D02*
Y814402D01*
X929248Y810819D02*
X933303D01*
X929248Y804796D02*
X933303D01*
Y810819D01*
X929248Y804796D02*
Y810819D01*
X916217Y872473D02*
X920351D01*
X916217Y874638D02*
X920351D01*
X916217Y872473D02*
Y874638D01*
X920351Y872473D02*
Y874638D01*
X850469Y1008103D02*
X854603D01*
X850469Y1005937D02*
X854603D01*
Y1008103D01*
X850469Y1005937D02*
Y1008103D01*
X850469Y997079D02*
X854603D01*
X850469Y994914D02*
X854603D01*
Y997079D01*
X850469Y994914D02*
Y997079D01*
X846925Y994914D02*
X851059D01*
X846925Y997079D02*
X851059D01*
X846925Y994914D02*
Y997079D01*
X851059Y994914D02*
Y997079D01*
X840429Y708299D02*
X842595D01*
X840429Y704166D02*
X842595D01*
X840429D02*
Y708299D01*
X842595Y704166D02*
Y708299D01*
X866118Y605642D02*
X901158D01*
X866118D02*
Y632807D01*
X901158Y605642D02*
Y632807D01*
X866118D02*
X901158D01*
X880882Y644422D02*
Y650721D01*
X868284Y644422D02*
Y650721D01*
X880882D01*
X868284Y644422D02*
X880882D01*
X877929Y645307D02*
Y650032D01*
X915134Y983004D02*
X928520D01*
X915134Y990091D02*
X928520D01*
X915134Y983004D02*
Y990091D01*
X928520Y983004D02*
Y990091D01*
X925173Y974835D02*
Y980150D01*
X916906Y974835D02*
Y980150D01*
X925173D01*
X916906Y974835D02*
X925173D01*
X909918Y794323D02*
Y798457D01*
X907752Y794323D02*
Y798457D01*
Y794323D02*
X909918D01*
X907752Y798457D02*
X909918D01*
X898008Y797276D02*
X906276D01*
X898008Y789008D02*
X906276D01*
X898008D02*
Y797276D01*
X906276Y789008D02*
Y797276D01*
X901650Y801803D02*
X905784D01*
X901650Y799638D02*
X905784D01*
Y801803D01*
X901650Y799638D02*
Y801803D01*
X907752Y792158D02*
X909918D01*
X907752Y788024D02*
X909918D01*
X907752D02*
Y792158D01*
X909918Y788024D02*
Y792158D01*
X896433Y788713D02*
Y795406D01*
X892890Y788713D02*
Y795406D01*
Y788713D02*
X896433D01*
X892890Y795406D02*
X896433D01*
X847614Y812729D02*
Y816272D01*
X840921Y812729D02*
Y816272D01*
X847614D01*
X840921Y812729D02*
X847614D01*
X847614Y808004D02*
Y811548D01*
X840921Y808004D02*
Y811548D01*
X847614D01*
X840921Y808004D02*
X847614D01*
X938264Y649244D02*
X942398D01*
X938264Y651410D02*
X942398D01*
X938264Y649244D02*
Y651410D01*
X942398Y649244D02*
Y651410D01*
X929996Y653378D02*
X934130D01*
X929996Y651213D02*
X934130D01*
Y653378D01*
X929996Y651213D02*
Y653378D01*
X842004Y992158D02*
Y994323D01*
X837870Y992158D02*
Y994323D01*
X842004D01*
X837870Y992158D02*
X842004D01*
X847319Y986055D02*
Y990189D01*
X845154Y986055D02*
Y990189D01*
Y986055D02*
X847319D01*
X845154Y990189D02*
X847319D01*
X847350Y981087D02*
X851484D01*
X847350Y983252D02*
X851484D01*
X847350Y981087D02*
Y983252D01*
X851484Y981087D02*
Y983252D01*
X849878Y985268D02*
Y989402D01*
X852044Y985268D02*
Y989402D01*
X849878D02*
X852044D01*
X849878Y985268D02*
X852044D01*
Y988811D02*
Y992945D01*
X849878Y988811D02*
Y992945D01*
Y988811D02*
X852044D01*
X849878Y992945D02*
X852044D01*
X855784Y973260D02*
Y975426D01*
X851650Y973260D02*
Y975426D01*
X855784D01*
X851650Y973260D02*
X855784D01*
X831571Y887827D02*
X835705D01*
X831571Y889992D02*
X835705D01*
X831571Y887827D02*
Y889992D01*
X835705Y887827D02*
Y889992D01*
X839248Y887827D02*
Y889992D01*
X835114Y887827D02*
Y889992D01*
X839248D01*
X835114Y887827D02*
X839248D01*
Y896488D02*
Y898654D01*
X835114Y896488D02*
Y898654D01*
X839248D01*
X835114Y896488D02*
X839248D01*
Y892158D02*
Y894323D01*
X835114Y892158D02*
Y894323D01*
X839248D01*
X835114Y892158D02*
X839248D01*
X835705D02*
Y894323D01*
X831571Y892158D02*
Y894323D01*
X835705D01*
X831571Y892158D02*
X835705D01*
Y896488D02*
Y898654D01*
X831571Y896488D02*
Y898654D01*
X835705D01*
X831571Y896488D02*
X835705D01*
X855587Y935071D02*
X859721D01*
X855587Y937236D02*
X859721D01*
X855587Y935071D02*
Y937236D01*
X859721Y935071D02*
Y937236D01*
X858540Y936055D02*
Y940189D01*
X860705Y936055D02*
Y940189D01*
X858540D02*
X860705D01*
X858540Y936055D02*
X860705D01*
X898303Y862827D02*
Y866961D01*
X900469Y862827D02*
Y866961D01*
X898303D02*
X900469D01*
X898303Y862827D02*
X900469D01*
X865626Y935268D02*
Y939402D01*
X867792Y935268D02*
Y939402D01*
X865626D02*
X867792D01*
X865626Y935268D02*
X867792D01*
X926847Y650229D02*
X930980D01*
X926847Y648063D02*
X930980D01*
Y650229D01*
X926847Y648063D02*
Y650229D01*
Y644126D02*
Y646292D01*
X930980Y644126D02*
Y646292D01*
X926847Y644126D02*
X930980D01*
X926847Y646292D02*
X930980D01*
X848106Y879756D02*
Y883890D01*
X845941Y879756D02*
Y883890D01*
Y879756D02*
X848106D01*
X845941Y883890D02*
X848106D01*
X842201Y854166D02*
Y858300D01*
X840036Y854166D02*
Y858300D01*
Y854166D02*
X842201D01*
X840036Y858300D02*
X842201D01*
X832752Y852985D02*
Y856331D01*
X836886Y852985D02*
Y856331D01*
X831965Y852985D02*
Y856331D01*
X836886D01*
X831965Y852985D02*
X836886D01*
X908638Y715878D02*
Y719422D01*
X903520Y715878D02*
Y719422D01*
Y715878D02*
X908638D01*
X903520Y719422D02*
X908638D01*
X841315Y952492D02*
X846433D01*
X841315Y948949D02*
X846433D01*
X841315D02*
Y952492D01*
X846433Y948949D02*
Y952492D01*
X849485Y948260D02*
X851650D01*
X849485Y952394D02*
X851650D01*
Y948260D02*
Y952394D01*
X849485Y948260D02*
Y952394D01*
X841217Y955741D02*
X843382D01*
X841217Y959874D02*
X843382D01*
Y955741D02*
Y959874D01*
X841217Y955741D02*
Y959874D01*
X832731Y955150D02*
Y957315D01*
X836864Y955150D02*
Y957315D01*
X832731Y955150D02*
X836864D01*
X832731Y957315D02*
X836864D01*
X848106Y945504D02*
X850272D01*
X848106Y941370D02*
X850272D01*
X848106D02*
Y945504D01*
X850272Y941370D02*
Y945504D01*
X825862Y943142D02*
Y945307D01*
X829996Y943142D02*
Y945307D01*
X825862Y943142D02*
X829996D01*
X825862Y945307D02*
X829996D01*
X833047Y941862D02*
X838166D01*
X833047Y945406D02*
X838166D01*
Y941862D02*
Y945406D01*
X833047Y941862D02*
Y945406D01*
X845252Y940681D02*
Y945800D01*
X841709Y940681D02*
Y945800D01*
X845252D01*
X841709Y940681D02*
X845252D01*
X825862Y939599D02*
Y941764D01*
X829996Y939599D02*
Y941764D01*
X825862Y939599D02*
X829996D01*
X825862Y941764D02*
X829996D01*
X825764Y947178D02*
X830095D01*
X825764Y952689D02*
X830095D01*
Y947178D02*
Y952689D01*
X825764Y947178D02*
Y952689D01*
X863461Y850426D02*
X867595D01*
X863461Y852591D02*
X867595D01*
X863461Y850426D02*
Y852591D01*
X867595Y850426D02*
Y852591D01*
X863658Y840583D02*
Y842748D01*
X859524Y840583D02*
Y842748D01*
X863658D01*
X859524Y840583D02*
X863658D01*
X893382Y840189D02*
Y842355D01*
X897516Y840189D02*
Y842355D01*
X893382Y840189D02*
X897516D01*
X893382Y842355D02*
X897516D01*
X893382Y845504D02*
Y847670D01*
X897516Y845504D02*
Y847670D01*
X893382Y845504D02*
X897516D01*
X893382Y847670D02*
X897516D01*
X893579Y835662D02*
Y837827D01*
X897713Y835662D02*
Y837827D01*
X893579Y835662D02*
X897713D01*
X893579Y837827D02*
X897713D01*
X910311Y708890D02*
X914445D01*
X910311Y706725D02*
X914445D01*
Y708890D01*
X910311Y706725D02*
Y708890D01*
X908146Y706725D02*
Y708890D01*
X904012Y706725D02*
Y708890D01*
X908146D01*
X904012Y706725D02*
X908146D01*
X918185Y705937D02*
X920351D01*
X918185Y710071D02*
X920351D01*
Y705937D02*
Y710071D01*
X918185Y705937D02*
Y710071D01*
X915823Y720898D02*
Y723063D01*
X911689Y720898D02*
Y723063D01*
X915823D01*
X911689Y720898D02*
X915823D01*
X917988D02*
Y723063D01*
X922122Y720898D02*
Y723063D01*
X917988Y720898D02*
X922122D01*
X917988Y723063D02*
X922122D01*
X922122Y934087D02*
Y936252D01*
X917988Y934087D02*
Y936252D01*
X922122D01*
X917988Y934087D02*
X922122D01*
X919366Y941370D02*
X924288D01*
X919366Y938024D02*
X924288D01*
Y941370D01*
X919366Y938024D02*
Y941370D01*
X923500Y938024D02*
Y941370D01*
X932949Y940189D02*
X937083D01*
X932949Y938024D02*
X937083D01*
Y940189D01*
X932949Y938024D02*
Y940189D01*
X908736Y934678D02*
X912870D01*
X908736Y936843D02*
X912870D01*
X908736Y934678D02*
Y936843D01*
X912870Y934678D02*
Y936843D01*
X851256Y867552D02*
X855390D01*
X851256Y865386D02*
X855390D01*
Y867552D01*
X851256Y865386D02*
Y867552D01*
X902240Y862827D02*
Y866961D01*
X904406Y862827D02*
Y866961D01*
X902240D02*
X904406D01*
X902240Y862827D02*
X904406D01*
X856965D02*
Y866961D01*
X859130Y862827D02*
Y866961D01*
X856965D02*
X859130D01*
X856965Y862827D02*
X859130D01*
X843382Y925819D02*
X847516D01*
X843382Y923654D02*
X847516D01*
Y925819D01*
X843382Y923654D02*
Y925819D01*
X902437Y936843D02*
X906571D01*
X902437Y934678D02*
X906571D01*
Y936843D01*
X902437Y934678D02*
Y936843D01*
X922713Y874835D02*
X924878D01*
X922713Y870701D02*
X924878D01*
X922713D02*
Y874835D01*
X924878Y870701D02*
Y874835D01*
X931177Y878378D02*
X935311D01*
X931177Y880544D02*
X935311D01*
X931177Y878378D02*
Y880544D01*
X935311Y878378D02*
Y880544D01*
X924485D02*
X928618D01*
X924485Y878378D02*
X928618D01*
Y880544D01*
X924485Y878378D02*
Y880544D01*
X935016Y868634D02*
Y876902D01*
X926748Y868634D02*
Y876902D01*
X935016D01*
X926748Y868634D02*
X935016D01*
X918382Y883693D02*
X920547D01*
X918382Y887827D02*
X920547D01*
Y883693D02*
Y887827D01*
X918382Y883693D02*
Y887827D01*
X917398Y886055D02*
Y890189D01*
X915232Y886055D02*
Y890189D01*
Y886055D02*
X917398D01*
X915232Y890189D02*
X917398D01*
X862673Y862827D02*
Y866961D01*
X860508Y862827D02*
Y866961D01*
Y862827D02*
X862673D01*
X860508Y866961D02*
X862673D01*
X843382Y919717D02*
X847516D01*
X843382Y921882D02*
X847516D01*
X843382Y919717D02*
Y921882D01*
X847516Y919717D02*
Y921882D01*
X918973Y730150D02*
Y732315D01*
X914839Y730150D02*
Y732315D01*
X918973D01*
X914839Y730150D02*
X918973D01*
X918599Y725248D02*
Y728555D01*
X915213Y725248D02*
Y728555D01*
X918599D01*
X915213Y725248D02*
X918599D01*
X827240Y697866D02*
X829406D01*
X827240Y693733D02*
X829406D01*
X827240D02*
Y697866D01*
X829406Y693733D02*
Y697866D01*
X835902Y796685D02*
Y800819D01*
X833736Y796685D02*
Y800819D01*
Y796685D02*
X835902D01*
X833736Y800819D02*
X835902D01*
X830587Y780937D02*
X832752D01*
X830587Y785071D02*
X832752D01*
Y780937D02*
Y785071D01*
X830587Y780937D02*
Y785071D01*
X828028Y786646D02*
X832162D01*
X828028Y788811D02*
X832162D01*
X828028Y786646D02*
Y788811D01*
X832162Y786646D02*
Y788811D01*
X830587Y794520D02*
X832752D01*
X830587Y790386D02*
X832752D01*
X830587D02*
Y794520D01*
X832752Y790386D02*
Y794520D01*
X830587Y796685D02*
X832752D01*
X830587Y800819D02*
X832752D01*
Y796685D02*
Y800819D01*
X830587Y796685D02*
Y800819D01*
X847418Y800721D02*
Y804264D01*
X840725Y800721D02*
Y804264D01*
X847418D01*
X840725Y800721D02*
X847418D01*
Y796390D02*
Y799933D01*
X840725Y796390D02*
Y799933D01*
X847418D01*
X840725Y796390D02*
X847418D01*
X840528Y710366D02*
Y713910D01*
X847221Y710366D02*
Y713910D01*
X840528Y710366D02*
X847221D01*
X840528Y713910D02*
X847221D01*
X847418Y772178D02*
Y775721D01*
X840725Y772178D02*
Y775721D01*
X847418D01*
X840725Y772178D02*
X847418D01*
X850961Y783398D02*
X858835D01*
X850961Y794028D02*
X858835D01*
Y783398D02*
Y794028D01*
X850961Y783398D02*
Y794028D01*
X903796Y954599D02*
Y959835D01*
X907575Y954599D02*
Y959835D01*
X903796Y954599D02*
X907575D01*
X903796Y959835D02*
X907575D01*
X907162Y953378D02*
X911296D01*
X907162Y951213D02*
X911296D01*
Y953378D01*
X907162Y951213D02*
Y953378D01*
X864150Y953280D02*
X867693D01*
X864150Y946587D02*
X867693D01*
X864150D02*
Y953280D01*
X867693Y946587D02*
Y953280D01*
X911099Y955347D02*
Y959481D01*
X908933Y955347D02*
Y959481D01*
Y955347D02*
X911099D01*
X908933Y959481D02*
X911099D01*
X847418Y777296D02*
Y780839D01*
X840725Y777296D02*
Y780839D01*
X847418D01*
X840725Y777296D02*
X847418D01*
X922319Y904953D02*
Y909087D01*
X924485Y904953D02*
Y909087D01*
X922319D02*
X924485D01*
X922319Y904953D02*
X924485D01*
Y911252D02*
Y915386D01*
X922319Y911252D02*
Y915386D01*
Y911252D02*
X924485D01*
X922319Y915386D02*
X924485D01*
X929603Y953772D02*
X933736D01*
X929603Y951607D02*
X933736D01*
Y953772D01*
X929603Y951607D02*
Y953772D01*
X847221Y782611D02*
Y794815D01*
X835016Y782611D02*
Y794815D01*
X847221D01*
X835016Y782611D02*
X847221D01*
X833047Y688319D02*
X837378D01*
X833047Y682807D02*
X837378D01*
X833047D02*
Y688319D01*
X837378Y682807D02*
Y688319D01*
X940528Y913910D02*
Y918241D01*
X944465D01*
Y928083D01*
X940528D02*
X944465D01*
X940528D02*
Y932414D01*
X926748Y913910D02*
Y923162D01*
Y913910D02*
X940528D01*
X926748Y932414D02*
X940528D01*
X926748Y923162D02*
Y932414D01*
X829701Y660859D02*
X864740D01*
Y648063D02*
Y660859D01*
X829701Y648063D02*
Y660859D01*
Y648063D02*
X864740D01*
X903520Y685760D02*
X919662D01*
X903520Y701902D02*
X919662D01*
X903520Y685760D02*
Y701902D01*
X919662Y685760D02*
Y701902D01*
X831537Y707906D02*
Y710071D01*
X835671Y707906D02*
Y710071D01*
X831537Y707906D02*
X835671D01*
X831537Y710071D02*
X835671D01*
X851748Y619914D02*
Y625229D01*
X860016Y619914D02*
Y625229D01*
X851748Y619914D02*
X860016D01*
X851748Y625229D02*
X860016D01*
X900469Y642355D02*
Y644520D01*
X896335Y642355D02*
Y644520D01*
X900469D01*
X896335Y642355D02*
X900469D01*
X909918Y643929D02*
Y646095D01*
X905784Y643929D02*
Y646095D01*
X909918D01*
X905784Y643929D02*
X909918D01*
X908343Y652591D02*
X910508D01*
X908343Y648457D02*
X910508D01*
X908343D02*
Y652591D01*
X910508Y648457D02*
Y652591D01*
X908343Y658890D02*
X910508D01*
X908343Y654756D02*
X910508D01*
X908343D02*
Y658890D01*
X910508Y654756D02*
Y658890D01*
X889445D02*
X891611D01*
X889445Y654756D02*
X891611D01*
X889445D02*
Y658890D01*
X891611Y654756D02*
Y658890D01*
X892595Y651607D02*
Y655740D01*
X894760Y651607D02*
Y655740D01*
X892595D02*
X894760D01*
X892595Y651607D02*
X894760D01*
X905193Y648457D02*
Y652591D01*
X907358Y648457D02*
Y652591D01*
X905193D02*
X907358D01*
X905193Y648457D02*
X907358D01*
X905193Y654756D02*
Y658890D01*
X907358Y654756D02*
Y658890D01*
X905193D02*
X907358D01*
X905193Y654756D02*
X907358D01*
X899485Y659481D02*
X903618D01*
X899485Y657315D02*
X903618D01*
Y659481D01*
X899485Y657315D02*
Y659481D01*
X893185D02*
X897319D01*
X893185Y657315D02*
X897319D01*
Y659481D01*
X893185Y657315D02*
Y659481D01*
X883736Y644717D02*
Y646882D01*
X887870Y644717D02*
Y646882D01*
X883736Y644717D02*
X887870D01*
X883736Y646882D02*
X887870D01*
X883736Y647866D02*
Y650032D01*
X887870Y647866D02*
Y650032D01*
X883736Y647866D02*
X887870D01*
X883736Y650032D02*
X887870D01*
X892595Y645307D02*
Y649441D01*
X894760Y645307D02*
Y649441D01*
X892595D02*
X894760D01*
X892595Y645307D02*
X894760D01*
X889445Y648457D02*
Y652591D01*
X891611Y648457D02*
Y652591D01*
X889445D02*
X891611D01*
X889445Y648457D02*
X891611D01*
X896118Y656055D02*
X903835D01*
X896118Y645780D02*
X903835D01*
Y656055D01*
X896118Y645780D02*
Y656055D01*
X889445Y642158D02*
Y646292D01*
X891611Y642158D02*
Y646292D01*
X889445D02*
X891611D01*
X889445Y642158D02*
X891611D01*
X833506Y693733D02*
Y695898D01*
X837640Y693733D02*
Y695898D01*
X833506Y693733D02*
X837640D01*
X833506Y695898D02*
X837640D01*
X840395Y697473D02*
Y701607D01*
X842561Y697473D02*
Y701607D01*
X840395D02*
X842561D01*
X840395Y697473D02*
X842561D01*
X830750Y697866D02*
Y705937D01*
X838821Y697866D02*
Y705937D01*
X830750D02*
X838821D01*
X830750Y697866D02*
X838821D01*
X840036Y672379D02*
X844170D01*
X840036Y670213D02*
X844170D01*
Y672379D01*
X840036Y670213D02*
Y672379D01*
X850469Y670213D02*
Y672379D01*
X846335Y670213D02*
Y672379D01*
X850469D01*
X846335Y670213D02*
X850469D01*
X854209Y671985D02*
Y676119D01*
X852044Y671985D02*
Y676119D01*
Y671985D02*
X854209D01*
X852044Y676119D02*
X854209D01*
X841610Y688914D02*
X845744D01*
X841610Y686749D02*
X845744D01*
Y688914D01*
X841610Y686749D02*
Y688914D01*
X854209Y684583D02*
Y688717D01*
X852044Y684583D02*
Y688717D01*
Y684583D02*
X854209D01*
X852044Y688717D02*
X854209D01*
X852044Y678284D02*
X854209D01*
X852044Y682418D02*
X854209D01*
Y678284D02*
Y682418D01*
X852044Y678284D02*
Y682418D01*
X878421Y636646D02*
Y638811D01*
X882555Y636646D02*
Y638811D01*
X878421Y636646D02*
X882555D01*
X878421Y638811D02*
X882555D01*
X888855Y636646D02*
Y638811D01*
X884721Y636646D02*
Y638811D01*
X888855D01*
X884721Y636646D02*
X888855D01*
X872122Y638811D02*
X876256D01*
X872122Y636646D02*
X876256D01*
Y638811D01*
X872122Y636646D02*
Y638811D01*
X891020Y636646D02*
X895154D01*
X891020Y638811D02*
X895154D01*
X891020Y636646D02*
Y638811D01*
X895154Y636646D02*
Y638811D01*
X841512Y673461D02*
X849780D01*
X841512Y685666D02*
X849780D01*
X841512Y673461D02*
Y685666D01*
X849780Y673461D02*
Y685666D01*
X905685Y626508D02*
Y641469D01*
Y626508D02*
X922860D01*
X945449D01*
Y641469D01*
X905685D02*
X945449D01*
X890331Y829067D02*
Y849146D01*
X866315Y829067D02*
Y849146D01*
X890331D01*
X866315Y829067D02*
X890331D01*
X916315Y914107D02*
X921040D01*
Y906233D02*
Y914107D01*
X916315Y906233D02*
X921040D01*
X916315D02*
Y914107D01*
X928717Y901902D02*
X933835D01*
Y889303D02*
Y901902D01*
X928717Y889303D02*
X933835D01*
X928717D02*
Y901902D01*
X830102Y1056721D02*
Y1052785D01*
X832070D01*
X832726Y1053441D01*
Y1054097D01*
X832070Y1054753D01*
X830102D01*
X832070D01*
X832726Y1055409D01*
Y1056065D01*
X832070Y1056721D01*
X830102D01*
X836006D02*
X834694D01*
X834038Y1056065D01*
Y1053441D01*
X834694Y1052785D01*
X836006D01*
X836662Y1053441D01*
Y1056065D01*
X836006Y1056721D01*
X837974D02*
X840598D01*
X839286D01*
Y1052785D01*
X841910Y1056721D02*
X844533D01*
X843221D01*
Y1052785D01*
X847813Y1056721D02*
X846501D01*
X845845Y1056065D01*
Y1053441D01*
X846501Y1052785D01*
X847813D01*
X848469Y1053441D01*
Y1056065D01*
X847813Y1056721D01*
X849781Y1052785D02*
Y1056721D01*
X851093Y1055409D01*
X852405Y1056721D01*
Y1052785D01*
X857653D02*
Y1055409D01*
X858965Y1056721D01*
X860276Y1055409D01*
Y1052785D01*
Y1054753D01*
X857653D01*
X864212Y1056065D02*
X863556Y1056721D01*
X862244D01*
X861588Y1056065D01*
Y1055409D01*
X862244Y1054753D01*
X863556D01*
X864212Y1054097D01*
Y1053441D01*
X863556Y1052785D01*
X862244D01*
X861588Y1053441D01*
X868148Y1056065D02*
X867492Y1056721D01*
X866180D01*
X865524Y1056065D01*
Y1055409D01*
X866180Y1054753D01*
X867492D01*
X868148Y1054097D01*
Y1053441D01*
X867492Y1052785D01*
X866180D01*
X865524Y1053441D01*
X872084Y1056721D02*
X869460D01*
Y1052785D01*
X872084D01*
X869460Y1054753D02*
X870772D01*
X873396Y1052785D02*
Y1056721D01*
X874708Y1055409D01*
X876019Y1056721D01*
Y1052785D01*
X877331Y1056721D02*
Y1052785D01*
X879299D01*
X879955Y1053441D01*
Y1054097D01*
X879299Y1054753D01*
X877331D01*
X879299D01*
X879955Y1055409D01*
Y1056065D01*
X879299Y1056721D01*
X877331D01*
X881267D02*
Y1052785D01*
X883891D01*
X885203Y1056721D02*
Y1056065D01*
X886515Y1054753D01*
X887827Y1056065D01*
Y1056721D01*
X886515Y1054753D02*
Y1052785D01*
D163*
X917106Y794815D02*
G03*
X917106Y794815I-1578J0D01*
G01*
X861200Y638910D02*
G03*
X861200Y638910I-1578J0D01*
G01*
X834822Y735366D02*
G03*
X834822Y735366I-1578J0D01*
G01*
X880492Y936941D02*
G03*
X880492Y936941I-1578J0D01*
G01*
X909527Y663811D02*
G03*
X909527Y663811I-1578J0D01*
G01*
X922618Y944815D02*
G03*
X922618Y944815I-1578J0D01*
G01*
X891121Y860563D02*
G03*
X891121Y860563I-1578J0D01*
G01*
X930492Y710957D02*
G03*
X930492Y710957I-1578J0D01*
G01*
X930098Y718831D02*
G03*
X930098Y718831I-1578J0D01*
G01*
X919074Y868044D02*
G03*
X919074Y868044I-1578J0D01*
G01*
X939940Y817256D02*
G03*
X939940Y817256I-1578J0D01*
G01*
X899783Y801508D02*
G03*
X899783Y801508I-1578J0D01*
G01*
X940334Y799540D02*
G03*
X940334Y799540I-1578J0D01*
G01*
X902637Y638319D02*
G03*
X902637Y638319I-1578J0D01*
G01*
X886791Y652886D02*
G03*
X886791Y652886I-1578J0D01*
G01*
X880295Y864402D02*
G03*
X880295Y864402I-1578J0D01*
G01*
X858838Y674736D02*
G03*
X858838Y674736I-1578J0D01*
G01*
X869862Y682611D02*
G03*
X869862Y682611I-1578J0D01*
G01*
X844173Y883496D02*
G03*
X844173Y883496I-1578J0D01*
G01*
X850472Y854756D02*
G03*
X850472Y854756I-1578J0D01*
G01*
X867893Y943634D02*
G03*
X867893Y943634I-1578J0D01*
G01*
X899389Y968044D02*
G03*
X899389Y968044I-1578J0D01*
G01*
X888365Y936548D02*
G03*
X888365Y936548I-1578J0D01*
G01*
X900570Y936941D02*
G03*
X900570Y936941I-1578J0D01*
G01*
X874586Y666469D02*
G03*
X874586Y666469I-1578J0D01*
G01*
X847027Y929855D02*
G03*
X847027Y929855I-1578J0D01*
G01*
X847814Y873162D02*
G03*
X847814Y873162I-1578J0D01*
G01*
X897027Y865681D02*
G03*
X897027Y865681I-1578J0D01*
G01*
X869468Y864500D02*
G03*
X869468Y864500I-1578J0D01*
G01*
X897027Y860957D02*
G03*
X897027Y860957I-1578J0D01*
G01*
X857263Y940091D02*
G03*
X857263Y940091I-1578J0D01*
G01*
X846633Y908988D02*
G03*
X846633Y908988I-1578J0D01*
G01*
X846239Y902689D02*
G03*
X846239Y902689I-1578J0D01*
G01*
Y897965D02*
G03*
X846239Y897965I-1578J0D01*
G01*
Y888516D02*
G03*
X846239Y888516I-1578J0D01*
G01*
Y893241D02*
G03*
X846239Y893241I-1578J0D01*
G01*
X944271Y657020D02*
G03*
X944271Y657020I-1578J0D01*
G01*
X945452Y662925D02*
G03*
X945452Y662925I-1578J0D01*
G01*
X899389Y690485D02*
G03*
X899389Y690485I-1578J0D01*
G01*
X893877Y693240D02*
G03*
X893877Y693240I-1578J0D01*
G01*
X923011Y779067D02*
G03*
X923011Y779067I-1578J0D01*
G01*
X924192Y795209D02*
G03*
X924192Y795209I-1578J0D01*
G01*
X941515Y788910D02*
G03*
X941515Y788910I-1578J0D01*
G01*
X919468Y810563D02*
G03*
X919468Y810563I-1578J0D01*
G01*
X924192Y813319D02*
G03*
X924192Y813319I-1578J0D01*
G01*
X941515Y806472D02*
G03*
X941515Y806472I-1578J0D01*
G01*
X856476Y988910D02*
G03*
X856476Y988910I-1578J0D01*
G01*
X942696Y645996D02*
G03*
X942696Y645996I-1578J0D01*
G01*
X933641Y693240D02*
G03*
X933641Y693240I-1578J0D01*
G01*
X935610Y656233D02*
G03*
X935610Y656233I-1578J0D01*
G01*
X937972Y645996D02*
G03*
X937972Y645996I-1578J0D01*
G01*
X828129Y702296D02*
G03*
X828129Y702296I-1578J0D01*
G01*
X858838Y681429D02*
G03*
X858838Y681429I-1578J0D01*
G01*
X919074Y646390D02*
G03*
X919074Y646390I-1578J0D01*
G01*
X923405D02*
G03*
X923405Y646390I-1578J0D01*
G01*
X928129Y696013D02*
G03*
X928129Y696013I-1578J0D01*
G01*
X925767Y656233D02*
G03*
X925767Y656233I-1578J0D01*
G01*
X893877Y698752D02*
G03*
X893877Y698752I-1578J0D01*
G01*
X917106Y958988D02*
G03*
X917106Y958988I-1578J0D01*
G01*
X900570Y814894D02*
G03*
X900570Y814894I-1578J0D01*
G01*
X893877Y687729D02*
G03*
X893877Y687729I-1578J0D01*
G01*
X910413Y680248D02*
G03*
X910413Y680248I-1578J0D01*
G01*
X915925D02*
G03*
X915925Y680248I-1578J0D01*
G01*
X928129Y690517D02*
G03*
X928129Y690517I-1578J0D01*
G01*
X899389Y701508D02*
G03*
X899389Y701508I-1578J0D01*
G01*
X928129D02*
G03*
X928129Y701508I-1578J0D01*
G01*
X899389Y695996D02*
G03*
X899389Y695996I-1578J0D01*
G01*
X921436Y680248D02*
G03*
X921436Y680248I-1578J0D01*
G01*
X928129Y684973D02*
G03*
X928129Y684973I-1578J0D01*
G01*
X904901Y680248D02*
G03*
X904901Y680248I-1578J0D01*
G01*
X933641Y698752D02*
G03*
X933641Y698752I-1578J0D01*
G01*
Y687335D02*
G03*
X933641Y687335I-1578J0D01*
G01*
X930492Y656233D02*
G03*
X930492Y656233I-1578J0D01*
G01*
X899389Y684973D02*
G03*
X899389Y684973I-1578J0D01*
G01*
X921043Y656233D02*
G03*
X921043Y656233I-1578J0D01*
G01*
X829310Y956233D02*
G03*
X829310Y956233I-1578J0D01*
G01*
X903720Y941272D02*
G03*
X903720Y941272I-1578J0D01*
G01*
X915531Y718044D02*
G03*
X915531Y718044I-1578J0D01*
G01*
X920452D02*
G03*
X920452Y718044I-1578J0D01*
G01*
X930885Y939500D02*
G03*
X930885Y939500I-1578J0D01*
G01*
X895058Y939697D02*
G03*
X895058Y939697I-1578J0D01*
G01*
X921436Y879067D02*
G03*
X921436Y879067I-1578J0D01*
G01*
X836987Y671390D02*
G03*
X836987Y671390I-1578J0D01*
G01*
X843090Y693831D02*
G03*
X843090Y693831I-1578J0D01*
G01*
D164*
X885819Y955110D02*
X885918Y955209D01*
X886114D01*
X886213Y955110D01*
Y955012D01*
X886114Y954913D01*
X885918D01*
X885819Y954815D01*
Y954717D01*
X885918Y954618D01*
X886114D01*
X886213Y954717D01*
X885623Y954618D02*
Y955209D01*
X885426Y955012D01*
X885229Y955209D01*
Y954618D01*
X885032Y955209D02*
X884639D01*
X884835D01*
Y954618D01*
X883851Y955209D02*
X883458D01*
X883655D01*
Y954618D01*
X883261D02*
Y955012D01*
X883064Y955209D01*
X882868Y955012D01*
Y954618D01*
Y954913D01*
X883261D01*
X882671Y955209D02*
Y954618D01*
X882376D01*
X882277Y954717D01*
Y954815D01*
X882376Y954913D01*
X882671D01*
X882376D01*
X882277Y955012D01*
Y955110D01*
X882376Y955209D01*
X882671D01*
X882080Y955012D02*
X881982D01*
Y954913D01*
X882080D01*
Y955012D01*
Y954717D02*
X881982D01*
Y954618D01*
X882080D01*
Y954717D01*
X880998Y954913D02*
X880604D01*
X880408Y954618D02*
X880112Y954913D01*
X880408Y955209D01*
X892821Y714448D02*
X892722Y714349D01*
X892525D01*
X892427Y714448D01*
Y714841D01*
X892525Y714940D01*
X892722D01*
X892821Y714841D01*
X887054Y714950D02*
Y714557D01*
X887251Y714360D01*
X887448Y714557D01*
Y714950D01*
Y714655D01*
X887054D01*
D165*
X928914Y915681D02*
G03*
X928914Y915681I-394J0D01*
G01*
M02*
