G04*
G04 #@! TF.GenerationSoftware,Altium Limited,Altium Designer,21.9.2 (33)*
G04*
G04 Layer_Color=39423*
%FSLAX25Y25*%
%MOIN*%
G70*
G04*
G04 #@! TF.SameCoordinates,38B2C1F3-0FCD-4184-AA18-E5AB633A714F*
G04*
G04*
G04 #@! TF.FilePolarity,Positive*
G04*
G01*
G75*
%ADD12C,0.00394*%
%ADD163C,0.00197*%
%ADD164C,0.00098*%
%ADD166C,0.00158*%
%ADD167C,0.00118*%
D12*
X882982Y908397D02*
X881670D01*
X882326D01*
Y905118D01*
X881670Y904462D01*
X881014D01*
X880358Y905118D01*
X886918Y904462D02*
X884294D01*
X886918Y907085D01*
Y907741D01*
X886262Y908397D01*
X884950D01*
X884294Y907741D01*
X874190Y998752D02*
Y996784D01*
X874583Y996391D01*
X875371D01*
X875764Y996784D01*
Y998752D01*
X876551D02*
X878126D01*
Y998358D01*
X876551Y996784D01*
Y996391D01*
X893875Y998752D02*
Y996784D01*
X894268Y996391D01*
X895056D01*
X895449Y996784D01*
Y998752D01*
X897811D02*
X897023Y998358D01*
X896236Y997571D01*
Y996784D01*
X896630Y996391D01*
X897417D01*
X897811Y996784D01*
Y997178D01*
X897417Y997571D01*
X896236D01*
D163*
X910181Y620996D02*
X908869D01*
Y620012D01*
X909525D01*
X908869D01*
Y619028D01*
X910837Y620996D02*
X911493D01*
X911164D01*
Y619028D01*
X910837D01*
X911493D01*
X912476Y620996D02*
Y619028D01*
X913460D01*
X913788Y619356D01*
Y620668D01*
X913460Y620996D01*
X912476D01*
X914444Y619028D02*
X915100D01*
X914772D01*
Y620996D01*
X914444Y620668D01*
X836133Y638326D02*
X835608Y638851D01*
X834558D01*
X834033Y638326D01*
Y637801D01*
X834558Y637277D01*
X835608D01*
X836133Y636752D01*
Y636227D01*
X835608Y635702D01*
X834558D01*
X834033Y636227D01*
X837182Y638851D02*
Y635702D01*
X838232Y636752D01*
X839281Y635702D01*
Y638851D01*
X840331Y635702D02*
X841380D01*
X840856D01*
Y638851D01*
X840331Y638326D01*
X842955D02*
X843479Y638851D01*
X844529D01*
X845054Y638326D01*
Y637801D01*
X844529Y637277D01*
X844004D01*
X844529D01*
X845054Y636752D01*
Y636227D01*
X844529Y635702D01*
X843479D01*
X842955Y636227D01*
X833048Y790220D02*
X832523Y790745D01*
X831474D01*
X830949Y790220D01*
Y789696D01*
X831474Y789171D01*
X832523D01*
X833048Y788646D01*
Y788122D01*
X832523Y787597D01*
X831474D01*
X830949Y788122D01*
X834097Y790745D02*
Y787597D01*
X835147Y788646D01*
X836197Y787597D01*
Y790745D01*
X837246Y787597D02*
X838296D01*
X837771D01*
Y790745D01*
X837246Y790220D01*
X929243D02*
X928718Y790745D01*
X927668D01*
X927144Y790220D01*
Y789696D01*
X927668Y789171D01*
X928718D01*
X929243Y788646D01*
Y788122D01*
X928718Y787597D01*
X927668D01*
X927144Y788122D01*
X930292Y790745D02*
Y787597D01*
X931342Y788646D01*
X932391Y787597D01*
Y790745D01*
X933441Y787597D02*
X934490D01*
X933966D01*
Y790745D01*
X933441Y790220D01*
X938164Y790745D02*
X936065D01*
Y789171D01*
X937114Y789696D01*
X937639D01*
X938164Y789171D01*
Y788122D01*
X937639Y787597D01*
X936590D01*
X936065Y788122D01*
X906703Y1008004D02*
X905391D01*
Y1007020D01*
X906047D01*
X905391D01*
Y1006036D01*
X907359Y1008004D02*
X908015D01*
X907687D01*
Y1006036D01*
X907359D01*
X908015D01*
X908999Y1008004D02*
Y1006036D01*
X909983D01*
X910311Y1006364D01*
Y1007676D01*
X909983Y1008004D01*
X908999D01*
X910967Y1007676D02*
X911295Y1008004D01*
X911951D01*
X912279Y1007676D01*
Y1007348D01*
X911951Y1007020D01*
X911623D01*
X911951D01*
X912279Y1006692D01*
Y1006364D01*
X911951Y1006036D01*
X911295D01*
X910967Y1006364D01*
X835837Y838713D02*
X834525D01*
Y837729D01*
X835181D01*
X834525D01*
Y836745D01*
X836493Y838713D02*
X837149D01*
X836821D01*
Y836745D01*
X836493D01*
X837149D01*
X838133Y838713D02*
Y836745D01*
X839117D01*
X839445Y837073D01*
Y838385D01*
X839117Y838713D01*
X838133D01*
X841413Y836745D02*
X840101D01*
X841413Y838057D01*
Y838385D01*
X841084Y838713D01*
X840429D01*
X840101Y838385D01*
X924321Y703719D02*
X923797Y704244D01*
X922747D01*
X922223Y703719D01*
Y703194D01*
X922747Y702670D01*
X923797D01*
X924321Y702145D01*
Y701620D01*
X923797Y701095D01*
X922747D01*
X922223Y701620D01*
X925371Y704244D02*
Y701095D01*
X926421Y702145D01*
X927470Y701095D01*
Y704244D01*
X928520Y701095D02*
X929569D01*
X929044D01*
Y704244D01*
X928520Y703719D01*
X931143D02*
X931668Y704244D01*
X932718D01*
X933243Y703719D01*
Y703194D01*
X932718Y702670D01*
X933243Y702145D01*
Y701620D01*
X932718Y701095D01*
X931668D01*
X931143Y701620D01*
Y702145D01*
X931668Y702670D01*
X931143Y703194D01*
Y703719D01*
X931668Y702670D02*
X932718D01*
X857523Y786925D02*
X856999Y787450D01*
X855949D01*
X855424Y786925D01*
Y786401D01*
X855949Y785876D01*
X856999D01*
X857523Y785351D01*
Y784826D01*
X856999Y784302D01*
X855949D01*
X855424Y784826D01*
X858573Y787450D02*
Y784302D01*
X859622Y785351D01*
X860672Y784302D01*
Y787450D01*
X863820Y784302D02*
X861721D01*
X863820Y786401D01*
Y786925D01*
X863296Y787450D01*
X862246D01*
X861721Y786925D01*
X905555D02*
X905030Y787450D01*
X903980D01*
X903456Y786925D01*
Y786401D01*
X903980Y785876D01*
X905030D01*
X905555Y785351D01*
Y784826D01*
X905030Y784302D01*
X903980D01*
X903456Y784826D01*
X906604Y787450D02*
Y784302D01*
X907654Y785351D01*
X908703Y784302D01*
Y787450D01*
X909753Y786925D02*
X910278Y787450D01*
X911327D01*
X911852Y786925D01*
Y786401D01*
X911327Y785876D01*
X910802D01*
X911327D01*
X911852Y785351D01*
Y784826D01*
X911327Y784302D01*
X910278D01*
X909753Y784826D01*
X881539Y807701D02*
X881014Y808226D01*
X879965D01*
X879440Y807701D01*
Y807176D01*
X879965Y806651D01*
X881014D01*
X881539Y806127D01*
Y805602D01*
X881014Y805077D01*
X879965D01*
X879440Y805602D01*
X882588Y808226D02*
Y805077D01*
X883638Y806127D01*
X884688Y805077D01*
Y808226D01*
X887311Y805077D02*
Y808226D01*
X885737Y806651D01*
X887836D01*
X881539Y758614D02*
X881014Y759138D01*
X879965D01*
X879440Y758614D01*
Y758089D01*
X879965Y757564D01*
X881014D01*
X881539Y757039D01*
Y756515D01*
X881014Y755990D01*
X879965D01*
X879440Y756515D01*
X882588Y759138D02*
Y755990D01*
X883638Y757039D01*
X884688Y755990D01*
Y759138D01*
X887836D02*
X885737D01*
Y757564D01*
X886787Y758089D01*
X887311D01*
X887836Y757564D01*
Y756515D01*
X887311Y755990D01*
X886262D01*
X885737Y756515D01*
X837444Y736416D02*
X836920Y736940D01*
X835870D01*
X835345Y736416D01*
Y735891D01*
X835870Y735366D01*
X836920D01*
X837444Y734841D01*
Y734317D01*
X836920Y733792D01*
X835870D01*
X835345Y734317D01*
X838494Y736940D02*
Y733792D01*
X839544Y734841D01*
X840593Y733792D01*
Y736940D01*
X843742D02*
X842692Y736416D01*
X841643Y735366D01*
Y734317D01*
X842167Y733792D01*
X843217D01*
X843742Y734317D01*
Y734841D01*
X843217Y735366D01*
X841643D01*
X881539Y730061D02*
X881014Y730586D01*
X879965D01*
X879440Y730061D01*
Y729537D01*
X879965Y729012D01*
X881014D01*
X881539Y728487D01*
Y727962D01*
X881014Y727438D01*
X879965D01*
X879440Y727962D01*
X882588Y730586D02*
Y727438D01*
X883638Y728487D01*
X884688Y727438D01*
Y730586D01*
X885737Y727962D02*
X886262Y727438D01*
X887311D01*
X887836Y727962D01*
Y730061D01*
X887311Y730586D01*
X886262D01*
X885737Y730061D01*
Y729537D01*
X886262Y729012D01*
X887836D01*
X881539Y697365D02*
X881014Y697890D01*
X879965D01*
X879440Y697365D01*
Y696840D01*
X879965Y696315D01*
X881014D01*
X881539Y695791D01*
Y695266D01*
X881014Y694741D01*
X879965D01*
X879440Y695266D01*
X882588Y697890D02*
Y694741D01*
X883638Y695791D01*
X884688Y694741D01*
Y697890D01*
X885737Y697365D02*
X886262Y697890D01*
X887311D01*
X887836Y697365D01*
Y696840D01*
X887311Y696315D01*
X887836Y695791D01*
Y695266D01*
X887311Y694741D01*
X886262D01*
X885737Y695266D01*
Y695791D01*
X886262Y696315D01*
X885737Y696840D01*
Y697365D01*
X886262Y696315D02*
X887311D01*
X837444Y671023D02*
X836920Y671547D01*
X835870D01*
X835345Y671023D01*
Y670498D01*
X835870Y669973D01*
X836920D01*
X837444Y669448D01*
Y668924D01*
X836920Y668399D01*
X835870D01*
X835345Y668924D01*
X838494Y671547D02*
Y668399D01*
X839544Y669448D01*
X840593Y668399D01*
Y671547D01*
X841643D02*
X843742D01*
Y671023D01*
X841643Y668924D01*
Y668399D01*
X924321Y736416D02*
X923797Y736940D01*
X922747D01*
X922223Y736416D01*
Y735891D01*
X922747Y735366D01*
X923797D01*
X924321Y734841D01*
Y734317D01*
X923797Y733792D01*
X922747D01*
X922223Y734317D01*
X925371Y736940D02*
Y733792D01*
X926421Y734841D01*
X927470Y733792D01*
Y736940D01*
X928520Y733792D02*
X929569D01*
X929044D01*
Y736940D01*
X928520Y736416D01*
X933243Y733792D02*
X931143D01*
X933243Y735891D01*
Y736416D01*
X932718Y736940D01*
X931668D01*
X931143Y736416D01*
X836657Y703719D02*
X836133Y704244D01*
X835083D01*
X834558Y703719D01*
Y703194D01*
X835083Y702670D01*
X836133D01*
X836657Y702145D01*
Y701620D01*
X836133Y701095D01*
X835083D01*
X834558Y701620D01*
X837707Y704244D02*
Y701095D01*
X838756Y702145D01*
X839806Y701095D01*
Y704244D01*
X840855Y701095D02*
X841905D01*
X841380D01*
Y704244D01*
X840855Y703719D01*
X843479Y701095D02*
X844529D01*
X844004D01*
Y704244D01*
X843479Y703719D01*
X924321Y638326D02*
X923797Y638851D01*
X922747D01*
X922223Y638326D01*
Y637801D01*
X922747Y637277D01*
X923797D01*
X924321Y636752D01*
Y636227D01*
X923797Y635702D01*
X922747D01*
X922223Y636227D01*
X925371Y638851D02*
Y635702D01*
X926421Y636752D01*
X927470Y635702D01*
Y638851D01*
X928520Y635702D02*
X929569D01*
X929044D01*
Y638851D01*
X928520Y638326D01*
X931143D02*
X931668Y638851D01*
X932718D01*
X933243Y638326D01*
Y636227D01*
X932718Y635702D01*
X931668D01*
X931143Y636227D01*
Y638326D01*
X924321Y671023D02*
X923797Y671547D01*
X922747D01*
X922223Y671023D01*
Y670498D01*
X922747Y669973D01*
X923797D01*
X924321Y669448D01*
Y668924D01*
X923797Y668399D01*
X922747D01*
X922223Y668924D01*
X925371Y671547D02*
Y668399D01*
X926421Y669448D01*
X927470Y668399D01*
Y671547D01*
X928520Y668399D02*
X929569D01*
X929044D01*
Y671547D01*
X928520Y671023D01*
X932718Y668399D02*
Y671547D01*
X931143Y669973D01*
X933243D01*
X880227Y664669D02*
X879702Y665193D01*
X878653D01*
X878128Y664669D01*
Y664144D01*
X878653Y663619D01*
X879702D01*
X880227Y663094D01*
Y662570D01*
X879702Y662045D01*
X878653D01*
X878128Y662570D01*
X881277Y665193D02*
Y662045D01*
X882326Y663094D01*
X883376Y662045D01*
Y665193D01*
X884425Y662045D02*
X885475D01*
X884950D01*
Y665193D01*
X884425Y664669D01*
X887049Y665193D02*
X889148D01*
Y664669D01*
X887049Y662570D01*
Y662045D01*
X880227Y631972D02*
X879702Y632497D01*
X878653D01*
X878128Y631972D01*
Y631447D01*
X878653Y630923D01*
X879702D01*
X880227Y630398D01*
Y629873D01*
X879702Y629348D01*
X878653D01*
X878128Y629873D01*
X881277Y632497D02*
Y629348D01*
X882326Y630398D01*
X883376Y629348D01*
Y632497D01*
X884425Y629348D02*
X885475D01*
X884950D01*
Y632497D01*
X884425Y631972D01*
X889148Y632497D02*
X888099Y631972D01*
X887049Y630923D01*
Y629873D01*
X887574Y629348D01*
X888623D01*
X889148Y629873D01*
Y630398D01*
X888623Y630923D01*
X887049D01*
D164*
X915790Y918437D02*
X915265D01*
X915527D01*
Y919225D01*
X915003D02*
Y918437D01*
X914609D01*
X914478Y918569D01*
Y918831D01*
X914609Y918962D01*
X915003D01*
X914215Y918569D02*
X914084Y918437D01*
X913822D01*
X913691Y918569D01*
Y918700D01*
X913822Y918831D01*
X913691Y918962D01*
Y919093D01*
X913822Y919225D01*
X914084D01*
X914215Y919093D01*
Y918962D01*
X914084Y918831D01*
X914215Y918700D01*
Y918569D01*
X914084Y918831D02*
X913822D01*
X912904Y918437D02*
X913428D01*
Y918831D01*
X913166Y918700D01*
X913035D01*
X912904Y918831D01*
Y919093D01*
X913035Y919225D01*
X913297D01*
X913428Y919093D01*
D166*
X886952Y1016961D02*
Y1015977D01*
X887608D01*
X888592Y1016961D02*
X887936D01*
Y1015977D01*
X888592D01*
X887936Y1016469D02*
X888264D01*
X888920Y1016961D02*
Y1015977D01*
X889412D01*
X889576Y1016141D01*
Y1016797D01*
X889412Y1016961D01*
X888920D01*
X890560Y1015977D02*
X889904D01*
X890560Y1016633D01*
Y1016797D01*
X890396Y1016961D01*
X890068D01*
X889904Y1016797D01*
X876880Y1016961D02*
Y1015977D01*
X877536D01*
X878520Y1016961D02*
X877864D01*
Y1015977D01*
X878520D01*
X877864Y1016469D02*
X878192D01*
X878848Y1016961D02*
Y1015977D01*
X879340D01*
X879504Y1016141D01*
Y1016797D01*
X879340Y1016961D01*
X878848D01*
X879832Y1015977D02*
X880160D01*
X879996D01*
Y1016961D01*
X879832Y1016797D01*
X876306Y1021292D02*
Y1020308D01*
X876962D01*
X877946Y1021292D02*
X877290D01*
Y1020308D01*
X877946D01*
X877290Y1020800D02*
X877618D01*
X878274Y1021292D02*
Y1020308D01*
X878766D01*
X878930Y1020472D01*
Y1021128D01*
X878766Y1021292D01*
X878274D01*
X879258Y1020308D02*
X879586D01*
X879422D01*
Y1021292D01*
X879258Y1021128D01*
X880078D02*
X880242Y1021292D01*
X880570D01*
X880734Y1021128D01*
Y1020472D01*
X880570Y1020308D01*
X880242D01*
X880078Y1020472D01*
Y1021128D01*
X886952Y1021292D02*
Y1020308D01*
X887608D01*
X888592Y1021292D02*
X887936D01*
Y1020308D01*
X888592D01*
X887936Y1020800D02*
X888264D01*
X888920Y1021292D02*
Y1020308D01*
X889412D01*
X889576Y1020472D01*
Y1021128D01*
X889412Y1021292D01*
X888920D01*
X889904Y1020472D02*
X890068Y1020308D01*
X890396D01*
X890560Y1020472D01*
Y1021128D01*
X890396Y1021292D01*
X890068D01*
X889904Y1021128D01*
Y1020963D01*
X890068Y1020800D01*
X890560D01*
D167*
X903586Y917125D02*
X903454Y917256D01*
X903192D01*
X903061Y917125D01*
Y916600D01*
X903192Y916469D01*
X903454D01*
X903586Y916600D01*
X903848Y917125D02*
X903979Y917256D01*
X904242D01*
X904373Y917125D01*
Y916994D01*
X904242Y916862D01*
X904111D01*
X904242D01*
X904373Y916731D01*
Y916600D01*
X904242Y916469D01*
X903979D01*
X903848Y916600D01*
X904635Y917256D02*
X905160D01*
Y917125D01*
X904635Y916600D01*
Y916469D01*
X889543Y929593D02*
X888756D01*
Y929986D01*
X888887Y930117D01*
X889150D01*
X889281Y929986D01*
Y929593D01*
Y929855D02*
X889543Y930117D01*
X888756Y930904D02*
Y930380D01*
X889150D01*
X889019Y930642D01*
Y930773D01*
X889150Y930904D01*
X889412D01*
X889543Y930773D01*
Y930511D01*
X889412Y930380D01*
X888756Y931692D02*
Y931167D01*
X889150D01*
X889019Y931429D01*
Y931560D01*
X889150Y931692D01*
X889412D01*
X889543Y931560D01*
Y931298D01*
X889412Y931167D01*
X904242Y984907D02*
X904111Y984776D01*
Y984514D01*
X904242Y984383D01*
X904766D01*
X904898Y984514D01*
Y984776D01*
X904766Y984907D01*
X904898Y985170D02*
Y985432D01*
Y985301D01*
X904111D01*
X904242Y985170D01*
Y985826D02*
X904111Y985957D01*
Y986219D01*
X904242Y986350D01*
X904373D01*
X904504Y986219D01*
X904635Y986350D01*
X904766D01*
X904898Y986219D01*
Y985957D01*
X904766Y985826D01*
X904635D01*
X904504Y985957D01*
X904373Y985826D01*
X904242D01*
X904504Y985957D02*
Y986219D01*
X886788Y1009514D02*
X886000D01*
Y1009907D01*
X886132Y1010038D01*
X886394D01*
X886525Y1009907D01*
Y1009514D01*
Y1009776D02*
X886788Y1010038D01*
Y1010826D02*
Y1010301D01*
X886263Y1010826D01*
X886132D01*
X886000Y1010695D01*
Y1010432D01*
X886132Y1010301D01*
X886000Y1011613D02*
Y1011088D01*
X886394D01*
X886263Y1011351D01*
Y1011482D01*
X886394Y1011613D01*
X886656D01*
X886788Y1011482D01*
Y1011219D01*
X886656Y1011088D01*
X892628Y1009251D02*
X892496Y1009382D01*
X892234D01*
X892103Y1009251D01*
Y1008726D01*
X892234Y1008595D01*
X892496D01*
X892628Y1008726D01*
X892890Y1008595D02*
X893152D01*
X893021D01*
Y1009382D01*
X892890Y1009251D01*
X894071Y1009382D02*
X893808Y1009251D01*
X893546Y1008988D01*
Y1008726D01*
X893677Y1008595D01*
X893940D01*
X894071Y1008726D01*
Y1008857D01*
X893940Y1008988D01*
X893546D01*
X892628Y1012401D02*
X892496Y1012532D01*
X892234D01*
X892103Y1012401D01*
Y1011876D01*
X892234Y1011744D01*
X892496D01*
X892628Y1011876D01*
X892890Y1011744D02*
X893152D01*
X893021D01*
Y1012532D01*
X892890Y1012401D01*
X894071Y1012532D02*
X893546D01*
Y1012138D01*
X893808Y1012269D01*
X893940D01*
X894071Y1012138D01*
Y1011876D01*
X893940Y1011744D01*
X893677D01*
X893546Y1011876D01*
X893874Y929986D02*
X893087D01*
Y930380D01*
X893218Y930511D01*
X893481D01*
X893612Y930380D01*
Y929986D01*
Y930249D02*
X893874Y930511D01*
Y931167D02*
X893087D01*
X893481Y930773D01*
Y931298D01*
X898598Y984383D02*
X897811D01*
Y984776D01*
X897943Y984907D01*
X898205D01*
X898336Y984776D01*
Y984383D01*
Y984645D02*
X898598Y984907D01*
Y985170D02*
Y985432D01*
Y985301D01*
X897811D01*
X897943Y985170D01*
Y985826D02*
X897811Y985957D01*
Y986219D01*
X897943Y986350D01*
X898074D01*
X898205Y986219D01*
X898336Y986350D01*
X898467D01*
X898598Y986219D01*
Y985957D01*
X898467Y985826D01*
X898336D01*
X898205Y985957D01*
X898074Y985826D01*
X897943D01*
X898205Y985957D02*
Y986219D01*
X893874Y984383D02*
X893087D01*
Y984776D01*
X893218Y984907D01*
X893481D01*
X893612Y984776D01*
Y984383D01*
Y984645D02*
X893874Y984907D01*
Y985170D02*
Y985432D01*
Y985301D01*
X893087D01*
X893218Y985170D01*
X893743Y985826D02*
X893874Y985957D01*
Y986219D01*
X893743Y986350D01*
X893218D01*
X893087Y986219D01*
Y985957D01*
X893218Y985826D01*
X893349D01*
X893481Y985957D01*
Y986350D01*
X880226Y986548D02*
Y987335D01*
X880620D01*
X880751Y987204D01*
Y986941D01*
X880620Y986810D01*
X880226D01*
X880489D02*
X880751Y986548D01*
X881538D02*
X881013D01*
X881538Y987072D01*
Y987204D01*
X881407Y987335D01*
X881145D01*
X881013Y987204D01*
X881801D02*
X881932Y987335D01*
X882194D01*
X882325Y987204D01*
Y986679D01*
X882194Y986548D01*
X881932D01*
X881801Y986679D01*
Y987204D01*
X901748Y984317D02*
X900961D01*
Y984711D01*
X901092Y984842D01*
X901355D01*
X901486Y984711D01*
Y984317D01*
Y984579D02*
X901748Y984842D01*
Y985629D02*
Y985104D01*
X901223Y985629D01*
X901092D01*
X900961Y985498D01*
Y985235D01*
X901092Y985104D01*
X901748Y986416D02*
Y985891D01*
X901223Y986416D01*
X901092D01*
X900961Y986285D01*
Y986022D01*
X901092Y985891D01*
X890724Y984448D02*
X889937D01*
Y984842D01*
X890069Y984973D01*
X890331D01*
X890462Y984842D01*
Y984448D01*
Y984711D02*
X890724Y984973D01*
Y985760D02*
Y985235D01*
X890200Y985760D01*
X890069D01*
X889937Y985629D01*
Y985367D01*
X890069Y985235D01*
X890724Y986022D02*
Y986285D01*
Y986154D01*
X889937D01*
X890069Y986022D01*
X874583Y984383D02*
X873796D01*
Y984776D01*
X873927Y984907D01*
X874189D01*
X874320Y984776D01*
Y984383D01*
Y984645D02*
X874583Y984907D01*
Y985170D02*
Y985432D01*
Y985301D01*
X873796D01*
X873927Y985170D01*
X873796Y986350D02*
X873927Y986088D01*
X874189Y985826D01*
X874452D01*
X874583Y985957D01*
Y986219D01*
X874452Y986350D01*
X874320D01*
X874189Y986219D01*
Y985826D01*
X897287Y917125D02*
X897155Y917256D01*
X896893D01*
X896762Y917125D01*
Y916600D01*
X896893Y916469D01*
X897155D01*
X897287Y916600D01*
X898074Y916469D02*
X897549D01*
X898074Y916994D01*
Y917125D01*
X897942Y917256D01*
X897680D01*
X897549Y917125D01*
X898861Y916469D02*
X898336D01*
X898861Y916994D01*
Y917125D01*
X898730Y917256D01*
X898467D01*
X898336Y917125D01*
X890987Y917125D02*
X890856Y917256D01*
X890594D01*
X890462Y917125D01*
Y916600D01*
X890594Y916469D01*
X890856D01*
X890987Y916600D01*
X891774Y916469D02*
X891250D01*
X891774Y916994D01*
Y917125D01*
X891643Y917256D01*
X891381D01*
X891250Y917125D01*
X892037D02*
X892168Y917256D01*
X892430D01*
X892562Y917125D01*
Y916994D01*
X892430Y916862D01*
X892299D01*
X892430D01*
X892562Y916731D01*
Y916600D01*
X892430Y916469D01*
X892168D01*
X892037Y916600D01*
X910845Y906101D02*
X910714Y905970D01*
Y905708D01*
X910845Y905577D01*
X911370D01*
X911501Y905708D01*
Y905970D01*
X911370Y906101D01*
X910845Y906364D02*
X910714Y906495D01*
Y906757D01*
X910845Y906889D01*
X910976D01*
X911107Y906757D01*
X911238Y906889D01*
X911370D01*
X911501Y906757D01*
Y906495D01*
X911370Y906364D01*
X911238D01*
X911107Y906495D01*
X910976Y906364D01*
X910845D01*
X911107Y906495D02*
Y906757D01*
X871433Y984383D02*
X870646D01*
Y984776D01*
X870777Y984907D01*
X871040D01*
X871171Y984776D01*
Y984383D01*
Y984645D02*
X871433Y984907D01*
Y985170D02*
Y985432D01*
Y985301D01*
X870646D01*
X870777Y985170D01*
X870646Y985826D02*
Y986350D01*
X870777D01*
X871302Y985826D01*
X871433D01*
X898205Y929986D02*
X897418D01*
Y930380D01*
X897549Y930511D01*
X897811D01*
X897942Y930380D01*
Y929986D01*
Y930249D02*
X898205Y930511D01*
X897418Y930773D02*
Y931298D01*
X897549D01*
X898074Y930773D01*
X898205D01*
M02*
