M48
;Layer_Color=9474304
;FILE_FORMAT=2:5
INCH,TZ
;TYPE=PLATED
T1F00S00C0.00787
;TYPE=NON_PLATED
T3F00S00C0.02953
T4F00S00C0.06890
T5F00S00C0.20472
%
T01
X848992Y620406
Y624736
X862772Y621193
X869465Y624736
X872614Y623162
X871827Y617256
Y612532
X876551
X881276
X886000
X890725
X895449
Y617256
X890725
X886000
X881276
X876551
X881276Y621981
X886000
X895055Y622374
X894662Y627099
X897811Y625130
X907654Y625524
X906079Y636941
X909622Y638122
X912378Y635366
X916315
Y641272
X917607Y649429
X921827Y649146
X927732Y653477
X932477Y649160
X930474Y642861
X928520Y635366
X933244Y634185
X930882Y666469
X923402Y669225
X919465
X914347Y676311
X908835
X895449Y679807
X889150Y683398
X888509Y687729
X880488Y694028
X875370Y680248
Y675524
X870646
X871040Y671587
X868284Y669225
X865528Y671587
X865921Y675524
X861197
Y680248
X865921
X870646
Y684973
X865921
Y689697
X861197
Y684973
X856473
Y689697
X851158Y688225
X847221Y687831
X839150Y685366
X838756Y681036
X839150Y677492
X843874Y673162
X847024
X845449Y669225
X855095Y671296
Y678776
X857654Y702689
X853323Y704658
X849780Y707807
X851355Y711744
X848992Y715288
X845055
X843874Y704658
Y701115
X839150Y701902
X830095Y700327
Y703870
X828126Y709382
X835606Y712925
X833976Y690300
X830488Y690485
X828697Y662388
X831276Y636941
X836788
X837181Y640878
X834032Y634185
X846236Y633004
X853323
Y627099
X862772Y625130
X872614Y627099
X872221Y634579
X870252Y637729
X879701Y639697
X887575
X888559Y642650
X893225Y643024
X896630Y641272
X897024Y637729
X894662Y634185
X886000Y626311
X881276
X880095Y653083
X876158Y652689
X872221
X867890
X866709Y656626
Y660563
X870252Y661744
X874977
X878520
X880095Y658595
X884032Y659776
X882851Y655839
X886788Y656233
X888559Y652099
X895646Y651705
X903551Y650721
X906276Y646981
X906219Y642842
X911650Y654147
X906866Y660563
X899780Y660957
X893874Y660563
X890331
X872614Y658595
X870252Y655839
X864740Y649933
X846630Y641902
X855292Y718831
X849386Y725130
X873008Y711744
X888362Y712925
X894481Y721665
X907654Y721587
X911985Y723949
X915134Y714894
X918874
X921827Y720012
X923303Y709776
X915528Y709382
X911197Y709776
X912772Y704658
X916315
X904504Y705839
Y701508
X908441Y697178
X914740Y690485
X919858Y683398
X932851Y680248
X934425Y684973
X935606Y688516
X936000Y692059
X936788Y699540
X933638Y702296
X931276Y705839
X936788Y723555
X934819Y735760
X930095Y739697
X919071Y733792
X915134
X907260Y731823
X887969Y749933
X876945Y770799
X871827Y770406
X867103Y768831
X861985Y767650
X857478Y767652
X852929Y774736
X838756
Y778674
Y770799
X842693
X877339Y778674
X897811Y773162
X904898Y771193
X917496Y775524
X928914Y778280
X933248Y776271
X941512Y773162
X943874Y767627
Y668831
X941512Y666075
X941906Y652689
X942693Y627886
X938362Y629855
X937575Y871587
X938756Y889303
X940331Y912138
X939937Y934185
X923796Y935367
Y931823
X919071Y932217
X915134
X908441Y933398
X903717Y926705
Y923162
X900173Y921193
X896236Y918831
X893480
X891512Y923949
X893480Y927000
X888756Y926705
X889544Y934579
X893480
X897500Y934807
X898205Y926705
X902536Y914500
X900567Y908988
X907457Y908792
X907654Y905016
X907260Y896784
X908441Y889303
X900567
X902536Y885367
X901355Y874736
X897418
X905292
X910410Y871981
X910016Y867650
X905292Y866469
X908047Y863319
X910410Y859382
X903323Y861351
X892693Y862532
X885606Y867256
X877732Y867650
X873796
X869858
X865921
X863953Y862926
X854898
Y868831
X849386Y866469
X841118Y860057
X831276Y857414
Y851508
X858835Y854033
X863166Y853477
X867496
X860016Y844028
X864347Y836548
Y831823
X875764Y836548
X880882
Y841666
X875764
X893087Y843634
Y848752
X899386Y846587
Y841272
Y836744
X892096Y831633
X886360Y831611
X880488Y820800
X869071Y815288
Y810563
Y805839
Y801114
X864347
Y805839
Y810563
Y815288
X859622
Y810563
Y805839
Y801114
X854898
Y805839
Y810563
Y815288
X850173
Y810563
Y805839
Y801114
X842693Y806626
X838756
Y810563
Y814500
Y818437
X842693Y818437
X837057Y822537
X838756Y802689
Y798752
Y794815
X834819Y802689
X831276
X822614
Y807807
Y813319
Y792059
Y787335
X826945Y794028
X834819Y782611
X838756
X870252Y783004
X874583Y785366
X891512Y783004
X895055Y785366
X902142Y787335
X906473Y791666
Y794815
X908047Y801508
X905292Y803083
X902142
X899386Y799146
X895449Y798359
X895055Y803083
X888658Y798777
X924189Y800249
X929701Y799540
X933638Y798359
X934819Y801902
X933638Y807807
X928694Y807194
X931276Y813319
X928520Y816862
X924189Y817256
X930488Y824343
X936000Y827099
X935213Y855445
X927732Y858201
X926551Y862138
X924583Y868437
X930882Y868831
Y876705
X932457Y882611
X928126
X925370Y891272
X915921Y891666
X916709Y898752
X916315Y904264
X921433Y910170
X925370Y909776
X930507Y906985
X923402Y900327
X936000Y895603
X937181Y879461
X920252Y875524
X887575Y875918
X883638Y877099
X879701Y874736
X875764
X871827
X867890Y875130
X863953Y874736
X860016
X855292Y877492
Y885367
X860016Y883398
X865134Y879461
X872614Y892059
Y897178
X869465Y900721
X869858Y906233
X863096Y906611
X855685Y907020
X860016Y911351
X864937Y914500
X867496Y918044
X870646Y915681
X882654Y914107
X886591Y914303
X884819Y909000
X888500Y908866
X880882Y908933
X873796Y926311
X865921
X863953Y935367
X870752Y935919
X852929Y936154
X854111Y931036
X850567
X851355Y927099
X847418Y926705
X843480
Y922768
Y918831
X855292
Y922768
X838362Y902689
X841118Y897571
Y893241
Y888910
X839937Y883398
X844662Y880248
X832063Y891272
Y895209
X890331Y880642
X917024Y918831
X923402Y918044
Y922374
X931473Y795603
X933638Y790091
X928694Y789478
X929700Y781987
X937181Y781823
X935358Y784185
X936788Y941272
X930488Y945996
X926551
X924583Y949540
X928520
X932457
X936394Y952689
Y957020
Y961351
Y965288
Y969225
X931473Y965091
Y963122
Y961154
X925370Y961351
X923402
X921433
X916315Y955839
X912181Y956036
X913166Y952296
X916709Y948752
X915921Y941272
X915528Y937729
X911985Y938122
X902929Y937729
X899780Y943634
X898205Y947965
X899386Y952296
X902536Y950721
X895449Y951508
X896236Y955052
X891650Y955701
X889150Y958201
X893480Y958988
X892103Y948949
X891906Y943241
X887575Y941666
X889937Y938122
X883244Y940091
X878914Y941666
X874583Y937729
X872221Y946390
X874977Y948752
X874189Y952296
X870646Y953083
X869858Y949146
X878520Y951508
X871512Y959855
X876099Y965288
X876158Y968437
X867496Y967256
X856866Y966862
X857654Y974343
X852142Y976311
X855685Y982217
X854898Y986154
X854110Y993241
X860016
X871040Y989303
X874189
X879307Y988929
X884839Y986941
X890331Y989303
X893874
X898205
X904111Y990485
X910410Y989697
X910803Y985367
X908441Y994815
X902142Y999933
X898205Y1003083
X893874
X891118
X889150Y1008988
Y1012532
X880488
X879307Y1010170
X877732Y1014107
X875370Y1012926
X873008
X869465Y1014894
X865528
X861197
X857654Y1012926
X853717Y1004264
X870646Y1003083
X873796
X878126
X884425Y1007020
X899780Y1014107
X900961Y1017650
X899780Y981823
X891906
X872614
X869465Y978673
X863953Y979855
X846236Y980248
Y984185
X843874Y993241
X836394
X826551Y971981
Y963319
X843087Y962532
X846236Y966862
X847995Y957372
X847418Y952689
X850567Y954264
X851355Y944815
Y941666
X859622Y942059
X861985Y945996
X858835Y950721
X863953Y939697
X832457Y942059
X839544Y952296
X905685Y962138
X904111Y967650
X911197Y964500
X913166Y966469
X916709Y968831
X928126Y975130
Y979067
X930488Y982611
Y986548
Y990485
X922418Y941666
T03
X939051Y923162
X928225
T04
X839544Y621193
X927732
Y1008201
X839544
T05
X860016Y747965
X907260
M30
